solid
 facet normal  0.000000e+00  1.000000e+00 -0.000000e+00
   outer loop
     vertex  1.000000e+00  1.000000e+00  1.000000e-01
     vertex -1.000000e+00  1.000000e+00  1.000000e-01
     vertex -1.000000e+00  1.000000e+00  8.000000e-01
   endloop
 endfacet
 facet normal  0.000000e+00  1.000000e+00 -0.000000e+00
   outer loop
     vertex  1.000000e+00  1.000000e+00  1.000000e-01
     vertex -1.000000e+00  1.000000e+00  8.000000e-01
     vertex  1.000000e+00  1.000000e+00  8.000000e-01
   endloop
 endfacet
 facet normal  1.000000e+00  0.000000e+00  0.000000e+00
   outer loop
     vertex  1.000000e+00 -1.000000e+00  1.000000e-01
     vertex  1.000000e+00  1.000000e+00  1.000000e-01
     vertex  1.000000e+00  1.000000e+00  8.000000e-01
   endloop
 endfacet
 facet normal  1.000000e+00  0.000000e+00 -0.000000e+00
   outer loop
     vertex  1.000000e+00 -1.000000e+00  1.000000e-01
     vertex  1.000000e+00  1.000000e+00  8.000000e-01
     vertex  1.000000e+00 -1.000000e+00  8.000000e-01
   endloop
 endfacet
 facet normal  0.000000e+00 -1.000000e+00  0.000000e+00
   outer loop
     vertex -1.000000e+00 -1.000000e+00  1.000000e-01
     vertex  1.000000e+00 -1.000000e+00  1.000000e-01
     vertex  1.000000e+00 -1.000000e+00  8.000000e-01
   endloop
 endfacet
 facet normal  0.000000e+00 -1.000000e+00  0.000000e+00
   outer loop
     vertex -1.000000e+00 -1.000000e+00  1.000000e-01
     vertex  1.000000e+00 -1.000000e+00  8.000000e-01
     vertex -1.000000e+00 -1.000000e+00  8.000000e-01
   endloop
 endfacet
 facet normal -1.000000e+00  0.000000e+00  0.000000e+00
   outer loop
     vertex -1.000000e+00  1.000000e+00  1.000000e-01
     vertex -1.000000e+00 -1.000000e+00  1.000000e-01
     vertex -1.000000e+00 -1.000000e+00  8.000000e-01
   endloop
 endfacet
 facet normal -1.000000e+00  0.000000e+00  0.000000e+00
   outer loop
     vertex -1.000000e+00  1.000000e+00  1.000000e-01
     vertex -1.000000e+00 -1.000000e+00  8.000000e-01
     vertex -1.000000e+00  1.000000e+00  8.000000e-01
   endloop
 endfacet
 facet normal  0.000000e+00  0.000000e+00 -1.000000e+00
   outer loop
     vertex  1.000000e+00 -1.000000e+00  1.000000e-01
     vertex -1.000000e+00 -1.000000e+00  1.000000e-01
     vertex  1.000000e+00  1.000000e+00  1.000000e-01
   endloop
 endfacet
 facet normal  0.000000e+00  0.000000e+00 -1.000000e+00
   outer loop
     vertex -1.000000e+00 -1.000000e+00  1.000000e-01
     vertex -1.000000e+00  1.000000e+00  1.000000e-01
     vertex  1.000000e+00  1.000000e+00  1.000000e-01
   endloop
 endfacet
 facet normal -0.000000e+00  0.000000e+00  1.000000e+00
   outer loop
     vertex  1.000000e+00  1.000000e+00  8.000000e-01
     vertex -1.000000e+00 -1.000000e+00  8.000000e-01
     vertex  1.000000e+00 -1.000000e+00  8.000000e-01
   endloop
 endfacet
 facet normal  0.000000e+00  0.000000e+00  1.000000e+00
   outer loop
     vertex  1.000000e+00  1.000000e+00  8.000000e-01
     vertex -1.000000e+00  1.000000e+00  8.000000e-01
     vertex -1.000000e+00 -1.000000e+00  8.000000e-01
   endloop
 endfacet
 facet normal -1.000000e+00 -0.000000e+00 -0.000000e+00
   outer loop
     vertex -8.950000e-01  8.700000e-01  1.000000e-01
     vertex -8.950000e-01  8.700000e-01  0.000000e+00
     vertex -8.950000e-01  6.300000e-01  0.000000e+00
   endloop
 endfacet
 facet normal -1.000000e+00 -0.000000e+00  0.000000e+00
   outer loop
     vertex -8.950000e-01  8.700000e-01  1.000000e-01
     vertex -8.950000e-01  6.300000e-01  0.000000e+00
     vertex -8.950000e-01  6.300000e-01  1.000000e-01
   endloop
 endfacet
 facet normal  1.000000e+00  0.000000e+00  0.000000e+00
   outer loop
     vertex -6.050000e-01  6.300000e-01  0.000000e+00
     vertex -6.050000e-01  8.700000e-01  0.000000e+00
     vertex -6.050000e-01  8.700000e-01  1.000000e-01
   endloop
 endfacet
 facet normal  1.000000e+00 -0.000000e+00  0.000000e+00
   outer loop
     vertex -6.050000e-01  6.300000e-01  1.000000e-01
     vertex -6.050000e-01  6.300000e-01  0.000000e+00
     vertex -6.050000e-01  8.700000e-01  1.000000e-01
   endloop
 endfacet
 facet normal  0.000000e+00 -1.000000e+00  0.000000e+00
   outer loop
     vertex -8.950000e-01  6.300000e-01  0.000000e+00
     vertex -6.050000e-01  6.300000e-01  0.000000e+00
     vertex -6.050000e-01  6.300000e-01  1.000000e-01
   endloop
 endfacet
 facet normal  0.000000e+00 -1.000000e+00  0.000000e+00
   outer loop
     vertex -8.950000e-01  6.300000e-01  1.000000e-01
     vertex -8.950000e-01  6.300000e-01  0.000000e+00
     vertex -6.050000e-01  6.300000e-01  1.000000e-01
   endloop
 endfacet
 facet normal  0.000000e+00  1.000000e+00  0.000000e+00
   outer loop
     vertex -6.050000e-01  8.700000e-01  1.000000e-01
     vertex -6.050000e-01  8.700000e-01  0.000000e+00
     vertex -8.950000e-01  8.700000e-01  0.000000e+00
   endloop
 endfacet
 facet normal  0.000000e+00  1.000000e+00 -0.000000e+00
   outer loop
     vertex -6.050000e-01  8.700000e-01  1.000000e-01
     vertex -8.950000e-01  8.700000e-01  0.000000e+00
     vertex -8.950000e-01  8.700000e-01  1.000000e-01
   endloop
 endfacet
 facet normal  0.000000e+00  0.000000e+00 -1.000000e+00
   outer loop
     vertex -8.950000e-01  6.300000e-01  0.000000e+00
     vertex -8.950000e-01  8.700000e-01  0.000000e+00
     vertex -6.050000e-01  8.700000e-01  0.000000e+00
   endloop
 endfacet
 facet normal  0.000000e+00  0.000000e+00 -1.000000e+00
   outer loop
     vertex -6.050000e-01  6.300000e-01  0.000000e+00
     vertex -8.950000e-01  6.300000e-01  0.000000e+00
     vertex -6.050000e-01  8.700000e-01  0.000000e+00
   endloop
 endfacet
 facet normal  0.000000e+00  0.000000e+00  1.000000e+00
   outer loop
     vertex -6.050000e-01  8.700000e-01  1.000000e-01
     vertex -8.950000e-01  8.700000e-01  1.000000e-01
     vertex -8.950000e-01  6.300000e-01  1.000000e-01
   endloop
 endfacet
 facet normal -0.000000e+00  0.000000e+00  1.000000e+00
   outer loop
     vertex -6.050000e-01  8.700000e-01  1.000000e-01
     vertex -8.950000e-01  6.300000e-01  1.000000e-01
     vertex -6.050000e-01  6.300000e-01  1.000000e-01
   endloop
 endfacet
 facet normal -1.000000e+00 -0.000000e+00 -0.000000e+00
   outer loop
     vertex -8.950000e-01  3.700000e-01  1.000000e-01
     vertex -8.950000e-01  3.700000e-01  0.000000e+00
     vertex -8.950000e-01  1.300000e-01  0.000000e+00
   endloop
 endfacet
 facet normal -1.000000e+00 -0.000000e+00  0.000000e+00
   outer loop
     vertex -8.950000e-01  3.700000e-01  1.000000e-01
     vertex -8.950000e-01  1.300000e-01  0.000000e+00
     vertex -8.950000e-01  1.300000e-01  1.000000e-01
   endloop
 endfacet
 facet normal  1.000000e+00  0.000000e+00  0.000000e+00
   outer loop
     vertex -6.050000e-01  1.300000e-01  0.000000e+00
     vertex -6.050000e-01  3.700000e-01  0.000000e+00
     vertex -6.050000e-01  3.700000e-01  1.000000e-01
   endloop
 endfacet
 facet normal  1.000000e+00 -0.000000e+00  0.000000e+00
   outer loop
     vertex -6.050000e-01  1.300000e-01  1.000000e-01
     vertex -6.050000e-01  1.300000e-01  0.000000e+00
     vertex -6.050000e-01  3.700000e-01  1.000000e-01
   endloop
 endfacet
 facet normal  0.000000e+00 -1.000000e+00  0.000000e+00
   outer loop
     vertex -8.950000e-01  1.300000e-01  0.000000e+00
     vertex -6.050000e-01  1.300000e-01  0.000000e+00
     vertex -6.050000e-01  1.300000e-01  1.000000e-01
   endloop
 endfacet
 facet normal  0.000000e+00 -1.000000e+00  0.000000e+00
   outer loop
     vertex -8.950000e-01  1.300000e-01  1.000000e-01
     vertex -8.950000e-01  1.300000e-01  0.000000e+00
     vertex -6.050000e-01  1.300000e-01  1.000000e-01
   endloop
 endfacet
 facet normal  0.000000e+00  1.000000e+00  0.000000e+00
   outer loop
     vertex -6.050000e-01  3.700000e-01  1.000000e-01
     vertex -6.050000e-01  3.700000e-01  0.000000e+00
     vertex -8.950000e-01  3.700000e-01  0.000000e+00
   endloop
 endfacet
 facet normal  0.000000e+00  1.000000e+00 -0.000000e+00
   outer loop
     vertex -6.050000e-01  3.700000e-01  1.000000e-01
     vertex -8.950000e-01  3.700000e-01  0.000000e+00
     vertex -8.950000e-01  3.700000e-01  1.000000e-01
   endloop
 endfacet
 facet normal  0.000000e+00  0.000000e+00 -1.000000e+00
   outer loop
     vertex -8.950000e-01  1.300000e-01  0.000000e+00
     vertex -8.950000e-01  3.700000e-01  0.000000e+00
     vertex -6.050000e-01  3.700000e-01  0.000000e+00
   endloop
 endfacet
 facet normal  0.000000e+00  0.000000e+00 -1.000000e+00
   outer loop
     vertex -6.050000e-01  1.300000e-01  0.000000e+00
     vertex -8.950000e-01  1.300000e-01  0.000000e+00
     vertex -6.050000e-01  3.700000e-01  0.000000e+00
   endloop
 endfacet
 facet normal  0.000000e+00  0.000000e+00  1.000000e+00
   outer loop
     vertex -6.050000e-01  3.700000e-01  1.000000e-01
     vertex -8.950000e-01  3.700000e-01  1.000000e-01
     vertex -8.950000e-01  1.300000e-01  1.000000e-01
   endloop
 endfacet
 facet normal -0.000000e+00  0.000000e+00  1.000000e+00
   outer loop
     vertex -6.050000e-01  3.700000e-01  1.000000e-01
     vertex -8.950000e-01  1.300000e-01  1.000000e-01
     vertex -6.050000e-01  1.300000e-01  1.000000e-01
   endloop
 endfacet
 facet normal -1.000000e+00 -0.000000e+00 -0.000000e+00
   outer loop
     vertex -8.950000e-01 -1.300000e-01  1.000000e-01
     vertex -8.950000e-01 -1.300000e-01  0.000000e+00
     vertex -8.950000e-01 -3.700000e-01  0.000000e+00
   endloop
 endfacet
 facet normal -1.000000e+00 -0.000000e+00  0.000000e+00
   outer loop
     vertex -8.950000e-01 -1.300000e-01  1.000000e-01
     vertex -8.950000e-01 -3.700000e-01  0.000000e+00
     vertex -8.950000e-01 -3.700000e-01  1.000000e-01
   endloop
 endfacet
 facet normal  1.000000e+00  0.000000e+00  0.000000e+00
   outer loop
     vertex -6.050000e-01 -3.700000e-01  0.000000e+00
     vertex -6.050000e-01 -1.300000e-01  0.000000e+00
     vertex -6.050000e-01 -1.300000e-01  1.000000e-01
   endloop
 endfacet
 facet normal  1.000000e+00 -0.000000e+00  0.000000e+00
   outer loop
     vertex -6.050000e-01 -3.700000e-01  1.000000e-01
     vertex -6.050000e-01 -3.700000e-01  0.000000e+00
     vertex -6.050000e-01 -1.300000e-01  1.000000e-01
   endloop
 endfacet
 facet normal  0.000000e+00 -1.000000e+00  0.000000e+00
   outer loop
     vertex -8.950000e-01 -3.700000e-01  0.000000e+00
     vertex -6.050000e-01 -3.700000e-01  0.000000e+00
     vertex -6.050000e-01 -3.700000e-01  1.000000e-01
   endloop
 endfacet
 facet normal  0.000000e+00 -1.000000e+00  0.000000e+00
   outer loop
     vertex -8.950000e-01 -3.700000e-01  1.000000e-01
     vertex -8.950000e-01 -3.700000e-01  0.000000e+00
     vertex -6.050000e-01 -3.700000e-01  1.000000e-01
   endloop
 endfacet
 facet normal  0.000000e+00  1.000000e+00  0.000000e+00
   outer loop
     vertex -6.050000e-01 -1.300000e-01  1.000000e-01
     vertex -6.050000e-01 -1.300000e-01  0.000000e+00
     vertex -8.950000e-01 -1.300000e-01  0.000000e+00
   endloop
 endfacet
 facet normal  0.000000e+00  1.000000e+00 -0.000000e+00
   outer loop
     vertex -6.050000e-01 -1.300000e-01  1.000000e-01
     vertex -8.950000e-01 -1.300000e-01  0.000000e+00
     vertex -8.950000e-01 -1.300000e-01  1.000000e-01
   endloop
 endfacet
 facet normal  0.000000e+00  0.000000e+00 -1.000000e+00
   outer loop
     vertex -8.950000e-01 -3.700000e-01  0.000000e+00
     vertex -8.950000e-01 -1.300000e-01  0.000000e+00
     vertex -6.050000e-01 -1.300000e-01  0.000000e+00
   endloop
 endfacet
 facet normal  0.000000e+00  0.000000e+00 -1.000000e+00
   outer loop
     vertex -6.050000e-01 -3.700000e-01  0.000000e+00
     vertex -8.950000e-01 -3.700000e-01  0.000000e+00
     vertex -6.050000e-01 -1.300000e-01  0.000000e+00
   endloop
 endfacet
 facet normal  0.000000e+00  0.000000e+00  1.000000e+00
   outer loop
     vertex -6.050000e-01 -1.300000e-01  1.000000e-01
     vertex -8.950000e-01 -1.300000e-01  1.000000e-01
     vertex -8.950000e-01 -3.700000e-01  1.000000e-01
   endloop
 endfacet
 facet normal -0.000000e+00  0.000000e+00  1.000000e+00
   outer loop
     vertex -6.050000e-01 -1.300000e-01  1.000000e-01
     vertex -8.950000e-01 -3.700000e-01  1.000000e-01
     vertex -6.050000e-01 -3.700000e-01  1.000000e-01
   endloop
 endfacet
 facet normal -1.000000e+00 -0.000000e+00 -0.000000e+00
   outer loop
     vertex -8.950000e-01 -6.300000e-01  1.000000e-01
     vertex -8.950000e-01 -6.300000e-01  0.000000e+00
     vertex -8.950000e-01 -8.700000e-01  0.000000e+00
   endloop
 endfacet
 facet normal -1.000000e+00 -0.000000e+00  0.000000e+00
   outer loop
     vertex -8.950000e-01 -6.300000e-01  1.000000e-01
     vertex -8.950000e-01 -8.700000e-01  0.000000e+00
     vertex -8.950000e-01 -8.700000e-01  1.000000e-01
   endloop
 endfacet
 facet normal  1.000000e+00  0.000000e+00  0.000000e+00
   outer loop
     vertex -6.050000e-01 -8.700000e-01  0.000000e+00
     vertex -6.050000e-01 -6.300000e-01  0.000000e+00
     vertex -6.050000e-01 -6.300000e-01  1.000000e-01
   endloop
 endfacet
 facet normal  1.000000e+00 -0.000000e+00  0.000000e+00
   outer loop
     vertex -6.050000e-01 -8.700000e-01  1.000000e-01
     vertex -6.050000e-01 -8.700000e-01  0.000000e+00
     vertex -6.050000e-01 -6.300000e-01  1.000000e-01
   endloop
 endfacet
 facet normal  0.000000e+00 -1.000000e+00  0.000000e+00
   outer loop
     vertex -8.950000e-01 -8.700000e-01  0.000000e+00
     vertex -6.050000e-01 -8.700000e-01  0.000000e+00
     vertex -6.050000e-01 -8.700000e-01  1.000000e-01
   endloop
 endfacet
 facet normal  0.000000e+00 -1.000000e+00  0.000000e+00
   outer loop
     vertex -8.950000e-01 -8.700000e-01  1.000000e-01
     vertex -8.950000e-01 -8.700000e-01  0.000000e+00
     vertex -6.050000e-01 -8.700000e-01  1.000000e-01
   endloop
 endfacet
 facet normal  0.000000e+00  1.000000e+00  0.000000e+00
   outer loop
     vertex -6.050000e-01 -6.300000e-01  1.000000e-01
     vertex -6.050000e-01 -6.300000e-01  0.000000e+00
     vertex -8.950000e-01 -6.300000e-01  0.000000e+00
   endloop
 endfacet
 facet normal  0.000000e+00  1.000000e+00 -0.000000e+00
   outer loop
     vertex -6.050000e-01 -6.300000e-01  1.000000e-01
     vertex -8.950000e-01 -6.300000e-01  0.000000e+00
     vertex -8.950000e-01 -6.300000e-01  1.000000e-01
   endloop
 endfacet
 facet normal  0.000000e+00  0.000000e+00 -1.000000e+00
   outer loop
     vertex -8.950000e-01 -8.700000e-01  0.000000e+00
     vertex -8.950000e-01 -6.300000e-01  0.000000e+00
     vertex -6.050000e-01 -6.300000e-01  0.000000e+00
   endloop
 endfacet
 facet normal  0.000000e+00  0.000000e+00 -1.000000e+00
   outer loop
     vertex -6.050000e-01 -8.700000e-01  0.000000e+00
     vertex -8.950000e-01 -8.700000e-01  0.000000e+00
     vertex -6.050000e-01 -6.300000e-01  0.000000e+00
   endloop
 endfacet
 facet normal  0.000000e+00  0.000000e+00  1.000000e+00
   outer loop
     vertex -6.050000e-01 -6.300000e-01  1.000000e-01
     vertex -8.950000e-01 -6.300000e-01  1.000000e-01
     vertex -8.950000e-01 -8.700000e-01  1.000000e-01
   endloop
 endfacet
 facet normal -0.000000e+00  0.000000e+00  1.000000e+00
   outer loop
     vertex -6.050000e-01 -6.300000e-01  1.000000e-01
     vertex -8.950000e-01 -8.700000e-01  1.000000e-01
     vertex -6.050000e-01 -8.700000e-01  1.000000e-01
   endloop
 endfacet
 facet normal -1.000000e+00 -0.000000e+00 -0.000000e+00
   outer loop
     vertex -3.700000e-01 -6.050000e-01  1.000000e-01
     vertex -3.700000e-01 -6.050000e-01  0.000000e+00
     vertex -3.700000e-01 -8.950000e-01  1.000000e-01
   endloop
 endfacet
 facet normal -1.000000e+00  0.000000e+00  0.000000e+00
   outer loop
     vertex -3.700000e-01 -6.050000e-01  0.000000e+00
     vertex -3.700000e-01 -8.950000e-01  0.000000e+00
     vertex -3.700000e-01 -8.950000e-01  1.000000e-01
   endloop
 endfacet
 facet normal  1.000000e+00 -0.000000e+00  0.000000e+00
   outer loop
     vertex -1.300000e-01 -8.950000e-01  1.000000e-01
     vertex -1.300000e-01 -6.050000e-01  0.000000e+00
     vertex -1.300000e-01 -6.050000e-01  1.000000e-01
   endloop
 endfacet
 facet normal  1.000000e+00 -0.000000e+00  0.000000e+00
   outer loop
     vertex -1.300000e-01 -8.950000e-01  1.000000e-01
     vertex -1.300000e-01 -8.950000e-01  0.000000e+00
     vertex -1.300000e-01 -6.050000e-01  0.000000e+00
   endloop
 endfacet
 facet normal  0.000000e+00 -1.000000e+00  0.000000e+00
   outer loop
     vertex -3.700000e-01 -8.950000e-01  1.000000e-01
     vertex -3.700000e-01 -8.950000e-01  0.000000e+00
     vertex -1.300000e-01 -8.950000e-01  0.000000e+00
   endloop
 endfacet
 facet normal  0.000000e+00 -1.000000e+00  0.000000e+00
   outer loop
     vertex -3.700000e-01 -8.950000e-01  1.000000e-01
     vertex -1.300000e-01 -8.950000e-01  0.000000e+00
     vertex -1.300000e-01 -8.950000e-01  1.000000e-01
   endloop
 endfacet
 facet normal  0.000000e+00  1.000000e+00 -0.000000e+00
   outer loop
     vertex -1.300000e-01 -6.050000e-01  0.000000e+00
     vertex -3.700000e-01 -6.050000e-01  0.000000e+00
     vertex -3.700000e-01 -6.050000e-01  1.000000e-01
   endloop
 endfacet
 facet normal  0.000000e+00  1.000000e+00  0.000000e+00
   outer loop
     vertex -1.300000e-01 -6.050000e-01  1.000000e-01
     vertex -1.300000e-01 -6.050000e-01  0.000000e+00
     vertex -3.700000e-01 -6.050000e-01  1.000000e-01
   endloop
 endfacet
 facet normal  0.000000e+00  0.000000e+00 -1.000000e+00
   outer loop
     vertex -1.300000e-01 -8.950000e-01  0.000000e+00
     vertex -3.700000e-01 -8.950000e-01  0.000000e+00
     vertex -3.700000e-01 -6.050000e-01  0.000000e+00
   endloop
 endfacet
 facet normal  0.000000e+00  0.000000e+00 -1.000000e+00
   outer loop
     vertex -1.300000e-01 -8.950000e-01  0.000000e+00
     vertex -3.700000e-01 -6.050000e-01  0.000000e+00
     vertex -1.300000e-01 -6.050000e-01  0.000000e+00
   endloop
 endfacet
 facet normal -0.000000e+00  0.000000e+00  1.000000e+00
   outer loop
     vertex -3.700000e-01 -6.050000e-01  1.000000e-01
     vertex -3.700000e-01 -8.950000e-01  1.000000e-01
     vertex -1.300000e-01 -8.950000e-01  1.000000e-01
   endloop
 endfacet
 facet normal  0.000000e+00  0.000000e+00  1.000000e+00
   outer loop
     vertex -1.300000e-01 -6.050000e-01  1.000000e-01
     vertex -3.700000e-01 -6.050000e-01  1.000000e-01
     vertex -1.300000e-01 -8.950000e-01  1.000000e-01
   endloop
 endfacet
 facet normal -1.000000e+00 -0.000000e+00 -0.000000e+00
   outer loop
     vertex  1.300000e-01 -6.050000e-01  1.000000e-01
     vertex  1.300000e-01 -6.050000e-01  0.000000e+00
     vertex  1.300000e-01 -8.950000e-01  1.000000e-01
   endloop
 endfacet
 facet normal -1.000000e+00  0.000000e+00  0.000000e+00
   outer loop
     vertex  1.300000e-01 -6.050000e-01  0.000000e+00
     vertex  1.300000e-01 -8.950000e-01  0.000000e+00
     vertex  1.300000e-01 -8.950000e-01  1.000000e-01
   endloop
 endfacet
 facet normal  1.000000e+00 -0.000000e+00  0.000000e+00
   outer loop
     vertex  3.700000e-01 -8.950000e-01  1.000000e-01
     vertex  3.700000e-01 -6.050000e-01  0.000000e+00
     vertex  3.700000e-01 -6.050000e-01  1.000000e-01
   endloop
 endfacet
 facet normal  1.000000e+00 -0.000000e+00  0.000000e+00
   outer loop
     vertex  3.700000e-01 -8.950000e-01  1.000000e-01
     vertex  3.700000e-01 -8.950000e-01  0.000000e+00
     vertex  3.700000e-01 -6.050000e-01  0.000000e+00
   endloop
 endfacet
 facet normal  0.000000e+00 -1.000000e+00  0.000000e+00
   outer loop
     vertex  1.300000e-01 -8.950000e-01  1.000000e-01
     vertex  1.300000e-01 -8.950000e-01  0.000000e+00
     vertex  3.700000e-01 -8.950000e-01  0.000000e+00
   endloop
 endfacet
 facet normal  0.000000e+00 -1.000000e+00  0.000000e+00
   outer loop
     vertex  1.300000e-01 -8.950000e-01  1.000000e-01
     vertex  3.700000e-01 -8.950000e-01  0.000000e+00
     vertex  3.700000e-01 -8.950000e-01  1.000000e-01
   endloop
 endfacet
 facet normal  0.000000e+00  1.000000e+00 -0.000000e+00
   outer loop
     vertex  3.700000e-01 -6.050000e-01  0.000000e+00
     vertex  1.300000e-01 -6.050000e-01  0.000000e+00
     vertex  1.300000e-01 -6.050000e-01  1.000000e-01
   endloop
 endfacet
 facet normal  0.000000e+00  1.000000e+00  0.000000e+00
   outer loop
     vertex  3.700000e-01 -6.050000e-01  1.000000e-01
     vertex  3.700000e-01 -6.050000e-01  0.000000e+00
     vertex  1.300000e-01 -6.050000e-01  1.000000e-01
   endloop
 endfacet
 facet normal  0.000000e+00  0.000000e+00 -1.000000e+00
   outer loop
     vertex  3.700000e-01 -8.950000e-01  0.000000e+00
     vertex  1.300000e-01 -8.950000e-01  0.000000e+00
     vertex  1.300000e-01 -6.050000e-01  0.000000e+00
   endloop
 endfacet
 facet normal  0.000000e+00  0.000000e+00 -1.000000e+00
   outer loop
     vertex  3.700000e-01 -8.950000e-01  0.000000e+00
     vertex  1.300000e-01 -6.050000e-01  0.000000e+00
     vertex  3.700000e-01 -6.050000e-01  0.000000e+00
   endloop
 endfacet
 facet normal -0.000000e+00  0.000000e+00  1.000000e+00
   outer loop
     vertex  1.300000e-01 -6.050000e-01  1.000000e-01
     vertex  1.300000e-01 -8.950000e-01  1.000000e-01
     vertex  3.700000e-01 -8.950000e-01  1.000000e-01
   endloop
 endfacet
 facet normal  0.000000e+00  0.000000e+00  1.000000e+00
   outer loop
     vertex  3.700000e-01 -6.050000e-01  1.000000e-01
     vertex  1.300000e-01 -6.050000e-01  1.000000e-01
     vertex  3.700000e-01 -8.950000e-01  1.000000e-01
   endloop
 endfacet
 facet normal -1.000000e+00 -0.000000e+00 -0.000000e+00
   outer loop
     vertex  6.050000e-01 -6.300000e-01  1.000000e-01
     vertex  6.050000e-01 -6.300000e-01  0.000000e+00
     vertex  6.050000e-01 -8.700000e-01  0.000000e+00
   endloop
 endfacet
 facet normal -1.000000e+00 -0.000000e+00  0.000000e+00
   outer loop
     vertex  6.050000e-01 -6.300000e-01  1.000000e-01
     vertex  6.050000e-01 -8.700000e-01  0.000000e+00
     vertex  6.050000e-01 -8.700000e-01  1.000000e-01
   endloop
 endfacet
 facet normal  1.000000e+00  0.000000e+00  0.000000e+00
   outer loop
     vertex  8.950000e-01 -8.700000e-01  0.000000e+00
     vertex  8.950000e-01 -6.300000e-01  0.000000e+00
     vertex  8.950000e-01 -6.300000e-01  1.000000e-01
   endloop
 endfacet
 facet normal  1.000000e+00 -0.000000e+00  0.000000e+00
   outer loop
     vertex  8.950000e-01 -8.700000e-01  1.000000e-01
     vertex  8.950000e-01 -8.700000e-01  0.000000e+00
     vertex  8.950000e-01 -6.300000e-01  1.000000e-01
   endloop
 endfacet
 facet normal  0.000000e+00 -1.000000e+00  0.000000e+00
   outer loop
     vertex  6.050000e-01 -8.700000e-01  0.000000e+00
     vertex  8.950000e-01 -8.700000e-01  0.000000e+00
     vertex  8.950000e-01 -8.700000e-01  1.000000e-01
   endloop
 endfacet
 facet normal  0.000000e+00 -1.000000e+00  0.000000e+00
   outer loop
     vertex  6.050000e-01 -8.700000e-01  1.000000e-01
     vertex  6.050000e-01 -8.700000e-01  0.000000e+00
     vertex  8.950000e-01 -8.700000e-01  1.000000e-01
   endloop
 endfacet
 facet normal  0.000000e+00  1.000000e+00  0.000000e+00
   outer loop
     vertex  8.950000e-01 -6.300000e-01  1.000000e-01
     vertex  8.950000e-01 -6.300000e-01  0.000000e+00
     vertex  6.050000e-01 -6.300000e-01  0.000000e+00
   endloop
 endfacet
 facet normal  0.000000e+00  1.000000e+00 -0.000000e+00
   outer loop
     vertex  8.950000e-01 -6.300000e-01  1.000000e-01
     vertex  6.050000e-01 -6.300000e-01  0.000000e+00
     vertex  6.050000e-01 -6.300000e-01  1.000000e-01
   endloop
 endfacet
 facet normal  0.000000e+00  0.000000e+00 -1.000000e+00
   outer loop
     vertex  6.050000e-01 -8.700000e-01  0.000000e+00
     vertex  6.050000e-01 -6.300000e-01  0.000000e+00
     vertex  8.950000e-01 -6.300000e-01  0.000000e+00
   endloop
 endfacet
 facet normal  0.000000e+00  0.000000e+00 -1.000000e+00
   outer loop
     vertex  8.950000e-01 -8.700000e-01  0.000000e+00
     vertex  6.050000e-01 -8.700000e-01  0.000000e+00
     vertex  8.950000e-01 -6.300000e-01  0.000000e+00
   endloop
 endfacet
 facet normal  0.000000e+00  0.000000e+00  1.000000e+00
   outer loop
     vertex  8.950000e-01 -6.300000e-01  1.000000e-01
     vertex  6.050000e-01 -6.300000e-01  1.000000e-01
     vertex  6.050000e-01 -8.700000e-01  1.000000e-01
   endloop
 endfacet
 facet normal -0.000000e+00  0.000000e+00  1.000000e+00
   outer loop
     vertex  8.950000e-01 -6.300000e-01  1.000000e-01
     vertex  6.050000e-01 -8.700000e-01  1.000000e-01
     vertex  8.950000e-01 -8.700000e-01  1.000000e-01
   endloop
 endfacet
 facet normal -1.000000e+00 -0.000000e+00 -0.000000e+00
   outer loop
     vertex  6.050000e-01 -1.300000e-01  1.000000e-01
     vertex  6.050000e-01 -1.300000e-01  0.000000e+00
     vertex  6.050000e-01 -3.700000e-01  0.000000e+00
   endloop
 endfacet
 facet normal -1.000000e+00 -0.000000e+00  0.000000e+00
   outer loop
     vertex  6.050000e-01 -1.300000e-01  1.000000e-01
     vertex  6.050000e-01 -3.700000e-01  0.000000e+00
     vertex  6.050000e-01 -3.700000e-01  1.000000e-01
   endloop
 endfacet
 facet normal  1.000000e+00  0.000000e+00  0.000000e+00
   outer loop
     vertex  8.950000e-01 -3.700000e-01  0.000000e+00
     vertex  8.950000e-01 -1.300000e-01  0.000000e+00
     vertex  8.950000e-01 -1.300000e-01  1.000000e-01
   endloop
 endfacet
 facet normal  1.000000e+00 -0.000000e+00  0.000000e+00
   outer loop
     vertex  8.950000e-01 -3.700000e-01  1.000000e-01
     vertex  8.950000e-01 -3.700000e-01  0.000000e+00
     vertex  8.950000e-01 -1.300000e-01  1.000000e-01
   endloop
 endfacet
 facet normal  0.000000e+00 -1.000000e+00  0.000000e+00
   outer loop
     vertex  6.050000e-01 -3.700000e-01  0.000000e+00
     vertex  8.950000e-01 -3.700000e-01  0.000000e+00
     vertex  8.950000e-01 -3.700000e-01  1.000000e-01
   endloop
 endfacet
 facet normal  0.000000e+00 -1.000000e+00  0.000000e+00
   outer loop
     vertex  6.050000e-01 -3.700000e-01  1.000000e-01
     vertex  6.050000e-01 -3.700000e-01  0.000000e+00
     vertex  8.950000e-01 -3.700000e-01  1.000000e-01
   endloop
 endfacet
 facet normal  0.000000e+00  1.000000e+00  0.000000e+00
   outer loop
     vertex  8.950000e-01 -1.300000e-01  1.000000e-01
     vertex  8.950000e-01 -1.300000e-01  0.000000e+00
     vertex  6.050000e-01 -1.300000e-01  0.000000e+00
   endloop
 endfacet
 facet normal  0.000000e+00  1.000000e+00 -0.000000e+00
   outer loop
     vertex  8.950000e-01 -1.300000e-01  1.000000e-01
     vertex  6.050000e-01 -1.300000e-01  0.000000e+00
     vertex  6.050000e-01 -1.300000e-01  1.000000e-01
   endloop
 endfacet
 facet normal  0.000000e+00  0.000000e+00 -1.000000e+00
   outer loop
     vertex  6.050000e-01 -3.700000e-01  0.000000e+00
     vertex  6.050000e-01 -1.300000e-01  0.000000e+00
     vertex  8.950000e-01 -1.300000e-01  0.000000e+00
   endloop
 endfacet
 facet normal  0.000000e+00  0.000000e+00 -1.000000e+00
   outer loop
     vertex  8.950000e-01 -3.700000e-01  0.000000e+00
     vertex  6.050000e-01 -3.700000e-01  0.000000e+00
     vertex  8.950000e-01 -1.300000e-01  0.000000e+00
   endloop
 endfacet
 facet normal  0.000000e+00  0.000000e+00  1.000000e+00
   outer loop
     vertex  8.950000e-01 -1.300000e-01  1.000000e-01
     vertex  6.050000e-01 -1.300000e-01  1.000000e-01
     vertex  6.050000e-01 -3.700000e-01  1.000000e-01
   endloop
 endfacet
 facet normal -0.000000e+00  0.000000e+00  1.000000e+00
   outer loop
     vertex  8.950000e-01 -1.300000e-01  1.000000e-01
     vertex  6.050000e-01 -3.700000e-01  1.000000e-01
     vertex  8.950000e-01 -3.700000e-01  1.000000e-01
   endloop
 endfacet
 facet normal -1.000000e+00 -0.000000e+00 -0.000000e+00
   outer loop
     vertex  6.050000e-01  3.700000e-01  1.000000e-01
     vertex  6.050000e-01  3.700000e-01  0.000000e+00
     vertex  6.050000e-01  1.300000e-01  0.000000e+00
   endloop
 endfacet
 facet normal -1.000000e+00 -0.000000e+00  0.000000e+00
   outer loop
     vertex  6.050000e-01  3.700000e-01  1.000000e-01
     vertex  6.050000e-01  1.300000e-01  0.000000e+00
     vertex  6.050000e-01  1.300000e-01  1.000000e-01
   endloop
 endfacet
 facet normal  1.000000e+00  0.000000e+00  0.000000e+00
   outer loop
     vertex  8.950000e-01  1.300000e-01  0.000000e+00
     vertex  8.950000e-01  3.700000e-01  0.000000e+00
     vertex  8.950000e-01  3.700000e-01  1.000000e-01
   endloop
 endfacet
 facet normal  1.000000e+00 -0.000000e+00  0.000000e+00
   outer loop
     vertex  8.950000e-01  1.300000e-01  1.000000e-01
     vertex  8.950000e-01  1.300000e-01  0.000000e+00
     vertex  8.950000e-01  3.700000e-01  1.000000e-01
   endloop
 endfacet
 facet normal  0.000000e+00 -1.000000e+00  0.000000e+00
   outer loop
     vertex  6.050000e-01  1.300000e-01  0.000000e+00
     vertex  8.950000e-01  1.300000e-01  0.000000e+00
     vertex  8.950000e-01  1.300000e-01  1.000000e-01
   endloop
 endfacet
 facet normal  0.000000e+00 -1.000000e+00  0.000000e+00
   outer loop
     vertex  6.050000e-01  1.300000e-01  1.000000e-01
     vertex  6.050000e-01  1.300000e-01  0.000000e+00
     vertex  8.950000e-01  1.300000e-01  1.000000e-01
   endloop
 endfacet
 facet normal  0.000000e+00  1.000000e+00  0.000000e+00
   outer loop
     vertex  8.950000e-01  3.700000e-01  1.000000e-01
     vertex  8.950000e-01  3.700000e-01  0.000000e+00
     vertex  6.050000e-01  3.700000e-01  0.000000e+00
   endloop
 endfacet
 facet normal  0.000000e+00  1.000000e+00 -0.000000e+00
   outer loop
     vertex  8.950000e-01  3.700000e-01  1.000000e-01
     vertex  6.050000e-01  3.700000e-01  0.000000e+00
     vertex  6.050000e-01  3.700000e-01  1.000000e-01
   endloop
 endfacet
 facet normal  0.000000e+00  0.000000e+00 -1.000000e+00
   outer loop
     vertex  6.050000e-01  1.300000e-01  0.000000e+00
     vertex  6.050000e-01  3.700000e-01  0.000000e+00
     vertex  8.950000e-01  3.700000e-01  0.000000e+00
   endloop
 endfacet
 facet normal  0.000000e+00  0.000000e+00 -1.000000e+00
   outer loop
     vertex  8.950000e-01  1.300000e-01  0.000000e+00
     vertex  6.050000e-01  1.300000e-01  0.000000e+00
     vertex  8.950000e-01  3.700000e-01  0.000000e+00
   endloop
 endfacet
 facet normal  0.000000e+00  0.000000e+00  1.000000e+00
   outer loop
     vertex  8.950000e-01  3.700000e-01  1.000000e-01
     vertex  6.050000e-01  3.700000e-01  1.000000e-01
     vertex  6.050000e-01  1.300000e-01  1.000000e-01
   endloop
 endfacet
 facet normal -0.000000e+00  0.000000e+00  1.000000e+00
   outer loop
     vertex  8.950000e-01  3.700000e-01  1.000000e-01
     vertex  6.050000e-01  1.300000e-01  1.000000e-01
     vertex  8.950000e-01  1.300000e-01  1.000000e-01
   endloop
 endfacet
 facet normal -1.000000e+00 -0.000000e+00 -0.000000e+00
   outer loop
     vertex  6.050000e-01  8.700000e-01  1.000000e-01
     vertex  6.050000e-01  8.700000e-01  0.000000e+00
     vertex  6.050000e-01  6.300000e-01  0.000000e+00
   endloop
 endfacet
 facet normal -1.000000e+00 -0.000000e+00  0.000000e+00
   outer loop
     vertex  6.050000e-01  8.700000e-01  1.000000e-01
     vertex  6.050000e-01  6.300000e-01  0.000000e+00
     vertex  6.050000e-01  6.300000e-01  1.000000e-01
   endloop
 endfacet
 facet normal  1.000000e+00  0.000000e+00  0.000000e+00
   outer loop
     vertex  8.950000e-01  6.300000e-01  0.000000e+00
     vertex  8.950000e-01  8.700000e-01  0.000000e+00
     vertex  8.950000e-01  8.700000e-01  1.000000e-01
   endloop
 endfacet
 facet normal  1.000000e+00 -0.000000e+00  0.000000e+00
   outer loop
     vertex  8.950000e-01  6.300000e-01  1.000000e-01
     vertex  8.950000e-01  6.300000e-01  0.000000e+00
     vertex  8.950000e-01  8.700000e-01  1.000000e-01
   endloop
 endfacet
 facet normal  0.000000e+00 -1.000000e+00  0.000000e+00
   outer loop
     vertex  6.050000e-01  6.300000e-01  0.000000e+00
     vertex  8.950000e-01  6.300000e-01  0.000000e+00
     vertex  8.950000e-01  6.300000e-01  1.000000e-01
   endloop
 endfacet
 facet normal  0.000000e+00 -1.000000e+00  0.000000e+00
   outer loop
     vertex  6.050000e-01  6.300000e-01  1.000000e-01
     vertex  6.050000e-01  6.300000e-01  0.000000e+00
     vertex  8.950000e-01  6.300000e-01  1.000000e-01
   endloop
 endfacet
 facet normal  0.000000e+00  1.000000e+00  0.000000e+00
   outer loop
     vertex  8.950000e-01  8.700000e-01  1.000000e-01
     vertex  8.950000e-01  8.700000e-01  0.000000e+00
     vertex  6.050000e-01  8.700000e-01  0.000000e+00
   endloop
 endfacet
 facet normal  0.000000e+00  1.000000e+00 -0.000000e+00
   outer loop
     vertex  8.950000e-01  8.700000e-01  1.000000e-01
     vertex  6.050000e-01  8.700000e-01  0.000000e+00
     vertex  6.050000e-01  8.700000e-01  1.000000e-01
   endloop
 endfacet
 facet normal  0.000000e+00  0.000000e+00 -1.000000e+00
   outer loop
     vertex  6.050000e-01  6.300000e-01  0.000000e+00
     vertex  6.050000e-01  8.700000e-01  0.000000e+00
     vertex  8.950000e-01  8.700000e-01  0.000000e+00
   endloop
 endfacet
 facet normal  0.000000e+00  0.000000e+00 -1.000000e+00
   outer loop
     vertex  8.950000e-01  6.300000e-01  0.000000e+00
     vertex  6.050000e-01  6.300000e-01  0.000000e+00
     vertex  8.950000e-01  8.700000e-01  0.000000e+00
   endloop
 endfacet
 facet normal  0.000000e+00  0.000000e+00  1.000000e+00
   outer loop
     vertex  8.950000e-01  8.700000e-01  1.000000e-01
     vertex  6.050000e-01  8.700000e-01  1.000000e-01
     vertex  6.050000e-01  6.300000e-01  1.000000e-01
   endloop
 endfacet
 facet normal -0.000000e+00  0.000000e+00  1.000000e+00
   outer loop
     vertex  8.950000e-01  8.700000e-01  1.000000e-01
     vertex  6.050000e-01  6.300000e-01  1.000000e-01
     vertex  8.950000e-01  6.300000e-01  1.000000e-01
   endloop
 endfacet
 facet normal -1.000000e+00 -0.000000e+00 -0.000000e+00
   outer loop
     vertex  1.300000e-01  8.950000e-01  1.000000e-01
     vertex  1.300000e-01  8.950000e-01  0.000000e+00
     vertex  1.300000e-01  6.050000e-01  1.000000e-01
   endloop
 endfacet
 facet normal -1.000000e+00  0.000000e+00  0.000000e+00
   outer loop
     vertex  1.300000e-01  8.950000e-01  0.000000e+00
     vertex  1.300000e-01  6.050000e-01  0.000000e+00
     vertex  1.300000e-01  6.050000e-01  1.000000e-01
   endloop
 endfacet
 facet normal  1.000000e+00 -0.000000e+00  0.000000e+00
   outer loop
     vertex  3.700000e-01  6.050000e-01  1.000000e-01
     vertex  3.700000e-01  8.950000e-01  0.000000e+00
     vertex  3.700000e-01  8.950000e-01  1.000000e-01
   endloop
 endfacet
 facet normal  1.000000e+00 -0.000000e+00  0.000000e+00
   outer loop
     vertex  3.700000e-01  6.050000e-01  1.000000e-01
     vertex  3.700000e-01  6.050000e-01  0.000000e+00
     vertex  3.700000e-01  8.950000e-01  0.000000e+00
   endloop
 endfacet
 facet normal  0.000000e+00 -1.000000e+00  0.000000e+00
   outer loop
     vertex  1.300000e-01  6.050000e-01  1.000000e-01
     vertex  1.300000e-01  6.050000e-01  0.000000e+00
     vertex  3.700000e-01  6.050000e-01  0.000000e+00
   endloop
 endfacet
 facet normal  0.000000e+00 -1.000000e+00  0.000000e+00
   outer loop
     vertex  1.300000e-01  6.050000e-01  1.000000e-01
     vertex  3.700000e-01  6.050000e-01  0.000000e+00
     vertex  3.700000e-01  6.050000e-01  1.000000e-01
   endloop
 endfacet
 facet normal  0.000000e+00  1.000000e+00 -0.000000e+00
   outer loop
     vertex  3.700000e-01  8.950000e-01  0.000000e+00
     vertex  1.300000e-01  8.950000e-01  0.000000e+00
     vertex  1.300000e-01  8.950000e-01  1.000000e-01
   endloop
 endfacet
 facet normal  0.000000e+00  1.000000e+00  0.000000e+00
   outer loop
     vertex  3.700000e-01  8.950000e-01  1.000000e-01
     vertex  3.700000e-01  8.950000e-01  0.000000e+00
     vertex  1.300000e-01  8.950000e-01  1.000000e-01
   endloop
 endfacet
 facet normal  0.000000e+00  0.000000e+00 -1.000000e+00
   outer loop
     vertex  3.700000e-01  6.050000e-01  0.000000e+00
     vertex  1.300000e-01  6.050000e-01  0.000000e+00
     vertex  1.300000e-01  8.950000e-01  0.000000e+00
   endloop
 endfacet
 facet normal  0.000000e+00  0.000000e+00 -1.000000e+00
   outer loop
     vertex  3.700000e-01  6.050000e-01  0.000000e+00
     vertex  1.300000e-01  8.950000e-01  0.000000e+00
     vertex  3.700000e-01  8.950000e-01  0.000000e+00
   endloop
 endfacet
 facet normal -0.000000e+00  0.000000e+00  1.000000e+00
   outer loop
     vertex  1.300000e-01  8.950000e-01  1.000000e-01
     vertex  1.300000e-01  6.050000e-01  1.000000e-01
     vertex  3.700000e-01  6.050000e-01  1.000000e-01
   endloop
 endfacet
 facet normal  0.000000e+00  0.000000e+00  1.000000e+00
   outer loop
     vertex  3.700000e-01  8.950000e-01  1.000000e-01
     vertex  1.300000e-01  8.950000e-01  1.000000e-01
     vertex  3.700000e-01  6.050000e-01  1.000000e-01
   endloop
 endfacet
 facet normal -1.000000e+00 -0.000000e+00 -0.000000e+00
   outer loop
     vertex -3.700000e-01  8.950000e-01  1.000000e-01
     vertex -3.700000e-01  8.950000e-01  0.000000e+00
     vertex -3.700000e-01  6.050000e-01  1.000000e-01
   endloop
 endfacet
 facet normal -1.000000e+00  0.000000e+00  0.000000e+00
   outer loop
     vertex -3.700000e-01  8.950000e-01  0.000000e+00
     vertex -3.700000e-01  6.050000e-01  0.000000e+00
     vertex -3.700000e-01  6.050000e-01  1.000000e-01
   endloop
 endfacet
 facet normal  1.000000e+00 -0.000000e+00  0.000000e+00
   outer loop
     vertex -1.300000e-01  6.050000e-01  1.000000e-01
     vertex -1.300000e-01  8.950000e-01  0.000000e+00
     vertex -1.300000e-01  8.950000e-01  1.000000e-01
   endloop
 endfacet
 facet normal  1.000000e+00 -0.000000e+00  0.000000e+00
   outer loop
     vertex -1.300000e-01  6.050000e-01  1.000000e-01
     vertex -1.300000e-01  6.050000e-01  0.000000e+00
     vertex -1.300000e-01  8.950000e-01  0.000000e+00
   endloop
 endfacet
 facet normal  0.000000e+00 -1.000000e+00  0.000000e+00
   outer loop
     vertex -3.700000e-01  6.050000e-01  1.000000e-01
     vertex -3.700000e-01  6.050000e-01  0.000000e+00
     vertex -1.300000e-01  6.050000e-01  0.000000e+00
   endloop
 endfacet
 facet normal  0.000000e+00 -1.000000e+00  0.000000e+00
   outer loop
     vertex -3.700000e-01  6.050000e-01  1.000000e-01
     vertex -1.300000e-01  6.050000e-01  0.000000e+00
     vertex -1.300000e-01  6.050000e-01  1.000000e-01
   endloop
 endfacet
 facet normal  0.000000e+00  1.000000e+00 -0.000000e+00
   outer loop
     vertex -1.300000e-01  8.950000e-01  0.000000e+00
     vertex -3.700000e-01  8.950000e-01  0.000000e+00
     vertex -3.700000e-01  8.950000e-01  1.000000e-01
   endloop
 endfacet
 facet normal  0.000000e+00  1.000000e+00  0.000000e+00
   outer loop
     vertex -1.300000e-01  8.950000e-01  1.000000e-01
     vertex -1.300000e-01  8.950000e-01  0.000000e+00
     vertex -3.700000e-01  8.950000e-01  1.000000e-01
   endloop
 endfacet
 facet normal  0.000000e+00  0.000000e+00 -1.000000e+00
   outer loop
     vertex -1.300000e-01  6.050000e-01  0.000000e+00
     vertex -3.700000e-01  6.050000e-01  0.000000e+00
     vertex -3.700000e-01  8.950000e-01  0.000000e+00
   endloop
 endfacet
 facet normal  0.000000e+00  0.000000e+00 -1.000000e+00
   outer loop
     vertex -1.300000e-01  6.050000e-01  0.000000e+00
     vertex -3.700000e-01  8.950000e-01  0.000000e+00
     vertex -1.300000e-01  8.950000e-01  0.000000e+00
   endloop
 endfacet
 facet normal -0.000000e+00  0.000000e+00  1.000000e+00
   outer loop
     vertex -3.700000e-01  8.950000e-01  1.000000e-01
     vertex -3.700000e-01  6.050000e-01  1.000000e-01
     vertex -1.300000e-01  6.050000e-01  1.000000e-01
   endloop
 endfacet
 facet normal  0.000000e+00  0.000000e+00  1.000000e+00
   outer loop
     vertex -1.300000e-01  8.950000e-01  1.000000e-01
     vertex -3.700000e-01  8.950000e-01  1.000000e-01
     vertex -1.300000e-01  6.050000e-01  1.000000e-01
   endloop
 endfacet
endsolid
