G04 #@! TF.GenerationSoftware,KiCad,Pcbnew,5.0.2+dfsg1-1*
G04 #@! TF.CreationDate,2019-09-30T17:17:48-04:00*
G04 #@! TF.ProjectId,DSC_motor_controller,4453435f-6d6f-4746-9f72-5f636f6e7472,rev?*
G04 #@! TF.SameCoordinates,Original*
G04 #@! TF.FileFunction,Soldermask,Bot*
G04 #@! TF.FilePolarity,Negative*
%FSLAX46Y46*%
G04 Gerber Fmt 4.6, Leading zero omitted, Abs format (unit mm)*
G04 Created by KiCad (PCBNEW 5.0.2+dfsg1-1) date Mon 30 Sep 2019 05:17:48 PM EDT*
%MOMM*%
%LPD*%
G01*
G04 APERTURE LIST*
%ADD10C,0.100000*%
G04 APERTURE END LIST*
D10*
G36*
X157392006Y-199533582D02*
X157792565Y-199699499D01*
X158153059Y-199940373D01*
X158459627Y-200246941D01*
X158700501Y-200607435D01*
X158866418Y-201007994D01*
X158951000Y-201433219D01*
X158951000Y-201866781D01*
X158866418Y-202292006D01*
X158700501Y-202692565D01*
X158459627Y-203053059D01*
X158153059Y-203359627D01*
X157792565Y-203600501D01*
X157392006Y-203766418D01*
X156966781Y-203851000D01*
X156533219Y-203851000D01*
X156107994Y-203766418D01*
X155707435Y-203600501D01*
X155346941Y-203359627D01*
X155040373Y-203053059D01*
X154799499Y-202692565D01*
X154633582Y-202292006D01*
X154549000Y-201866781D01*
X154549000Y-201433219D01*
X154633582Y-201007994D01*
X154799499Y-200607435D01*
X155040373Y-200246941D01*
X155346941Y-199940373D01*
X155707435Y-199699499D01*
X156107994Y-199533582D01*
X156533219Y-199449000D01*
X156966781Y-199449000D01*
X157392006Y-199533582D01*
X157392006Y-199533582D01*
G37*
G36*
X63417006Y-199408582D02*
X63817565Y-199574499D01*
X64178059Y-199815373D01*
X64484627Y-200121941D01*
X64725501Y-200482435D01*
X64891418Y-200882994D01*
X64976000Y-201308219D01*
X64976000Y-201741781D01*
X64891418Y-202167006D01*
X64725501Y-202567565D01*
X64484627Y-202928059D01*
X64178059Y-203234627D01*
X63817565Y-203475501D01*
X63417006Y-203641418D01*
X62991781Y-203726000D01*
X62558219Y-203726000D01*
X62132994Y-203641418D01*
X61732435Y-203475501D01*
X61371941Y-203234627D01*
X61065373Y-202928059D01*
X60824499Y-202567565D01*
X60658582Y-202167006D01*
X60574000Y-201741781D01*
X60574000Y-201308219D01*
X60658582Y-200882994D01*
X60824499Y-200482435D01*
X61065373Y-200121941D01*
X61371941Y-199815373D01*
X61732435Y-199574499D01*
X62132994Y-199408582D01*
X62558219Y-199324000D01*
X62991781Y-199324000D01*
X63417006Y-199408582D01*
X63417006Y-199408582D01*
G37*
G36*
X146058000Y-192335000D02*
X143516000Y-192335000D01*
X143516000Y-186633000D01*
X146058000Y-186633000D01*
X146058000Y-192335000D01*
X146058000Y-192335000D01*
G37*
G36*
X141098000Y-192335000D02*
X138556000Y-192335000D01*
X138556000Y-186633000D01*
X141098000Y-186633000D01*
X141098000Y-192335000D01*
X141098000Y-192335000D01*
G37*
G36*
X137649000Y-190961000D02*
X135147000Y-190961000D01*
X135147000Y-189409000D01*
X137649000Y-189409000D01*
X137649000Y-190961000D01*
X137649000Y-190961000D01*
G37*
G36*
X134565000Y-190505000D02*
X132643000Y-190505000D01*
X132643000Y-189783000D01*
X134565000Y-189783000D01*
X134565000Y-190505000D01*
X134565000Y-190505000D01*
G37*
G36*
X134565000Y-187305000D02*
X132643000Y-187305000D01*
X132643000Y-186583000D01*
X134565000Y-186583000D01*
X134565000Y-187305000D01*
X134565000Y-187305000D01*
G37*
G36*
X137649000Y-186511000D02*
X135147000Y-186511000D01*
X135147000Y-184959000D01*
X137649000Y-184959000D01*
X137649000Y-186511000D01*
X137649000Y-186511000D01*
G37*
G36*
X146058000Y-185845000D02*
X143516000Y-185845000D01*
X143516000Y-184853000D01*
X146058000Y-184853000D01*
X146058000Y-185845000D01*
X146058000Y-185845000D01*
G37*
G36*
X141098000Y-185845000D02*
X138556000Y-185845000D01*
X138556000Y-184853000D01*
X141098000Y-184853000D01*
X141098000Y-185845000D01*
X141098000Y-185845000D01*
G37*
G36*
X76986000Y-185355000D02*
X75414000Y-185355000D01*
X75414000Y-184153000D01*
X76986000Y-184153000D01*
X76986000Y-185355000D01*
X76986000Y-185355000D01*
G37*
G36*
X74446000Y-185355000D02*
X72874000Y-185355000D01*
X72874000Y-184153000D01*
X74446000Y-184153000D01*
X74446000Y-185355000D01*
X74446000Y-185355000D01*
G37*
G36*
X146234000Y-183861000D02*
X138232000Y-183861000D01*
X138232000Y-173009000D01*
X146234000Y-173009000D01*
X146234000Y-183861000D01*
X146234000Y-183861000D01*
G37*
G36*
X76986000Y-183735000D02*
X75414000Y-183735000D01*
X75414000Y-182533000D01*
X76986000Y-182533000D01*
X76986000Y-183735000D01*
X76986000Y-183735000D01*
G37*
G36*
X74446000Y-183735000D02*
X72874000Y-183735000D01*
X72874000Y-182533000D01*
X74446000Y-182533000D01*
X74446000Y-183735000D01*
X74446000Y-183735000D01*
G37*
G36*
X133434000Y-181551000D02*
X129532000Y-181551000D01*
X129532000Y-180399000D01*
X133434000Y-180399000D01*
X133434000Y-181551000D01*
X133434000Y-181551000D01*
G37*
G36*
X128428000Y-181526000D02*
X127426000Y-181526000D01*
X127426000Y-180424000D01*
X128428000Y-180424000D01*
X128428000Y-181526000D01*
X128428000Y-181526000D01*
G37*
G36*
X126828000Y-181526000D02*
X125826000Y-181526000D01*
X125826000Y-180424000D01*
X126828000Y-180424000D01*
X126828000Y-181526000D01*
X126828000Y-181526000D01*
G37*
G36*
X73710000Y-178499000D02*
X72798000Y-178499000D01*
X72798000Y-175577000D01*
X73710000Y-175577000D01*
X73710000Y-178499000D01*
X73710000Y-178499000D01*
G37*
G36*
X76910000Y-178499000D02*
X75998000Y-178499000D01*
X75998000Y-175577000D01*
X76910000Y-175577000D01*
X76910000Y-178499000D01*
X76910000Y-178499000D01*
G37*
G36*
X133434000Y-176471000D02*
X129532000Y-176471000D01*
X129532000Y-175319000D01*
X133434000Y-175319000D01*
X133434000Y-176471000D01*
X133434000Y-176471000D01*
G37*
G36*
X101783000Y-174824000D02*
X101061000Y-174824000D01*
X101061000Y-172902000D01*
X101783000Y-172902000D01*
X101783000Y-174824000D01*
X101783000Y-174824000D01*
G37*
G36*
X98583000Y-174824000D02*
X97861000Y-174824000D01*
X97861000Y-172902000D01*
X98583000Y-172902000D01*
X98583000Y-174824000D01*
X98583000Y-174824000D01*
G37*
G36*
X141285000Y-172016000D02*
X138743000Y-172016000D01*
X138743000Y-166314000D01*
X141285000Y-166314000D01*
X141285000Y-172016000D01*
X141285000Y-172016000D01*
G37*
G36*
X146245000Y-172016000D02*
X143703000Y-172016000D01*
X143703000Y-166314000D01*
X146245000Y-166314000D01*
X146245000Y-172016000D01*
X146245000Y-172016000D01*
G37*
G36*
X137839500Y-171596000D02*
X135337500Y-171596000D01*
X135337500Y-170044000D01*
X137839500Y-170044000D01*
X137839500Y-171596000D01*
X137839500Y-171596000D01*
G37*
G36*
X134819000Y-170871000D02*
X132897000Y-170871000D01*
X132897000Y-170149000D01*
X134819000Y-170149000D01*
X134819000Y-170871000D01*
X134819000Y-170871000D01*
G37*
G36*
X89607000Y-168839000D02*
X87685000Y-168839000D01*
X87685000Y-168117000D01*
X89607000Y-168117000D01*
X89607000Y-168839000D01*
X89607000Y-168839000D01*
G37*
G36*
X99835000Y-168799000D02*
X98793000Y-168799000D01*
X98793000Y-168157000D01*
X99835000Y-168157000D01*
X99835000Y-168799000D01*
X99835000Y-168799000D01*
G37*
G36*
X134819000Y-167671000D02*
X132897000Y-167671000D01*
X132897000Y-166949000D01*
X134819000Y-166949000D01*
X134819000Y-167671000D01*
X134819000Y-167671000D01*
G37*
G36*
X99835000Y-167199000D02*
X98793000Y-167199000D01*
X98793000Y-166557000D01*
X99835000Y-166557000D01*
X99835000Y-167199000D01*
X99835000Y-167199000D01*
G37*
G36*
X137839500Y-167146000D02*
X135337500Y-167146000D01*
X135337500Y-165594000D01*
X137839500Y-165594000D01*
X137839500Y-167146000D01*
X137839500Y-167146000D01*
G37*
G36*
X101453000Y-166061000D02*
X100731000Y-166061000D01*
X100731000Y-164139000D01*
X101453000Y-164139000D01*
X101453000Y-166061000D01*
X101453000Y-166061000D01*
G37*
G36*
X98253000Y-166061000D02*
X97531000Y-166061000D01*
X97531000Y-164139000D01*
X98253000Y-164139000D01*
X98253000Y-166061000D01*
X98253000Y-166061000D01*
G37*
G36*
X89607000Y-165639000D02*
X87685000Y-165639000D01*
X87685000Y-164917000D01*
X89607000Y-164917000D01*
X89607000Y-165639000D01*
X89607000Y-165639000D01*
G37*
G36*
X141285000Y-165526000D02*
X138743000Y-165526000D01*
X138743000Y-164534000D01*
X141285000Y-164534000D01*
X141285000Y-165526000D01*
X141285000Y-165526000D01*
G37*
G36*
X146245000Y-165526000D02*
X143703000Y-165526000D01*
X143703000Y-164534000D01*
X146245000Y-164534000D01*
X146245000Y-165526000D01*
X146245000Y-165526000D01*
G37*
G36*
X146368000Y-163668000D02*
X138366000Y-163668000D01*
X138366000Y-152816000D01*
X146368000Y-152816000D01*
X146368000Y-163668000D01*
X146368000Y-163668000D01*
G37*
G36*
X71407000Y-161793000D02*
X69780000Y-161793000D01*
X69780000Y-161041000D01*
X71407000Y-161041000D01*
X71407000Y-161793000D01*
X71407000Y-161793000D01*
G37*
G36*
X65983000Y-161793000D02*
X64356000Y-161793000D01*
X64356000Y-161041000D01*
X65983000Y-161041000D01*
X65983000Y-161793000D01*
X65983000Y-161793000D01*
G37*
G36*
X133568000Y-161358000D02*
X129666000Y-161358000D01*
X129666000Y-160206000D01*
X133568000Y-160206000D01*
X133568000Y-161358000D01*
X133568000Y-161358000D01*
G37*
G36*
X127171000Y-161333000D02*
X126169000Y-161333000D01*
X126169000Y-160231000D01*
X127171000Y-160231000D01*
X127171000Y-161333000D01*
X127171000Y-161333000D01*
G37*
G36*
X128771000Y-161333000D02*
X127769000Y-161333000D01*
X127769000Y-160231000D01*
X128771000Y-160231000D01*
X128771000Y-161333000D01*
X128771000Y-161333000D01*
G37*
G36*
X74446000Y-160971000D02*
X72874000Y-160971000D01*
X72874000Y-159769000D01*
X74446000Y-159769000D01*
X74446000Y-160971000D01*
X74446000Y-160971000D01*
G37*
G36*
X64051000Y-160851000D02*
X62949000Y-160851000D01*
X62949000Y-159849000D01*
X64051000Y-159849000D01*
X64051000Y-160851000D01*
X64051000Y-160851000D01*
G37*
G36*
X65983000Y-160523000D02*
X64356000Y-160523000D01*
X64356000Y-159771000D01*
X65983000Y-159771000D01*
X65983000Y-160523000D01*
X65983000Y-160523000D01*
G37*
G36*
X71407000Y-160523000D02*
X69780000Y-160523000D01*
X69780000Y-159771000D01*
X71407000Y-159771000D01*
X71407000Y-160523000D01*
X71407000Y-160523000D01*
G37*
G36*
X74446000Y-159351000D02*
X72874000Y-159351000D01*
X72874000Y-158149000D01*
X74446000Y-158149000D01*
X74446000Y-159351000D01*
X74446000Y-159351000D01*
G37*
G36*
X71407000Y-159253000D02*
X69780000Y-159253000D01*
X69780000Y-158501000D01*
X71407000Y-158501000D01*
X71407000Y-159253000D01*
X71407000Y-159253000D01*
G37*
G36*
X65983000Y-159253000D02*
X64356000Y-159253000D01*
X64356000Y-158501000D01*
X65983000Y-158501000D01*
X65983000Y-159253000D01*
X65983000Y-159253000D01*
G37*
G36*
X64051000Y-159251000D02*
X62949000Y-159251000D01*
X62949000Y-158249000D01*
X64051000Y-158249000D01*
X64051000Y-159251000D01*
X64051000Y-159251000D01*
G37*
G36*
X65983000Y-157983000D02*
X64356000Y-157983000D01*
X64356000Y-157231000D01*
X65983000Y-157231000D01*
X65983000Y-157983000D01*
X65983000Y-157983000D01*
G37*
G36*
X71407000Y-157983000D02*
X69780000Y-157983000D01*
X69780000Y-157231000D01*
X71407000Y-157231000D01*
X71407000Y-157983000D01*
X71407000Y-157983000D01*
G37*
G36*
X133568000Y-156278000D02*
X129666000Y-156278000D01*
X129666000Y-155126000D01*
X133568000Y-155126000D01*
X133568000Y-156278000D01*
X133568000Y-156278000D01*
G37*
G36*
X113854000Y-153448000D02*
X112002000Y-153448000D01*
X112002000Y-152396000D01*
X113854000Y-152396000D01*
X113854000Y-153448000D01*
X113854000Y-153448000D01*
G37*
G36*
X111613000Y-152703000D02*
X110891000Y-152703000D01*
X110891000Y-151081000D01*
X111613000Y-151081000D01*
X111613000Y-152703000D01*
X111613000Y-152703000D01*
G37*
G36*
X120154000Y-152273000D02*
X118302000Y-152273000D01*
X118302000Y-148971000D01*
X120154000Y-148971000D01*
X120154000Y-152273000D01*
X120154000Y-152273000D01*
G37*
G36*
X146305000Y-151187000D02*
X143763000Y-151187000D01*
X143763000Y-145485000D01*
X146305000Y-145485000D01*
X146305000Y-151187000D01*
X146305000Y-151187000D01*
G37*
G36*
X141345000Y-151187000D02*
X138803000Y-151187000D01*
X138803000Y-145485000D01*
X141345000Y-145485000D01*
X141345000Y-151187000D01*
X141345000Y-151187000D01*
G37*
G36*
X113854000Y-151148000D02*
X112002000Y-151148000D01*
X112002000Y-150096000D01*
X113854000Y-150096000D01*
X113854000Y-151148000D01*
X113854000Y-151148000D01*
G37*
G36*
X137141000Y-150892500D02*
X134639000Y-150892500D01*
X134639000Y-149340500D01*
X137141000Y-149340500D01*
X137141000Y-150892500D01*
X137141000Y-150892500D01*
G37*
G36*
X111105000Y-149861000D02*
X110383000Y-149861000D01*
X110383000Y-148239000D01*
X111105000Y-148239000D01*
X111105000Y-149861000D01*
X111105000Y-149861000D01*
G37*
G36*
X134311000Y-149789000D02*
X132389000Y-149789000D01*
X132389000Y-149067000D01*
X134311000Y-149067000D01*
X134311000Y-149789000D01*
X134311000Y-149789000D01*
G37*
G36*
X113854000Y-148848000D02*
X112002000Y-148848000D01*
X112002000Y-147796000D01*
X113854000Y-147796000D01*
X113854000Y-148848000D01*
X113854000Y-148848000D01*
G37*
G36*
X134311000Y-146589000D02*
X132389000Y-146589000D01*
X132389000Y-145867000D01*
X134311000Y-145867000D01*
X134311000Y-146589000D01*
X134311000Y-146589000D01*
G37*
G36*
X137141000Y-146442500D02*
X134639000Y-146442500D01*
X134639000Y-144890500D01*
X137141000Y-144890500D01*
X137141000Y-146442500D01*
X137141000Y-146442500D01*
G37*
G36*
X146305000Y-144697000D02*
X143763000Y-144697000D01*
X143763000Y-143705000D01*
X146305000Y-143705000D01*
X146305000Y-144697000D01*
X146305000Y-144697000D01*
G37*
G36*
X141345000Y-144697000D02*
X138803000Y-144697000D01*
X138803000Y-143705000D01*
X141345000Y-143705000D01*
X141345000Y-144697000D01*
X141345000Y-144697000D01*
G37*
G36*
X146368000Y-143094000D02*
X138366000Y-143094000D01*
X138366000Y-132242000D01*
X146368000Y-132242000D01*
X146368000Y-143094000D01*
X146368000Y-143094000D01*
G37*
G36*
X133568000Y-140784000D02*
X129666000Y-140784000D01*
X129666000Y-139632000D01*
X133568000Y-139632000D01*
X133568000Y-140784000D01*
X133568000Y-140784000D01*
G37*
G36*
X126701000Y-140759000D02*
X125699000Y-140759000D01*
X125699000Y-139657000D01*
X126701000Y-139657000D01*
X126701000Y-140759000D01*
X126701000Y-140759000D01*
G37*
G36*
X128301000Y-140759000D02*
X127299000Y-140759000D01*
X127299000Y-139657000D01*
X128301000Y-139657000D01*
X128301000Y-140759000D01*
X128301000Y-140759000D01*
G37*
G36*
X133568000Y-135704000D02*
X129666000Y-135704000D01*
X129666000Y-134552000D01*
X133568000Y-134552000D01*
X133568000Y-135704000D01*
X133568000Y-135704000D01*
G37*
G36*
X63567006Y-129683582D02*
X63967565Y-129849499D01*
X64328059Y-130090373D01*
X64634627Y-130396941D01*
X64875501Y-130757435D01*
X65041418Y-131157994D01*
X65126000Y-131583219D01*
X65126000Y-132016781D01*
X65041418Y-132442006D01*
X64875501Y-132842565D01*
X64634627Y-133203059D01*
X64328059Y-133509627D01*
X63967565Y-133750501D01*
X63567006Y-133916418D01*
X63141781Y-134001000D01*
X62708219Y-134001000D01*
X62282994Y-133916418D01*
X61882435Y-133750501D01*
X61521941Y-133509627D01*
X61215373Y-133203059D01*
X60974499Y-132842565D01*
X60808582Y-132442006D01*
X60724000Y-132016781D01*
X60724000Y-131583219D01*
X60808582Y-131157994D01*
X60974499Y-130757435D01*
X61215373Y-130396941D01*
X61521941Y-130090373D01*
X61882435Y-129849499D01*
X62282994Y-129683582D01*
X62708219Y-129599000D01*
X63141781Y-129599000D01*
X63567006Y-129683582D01*
X63567006Y-129683582D01*
G37*
G36*
X130953000Y-123587000D02*
X129651000Y-123587000D01*
X129651000Y-122285000D01*
X130953000Y-122285000D01*
X130953000Y-123587000D01*
X130953000Y-123587000D01*
G37*
G36*
X130491890Y-117310017D02*
X130610361Y-117359089D01*
X130716992Y-117430338D01*
X130807662Y-117521008D01*
X130878911Y-117627639D01*
X130927983Y-117746110D01*
X130953000Y-117871881D01*
X130953000Y-118000119D01*
X130927983Y-118125890D01*
X130878911Y-118244361D01*
X130807662Y-118350992D01*
X130716992Y-118441662D01*
X130610361Y-118512911D01*
X130491890Y-118561983D01*
X130366119Y-118587000D01*
X130237881Y-118587000D01*
X130112110Y-118561983D01*
X129993639Y-118512911D01*
X129887008Y-118441662D01*
X129796338Y-118350992D01*
X129725089Y-118244361D01*
X129676017Y-118125890D01*
X129651000Y-118000119D01*
X129651000Y-117871881D01*
X129676017Y-117746110D01*
X129725089Y-117627639D01*
X129796338Y-117521008D01*
X129887008Y-117430338D01*
X129993639Y-117359089D01*
X130112110Y-117310017D01*
X130237881Y-117285000D01*
X130366119Y-117285000D01*
X130491890Y-117310017D01*
X130491890Y-117310017D01*
G37*
G36*
X130491890Y-108768017D02*
X130610361Y-108817089D01*
X130716992Y-108888338D01*
X130807662Y-108979008D01*
X130878911Y-109085639D01*
X130927983Y-109204110D01*
X130953000Y-109329881D01*
X130953000Y-109458119D01*
X130927983Y-109583890D01*
X130878911Y-109702361D01*
X130807662Y-109808992D01*
X130716992Y-109899662D01*
X130610361Y-109970911D01*
X130491890Y-110019983D01*
X130366119Y-110045000D01*
X130237881Y-110045000D01*
X130112110Y-110019983D01*
X129993639Y-109970911D01*
X129887008Y-109899662D01*
X129796338Y-109808992D01*
X129725089Y-109702361D01*
X129676017Y-109583890D01*
X129651000Y-109458119D01*
X129651000Y-109329881D01*
X129676017Y-109204110D01*
X129725089Y-109085639D01*
X129796338Y-108979008D01*
X129887008Y-108888338D01*
X129993639Y-108817089D01*
X130112110Y-108768017D01*
X130237881Y-108743000D01*
X130366119Y-108743000D01*
X130491890Y-108768017D01*
X130491890Y-108768017D01*
G37*
G36*
X104317006Y-100858582D02*
X104717565Y-101024499D01*
X105078059Y-101265373D01*
X105384627Y-101571941D01*
X105625501Y-101932435D01*
X105791418Y-102332994D01*
X105876000Y-102758219D01*
X105876000Y-103191781D01*
X105791418Y-103617006D01*
X105625501Y-104017565D01*
X105384627Y-104378059D01*
X105078059Y-104684627D01*
X104717565Y-104925501D01*
X104317006Y-105091418D01*
X103891781Y-105176000D01*
X103458219Y-105176000D01*
X103032994Y-105091418D01*
X102632435Y-104925501D01*
X102271941Y-104684627D01*
X101965373Y-104378059D01*
X101724499Y-104017565D01*
X101558582Y-103617006D01*
X101474000Y-103191781D01*
X101474000Y-102758219D01*
X101558582Y-102332994D01*
X101724499Y-101932435D01*
X101965373Y-101571941D01*
X102271941Y-101265373D01*
X102632435Y-101024499D01*
X103032994Y-100858582D01*
X103458219Y-100774000D01*
X103891781Y-100774000D01*
X104317006Y-100858582D01*
X104317006Y-100858582D01*
G37*
G36*
X130953000Y-105045000D02*
X129651000Y-105045000D01*
X129651000Y-103743000D01*
X130953000Y-103743000D01*
X130953000Y-105045000D01*
X130953000Y-105045000D01*
G37*
M02*
