G04 #@! TF.GenerationSoftware,KiCad,Pcbnew,5.0.2+dfsg1-1*
G04 #@! TF.CreationDate,2019-09-30T17:17:48-04:00*
G04 #@! TF.ProjectId,DSC_motor_controller,4453435f-6d6f-4746-9f72-5f636f6e7472,rev?*
G04 #@! TF.SameCoordinates,Original*
G04 #@! TF.FileFunction,Legend,Top*
G04 #@! TF.FilePolarity,Positive*
%FSLAX46Y46*%
G04 Gerber Fmt 4.6, Leading zero omitted, Abs format (unit mm)*
G04 Created by KiCad (PCBNEW 5.0.2+dfsg1-1) date Mon 30 Sep 2019 05:17:48 PM EDT*
%MOMM*%
%LPD*%
G01*
G04 APERTURE LIST*
%ADD10C,0.300000*%
%ADD11C,0.200000*%
%ADD12C,0.254000*%
%ADD13C,0.100000*%
%ADD14C,0.150000*%
%ADD15C,0.250000*%
G04 APERTURE END LIST*
D10*
X111471904Y-136375571D02*
X111714761Y-136456523D01*
X111795714Y-136537476D01*
X111876666Y-136699380D01*
X111876666Y-136942238D01*
X111795714Y-137104142D01*
X111714761Y-137185095D01*
X111552857Y-137266047D01*
X110905238Y-137266047D01*
X110905238Y-135566047D01*
X111471904Y-135566047D01*
X111633809Y-135647000D01*
X111714761Y-135727952D01*
X111795714Y-135889857D01*
X111795714Y-136051761D01*
X111714761Y-136213666D01*
X111633809Y-136294619D01*
X111471904Y-136375571D01*
X110905238Y-136375571D01*
X112605238Y-137266047D02*
X112605238Y-135566047D01*
X113414761Y-137266047D02*
X113414761Y-135566047D01*
X113819523Y-135566047D01*
X114062380Y-135647000D01*
X114224285Y-135808904D01*
X114305238Y-135970809D01*
X114386190Y-136294619D01*
X114386190Y-136537476D01*
X114305238Y-136861285D01*
X114224285Y-137023190D01*
X114062380Y-137185095D01*
X113819523Y-137266047D01*
X113414761Y-137266047D01*
X115438571Y-135566047D02*
X115762380Y-135566047D01*
X115924285Y-135647000D01*
X116086190Y-135808904D01*
X116167142Y-136132714D01*
X116167142Y-136699380D01*
X116086190Y-137023190D01*
X115924285Y-137185095D01*
X115762380Y-137266047D01*
X115438571Y-137266047D01*
X115276666Y-137185095D01*
X115114761Y-137023190D01*
X115033809Y-136699380D01*
X115033809Y-136132714D01*
X115114761Y-135808904D01*
X115276666Y-135647000D01*
X115438571Y-135566047D01*
X117219523Y-135566047D02*
X117543333Y-135566047D01*
X117705238Y-135647000D01*
X117867142Y-135808904D01*
X117948095Y-136132714D01*
X117948095Y-136699380D01*
X117867142Y-137023190D01*
X117705238Y-137185095D01*
X117543333Y-137266047D01*
X117219523Y-137266047D01*
X117057619Y-137185095D01*
X116895714Y-137023190D01*
X116814761Y-136699380D01*
X116814761Y-136132714D01*
X116895714Y-135808904D01*
X117057619Y-135647000D01*
X117219523Y-135566047D01*
X119243333Y-136375571D02*
X118676666Y-136375571D01*
X118676666Y-137266047D02*
X118676666Y-135566047D01*
X119486190Y-135566047D01*
X121429047Y-137266047D02*
X121429047Y-135566047D01*
X122076666Y-135566047D01*
X122238571Y-135647000D01*
X122319523Y-135727952D01*
X122400476Y-135889857D01*
X122400476Y-136132714D01*
X122319523Y-136294619D01*
X122238571Y-136375571D01*
X122076666Y-136456523D01*
X121429047Y-136456523D01*
X123938571Y-137266047D02*
X123129047Y-137266047D01*
X123129047Y-135566047D01*
X124424285Y-137185095D02*
X124667142Y-137266047D01*
X125071904Y-137266047D01*
X125233809Y-137185095D01*
X125314761Y-137104142D01*
X125395714Y-136942238D01*
X125395714Y-136780333D01*
X125314761Y-136618428D01*
X125233809Y-136537476D01*
X125071904Y-136456523D01*
X124748095Y-136375571D01*
X124586190Y-136294619D01*
X124505238Y-136213666D01*
X124424285Y-136051761D01*
X124424285Y-135889857D01*
X124505238Y-135727952D01*
X124586190Y-135647000D01*
X124748095Y-135566047D01*
X125152857Y-135566047D01*
X125395714Y-135647000D01*
D11*
G04 #@! TO.C,Q3*
X148954000Y-162560000D02*
X148954000Y-152400000D01*
X148954000Y-152400000D02*
X146623000Y-152400000D01*
X148954000Y-162560000D02*
X146623000Y-162560000D01*
D12*
X156073160Y-159942000D02*
G75*
G03X156073160Y-159942000I-113160J0D01*
G01*
D11*
G04 #@! TO.C,RECV1*
X91790000Y-136896000D02*
X103790000Y-136896000D01*
X91790000Y-136896000D02*
X91790000Y-139234000D01*
X91790000Y-145796000D02*
X91790000Y-143696000D01*
X103790000Y-145796000D02*
X103790000Y-143696000D01*
X103790000Y-136896000D02*
X103790000Y-139234000D01*
X91790000Y-145796000D02*
X93943000Y-145796000D01*
X103790000Y-145796000D02*
X101637000Y-145796000D01*
D12*
X94800750Y-147910000D02*
G75*
G03X94800750Y-147910000I-42750J0D01*
G01*
D11*
G04 #@! TO.C,C7*
X135636000Y-158376000D02*
X135636000Y-156076000D01*
G04 #@! TO.C,C25*
X97790000Y-167070000D02*
X97790000Y-165670000D01*
D12*
G04 #@! TO.C,Q5*
X155939160Y-180960500D02*
G75*
G03X155939160Y-180960500I-113160J0D01*
G01*
D11*
X148820000Y-183578500D02*
X146489000Y-183578500D01*
X148820000Y-173418500D02*
X146489000Y-173418500D01*
X148820000Y-183578500D02*
X148820000Y-173418500D01*
D12*
G04 #@! TO.C,Q1*
X156200160Y-139749000D02*
G75*
G03X156200160Y-139749000I-113160J0D01*
G01*
D11*
X149081000Y-142367000D02*
X146750000Y-142367000D01*
X149081000Y-132207000D02*
X146750000Y-132207000D01*
X149081000Y-142367000D02*
X149081000Y-132207000D01*
D12*
G04 #@! TO.C,C17*
X136677000Y-106894000D02*
G75*
G03X136677000Y-106894000I-6375000J0D01*
G01*
G04 #@! TO.C,C18*
X136677000Y-120436000D02*
G75*
G03X136677000Y-120436000I-6375000J0D01*
G01*
D11*
G04 #@! TO.C,R26*
X153886000Y-136723000D02*
X153886000Y-136073000D01*
G04 #@! TO.C,R25*
X90132000Y-184333000D02*
X90132000Y-184983000D01*
G04 #@! TO.C,C33*
X135052000Y-172346000D02*
X135052000Y-170046000D01*
G04 #@! TO.C,C32*
X135382000Y-163456000D02*
X135382000Y-161156000D01*
G04 #@! TO.C,C9*
X135001000Y-180664500D02*
X135001000Y-178364500D01*
G04 #@! TO.C,C8*
X135052000Y-176600500D02*
X135052000Y-174300500D01*
G04 #@! TO.C,C6*
X135636000Y-154566000D02*
X135636000Y-152266000D01*
G04 #@! TO.C,C5*
X135712000Y-139580000D02*
X135712000Y-137280000D01*
G04 #@! TO.C,C4*
X135712000Y-136024000D02*
X135712000Y-133724000D01*
G04 #@! TO.C,C19*
X98315500Y-159639000D02*
X98915500Y-159639000D01*
G04 #@! TO.C,C26*
X109220000Y-146242000D02*
X109220000Y-144842000D01*
G04 #@! TO.C,C22*
X102046000Y-176860000D02*
X100646000Y-176860000D01*
G04 #@! TO.C,C34*
X110584000Y-146948000D02*
X103284000Y-146948000D01*
X103284000Y-151248000D02*
X111184000Y-151248000D01*
G04 #@! TO.C,R23*
X90106500Y-187762000D02*
X90106500Y-188412000D01*
G04 #@! TO.C,R18*
X100419000Y-162186500D02*
X100419000Y-161536500D01*
G04 #@! TO.C,R17*
X105735000Y-158788000D02*
X105085000Y-158788000D01*
G04 #@! TO.C,R16*
X103561000Y-158788000D02*
X104211000Y-158788000D01*
G04 #@! TO.C,R20*
X116294000Y-163886000D02*
X116294000Y-164536000D01*
G04 #@! TO.C,R21*
X100076000Y-164917000D02*
X100076000Y-164267000D01*
G04 #@! TO.C,R22*
X90043000Y-185984000D02*
X90043000Y-186634000D01*
G04 #@! TO.C,R19*
X101719500Y-159512000D02*
X102369500Y-159512000D01*
G04 #@! TO.C,R27*
X153454000Y-157043000D02*
X153454000Y-156393000D01*
G04 #@! TO.C,R28*
X153416000Y-177871000D02*
X153416000Y-177221000D01*
G04 #@! TO.C,R29*
X135890000Y-182555000D02*
X135890000Y-183205000D01*
G04 #@! TO.C,R24*
X90106500Y-189413000D02*
X90106500Y-190063000D01*
D12*
G04 #@! TO.C,L1*
X112277912Y-149998881D02*
G75*
G03X112278000Y-151753500I3800088J-877119D01*
G01*
X119878088Y-149998881D02*
G75*
G02X119878000Y-151753500I-3800088J-877119D01*
G01*
X116121350Y-155542000D02*
G75*
G03X116121350Y-155542000I-64350J0D01*
G01*
D11*
G04 #@! TO.C,D1*
X109504000Y-152566000D02*
X106904000Y-152566000D01*
X110264000Y-154266000D02*
X106904000Y-154266000D01*
D13*
G04 #@! TO.C,SWD1*
X59802000Y-146430000D02*
X59802000Y-148230000D01*
X59802000Y-148230000D02*
X61802000Y-148230000D01*
X59802000Y-141430000D02*
X59802000Y-139330000D01*
X59802000Y-139330000D02*
X73802000Y-139330000D01*
X73802000Y-139330000D02*
X73802000Y-141430000D01*
X71802000Y-148230000D02*
X73802000Y-148230000D01*
X73802000Y-148230000D02*
X73802000Y-146430000D01*
D11*
X62702000Y-150130000D02*
X62702000Y-150130000D01*
X62902000Y-150130000D02*
X62902000Y-150130000D01*
X62902000Y-150130000D02*
G75*
G03X62702000Y-150130000I-100000J0D01*
G01*
X62702000Y-150130000D02*
G75*
G03X62902000Y-150130000I100000J0D01*
G01*
G04 #@! TO.C,RTEMP1*
X132576000Y-186482000D02*
X132576000Y-185882000D01*
G04 #@! TO.C,R15*
X99123500Y-188729500D02*
X99123500Y-188079500D01*
G04 #@! TO.C,R14*
X85052000Y-186253000D02*
X85052000Y-185603000D01*
G04 #@! TO.C,R13*
X84899500Y-189047000D02*
X84899500Y-188397000D01*
G04 #@! TO.C,R12*
X84544000Y-192095000D02*
X84544000Y-191445000D01*
G04 #@! TO.C,R7*
X152108000Y-182301000D02*
X152108000Y-182951000D01*
G04 #@! TO.C,R5*
X152400000Y-161981000D02*
X152400000Y-162631000D01*
G04 #@! TO.C,R3*
X151422000Y-141407000D02*
X151422000Y-142057000D01*
G04 #@! TO.C,R2*
X63716000Y-185034108D02*
X63716000Y-185684108D01*
G04 #@! TO.C,R1*
X63716000Y-183571000D02*
X63716000Y-184221000D01*
G04 #@! TO.C,DSC1*
X70375500Y-178735000D02*
X70375500Y-165435000D01*
X70375500Y-165435000D02*
X83675500Y-165435000D01*
X83675500Y-165435000D02*
X83675500Y-178735000D01*
X83675500Y-178735000D02*
X70375500Y-178735000D01*
D12*
X70400500Y-180310000D02*
G75*
G03X70400500Y-180310000I-125000J0D01*
G01*
D11*
G04 #@! TO.C,DRV1*
X103127327Y-161152000D02*
X104602327Y-161152000D01*
G04 #@! TO.C,D3*
X65123497Y-186184108D02*
X67523497Y-186184108D01*
X65123497Y-184534108D02*
X65123497Y-186184108D01*
X67523497Y-184534108D02*
X65123497Y-184534108D01*
G04 #@! TO.C,D2*
X65164000Y-184721000D02*
X67564000Y-184721000D01*
X65164000Y-183071000D02*
X65164000Y-184721000D01*
X67564000Y-183071000D02*
X65164000Y-183071000D01*
G04 #@! TO.C,C37*
X72452000Y-160452000D02*
X73852000Y-160452000D01*
G04 #@! TO.C,C16*
X99250500Y-186818500D02*
X99250500Y-185418500D01*
G04 #@! TO.C,BUSCNT1*
X77566000Y-137404000D02*
X89566000Y-137404000D01*
X77566000Y-137404000D02*
X77566000Y-139742000D01*
X77566000Y-146304000D02*
X77566000Y-144204000D01*
X89566000Y-146304000D02*
X89566000Y-144204000D01*
X89566000Y-137404000D02*
X89566000Y-139742000D01*
X77566000Y-146304000D02*
X79719000Y-146304000D01*
X89566000Y-146304000D02*
X87413000Y-146304000D01*
D12*
X80576750Y-148418000D02*
G75*
G03X80576750Y-148418000I-42750J0D01*
G01*
G04 #@! TO.C,REF\002A\002A*
D14*
X61441666Y-196677380D02*
X61108333Y-196201190D01*
X60870238Y-196677380D02*
X60870238Y-195677380D01*
X61251190Y-195677380D01*
X61346428Y-195725000D01*
X61394047Y-195772619D01*
X61441666Y-195867857D01*
X61441666Y-196010714D01*
X61394047Y-196105952D01*
X61346428Y-196153571D01*
X61251190Y-196201190D01*
X60870238Y-196201190D01*
X61870238Y-196153571D02*
X62203571Y-196153571D01*
X62346428Y-196677380D02*
X61870238Y-196677380D01*
X61870238Y-195677380D01*
X62346428Y-195677380D01*
X63108333Y-196153571D02*
X62775000Y-196153571D01*
X62775000Y-196677380D02*
X62775000Y-195677380D01*
X63251190Y-195677380D01*
X63775000Y-195677380D02*
X63775000Y-195915476D01*
X63536904Y-195820238D02*
X63775000Y-195915476D01*
X64013095Y-195820238D01*
X63632142Y-196105952D02*
X63775000Y-195915476D01*
X63917857Y-196105952D01*
X64536904Y-195677380D02*
X64536904Y-195915476D01*
X64298809Y-195820238D02*
X64536904Y-195915476D01*
X64775000Y-195820238D01*
X64394047Y-196105952D02*
X64536904Y-195915476D01*
X64679761Y-196105952D01*
X155416666Y-196802380D02*
X155083333Y-196326190D01*
X154845238Y-196802380D02*
X154845238Y-195802380D01*
X155226190Y-195802380D01*
X155321428Y-195850000D01*
X155369047Y-195897619D01*
X155416666Y-195992857D01*
X155416666Y-196135714D01*
X155369047Y-196230952D01*
X155321428Y-196278571D01*
X155226190Y-196326190D01*
X154845238Y-196326190D01*
X155845238Y-196278571D02*
X156178571Y-196278571D01*
X156321428Y-196802380D02*
X155845238Y-196802380D01*
X155845238Y-195802380D01*
X156321428Y-195802380D01*
X157083333Y-196278571D02*
X156750000Y-196278571D01*
X156750000Y-196802380D02*
X156750000Y-195802380D01*
X157226190Y-195802380D01*
X157750000Y-195802380D02*
X157750000Y-196040476D01*
X157511904Y-195945238D02*
X157750000Y-196040476D01*
X157988095Y-195945238D01*
X157607142Y-196230952D02*
X157750000Y-196040476D01*
X157892857Y-196230952D01*
X158511904Y-195802380D02*
X158511904Y-196040476D01*
X158273809Y-195945238D02*
X158511904Y-196040476D01*
X158750000Y-195945238D01*
X158369047Y-196230952D02*
X158511904Y-196040476D01*
X158654761Y-196230952D01*
X102341666Y-98127380D02*
X102008333Y-97651190D01*
X101770238Y-98127380D02*
X101770238Y-97127380D01*
X102151190Y-97127380D01*
X102246428Y-97175000D01*
X102294047Y-97222619D01*
X102341666Y-97317857D01*
X102341666Y-97460714D01*
X102294047Y-97555952D01*
X102246428Y-97603571D01*
X102151190Y-97651190D01*
X101770238Y-97651190D01*
X102770238Y-97603571D02*
X103103571Y-97603571D01*
X103246428Y-98127380D02*
X102770238Y-98127380D01*
X102770238Y-97127380D01*
X103246428Y-97127380D01*
X104008333Y-97603571D02*
X103675000Y-97603571D01*
X103675000Y-98127380D02*
X103675000Y-97127380D01*
X104151190Y-97127380D01*
X104675000Y-97127380D02*
X104675000Y-97365476D01*
X104436904Y-97270238D02*
X104675000Y-97365476D01*
X104913095Y-97270238D01*
X104532142Y-97555952D02*
X104675000Y-97365476D01*
X104817857Y-97555952D01*
X105436904Y-97127380D02*
X105436904Y-97365476D01*
X105198809Y-97270238D02*
X105436904Y-97365476D01*
X105675000Y-97270238D01*
X105294047Y-97555952D02*
X105436904Y-97365476D01*
X105579761Y-97555952D01*
G04 #@! TO.C,Q3*
D12*
X148151017Y-164525476D02*
X148030065Y-164465000D01*
X147909112Y-164344047D01*
X147727684Y-164162619D01*
X147606731Y-164102142D01*
X147485779Y-164102142D01*
X147546255Y-164404523D02*
X147425303Y-164344047D01*
X147304350Y-164223095D01*
X147243874Y-163981190D01*
X147243874Y-163557857D01*
X147304350Y-163315952D01*
X147425303Y-163195000D01*
X147546255Y-163134523D01*
X147788160Y-163134523D01*
X147909112Y-163195000D01*
X148030065Y-163315952D01*
X148090541Y-163557857D01*
X148090541Y-163981190D01*
X148030065Y-164223095D01*
X147909112Y-164344047D01*
X147788160Y-164404523D01*
X147546255Y-164404523D01*
X148513874Y-163134523D02*
X149300065Y-163134523D01*
X148876731Y-163618333D01*
X149058160Y-163618333D01*
X149179112Y-163678809D01*
X149239589Y-163739285D01*
X149300065Y-163860238D01*
X149300065Y-164162619D01*
X149239589Y-164283571D01*
X149179112Y-164344047D01*
X149058160Y-164404523D01*
X148695303Y-164404523D01*
X148574350Y-164344047D01*
X148513874Y-164283571D01*
G04 #@! TO.C,RECV1*
X94300523Y-150942523D02*
X93877190Y-150337761D01*
X93574809Y-150942523D02*
X93574809Y-149672523D01*
X94058619Y-149672523D01*
X94179571Y-149733000D01*
X94240047Y-149793476D01*
X94300523Y-149914428D01*
X94300523Y-150095857D01*
X94240047Y-150216809D01*
X94179571Y-150277285D01*
X94058619Y-150337761D01*
X93574809Y-150337761D01*
X94844809Y-150277285D02*
X95268142Y-150277285D01*
X95449571Y-150942523D02*
X94844809Y-150942523D01*
X94844809Y-149672523D01*
X95449571Y-149672523D01*
X96719571Y-150821571D02*
X96659095Y-150882047D01*
X96477666Y-150942523D01*
X96356714Y-150942523D01*
X96175285Y-150882047D01*
X96054333Y-150761095D01*
X95993857Y-150640142D01*
X95933380Y-150398238D01*
X95933380Y-150216809D01*
X95993857Y-149974904D01*
X96054333Y-149853952D01*
X96175285Y-149733000D01*
X96356714Y-149672523D01*
X96477666Y-149672523D01*
X96659095Y-149733000D01*
X96719571Y-149793476D01*
X97082428Y-149672523D02*
X97505761Y-150942523D01*
X97929095Y-149672523D01*
X99017666Y-150942523D02*
X98291952Y-150942523D01*
X98654809Y-150942523D02*
X98654809Y-149672523D01*
X98533857Y-149853952D01*
X98412904Y-149974904D01*
X98291952Y-150035380D01*
G04 #@! TO.C,C7*
X131868333Y-158187571D02*
X131807857Y-158248047D01*
X131626428Y-158308523D01*
X131505476Y-158308523D01*
X131324047Y-158248047D01*
X131203095Y-158127095D01*
X131142619Y-158006142D01*
X131082142Y-157764238D01*
X131082142Y-157582809D01*
X131142619Y-157340904D01*
X131203095Y-157219952D01*
X131324047Y-157099000D01*
X131505476Y-157038523D01*
X131626428Y-157038523D01*
X131807857Y-157099000D01*
X131868333Y-157159476D01*
X132291666Y-157038523D02*
X133138333Y-157038523D01*
X132594047Y-158308523D01*
G04 #@! TO.C,C25*
X92909571Y-166823571D02*
X92849095Y-166884047D01*
X92667666Y-166944523D01*
X92546714Y-166944523D01*
X92365285Y-166884047D01*
X92244333Y-166763095D01*
X92183857Y-166642142D01*
X92123380Y-166400238D01*
X92123380Y-166218809D01*
X92183857Y-165976904D01*
X92244333Y-165855952D01*
X92365285Y-165735000D01*
X92546714Y-165674523D01*
X92667666Y-165674523D01*
X92849095Y-165735000D01*
X92909571Y-165795476D01*
X93393380Y-165795476D02*
X93453857Y-165735000D01*
X93574809Y-165674523D01*
X93877190Y-165674523D01*
X93998142Y-165735000D01*
X94058619Y-165795476D01*
X94119095Y-165916428D01*
X94119095Y-166037380D01*
X94058619Y-166218809D01*
X93332904Y-166944523D01*
X94119095Y-166944523D01*
X95268142Y-165674523D02*
X94663380Y-165674523D01*
X94602904Y-166279285D01*
X94663380Y-166218809D01*
X94784333Y-166158333D01*
X95086714Y-166158333D01*
X95207666Y-166218809D01*
X95268142Y-166279285D01*
X95328619Y-166400238D01*
X95328619Y-166702619D01*
X95268142Y-166823571D01*
X95207666Y-166884047D01*
X95086714Y-166944523D01*
X94784333Y-166944523D01*
X94663380Y-166884047D01*
X94602904Y-166823571D01*
G04 #@! TO.C,C46*
X67509571Y-155393571D02*
X67449095Y-155454047D01*
X67267666Y-155514523D01*
X67146714Y-155514523D01*
X66965285Y-155454047D01*
X66844333Y-155333095D01*
X66783857Y-155212142D01*
X66723380Y-154970238D01*
X66723380Y-154788809D01*
X66783857Y-154546904D01*
X66844333Y-154425952D01*
X66965285Y-154305000D01*
X67146714Y-154244523D01*
X67267666Y-154244523D01*
X67449095Y-154305000D01*
X67509571Y-154365476D01*
X68598142Y-154667857D02*
X68598142Y-155514523D01*
X68295761Y-154184047D02*
X67993380Y-155091190D01*
X68779571Y-155091190D01*
X69807666Y-154244523D02*
X69565761Y-154244523D01*
X69444809Y-154305000D01*
X69384333Y-154365476D01*
X69263380Y-154546904D01*
X69202904Y-154788809D01*
X69202904Y-155272619D01*
X69263380Y-155393571D01*
X69323857Y-155454047D01*
X69444809Y-155514523D01*
X69686714Y-155514523D01*
X69807666Y-155454047D01*
X69868142Y-155393571D01*
X69928619Y-155272619D01*
X69928619Y-154970238D01*
X69868142Y-154849285D01*
X69807666Y-154788809D01*
X69686714Y-154728333D01*
X69444809Y-154728333D01*
X69323857Y-154788809D01*
X69263380Y-154849285D01*
X69202904Y-154970238D01*
G04 #@! TO.C,C30*
X118563571Y-161997571D02*
X118503095Y-162058047D01*
X118321666Y-162118523D01*
X118200714Y-162118523D01*
X118019285Y-162058047D01*
X117898333Y-161937095D01*
X117837857Y-161816142D01*
X117777380Y-161574238D01*
X117777380Y-161392809D01*
X117837857Y-161150904D01*
X117898333Y-161029952D01*
X118019285Y-160909000D01*
X118200714Y-160848523D01*
X118321666Y-160848523D01*
X118503095Y-160909000D01*
X118563571Y-160969476D01*
X118986904Y-160848523D02*
X119773095Y-160848523D01*
X119349761Y-161332333D01*
X119531190Y-161332333D01*
X119652142Y-161392809D01*
X119712619Y-161453285D01*
X119773095Y-161574238D01*
X119773095Y-161876619D01*
X119712619Y-161997571D01*
X119652142Y-162058047D01*
X119531190Y-162118523D01*
X119168333Y-162118523D01*
X119047380Y-162058047D01*
X118986904Y-161997571D01*
X120559285Y-160848523D02*
X120680238Y-160848523D01*
X120801190Y-160909000D01*
X120861666Y-160969476D01*
X120922142Y-161090428D01*
X120982619Y-161332333D01*
X120982619Y-161634714D01*
X120922142Y-161876619D01*
X120861666Y-161997571D01*
X120801190Y-162058047D01*
X120680238Y-162118523D01*
X120559285Y-162118523D01*
X120438333Y-162058047D01*
X120377857Y-161997571D01*
X120317380Y-161876619D01*
X120256904Y-161634714D01*
X120256904Y-161332333D01*
X120317380Y-161090428D01*
X120377857Y-160969476D01*
X120438333Y-160909000D01*
X120559285Y-160848523D01*
G04 #@! TO.C,C45*
X64969571Y-178616428D02*
X65030047Y-178676904D01*
X65090523Y-178858333D01*
X65090523Y-178979285D01*
X65030047Y-179160714D01*
X64909095Y-179281666D01*
X64788142Y-179342142D01*
X64546238Y-179402619D01*
X64364809Y-179402619D01*
X64122904Y-179342142D01*
X64001952Y-179281666D01*
X63881000Y-179160714D01*
X63820523Y-178979285D01*
X63820523Y-178858333D01*
X63881000Y-178676904D01*
X63941476Y-178616428D01*
X64243857Y-177527857D02*
X65090523Y-177527857D01*
X63760047Y-177830238D02*
X64667190Y-178132619D01*
X64667190Y-177346428D01*
X63820523Y-176257857D02*
X63820523Y-176862619D01*
X64425285Y-176923095D01*
X64364809Y-176862619D01*
X64304333Y-176741666D01*
X64304333Y-176439285D01*
X64364809Y-176318333D01*
X64425285Y-176257857D01*
X64546238Y-176197380D01*
X64848619Y-176197380D01*
X64969571Y-176257857D01*
X65030047Y-176318333D01*
X65090523Y-176439285D01*
X65090523Y-176741666D01*
X65030047Y-176862619D01*
X64969571Y-176923095D01*
G04 #@! TO.C,C44*
X70049571Y-160836428D02*
X70110047Y-160896904D01*
X70170523Y-161078333D01*
X70170523Y-161199285D01*
X70110047Y-161380714D01*
X69989095Y-161501666D01*
X69868142Y-161562142D01*
X69626238Y-161622619D01*
X69444809Y-161622619D01*
X69202904Y-161562142D01*
X69081952Y-161501666D01*
X68961000Y-161380714D01*
X68900523Y-161199285D01*
X68900523Y-161078333D01*
X68961000Y-160896904D01*
X69021476Y-160836428D01*
X69323857Y-159747857D02*
X70170523Y-159747857D01*
X68840047Y-160050238D02*
X69747190Y-160352619D01*
X69747190Y-159566428D01*
X69323857Y-158538333D02*
X70170523Y-158538333D01*
X68840047Y-158840714D02*
X69747190Y-159143095D01*
X69747190Y-158356904D01*
G04 #@! TO.C,C43*
X88845571Y-164029571D02*
X88785095Y-164090047D01*
X88603666Y-164150523D01*
X88482714Y-164150523D01*
X88301285Y-164090047D01*
X88180333Y-163969095D01*
X88119857Y-163848142D01*
X88059380Y-163606238D01*
X88059380Y-163424809D01*
X88119857Y-163182904D01*
X88180333Y-163061952D01*
X88301285Y-162941000D01*
X88482714Y-162880523D01*
X88603666Y-162880523D01*
X88785095Y-162941000D01*
X88845571Y-163001476D01*
X89934142Y-163303857D02*
X89934142Y-164150523D01*
X89631761Y-162820047D02*
X89329380Y-163727190D01*
X90115571Y-163727190D01*
X90478428Y-162880523D02*
X91264619Y-162880523D01*
X90841285Y-163364333D01*
X91022714Y-163364333D01*
X91143666Y-163424809D01*
X91204142Y-163485285D01*
X91264619Y-163606238D01*
X91264619Y-163908619D01*
X91204142Y-164029571D01*
X91143666Y-164090047D01*
X91022714Y-164150523D01*
X90659857Y-164150523D01*
X90538904Y-164090047D01*
X90478428Y-164029571D01*
G04 #@! TO.C,C42*
X89353571Y-178616428D02*
X89414047Y-178676904D01*
X89474523Y-178858333D01*
X89474523Y-178979285D01*
X89414047Y-179160714D01*
X89293095Y-179281666D01*
X89172142Y-179342142D01*
X88930238Y-179402619D01*
X88748809Y-179402619D01*
X88506904Y-179342142D01*
X88385952Y-179281666D01*
X88265000Y-179160714D01*
X88204523Y-178979285D01*
X88204523Y-178858333D01*
X88265000Y-178676904D01*
X88325476Y-178616428D01*
X88627857Y-177527857D02*
X89474523Y-177527857D01*
X88144047Y-177830238D02*
X89051190Y-178132619D01*
X89051190Y-177346428D01*
X88325476Y-176923095D02*
X88265000Y-176862619D01*
X88204523Y-176741666D01*
X88204523Y-176439285D01*
X88265000Y-176318333D01*
X88325476Y-176257857D01*
X88446428Y-176197380D01*
X88567380Y-176197380D01*
X88748809Y-176257857D01*
X89474523Y-176983571D01*
X89474523Y-176197380D01*
G04 #@! TO.C,C41*
X80209571Y-182063571D02*
X80149095Y-182124047D01*
X79967666Y-182184523D01*
X79846714Y-182184523D01*
X79665285Y-182124047D01*
X79544333Y-182003095D01*
X79483857Y-181882142D01*
X79423380Y-181640238D01*
X79423380Y-181458809D01*
X79483857Y-181216904D01*
X79544333Y-181095952D01*
X79665285Y-180975000D01*
X79846714Y-180914523D01*
X79967666Y-180914523D01*
X80149095Y-180975000D01*
X80209571Y-181035476D01*
X81298142Y-181337857D02*
X81298142Y-182184523D01*
X80995761Y-180854047D02*
X80693380Y-181761190D01*
X81479571Y-181761190D01*
X82628619Y-182184523D02*
X81902904Y-182184523D01*
X82265761Y-182184523D02*
X82265761Y-180914523D01*
X82144809Y-181095952D01*
X82023857Y-181216904D01*
X81902904Y-181277380D01*
G04 #@! TO.C,Q5*
X148215047Y-186115476D02*
X148094095Y-186055000D01*
X147973142Y-185934047D01*
X147791714Y-185752619D01*
X147670761Y-185692142D01*
X147549809Y-185692142D01*
X147610285Y-185994523D02*
X147489333Y-185934047D01*
X147368380Y-185813095D01*
X147307904Y-185571190D01*
X147307904Y-185147857D01*
X147368380Y-184905952D01*
X147489333Y-184785000D01*
X147610285Y-184724523D01*
X147852190Y-184724523D01*
X147973142Y-184785000D01*
X148094095Y-184905952D01*
X148154571Y-185147857D01*
X148154571Y-185571190D01*
X148094095Y-185813095D01*
X147973142Y-185934047D01*
X147852190Y-185994523D01*
X147610285Y-185994523D01*
X149303619Y-184724523D02*
X148698857Y-184724523D01*
X148638380Y-185329285D01*
X148698857Y-185268809D01*
X148819809Y-185208333D01*
X149122190Y-185208333D01*
X149243142Y-185268809D01*
X149303619Y-185329285D01*
X149364095Y-185450238D01*
X149364095Y-185752619D01*
X149303619Y-185873571D01*
X149243142Y-185934047D01*
X149122190Y-185994523D01*
X148819809Y-185994523D01*
X148698857Y-185934047D01*
X148638380Y-185873571D01*
G04 #@! TO.C,Q1*
X147961047Y-144459476D02*
X147840095Y-144399000D01*
X147719142Y-144278047D01*
X147537714Y-144096619D01*
X147416761Y-144036142D01*
X147295809Y-144036142D01*
X147356285Y-144338523D02*
X147235333Y-144278047D01*
X147114380Y-144157095D01*
X147053904Y-143915190D01*
X147053904Y-143491857D01*
X147114380Y-143249952D01*
X147235333Y-143129000D01*
X147356285Y-143068523D01*
X147598190Y-143068523D01*
X147719142Y-143129000D01*
X147840095Y-143249952D01*
X147900571Y-143491857D01*
X147900571Y-143915190D01*
X147840095Y-144157095D01*
X147719142Y-144278047D01*
X147598190Y-144338523D01*
X147356285Y-144338523D01*
X149110095Y-144338523D02*
X148384380Y-144338523D01*
X148747238Y-144338523D02*
X148747238Y-143068523D01*
X148626285Y-143249952D01*
X148505333Y-143370904D01*
X148384380Y-143431380D01*
G04 #@! TO.C,C17*
X123770571Y-101291571D02*
X123710095Y-101352047D01*
X123528666Y-101412523D01*
X123407714Y-101412523D01*
X123226285Y-101352047D01*
X123105333Y-101231095D01*
X123044857Y-101110142D01*
X122984380Y-100868238D01*
X122984380Y-100686809D01*
X123044857Y-100444904D01*
X123105333Y-100323952D01*
X123226285Y-100203000D01*
X123407714Y-100142523D01*
X123528666Y-100142523D01*
X123710095Y-100203000D01*
X123770571Y-100263476D01*
X124980095Y-101412523D02*
X124254380Y-101412523D01*
X124617238Y-101412523D02*
X124617238Y-100142523D01*
X124496285Y-100323952D01*
X124375333Y-100444904D01*
X124254380Y-100505380D01*
X125403428Y-100142523D02*
X126250095Y-100142523D01*
X125705809Y-101412523D01*
G04 #@! TO.C,P5*
D14*
X112974380Y-121896095D02*
X111974380Y-121896095D01*
X111974380Y-121515142D01*
X112022000Y-121419904D01*
X112069619Y-121372285D01*
X112164857Y-121324666D01*
X112307714Y-121324666D01*
X112402952Y-121372285D01*
X112450571Y-121419904D01*
X112498190Y-121515142D01*
X112498190Y-121896095D01*
X111974380Y-120419904D02*
X111974380Y-120896095D01*
X112450571Y-120943714D01*
X112402952Y-120896095D01*
X112355333Y-120800857D01*
X112355333Y-120562761D01*
X112402952Y-120467523D01*
X112450571Y-120419904D01*
X112545809Y-120372285D01*
X112783904Y-120372285D01*
X112879142Y-120419904D01*
X112926761Y-120467523D01*
X112974380Y-120562761D01*
X112974380Y-120800857D01*
X112926761Y-120896095D01*
X112879142Y-120943714D01*
G04 #@! TO.C,C18*
D12*
X123516571Y-124387428D02*
X123577047Y-124447904D01*
X123637523Y-124629333D01*
X123637523Y-124750285D01*
X123577047Y-124931714D01*
X123456095Y-125052666D01*
X123335142Y-125113142D01*
X123093238Y-125173619D01*
X122911809Y-125173619D01*
X122669904Y-125113142D01*
X122548952Y-125052666D01*
X122428000Y-124931714D01*
X122367523Y-124750285D01*
X122367523Y-124629333D01*
X122428000Y-124447904D01*
X122488476Y-124387428D01*
X123637523Y-123177904D02*
X123637523Y-123903619D01*
X123637523Y-123540761D02*
X122367523Y-123540761D01*
X122548952Y-123661714D01*
X122669904Y-123782666D01*
X122730380Y-123903619D01*
X122911809Y-122452190D02*
X122851333Y-122573142D01*
X122790857Y-122633619D01*
X122669904Y-122694095D01*
X122609428Y-122694095D01*
X122488476Y-122633619D01*
X122428000Y-122573142D01*
X122367523Y-122452190D01*
X122367523Y-122210285D01*
X122428000Y-122089333D01*
X122488476Y-122028857D01*
X122609428Y-121968380D01*
X122669904Y-121968380D01*
X122790857Y-122028857D01*
X122851333Y-122089333D01*
X122911809Y-122210285D01*
X122911809Y-122452190D01*
X122972285Y-122573142D01*
X123032761Y-122633619D01*
X123153714Y-122694095D01*
X123395619Y-122694095D01*
X123516571Y-122633619D01*
X123577047Y-122573142D01*
X123637523Y-122452190D01*
X123637523Y-122210285D01*
X123577047Y-122089333D01*
X123516571Y-122028857D01*
X123395619Y-121968380D01*
X123153714Y-121968380D01*
X123032761Y-122028857D01*
X122972285Y-122089333D01*
X122911809Y-122210285D01*
G04 #@! TO.C,R26*
X156663571Y-137226523D02*
X156240238Y-136621761D01*
X155937857Y-137226523D02*
X155937857Y-135956523D01*
X156421666Y-135956523D01*
X156542619Y-136017000D01*
X156603095Y-136077476D01*
X156663571Y-136198428D01*
X156663571Y-136379857D01*
X156603095Y-136500809D01*
X156542619Y-136561285D01*
X156421666Y-136621761D01*
X155937857Y-136621761D01*
X157147380Y-136077476D02*
X157207857Y-136017000D01*
X157328809Y-135956523D01*
X157631190Y-135956523D01*
X157752142Y-136017000D01*
X157812619Y-136077476D01*
X157873095Y-136198428D01*
X157873095Y-136319380D01*
X157812619Y-136500809D01*
X157086904Y-137226523D01*
X157873095Y-137226523D01*
X158961666Y-135956523D02*
X158719761Y-135956523D01*
X158598809Y-136017000D01*
X158538333Y-136077476D01*
X158417380Y-136258904D01*
X158356904Y-136500809D01*
X158356904Y-136984619D01*
X158417380Y-137105571D01*
X158477857Y-137166047D01*
X158598809Y-137226523D01*
X158840714Y-137226523D01*
X158961666Y-137166047D01*
X159022142Y-137105571D01*
X159082619Y-136984619D01*
X159082619Y-136682238D01*
X159022142Y-136561285D01*
X158961666Y-136500809D01*
X158840714Y-136440333D01*
X158598809Y-136440333D01*
X158477857Y-136500809D01*
X158417380Y-136561285D01*
X158356904Y-136682238D01*
G04 #@! TO.C,R25*
X92554071Y-185232523D02*
X92130738Y-184627761D01*
X91828357Y-185232523D02*
X91828357Y-183962523D01*
X92312166Y-183962523D01*
X92433119Y-184023000D01*
X92493595Y-184083476D01*
X92554071Y-184204428D01*
X92554071Y-184385857D01*
X92493595Y-184506809D01*
X92433119Y-184567285D01*
X92312166Y-184627761D01*
X91828357Y-184627761D01*
X93037880Y-184083476D02*
X93098357Y-184023000D01*
X93219309Y-183962523D01*
X93521690Y-183962523D01*
X93642642Y-184023000D01*
X93703119Y-184083476D01*
X93763595Y-184204428D01*
X93763595Y-184325380D01*
X93703119Y-184506809D01*
X92977404Y-185232523D01*
X93763595Y-185232523D01*
X94912642Y-183962523D02*
X94307880Y-183962523D01*
X94247404Y-184567285D01*
X94307880Y-184506809D01*
X94428833Y-184446333D01*
X94731214Y-184446333D01*
X94852166Y-184506809D01*
X94912642Y-184567285D01*
X94973119Y-184688238D01*
X94973119Y-184990619D01*
X94912642Y-185111571D01*
X94852166Y-185172047D01*
X94731214Y-185232523D01*
X94428833Y-185232523D01*
X94307880Y-185172047D01*
X94247404Y-185111571D01*
G04 #@! TO.C,P1*
D14*
X149296380Y-149328095D02*
X148296380Y-149328095D01*
X148296380Y-148947142D01*
X148344000Y-148851904D01*
X148391619Y-148804285D01*
X148486857Y-148756666D01*
X148629714Y-148756666D01*
X148724952Y-148804285D01*
X148772571Y-148851904D01*
X148820190Y-148947142D01*
X148820190Y-149328095D01*
X149296380Y-147804285D02*
X149296380Y-148375714D01*
X149296380Y-148090000D02*
X148296380Y-148090000D01*
X148439238Y-148185238D01*
X148534476Y-148280476D01*
X148582095Y-148375714D01*
G04 #@! TO.C,C33*
D12*
X129993571Y-172157571D02*
X129933095Y-172218047D01*
X129751666Y-172278523D01*
X129630714Y-172278523D01*
X129449285Y-172218047D01*
X129328333Y-172097095D01*
X129267857Y-171976142D01*
X129207380Y-171734238D01*
X129207380Y-171552809D01*
X129267857Y-171310904D01*
X129328333Y-171189952D01*
X129449285Y-171069000D01*
X129630714Y-171008523D01*
X129751666Y-171008523D01*
X129933095Y-171069000D01*
X129993571Y-171129476D01*
X130416904Y-171008523D02*
X131203095Y-171008523D01*
X130779761Y-171492333D01*
X130961190Y-171492333D01*
X131082142Y-171552809D01*
X131142619Y-171613285D01*
X131203095Y-171734238D01*
X131203095Y-172036619D01*
X131142619Y-172157571D01*
X131082142Y-172218047D01*
X130961190Y-172278523D01*
X130598333Y-172278523D01*
X130477380Y-172218047D01*
X130416904Y-172157571D01*
X131626428Y-171008523D02*
X132412619Y-171008523D01*
X131989285Y-171492333D01*
X132170714Y-171492333D01*
X132291666Y-171552809D01*
X132352142Y-171613285D01*
X132412619Y-171734238D01*
X132412619Y-172036619D01*
X132352142Y-172157571D01*
X132291666Y-172218047D01*
X132170714Y-172278523D01*
X131807857Y-172278523D01*
X131686904Y-172218047D01*
X131626428Y-172157571D01*
G04 #@! TO.C,C32*
X130501571Y-163013571D02*
X130441095Y-163074047D01*
X130259666Y-163134523D01*
X130138714Y-163134523D01*
X129957285Y-163074047D01*
X129836333Y-162953095D01*
X129775857Y-162832142D01*
X129715380Y-162590238D01*
X129715380Y-162408809D01*
X129775857Y-162166904D01*
X129836333Y-162045952D01*
X129957285Y-161925000D01*
X130138714Y-161864523D01*
X130259666Y-161864523D01*
X130441095Y-161925000D01*
X130501571Y-161985476D01*
X130924904Y-161864523D02*
X131711095Y-161864523D01*
X131287761Y-162348333D01*
X131469190Y-162348333D01*
X131590142Y-162408809D01*
X131650619Y-162469285D01*
X131711095Y-162590238D01*
X131711095Y-162892619D01*
X131650619Y-163013571D01*
X131590142Y-163074047D01*
X131469190Y-163134523D01*
X131106333Y-163134523D01*
X130985380Y-163074047D01*
X130924904Y-163013571D01*
X132194904Y-161985476D02*
X132255380Y-161925000D01*
X132376333Y-161864523D01*
X132678714Y-161864523D01*
X132799666Y-161925000D01*
X132860142Y-161985476D01*
X132920619Y-162106428D01*
X132920619Y-162227380D01*
X132860142Y-162408809D01*
X132134428Y-163134523D01*
X132920619Y-163134523D01*
G04 #@! TO.C,C9*
X131106333Y-180031571D02*
X131045857Y-180092047D01*
X130864428Y-180152523D01*
X130743476Y-180152523D01*
X130562047Y-180092047D01*
X130441095Y-179971095D01*
X130380619Y-179850142D01*
X130320142Y-179608238D01*
X130320142Y-179426809D01*
X130380619Y-179184904D01*
X130441095Y-179063952D01*
X130562047Y-178943000D01*
X130743476Y-178882523D01*
X130864428Y-178882523D01*
X131045857Y-178943000D01*
X131106333Y-179003476D01*
X131711095Y-180152523D02*
X131953000Y-180152523D01*
X132073952Y-180092047D01*
X132134428Y-180031571D01*
X132255380Y-179850142D01*
X132315857Y-179608238D01*
X132315857Y-179124428D01*
X132255380Y-179003476D01*
X132194904Y-178943000D01*
X132073952Y-178882523D01*
X131832047Y-178882523D01*
X131711095Y-178943000D01*
X131650619Y-179003476D01*
X131590142Y-179124428D01*
X131590142Y-179426809D01*
X131650619Y-179547761D01*
X131711095Y-179608238D01*
X131832047Y-179668714D01*
X132073952Y-179668714D01*
X132194904Y-179608238D01*
X132255380Y-179547761D01*
X132315857Y-179426809D01*
G04 #@! TO.C,C8*
X131360333Y-176221571D02*
X131299857Y-176282047D01*
X131118428Y-176342523D01*
X130997476Y-176342523D01*
X130816047Y-176282047D01*
X130695095Y-176161095D01*
X130634619Y-176040142D01*
X130574142Y-175798238D01*
X130574142Y-175616809D01*
X130634619Y-175374904D01*
X130695095Y-175253952D01*
X130816047Y-175133000D01*
X130997476Y-175072523D01*
X131118428Y-175072523D01*
X131299857Y-175133000D01*
X131360333Y-175193476D01*
X132086047Y-175616809D02*
X131965095Y-175556333D01*
X131904619Y-175495857D01*
X131844142Y-175374904D01*
X131844142Y-175314428D01*
X131904619Y-175193476D01*
X131965095Y-175133000D01*
X132086047Y-175072523D01*
X132327952Y-175072523D01*
X132448904Y-175133000D01*
X132509380Y-175193476D01*
X132569857Y-175314428D01*
X132569857Y-175374904D01*
X132509380Y-175495857D01*
X132448904Y-175556333D01*
X132327952Y-175616809D01*
X132086047Y-175616809D01*
X131965095Y-175677285D01*
X131904619Y-175737761D01*
X131844142Y-175858714D01*
X131844142Y-176100619D01*
X131904619Y-176221571D01*
X131965095Y-176282047D01*
X132086047Y-176342523D01*
X132327952Y-176342523D01*
X132448904Y-176282047D01*
X132509380Y-176221571D01*
X132569857Y-176100619D01*
X132569857Y-175858714D01*
X132509380Y-175737761D01*
X132448904Y-175677285D01*
X132327952Y-175616809D01*
G04 #@! TO.C,C6*
X131868333Y-153615571D02*
X131807857Y-153676047D01*
X131626428Y-153736523D01*
X131505476Y-153736523D01*
X131324047Y-153676047D01*
X131203095Y-153555095D01*
X131142619Y-153434142D01*
X131082142Y-153192238D01*
X131082142Y-153010809D01*
X131142619Y-152768904D01*
X131203095Y-152647952D01*
X131324047Y-152527000D01*
X131505476Y-152466523D01*
X131626428Y-152466523D01*
X131807857Y-152527000D01*
X131868333Y-152587476D01*
X132956904Y-152466523D02*
X132715000Y-152466523D01*
X132594047Y-152527000D01*
X132533571Y-152587476D01*
X132412619Y-152768904D01*
X132352142Y-153010809D01*
X132352142Y-153494619D01*
X132412619Y-153615571D01*
X132473095Y-153676047D01*
X132594047Y-153736523D01*
X132835952Y-153736523D01*
X132956904Y-153676047D01*
X133017380Y-153615571D01*
X133077857Y-153494619D01*
X133077857Y-153192238D01*
X133017380Y-153071285D01*
X132956904Y-153010809D01*
X132835952Y-152950333D01*
X132594047Y-152950333D01*
X132473095Y-153010809D01*
X132412619Y-153071285D01*
X132352142Y-153192238D01*
G04 #@! TO.C,C5*
X132884333Y-141741071D02*
X132823857Y-141801547D01*
X132642428Y-141862023D01*
X132521476Y-141862023D01*
X132340047Y-141801547D01*
X132219095Y-141680595D01*
X132158619Y-141559642D01*
X132098142Y-141317738D01*
X132098142Y-141136309D01*
X132158619Y-140894404D01*
X132219095Y-140773452D01*
X132340047Y-140652500D01*
X132521476Y-140592023D01*
X132642428Y-140592023D01*
X132823857Y-140652500D01*
X132884333Y-140712976D01*
X134033380Y-140592023D02*
X133428619Y-140592023D01*
X133368142Y-141196785D01*
X133428619Y-141136309D01*
X133549571Y-141075833D01*
X133851952Y-141075833D01*
X133972904Y-141136309D01*
X134033380Y-141196785D01*
X134093857Y-141317738D01*
X134093857Y-141620119D01*
X134033380Y-141741071D01*
X133972904Y-141801547D01*
X133851952Y-141862023D01*
X133549571Y-141862023D01*
X133428619Y-141801547D01*
X133368142Y-141741071D01*
G04 #@! TO.C,C4*
X131868333Y-133803571D02*
X131807857Y-133864047D01*
X131626428Y-133924523D01*
X131505476Y-133924523D01*
X131324047Y-133864047D01*
X131203095Y-133743095D01*
X131142619Y-133622142D01*
X131082142Y-133380238D01*
X131082142Y-133198809D01*
X131142619Y-132956904D01*
X131203095Y-132835952D01*
X131324047Y-132715000D01*
X131505476Y-132654523D01*
X131626428Y-132654523D01*
X131807857Y-132715000D01*
X131868333Y-132775476D01*
X132956904Y-133077857D02*
X132956904Y-133924523D01*
X132654523Y-132594047D02*
X132352142Y-133501190D01*
X133138333Y-133501190D01*
G04 #@! TO.C,C29*
X116102571Y-163566928D02*
X116163047Y-163627404D01*
X116223523Y-163808833D01*
X116223523Y-163929785D01*
X116163047Y-164111214D01*
X116042095Y-164232166D01*
X115921142Y-164292642D01*
X115679238Y-164353119D01*
X115497809Y-164353119D01*
X115255904Y-164292642D01*
X115134952Y-164232166D01*
X115014000Y-164111214D01*
X114953523Y-163929785D01*
X114953523Y-163808833D01*
X115014000Y-163627404D01*
X115074476Y-163566928D01*
X115074476Y-163083119D02*
X115014000Y-163022642D01*
X114953523Y-162901690D01*
X114953523Y-162599309D01*
X115014000Y-162478357D01*
X115074476Y-162417880D01*
X115195428Y-162357404D01*
X115316380Y-162357404D01*
X115497809Y-162417880D01*
X116223523Y-163143595D01*
X116223523Y-162357404D01*
X116223523Y-161752642D02*
X116223523Y-161510738D01*
X116163047Y-161389785D01*
X116102571Y-161329309D01*
X115921142Y-161208357D01*
X115679238Y-161147880D01*
X115195428Y-161147880D01*
X115074476Y-161208357D01*
X115014000Y-161268833D01*
X114953523Y-161389785D01*
X114953523Y-161631690D01*
X115014000Y-161752642D01*
X115074476Y-161813119D01*
X115195428Y-161873595D01*
X115497809Y-161873595D01*
X115618761Y-161813119D01*
X115679238Y-161752642D01*
X115739714Y-161631690D01*
X115739714Y-161389785D01*
X115679238Y-161268833D01*
X115618761Y-161208357D01*
X115497809Y-161147880D01*
G04 #@! TO.C,C28*
X115007571Y-169363571D02*
X114947095Y-169424047D01*
X114765666Y-169484523D01*
X114644714Y-169484523D01*
X114463285Y-169424047D01*
X114342333Y-169303095D01*
X114281857Y-169182142D01*
X114221380Y-168940238D01*
X114221380Y-168758809D01*
X114281857Y-168516904D01*
X114342333Y-168395952D01*
X114463285Y-168275000D01*
X114644714Y-168214523D01*
X114765666Y-168214523D01*
X114947095Y-168275000D01*
X115007571Y-168335476D01*
X115491380Y-168335476D02*
X115551857Y-168275000D01*
X115672809Y-168214523D01*
X115975190Y-168214523D01*
X116096142Y-168275000D01*
X116156619Y-168335476D01*
X116217095Y-168456428D01*
X116217095Y-168577380D01*
X116156619Y-168758809D01*
X115430904Y-169484523D01*
X116217095Y-169484523D01*
X116942809Y-168758809D02*
X116821857Y-168698333D01*
X116761380Y-168637857D01*
X116700904Y-168516904D01*
X116700904Y-168456428D01*
X116761380Y-168335476D01*
X116821857Y-168275000D01*
X116942809Y-168214523D01*
X117184714Y-168214523D01*
X117305666Y-168275000D01*
X117366142Y-168335476D01*
X117426619Y-168456428D01*
X117426619Y-168516904D01*
X117366142Y-168637857D01*
X117305666Y-168698333D01*
X117184714Y-168758809D01*
X116942809Y-168758809D01*
X116821857Y-168819285D01*
X116761380Y-168879761D01*
X116700904Y-169000714D01*
X116700904Y-169242619D01*
X116761380Y-169363571D01*
X116821857Y-169424047D01*
X116942809Y-169484523D01*
X117184714Y-169484523D01*
X117305666Y-169424047D01*
X117366142Y-169363571D01*
X117426619Y-169242619D01*
X117426619Y-169000714D01*
X117366142Y-168879761D01*
X117305666Y-168819285D01*
X117184714Y-168758809D01*
G04 #@! TO.C,C27*
X114753571Y-171649571D02*
X114693095Y-171710047D01*
X114511666Y-171770523D01*
X114390714Y-171770523D01*
X114209285Y-171710047D01*
X114088333Y-171589095D01*
X114027857Y-171468142D01*
X113967380Y-171226238D01*
X113967380Y-171044809D01*
X114027857Y-170802904D01*
X114088333Y-170681952D01*
X114209285Y-170561000D01*
X114390714Y-170500523D01*
X114511666Y-170500523D01*
X114693095Y-170561000D01*
X114753571Y-170621476D01*
X115237380Y-170621476D02*
X115297857Y-170561000D01*
X115418809Y-170500523D01*
X115721190Y-170500523D01*
X115842142Y-170561000D01*
X115902619Y-170621476D01*
X115963095Y-170742428D01*
X115963095Y-170863380D01*
X115902619Y-171044809D01*
X115176904Y-171770523D01*
X115963095Y-171770523D01*
X116386428Y-170500523D02*
X117233095Y-170500523D01*
X116688809Y-171770523D01*
G04 #@! TO.C,C20*
X100529571Y-157280428D02*
X100590047Y-157340904D01*
X100650523Y-157522333D01*
X100650523Y-157643285D01*
X100590047Y-157824714D01*
X100469095Y-157945666D01*
X100348142Y-158006142D01*
X100106238Y-158066619D01*
X99924809Y-158066619D01*
X99682904Y-158006142D01*
X99561952Y-157945666D01*
X99441000Y-157824714D01*
X99380523Y-157643285D01*
X99380523Y-157522333D01*
X99441000Y-157340904D01*
X99501476Y-157280428D01*
X99501476Y-156796619D02*
X99441000Y-156736142D01*
X99380523Y-156615190D01*
X99380523Y-156312809D01*
X99441000Y-156191857D01*
X99501476Y-156131380D01*
X99622428Y-156070904D01*
X99743380Y-156070904D01*
X99924809Y-156131380D01*
X100650523Y-156857095D01*
X100650523Y-156070904D01*
X99380523Y-155284714D02*
X99380523Y-155163761D01*
X99441000Y-155042809D01*
X99501476Y-154982333D01*
X99622428Y-154921857D01*
X99864333Y-154861380D01*
X100166714Y-154861380D01*
X100408619Y-154921857D01*
X100529571Y-154982333D01*
X100590047Y-155042809D01*
X100650523Y-155163761D01*
X100650523Y-155284714D01*
X100590047Y-155405666D01*
X100529571Y-155466142D01*
X100408619Y-155526619D01*
X100166714Y-155587095D01*
X99864333Y-155587095D01*
X99622428Y-155526619D01*
X99501476Y-155466142D01*
X99441000Y-155405666D01*
X99380523Y-155284714D01*
G04 #@! TO.C,C31*
X110689571Y-159457571D02*
X110629095Y-159518047D01*
X110447666Y-159578523D01*
X110326714Y-159578523D01*
X110145285Y-159518047D01*
X110024333Y-159397095D01*
X109963857Y-159276142D01*
X109903380Y-159034238D01*
X109903380Y-158852809D01*
X109963857Y-158610904D01*
X110024333Y-158489952D01*
X110145285Y-158369000D01*
X110326714Y-158308523D01*
X110447666Y-158308523D01*
X110629095Y-158369000D01*
X110689571Y-158429476D01*
X111112904Y-158308523D02*
X111899095Y-158308523D01*
X111475761Y-158792333D01*
X111657190Y-158792333D01*
X111778142Y-158852809D01*
X111838619Y-158913285D01*
X111899095Y-159034238D01*
X111899095Y-159336619D01*
X111838619Y-159457571D01*
X111778142Y-159518047D01*
X111657190Y-159578523D01*
X111294333Y-159578523D01*
X111173380Y-159518047D01*
X111112904Y-159457571D01*
X113108619Y-159578523D02*
X112382904Y-159578523D01*
X112745761Y-159578523D02*
X112745761Y-158308523D01*
X112624809Y-158489952D01*
X112503857Y-158610904D01*
X112382904Y-158671380D01*
G04 #@! TO.C,C19*
X95195571Y-160219571D02*
X95135095Y-160280047D01*
X94953666Y-160340523D01*
X94832714Y-160340523D01*
X94651285Y-160280047D01*
X94530333Y-160159095D01*
X94469857Y-160038142D01*
X94409380Y-159796238D01*
X94409380Y-159614809D01*
X94469857Y-159372904D01*
X94530333Y-159251952D01*
X94651285Y-159131000D01*
X94832714Y-159070523D01*
X94953666Y-159070523D01*
X95135095Y-159131000D01*
X95195571Y-159191476D01*
X96405095Y-160340523D02*
X95679380Y-160340523D01*
X96042238Y-160340523D02*
X96042238Y-159070523D01*
X95921285Y-159251952D01*
X95800333Y-159372904D01*
X95679380Y-159433380D01*
X97009857Y-160340523D02*
X97251761Y-160340523D01*
X97372714Y-160280047D01*
X97433190Y-160219571D01*
X97554142Y-160038142D01*
X97614619Y-159796238D01*
X97614619Y-159312428D01*
X97554142Y-159191476D01*
X97493666Y-159131000D01*
X97372714Y-159070523D01*
X97130809Y-159070523D01*
X97009857Y-159131000D01*
X96949380Y-159191476D01*
X96888904Y-159312428D01*
X96888904Y-159614809D01*
X96949380Y-159735761D01*
X97009857Y-159796238D01*
X97130809Y-159856714D01*
X97372714Y-159856714D01*
X97493666Y-159796238D01*
X97554142Y-159735761D01*
X97614619Y-159614809D01*
G04 #@! TO.C,C26*
X107895571Y-143709571D02*
X107835095Y-143770047D01*
X107653666Y-143830523D01*
X107532714Y-143830523D01*
X107351285Y-143770047D01*
X107230333Y-143649095D01*
X107169857Y-143528142D01*
X107109380Y-143286238D01*
X107109380Y-143104809D01*
X107169857Y-142862904D01*
X107230333Y-142741952D01*
X107351285Y-142621000D01*
X107532714Y-142560523D01*
X107653666Y-142560523D01*
X107835095Y-142621000D01*
X107895571Y-142681476D01*
X108379380Y-142681476D02*
X108439857Y-142621000D01*
X108560809Y-142560523D01*
X108863190Y-142560523D01*
X108984142Y-142621000D01*
X109044619Y-142681476D01*
X109105095Y-142802428D01*
X109105095Y-142923380D01*
X109044619Y-143104809D01*
X108318904Y-143830523D01*
X109105095Y-143830523D01*
X110193666Y-142560523D02*
X109951761Y-142560523D01*
X109830809Y-142621000D01*
X109770333Y-142681476D01*
X109649380Y-142862904D01*
X109588904Y-143104809D01*
X109588904Y-143588619D01*
X109649380Y-143709571D01*
X109709857Y-143770047D01*
X109830809Y-143830523D01*
X110072714Y-143830523D01*
X110193666Y-143770047D01*
X110254142Y-143709571D01*
X110314619Y-143588619D01*
X110314619Y-143286238D01*
X110254142Y-143165285D01*
X110193666Y-143104809D01*
X110072714Y-143044333D01*
X109830809Y-143044333D01*
X109709857Y-143104809D01*
X109649380Y-143165285D01*
X109588904Y-143286238D01*
G04 #@! TO.C,C22*
X97481571Y-177999571D02*
X97421095Y-178060047D01*
X97239666Y-178120523D01*
X97118714Y-178120523D01*
X96937285Y-178060047D01*
X96816333Y-177939095D01*
X96755857Y-177818142D01*
X96695380Y-177576238D01*
X96695380Y-177394809D01*
X96755857Y-177152904D01*
X96816333Y-177031952D01*
X96937285Y-176911000D01*
X97118714Y-176850523D01*
X97239666Y-176850523D01*
X97421095Y-176911000D01*
X97481571Y-176971476D01*
X97965380Y-176971476D02*
X98025857Y-176911000D01*
X98146809Y-176850523D01*
X98449190Y-176850523D01*
X98570142Y-176911000D01*
X98630619Y-176971476D01*
X98691095Y-177092428D01*
X98691095Y-177213380D01*
X98630619Y-177394809D01*
X97904904Y-178120523D01*
X98691095Y-178120523D01*
X99174904Y-176971476D02*
X99235380Y-176911000D01*
X99356333Y-176850523D01*
X99658714Y-176850523D01*
X99779666Y-176911000D01*
X99840142Y-176971476D01*
X99900619Y-177092428D01*
X99900619Y-177213380D01*
X99840142Y-177394809D01*
X99114428Y-178120523D01*
X99900619Y-178120523D01*
G04 #@! TO.C,C34*
X100275571Y-152091571D02*
X100215095Y-152152047D01*
X100033666Y-152212523D01*
X99912714Y-152212523D01*
X99731285Y-152152047D01*
X99610333Y-152031095D01*
X99549857Y-151910142D01*
X99489380Y-151668238D01*
X99489380Y-151486809D01*
X99549857Y-151244904D01*
X99610333Y-151123952D01*
X99731285Y-151003000D01*
X99912714Y-150942523D01*
X100033666Y-150942523D01*
X100215095Y-151003000D01*
X100275571Y-151063476D01*
X100698904Y-150942523D02*
X101485095Y-150942523D01*
X101061761Y-151426333D01*
X101243190Y-151426333D01*
X101364142Y-151486809D01*
X101424619Y-151547285D01*
X101485095Y-151668238D01*
X101485095Y-151970619D01*
X101424619Y-152091571D01*
X101364142Y-152152047D01*
X101243190Y-152212523D01*
X100880333Y-152212523D01*
X100759380Y-152152047D01*
X100698904Y-152091571D01*
X102573666Y-151365857D02*
X102573666Y-152212523D01*
X102271285Y-150882047D02*
X101968904Y-151789190D01*
X102755095Y-151789190D01*
G04 #@! TO.C,R23*
X92655571Y-188661523D02*
X92232238Y-188056761D01*
X91929857Y-188661523D02*
X91929857Y-187391523D01*
X92413666Y-187391523D01*
X92534619Y-187452000D01*
X92595095Y-187512476D01*
X92655571Y-187633428D01*
X92655571Y-187814857D01*
X92595095Y-187935809D01*
X92534619Y-187996285D01*
X92413666Y-188056761D01*
X91929857Y-188056761D01*
X93139380Y-187512476D02*
X93199857Y-187452000D01*
X93320809Y-187391523D01*
X93623190Y-187391523D01*
X93744142Y-187452000D01*
X93804619Y-187512476D01*
X93865095Y-187633428D01*
X93865095Y-187754380D01*
X93804619Y-187935809D01*
X93078904Y-188661523D01*
X93865095Y-188661523D01*
X94288428Y-187391523D02*
X95074619Y-187391523D01*
X94651285Y-187875333D01*
X94832714Y-187875333D01*
X94953666Y-187935809D01*
X95014142Y-187996285D01*
X95074619Y-188117238D01*
X95074619Y-188419619D01*
X95014142Y-188540571D01*
X94953666Y-188601047D01*
X94832714Y-188661523D01*
X94469857Y-188661523D01*
X94348904Y-188601047D01*
X94288428Y-188540571D01*
G04 #@! TO.C,R18*
X96211571Y-162436023D02*
X95788238Y-161831261D01*
X95485857Y-162436023D02*
X95485857Y-161166023D01*
X95969666Y-161166023D01*
X96090619Y-161226500D01*
X96151095Y-161286976D01*
X96211571Y-161407928D01*
X96211571Y-161589357D01*
X96151095Y-161710309D01*
X96090619Y-161770785D01*
X95969666Y-161831261D01*
X95485857Y-161831261D01*
X97421095Y-162436023D02*
X96695380Y-162436023D01*
X97058238Y-162436023D02*
X97058238Y-161166023D01*
X96937285Y-161347452D01*
X96816333Y-161468404D01*
X96695380Y-161528880D01*
X98146809Y-161710309D02*
X98025857Y-161649833D01*
X97965380Y-161589357D01*
X97904904Y-161468404D01*
X97904904Y-161407928D01*
X97965380Y-161286976D01*
X98025857Y-161226500D01*
X98146809Y-161166023D01*
X98388714Y-161166023D01*
X98509666Y-161226500D01*
X98570142Y-161286976D01*
X98630619Y-161407928D01*
X98630619Y-161468404D01*
X98570142Y-161589357D01*
X98509666Y-161649833D01*
X98388714Y-161710309D01*
X98146809Y-161710309D01*
X98025857Y-161770785D01*
X97965380Y-161831261D01*
X97904904Y-161952214D01*
X97904904Y-162194119D01*
X97965380Y-162315071D01*
X98025857Y-162375547D01*
X98146809Y-162436023D01*
X98388714Y-162436023D01*
X98509666Y-162375547D01*
X98570142Y-162315071D01*
X98630619Y-162194119D01*
X98630619Y-161952214D01*
X98570142Y-161831261D01*
X98509666Y-161770785D01*
X98388714Y-161710309D01*
G04 #@! TO.C,R17*
X106238523Y-156264428D02*
X105633761Y-156687761D01*
X106238523Y-156990142D02*
X104968523Y-156990142D01*
X104968523Y-156506333D01*
X105029000Y-156385380D01*
X105089476Y-156324904D01*
X105210428Y-156264428D01*
X105391857Y-156264428D01*
X105512809Y-156324904D01*
X105573285Y-156385380D01*
X105633761Y-156506333D01*
X105633761Y-156990142D01*
X106238523Y-155054904D02*
X106238523Y-155780619D01*
X106238523Y-155417761D02*
X104968523Y-155417761D01*
X105149952Y-155538714D01*
X105270904Y-155659666D01*
X105331380Y-155780619D01*
X104968523Y-154631571D02*
X104968523Y-153784904D01*
X106238523Y-154329190D01*
G04 #@! TO.C,R16*
X104206523Y-156264428D02*
X103601761Y-156687761D01*
X104206523Y-156990142D02*
X102936523Y-156990142D01*
X102936523Y-156506333D01*
X102997000Y-156385380D01*
X103057476Y-156324904D01*
X103178428Y-156264428D01*
X103359857Y-156264428D01*
X103480809Y-156324904D01*
X103541285Y-156385380D01*
X103601761Y-156506333D01*
X103601761Y-156990142D01*
X104206523Y-155054904D02*
X104206523Y-155780619D01*
X104206523Y-155417761D02*
X102936523Y-155417761D01*
X103117952Y-155538714D01*
X103238904Y-155659666D01*
X103299380Y-155780619D01*
X102936523Y-153966333D02*
X102936523Y-154208238D01*
X102997000Y-154329190D01*
X103057476Y-154389666D01*
X103238904Y-154510619D01*
X103480809Y-154571095D01*
X103964619Y-154571095D01*
X104085571Y-154510619D01*
X104146047Y-154450142D01*
X104206523Y-154329190D01*
X104206523Y-154087285D01*
X104146047Y-153966333D01*
X104085571Y-153905857D01*
X103964619Y-153845380D01*
X103662238Y-153845380D01*
X103541285Y-153905857D01*
X103480809Y-153966333D01*
X103420333Y-154087285D01*
X103420333Y-154329190D01*
X103480809Y-154450142D01*
X103541285Y-154510619D01*
X103662238Y-154571095D01*
G04 #@! TO.C,R20*
X119071571Y-164785523D02*
X118648238Y-164180761D01*
X118345857Y-164785523D02*
X118345857Y-163515523D01*
X118829666Y-163515523D01*
X118950619Y-163576000D01*
X119011095Y-163636476D01*
X119071571Y-163757428D01*
X119071571Y-163938857D01*
X119011095Y-164059809D01*
X118950619Y-164120285D01*
X118829666Y-164180761D01*
X118345857Y-164180761D01*
X119555380Y-163636476D02*
X119615857Y-163576000D01*
X119736809Y-163515523D01*
X120039190Y-163515523D01*
X120160142Y-163576000D01*
X120220619Y-163636476D01*
X120281095Y-163757428D01*
X120281095Y-163878380D01*
X120220619Y-164059809D01*
X119494904Y-164785523D01*
X120281095Y-164785523D01*
X121067285Y-163515523D02*
X121188238Y-163515523D01*
X121309190Y-163576000D01*
X121369666Y-163636476D01*
X121430142Y-163757428D01*
X121490619Y-163999333D01*
X121490619Y-164301714D01*
X121430142Y-164543619D01*
X121369666Y-164664571D01*
X121309190Y-164725047D01*
X121188238Y-164785523D01*
X121067285Y-164785523D01*
X120946333Y-164725047D01*
X120885857Y-164664571D01*
X120825380Y-164543619D01*
X120764904Y-164301714D01*
X120764904Y-163999333D01*
X120825380Y-163757428D01*
X120885857Y-163636476D01*
X120946333Y-163576000D01*
X121067285Y-163515523D01*
G04 #@! TO.C,R21*
X95957571Y-165166523D02*
X95534238Y-164561761D01*
X95231857Y-165166523D02*
X95231857Y-163896523D01*
X95715666Y-163896523D01*
X95836619Y-163957000D01*
X95897095Y-164017476D01*
X95957571Y-164138428D01*
X95957571Y-164319857D01*
X95897095Y-164440809D01*
X95836619Y-164501285D01*
X95715666Y-164561761D01*
X95231857Y-164561761D01*
X96441380Y-164017476D02*
X96501857Y-163957000D01*
X96622809Y-163896523D01*
X96925190Y-163896523D01*
X97046142Y-163957000D01*
X97106619Y-164017476D01*
X97167095Y-164138428D01*
X97167095Y-164259380D01*
X97106619Y-164440809D01*
X96380904Y-165166523D01*
X97167095Y-165166523D01*
X98376619Y-165166523D02*
X97650904Y-165166523D01*
X98013761Y-165166523D02*
X98013761Y-163896523D01*
X97892809Y-164077952D01*
X97771857Y-164198904D01*
X97650904Y-164259380D01*
G04 #@! TO.C,R22*
X92655571Y-186883523D02*
X92232238Y-186278761D01*
X91929857Y-186883523D02*
X91929857Y-185613523D01*
X92413666Y-185613523D01*
X92534619Y-185674000D01*
X92595095Y-185734476D01*
X92655571Y-185855428D01*
X92655571Y-186036857D01*
X92595095Y-186157809D01*
X92534619Y-186218285D01*
X92413666Y-186278761D01*
X91929857Y-186278761D01*
X93139380Y-185734476D02*
X93199857Y-185674000D01*
X93320809Y-185613523D01*
X93623190Y-185613523D01*
X93744142Y-185674000D01*
X93804619Y-185734476D01*
X93865095Y-185855428D01*
X93865095Y-185976380D01*
X93804619Y-186157809D01*
X93078904Y-186883523D01*
X93865095Y-186883523D01*
X94348904Y-185734476D02*
X94409380Y-185674000D01*
X94530333Y-185613523D01*
X94832714Y-185613523D01*
X94953666Y-185674000D01*
X95014142Y-185734476D01*
X95074619Y-185855428D01*
X95074619Y-185976380D01*
X95014142Y-186157809D01*
X94288428Y-186883523D01*
X95074619Y-186883523D01*
G04 #@! TO.C,R19*
X102428523Y-157026428D02*
X101823761Y-157449761D01*
X102428523Y-157752142D02*
X101158523Y-157752142D01*
X101158523Y-157268333D01*
X101219000Y-157147380D01*
X101279476Y-157086904D01*
X101400428Y-157026428D01*
X101581857Y-157026428D01*
X101702809Y-157086904D01*
X101763285Y-157147380D01*
X101823761Y-157268333D01*
X101823761Y-157752142D01*
X102428523Y-155816904D02*
X102428523Y-156542619D01*
X102428523Y-156179761D02*
X101158523Y-156179761D01*
X101339952Y-156300714D01*
X101460904Y-156421666D01*
X101521380Y-156542619D01*
X102428523Y-155212142D02*
X102428523Y-154970238D01*
X102368047Y-154849285D01*
X102307571Y-154788809D01*
X102126142Y-154667857D01*
X101884238Y-154607380D01*
X101400428Y-154607380D01*
X101279476Y-154667857D01*
X101219000Y-154728333D01*
X101158523Y-154849285D01*
X101158523Y-155091190D01*
X101219000Y-155212142D01*
X101279476Y-155272619D01*
X101400428Y-155333095D01*
X101702809Y-155333095D01*
X101823761Y-155272619D01*
X101884238Y-155212142D01*
X101944714Y-155091190D01*
X101944714Y-154849285D01*
X101884238Y-154728333D01*
X101823761Y-154667857D01*
X101702809Y-154607380D01*
G04 #@! TO.C,R27*
X156530523Y-157026428D02*
X155925761Y-157449761D01*
X156530523Y-157752142D02*
X155260523Y-157752142D01*
X155260523Y-157268333D01*
X155321000Y-157147380D01*
X155381476Y-157086904D01*
X155502428Y-157026428D01*
X155683857Y-157026428D01*
X155804809Y-157086904D01*
X155865285Y-157147380D01*
X155925761Y-157268333D01*
X155925761Y-157752142D01*
X155381476Y-156542619D02*
X155321000Y-156482142D01*
X155260523Y-156361190D01*
X155260523Y-156058809D01*
X155321000Y-155937857D01*
X155381476Y-155877380D01*
X155502428Y-155816904D01*
X155623380Y-155816904D01*
X155804809Y-155877380D01*
X156530523Y-156603095D01*
X156530523Y-155816904D01*
X155260523Y-155393571D02*
X155260523Y-154546904D01*
X156530523Y-155091190D01*
G04 #@! TO.C,R28*
X152599571Y-179644523D02*
X152176238Y-179039761D01*
X151873857Y-179644523D02*
X151873857Y-178374523D01*
X152357666Y-178374523D01*
X152478619Y-178435000D01*
X152539095Y-178495476D01*
X152599571Y-178616428D01*
X152599571Y-178797857D01*
X152539095Y-178918809D01*
X152478619Y-178979285D01*
X152357666Y-179039761D01*
X151873857Y-179039761D01*
X153083380Y-178495476D02*
X153143857Y-178435000D01*
X153264809Y-178374523D01*
X153567190Y-178374523D01*
X153688142Y-178435000D01*
X153748619Y-178495476D01*
X153809095Y-178616428D01*
X153809095Y-178737380D01*
X153748619Y-178918809D01*
X153022904Y-179644523D01*
X153809095Y-179644523D01*
X154534809Y-178918809D02*
X154413857Y-178858333D01*
X154353380Y-178797857D01*
X154292904Y-178676904D01*
X154292904Y-178616428D01*
X154353380Y-178495476D01*
X154413857Y-178435000D01*
X154534809Y-178374523D01*
X154776714Y-178374523D01*
X154897666Y-178435000D01*
X154958142Y-178495476D01*
X155018619Y-178616428D01*
X155018619Y-178676904D01*
X154958142Y-178797857D01*
X154897666Y-178858333D01*
X154776714Y-178918809D01*
X154534809Y-178918809D01*
X154413857Y-178979285D01*
X154353380Y-179039761D01*
X154292904Y-179160714D01*
X154292904Y-179402619D01*
X154353380Y-179523571D01*
X154413857Y-179584047D01*
X154534809Y-179644523D01*
X154776714Y-179644523D01*
X154897666Y-179584047D01*
X154958142Y-179523571D01*
X155018619Y-179402619D01*
X155018619Y-179160714D01*
X154958142Y-179039761D01*
X154897666Y-178979285D01*
X154776714Y-178918809D01*
G04 #@! TO.C,R29*
X131771571Y-183200523D02*
X131348238Y-182595761D01*
X131045857Y-183200523D02*
X131045857Y-181930523D01*
X131529666Y-181930523D01*
X131650619Y-181991000D01*
X131711095Y-182051476D01*
X131771571Y-182172428D01*
X131771571Y-182353857D01*
X131711095Y-182474809D01*
X131650619Y-182535285D01*
X131529666Y-182595761D01*
X131045857Y-182595761D01*
X132255380Y-182051476D02*
X132315857Y-181991000D01*
X132436809Y-181930523D01*
X132739190Y-181930523D01*
X132860142Y-181991000D01*
X132920619Y-182051476D01*
X132981095Y-182172428D01*
X132981095Y-182293380D01*
X132920619Y-182474809D01*
X132194904Y-183200523D01*
X132981095Y-183200523D01*
X133585857Y-183200523D02*
X133827761Y-183200523D01*
X133948714Y-183140047D01*
X134009190Y-183079571D01*
X134130142Y-182898142D01*
X134190619Y-182656238D01*
X134190619Y-182172428D01*
X134130142Y-182051476D01*
X134069666Y-181991000D01*
X133948714Y-181930523D01*
X133706809Y-181930523D01*
X133585857Y-181991000D01*
X133525380Y-182051476D01*
X133464904Y-182172428D01*
X133464904Y-182474809D01*
X133525380Y-182595761D01*
X133585857Y-182656238D01*
X133706809Y-182716714D01*
X133948714Y-182716714D01*
X134069666Y-182656238D01*
X134130142Y-182595761D01*
X134190619Y-182474809D01*
G04 #@! TO.C,R24*
X92909571Y-190312523D02*
X92486238Y-189707761D01*
X92183857Y-190312523D02*
X92183857Y-189042523D01*
X92667666Y-189042523D01*
X92788619Y-189103000D01*
X92849095Y-189163476D01*
X92909571Y-189284428D01*
X92909571Y-189465857D01*
X92849095Y-189586809D01*
X92788619Y-189647285D01*
X92667666Y-189707761D01*
X92183857Y-189707761D01*
X93393380Y-189163476D02*
X93453857Y-189103000D01*
X93574809Y-189042523D01*
X93877190Y-189042523D01*
X93998142Y-189103000D01*
X94058619Y-189163476D01*
X94119095Y-189284428D01*
X94119095Y-189405380D01*
X94058619Y-189586809D01*
X93332904Y-190312523D01*
X94119095Y-190312523D01*
X95207666Y-189465857D02*
X95207666Y-190312523D01*
X94905285Y-188982047D02*
X94602904Y-189889190D01*
X95389095Y-189889190D01*
G04 #@! TO.C,L1*
X121708333Y-149926523D02*
X121103571Y-149926523D01*
X121103571Y-148656523D01*
X122796904Y-149926523D02*
X122071190Y-149926523D01*
X122434047Y-149926523D02*
X122434047Y-148656523D01*
X122313095Y-148837952D01*
X122192142Y-148958904D01*
X122071190Y-149019380D01*
G04 #@! TO.C,D1*
X108028619Y-156022523D02*
X108028619Y-154752523D01*
X108331000Y-154752523D01*
X108512428Y-154813000D01*
X108633380Y-154933952D01*
X108693857Y-155054904D01*
X108754333Y-155296809D01*
X108754333Y-155478238D01*
X108693857Y-155720142D01*
X108633380Y-155841095D01*
X108512428Y-155962047D01*
X108331000Y-156022523D01*
X108028619Y-156022523D01*
X109963857Y-156022523D02*
X109238142Y-156022523D01*
X109601000Y-156022523D02*
X109601000Y-154752523D01*
X109480047Y-154933952D01*
X109359095Y-155054904D01*
X109238142Y-155115380D01*
G04 #@! TO.C,C35*
X76907571Y-184349571D02*
X76847095Y-184410047D01*
X76665666Y-184470523D01*
X76544714Y-184470523D01*
X76363285Y-184410047D01*
X76242333Y-184289095D01*
X76181857Y-184168142D01*
X76121380Y-183926238D01*
X76121380Y-183744809D01*
X76181857Y-183502904D01*
X76242333Y-183381952D01*
X76363285Y-183261000D01*
X76544714Y-183200523D01*
X76665666Y-183200523D01*
X76847095Y-183261000D01*
X76907571Y-183321476D01*
X77330904Y-183200523D02*
X78117095Y-183200523D01*
X77693761Y-183684333D01*
X77875190Y-183684333D01*
X77996142Y-183744809D01*
X78056619Y-183805285D01*
X78117095Y-183926238D01*
X78117095Y-184228619D01*
X78056619Y-184349571D01*
X77996142Y-184410047D01*
X77875190Y-184470523D01*
X77512333Y-184470523D01*
X77391380Y-184410047D01*
X77330904Y-184349571D01*
X79266142Y-183200523D02*
X78661380Y-183200523D01*
X78600904Y-183805285D01*
X78661380Y-183744809D01*
X78782333Y-183684333D01*
X79084714Y-183684333D01*
X79205666Y-183744809D01*
X79266142Y-183805285D01*
X79326619Y-183926238D01*
X79326619Y-184228619D01*
X79266142Y-184349571D01*
X79205666Y-184410047D01*
X79084714Y-184470523D01*
X78782333Y-184470523D01*
X78661380Y-184410047D01*
X78600904Y-184349571D01*
G04 #@! TO.C,C12*
X83765571Y-183841571D02*
X83705095Y-183902047D01*
X83523666Y-183962523D01*
X83402714Y-183962523D01*
X83221285Y-183902047D01*
X83100333Y-183781095D01*
X83039857Y-183660142D01*
X82979380Y-183418238D01*
X82979380Y-183236809D01*
X83039857Y-182994904D01*
X83100333Y-182873952D01*
X83221285Y-182753000D01*
X83402714Y-182692523D01*
X83523666Y-182692523D01*
X83705095Y-182753000D01*
X83765571Y-182813476D01*
X84975095Y-183962523D02*
X84249380Y-183962523D01*
X84612238Y-183962523D02*
X84612238Y-182692523D01*
X84491285Y-182873952D01*
X84370333Y-182994904D01*
X84249380Y-183055380D01*
X85458904Y-182813476D02*
X85519380Y-182753000D01*
X85640333Y-182692523D01*
X85942714Y-182692523D01*
X86063666Y-182753000D01*
X86124142Y-182813476D01*
X86184619Y-182934428D01*
X86184619Y-183055380D01*
X86124142Y-183236809D01*
X85398428Y-183962523D01*
X86184619Y-183962523D01*
G04 #@! TO.C,C11*
X80209571Y-188413571D02*
X80149095Y-188474047D01*
X79967666Y-188534523D01*
X79846714Y-188534523D01*
X79665285Y-188474047D01*
X79544333Y-188353095D01*
X79483857Y-188232142D01*
X79423380Y-187990238D01*
X79423380Y-187808809D01*
X79483857Y-187566904D01*
X79544333Y-187445952D01*
X79665285Y-187325000D01*
X79846714Y-187264523D01*
X79967666Y-187264523D01*
X80149095Y-187325000D01*
X80209571Y-187385476D01*
X81419095Y-188534523D02*
X80693380Y-188534523D01*
X81056238Y-188534523D02*
X81056238Y-187264523D01*
X80935285Y-187445952D01*
X80814333Y-187566904D01*
X80693380Y-187627380D01*
X82628619Y-188534523D02*
X81902904Y-188534523D01*
X82265761Y-188534523D02*
X82265761Y-187264523D01*
X82144809Y-187445952D01*
X82023857Y-187566904D01*
X81902904Y-187627380D01*
G04 #@! TO.C,C10*
X79701571Y-191461571D02*
X79641095Y-191522047D01*
X79459666Y-191582523D01*
X79338714Y-191582523D01*
X79157285Y-191522047D01*
X79036333Y-191401095D01*
X78975857Y-191280142D01*
X78915380Y-191038238D01*
X78915380Y-190856809D01*
X78975857Y-190614904D01*
X79036333Y-190493952D01*
X79157285Y-190373000D01*
X79338714Y-190312523D01*
X79459666Y-190312523D01*
X79641095Y-190373000D01*
X79701571Y-190433476D01*
X80911095Y-191582523D02*
X80185380Y-191582523D01*
X80548238Y-191582523D02*
X80548238Y-190312523D01*
X80427285Y-190493952D01*
X80306333Y-190614904D01*
X80185380Y-190675380D01*
X81697285Y-190312523D02*
X81818238Y-190312523D01*
X81939190Y-190373000D01*
X81999666Y-190433476D01*
X82060142Y-190554428D01*
X82120619Y-190796333D01*
X82120619Y-191098714D01*
X82060142Y-191340619D01*
X81999666Y-191461571D01*
X81939190Y-191522047D01*
X81818238Y-191582523D01*
X81697285Y-191582523D01*
X81576333Y-191522047D01*
X81515857Y-191461571D01*
X81455380Y-191340619D01*
X81394904Y-191098714D01*
X81394904Y-190796333D01*
X81455380Y-190554428D01*
X81515857Y-190433476D01*
X81576333Y-190373000D01*
X81697285Y-190312523D01*
G04 #@! TO.C,SWD1*
X59647666Y-152914047D02*
X59829095Y-152974523D01*
X60131476Y-152974523D01*
X60252428Y-152914047D01*
X60312904Y-152853571D01*
X60373380Y-152732619D01*
X60373380Y-152611666D01*
X60312904Y-152490714D01*
X60252428Y-152430238D01*
X60131476Y-152369761D01*
X59889571Y-152309285D01*
X59768619Y-152248809D01*
X59708142Y-152188333D01*
X59647666Y-152067380D01*
X59647666Y-151946428D01*
X59708142Y-151825476D01*
X59768619Y-151765000D01*
X59889571Y-151704523D01*
X60191952Y-151704523D01*
X60373380Y-151765000D01*
X60796714Y-151704523D02*
X61099095Y-152974523D01*
X61341000Y-152067380D01*
X61582904Y-152974523D01*
X61885285Y-151704523D01*
X62369095Y-152974523D02*
X62369095Y-151704523D01*
X62671476Y-151704523D01*
X62852904Y-151765000D01*
X62973857Y-151885952D01*
X63034333Y-152006904D01*
X63094809Y-152248809D01*
X63094809Y-152430238D01*
X63034333Y-152672142D01*
X62973857Y-152793095D01*
X62852904Y-152914047D01*
X62671476Y-152974523D01*
X62369095Y-152974523D01*
X64304333Y-152974523D02*
X63578619Y-152974523D01*
X63941476Y-152974523D02*
X63941476Y-151704523D01*
X63820523Y-151885952D01*
X63699571Y-152006904D01*
X63578619Y-152067380D01*
G04 #@! TO.C,RTEMP1*
X124623285Y-187010523D02*
X124199952Y-186405761D01*
X123897571Y-187010523D02*
X123897571Y-185740523D01*
X124381380Y-185740523D01*
X124502333Y-185801000D01*
X124562809Y-185861476D01*
X124623285Y-185982428D01*
X124623285Y-186163857D01*
X124562809Y-186284809D01*
X124502333Y-186345285D01*
X124381380Y-186405761D01*
X123897571Y-186405761D01*
X124986142Y-185740523D02*
X125711857Y-185740523D01*
X125349000Y-187010523D02*
X125349000Y-185740523D01*
X126135190Y-186345285D02*
X126558523Y-186345285D01*
X126739952Y-187010523D02*
X126135190Y-187010523D01*
X126135190Y-185740523D01*
X126739952Y-185740523D01*
X127284238Y-187010523D02*
X127284238Y-185740523D01*
X127707571Y-186647666D01*
X128130904Y-185740523D01*
X128130904Y-187010523D01*
X128735666Y-187010523D02*
X128735666Y-185740523D01*
X129219476Y-185740523D01*
X129340428Y-185801000D01*
X129400904Y-185861476D01*
X129461380Y-185982428D01*
X129461380Y-186163857D01*
X129400904Y-186284809D01*
X129340428Y-186345285D01*
X129219476Y-186405761D01*
X128735666Y-186405761D01*
X130670904Y-187010523D02*
X129945190Y-187010523D01*
X130308047Y-187010523D02*
X130308047Y-185740523D01*
X130187095Y-185921952D01*
X130066142Y-186042904D01*
X129945190Y-186103380D01*
G04 #@! TO.C,R15*
X98243571Y-190820523D02*
X97820238Y-190215761D01*
X97517857Y-190820523D02*
X97517857Y-189550523D01*
X98001666Y-189550523D01*
X98122619Y-189611000D01*
X98183095Y-189671476D01*
X98243571Y-189792428D01*
X98243571Y-189973857D01*
X98183095Y-190094809D01*
X98122619Y-190155285D01*
X98001666Y-190215761D01*
X97517857Y-190215761D01*
X99453095Y-190820523D02*
X98727380Y-190820523D01*
X99090238Y-190820523D02*
X99090238Y-189550523D01*
X98969285Y-189731952D01*
X98848333Y-189852904D01*
X98727380Y-189913380D01*
X100602142Y-189550523D02*
X99997380Y-189550523D01*
X99936904Y-190155285D01*
X99997380Y-190094809D01*
X100118333Y-190034333D01*
X100420714Y-190034333D01*
X100541666Y-190094809D01*
X100602142Y-190155285D01*
X100662619Y-190276238D01*
X100662619Y-190578619D01*
X100602142Y-190699571D01*
X100541666Y-190760047D01*
X100420714Y-190820523D01*
X100118333Y-190820523D01*
X99997380Y-190760047D01*
X99936904Y-190699571D01*
G04 #@! TO.C,R14*
D15*
X80971571Y-187010523D02*
X80548238Y-186405761D01*
X80245857Y-187010523D02*
X80245857Y-185740523D01*
X80729666Y-185740523D01*
X80850619Y-185801000D01*
X80911095Y-185861476D01*
X80971571Y-185982428D01*
X80971571Y-186163857D01*
X80911095Y-186284809D01*
X80850619Y-186345285D01*
X80729666Y-186405761D01*
X80245857Y-186405761D01*
X82181095Y-187010523D02*
X81455380Y-187010523D01*
X81818238Y-187010523D02*
X81818238Y-185740523D01*
X81697285Y-185921952D01*
X81576333Y-186042904D01*
X81455380Y-186103380D01*
X83269666Y-186163857D02*
X83269666Y-187010523D01*
X82967285Y-185680047D02*
X82664904Y-186587190D01*
X83451095Y-186587190D01*
G04 #@! TO.C,R13*
D12*
X80463571Y-190058523D02*
X80040238Y-189453761D01*
X79737857Y-190058523D02*
X79737857Y-188788523D01*
X80221666Y-188788523D01*
X80342619Y-188849000D01*
X80403095Y-188909476D01*
X80463571Y-189030428D01*
X80463571Y-189211857D01*
X80403095Y-189332809D01*
X80342619Y-189393285D01*
X80221666Y-189453761D01*
X79737857Y-189453761D01*
X81673095Y-190058523D02*
X80947380Y-190058523D01*
X81310238Y-190058523D02*
X81310238Y-188788523D01*
X81189285Y-188969952D01*
X81068333Y-189090904D01*
X80947380Y-189151380D01*
X82096428Y-188788523D02*
X82882619Y-188788523D01*
X82459285Y-189272333D01*
X82640714Y-189272333D01*
X82761666Y-189332809D01*
X82822142Y-189393285D01*
X82882619Y-189514238D01*
X82882619Y-189816619D01*
X82822142Y-189937571D01*
X82761666Y-189998047D01*
X82640714Y-190058523D01*
X82277857Y-190058523D01*
X82156904Y-189998047D01*
X82096428Y-189937571D01*
G04 #@! TO.C,R12*
X83765571Y-193868523D02*
X83342238Y-193263761D01*
X83039857Y-193868523D02*
X83039857Y-192598523D01*
X83523666Y-192598523D01*
X83644619Y-192659000D01*
X83705095Y-192719476D01*
X83765571Y-192840428D01*
X83765571Y-193021857D01*
X83705095Y-193142809D01*
X83644619Y-193203285D01*
X83523666Y-193263761D01*
X83039857Y-193263761D01*
X84975095Y-193868523D02*
X84249380Y-193868523D01*
X84612238Y-193868523D02*
X84612238Y-192598523D01*
X84491285Y-192779952D01*
X84370333Y-192900904D01*
X84249380Y-192961380D01*
X85458904Y-192719476D02*
X85519380Y-192659000D01*
X85640333Y-192598523D01*
X85942714Y-192598523D01*
X86063666Y-192659000D01*
X86124142Y-192719476D01*
X86184619Y-192840428D01*
X86184619Y-192961380D01*
X86124142Y-193142809D01*
X85398428Y-193868523D01*
X86184619Y-193868523D01*
G04 #@! TO.C,R7*
X151769333Y-184724523D02*
X151346000Y-184119761D01*
X151043619Y-184724523D02*
X151043619Y-183454523D01*
X151527428Y-183454523D01*
X151648380Y-183515000D01*
X151708857Y-183575476D01*
X151769333Y-183696428D01*
X151769333Y-183877857D01*
X151708857Y-183998809D01*
X151648380Y-184059285D01*
X151527428Y-184119761D01*
X151043619Y-184119761D01*
X152192666Y-183454523D02*
X153039333Y-183454523D01*
X152495047Y-184724523D01*
G04 #@! TO.C,R5*
X152188333Y-164404523D02*
X151765000Y-163799761D01*
X151462619Y-164404523D02*
X151462619Y-163134523D01*
X151946428Y-163134523D01*
X152067380Y-163195000D01*
X152127857Y-163255476D01*
X152188333Y-163376428D01*
X152188333Y-163557857D01*
X152127857Y-163678809D01*
X152067380Y-163739285D01*
X151946428Y-163799761D01*
X151462619Y-163799761D01*
X153337380Y-163134523D02*
X152732619Y-163134523D01*
X152672142Y-163739285D01*
X152732619Y-163678809D01*
X152853571Y-163618333D01*
X153155952Y-163618333D01*
X153276904Y-163678809D01*
X153337380Y-163739285D01*
X153397857Y-163860238D01*
X153397857Y-164162619D01*
X153337380Y-164283571D01*
X153276904Y-164344047D01*
X153155952Y-164404523D01*
X152853571Y-164404523D01*
X152732619Y-164344047D01*
X152672142Y-164283571D01*
G04 #@! TO.C,R3*
X151210333Y-144084523D02*
X150787000Y-143479761D01*
X150484619Y-144084523D02*
X150484619Y-142814523D01*
X150968428Y-142814523D01*
X151089380Y-142875000D01*
X151149857Y-142935476D01*
X151210333Y-143056428D01*
X151210333Y-143237857D01*
X151149857Y-143358809D01*
X151089380Y-143419285D01*
X150968428Y-143479761D01*
X150484619Y-143479761D01*
X151633666Y-142814523D02*
X152419857Y-142814523D01*
X151996523Y-143298333D01*
X152177952Y-143298333D01*
X152298904Y-143358809D01*
X152359380Y-143419285D01*
X152419857Y-143540238D01*
X152419857Y-143842619D01*
X152359380Y-143963571D01*
X152298904Y-144024047D01*
X152177952Y-144084523D01*
X151815095Y-144084523D01*
X151694142Y-144024047D01*
X151633666Y-143963571D01*
G04 #@! TO.C,R2*
X64252523Y-187409666D02*
X63647761Y-187833000D01*
X64252523Y-188135380D02*
X62982523Y-188135380D01*
X62982523Y-187651571D01*
X63043000Y-187530619D01*
X63103476Y-187470142D01*
X63224428Y-187409666D01*
X63405857Y-187409666D01*
X63526809Y-187470142D01*
X63587285Y-187530619D01*
X63647761Y-187651571D01*
X63647761Y-188135380D01*
X63103476Y-186925857D02*
X63043000Y-186865380D01*
X62982523Y-186744428D01*
X62982523Y-186442047D01*
X63043000Y-186321095D01*
X63103476Y-186260619D01*
X63224428Y-186200142D01*
X63345380Y-186200142D01*
X63526809Y-186260619D01*
X64252523Y-186986333D01*
X64252523Y-186200142D01*
G04 #@! TO.C,R1*
X64328523Y-181567666D02*
X63723761Y-181991000D01*
X64328523Y-182293380D02*
X63058523Y-182293380D01*
X63058523Y-181809571D01*
X63119000Y-181688619D01*
X63179476Y-181628142D01*
X63300428Y-181567666D01*
X63481857Y-181567666D01*
X63602809Y-181628142D01*
X63663285Y-181688619D01*
X63723761Y-181809571D01*
X63723761Y-182293380D01*
X64328523Y-180358142D02*
X64328523Y-181083857D01*
X64328523Y-180721000D02*
X63058523Y-180721000D01*
X63239952Y-180841952D01*
X63360904Y-180962904D01*
X63421380Y-181083857D01*
G04 #@! TO.C,P4*
D14*
X113228380Y-101068095D02*
X112228380Y-101068095D01*
X112228380Y-100687142D01*
X112276000Y-100591904D01*
X112323619Y-100544285D01*
X112418857Y-100496666D01*
X112561714Y-100496666D01*
X112656952Y-100544285D01*
X112704571Y-100591904D01*
X112752190Y-100687142D01*
X112752190Y-101068095D01*
X112561714Y-99639523D02*
X113228380Y-99639523D01*
X112180761Y-99877619D02*
X112895047Y-100115714D01*
X112895047Y-99496666D01*
G04 #@! TO.C,P3*
X151915904Y-193746380D02*
X151915904Y-192746380D01*
X152296857Y-192746380D01*
X152392095Y-192794000D01*
X152439714Y-192841619D01*
X152487333Y-192936857D01*
X152487333Y-193079714D01*
X152439714Y-193174952D01*
X152392095Y-193222571D01*
X152296857Y-193270190D01*
X151915904Y-193270190D01*
X152820666Y-192746380D02*
X153439714Y-192746380D01*
X153106380Y-193127333D01*
X153249238Y-193127333D01*
X153344476Y-193174952D01*
X153392095Y-193222571D01*
X153439714Y-193317809D01*
X153439714Y-193555904D01*
X153392095Y-193651142D01*
X153344476Y-193698761D01*
X153249238Y-193746380D01*
X152963523Y-193746380D01*
X152868285Y-193698761D01*
X152820666Y-193651142D01*
G04 #@! TO.C,P2*
X149042380Y-169902095D02*
X148042380Y-169902095D01*
X148042380Y-169521142D01*
X148090000Y-169425904D01*
X148137619Y-169378285D01*
X148232857Y-169330666D01*
X148375714Y-169330666D01*
X148470952Y-169378285D01*
X148518571Y-169425904D01*
X148566190Y-169521142D01*
X148566190Y-169902095D01*
X148137619Y-168949714D02*
X148090000Y-168902095D01*
X148042380Y-168806857D01*
X148042380Y-168568761D01*
X148090000Y-168473523D01*
X148137619Y-168425904D01*
X148232857Y-168378285D01*
X148328095Y-168378285D01*
X148470952Y-168425904D01*
X149042380Y-168997333D01*
X149042380Y-168378285D01*
G04 #@! TO.C,DSC1*
D12*
X68392523Y-173119142D02*
X67122523Y-173119142D01*
X67122523Y-172816761D01*
X67183000Y-172635333D01*
X67303952Y-172514380D01*
X67424904Y-172453904D01*
X67666809Y-172393428D01*
X67848238Y-172393428D01*
X68090142Y-172453904D01*
X68211095Y-172514380D01*
X68332047Y-172635333D01*
X68392523Y-172816761D01*
X68392523Y-173119142D01*
X68332047Y-171909619D02*
X68392523Y-171728190D01*
X68392523Y-171425809D01*
X68332047Y-171304857D01*
X68271571Y-171244380D01*
X68150619Y-171183904D01*
X68029666Y-171183904D01*
X67908714Y-171244380D01*
X67848238Y-171304857D01*
X67787761Y-171425809D01*
X67727285Y-171667714D01*
X67666809Y-171788666D01*
X67606333Y-171849142D01*
X67485380Y-171909619D01*
X67364428Y-171909619D01*
X67243476Y-171849142D01*
X67183000Y-171788666D01*
X67122523Y-171667714D01*
X67122523Y-171365333D01*
X67183000Y-171183904D01*
X68271571Y-169913904D02*
X68332047Y-169974380D01*
X68392523Y-170155809D01*
X68392523Y-170276761D01*
X68332047Y-170458190D01*
X68211095Y-170579142D01*
X68090142Y-170639619D01*
X67848238Y-170700095D01*
X67666809Y-170700095D01*
X67424904Y-170639619D01*
X67303952Y-170579142D01*
X67183000Y-170458190D01*
X67122523Y-170276761D01*
X67122523Y-170155809D01*
X67183000Y-169974380D01*
X67243476Y-169913904D01*
X68392523Y-168704380D02*
X68392523Y-169430095D01*
X68392523Y-169067238D02*
X67122523Y-169067238D01*
X67303952Y-169188190D01*
X67424904Y-169309142D01*
X67485380Y-169430095D01*
G04 #@! TO.C,DRV1*
X105833333Y-177358523D02*
X105833333Y-176088523D01*
X106135714Y-176088523D01*
X106317142Y-176149000D01*
X106438095Y-176269952D01*
X106498571Y-176390904D01*
X106559047Y-176632809D01*
X106559047Y-176814238D01*
X106498571Y-177056142D01*
X106438095Y-177177095D01*
X106317142Y-177298047D01*
X106135714Y-177358523D01*
X105833333Y-177358523D01*
X107829047Y-177358523D02*
X107405714Y-176753761D01*
X107103333Y-177358523D02*
X107103333Y-176088523D01*
X107587142Y-176088523D01*
X107708095Y-176149000D01*
X107768571Y-176209476D01*
X107829047Y-176330428D01*
X107829047Y-176511857D01*
X107768571Y-176632809D01*
X107708095Y-176693285D01*
X107587142Y-176753761D01*
X107103333Y-176753761D01*
X108191904Y-176088523D02*
X108615238Y-177358523D01*
X109038571Y-176088523D01*
X110127142Y-177358523D02*
X109401428Y-177358523D01*
X109764285Y-177358523D02*
X109764285Y-176088523D01*
X109643333Y-176269952D01*
X109522380Y-176390904D01*
X109401428Y-176451380D01*
G04 #@! TO.C,D3*
X66868523Y-188643380D02*
X65598523Y-188643380D01*
X65598523Y-188341000D01*
X65659000Y-188159571D01*
X65779952Y-188038619D01*
X65900904Y-187978142D01*
X66142809Y-187917666D01*
X66324238Y-187917666D01*
X66566142Y-187978142D01*
X66687095Y-188038619D01*
X66808047Y-188159571D01*
X66868523Y-188341000D01*
X66868523Y-188643380D01*
X65598523Y-187494333D02*
X65598523Y-186708142D01*
X66082333Y-187131476D01*
X66082333Y-186950047D01*
X66142809Y-186829095D01*
X66203285Y-186768619D01*
X66324238Y-186708142D01*
X66626619Y-186708142D01*
X66747571Y-186768619D01*
X66808047Y-186829095D01*
X66868523Y-186950047D01*
X66868523Y-187312904D01*
X66808047Y-187433857D01*
X66747571Y-187494333D01*
G04 #@! TO.C,D2*
X66868523Y-182293380D02*
X65598523Y-182293380D01*
X65598523Y-181991000D01*
X65659000Y-181809571D01*
X65779952Y-181688619D01*
X65900904Y-181628142D01*
X66142809Y-181567666D01*
X66324238Y-181567666D01*
X66566142Y-181628142D01*
X66687095Y-181688619D01*
X66808047Y-181809571D01*
X66868523Y-181991000D01*
X66868523Y-182293380D01*
X65719476Y-181083857D02*
X65659000Y-181023380D01*
X65598523Y-180902428D01*
X65598523Y-180600047D01*
X65659000Y-180479095D01*
X65719476Y-180418619D01*
X65840428Y-180358142D01*
X65961380Y-180358142D01*
X66142809Y-180418619D01*
X66868523Y-181144333D01*
X66868523Y-180358142D01*
G04 #@! TO.C,C37*
X76399571Y-160836428D02*
X76460047Y-160896904D01*
X76520523Y-161078333D01*
X76520523Y-161199285D01*
X76460047Y-161380714D01*
X76339095Y-161501666D01*
X76218142Y-161562142D01*
X75976238Y-161622619D01*
X75794809Y-161622619D01*
X75552904Y-161562142D01*
X75431952Y-161501666D01*
X75311000Y-161380714D01*
X75250523Y-161199285D01*
X75250523Y-161078333D01*
X75311000Y-160896904D01*
X75371476Y-160836428D01*
X75250523Y-160413095D02*
X75250523Y-159626904D01*
X75734333Y-160050238D01*
X75734333Y-159868809D01*
X75794809Y-159747857D01*
X75855285Y-159687380D01*
X75976238Y-159626904D01*
X76278619Y-159626904D01*
X76399571Y-159687380D01*
X76460047Y-159747857D01*
X76520523Y-159868809D01*
X76520523Y-160231666D01*
X76460047Y-160352619D01*
X76399571Y-160413095D01*
X75250523Y-159203571D02*
X75250523Y-158356904D01*
X76520523Y-158901190D01*
G04 #@! TO.C,C16*
X98434071Y-184857571D02*
X98373595Y-184918047D01*
X98192166Y-184978523D01*
X98071214Y-184978523D01*
X97889785Y-184918047D01*
X97768833Y-184797095D01*
X97708357Y-184676142D01*
X97647880Y-184434238D01*
X97647880Y-184252809D01*
X97708357Y-184010904D01*
X97768833Y-183889952D01*
X97889785Y-183769000D01*
X98071214Y-183708523D01*
X98192166Y-183708523D01*
X98373595Y-183769000D01*
X98434071Y-183829476D01*
X99643595Y-184978523D02*
X98917880Y-184978523D01*
X99280738Y-184978523D02*
X99280738Y-183708523D01*
X99159785Y-183889952D01*
X99038833Y-184010904D01*
X98917880Y-184071380D01*
X100732166Y-183708523D02*
X100490261Y-183708523D01*
X100369309Y-183769000D01*
X100308833Y-183829476D01*
X100187880Y-184010904D01*
X100127404Y-184252809D01*
X100127404Y-184736619D01*
X100187880Y-184857571D01*
X100248357Y-184918047D01*
X100369309Y-184978523D01*
X100611214Y-184978523D01*
X100732166Y-184918047D01*
X100792642Y-184857571D01*
X100853119Y-184736619D01*
X100853119Y-184434238D01*
X100792642Y-184313285D01*
X100732166Y-184252809D01*
X100611214Y-184192333D01*
X100369309Y-184192333D01*
X100248357Y-184252809D01*
X100187880Y-184313285D01*
X100127404Y-184434238D01*
G04 #@! TO.C,BUSCNT1*
X77457904Y-149769285D02*
X77639333Y-149829761D01*
X77699809Y-149890238D01*
X77760285Y-150011190D01*
X77760285Y-150192619D01*
X77699809Y-150313571D01*
X77639333Y-150374047D01*
X77518380Y-150434523D01*
X77034571Y-150434523D01*
X77034571Y-149164523D01*
X77457904Y-149164523D01*
X77578857Y-149225000D01*
X77639333Y-149285476D01*
X77699809Y-149406428D01*
X77699809Y-149527380D01*
X77639333Y-149648333D01*
X77578857Y-149708809D01*
X77457904Y-149769285D01*
X77034571Y-149769285D01*
X78304571Y-149164523D02*
X78304571Y-150192619D01*
X78365047Y-150313571D01*
X78425523Y-150374047D01*
X78546476Y-150434523D01*
X78788380Y-150434523D01*
X78909333Y-150374047D01*
X78969809Y-150313571D01*
X79030285Y-150192619D01*
X79030285Y-149164523D01*
X79574571Y-150374047D02*
X79756000Y-150434523D01*
X80058380Y-150434523D01*
X80179333Y-150374047D01*
X80239809Y-150313571D01*
X80300285Y-150192619D01*
X80300285Y-150071666D01*
X80239809Y-149950714D01*
X80179333Y-149890238D01*
X80058380Y-149829761D01*
X79816476Y-149769285D01*
X79695523Y-149708809D01*
X79635047Y-149648333D01*
X79574571Y-149527380D01*
X79574571Y-149406428D01*
X79635047Y-149285476D01*
X79695523Y-149225000D01*
X79816476Y-149164523D01*
X80118857Y-149164523D01*
X80300285Y-149225000D01*
X81570285Y-150313571D02*
X81509809Y-150374047D01*
X81328380Y-150434523D01*
X81207428Y-150434523D01*
X81026000Y-150374047D01*
X80905047Y-150253095D01*
X80844571Y-150132142D01*
X80784095Y-149890238D01*
X80784095Y-149708809D01*
X80844571Y-149466904D01*
X80905047Y-149345952D01*
X81026000Y-149225000D01*
X81207428Y-149164523D01*
X81328380Y-149164523D01*
X81509809Y-149225000D01*
X81570285Y-149285476D01*
X82114571Y-150434523D02*
X82114571Y-149164523D01*
X82840285Y-150434523D01*
X82840285Y-149164523D01*
X83263619Y-149164523D02*
X83989333Y-149164523D01*
X83626476Y-150434523D02*
X83626476Y-149164523D01*
X85077904Y-150434523D02*
X84352190Y-150434523D01*
X84715047Y-150434523D02*
X84715047Y-149164523D01*
X84594095Y-149345952D01*
X84473142Y-149466904D01*
X84352190Y-149527380D01*
G04 #@! TO.C,REF\002A\002A*
D14*
X61591666Y-126952380D02*
X61258333Y-126476190D01*
X61020238Y-126952380D02*
X61020238Y-125952380D01*
X61401190Y-125952380D01*
X61496428Y-126000000D01*
X61544047Y-126047619D01*
X61591666Y-126142857D01*
X61591666Y-126285714D01*
X61544047Y-126380952D01*
X61496428Y-126428571D01*
X61401190Y-126476190D01*
X61020238Y-126476190D01*
X62020238Y-126428571D02*
X62353571Y-126428571D01*
X62496428Y-126952380D02*
X62020238Y-126952380D01*
X62020238Y-125952380D01*
X62496428Y-125952380D01*
X63258333Y-126428571D02*
X62925000Y-126428571D01*
X62925000Y-126952380D02*
X62925000Y-125952380D01*
X63401190Y-125952380D01*
X63925000Y-125952380D02*
X63925000Y-126190476D01*
X63686904Y-126095238D02*
X63925000Y-126190476D01*
X64163095Y-126095238D01*
X63782142Y-126380952D02*
X63925000Y-126190476D01*
X64067857Y-126380952D01*
X64686904Y-125952380D02*
X64686904Y-126190476D01*
X64448809Y-126095238D02*
X64686904Y-126190476D01*
X64925000Y-126095238D01*
X64544047Y-126380952D02*
X64686904Y-126190476D01*
X64829761Y-126380952D01*
G04 #@! TD*
M02*
