G04 #@! TF.GenerationSoftware,KiCad,Pcbnew,5.0.2+dfsg1-1*
G04 #@! TF.CreationDate,2019-09-30T17:17:48-04:00*
G04 #@! TF.ProjectId,DSC_motor_controller,4453435f-6d6f-4746-9f72-5f636f6e7472,rev?*
G04 #@! TF.SameCoordinates,Original*
G04 #@! TF.FileFunction,Copper,L4,Bot*
G04 #@! TF.FilePolarity,Positive*
%FSLAX46Y46*%
G04 Gerber Fmt 4.6, Leading zero omitted, Abs format (unit mm)*
G04 Created by KiCad (PCBNEW 5.0.2+dfsg1-1) date Mon 30 Sep 2019 05:17:48 PM EDT*
%MOMM*%
%LPD*%
G01*
G04 APERTURE LIST*
G04 #@! TA.AperFunction,SMDPad,CuDef*
%ADD10R,1.820000X0.620000*%
G04 #@! TD*
G04 #@! TA.AperFunction,SMDPad,CuDef*
%ADD11R,1.470000X1.100000*%
G04 #@! TD*
G04 #@! TA.AperFunction,SMDPad,CuDef*
%ADD12R,7.900000X10.750000*%
G04 #@! TD*
G04 #@! TA.AperFunction,SMDPad,CuDef*
%ADD13R,3.800000X1.050000*%
G04 #@! TD*
G04 #@! TA.AperFunction,SMDPad,CuDef*
%ADD14R,2.440000X0.890000*%
G04 #@! TD*
G04 #@! TA.AperFunction,SMDPad,CuDef*
%ADD15R,2.440000X5.600000*%
G04 #@! TD*
G04 #@! TA.AperFunction,ComponentPad*
%ADD16C,1.200000*%
G04 #@! TD*
G04 #@! TA.AperFunction,ComponentPad*
%ADD17R,1.200000X1.200000*%
G04 #@! TD*
G04 #@! TA.AperFunction,SMDPad,CuDef*
%ADD18R,0.810000X2.820000*%
G04 #@! TD*
G04 #@! TA.AperFunction,SMDPad,CuDef*
%ADD19R,0.620000X0.600000*%
G04 #@! TD*
G04 #@! TA.AperFunction,SMDPad,CuDef*
%ADD20R,0.940000X0.540000*%
G04 #@! TD*
G04 #@! TA.AperFunction,SMDPad,CuDef*
%ADD21R,0.620000X1.820000*%
G04 #@! TD*
G04 #@! TA.AperFunction,SMDPad,CuDef*
%ADD22R,1.750000X3.200000*%
G04 #@! TD*
G04 #@! TA.AperFunction,SMDPad,CuDef*
%ADD23R,1.750000X0.950000*%
G04 #@! TD*
G04 #@! TA.AperFunction,SMDPad,CuDef*
%ADD24R,1.000000X0.900000*%
G04 #@! TD*
G04 #@! TA.AperFunction,SMDPad,CuDef*
%ADD25R,0.900000X1.000000*%
G04 #@! TD*
G04 #@! TA.AperFunction,SMDPad,CuDef*
%ADD26R,0.450000X1.450000*%
G04 #@! TD*
G04 #@! TA.AperFunction,SMDPad,CuDef*
%ADD27R,1.525000X0.650000*%
G04 #@! TD*
G04 #@! TA.AperFunction,ViaPad*
%ADD28C,0.800000*%
G04 #@! TD*
G04 #@! TA.AperFunction,ViaPad*
%ADD29C,1.524000*%
G04 #@! TD*
G04 #@! TA.AperFunction,ViaPad*
%ADD30C,0.600000*%
G04 #@! TD*
G04 #@! TA.AperFunction,Conductor*
%ADD31C,0.250000*%
G04 #@! TD*
G04 #@! TA.AperFunction,Conductor*
%ADD32C,0.635000*%
G04 #@! TD*
G04 #@! TA.AperFunction,Conductor*
%ADD33C,0.254000*%
G04 #@! TD*
G04 APERTURE END LIST*
D10*
G04 #@! TO.P,C15,2*
G04 #@! TO.N,+3V3*
X133604000Y-186944000D03*
G04 #@! TO.P,C15,1*
G04 #@! TO.N,GND*
X133604000Y-190144000D03*
G04 #@! TD*
D11*
G04 #@! TO.P,C40,2*
G04 #@! TO.N,GND*
X76200000Y-184754000D03*
G04 #@! TO.P,C40,1*
G04 #@! TO.N,+3V3*
X76200000Y-183134000D03*
G04 #@! TD*
G04 #@! TO.P,C39,1*
G04 #@! TO.N,+3V3*
X73660000Y-183134000D03*
G04 #@! TO.P,C39,2*
G04 #@! TO.N,GND*
X73660000Y-184754000D03*
G04 #@! TD*
G04 #@! TO.P,C1,2*
G04 #@! TO.N,GND*
X73660000Y-158750000D03*
G04 #@! TO.P,C1,1*
G04 #@! TO.N,+3V3*
X73660000Y-160370000D03*
G04 #@! TD*
D12*
G04 #@! TO.P,Q4,3*
G04 #@! TO.N,/Motor_Driver/SH_B*
X142367000Y-158242000D03*
D13*
G04 #@! TO.P,Q4,2*
G04 #@! TO.N,GND*
X131617000Y-155702000D03*
G04 #@! TO.P,Q4,1*
G04 #@! TO.N,Net-(Q4-Pad1)*
X131617000Y-160782000D03*
G04 #@! TD*
D14*
G04 #@! TO.P,R11,4*
G04 #@! TO.N,Net-(CS3-Pad8)*
X139827000Y-185349000D03*
D15*
G04 #@! TO.P,R11,3*
G04 #@! TO.N,Net-(CS3-Pad1)*
X139827000Y-189484000D03*
D14*
G04 #@! TO.P,R11,2*
G04 #@! TO.N,/Motor_Driver/SH_C*
X144787000Y-185349000D03*
D15*
G04 #@! TO.P,R11,1*
G04 #@! TO.N,Net-(P3-Pad1)*
X144787000Y-189484000D03*
G04 #@! TD*
D12*
G04 #@! TO.P,Q6,3*
G04 #@! TO.N,/Motor_Driver/SH_C*
X142233000Y-178435000D03*
D13*
G04 #@! TO.P,Q6,2*
G04 #@! TO.N,GND*
X131483000Y-175895000D03*
G04 #@! TO.P,Q6,1*
G04 #@! TO.N,Net-(Q6-Pad1)*
X131483000Y-180975000D03*
G04 #@! TD*
D12*
G04 #@! TO.P,Q2,3*
G04 #@! TO.N,/Motor_Driver/SH_A*
X142367000Y-137668000D03*
D13*
G04 #@! TO.P,Q2,2*
G04 #@! TO.N,GND*
X131617000Y-135128000D03*
G04 #@! TO.P,Q2,1*
G04 #@! TO.N,Net-(Q2-Pad1)*
X131617000Y-140208000D03*
G04 #@! TD*
D16*
G04 #@! TO.P,C17,2*
G04 #@! TO.N,GND*
X130302000Y-109394000D03*
D17*
G04 #@! TO.P,C17,1*
G04 #@! TO.N,SUPPLY*
X130302000Y-104394000D03*
G04 #@! TD*
D16*
G04 #@! TO.P,C18,2*
G04 #@! TO.N,GND*
X130302000Y-117936000D03*
D17*
G04 #@! TO.P,C18,1*
G04 #@! TO.N,SUPPLY*
X130302000Y-122936000D03*
G04 #@! TD*
D14*
G04 #@! TO.P,R10,4*
G04 #@! TO.N,Net-(CS2-Pad8)*
X140014000Y-165030000D03*
D15*
G04 #@! TO.P,R10,3*
G04 #@! TO.N,Net-(CS2-Pad1)*
X140014000Y-169165000D03*
D14*
G04 #@! TO.P,R10,2*
G04 #@! TO.N,/Motor_Driver/SH_B*
X144974000Y-165030000D03*
D15*
G04 #@! TO.P,R10,1*
G04 #@! TO.N,Net-(P2-Pad1)*
X144974000Y-169165000D03*
G04 #@! TD*
D14*
G04 #@! TO.P,R9,4*
G04 #@! TO.N,Net-(CS1-Pad8)*
X140074000Y-144201000D03*
D15*
G04 #@! TO.P,R9,3*
G04 #@! TO.N,Net-(CS1-Pad1)*
X140074000Y-148336000D03*
D14*
G04 #@! TO.P,R9,2*
G04 #@! TO.N,/Motor_Driver/SH_A*
X145034000Y-144201000D03*
D15*
G04 #@! TO.P,R9,1*
G04 #@! TO.N,Net-(P1-Pad1)*
X145034000Y-148336000D03*
G04 #@! TD*
D18*
G04 #@! TO.P,C38,1*
G04 #@! TO.N,+3V3*
X73254000Y-177038000D03*
G04 #@! TO.P,C38,2*
G04 #@! TO.N,GND*
X76454000Y-177038000D03*
G04 #@! TD*
D19*
G04 #@! TO.P,C3,2*
G04 #@! TO.N,GND*
X111252000Y-152352000D03*
G04 #@! TO.P,C3,1*
G04 #@! TO.N,+3V3*
X111252000Y-151432000D03*
G04 #@! TD*
G04 #@! TO.P,C2,2*
G04 #@! TO.N,GND*
X110744000Y-149510000D03*
G04 #@! TO.P,C2,1*
G04 #@! TO.N,+5V*
X110744000Y-148590000D03*
G04 #@! TD*
D20*
G04 #@! TO.P,C21,2*
G04 #@! TO.N,Net-(C21-Pad2)*
X99314000Y-168478000D03*
G04 #@! TO.P,C21,1*
G04 #@! TO.N,Net-(C21-Pad1)*
X99314000Y-166878000D03*
G04 #@! TD*
D21*
G04 #@! TO.P,C23,2*
G04 #@! TO.N,GND*
X98222000Y-173863000D03*
G04 #@! TO.P,C23,1*
G04 #@! TO.N,Net-(C23-Pad1)*
X101422000Y-173863000D03*
G04 #@! TD*
G04 #@! TO.P,C24,2*
G04 #@! TO.N,GND*
X97892000Y-165100000D03*
G04 #@! TO.P,C24,1*
G04 #@! TO.N,Net-(C24-Pad1)*
X101092000Y-165100000D03*
G04 #@! TD*
D22*
G04 #@! TO.P,Reg1,4*
G04 #@! TO.N,Net-(Reg1-Pad4)*
X119228000Y-150622000D03*
D23*
G04 #@! TO.P,Reg1,3*
G04 #@! TO.N,+5V*
X112928000Y-148322000D03*
G04 #@! TO.P,Reg1,2*
G04 #@! TO.N,+3V3*
X112928000Y-150622000D03*
G04 #@! TO.P,Reg1,1*
G04 #@! TO.N,GND*
X112928000Y-152922000D03*
G04 #@! TD*
D24*
G04 #@! TO.P,RTERM1,2*
G04 #@! TO.N,/CAN/CAN_HI*
X63500000Y-158750000D03*
G04 #@! TO.P,RTERM1,1*
G04 #@! TO.N,/CAN/CAN_LO*
X63500000Y-160350000D03*
G04 #@! TD*
D25*
G04 #@! TO.P,R8,2*
G04 #@! TO.N,Net-(Q6-Pad1)*
X127927000Y-180975000D03*
G04 #@! TO.P,R8,1*
G04 #@! TO.N,/Motor_Driver/GL_C*
X126327000Y-180975000D03*
G04 #@! TD*
G04 #@! TO.P,R6,2*
G04 #@! TO.N,Net-(Q4-Pad1)*
X128270000Y-160782000D03*
G04 #@! TO.P,R6,1*
G04 #@! TO.N,/Motor_Driver/GL_B*
X126670000Y-160782000D03*
G04 #@! TD*
G04 #@! TO.P,R4,2*
G04 #@! TO.N,Net-(Q2-Pad1)*
X127800000Y-140208000D03*
G04 #@! TO.P,R4,1*
G04 #@! TO.N,/Motor_Driver/GL_A*
X126200000Y-140208000D03*
G04 #@! TD*
D26*
G04 #@! TO.P,CS3,8*
G04 #@! TO.N,Net-(CS3-Pad8)*
X137373000Y-185735000D03*
G04 #@! TO.P,CS3,7*
G04 #@! TO.N,+3V3*
X136723000Y-185735000D03*
G04 #@! TO.P,CS3,6*
X136073000Y-185735000D03*
G04 #@! TO.P,CS3,5*
G04 #@! TO.N,/Power/C_C*
X135423000Y-185735000D03*
G04 #@! TO.P,CS3,4*
G04 #@! TO.N,Net-(CS3-Pad4)*
X135423000Y-190185000D03*
G04 #@! TO.P,CS3,3*
G04 #@! TO.N,GND*
X136073000Y-190185000D03*
G04 #@! TO.P,CS3,2*
X136723000Y-190185000D03*
G04 #@! TO.P,CS3,1*
G04 #@! TO.N,Net-(CS3-Pad1)*
X137373000Y-190185000D03*
G04 #@! TD*
G04 #@! TO.P,CS2,8*
G04 #@! TO.N,Net-(CS2-Pad8)*
X137563500Y-166370000D03*
G04 #@! TO.P,CS2,7*
G04 #@! TO.N,+3V3*
X136913500Y-166370000D03*
G04 #@! TO.P,CS2,6*
X136263500Y-166370000D03*
G04 #@! TO.P,CS2,5*
G04 #@! TO.N,/Power/C_B*
X135613500Y-166370000D03*
G04 #@! TO.P,CS2,4*
G04 #@! TO.N,Net-(CS2-Pad4)*
X135613500Y-170820000D03*
G04 #@! TO.P,CS2,3*
G04 #@! TO.N,GND*
X136263500Y-170820000D03*
G04 #@! TO.P,CS2,2*
X136913500Y-170820000D03*
G04 #@! TO.P,CS2,1*
G04 #@! TO.N,Net-(CS2-Pad1)*
X137563500Y-170820000D03*
G04 #@! TD*
G04 #@! TO.P,CS1,8*
G04 #@! TO.N,Net-(CS1-Pad8)*
X136865000Y-145666500D03*
G04 #@! TO.P,CS1,7*
G04 #@! TO.N,+3V3*
X136215000Y-145666500D03*
G04 #@! TO.P,CS1,6*
X135565000Y-145666500D03*
G04 #@! TO.P,CS1,5*
G04 #@! TO.N,/Power/C_A*
X134915000Y-145666500D03*
G04 #@! TO.P,CS1,4*
G04 #@! TO.N,Net-(CS1-Pad4)*
X134915000Y-150116500D03*
G04 #@! TO.P,CS1,3*
G04 #@! TO.N,GND*
X135565000Y-150116500D03*
G04 #@! TO.P,CS1,2*
X136215000Y-150116500D03*
G04 #@! TO.P,CS1,1*
G04 #@! TO.N,Net-(CS1-Pad1)*
X136865000Y-150116500D03*
G04 #@! TD*
D27*
G04 #@! TO.P,CAN_TR1,8*
G04 #@! TO.N,Net-(CAN_TR1-Pad8)*
X65169500Y-157607000D03*
G04 #@! TO.P,CAN_TR1,7*
G04 #@! TO.N,/CAN/CAN_HI*
X65169500Y-158877000D03*
G04 #@! TO.P,CAN_TR1,6*
G04 #@! TO.N,/CAN/CAN_LO*
X65169500Y-160147000D03*
G04 #@! TO.P,CAN_TR1,5*
G04 #@! TO.N,Net-(CAN_TR1-Pad5)*
X65169500Y-161417000D03*
G04 #@! TO.P,CAN_TR1,4*
G04 #@! TO.N,/CAN/CAN_RX*
X70593500Y-161417000D03*
G04 #@! TO.P,CAN_TR1,3*
G04 #@! TO.N,+3V3*
X70593500Y-160147000D03*
G04 #@! TO.P,CAN_TR1,2*
G04 #@! TO.N,GND*
X70593500Y-158877000D03*
G04 #@! TO.P,CAN_TR1,1*
G04 #@! TO.N,/CAN/CAN_TX*
X70593500Y-157607000D03*
G04 #@! TD*
D10*
G04 #@! TO.P,C36,2*
G04 #@! TO.N,GND*
X88646000Y-165278000D03*
G04 #@! TO.P,C36,1*
G04 #@! TO.N,Net-(C36-Pad1)*
X88646000Y-168478000D03*
G04 #@! TD*
G04 #@! TO.P,C14,2*
G04 #@! TO.N,+3V3*
X133858000Y-167310000D03*
G04 #@! TO.P,C14,1*
G04 #@! TO.N,GND*
X133858000Y-170510000D03*
G04 #@! TD*
G04 #@! TO.P,C13,2*
G04 #@! TO.N,GND*
X133350000Y-149428000D03*
G04 #@! TO.P,C13,1*
G04 #@! TO.N,+3V3*
X133350000Y-146228000D03*
G04 #@! TD*
D28*
G04 #@! TO.N,GND*
X86106000Y-166370000D03*
X72335779Y-159706769D03*
X67310000Y-153162000D03*
X75184000Y-181864000D03*
X67818000Y-177307997D03*
X98044000Y-177292000D03*
X106426000Y-170688000D03*
X106680000Y-169672000D03*
X108458000Y-170688000D03*
X134620000Y-177292000D03*
X86868000Y-148844000D03*
X130556000Y-157226000D03*
X132588000Y-162814000D03*
X135128000Y-148495009D03*
X102616000Y-157480000D03*
X107652327Y-170561000D03*
X118618000Y-162877500D03*
X110998000Y-154141000D03*
X109441429Y-151144431D03*
X102108000Y-145796000D03*
X104648000Y-146304000D03*
X104902000Y-152146000D03*
X96774000Y-164846000D03*
X136324918Y-168910000D03*
X132588000Y-138176000D03*
X132588000Y-133858000D03*
X87884000Y-184658000D03*
X88138000Y-187706000D03*
X87630000Y-190500000D03*
X80010000Y-178054000D03*
X74930000Y-176530000D03*
X87884000Y-186182000D03*
X82016600Y-186653000D03*
X134806815Y-188687185D03*
X131826000Y-171196000D03*
X82217069Y-189447010D03*
X80014653Y-185161347D03*
X73406000Y-186436004D03*
X61468000Y-184658000D03*
X113538000Y-158496016D03*
X96520000Y-187706000D03*
G04 #@! TO.N,+5V*
X113030000Y-145542000D03*
G04 #@! TO.N,/CAN/CAN_LO*
X82550000Y-148590000D03*
G04 #@! TO.N,/CAN/CAN_HI*
X78994000Y-147320000D03*
G04 #@! TO.N,+3V3*
X72644000Y-181356000D03*
X72457565Y-160699328D03*
X62738000Y-150876000D03*
X67818000Y-178308000D03*
X102362000Y-165608000D03*
X115062000Y-150876000D03*
X88387347Y-177550653D03*
X133604000Y-145034000D03*
X85090000Y-164846000D03*
X136398000Y-167894000D03*
X74422002Y-177800020D03*
X136398000Y-187451990D03*
X82731590Y-183324910D03*
G04 #@! TO.N,Net-(C21-Pad2)*
X101346000Y-168427000D03*
G04 #@! TO.N,Net-(C21-Pad1)*
X101092000Y-167386000D03*
G04 #@! TO.N,Net-(C23-Pad1)*
X105201829Y-172212000D03*
D29*
G04 #@! TO.N,/Motor_Driver/SH_C*
X148717000Y-175006000D03*
X153797000Y-174625000D03*
X150114000Y-179070000D03*
X152019000Y-174498000D03*
X150241000Y-174625000D03*
X155194000Y-175514000D03*
X149987000Y-176657000D03*
X151257000Y-177927000D03*
X148463000Y-182372000D03*
X148463000Y-179197000D03*
X148463000Y-180721000D03*
X148717000Y-177673000D03*
D28*
X114808000Y-171704000D03*
D29*
X152527000Y-178943000D03*
G04 #@! TO.N,/Motor_Driver/SH_B*
X148463000Y-155702000D03*
X156591000Y-158623000D03*
X149860000Y-157226000D03*
X148209000Y-158877000D03*
X156591000Y-160274000D03*
X151384000Y-157861000D03*
X156845000Y-154432000D03*
X148463000Y-154051000D03*
X148209000Y-157353000D03*
X150114000Y-155702000D03*
X149733000Y-158750000D03*
X150114000Y-154051000D03*
D28*
X115147569Y-168185000D03*
D29*
X148209000Y-161417000D03*
X149479000Y-160401000D03*
G04 #@! TO.N,/Motor_Driver/SH_A*
X149606000Y-134239000D03*
X149733000Y-129413000D03*
X151384000Y-129413000D03*
X153035000Y-129413000D03*
X156845000Y-129413000D03*
X149606000Y-131064000D03*
X151384000Y-131064000D03*
X153035000Y-131064000D03*
X156845000Y-131064000D03*
X149606000Y-132715000D03*
X151257000Y-132715000D03*
X152908000Y-132588000D03*
X156845000Y-132588000D03*
X149606000Y-136017000D03*
X149606000Y-137668000D03*
D28*
X120142000Y-157480000D03*
G04 #@! TO.N,Net-(C36-Pad1)*
X86614000Y-167386000D03*
G04 #@! TO.N,/CAN/CAN_TX*
X72647346Y-168160651D03*
G04 #@! TO.N,/CAN/CAN_RX*
X73660000Y-168148000D03*
G04 #@! TO.N,/Power/C_A*
X86614000Y-192024000D03*
G04 #@! TO.N,/Power/C_B*
X86868000Y-188468000D03*
G04 #@! TO.N,/Power/C_C*
X87083900Y-185453020D03*
G04 #@! TO.N,/Motor_Driver/GL_C*
X108966000Y-172427000D03*
D30*
G04 #@! TO.N,/Motor_Driver/GH_C*
X109982000Y-170942000D03*
D28*
X122428000Y-177038000D03*
G04 #@! TO.N,/Motor_Driver/GL_B*
X121666000Y-163534999D03*
G04 #@! TO.N,/Motor_Driver/GH_B*
X110057329Y-168656000D03*
X150622000Y-162306000D03*
G04 #@! TO.N,/Motor_Driver/GL_A*
X110057329Y-166878000D03*
G04 #@! TO.N,/Motor_Driver/GH_A*
X113792000Y-165608000D03*
X149098000Y-141986000D03*
G04 #@! TO.N,/Motor_controller/NRST*
X75184000Y-166116000D03*
X72247652Y-155305652D03*
G04 #@! TO.N,/Motor_Driver/Batt_voltage*
X92202000Y-184658000D03*
X135128002Y-184277000D03*
G04 #@! TO.N,/Motor_Driver/Volt_A*
X156464000Y-136398000D03*
X93218000Y-195834000D03*
X92456000Y-186309000D03*
X82805847Y-182116153D03*
G04 #@! TO.N,/Motor_Driver/Volt_B*
X91597458Y-193968777D03*
X158369000Y-156591000D03*
G04 #@! TO.N,/Motor_Driver/Volt_C*
X89916000Y-191262000D03*
X83058000Y-177038000D03*
X157606992Y-177419000D03*
G04 #@! TO.N,/Motor_controller/SDA*
X82804000Y-167360000D03*
X96774000Y-148336000D03*
G04 #@! TO.N,/Motor_controller/SWDIO*
X68834000Y-151130000D03*
X68072000Y-156464000D03*
D29*
G04 #@! TO.N,Net-(P1-Pad1)*
X154686000Y-150368000D03*
X150749000Y-150368000D03*
X152654000Y-150368000D03*
X156845000Y-150368000D03*
X148717000Y-148463000D03*
X158496000Y-145288000D03*
X156972000Y-148590000D03*
X150368000Y-145161000D03*
X155194000Y-145161000D03*
X156845000Y-145161000D03*
X153543000Y-145161000D03*
X151892000Y-145161000D03*
X156845000Y-146812000D03*
X148717000Y-146812000D03*
X148717000Y-150368000D03*
X148717000Y-145161000D03*
G04 #@! TO.N,Net-(P2-Pad1)*
X156210000Y-167640000D03*
X150749000Y-164338000D03*
X152400000Y-164338000D03*
X154051000Y-164338000D03*
X155702000Y-164338000D03*
X149479000Y-165735000D03*
X151130000Y-165862000D03*
X152781000Y-165862000D03*
X154432000Y-165862000D03*
X156210000Y-165862000D03*
X156210000Y-169418000D03*
X156210000Y-171069000D03*
G04 #@! TO.N,Net-(P3-Pad1)*
X150495000Y-185674000D03*
X147066000Y-191770000D03*
X148717000Y-188722000D03*
X148844000Y-185674000D03*
X155321000Y-189611000D03*
X147193000Y-188722000D03*
X155321000Y-185674000D03*
X153797000Y-185674000D03*
X148590000Y-190246000D03*
X147066000Y-190246000D03*
X147193000Y-187198000D03*
X148717000Y-187198000D03*
X155194000Y-191389000D03*
X155321000Y-187833000D03*
X148590000Y-191770000D03*
X152146000Y-185674000D03*
X147320000Y-185674000D03*
D28*
G04 #@! TO.N,Net-(C24-Pad1)*
X102616000Y-166624000D03*
G04 #@! TD*
D31*
G04 #@! TO.N,GND*
X76385000Y-184754000D02*
X76200000Y-184754000D01*
X73660000Y-184754000D02*
X76200000Y-184754000D01*
X135565000Y-149141500D02*
X135565000Y-150116500D01*
X134311501Y-149066499D02*
X135489999Y-149066499D01*
X135489999Y-149066499D02*
X135565000Y-149141500D01*
X133950000Y-149428000D02*
X134311501Y-149066499D01*
X133350000Y-149428000D02*
X133950000Y-149428000D01*
X135565000Y-150116500D02*
X136215000Y-150116500D01*
X88114000Y-166370000D02*
X86106000Y-166370000D01*
X88646000Y-165838000D02*
X88114000Y-166370000D01*
X88646000Y-165278000D02*
X88646000Y-165838000D01*
X71506010Y-158877000D02*
X70593500Y-158877000D01*
X72335779Y-159706769D02*
X71506010Y-158877000D01*
X73292548Y-158750000D02*
X72335779Y-159706769D01*
X73660000Y-158750000D02*
X73292548Y-158750000D01*
X98044000Y-174041000D02*
X98222000Y-173863000D01*
X98044000Y-177292000D02*
X98044000Y-174041000D01*
X131617000Y-155702000D02*
X131617000Y-156165000D01*
X131617000Y-156165000D02*
X130556000Y-157226000D01*
X135565000Y-150116500D02*
X135565000Y-148932009D01*
X135565000Y-148932009D02*
X135128000Y-148495009D01*
X111252000Y-152352000D02*
X111252000Y-153887000D01*
X111252000Y-153887000D02*
X110998000Y-154141000D01*
X112928000Y-153647000D02*
X112928000Y-152922000D01*
X112434000Y-154141000D02*
X112928000Y-153647000D01*
X110998000Y-154141000D02*
X112434000Y-154141000D01*
X110744000Y-149510000D02*
X110744000Y-149841860D01*
X110744000Y-149841860D02*
X109441429Y-151144431D01*
X133223000Y-175895000D02*
X131483000Y-175895000D01*
X134620000Y-177292000D02*
X133223000Y-175895000D01*
X97638000Y-164846000D02*
X97892000Y-165100000D01*
X96774000Y-164846000D02*
X97638000Y-164846000D01*
X136247871Y-190184871D02*
X136247871Y-190012694D01*
X136723000Y-190185000D02*
X136248000Y-190185000D01*
X136073000Y-190185000D02*
X136075565Y-190185000D01*
X136075565Y-190185000D02*
X136247871Y-190012694D01*
X136248000Y-190185000D02*
X136247871Y-190184871D01*
X136263500Y-170458891D02*
X136263500Y-168910000D01*
X136263500Y-169271109D02*
X136324918Y-169209691D01*
X131617000Y-134353000D02*
X132112000Y-133858000D01*
X132112000Y-133858000D02*
X132588000Y-133858000D01*
X131617000Y-135128000D02*
X131617000Y-134353000D01*
X134806815Y-188687185D02*
X136204869Y-188687185D01*
X136247871Y-190012694D02*
X136204869Y-189969692D01*
X136204869Y-189969692D02*
X136204869Y-188687185D01*
X133604000Y-189890000D02*
X134806815Y-188687185D01*
X76454000Y-177038000D02*
X75438000Y-177038000D01*
X75438000Y-177038000D02*
X74930000Y-176530000D01*
X136913500Y-169498582D02*
X136913500Y-169918500D01*
X136324918Y-168910000D02*
X136913500Y-169498582D01*
X136913500Y-170820000D02*
X136913500Y-169918500D01*
X136913500Y-169918500D02*
X136913500Y-169798273D01*
X134620000Y-168910000D02*
X136324918Y-168910000D01*
X133858000Y-170510000D02*
X133858000Y-169672000D01*
X133858000Y-169672000D02*
X134620000Y-168910000D01*
X73660000Y-186182004D02*
X73406000Y-186436004D01*
X73660000Y-184754000D02*
X73660000Y-186182004D01*
G04 #@! TO.N,+5V*
X112928000Y-148696000D02*
X112928000Y-148322000D01*
X112928000Y-148322000D02*
X112928000Y-146202000D01*
X113030000Y-148220000D02*
X112928000Y-148322000D01*
X113030000Y-145542000D02*
X113030000Y-148220000D01*
X111012000Y-148322000D02*
X110744000Y-148590000D01*
X112928000Y-148322000D02*
X111012000Y-148322000D01*
G04 #@! TO.N,/CAN/CAN_LO*
X63703000Y-160147000D02*
X63500000Y-160350000D01*
X65169500Y-160147000D02*
X63703000Y-160147000D01*
X77937998Y-148590000D02*
X82550000Y-148590000D01*
X63500000Y-160350000D02*
X66177998Y-160350000D01*
X66177998Y-160350000D02*
X77937998Y-148590000D01*
G04 #@! TO.N,/CAN/CAN_HI*
X63627000Y-158877000D02*
X63500000Y-158750000D01*
X65169500Y-158877000D02*
X63627000Y-158877000D01*
X66871315Y-158877000D02*
X65169500Y-158877000D01*
X78428315Y-147320000D02*
X66871315Y-158877000D01*
X78994000Y-147320000D02*
X78428315Y-147320000D01*
G04 #@! TO.N,+3V3*
X72644000Y-182118000D02*
X73660000Y-183134000D01*
X72644000Y-181356000D02*
X72644000Y-182118000D01*
X76200000Y-183134000D02*
X73660000Y-183134000D01*
X135565000Y-145666500D02*
X136215000Y-145666500D01*
X73660000Y-160370000D02*
X72786893Y-160370000D01*
X72786893Y-160370000D02*
X72457565Y-160699328D01*
X71145828Y-160699328D02*
X70593500Y-160147000D01*
X72457565Y-160699328D02*
X71145828Y-160699328D01*
X112118000Y-151432000D02*
X112928000Y-150622000D01*
X111252000Y-151432000D02*
X112118000Y-151432000D01*
X134021501Y-144616499D02*
X133604000Y-145034000D01*
X135489999Y-144616499D02*
X134021501Y-144616499D01*
X135565000Y-145666500D02*
X135565000Y-144691500D01*
X135565000Y-144691500D02*
X135489999Y-144616499D01*
X133604000Y-145974000D02*
X133350000Y-146228000D01*
X133604000Y-145034000D02*
X133604000Y-145974000D01*
X114808000Y-150622000D02*
X115062000Y-150876000D01*
X112928000Y-150622000D02*
X114808000Y-150622000D01*
X135647499Y-167894000D02*
X136398000Y-167894000D01*
X133858000Y-167310000D02*
X135063499Y-167310000D01*
X135063499Y-167310000D02*
X135647499Y-167894000D01*
X136913500Y-167378500D02*
X136398000Y-167894000D01*
X136913500Y-166370000D02*
X136913500Y-167378500D01*
X136263500Y-167759500D02*
X136398000Y-167894000D01*
X136263500Y-166370000D02*
X136263500Y-167759500D01*
X73254000Y-177038000D02*
X73909000Y-177038000D01*
X74422002Y-177551002D02*
X74422002Y-177800020D01*
X73909000Y-177038000D02*
X74422002Y-177551002D01*
X135890010Y-186944000D02*
X136398000Y-187451990D01*
X136073000Y-185735000D02*
X136073000Y-187126990D01*
X136723000Y-187126990D02*
X136398000Y-187451990D01*
X136073000Y-187126990D02*
X136398000Y-187451990D01*
X136723000Y-185735000D02*
X136723000Y-187126990D01*
X133604000Y-186944000D02*
X135890010Y-186944000D01*
G04 #@! TO.N,Net-(C21-Pad2)*
X99314000Y-168478000D02*
X101295000Y-168478000D01*
X101295000Y-168478000D02*
X101346000Y-168427000D01*
G04 #@! TO.N,Net-(C21-Pad1)*
X99314000Y-166878000D02*
X100584000Y-166878000D01*
X100584000Y-166878000D02*
X101092000Y-167386000D01*
G04 #@! TO.N,Net-(C23-Pad1)*
X101422000Y-173863000D02*
X101982000Y-173863000D01*
X101982000Y-173863000D02*
X102109000Y-173736000D01*
X103677829Y-173736000D02*
X105201829Y-172212000D01*
X102109000Y-173736000D02*
X103677829Y-173736000D01*
D32*
G04 #@! TO.N,/Motor_Driver/SH_C*
X121031000Y-178435000D02*
X142233000Y-178435000D01*
X114808000Y-171704000D02*
X121031000Y-178435000D01*
G04 #@! TO.N,/Motor_Driver/SH_B*
X125090569Y-158242000D02*
X142367000Y-158242000D01*
X115147569Y-168185000D02*
X125090569Y-158242000D01*
G04 #@! TO.N,/Motor_Driver/SH_A*
X138167000Y-137668000D02*
X120142000Y-155693000D01*
X142367000Y-137668000D02*
X138167000Y-137668000D01*
X120142000Y-155693000D02*
X120142000Y-157480000D01*
D31*
G04 #@! TO.N,Net-(C36-Pad1)*
X88646000Y-168478000D02*
X87706000Y-168478000D01*
X87706000Y-168478000D02*
X86614000Y-167386000D01*
G04 #@! TO.N,/CAN/CAN_TX*
X69505999Y-158257001D02*
X70156000Y-157607000D01*
X70156000Y-157607000D02*
X70593500Y-157607000D01*
X69505999Y-165019304D02*
X69505999Y-158257001D01*
X72647346Y-168160651D02*
X69505999Y-165019304D01*
G04 #@! TO.N,/CAN/CAN_RX*
X70593500Y-164630502D02*
X70593500Y-161417000D01*
X72549999Y-166587001D02*
X70593500Y-164630502D01*
X72549999Y-166587001D02*
X72549999Y-167037999D01*
X72549999Y-167037999D02*
X73660000Y-168148000D01*
G04 #@! TO.N,Net-(CS1-Pad1)*
X136865000Y-149616500D02*
X136865000Y-150116500D01*
X137637500Y-148844000D02*
X136865000Y-149616500D01*
X139887000Y-148844000D02*
X137637500Y-148844000D01*
G04 #@! TO.N,/Power/C_A*
X134915000Y-146641500D02*
X134915000Y-145666500D01*
X159258000Y-153416000D02*
X157607000Y-151765000D01*
X132114999Y-147642003D02*
X133914497Y-147642003D01*
X158242000Y-195072000D02*
X159258000Y-194056000D01*
X86614000Y-192024000D02*
X89662000Y-195072000D01*
X159258000Y-194056000D02*
X159258000Y-153416000D01*
X133914497Y-147642003D02*
X134915000Y-146641500D01*
X89662000Y-195072000D02*
X158242000Y-195072000D01*
X157607000Y-151765000D02*
X133604000Y-151765000D01*
X133604000Y-151765000D02*
X131699000Y-149860000D01*
X131699000Y-149860000D02*
X131699000Y-148058002D01*
X131699000Y-148058002D02*
X132114999Y-147642003D01*
G04 #@! TO.N,Net-(CS1-Pad8)*
X136865000Y-145166500D02*
X136865000Y-145666500D01*
X137830500Y-144201000D02*
X136865000Y-145166500D01*
X140074000Y-144201000D02*
X137830500Y-144201000D01*
G04 #@! TO.N,Net-(CS2-Pad1)*
X138359000Y-170820000D02*
X140014000Y-169165000D01*
X137563500Y-170820000D02*
X138359000Y-170820000D01*
G04 #@! TO.N,/Power/C_B*
X88195002Y-188468000D02*
X86868000Y-188468000D01*
X97217461Y-193014625D02*
X92741627Y-193014625D01*
X134366000Y-172720000D02*
X137196999Y-172720000D01*
X132622999Y-171288001D02*
X134366000Y-172720000D01*
X132622999Y-166739999D02*
X132622999Y-171288001D01*
X97268210Y-193065374D02*
X97217461Y-193014625D01*
X155970999Y-172734999D02*
X156845000Y-173609000D01*
X92741627Y-193014625D02*
X88195002Y-188468000D01*
X135613500Y-166370000D02*
X132992998Y-166370000D01*
X132992998Y-166370000D02*
X132622999Y-166739999D01*
X155549626Y-193065374D02*
X97268210Y-193065374D01*
X137196999Y-172720000D02*
X138022999Y-172734999D01*
X138022999Y-172734999D02*
X155970999Y-172734999D01*
X156845000Y-173609000D02*
X156845000Y-191770000D01*
X156845000Y-191770000D02*
X155549626Y-193065374D01*
G04 #@! TO.N,Net-(CS2-Pad8)*
X139378500Y-165030000D02*
X140014000Y-165030000D01*
X138038500Y-166370000D02*
X139378500Y-165030000D01*
X137563500Y-166370000D02*
X138038500Y-166370000D01*
G04 #@! TO.N,Net-(CS3-Pad8)*
X139756000Y-185420000D02*
X139827000Y-185349000D01*
X137373000Y-185735000D02*
X137688000Y-185420000D01*
X137688000Y-185420000D02*
X139756000Y-185420000D01*
G04 #@! TO.N,/Power/C_C*
X88228022Y-185453020D02*
X90989002Y-188214000D01*
X87083900Y-185453020D02*
X88228022Y-185453020D01*
X92202000Y-188214000D02*
X92710000Y-188722000D01*
X90989002Y-188214000D02*
X92202000Y-188214000D01*
X92710000Y-188722000D02*
X92456000Y-188468000D01*
X125096409Y-191770000D02*
X95758000Y-191770000D01*
X95758000Y-191770000D02*
X92710000Y-188722000D01*
X131131409Y-185735000D02*
X125096409Y-191770000D01*
X135423000Y-185735000D02*
X131131409Y-185735000D01*
G04 #@! TO.N,Net-(CS3-Pad1)*
X138074000Y-189484000D02*
X137373000Y-190185000D01*
X139827000Y-189484000D02*
X138074000Y-189484000D01*
G04 #@! TO.N,/Motor_Driver/GL_C*
X126327000Y-180975000D02*
X117659940Y-180975000D01*
X117659940Y-180975000D02*
X108961999Y-172277059D01*
G04 #@! TO.N,/Motor_Driver/GH_C*
X109982000Y-170942000D02*
X110236000Y-170942000D01*
X109982000Y-170942000D02*
X116332000Y-170942000D01*
X116332000Y-170942000D02*
X122428000Y-177038000D01*
G04 #@! TO.N,/Motor_Driver/GL_B*
X121666000Y-163534999D02*
X123967001Y-163534999D01*
X123967001Y-163534999D02*
X126670000Y-160832000D01*
X126670000Y-160832000D02*
X126670000Y-160782000D01*
G04 #@! TO.N,/Motor_Driver/GH_B*
X110457328Y-169055999D02*
X117218002Y-169055999D01*
X110057329Y-168656000D02*
X110457328Y-169055999D01*
X117218002Y-169055999D02*
X122190001Y-164084000D01*
X143034003Y-165800001D02*
X146873999Y-165800001D01*
X122190001Y-164084000D02*
X141318002Y-164084000D01*
X141318002Y-164084000D02*
X143034003Y-165800001D01*
X146873999Y-165800001D02*
X150368000Y-162306000D01*
X150368000Y-162306000D02*
X150622000Y-162306000D01*
G04 #@! TO.N,/Motor_Driver/GL_A*
X126200000Y-147415004D02*
X126200000Y-140208000D01*
X113574997Y-159729003D02*
X113886001Y-159729003D01*
X113886001Y-159729003D02*
X126200000Y-147415004D01*
X113574997Y-159729003D02*
X109220000Y-164084000D01*
X109220000Y-164084000D02*
X109220000Y-166116000D01*
X109982000Y-166878000D02*
X110057329Y-166878000D01*
X109220000Y-166116000D02*
X110057329Y-166878000D01*
G04 #@! TO.N,/Motor_Driver/GH_A*
X147701000Y-143383000D02*
X147828000Y-143256000D01*
X147828000Y-143256000D02*
X149098000Y-141986000D01*
X146939000Y-145161000D02*
X147066000Y-145034000D01*
X147066000Y-145034000D02*
X147066000Y-144018000D01*
X143284002Y-145161000D02*
X146939000Y-145161000D01*
X141506002Y-143383000D02*
X143284002Y-145161000D01*
X121167999Y-158232001D02*
X121167999Y-155819001D01*
X147066000Y-144018000D02*
X147828000Y-143256000D01*
X113792000Y-165608000D02*
X121167999Y-158232001D01*
X121167999Y-155819001D02*
X133618999Y-143368001D01*
X134112000Y-143383000D02*
X141506002Y-143383000D01*
X133618999Y-143368001D02*
X134112000Y-143383000D01*
G04 #@! TO.N,/Motor_controller/NRST*
X75184000Y-166116000D02*
X75184000Y-157734000D01*
X75184000Y-157734000D02*
X74676000Y-157734000D01*
X74676000Y-157734000D02*
X72247652Y-155305652D01*
G04 #@! TO.N,/Motor_Driver/Batt_voltage*
X97155000Y-189738000D02*
X123951998Y-189738000D01*
X92202000Y-184658000D02*
X92202000Y-184785000D01*
X92202000Y-184785000D02*
X97155000Y-189738000D01*
X134239002Y-185166000D02*
X135128002Y-184277000D01*
X130429000Y-185166000D02*
X134239002Y-185166000D01*
X123698000Y-189738000D02*
X125857000Y-189738000D01*
X125857000Y-189738000D02*
X130429000Y-185166000D01*
G04 #@! TO.N,/Motor_Driver/Volt_A*
X159004000Y-195834000D02*
X93218000Y-195834000D01*
X160470010Y-194367990D02*
X159004000Y-195834000D01*
X156464000Y-136398000D02*
X160470010Y-140404010D01*
X160470010Y-140404010D02*
X160470010Y-194367990D01*
X82869347Y-182179653D02*
X82805847Y-182116153D01*
X92456000Y-186309000D02*
X88326653Y-182179653D01*
X88326653Y-182179653D02*
X82869347Y-182179653D01*
G04 #@! TO.N,/Motor_Driver/Volt_B*
X158369000Y-193421000D02*
X158369000Y-156591000D01*
X91597458Y-193968777D02*
X91997457Y-194368776D01*
X157421224Y-194368776D02*
X158369000Y-193421000D01*
X91997457Y-194368776D02*
X157421224Y-194368776D01*
G04 #@! TO.N,/Motor_Driver/Volt_C*
X81582675Y-178513325D02*
X83058000Y-177038000D01*
X81582675Y-184255677D02*
X81582675Y-178513325D01*
X86519999Y-189193001D02*
X81582675Y-184255677D01*
X89916000Y-191262000D02*
X87847001Y-189193001D01*
X87847001Y-189193001D02*
X86519999Y-189193001D01*
X157606992Y-192278008D02*
X157606992Y-177419000D01*
X89916000Y-191262000D02*
X92329000Y-193675000D01*
X156210000Y-193675000D02*
X157606992Y-192278008D01*
X92329000Y-193675000D02*
X156210000Y-193675000D01*
G04 #@! TO.N,/Motor_controller/SDA*
X82804000Y-162306000D02*
X96774000Y-148336000D01*
X82804000Y-167360000D02*
X82804000Y-162306000D01*
G04 #@! TO.N,/Motor_controller/SWDIO*
X68834000Y-151130000D02*
X68072000Y-151892000D01*
X68072000Y-151892000D02*
X68072000Y-156464000D01*
G04 #@! TO.N,Net-(Q2-Pad1)*
X131617000Y-140208000D02*
X127800000Y-140208000D01*
G04 #@! TO.N,Net-(Q4-Pad1)*
X128270000Y-160782000D02*
X131617000Y-160782000D01*
G04 #@! TO.N,Net-(Q6-Pad1)*
X128271002Y-180630998D02*
X127927000Y-180975000D01*
X131483000Y-180975000D02*
X131138998Y-180630998D01*
X127927000Y-180975000D02*
X131483000Y-180975000D01*
G04 #@! TO.N,Net-(C24-Pad1)*
X101092000Y-165700000D02*
X101092000Y-165100000D01*
X102016000Y-166624000D02*
X101092000Y-165700000D01*
X102616000Y-166624000D02*
X102016000Y-166624000D01*
G04 #@! TD*
D33*
G04 #@! TO.N,Net-(P3-Pad1)*
G36*
X156093001Y-187932918D02*
X155961834Y-191589677D01*
X155238138Y-192313374D01*
X141674140Y-192313374D01*
X141677033Y-192284000D01*
X141677033Y-188111953D01*
X141764768Y-185666000D01*
X142756000Y-185666000D01*
X142756000Y-186055000D01*
X142803728Y-186294943D01*
X142939644Y-186498356D01*
X143143057Y-186634272D01*
X143383000Y-186682000D01*
X146558000Y-186682000D01*
X146797943Y-186634272D01*
X147001356Y-186498356D01*
X147137272Y-186294943D01*
X147185000Y-186055000D01*
X147185000Y-185412000D01*
X156093001Y-185412000D01*
X156093001Y-187932918D01*
X156093001Y-187932918D01*
G37*
X156093001Y-187932918D02*
X155961834Y-191589677D01*
X155238138Y-192313374D01*
X141674140Y-192313374D01*
X141677033Y-192284000D01*
X141677033Y-188111953D01*
X141764768Y-185666000D01*
X142756000Y-185666000D01*
X142756000Y-186055000D01*
X142803728Y-186294943D01*
X142939644Y-186498356D01*
X143143057Y-186634272D01*
X143383000Y-186682000D01*
X146558000Y-186682000D01*
X146797943Y-186634272D01*
X147001356Y-186498356D01*
X147137272Y-186294943D01*
X147185000Y-186055000D01*
X147185000Y-185412000D01*
X156093001Y-185412000D01*
X156093001Y-187932918D01*
G04 #@! TO.N,Net-(P2-Pad1)*
G36*
X157083285Y-162922997D02*
X157312052Y-172085000D01*
X156350194Y-172085000D01*
X156260169Y-172036881D01*
X156118417Y-171993880D01*
X156007937Y-171982999D01*
X156007934Y-171982999D01*
X155970999Y-171979361D01*
X155934064Y-171982999D01*
X143923059Y-171982999D01*
X143787452Y-166552001D01*
X146837064Y-166552001D01*
X146873999Y-166555639D01*
X146910934Y-166552001D01*
X146910937Y-166552001D01*
X147021417Y-166541120D01*
X147163169Y-166498119D01*
X147293809Y-166428291D01*
X147408316Y-166334318D01*
X147431866Y-166305622D01*
X150423794Y-163313694D01*
X150520849Y-163333000D01*
X150723151Y-163333000D01*
X150921565Y-163293533D01*
X151108467Y-163216115D01*
X151276674Y-163103723D01*
X151419723Y-162960674D01*
X151523073Y-162806000D01*
X156966288Y-162806000D01*
X157083285Y-162922997D01*
X157083285Y-162922997D01*
G37*
X157083285Y-162922997D02*
X157312052Y-172085000D01*
X156350194Y-172085000D01*
X156260169Y-172036881D01*
X156118417Y-171993880D01*
X156007937Y-171982999D01*
X156007934Y-171982999D01*
X155970999Y-171979361D01*
X155934064Y-171982999D01*
X143923059Y-171982999D01*
X143787452Y-166552001D01*
X146837064Y-166552001D01*
X146873999Y-166555639D01*
X146910934Y-166552001D01*
X146910937Y-166552001D01*
X147021417Y-166541120D01*
X147163169Y-166498119D01*
X147293809Y-166428291D01*
X147408316Y-166334318D01*
X147431866Y-166305622D01*
X150423794Y-163313694D01*
X150520849Y-163333000D01*
X150723151Y-163333000D01*
X150921565Y-163293533D01*
X151108467Y-163216115D01*
X151276674Y-163103723D01*
X151419723Y-162960674D01*
X151523073Y-162806000D01*
X156966288Y-162806000D01*
X157083285Y-162922997D01*
G04 #@! TO.N,Net-(P1-Pad1)*
G36*
X159718010Y-152498740D02*
X159394499Y-152489011D01*
X158164867Y-151259379D01*
X158141317Y-151230683D01*
X158026810Y-151136710D01*
X157896170Y-151066882D01*
X157754418Y-151023881D01*
X157643938Y-151013000D01*
X157643935Y-151013000D01*
X157607000Y-151009362D01*
X157570065Y-151013000D01*
X143870388Y-151013000D01*
X143777508Y-145913000D01*
X146902065Y-145913000D01*
X146939000Y-145916638D01*
X146975935Y-145913000D01*
X146975938Y-145913000D01*
X147086418Y-145902119D01*
X147228170Y-145859118D01*
X147358810Y-145789290D01*
X147473317Y-145695317D01*
X147496867Y-145666621D01*
X147571622Y-145591866D01*
X147600317Y-145568317D01*
X147694290Y-145453810D01*
X147764118Y-145323170D01*
X147807119Y-145181418D01*
X147818000Y-145070938D01*
X147818000Y-145070936D01*
X147821638Y-145034001D01*
X147818000Y-144997065D01*
X147818000Y-144391000D01*
X159718010Y-144391000D01*
X159718010Y-152498740D01*
X159718010Y-152498740D01*
G37*
X159718010Y-152498740D02*
X159394499Y-152489011D01*
X158164867Y-151259379D01*
X158141317Y-151230683D01*
X158026810Y-151136710D01*
X157896170Y-151066882D01*
X157754418Y-151023881D01*
X157643938Y-151013000D01*
X157643935Y-151013000D01*
X157607000Y-151009362D01*
X157570065Y-151013000D01*
X143870388Y-151013000D01*
X143777508Y-145913000D01*
X146902065Y-145913000D01*
X146939000Y-145916638D01*
X146975935Y-145913000D01*
X146975938Y-145913000D01*
X147086418Y-145902119D01*
X147228170Y-145859118D01*
X147358810Y-145789290D01*
X147473317Y-145695317D01*
X147496867Y-145666621D01*
X147571622Y-145591866D01*
X147600317Y-145568317D01*
X147694290Y-145453810D01*
X147764118Y-145323170D01*
X147807119Y-145181418D01*
X147818000Y-145070938D01*
X147818000Y-145070936D01*
X147821638Y-145034001D01*
X147818000Y-144997065D01*
X147818000Y-144391000D01*
X159718010Y-144391000D01*
X159718010Y-152498740D01*
G04 #@! TO.N,/Motor_Driver/SH_C*
G36*
X156393000Y-173796225D02*
X156393001Y-184658000D01*
X155713854Y-184658000D01*
X155537616Y-184585000D01*
X155104384Y-184585000D01*
X154928146Y-184658000D01*
X154189854Y-184658000D01*
X154013616Y-184585000D01*
X153580384Y-184585000D01*
X153404146Y-184658000D01*
X152538854Y-184658000D01*
X152362616Y-184585000D01*
X151929384Y-184585000D01*
X151753146Y-184658000D01*
X150887854Y-184658000D01*
X150711616Y-184585000D01*
X150278384Y-184585000D01*
X150102146Y-184658000D01*
X149236854Y-184658000D01*
X149060616Y-184585000D01*
X148627384Y-184585000D01*
X148451146Y-184658000D01*
X147712854Y-184658000D01*
X147536616Y-184585000D01*
X147103384Y-184585000D01*
X146927146Y-184658000D01*
X146558000Y-184658000D01*
X146509399Y-184667667D01*
X146468197Y-184695197D01*
X146440667Y-184736399D01*
X146431000Y-184785000D01*
X146431000Y-185022921D01*
X146396790Y-185057131D01*
X146231000Y-185457384D01*
X146231000Y-185890616D01*
X146246485Y-185928000D01*
X143510000Y-185928000D01*
X143510000Y-185039000D01*
X143500333Y-184990399D01*
X143472803Y-184949197D01*
X143431601Y-184921667D01*
X143383000Y-184912000D01*
X141380406Y-184912000D01*
X141380406Y-184904000D01*
X141355027Y-184776411D01*
X141282754Y-184668246D01*
X141174589Y-184595973D01*
X141047000Y-184570594D01*
X138607000Y-184570594D01*
X138542823Y-184583360D01*
X138186687Y-173186999D01*
X155783775Y-173186999D01*
X156393000Y-173796225D01*
X156393000Y-173796225D01*
G37*
X156393000Y-173796225D02*
X156393001Y-184658000D01*
X155713854Y-184658000D01*
X155537616Y-184585000D01*
X155104384Y-184585000D01*
X154928146Y-184658000D01*
X154189854Y-184658000D01*
X154013616Y-184585000D01*
X153580384Y-184585000D01*
X153404146Y-184658000D01*
X152538854Y-184658000D01*
X152362616Y-184585000D01*
X151929384Y-184585000D01*
X151753146Y-184658000D01*
X150887854Y-184658000D01*
X150711616Y-184585000D01*
X150278384Y-184585000D01*
X150102146Y-184658000D01*
X149236854Y-184658000D01*
X149060616Y-184585000D01*
X148627384Y-184585000D01*
X148451146Y-184658000D01*
X147712854Y-184658000D01*
X147536616Y-184585000D01*
X147103384Y-184585000D01*
X146927146Y-184658000D01*
X146558000Y-184658000D01*
X146509399Y-184667667D01*
X146468197Y-184695197D01*
X146440667Y-184736399D01*
X146431000Y-184785000D01*
X146431000Y-185022921D01*
X146396790Y-185057131D01*
X146231000Y-185457384D01*
X146231000Y-185890616D01*
X146246485Y-185928000D01*
X143510000Y-185928000D01*
X143510000Y-185039000D01*
X143500333Y-184990399D01*
X143472803Y-184949197D01*
X143431601Y-184921667D01*
X143383000Y-184912000D01*
X141380406Y-184912000D01*
X141380406Y-184904000D01*
X141355027Y-184776411D01*
X141282754Y-184668246D01*
X141174589Y-184595973D01*
X141047000Y-184570594D01*
X138607000Y-184570594D01*
X138542823Y-184583360D01*
X138186687Y-173186999D01*
X155783775Y-173186999D01*
X156393000Y-173796225D01*
G04 #@! TO.N,/Motor_Driver/SH_A*
G36*
X161275000Y-143637000D02*
X160922010Y-143637000D01*
X160922010Y-140448528D01*
X160930865Y-140404010D01*
X160895785Y-140227648D01*
X160821101Y-140115876D01*
X160795884Y-140078136D01*
X160758144Y-140052919D01*
X157191000Y-136485776D01*
X157191000Y-136253391D01*
X157080321Y-135986187D01*
X156875813Y-135781679D01*
X156608609Y-135671000D01*
X156319391Y-135671000D01*
X156052187Y-135781679D01*
X155847679Y-135986187D01*
X155737000Y-136253391D01*
X155737000Y-136542609D01*
X155847679Y-136809813D01*
X156052187Y-137014321D01*
X156319391Y-137125000D01*
X156551776Y-137125000D01*
X160018010Y-140591235D01*
X160018010Y-143637000D01*
X148086225Y-143637000D01*
X148179091Y-143544134D01*
X148179093Y-143544131D01*
X149010225Y-142713000D01*
X149242609Y-142713000D01*
X149509813Y-142602321D01*
X149714321Y-142397813D01*
X149825000Y-142130609D01*
X149825000Y-141841391D01*
X149714321Y-141574187D01*
X149509813Y-141369679D01*
X149242609Y-141259000D01*
X148953391Y-141259000D01*
X148686187Y-141369679D01*
X148481679Y-141574187D01*
X148371000Y-141841391D01*
X148371000Y-142073775D01*
X147539869Y-142904907D01*
X147539866Y-142904909D01*
X146806727Y-143638049D01*
X146763399Y-143646667D01*
X146722197Y-143674197D01*
X146694667Y-143715399D01*
X146685000Y-143764000D01*
X146685000Y-143774629D01*
X146640225Y-143841639D01*
X146605145Y-144018000D01*
X146614001Y-144062522D01*
X146614000Y-144709000D01*
X143764000Y-144709000D01*
X143764000Y-143383000D01*
X143754333Y-143334399D01*
X143726803Y-143293197D01*
X143685601Y-143265667D01*
X143637000Y-143256000D01*
X142018226Y-143256000D01*
X141857095Y-143094869D01*
X141831876Y-143057126D01*
X141682364Y-142957225D01*
X141550520Y-142931000D01*
X141506002Y-142922145D01*
X141461484Y-142931000D01*
X138546441Y-142931000D01*
X138179011Y-127254000D01*
X161275000Y-127254000D01*
X161275000Y-143637000D01*
X161275000Y-143637000D01*
G37*
X161275000Y-143637000D02*
X160922010Y-143637000D01*
X160922010Y-140448528D01*
X160930865Y-140404010D01*
X160895785Y-140227648D01*
X160821101Y-140115876D01*
X160795884Y-140078136D01*
X160758144Y-140052919D01*
X157191000Y-136485776D01*
X157191000Y-136253391D01*
X157080321Y-135986187D01*
X156875813Y-135781679D01*
X156608609Y-135671000D01*
X156319391Y-135671000D01*
X156052187Y-135781679D01*
X155847679Y-135986187D01*
X155737000Y-136253391D01*
X155737000Y-136542609D01*
X155847679Y-136809813D01*
X156052187Y-137014321D01*
X156319391Y-137125000D01*
X156551776Y-137125000D01*
X160018010Y-140591235D01*
X160018010Y-143637000D01*
X148086225Y-143637000D01*
X148179091Y-143544134D01*
X148179093Y-143544131D01*
X149010225Y-142713000D01*
X149242609Y-142713000D01*
X149509813Y-142602321D01*
X149714321Y-142397813D01*
X149825000Y-142130609D01*
X149825000Y-141841391D01*
X149714321Y-141574187D01*
X149509813Y-141369679D01*
X149242609Y-141259000D01*
X148953391Y-141259000D01*
X148686187Y-141369679D01*
X148481679Y-141574187D01*
X148371000Y-141841391D01*
X148371000Y-142073775D01*
X147539869Y-142904907D01*
X147539866Y-142904909D01*
X146806727Y-143638049D01*
X146763399Y-143646667D01*
X146722197Y-143674197D01*
X146694667Y-143715399D01*
X146685000Y-143764000D01*
X146685000Y-143774629D01*
X146640225Y-143841639D01*
X146605145Y-144018000D01*
X146614001Y-144062522D01*
X146614000Y-144709000D01*
X143764000Y-144709000D01*
X143764000Y-143383000D01*
X143754333Y-143334399D01*
X143726803Y-143293197D01*
X143685601Y-143265667D01*
X143637000Y-143256000D01*
X142018226Y-143256000D01*
X141857095Y-143094869D01*
X141831876Y-143057126D01*
X141682364Y-142957225D01*
X141550520Y-142931000D01*
X141506002Y-142922145D01*
X141461484Y-142931000D01*
X138546441Y-142931000D01*
X138179011Y-127254000D01*
X161275000Y-127254000D01*
X161275000Y-143637000D01*
G04 #@! TO.N,/Motor_Driver/SH_B*
G36*
X143177777Y-152368421D02*
X143307517Y-152575828D01*
X143506753Y-152717798D01*
X143745152Y-152772717D01*
X158416723Y-153213947D01*
X158806001Y-153603225D01*
X158806001Y-155999867D01*
X158780813Y-155974679D01*
X158513609Y-155864000D01*
X158224391Y-155864000D01*
X157957187Y-155974679D01*
X157752679Y-156179187D01*
X157642000Y-156446391D01*
X157642000Y-156735609D01*
X157752679Y-157002813D01*
X157917001Y-157167135D01*
X157917001Y-162690395D01*
X157315803Y-162089197D01*
X157274601Y-162061667D01*
X157226000Y-162052000D01*
X151303689Y-162052000D01*
X151238321Y-161894187D01*
X151033813Y-161689679D01*
X150766609Y-161579000D01*
X150477391Y-161579000D01*
X150210187Y-161689679D01*
X150005679Y-161894187D01*
X149910285Y-162124490D01*
X146686775Y-165348001D01*
X143891000Y-165348001D01*
X143891000Y-163957000D01*
X143881333Y-163908399D01*
X143853803Y-163867197D01*
X143812601Y-163839667D01*
X143764000Y-163830000D01*
X141703226Y-163830000D01*
X141669095Y-163795869D01*
X141643876Y-163758126D01*
X141494364Y-163658225D01*
X141362520Y-163632000D01*
X141318002Y-163623145D01*
X141273484Y-163632000D01*
X138546692Y-163632000D01*
X138182383Y-152217000D01*
X143148589Y-152217000D01*
X143177777Y-152368421D01*
X143177777Y-152368421D01*
G37*
X143177777Y-152368421D02*
X143307517Y-152575828D01*
X143506753Y-152717798D01*
X143745152Y-152772717D01*
X158416723Y-153213947D01*
X158806001Y-153603225D01*
X158806001Y-155999867D01*
X158780813Y-155974679D01*
X158513609Y-155864000D01*
X158224391Y-155864000D01*
X157957187Y-155974679D01*
X157752679Y-156179187D01*
X157642000Y-156446391D01*
X157642000Y-156735609D01*
X157752679Y-157002813D01*
X157917001Y-157167135D01*
X157917001Y-162690395D01*
X157315803Y-162089197D01*
X157274601Y-162061667D01*
X157226000Y-162052000D01*
X151303689Y-162052000D01*
X151238321Y-161894187D01*
X151033813Y-161689679D01*
X150766609Y-161579000D01*
X150477391Y-161579000D01*
X150210187Y-161689679D01*
X150005679Y-161894187D01*
X149910285Y-162124490D01*
X146686775Y-165348001D01*
X143891000Y-165348001D01*
X143891000Y-163957000D01*
X143881333Y-163908399D01*
X143853803Y-163867197D01*
X143812601Y-163839667D01*
X143764000Y-163830000D01*
X141703226Y-163830000D01*
X141669095Y-163795869D01*
X141643876Y-163758126D01*
X141494364Y-163658225D01*
X141362520Y-163632000D01*
X141318002Y-163623145D01*
X141273484Y-163632000D01*
X138546692Y-163632000D01*
X138182383Y-152217000D01*
X143148589Y-152217000D01*
X143177777Y-152368421D01*
G04 #@! TO.N,GND*
G36*
X136772000Y-99049365D02*
X136740000Y-99043000D01*
X112770000Y-99043000D01*
X112494946Y-99106551D01*
X112300261Y-99254700D01*
X112177089Y-99466074D01*
X112144183Y-99708494D01*
X112649183Y-107918494D01*
X112696460Y-108121703D01*
X112832994Y-108324702D01*
X113036820Y-108459999D01*
X113276907Y-108506997D01*
X129967569Y-108456240D01*
X129821590Y-108516706D01*
X129758226Y-108670621D01*
X130302000Y-109214395D01*
X130845774Y-108670621D01*
X130782410Y-108516706D01*
X130584149Y-108454364D01*
X132378727Y-108448907D01*
X132392278Y-120157199D01*
X121095792Y-120233014D01*
X120860057Y-120280728D01*
X120656644Y-120416644D01*
X120520728Y-120620057D01*
X120473000Y-120860000D01*
X120473000Y-126980000D01*
X120521498Y-127221793D01*
X120658064Y-127424771D01*
X120861911Y-127560037D01*
X121102004Y-127606997D01*
X136742004Y-127556997D01*
X136979943Y-127509272D01*
X137183356Y-127373356D01*
X137319272Y-127169943D01*
X137327348Y-127129341D01*
X137350771Y-127134000D01*
X137350772Y-127134000D01*
X137414000Y-127146577D01*
X137422248Y-127144936D01*
X137650350Y-136877275D01*
X137486054Y-136987054D01*
X137433360Y-137065916D01*
X134156283Y-140342993D01*
X134156283Y-139683000D01*
X134107620Y-139438357D01*
X133969041Y-139230959D01*
X133761643Y-139092380D01*
X133517000Y-139043717D01*
X129717000Y-139043717D01*
X129472357Y-139092380D01*
X129264959Y-139230959D01*
X129126380Y-139438357D01*
X129122871Y-139456000D01*
X128835704Y-139456000D01*
X128702041Y-139255959D01*
X128494643Y-139117380D01*
X128250000Y-139068717D01*
X127350000Y-139068717D01*
X127105357Y-139117380D01*
X127000000Y-139187777D01*
X126894643Y-139117380D01*
X126650000Y-139068717D01*
X125750000Y-139068717D01*
X125505357Y-139117380D01*
X125297959Y-139255959D01*
X125159380Y-139463357D01*
X125110717Y-139708000D01*
X125110717Y-140708000D01*
X125159380Y-140952643D01*
X125297959Y-141160041D01*
X125448001Y-141260296D01*
X125448000Y-147103515D01*
X120742283Y-151809233D01*
X120742283Y-149022000D01*
X120693620Y-148777357D01*
X120555041Y-148569959D01*
X120347643Y-148431380D01*
X120103000Y-148382717D01*
X118353000Y-148382717D01*
X118108357Y-148431380D01*
X117900959Y-148569959D01*
X117762380Y-148777357D01*
X117713717Y-149022000D01*
X117713717Y-152222000D01*
X117762380Y-152466643D01*
X117900959Y-152674041D01*
X118108357Y-152812620D01*
X118353000Y-152861283D01*
X119690233Y-152861283D01*
X113586881Y-158964636D01*
X113574997Y-158962272D01*
X113500938Y-158977003D01*
X113500934Y-158977003D01*
X113281581Y-159020635D01*
X113032836Y-159186842D01*
X112990882Y-159249630D01*
X108740629Y-163499884D01*
X108677839Y-163541839D01*
X108511632Y-163790585D01*
X108468000Y-164009938D01*
X108468000Y-164009941D01*
X108453269Y-164084000D01*
X108468000Y-164158059D01*
X108468001Y-166059767D01*
X108454118Y-166152073D01*
X108485905Y-166280074D01*
X108511633Y-166409416D01*
X108521807Y-166424642D01*
X108526221Y-166442417D01*
X108604576Y-166548514D01*
X108677840Y-166658161D01*
X108755449Y-166710018D01*
X109030329Y-166960169D01*
X109030329Y-167082283D01*
X109186681Y-167459749D01*
X109475580Y-167748648D01*
X109519886Y-167767000D01*
X109475580Y-167785352D01*
X109186681Y-168074251D01*
X109030329Y-168451717D01*
X109030329Y-168860283D01*
X109186681Y-169237749D01*
X109475580Y-169526648D01*
X109853046Y-169683000D01*
X110042138Y-169683000D01*
X110163912Y-169764367D01*
X110383265Y-169807999D01*
X110383268Y-169807999D01*
X110457327Y-169822730D01*
X110531386Y-169807999D01*
X117143943Y-169807999D01*
X117218002Y-169822730D01*
X117292061Y-169807999D01*
X117292065Y-169807999D01*
X117511418Y-169764367D01*
X117760163Y-169598160D01*
X117802118Y-169535370D01*
X122501490Y-164836000D01*
X138154717Y-164836000D01*
X138154717Y-165135613D01*
X138033143Y-165054380D01*
X137788500Y-165005717D01*
X137338500Y-165005717D01*
X137238500Y-165025608D01*
X137138500Y-165005717D01*
X136688500Y-165005717D01*
X136588500Y-165025608D01*
X136488500Y-165005717D01*
X136038500Y-165005717D01*
X135938500Y-165025608D01*
X135838500Y-165005717D01*
X135388500Y-165005717D01*
X135143857Y-165054380D01*
X134936459Y-165192959D01*
X134797880Y-165400357D01*
X134754588Y-165618000D01*
X133067057Y-165618000D01*
X132992998Y-165603269D01*
X132918939Y-165618000D01*
X132918935Y-165618000D01*
X132699582Y-165661632D01*
X132519440Y-165782000D01*
X132450837Y-165827839D01*
X132408883Y-165890627D01*
X132143628Y-166155883D01*
X132080838Y-166197838D01*
X131914631Y-166446584D01*
X131870999Y-166665937D01*
X131870999Y-166665940D01*
X131856268Y-166739999D01*
X131870999Y-166814058D01*
X131871000Y-171250858D01*
X131859920Y-171362747D01*
X131892619Y-171470749D01*
X131914632Y-171581417D01*
X131935647Y-171612868D01*
X131946609Y-171649075D01*
X132018150Y-171736342D01*
X132080839Y-171830162D01*
X132174326Y-171892628D01*
X133802596Y-173230369D01*
X133823839Y-173262161D01*
X133917322Y-173324624D01*
X133945853Y-173348065D01*
X133978762Y-173365678D01*
X134072584Y-173428368D01*
X134109686Y-173435748D01*
X134143038Y-173453598D01*
X134255325Y-173464717D01*
X134291937Y-173472000D01*
X134328867Y-173472000D01*
X134440746Y-173483079D01*
X134477339Y-173472000D01*
X137190196Y-173472000D01*
X137441368Y-173476561D01*
X137566803Y-177490500D01*
X123352185Y-177490500D01*
X123455000Y-177242283D01*
X123455000Y-176833717D01*
X123298648Y-176456251D01*
X123009749Y-176167352D01*
X122888793Y-176117250D01*
X129202000Y-176117250D01*
X129202000Y-176495786D01*
X129260004Y-176635820D01*
X129367181Y-176742996D01*
X129507215Y-176801000D01*
X131260750Y-176801000D01*
X131356000Y-176705750D01*
X131356000Y-176022000D01*
X131610000Y-176022000D01*
X131610000Y-176705750D01*
X131705250Y-176801000D01*
X133458785Y-176801000D01*
X133598819Y-176742996D01*
X133705996Y-176635820D01*
X133764000Y-176495786D01*
X133764000Y-176117250D01*
X133668750Y-176022000D01*
X131610000Y-176022000D01*
X131356000Y-176022000D01*
X129297250Y-176022000D01*
X129202000Y-176117250D01*
X122888793Y-176117250D01*
X122632283Y-176011000D01*
X122464488Y-176011000D01*
X121747702Y-175294214D01*
X129202000Y-175294214D01*
X129202000Y-175672750D01*
X129297250Y-175768000D01*
X131356000Y-175768000D01*
X131356000Y-175084250D01*
X131610000Y-175084250D01*
X131610000Y-175768000D01*
X133668750Y-175768000D01*
X133764000Y-175672750D01*
X133764000Y-175294214D01*
X133705996Y-175154180D01*
X133598819Y-175047004D01*
X133458785Y-174989000D01*
X131705250Y-174989000D01*
X131610000Y-175084250D01*
X131356000Y-175084250D01*
X131260750Y-174989000D01*
X129507215Y-174989000D01*
X129367181Y-175047004D01*
X129260004Y-175154180D01*
X129202000Y-175294214D01*
X121747702Y-175294214D01*
X116916116Y-170462629D01*
X116874161Y-170399839D01*
X116625416Y-170233632D01*
X116406063Y-170190000D01*
X116406059Y-170190000D01*
X116332000Y-170175269D01*
X116257941Y-170190000D01*
X110540976Y-170190000D01*
X110507103Y-170156127D01*
X110166392Y-170015000D01*
X109797608Y-170015000D01*
X109456897Y-170156127D01*
X109196127Y-170416897D01*
X109055000Y-170757608D01*
X109055000Y-171126392D01*
X109168332Y-171400000D01*
X108761717Y-171400000D01*
X108384251Y-171556352D01*
X108095352Y-171845251D01*
X107939000Y-172222717D01*
X107939000Y-172631283D01*
X108095352Y-173008749D01*
X108384251Y-173297648D01*
X108761717Y-173454000D01*
X109075453Y-173454000D01*
X117075825Y-181454373D01*
X117117779Y-181517161D01*
X117366524Y-181683368D01*
X117585877Y-181727000D01*
X117585880Y-181727000D01*
X117659939Y-181741731D01*
X117733998Y-181727000D01*
X125291296Y-181727000D01*
X125424959Y-181927041D01*
X125632357Y-182065620D01*
X125877000Y-182114283D01*
X126777000Y-182114283D01*
X127021643Y-182065620D01*
X127127000Y-181995223D01*
X127232357Y-182065620D01*
X127477000Y-182114283D01*
X128377000Y-182114283D01*
X128621643Y-182065620D01*
X128829041Y-181927041D01*
X128962704Y-181727000D01*
X128988871Y-181727000D01*
X128992380Y-181744643D01*
X129130959Y-181952041D01*
X129338357Y-182090620D01*
X129583000Y-182139283D01*
X133383000Y-182139283D01*
X133627643Y-182090620D01*
X133835041Y-181952041D01*
X133973620Y-181744643D01*
X134022283Y-181500000D01*
X134022283Y-180450000D01*
X133973620Y-180205357D01*
X133835041Y-179997959D01*
X133627643Y-179859380D01*
X133383000Y-179810717D01*
X129583000Y-179810717D01*
X129338357Y-179859380D01*
X129130959Y-179997959D01*
X128992380Y-180205357D01*
X128988871Y-180223000D01*
X128962704Y-180223000D01*
X128829041Y-180022959D01*
X128621643Y-179884380D01*
X128377000Y-179835717D01*
X127477000Y-179835717D01*
X127232357Y-179884380D01*
X127127000Y-179954777D01*
X127021643Y-179884380D01*
X126777000Y-179835717D01*
X125877000Y-179835717D01*
X125632357Y-179884380D01*
X125424959Y-180022959D01*
X125291296Y-180223000D01*
X117971428Y-180223000D01*
X109993000Y-172244573D01*
X109993000Y-172222717D01*
X109846485Y-171869000D01*
X110166392Y-171869000D01*
X110507103Y-171727873D01*
X110540976Y-171694000D01*
X113781000Y-171694000D01*
X113781000Y-171908283D01*
X113937352Y-172285749D01*
X114226251Y-172574648D01*
X114388930Y-172642032D01*
X120286998Y-179021576D01*
X120350054Y-179115946D01*
X120490874Y-179210039D01*
X120627894Y-179309574D01*
X120646534Y-179314048D01*
X120662475Y-179324699D01*
X120828592Y-179357742D01*
X120993264Y-179397263D01*
X121105361Y-179379500D01*
X137625835Y-179379500D01*
X137643717Y-179951736D01*
X137643717Y-183810000D01*
X137692380Y-184054643D01*
X137775836Y-184179544D01*
X137782960Y-184407508D01*
X137598000Y-184370717D01*
X137148000Y-184370717D01*
X137048000Y-184390608D01*
X136948000Y-184370717D01*
X136498000Y-184370717D01*
X136398000Y-184390608D01*
X136298000Y-184370717D01*
X136155002Y-184370717D01*
X136155002Y-184072717D01*
X135998650Y-183695251D01*
X135709751Y-183406352D01*
X135332285Y-183250000D01*
X134923719Y-183250000D01*
X134546253Y-183406352D01*
X134257354Y-183695251D01*
X134101002Y-184072717D01*
X134101002Y-184240513D01*
X133927515Y-184414000D01*
X130503057Y-184414000D01*
X130428999Y-184399269D01*
X130354941Y-184414000D01*
X130354937Y-184414000D01*
X130135584Y-184457632D01*
X130077470Y-184496463D01*
X129949625Y-184581886D01*
X129949623Y-184581888D01*
X129886839Y-184623839D01*
X129844887Y-184686624D01*
X125545513Y-188986000D01*
X97466488Y-188986000D01*
X93229000Y-184748513D01*
X93229000Y-184453717D01*
X93072648Y-184076251D01*
X92783749Y-183787352D01*
X92406283Y-183631000D01*
X91997717Y-183631000D01*
X91620251Y-183787352D01*
X91331352Y-184076251D01*
X91318285Y-184107797D01*
X88910769Y-181700282D01*
X88868814Y-181637492D01*
X88620069Y-181471285D01*
X88400716Y-181427653D01*
X88400712Y-181427653D01*
X88326653Y-181412922D01*
X88252594Y-181427653D01*
X83569744Y-181427653D01*
X83387596Y-181245505D01*
X83010130Y-181089153D01*
X82601564Y-181089153D01*
X82334675Y-181199702D01*
X82334675Y-178824812D01*
X83094488Y-178065000D01*
X83262283Y-178065000D01*
X83639749Y-177908648D01*
X83928648Y-177619749D01*
X84041885Y-177346370D01*
X87360347Y-177346370D01*
X87360347Y-177754936D01*
X87516699Y-178132402D01*
X87805598Y-178421301D01*
X88183064Y-178577653D01*
X88591630Y-178577653D01*
X88969096Y-178421301D01*
X89257995Y-178132402D01*
X89414347Y-177754936D01*
X89414347Y-177346370D01*
X89257995Y-176968904D01*
X88969096Y-176680005D01*
X88591630Y-176523653D01*
X88183064Y-176523653D01*
X87805598Y-176680005D01*
X87516699Y-176968904D01*
X87360347Y-177346370D01*
X84041885Y-177346370D01*
X84085000Y-177242283D01*
X84085000Y-176833717D01*
X83928648Y-176456251D01*
X83639749Y-176167352D01*
X83262283Y-176011000D01*
X82853717Y-176011000D01*
X82476251Y-176167352D01*
X82187352Y-176456251D01*
X82031000Y-176833717D01*
X82031000Y-177001512D01*
X81103302Y-177929211D01*
X81040515Y-177971164D01*
X80998562Y-178033951D01*
X80998561Y-178033952D01*
X80874307Y-178219910D01*
X80815944Y-178513325D01*
X80830676Y-178587389D01*
X80830675Y-184181618D01*
X80815944Y-184255677D01*
X80830675Y-184329736D01*
X80830675Y-184329739D01*
X80874307Y-184549092D01*
X81040514Y-184797838D01*
X81103304Y-184839793D01*
X85935886Y-189672377D01*
X85977838Y-189735162D01*
X86040622Y-189777113D01*
X86040625Y-189777116D01*
X86205511Y-189887289D01*
X86226583Y-189901369D01*
X86445936Y-189945001D01*
X86445940Y-189945001D01*
X86519999Y-189959732D01*
X86594058Y-189945001D01*
X87535514Y-189945001D01*
X88889000Y-191298488D01*
X88889000Y-191466283D01*
X89045352Y-191843749D01*
X89334251Y-192132648D01*
X89711717Y-192289000D01*
X89879513Y-192289000D01*
X90852175Y-193261663D01*
X90726810Y-193387028D01*
X90570458Y-193764494D01*
X90570458Y-194173060D01*
X90631323Y-194320000D01*
X89973488Y-194320000D01*
X87641000Y-191987513D01*
X87641000Y-191819717D01*
X87484648Y-191442251D01*
X87195749Y-191153352D01*
X86818283Y-190997000D01*
X86409717Y-190997000D01*
X86032251Y-191153352D01*
X85743352Y-191442251D01*
X85587000Y-191819717D01*
X85587000Y-192228283D01*
X85743352Y-192605749D01*
X86032251Y-192894648D01*
X86409717Y-193051000D01*
X86577513Y-193051000D01*
X89077885Y-195551373D01*
X89119839Y-195614161D01*
X89368584Y-195780368D01*
X89587937Y-195824000D01*
X89587941Y-195824000D01*
X89662000Y-195838731D01*
X89736059Y-195824000D01*
X92191000Y-195824000D01*
X92191000Y-196038283D01*
X92261299Y-196208000D01*
X67627229Y-196208000D01*
X67564000Y-196195423D01*
X67500772Y-196208000D01*
X67500771Y-196208000D01*
X67313504Y-196245250D01*
X67101144Y-196387144D01*
X66959250Y-196599504D01*
X66934685Y-196723000D01*
X58808000Y-196723000D01*
X58808000Y-184976250D01*
X72544000Y-184976250D01*
X72544000Y-185379786D01*
X72602004Y-185519820D01*
X72709181Y-185626996D01*
X72849215Y-185685000D01*
X73437750Y-185685000D01*
X73533000Y-185589750D01*
X73533000Y-184881000D01*
X73787000Y-184881000D01*
X73787000Y-185589750D01*
X73882250Y-185685000D01*
X74470785Y-185685000D01*
X74610819Y-185626996D01*
X74717996Y-185519820D01*
X74776000Y-185379786D01*
X74776000Y-184976250D01*
X75084000Y-184976250D01*
X75084000Y-185379786D01*
X75142004Y-185519820D01*
X75249181Y-185626996D01*
X75389215Y-185685000D01*
X75977750Y-185685000D01*
X76073000Y-185589750D01*
X76073000Y-184881000D01*
X76327000Y-184881000D01*
X76327000Y-185589750D01*
X76422250Y-185685000D01*
X77010785Y-185685000D01*
X77150819Y-185626996D01*
X77257996Y-185519820D01*
X77316000Y-185379786D01*
X77316000Y-184976250D01*
X77220750Y-184881000D01*
X76327000Y-184881000D01*
X76073000Y-184881000D01*
X75179250Y-184881000D01*
X75084000Y-184976250D01*
X74776000Y-184976250D01*
X74680750Y-184881000D01*
X73787000Y-184881000D01*
X73533000Y-184881000D01*
X72639250Y-184881000D01*
X72544000Y-184976250D01*
X58808000Y-184976250D01*
X58808000Y-181151717D01*
X71617000Y-181151717D01*
X71617000Y-181560283D01*
X71773352Y-181937749D01*
X71889933Y-182054330D01*
X71877269Y-182118000D01*
X71892000Y-182192059D01*
X71892000Y-182192063D01*
X71898880Y-182226648D01*
X71935632Y-182411415D01*
X72056188Y-182591839D01*
X72101840Y-182660161D01*
X72164627Y-182702114D01*
X72285717Y-182823204D01*
X72285717Y-183684000D01*
X72334380Y-183928643D01*
X72472959Y-184136041D01*
X72544000Y-184183509D01*
X72544000Y-184531750D01*
X72639250Y-184627000D01*
X73533000Y-184627000D01*
X73533000Y-184607000D01*
X73787000Y-184607000D01*
X73787000Y-184627000D01*
X74680750Y-184627000D01*
X74776000Y-184531750D01*
X74776000Y-184183509D01*
X74847041Y-184136041D01*
X74930000Y-184011884D01*
X75012959Y-184136041D01*
X75084000Y-184183509D01*
X75084000Y-184531750D01*
X75179250Y-184627000D01*
X76073000Y-184627000D01*
X76073000Y-184607000D01*
X76327000Y-184607000D01*
X76327000Y-184627000D01*
X77220750Y-184627000D01*
X77316000Y-184531750D01*
X77316000Y-184183509D01*
X77387041Y-184136041D01*
X77525620Y-183928643D01*
X77574283Y-183684000D01*
X77574283Y-182584000D01*
X77525620Y-182339357D01*
X77387041Y-182131959D01*
X77179643Y-181993380D01*
X76935000Y-181944717D01*
X75465000Y-181944717D01*
X75220357Y-181993380D01*
X75012959Y-182131959D01*
X74930000Y-182256116D01*
X74847041Y-182131959D01*
X74639643Y-181993380D01*
X74395000Y-181944717D01*
X73534204Y-181944717D01*
X73518335Y-181928848D01*
X73671000Y-181560283D01*
X73671000Y-181151717D01*
X73514648Y-180774251D01*
X73225749Y-180485352D01*
X72848283Y-180329000D01*
X72439717Y-180329000D01*
X72062251Y-180485352D01*
X71773352Y-180774251D01*
X71617000Y-181151717D01*
X58808000Y-181151717D01*
X58808000Y-178103717D01*
X66791000Y-178103717D01*
X66791000Y-178512283D01*
X66947352Y-178889749D01*
X67236251Y-179178648D01*
X67613717Y-179335000D01*
X68022283Y-179335000D01*
X68399749Y-179178648D01*
X68688648Y-178889749D01*
X68845000Y-178512283D01*
X68845000Y-178103717D01*
X68688648Y-177726251D01*
X68399749Y-177437352D01*
X68022283Y-177281000D01*
X67613717Y-177281000D01*
X67236251Y-177437352D01*
X66947352Y-177726251D01*
X66791000Y-178103717D01*
X58808000Y-178103717D01*
X58808000Y-175628000D01*
X72209717Y-175628000D01*
X72209717Y-178448000D01*
X72258380Y-178692643D01*
X72396959Y-178900041D01*
X72604357Y-179038620D01*
X72849000Y-179087283D01*
X73659000Y-179087283D01*
X73903643Y-179038620D01*
X74111041Y-178900041D01*
X74172380Y-178808240D01*
X74217719Y-178827020D01*
X74626285Y-178827020D01*
X75003751Y-178670668D01*
X75292650Y-178381769D01*
X75449002Y-178004303D01*
X75449002Y-177595737D01*
X75310039Y-177260250D01*
X75668000Y-177260250D01*
X75668000Y-178523785D01*
X75726004Y-178663819D01*
X75833180Y-178770996D01*
X75973214Y-178829000D01*
X76231750Y-178829000D01*
X76327000Y-178733750D01*
X76327000Y-177165000D01*
X76581000Y-177165000D01*
X76581000Y-178733750D01*
X76676250Y-178829000D01*
X76934786Y-178829000D01*
X77074820Y-178770996D01*
X77181996Y-178663819D01*
X77240000Y-178523785D01*
X77240000Y-177260250D01*
X77144750Y-177165000D01*
X76581000Y-177165000D01*
X76327000Y-177165000D01*
X75763250Y-177165000D01*
X75668000Y-177260250D01*
X75310039Y-177260250D01*
X75292650Y-177218271D01*
X75003751Y-176929372D01*
X74764942Y-176830454D01*
X74493116Y-176558628D01*
X74451161Y-176495839D01*
X74298283Y-176393689D01*
X74298283Y-175628000D01*
X74283209Y-175552215D01*
X75668000Y-175552215D01*
X75668000Y-176815750D01*
X75763250Y-176911000D01*
X76327000Y-176911000D01*
X76327000Y-175342250D01*
X76581000Y-175342250D01*
X76581000Y-176911000D01*
X77144750Y-176911000D01*
X77240000Y-176815750D01*
X77240000Y-175552215D01*
X77181996Y-175412181D01*
X77074820Y-175305004D01*
X76934786Y-175247000D01*
X76676250Y-175247000D01*
X76581000Y-175342250D01*
X76327000Y-175342250D01*
X76231750Y-175247000D01*
X75973214Y-175247000D01*
X75833180Y-175305004D01*
X75726004Y-175412181D01*
X75668000Y-175552215D01*
X74283209Y-175552215D01*
X74249620Y-175383357D01*
X74111041Y-175175959D01*
X73903643Y-175037380D01*
X73659000Y-174988717D01*
X72849000Y-174988717D01*
X72604357Y-175037380D01*
X72396959Y-175175959D01*
X72258380Y-175383357D01*
X72209717Y-175628000D01*
X58808000Y-175628000D01*
X58808000Y-174085250D01*
X97531000Y-174085250D01*
X97531000Y-174848785D01*
X97589004Y-174988819D01*
X97696180Y-175095996D01*
X97836214Y-175154000D01*
X97999750Y-175154000D01*
X98095000Y-175058750D01*
X98095000Y-173990000D01*
X98349000Y-173990000D01*
X98349000Y-175058750D01*
X98444250Y-175154000D01*
X98607786Y-175154000D01*
X98747820Y-175095996D01*
X98854996Y-174988819D01*
X98913000Y-174848785D01*
X98913000Y-174085250D01*
X98817750Y-173990000D01*
X98349000Y-173990000D01*
X98095000Y-173990000D01*
X97626250Y-173990000D01*
X97531000Y-174085250D01*
X58808000Y-174085250D01*
X58808000Y-172877215D01*
X97531000Y-172877215D01*
X97531000Y-173640750D01*
X97626250Y-173736000D01*
X98095000Y-173736000D01*
X98095000Y-172667250D01*
X98349000Y-172667250D01*
X98349000Y-173736000D01*
X98817750Y-173736000D01*
X98913000Y-173640750D01*
X98913000Y-172953000D01*
X100472717Y-172953000D01*
X100472717Y-174773000D01*
X100521380Y-175017643D01*
X100659959Y-175225041D01*
X100867357Y-175363620D01*
X101112000Y-175412283D01*
X101732000Y-175412283D01*
X101976643Y-175363620D01*
X102184041Y-175225041D01*
X102322620Y-175017643D01*
X102371283Y-174773000D01*
X102371283Y-174507311D01*
X102400184Y-174488000D01*
X103603770Y-174488000D01*
X103677829Y-174502731D01*
X103751888Y-174488000D01*
X103751892Y-174488000D01*
X103971245Y-174444368D01*
X104219990Y-174278161D01*
X104261945Y-174215371D01*
X105238317Y-173239000D01*
X105406112Y-173239000D01*
X105783578Y-173082648D01*
X106072477Y-172793749D01*
X106228829Y-172416283D01*
X106228829Y-172007717D01*
X106072477Y-171630251D01*
X105783578Y-171341352D01*
X105406112Y-171185000D01*
X104997546Y-171185000D01*
X104620080Y-171341352D01*
X104331181Y-171630251D01*
X104174829Y-172007717D01*
X104174829Y-172175512D01*
X103366342Y-172984000D01*
X102371283Y-172984000D01*
X102371283Y-172953000D01*
X102322620Y-172708357D01*
X102184041Y-172500959D01*
X101976643Y-172362380D01*
X101732000Y-172313717D01*
X101112000Y-172313717D01*
X100867357Y-172362380D01*
X100659959Y-172500959D01*
X100521380Y-172708357D01*
X100472717Y-172953000D01*
X98913000Y-172953000D01*
X98913000Y-172877215D01*
X98854996Y-172737181D01*
X98747820Y-172630004D01*
X98607786Y-172572000D01*
X98444250Y-172572000D01*
X98349000Y-172667250D01*
X98095000Y-172667250D01*
X97999750Y-172572000D01*
X97836214Y-172572000D01*
X97696180Y-172630004D01*
X97589004Y-172737181D01*
X97531000Y-172877215D01*
X58808000Y-172877215D01*
X58808000Y-158300000D01*
X62360717Y-158300000D01*
X62360717Y-159200000D01*
X62409380Y-159444643D01*
X62479777Y-159550000D01*
X62409380Y-159655357D01*
X62360717Y-159900000D01*
X62360717Y-160800000D01*
X62409380Y-161044643D01*
X62547959Y-161252041D01*
X62755357Y-161390620D01*
X63000000Y-161439283D01*
X63767717Y-161439283D01*
X63767717Y-161742000D01*
X63816380Y-161986643D01*
X63954959Y-162194041D01*
X64162357Y-162332620D01*
X64407000Y-162381283D01*
X65932000Y-162381283D01*
X66176643Y-162332620D01*
X66384041Y-162194041D01*
X66522620Y-161986643D01*
X66571283Y-161742000D01*
X66571283Y-161092000D01*
X66553662Y-161003412D01*
X66720159Y-160892161D01*
X66762114Y-160829371D01*
X68754000Y-158837485D01*
X68753999Y-164945245D01*
X68739268Y-165019304D01*
X68753999Y-165093363D01*
X68753999Y-165093366D01*
X68797631Y-165312719D01*
X68963838Y-165561465D01*
X69026628Y-165603420D01*
X71620346Y-168197140D01*
X71620346Y-168364934D01*
X71776698Y-168742400D01*
X72065597Y-169031299D01*
X72443063Y-169187651D01*
X72851629Y-169187651D01*
X73168944Y-169056214D01*
X73455717Y-169175000D01*
X73864283Y-169175000D01*
X74241749Y-169018648D01*
X74530648Y-168729749D01*
X74687000Y-168352283D01*
X74687000Y-167943717D01*
X74530648Y-167566251D01*
X74241749Y-167277352D01*
X73948098Y-167155717D01*
X81777000Y-167155717D01*
X81777000Y-167564283D01*
X81933352Y-167941749D01*
X82222251Y-168230648D01*
X82599717Y-168387000D01*
X83008283Y-168387000D01*
X83385749Y-168230648D01*
X83674648Y-167941749D01*
X83831000Y-167564283D01*
X83831000Y-167181717D01*
X85587000Y-167181717D01*
X85587000Y-167590283D01*
X85743352Y-167967749D01*
X86032251Y-168256648D01*
X86409717Y-168413000D01*
X86577513Y-168413000D01*
X87121885Y-168957373D01*
X87134020Y-168975534D01*
X87145380Y-169032643D01*
X87283959Y-169240041D01*
X87491357Y-169378620D01*
X87736000Y-169427283D01*
X89556000Y-169427283D01*
X89800643Y-169378620D01*
X90008041Y-169240041D01*
X90146620Y-169032643D01*
X90195283Y-168788000D01*
X90195283Y-168168000D01*
X90146620Y-167923357D01*
X90008041Y-167715959D01*
X89800643Y-167577380D01*
X89556000Y-167528717D01*
X87820205Y-167528717D01*
X87641000Y-167349513D01*
X87641000Y-167181717D01*
X87484648Y-166804251D01*
X87195749Y-166515352D01*
X86818283Y-166359000D01*
X86409717Y-166359000D01*
X86032251Y-166515352D01*
X85743352Y-166804251D01*
X85587000Y-167181717D01*
X83831000Y-167181717D01*
X83831000Y-167155717D01*
X83674648Y-166778251D01*
X83556000Y-166659603D01*
X83556000Y-164641717D01*
X84063000Y-164641717D01*
X84063000Y-165050283D01*
X84219352Y-165427749D01*
X84508251Y-165716648D01*
X84885717Y-165873000D01*
X85294283Y-165873000D01*
X85671749Y-165716648D01*
X85888147Y-165500250D01*
X87355000Y-165500250D01*
X87355000Y-165663786D01*
X87413004Y-165803820D01*
X87520181Y-165910996D01*
X87660215Y-165969000D01*
X88423750Y-165969000D01*
X88519000Y-165873750D01*
X88519000Y-165405000D01*
X88773000Y-165405000D01*
X88773000Y-165873750D01*
X88868250Y-165969000D01*
X89631785Y-165969000D01*
X89771819Y-165910996D01*
X89878996Y-165803820D01*
X89937000Y-165663786D01*
X89937000Y-165500250D01*
X89841750Y-165405000D01*
X88773000Y-165405000D01*
X88519000Y-165405000D01*
X87450250Y-165405000D01*
X87355000Y-165500250D01*
X85888147Y-165500250D01*
X85960648Y-165427749D01*
X86004347Y-165322250D01*
X97201000Y-165322250D01*
X97201000Y-166085785D01*
X97259004Y-166225819D01*
X97366180Y-166332996D01*
X97506214Y-166391000D01*
X97669750Y-166391000D01*
X97765000Y-166295750D01*
X97765000Y-165227000D01*
X98019000Y-165227000D01*
X98019000Y-166295750D01*
X98114250Y-166391000D01*
X98247881Y-166391000D01*
X98204717Y-166608000D01*
X98204717Y-167148000D01*
X98253380Y-167392643D01*
X98391959Y-167600041D01*
X98508633Y-167678000D01*
X98391959Y-167755959D01*
X98253380Y-167963357D01*
X98204717Y-168208000D01*
X98204717Y-168748000D01*
X98253380Y-168992643D01*
X98391959Y-169200041D01*
X98599357Y-169338620D01*
X98844000Y-169387283D01*
X99784000Y-169387283D01*
X100028643Y-169338620D01*
X100191204Y-169230000D01*
X100696603Y-169230000D01*
X100764251Y-169297648D01*
X101141717Y-169454000D01*
X101550283Y-169454000D01*
X101927749Y-169297648D01*
X102216648Y-169008749D01*
X102373000Y-168631283D01*
X102373000Y-168222717D01*
X102216648Y-167845251D01*
X102072922Y-167701525D01*
X102119000Y-167590283D01*
X102119000Y-167529752D01*
X102411717Y-167651000D01*
X102820283Y-167651000D01*
X103197749Y-167494648D01*
X103486648Y-167205749D01*
X103643000Y-166828283D01*
X103643000Y-166419717D01*
X103486648Y-166042251D01*
X103350244Y-165905847D01*
X103389000Y-165812283D01*
X103389000Y-165403717D01*
X103232648Y-165026251D01*
X102943749Y-164737352D01*
X102566283Y-164581000D01*
X102157717Y-164581000D01*
X102041283Y-164629229D01*
X102041283Y-164190000D01*
X101992620Y-163945357D01*
X101854041Y-163737959D01*
X101646643Y-163599380D01*
X101402000Y-163550717D01*
X100782000Y-163550717D01*
X100537357Y-163599380D01*
X100329959Y-163737959D01*
X100191380Y-163945357D01*
X100142717Y-164190000D01*
X100142717Y-166010000D01*
X100161896Y-166106417D01*
X100028643Y-166017380D01*
X99784000Y-165968717D01*
X98844000Y-165968717D01*
X98599357Y-166017380D01*
X98583000Y-166028309D01*
X98583000Y-165322250D01*
X98487750Y-165227000D01*
X98019000Y-165227000D01*
X97765000Y-165227000D01*
X97296250Y-165227000D01*
X97201000Y-165322250D01*
X86004347Y-165322250D01*
X86117000Y-165050283D01*
X86117000Y-164892214D01*
X87355000Y-164892214D01*
X87355000Y-165055750D01*
X87450250Y-165151000D01*
X88519000Y-165151000D01*
X88519000Y-164682250D01*
X88773000Y-164682250D01*
X88773000Y-165151000D01*
X89841750Y-165151000D01*
X89937000Y-165055750D01*
X89937000Y-164892214D01*
X89878996Y-164752180D01*
X89771819Y-164645004D01*
X89631785Y-164587000D01*
X88868250Y-164587000D01*
X88773000Y-164682250D01*
X88519000Y-164682250D01*
X88423750Y-164587000D01*
X87660215Y-164587000D01*
X87520181Y-164645004D01*
X87413004Y-164752180D01*
X87355000Y-164892214D01*
X86117000Y-164892214D01*
X86117000Y-164641717D01*
X85960648Y-164264251D01*
X85810612Y-164114215D01*
X97201000Y-164114215D01*
X97201000Y-164877750D01*
X97296250Y-164973000D01*
X97765000Y-164973000D01*
X97765000Y-163904250D01*
X98019000Y-163904250D01*
X98019000Y-164973000D01*
X98487750Y-164973000D01*
X98583000Y-164877750D01*
X98583000Y-164114215D01*
X98524996Y-163974181D01*
X98417820Y-163867004D01*
X98277786Y-163809000D01*
X98114250Y-163809000D01*
X98019000Y-163904250D01*
X97765000Y-163904250D01*
X97669750Y-163809000D01*
X97506214Y-163809000D01*
X97366180Y-163867004D01*
X97259004Y-163974181D01*
X97201000Y-164114215D01*
X85810612Y-164114215D01*
X85671749Y-163975352D01*
X85294283Y-163819000D01*
X84885717Y-163819000D01*
X84508251Y-163975352D01*
X84219352Y-164264251D01*
X84063000Y-164641717D01*
X83556000Y-164641717D01*
X83556000Y-162617487D01*
X93599237Y-152574250D01*
X110561000Y-152574250D01*
X110561000Y-152727786D01*
X110619004Y-152867820D01*
X110726181Y-152974996D01*
X110866215Y-153033000D01*
X111029750Y-153033000D01*
X111125000Y-152937750D01*
X111125000Y-152479000D01*
X110656250Y-152479000D01*
X110561000Y-152574250D01*
X93599237Y-152574250D01*
X95041487Y-151132000D01*
X110302717Y-151132000D01*
X110302717Y-151732000D01*
X110351380Y-151976643D01*
X110489959Y-152184041D01*
X110697357Y-152322620D01*
X110942000Y-152371283D01*
X111399000Y-152371283D01*
X111399000Y-152479000D01*
X111379000Y-152479000D01*
X111379000Y-152937750D01*
X111474250Y-153033000D01*
X111637785Y-153033000D01*
X111672000Y-153018828D01*
X111672000Y-153049002D01*
X111767248Y-153049002D01*
X111672000Y-153144250D01*
X111672000Y-153472786D01*
X111730004Y-153612820D01*
X111837181Y-153719996D01*
X111977215Y-153778000D01*
X112705750Y-153778000D01*
X112801000Y-153682750D01*
X112801000Y-153049000D01*
X113055000Y-153049000D01*
X113055000Y-153682750D01*
X113150250Y-153778000D01*
X113878785Y-153778000D01*
X114018819Y-153719996D01*
X114125996Y-153612820D01*
X114184000Y-153472786D01*
X114184000Y-153144250D01*
X114088750Y-153049000D01*
X113055000Y-153049000D01*
X112801000Y-153049000D01*
X112781000Y-153049000D01*
X112781000Y-152795000D01*
X112801000Y-152795000D01*
X112801000Y-152161250D01*
X113055000Y-152161250D01*
X113055000Y-152795000D01*
X114088750Y-152795000D01*
X114184000Y-152699750D01*
X114184000Y-152371214D01*
X114125996Y-152231180D01*
X114018819Y-152124004D01*
X113878785Y-152066000D01*
X113150250Y-152066000D01*
X113055000Y-152161250D01*
X112801000Y-152161250D01*
X112705750Y-152066000D01*
X112522715Y-152066000D01*
X112660161Y-151974161D01*
X112702116Y-151911371D01*
X112877204Y-151736283D01*
X113803000Y-151736283D01*
X114047643Y-151687620D01*
X114255041Y-151549041D01*
X114266097Y-151532494D01*
X114480251Y-151746648D01*
X114857717Y-151903000D01*
X115266283Y-151903000D01*
X115643749Y-151746648D01*
X115932648Y-151457749D01*
X116089000Y-151080283D01*
X116089000Y-150671717D01*
X115932648Y-150294251D01*
X115643749Y-150005352D01*
X115266283Y-149849000D01*
X114857717Y-149849000D01*
X114831363Y-149859916D01*
X114808000Y-149855269D01*
X114733941Y-149870000D01*
X114372000Y-149870000D01*
X114255041Y-149694959D01*
X114047643Y-149556380D01*
X113803000Y-149507717D01*
X112053000Y-149507717D01*
X111808357Y-149556380D01*
X111600959Y-149694959D01*
X111462380Y-149902357D01*
X111413717Y-150147000D01*
X111413717Y-150492717D01*
X110942000Y-150492717D01*
X110697357Y-150541380D01*
X110489959Y-150679959D01*
X110351380Y-150887357D01*
X110302717Y-151132000D01*
X95041487Y-151132000D01*
X96441238Y-149732250D01*
X110053000Y-149732250D01*
X110053000Y-149885786D01*
X110111004Y-150025820D01*
X110218181Y-150132996D01*
X110358215Y-150191000D01*
X110521750Y-150191000D01*
X110617000Y-150095750D01*
X110617000Y-149637000D01*
X110871000Y-149637000D01*
X110871000Y-150095750D01*
X110966250Y-150191000D01*
X111129785Y-150191000D01*
X111269819Y-150132996D01*
X111376996Y-150025820D01*
X111435000Y-149885786D01*
X111435000Y-149732250D01*
X111339750Y-149637000D01*
X110871000Y-149637000D01*
X110617000Y-149637000D01*
X110148250Y-149637000D01*
X110053000Y-149732250D01*
X96441238Y-149732250D01*
X96810489Y-149363000D01*
X96978283Y-149363000D01*
X97355749Y-149206648D01*
X97644648Y-148917749D01*
X97801000Y-148540283D01*
X97801000Y-148290000D01*
X109794717Y-148290000D01*
X109794717Y-148890000D01*
X109843380Y-149134643D01*
X109981959Y-149342041D01*
X110189357Y-149480620D01*
X110434000Y-149529283D01*
X111054000Y-149529283D01*
X111298643Y-149480620D01*
X111506041Y-149342041D01*
X111584570Y-149224514D01*
X111600959Y-149249041D01*
X111808357Y-149387620D01*
X112053000Y-149436283D01*
X112795032Y-149436283D01*
X112928000Y-149462732D01*
X113060968Y-149436283D01*
X113803000Y-149436283D01*
X114047643Y-149387620D01*
X114255041Y-149249041D01*
X114393620Y-149041643D01*
X114442283Y-148797000D01*
X114442283Y-147847000D01*
X114393620Y-147602357D01*
X114255041Y-147394959D01*
X114047643Y-147256380D01*
X113803000Y-147207717D01*
X113782000Y-147207717D01*
X113782000Y-146242397D01*
X113900648Y-146123749D01*
X114057000Y-145746283D01*
X114057000Y-145337717D01*
X113900648Y-144960251D01*
X113611749Y-144671352D01*
X113234283Y-144515000D01*
X112825717Y-144515000D01*
X112448251Y-144671352D01*
X112159352Y-144960251D01*
X112003000Y-145337717D01*
X112003000Y-145746283D01*
X112159352Y-146123749D01*
X112176001Y-146140398D01*
X112176001Y-147207717D01*
X112053000Y-147207717D01*
X111808357Y-147256380D01*
X111600959Y-147394959D01*
X111484000Y-147570000D01*
X111086058Y-147570000D01*
X111011999Y-147555269D01*
X110937940Y-147570000D01*
X110937937Y-147570000D01*
X110718584Y-147613632D01*
X110663083Y-147650717D01*
X110434000Y-147650717D01*
X110189357Y-147699380D01*
X109981959Y-147837959D01*
X109843380Y-148045357D01*
X109794717Y-148290000D01*
X97801000Y-148290000D01*
X97801000Y-148131717D01*
X97644648Y-147754251D01*
X97355749Y-147465352D01*
X96978283Y-147309000D01*
X96569717Y-147309000D01*
X96192251Y-147465352D01*
X95903352Y-147754251D01*
X95747000Y-148131717D01*
X95747000Y-148299511D01*
X82324628Y-161721885D01*
X82261840Y-161763839D01*
X82219887Y-161826626D01*
X82219886Y-161826627D01*
X82095632Y-162012585D01*
X82037269Y-162306000D01*
X82052001Y-162380064D01*
X82052000Y-166659603D01*
X81933352Y-166778251D01*
X81777000Y-167155717D01*
X73948098Y-167155717D01*
X73864283Y-167121000D01*
X73696488Y-167121000D01*
X73301999Y-166726512D01*
X73301999Y-166661058D01*
X73316730Y-166587000D01*
X73301999Y-166512942D01*
X73301999Y-166512938D01*
X73258367Y-166293585D01*
X73146390Y-166126000D01*
X73134113Y-166107626D01*
X73134111Y-166107624D01*
X73092160Y-166044840D01*
X73029376Y-166002889D01*
X71345500Y-164319015D01*
X71345500Y-162381283D01*
X71356000Y-162381283D01*
X71600643Y-162332620D01*
X71808041Y-162194041D01*
X71946620Y-161986643D01*
X71995283Y-161742000D01*
X71995283Y-161619461D01*
X72253282Y-161726328D01*
X72661848Y-161726328D01*
X73039314Y-161569976D01*
X73050007Y-161559283D01*
X74395000Y-161559283D01*
X74432001Y-161551923D01*
X74432000Y-165415603D01*
X74313352Y-165534251D01*
X74157000Y-165911717D01*
X74157000Y-166320283D01*
X74313352Y-166697749D01*
X74602251Y-166986648D01*
X74979717Y-167143000D01*
X75388283Y-167143000D01*
X75765749Y-166986648D01*
X76054648Y-166697749D01*
X76211000Y-166320283D01*
X76211000Y-165911717D01*
X76054648Y-165534251D01*
X75936000Y-165415603D01*
X75936000Y-157808063D01*
X75950732Y-157734000D01*
X75892368Y-157440584D01*
X75726161Y-157191839D01*
X75477416Y-157025632D01*
X75258063Y-156982000D01*
X75184000Y-156967268D01*
X75109937Y-156982000D01*
X74987488Y-156982000D01*
X73274652Y-155269165D01*
X73274652Y-155101369D01*
X73118300Y-154723903D01*
X72992942Y-154598545D01*
X78249487Y-149342000D01*
X81849603Y-149342000D01*
X81968251Y-149460648D01*
X82345717Y-149617000D01*
X82754283Y-149617000D01*
X83131749Y-149460648D01*
X83420648Y-149171749D01*
X83577000Y-148794283D01*
X83577000Y-148385717D01*
X83420648Y-148008251D01*
X83131749Y-147719352D01*
X82754283Y-147563000D01*
X82345717Y-147563000D01*
X81968251Y-147719352D01*
X81849603Y-147838000D01*
X79891054Y-147838000D01*
X80021000Y-147524283D01*
X80021000Y-147115717D01*
X79864648Y-146738251D01*
X79575749Y-146449352D01*
X79198283Y-146293000D01*
X78789717Y-146293000D01*
X78412251Y-146449352D01*
X78278544Y-146583059D01*
X78134899Y-146611632D01*
X77886154Y-146777839D01*
X77844200Y-146840627D01*
X68872612Y-155812215D01*
X68824000Y-155763603D01*
X68824000Y-152203487D01*
X68870487Y-152157000D01*
X69038283Y-152157000D01*
X69415749Y-152000648D01*
X69704648Y-151711749D01*
X69861000Y-151334283D01*
X69861000Y-150925717D01*
X69704648Y-150548251D01*
X69415749Y-150259352D01*
X69038283Y-150103000D01*
X68629717Y-150103000D01*
X68252251Y-150259352D01*
X67963352Y-150548251D01*
X67807000Y-150925717D01*
X67807000Y-151093513D01*
X67592629Y-151307884D01*
X67529839Y-151349839D01*
X67363632Y-151598585D01*
X67320000Y-151817938D01*
X67320000Y-151817941D01*
X67305269Y-151892000D01*
X67320000Y-151966059D01*
X67320001Y-155763602D01*
X67201352Y-155882251D01*
X67045000Y-156259717D01*
X67045000Y-156668283D01*
X67201352Y-157045749D01*
X67420215Y-157264612D01*
X66559828Y-158125000D01*
X66532893Y-158125000D01*
X66571283Y-157932000D01*
X66571283Y-157282000D01*
X66522620Y-157037357D01*
X66384041Y-156829959D01*
X66176643Y-156691380D01*
X65932000Y-156642717D01*
X64407000Y-156642717D01*
X64162357Y-156691380D01*
X63954959Y-156829959D01*
X63816380Y-157037357D01*
X63767717Y-157282000D01*
X63767717Y-157660717D01*
X63000000Y-157660717D01*
X62755357Y-157709380D01*
X62547959Y-157847959D01*
X62409380Y-158055357D01*
X62360717Y-158300000D01*
X58808000Y-158300000D01*
X58808000Y-150671717D01*
X61711000Y-150671717D01*
X61711000Y-151080283D01*
X61867352Y-151457749D01*
X62156251Y-151746648D01*
X62533717Y-151903000D01*
X62942283Y-151903000D01*
X63319749Y-151746648D01*
X63608648Y-151457749D01*
X63765000Y-151080283D01*
X63765000Y-150671717D01*
X63608648Y-150294251D01*
X63319749Y-150005352D01*
X62942283Y-149849000D01*
X62533717Y-149849000D01*
X62156251Y-150005352D01*
X61867352Y-150294251D01*
X61711000Y-150671717D01*
X58808000Y-150671717D01*
X58808000Y-136271000D01*
X66934685Y-136271000D01*
X66959250Y-136394496D01*
X67023373Y-136490463D01*
X67101144Y-136606856D01*
X67313504Y-136748750D01*
X67564000Y-136798577D01*
X67627228Y-136786000D01*
X108394771Y-136786000D01*
X108458000Y-136798577D01*
X108521228Y-136786000D01*
X108521229Y-136786000D01*
X108708496Y-136748750D01*
X108920856Y-136606856D01*
X109062750Y-136394496D01*
X109112577Y-136144000D01*
X109100000Y-136080771D01*
X109100000Y-135350250D01*
X129336000Y-135350250D01*
X129336000Y-135728786D01*
X129394004Y-135868820D01*
X129501181Y-135975996D01*
X129641215Y-136034000D01*
X131394750Y-136034000D01*
X131490000Y-135938750D01*
X131490000Y-135255000D01*
X131744000Y-135255000D01*
X131744000Y-135938750D01*
X131839250Y-136034000D01*
X133592785Y-136034000D01*
X133732819Y-135975996D01*
X133839996Y-135868820D01*
X133898000Y-135728786D01*
X133898000Y-135350250D01*
X133802750Y-135255000D01*
X131744000Y-135255000D01*
X131490000Y-135255000D01*
X129431250Y-135255000D01*
X129336000Y-135350250D01*
X109100000Y-135350250D01*
X109100000Y-134527214D01*
X129336000Y-134527214D01*
X129336000Y-134905750D01*
X129431250Y-135001000D01*
X131490000Y-135001000D01*
X131490000Y-134317250D01*
X131744000Y-134317250D01*
X131744000Y-135001000D01*
X133802750Y-135001000D01*
X133898000Y-134905750D01*
X133898000Y-134527214D01*
X133839996Y-134387180D01*
X133732819Y-134280004D01*
X133592785Y-134222000D01*
X131839250Y-134222000D01*
X131744000Y-134317250D01*
X131490000Y-134317250D01*
X131394750Y-134222000D01*
X129641215Y-134222000D01*
X129501181Y-134280004D01*
X129394004Y-134387180D01*
X129336000Y-134527214D01*
X109100000Y-134527214D01*
X109100000Y-118659379D01*
X129758226Y-118659379D01*
X129821590Y-118813294D01*
X130193885Y-118930359D01*
X130582639Y-118896042D01*
X130782410Y-118813294D01*
X130845774Y-118659379D01*
X130302000Y-118115605D01*
X129758226Y-118659379D01*
X109100000Y-118659379D01*
X109100000Y-117827885D01*
X129307641Y-117827885D01*
X129341958Y-118216639D01*
X129424706Y-118416410D01*
X129578621Y-118479774D01*
X130122395Y-117936000D01*
X130481605Y-117936000D01*
X131025379Y-118479774D01*
X131179294Y-118416410D01*
X131296359Y-118044115D01*
X131262042Y-117655361D01*
X131179294Y-117455590D01*
X131025379Y-117392226D01*
X130481605Y-117936000D01*
X130122395Y-117936000D01*
X129578621Y-117392226D01*
X129424706Y-117455590D01*
X129307641Y-117827885D01*
X109100000Y-117827885D01*
X109100000Y-117212621D01*
X129758226Y-117212621D01*
X130302000Y-117756395D01*
X130845774Y-117212621D01*
X130782410Y-117058706D01*
X130410115Y-116941641D01*
X130021361Y-116975958D01*
X129821590Y-117058706D01*
X129758226Y-117212621D01*
X109100000Y-117212621D01*
X109100000Y-110117379D01*
X129758226Y-110117379D01*
X129821590Y-110271294D01*
X130193885Y-110388359D01*
X130582639Y-110354042D01*
X130782410Y-110271294D01*
X130845774Y-110117379D01*
X130302000Y-109573605D01*
X129758226Y-110117379D01*
X109100000Y-110117379D01*
X109100000Y-109285885D01*
X129307641Y-109285885D01*
X129341958Y-109674639D01*
X129424706Y-109874410D01*
X129578621Y-109937774D01*
X130122395Y-109394000D01*
X130481605Y-109394000D01*
X131025379Y-109937774D01*
X131179294Y-109874410D01*
X131296359Y-109502115D01*
X131262042Y-109113361D01*
X131179294Y-108913590D01*
X131025379Y-108850226D01*
X130481605Y-109394000D01*
X130122395Y-109394000D01*
X129578621Y-108850226D01*
X129424706Y-108913590D01*
X129307641Y-109285885D01*
X109100000Y-109285885D01*
X109100000Y-107759229D01*
X109112577Y-107696000D01*
X109062750Y-107445504D01*
X108920856Y-107233144D01*
X108708496Y-107091250D01*
X108585000Y-107066685D01*
X108585000Y-98940000D01*
X136772000Y-98940000D01*
X136772000Y-99049365D01*
X136772000Y-99049365D01*
G37*
X136772000Y-99049365D02*
X136740000Y-99043000D01*
X112770000Y-99043000D01*
X112494946Y-99106551D01*
X112300261Y-99254700D01*
X112177089Y-99466074D01*
X112144183Y-99708494D01*
X112649183Y-107918494D01*
X112696460Y-108121703D01*
X112832994Y-108324702D01*
X113036820Y-108459999D01*
X113276907Y-108506997D01*
X129967569Y-108456240D01*
X129821590Y-108516706D01*
X129758226Y-108670621D01*
X130302000Y-109214395D01*
X130845774Y-108670621D01*
X130782410Y-108516706D01*
X130584149Y-108454364D01*
X132378727Y-108448907D01*
X132392278Y-120157199D01*
X121095792Y-120233014D01*
X120860057Y-120280728D01*
X120656644Y-120416644D01*
X120520728Y-120620057D01*
X120473000Y-120860000D01*
X120473000Y-126980000D01*
X120521498Y-127221793D01*
X120658064Y-127424771D01*
X120861911Y-127560037D01*
X121102004Y-127606997D01*
X136742004Y-127556997D01*
X136979943Y-127509272D01*
X137183356Y-127373356D01*
X137319272Y-127169943D01*
X137327348Y-127129341D01*
X137350771Y-127134000D01*
X137350772Y-127134000D01*
X137414000Y-127146577D01*
X137422248Y-127144936D01*
X137650350Y-136877275D01*
X137486054Y-136987054D01*
X137433360Y-137065916D01*
X134156283Y-140342993D01*
X134156283Y-139683000D01*
X134107620Y-139438357D01*
X133969041Y-139230959D01*
X133761643Y-139092380D01*
X133517000Y-139043717D01*
X129717000Y-139043717D01*
X129472357Y-139092380D01*
X129264959Y-139230959D01*
X129126380Y-139438357D01*
X129122871Y-139456000D01*
X128835704Y-139456000D01*
X128702041Y-139255959D01*
X128494643Y-139117380D01*
X128250000Y-139068717D01*
X127350000Y-139068717D01*
X127105357Y-139117380D01*
X127000000Y-139187777D01*
X126894643Y-139117380D01*
X126650000Y-139068717D01*
X125750000Y-139068717D01*
X125505357Y-139117380D01*
X125297959Y-139255959D01*
X125159380Y-139463357D01*
X125110717Y-139708000D01*
X125110717Y-140708000D01*
X125159380Y-140952643D01*
X125297959Y-141160041D01*
X125448001Y-141260296D01*
X125448000Y-147103515D01*
X120742283Y-151809233D01*
X120742283Y-149022000D01*
X120693620Y-148777357D01*
X120555041Y-148569959D01*
X120347643Y-148431380D01*
X120103000Y-148382717D01*
X118353000Y-148382717D01*
X118108357Y-148431380D01*
X117900959Y-148569959D01*
X117762380Y-148777357D01*
X117713717Y-149022000D01*
X117713717Y-152222000D01*
X117762380Y-152466643D01*
X117900959Y-152674041D01*
X118108357Y-152812620D01*
X118353000Y-152861283D01*
X119690233Y-152861283D01*
X113586881Y-158964636D01*
X113574997Y-158962272D01*
X113500938Y-158977003D01*
X113500934Y-158977003D01*
X113281581Y-159020635D01*
X113032836Y-159186842D01*
X112990882Y-159249630D01*
X108740629Y-163499884D01*
X108677839Y-163541839D01*
X108511632Y-163790585D01*
X108468000Y-164009938D01*
X108468000Y-164009941D01*
X108453269Y-164084000D01*
X108468000Y-164158059D01*
X108468001Y-166059767D01*
X108454118Y-166152073D01*
X108485905Y-166280074D01*
X108511633Y-166409416D01*
X108521807Y-166424642D01*
X108526221Y-166442417D01*
X108604576Y-166548514D01*
X108677840Y-166658161D01*
X108755449Y-166710018D01*
X109030329Y-166960169D01*
X109030329Y-167082283D01*
X109186681Y-167459749D01*
X109475580Y-167748648D01*
X109519886Y-167767000D01*
X109475580Y-167785352D01*
X109186681Y-168074251D01*
X109030329Y-168451717D01*
X109030329Y-168860283D01*
X109186681Y-169237749D01*
X109475580Y-169526648D01*
X109853046Y-169683000D01*
X110042138Y-169683000D01*
X110163912Y-169764367D01*
X110383265Y-169807999D01*
X110383268Y-169807999D01*
X110457327Y-169822730D01*
X110531386Y-169807999D01*
X117143943Y-169807999D01*
X117218002Y-169822730D01*
X117292061Y-169807999D01*
X117292065Y-169807999D01*
X117511418Y-169764367D01*
X117760163Y-169598160D01*
X117802118Y-169535370D01*
X122501490Y-164836000D01*
X138154717Y-164836000D01*
X138154717Y-165135613D01*
X138033143Y-165054380D01*
X137788500Y-165005717D01*
X137338500Y-165005717D01*
X137238500Y-165025608D01*
X137138500Y-165005717D01*
X136688500Y-165005717D01*
X136588500Y-165025608D01*
X136488500Y-165005717D01*
X136038500Y-165005717D01*
X135938500Y-165025608D01*
X135838500Y-165005717D01*
X135388500Y-165005717D01*
X135143857Y-165054380D01*
X134936459Y-165192959D01*
X134797880Y-165400357D01*
X134754588Y-165618000D01*
X133067057Y-165618000D01*
X132992998Y-165603269D01*
X132918939Y-165618000D01*
X132918935Y-165618000D01*
X132699582Y-165661632D01*
X132519440Y-165782000D01*
X132450837Y-165827839D01*
X132408883Y-165890627D01*
X132143628Y-166155883D01*
X132080838Y-166197838D01*
X131914631Y-166446584D01*
X131870999Y-166665937D01*
X131870999Y-166665940D01*
X131856268Y-166739999D01*
X131870999Y-166814058D01*
X131871000Y-171250858D01*
X131859920Y-171362747D01*
X131892619Y-171470749D01*
X131914632Y-171581417D01*
X131935647Y-171612868D01*
X131946609Y-171649075D01*
X132018150Y-171736342D01*
X132080839Y-171830162D01*
X132174326Y-171892628D01*
X133802596Y-173230369D01*
X133823839Y-173262161D01*
X133917322Y-173324624D01*
X133945853Y-173348065D01*
X133978762Y-173365678D01*
X134072584Y-173428368D01*
X134109686Y-173435748D01*
X134143038Y-173453598D01*
X134255325Y-173464717D01*
X134291937Y-173472000D01*
X134328867Y-173472000D01*
X134440746Y-173483079D01*
X134477339Y-173472000D01*
X137190196Y-173472000D01*
X137441368Y-173476561D01*
X137566803Y-177490500D01*
X123352185Y-177490500D01*
X123455000Y-177242283D01*
X123455000Y-176833717D01*
X123298648Y-176456251D01*
X123009749Y-176167352D01*
X122888793Y-176117250D01*
X129202000Y-176117250D01*
X129202000Y-176495786D01*
X129260004Y-176635820D01*
X129367181Y-176742996D01*
X129507215Y-176801000D01*
X131260750Y-176801000D01*
X131356000Y-176705750D01*
X131356000Y-176022000D01*
X131610000Y-176022000D01*
X131610000Y-176705750D01*
X131705250Y-176801000D01*
X133458785Y-176801000D01*
X133598819Y-176742996D01*
X133705996Y-176635820D01*
X133764000Y-176495786D01*
X133764000Y-176117250D01*
X133668750Y-176022000D01*
X131610000Y-176022000D01*
X131356000Y-176022000D01*
X129297250Y-176022000D01*
X129202000Y-176117250D01*
X122888793Y-176117250D01*
X122632283Y-176011000D01*
X122464488Y-176011000D01*
X121747702Y-175294214D01*
X129202000Y-175294214D01*
X129202000Y-175672750D01*
X129297250Y-175768000D01*
X131356000Y-175768000D01*
X131356000Y-175084250D01*
X131610000Y-175084250D01*
X131610000Y-175768000D01*
X133668750Y-175768000D01*
X133764000Y-175672750D01*
X133764000Y-175294214D01*
X133705996Y-175154180D01*
X133598819Y-175047004D01*
X133458785Y-174989000D01*
X131705250Y-174989000D01*
X131610000Y-175084250D01*
X131356000Y-175084250D01*
X131260750Y-174989000D01*
X129507215Y-174989000D01*
X129367181Y-175047004D01*
X129260004Y-175154180D01*
X129202000Y-175294214D01*
X121747702Y-175294214D01*
X116916116Y-170462629D01*
X116874161Y-170399839D01*
X116625416Y-170233632D01*
X116406063Y-170190000D01*
X116406059Y-170190000D01*
X116332000Y-170175269D01*
X116257941Y-170190000D01*
X110540976Y-170190000D01*
X110507103Y-170156127D01*
X110166392Y-170015000D01*
X109797608Y-170015000D01*
X109456897Y-170156127D01*
X109196127Y-170416897D01*
X109055000Y-170757608D01*
X109055000Y-171126392D01*
X109168332Y-171400000D01*
X108761717Y-171400000D01*
X108384251Y-171556352D01*
X108095352Y-171845251D01*
X107939000Y-172222717D01*
X107939000Y-172631283D01*
X108095352Y-173008749D01*
X108384251Y-173297648D01*
X108761717Y-173454000D01*
X109075453Y-173454000D01*
X117075825Y-181454373D01*
X117117779Y-181517161D01*
X117366524Y-181683368D01*
X117585877Y-181727000D01*
X117585880Y-181727000D01*
X117659939Y-181741731D01*
X117733998Y-181727000D01*
X125291296Y-181727000D01*
X125424959Y-181927041D01*
X125632357Y-182065620D01*
X125877000Y-182114283D01*
X126777000Y-182114283D01*
X127021643Y-182065620D01*
X127127000Y-181995223D01*
X127232357Y-182065620D01*
X127477000Y-182114283D01*
X128377000Y-182114283D01*
X128621643Y-182065620D01*
X128829041Y-181927041D01*
X128962704Y-181727000D01*
X128988871Y-181727000D01*
X128992380Y-181744643D01*
X129130959Y-181952041D01*
X129338357Y-182090620D01*
X129583000Y-182139283D01*
X133383000Y-182139283D01*
X133627643Y-182090620D01*
X133835041Y-181952041D01*
X133973620Y-181744643D01*
X134022283Y-181500000D01*
X134022283Y-180450000D01*
X133973620Y-180205357D01*
X133835041Y-179997959D01*
X133627643Y-179859380D01*
X133383000Y-179810717D01*
X129583000Y-179810717D01*
X129338357Y-179859380D01*
X129130959Y-179997959D01*
X128992380Y-180205357D01*
X128988871Y-180223000D01*
X128962704Y-180223000D01*
X128829041Y-180022959D01*
X128621643Y-179884380D01*
X128377000Y-179835717D01*
X127477000Y-179835717D01*
X127232357Y-179884380D01*
X127127000Y-179954777D01*
X127021643Y-179884380D01*
X126777000Y-179835717D01*
X125877000Y-179835717D01*
X125632357Y-179884380D01*
X125424959Y-180022959D01*
X125291296Y-180223000D01*
X117971428Y-180223000D01*
X109993000Y-172244573D01*
X109993000Y-172222717D01*
X109846485Y-171869000D01*
X110166392Y-171869000D01*
X110507103Y-171727873D01*
X110540976Y-171694000D01*
X113781000Y-171694000D01*
X113781000Y-171908283D01*
X113937352Y-172285749D01*
X114226251Y-172574648D01*
X114388930Y-172642032D01*
X120286998Y-179021576D01*
X120350054Y-179115946D01*
X120490874Y-179210039D01*
X120627894Y-179309574D01*
X120646534Y-179314048D01*
X120662475Y-179324699D01*
X120828592Y-179357742D01*
X120993264Y-179397263D01*
X121105361Y-179379500D01*
X137625835Y-179379500D01*
X137643717Y-179951736D01*
X137643717Y-183810000D01*
X137692380Y-184054643D01*
X137775836Y-184179544D01*
X137782960Y-184407508D01*
X137598000Y-184370717D01*
X137148000Y-184370717D01*
X137048000Y-184390608D01*
X136948000Y-184370717D01*
X136498000Y-184370717D01*
X136398000Y-184390608D01*
X136298000Y-184370717D01*
X136155002Y-184370717D01*
X136155002Y-184072717D01*
X135998650Y-183695251D01*
X135709751Y-183406352D01*
X135332285Y-183250000D01*
X134923719Y-183250000D01*
X134546253Y-183406352D01*
X134257354Y-183695251D01*
X134101002Y-184072717D01*
X134101002Y-184240513D01*
X133927515Y-184414000D01*
X130503057Y-184414000D01*
X130428999Y-184399269D01*
X130354941Y-184414000D01*
X130354937Y-184414000D01*
X130135584Y-184457632D01*
X130077470Y-184496463D01*
X129949625Y-184581886D01*
X129949623Y-184581888D01*
X129886839Y-184623839D01*
X129844887Y-184686624D01*
X125545513Y-188986000D01*
X97466488Y-188986000D01*
X93229000Y-184748513D01*
X93229000Y-184453717D01*
X93072648Y-184076251D01*
X92783749Y-183787352D01*
X92406283Y-183631000D01*
X91997717Y-183631000D01*
X91620251Y-183787352D01*
X91331352Y-184076251D01*
X91318285Y-184107797D01*
X88910769Y-181700282D01*
X88868814Y-181637492D01*
X88620069Y-181471285D01*
X88400716Y-181427653D01*
X88400712Y-181427653D01*
X88326653Y-181412922D01*
X88252594Y-181427653D01*
X83569744Y-181427653D01*
X83387596Y-181245505D01*
X83010130Y-181089153D01*
X82601564Y-181089153D01*
X82334675Y-181199702D01*
X82334675Y-178824812D01*
X83094488Y-178065000D01*
X83262283Y-178065000D01*
X83639749Y-177908648D01*
X83928648Y-177619749D01*
X84041885Y-177346370D01*
X87360347Y-177346370D01*
X87360347Y-177754936D01*
X87516699Y-178132402D01*
X87805598Y-178421301D01*
X88183064Y-178577653D01*
X88591630Y-178577653D01*
X88969096Y-178421301D01*
X89257995Y-178132402D01*
X89414347Y-177754936D01*
X89414347Y-177346370D01*
X89257995Y-176968904D01*
X88969096Y-176680005D01*
X88591630Y-176523653D01*
X88183064Y-176523653D01*
X87805598Y-176680005D01*
X87516699Y-176968904D01*
X87360347Y-177346370D01*
X84041885Y-177346370D01*
X84085000Y-177242283D01*
X84085000Y-176833717D01*
X83928648Y-176456251D01*
X83639749Y-176167352D01*
X83262283Y-176011000D01*
X82853717Y-176011000D01*
X82476251Y-176167352D01*
X82187352Y-176456251D01*
X82031000Y-176833717D01*
X82031000Y-177001512D01*
X81103302Y-177929211D01*
X81040515Y-177971164D01*
X80998562Y-178033951D01*
X80998561Y-178033952D01*
X80874307Y-178219910D01*
X80815944Y-178513325D01*
X80830676Y-178587389D01*
X80830675Y-184181618D01*
X80815944Y-184255677D01*
X80830675Y-184329736D01*
X80830675Y-184329739D01*
X80874307Y-184549092D01*
X81040514Y-184797838D01*
X81103304Y-184839793D01*
X85935886Y-189672377D01*
X85977838Y-189735162D01*
X86040622Y-189777113D01*
X86040625Y-189777116D01*
X86205511Y-189887289D01*
X86226583Y-189901369D01*
X86445936Y-189945001D01*
X86445940Y-189945001D01*
X86519999Y-189959732D01*
X86594058Y-189945001D01*
X87535514Y-189945001D01*
X88889000Y-191298488D01*
X88889000Y-191466283D01*
X89045352Y-191843749D01*
X89334251Y-192132648D01*
X89711717Y-192289000D01*
X89879513Y-192289000D01*
X90852175Y-193261663D01*
X90726810Y-193387028D01*
X90570458Y-193764494D01*
X90570458Y-194173060D01*
X90631323Y-194320000D01*
X89973488Y-194320000D01*
X87641000Y-191987513D01*
X87641000Y-191819717D01*
X87484648Y-191442251D01*
X87195749Y-191153352D01*
X86818283Y-190997000D01*
X86409717Y-190997000D01*
X86032251Y-191153352D01*
X85743352Y-191442251D01*
X85587000Y-191819717D01*
X85587000Y-192228283D01*
X85743352Y-192605749D01*
X86032251Y-192894648D01*
X86409717Y-193051000D01*
X86577513Y-193051000D01*
X89077885Y-195551373D01*
X89119839Y-195614161D01*
X89368584Y-195780368D01*
X89587937Y-195824000D01*
X89587941Y-195824000D01*
X89662000Y-195838731D01*
X89736059Y-195824000D01*
X92191000Y-195824000D01*
X92191000Y-196038283D01*
X92261299Y-196208000D01*
X67627229Y-196208000D01*
X67564000Y-196195423D01*
X67500772Y-196208000D01*
X67500771Y-196208000D01*
X67313504Y-196245250D01*
X67101144Y-196387144D01*
X66959250Y-196599504D01*
X66934685Y-196723000D01*
X58808000Y-196723000D01*
X58808000Y-184976250D01*
X72544000Y-184976250D01*
X72544000Y-185379786D01*
X72602004Y-185519820D01*
X72709181Y-185626996D01*
X72849215Y-185685000D01*
X73437750Y-185685000D01*
X73533000Y-185589750D01*
X73533000Y-184881000D01*
X73787000Y-184881000D01*
X73787000Y-185589750D01*
X73882250Y-185685000D01*
X74470785Y-185685000D01*
X74610819Y-185626996D01*
X74717996Y-185519820D01*
X74776000Y-185379786D01*
X74776000Y-184976250D01*
X75084000Y-184976250D01*
X75084000Y-185379786D01*
X75142004Y-185519820D01*
X75249181Y-185626996D01*
X75389215Y-185685000D01*
X75977750Y-185685000D01*
X76073000Y-185589750D01*
X76073000Y-184881000D01*
X76327000Y-184881000D01*
X76327000Y-185589750D01*
X76422250Y-185685000D01*
X77010785Y-185685000D01*
X77150819Y-185626996D01*
X77257996Y-185519820D01*
X77316000Y-185379786D01*
X77316000Y-184976250D01*
X77220750Y-184881000D01*
X76327000Y-184881000D01*
X76073000Y-184881000D01*
X75179250Y-184881000D01*
X75084000Y-184976250D01*
X74776000Y-184976250D01*
X74680750Y-184881000D01*
X73787000Y-184881000D01*
X73533000Y-184881000D01*
X72639250Y-184881000D01*
X72544000Y-184976250D01*
X58808000Y-184976250D01*
X58808000Y-181151717D01*
X71617000Y-181151717D01*
X71617000Y-181560283D01*
X71773352Y-181937749D01*
X71889933Y-182054330D01*
X71877269Y-182118000D01*
X71892000Y-182192059D01*
X71892000Y-182192063D01*
X71898880Y-182226648D01*
X71935632Y-182411415D01*
X72056188Y-182591839D01*
X72101840Y-182660161D01*
X72164627Y-182702114D01*
X72285717Y-182823204D01*
X72285717Y-183684000D01*
X72334380Y-183928643D01*
X72472959Y-184136041D01*
X72544000Y-184183509D01*
X72544000Y-184531750D01*
X72639250Y-184627000D01*
X73533000Y-184627000D01*
X73533000Y-184607000D01*
X73787000Y-184607000D01*
X73787000Y-184627000D01*
X74680750Y-184627000D01*
X74776000Y-184531750D01*
X74776000Y-184183509D01*
X74847041Y-184136041D01*
X74930000Y-184011884D01*
X75012959Y-184136041D01*
X75084000Y-184183509D01*
X75084000Y-184531750D01*
X75179250Y-184627000D01*
X76073000Y-184627000D01*
X76073000Y-184607000D01*
X76327000Y-184607000D01*
X76327000Y-184627000D01*
X77220750Y-184627000D01*
X77316000Y-184531750D01*
X77316000Y-184183509D01*
X77387041Y-184136041D01*
X77525620Y-183928643D01*
X77574283Y-183684000D01*
X77574283Y-182584000D01*
X77525620Y-182339357D01*
X77387041Y-182131959D01*
X77179643Y-181993380D01*
X76935000Y-181944717D01*
X75465000Y-181944717D01*
X75220357Y-181993380D01*
X75012959Y-182131959D01*
X74930000Y-182256116D01*
X74847041Y-182131959D01*
X74639643Y-181993380D01*
X74395000Y-181944717D01*
X73534204Y-181944717D01*
X73518335Y-181928848D01*
X73671000Y-181560283D01*
X73671000Y-181151717D01*
X73514648Y-180774251D01*
X73225749Y-180485352D01*
X72848283Y-180329000D01*
X72439717Y-180329000D01*
X72062251Y-180485352D01*
X71773352Y-180774251D01*
X71617000Y-181151717D01*
X58808000Y-181151717D01*
X58808000Y-178103717D01*
X66791000Y-178103717D01*
X66791000Y-178512283D01*
X66947352Y-178889749D01*
X67236251Y-179178648D01*
X67613717Y-179335000D01*
X68022283Y-179335000D01*
X68399749Y-179178648D01*
X68688648Y-178889749D01*
X68845000Y-178512283D01*
X68845000Y-178103717D01*
X68688648Y-177726251D01*
X68399749Y-177437352D01*
X68022283Y-177281000D01*
X67613717Y-177281000D01*
X67236251Y-177437352D01*
X66947352Y-177726251D01*
X66791000Y-178103717D01*
X58808000Y-178103717D01*
X58808000Y-175628000D01*
X72209717Y-175628000D01*
X72209717Y-178448000D01*
X72258380Y-178692643D01*
X72396959Y-178900041D01*
X72604357Y-179038620D01*
X72849000Y-179087283D01*
X73659000Y-179087283D01*
X73903643Y-179038620D01*
X74111041Y-178900041D01*
X74172380Y-178808240D01*
X74217719Y-178827020D01*
X74626285Y-178827020D01*
X75003751Y-178670668D01*
X75292650Y-178381769D01*
X75449002Y-178004303D01*
X75449002Y-177595737D01*
X75310039Y-177260250D01*
X75668000Y-177260250D01*
X75668000Y-178523785D01*
X75726004Y-178663819D01*
X75833180Y-178770996D01*
X75973214Y-178829000D01*
X76231750Y-178829000D01*
X76327000Y-178733750D01*
X76327000Y-177165000D01*
X76581000Y-177165000D01*
X76581000Y-178733750D01*
X76676250Y-178829000D01*
X76934786Y-178829000D01*
X77074820Y-178770996D01*
X77181996Y-178663819D01*
X77240000Y-178523785D01*
X77240000Y-177260250D01*
X77144750Y-177165000D01*
X76581000Y-177165000D01*
X76327000Y-177165000D01*
X75763250Y-177165000D01*
X75668000Y-177260250D01*
X75310039Y-177260250D01*
X75292650Y-177218271D01*
X75003751Y-176929372D01*
X74764942Y-176830454D01*
X74493116Y-176558628D01*
X74451161Y-176495839D01*
X74298283Y-176393689D01*
X74298283Y-175628000D01*
X74283209Y-175552215D01*
X75668000Y-175552215D01*
X75668000Y-176815750D01*
X75763250Y-176911000D01*
X76327000Y-176911000D01*
X76327000Y-175342250D01*
X76581000Y-175342250D01*
X76581000Y-176911000D01*
X77144750Y-176911000D01*
X77240000Y-176815750D01*
X77240000Y-175552215D01*
X77181996Y-175412181D01*
X77074820Y-175305004D01*
X76934786Y-175247000D01*
X76676250Y-175247000D01*
X76581000Y-175342250D01*
X76327000Y-175342250D01*
X76231750Y-175247000D01*
X75973214Y-175247000D01*
X75833180Y-175305004D01*
X75726004Y-175412181D01*
X75668000Y-175552215D01*
X74283209Y-175552215D01*
X74249620Y-175383357D01*
X74111041Y-175175959D01*
X73903643Y-175037380D01*
X73659000Y-174988717D01*
X72849000Y-174988717D01*
X72604357Y-175037380D01*
X72396959Y-175175959D01*
X72258380Y-175383357D01*
X72209717Y-175628000D01*
X58808000Y-175628000D01*
X58808000Y-174085250D01*
X97531000Y-174085250D01*
X97531000Y-174848785D01*
X97589004Y-174988819D01*
X97696180Y-175095996D01*
X97836214Y-175154000D01*
X97999750Y-175154000D01*
X98095000Y-175058750D01*
X98095000Y-173990000D01*
X98349000Y-173990000D01*
X98349000Y-175058750D01*
X98444250Y-175154000D01*
X98607786Y-175154000D01*
X98747820Y-175095996D01*
X98854996Y-174988819D01*
X98913000Y-174848785D01*
X98913000Y-174085250D01*
X98817750Y-173990000D01*
X98349000Y-173990000D01*
X98095000Y-173990000D01*
X97626250Y-173990000D01*
X97531000Y-174085250D01*
X58808000Y-174085250D01*
X58808000Y-172877215D01*
X97531000Y-172877215D01*
X97531000Y-173640750D01*
X97626250Y-173736000D01*
X98095000Y-173736000D01*
X98095000Y-172667250D01*
X98349000Y-172667250D01*
X98349000Y-173736000D01*
X98817750Y-173736000D01*
X98913000Y-173640750D01*
X98913000Y-172953000D01*
X100472717Y-172953000D01*
X100472717Y-174773000D01*
X100521380Y-175017643D01*
X100659959Y-175225041D01*
X100867357Y-175363620D01*
X101112000Y-175412283D01*
X101732000Y-175412283D01*
X101976643Y-175363620D01*
X102184041Y-175225041D01*
X102322620Y-175017643D01*
X102371283Y-174773000D01*
X102371283Y-174507311D01*
X102400184Y-174488000D01*
X103603770Y-174488000D01*
X103677829Y-174502731D01*
X103751888Y-174488000D01*
X103751892Y-174488000D01*
X103971245Y-174444368D01*
X104219990Y-174278161D01*
X104261945Y-174215371D01*
X105238317Y-173239000D01*
X105406112Y-173239000D01*
X105783578Y-173082648D01*
X106072477Y-172793749D01*
X106228829Y-172416283D01*
X106228829Y-172007717D01*
X106072477Y-171630251D01*
X105783578Y-171341352D01*
X105406112Y-171185000D01*
X104997546Y-171185000D01*
X104620080Y-171341352D01*
X104331181Y-171630251D01*
X104174829Y-172007717D01*
X104174829Y-172175512D01*
X103366342Y-172984000D01*
X102371283Y-172984000D01*
X102371283Y-172953000D01*
X102322620Y-172708357D01*
X102184041Y-172500959D01*
X101976643Y-172362380D01*
X101732000Y-172313717D01*
X101112000Y-172313717D01*
X100867357Y-172362380D01*
X100659959Y-172500959D01*
X100521380Y-172708357D01*
X100472717Y-172953000D01*
X98913000Y-172953000D01*
X98913000Y-172877215D01*
X98854996Y-172737181D01*
X98747820Y-172630004D01*
X98607786Y-172572000D01*
X98444250Y-172572000D01*
X98349000Y-172667250D01*
X98095000Y-172667250D01*
X97999750Y-172572000D01*
X97836214Y-172572000D01*
X97696180Y-172630004D01*
X97589004Y-172737181D01*
X97531000Y-172877215D01*
X58808000Y-172877215D01*
X58808000Y-158300000D01*
X62360717Y-158300000D01*
X62360717Y-159200000D01*
X62409380Y-159444643D01*
X62479777Y-159550000D01*
X62409380Y-159655357D01*
X62360717Y-159900000D01*
X62360717Y-160800000D01*
X62409380Y-161044643D01*
X62547959Y-161252041D01*
X62755357Y-161390620D01*
X63000000Y-161439283D01*
X63767717Y-161439283D01*
X63767717Y-161742000D01*
X63816380Y-161986643D01*
X63954959Y-162194041D01*
X64162357Y-162332620D01*
X64407000Y-162381283D01*
X65932000Y-162381283D01*
X66176643Y-162332620D01*
X66384041Y-162194041D01*
X66522620Y-161986643D01*
X66571283Y-161742000D01*
X66571283Y-161092000D01*
X66553662Y-161003412D01*
X66720159Y-160892161D01*
X66762114Y-160829371D01*
X68754000Y-158837485D01*
X68753999Y-164945245D01*
X68739268Y-165019304D01*
X68753999Y-165093363D01*
X68753999Y-165093366D01*
X68797631Y-165312719D01*
X68963838Y-165561465D01*
X69026628Y-165603420D01*
X71620346Y-168197140D01*
X71620346Y-168364934D01*
X71776698Y-168742400D01*
X72065597Y-169031299D01*
X72443063Y-169187651D01*
X72851629Y-169187651D01*
X73168944Y-169056214D01*
X73455717Y-169175000D01*
X73864283Y-169175000D01*
X74241749Y-169018648D01*
X74530648Y-168729749D01*
X74687000Y-168352283D01*
X74687000Y-167943717D01*
X74530648Y-167566251D01*
X74241749Y-167277352D01*
X73948098Y-167155717D01*
X81777000Y-167155717D01*
X81777000Y-167564283D01*
X81933352Y-167941749D01*
X82222251Y-168230648D01*
X82599717Y-168387000D01*
X83008283Y-168387000D01*
X83385749Y-168230648D01*
X83674648Y-167941749D01*
X83831000Y-167564283D01*
X83831000Y-167181717D01*
X85587000Y-167181717D01*
X85587000Y-167590283D01*
X85743352Y-167967749D01*
X86032251Y-168256648D01*
X86409717Y-168413000D01*
X86577513Y-168413000D01*
X87121885Y-168957373D01*
X87134020Y-168975534D01*
X87145380Y-169032643D01*
X87283959Y-169240041D01*
X87491357Y-169378620D01*
X87736000Y-169427283D01*
X89556000Y-169427283D01*
X89800643Y-169378620D01*
X90008041Y-169240041D01*
X90146620Y-169032643D01*
X90195283Y-168788000D01*
X90195283Y-168168000D01*
X90146620Y-167923357D01*
X90008041Y-167715959D01*
X89800643Y-167577380D01*
X89556000Y-167528717D01*
X87820205Y-167528717D01*
X87641000Y-167349513D01*
X87641000Y-167181717D01*
X87484648Y-166804251D01*
X87195749Y-166515352D01*
X86818283Y-166359000D01*
X86409717Y-166359000D01*
X86032251Y-166515352D01*
X85743352Y-166804251D01*
X85587000Y-167181717D01*
X83831000Y-167181717D01*
X83831000Y-167155717D01*
X83674648Y-166778251D01*
X83556000Y-166659603D01*
X83556000Y-164641717D01*
X84063000Y-164641717D01*
X84063000Y-165050283D01*
X84219352Y-165427749D01*
X84508251Y-165716648D01*
X84885717Y-165873000D01*
X85294283Y-165873000D01*
X85671749Y-165716648D01*
X85888147Y-165500250D01*
X87355000Y-165500250D01*
X87355000Y-165663786D01*
X87413004Y-165803820D01*
X87520181Y-165910996D01*
X87660215Y-165969000D01*
X88423750Y-165969000D01*
X88519000Y-165873750D01*
X88519000Y-165405000D01*
X88773000Y-165405000D01*
X88773000Y-165873750D01*
X88868250Y-165969000D01*
X89631785Y-165969000D01*
X89771819Y-165910996D01*
X89878996Y-165803820D01*
X89937000Y-165663786D01*
X89937000Y-165500250D01*
X89841750Y-165405000D01*
X88773000Y-165405000D01*
X88519000Y-165405000D01*
X87450250Y-165405000D01*
X87355000Y-165500250D01*
X85888147Y-165500250D01*
X85960648Y-165427749D01*
X86004347Y-165322250D01*
X97201000Y-165322250D01*
X97201000Y-166085785D01*
X97259004Y-166225819D01*
X97366180Y-166332996D01*
X97506214Y-166391000D01*
X97669750Y-166391000D01*
X97765000Y-166295750D01*
X97765000Y-165227000D01*
X98019000Y-165227000D01*
X98019000Y-166295750D01*
X98114250Y-166391000D01*
X98247881Y-166391000D01*
X98204717Y-166608000D01*
X98204717Y-167148000D01*
X98253380Y-167392643D01*
X98391959Y-167600041D01*
X98508633Y-167678000D01*
X98391959Y-167755959D01*
X98253380Y-167963357D01*
X98204717Y-168208000D01*
X98204717Y-168748000D01*
X98253380Y-168992643D01*
X98391959Y-169200041D01*
X98599357Y-169338620D01*
X98844000Y-169387283D01*
X99784000Y-169387283D01*
X100028643Y-169338620D01*
X100191204Y-169230000D01*
X100696603Y-169230000D01*
X100764251Y-169297648D01*
X101141717Y-169454000D01*
X101550283Y-169454000D01*
X101927749Y-169297648D01*
X102216648Y-169008749D01*
X102373000Y-168631283D01*
X102373000Y-168222717D01*
X102216648Y-167845251D01*
X102072922Y-167701525D01*
X102119000Y-167590283D01*
X102119000Y-167529752D01*
X102411717Y-167651000D01*
X102820283Y-167651000D01*
X103197749Y-167494648D01*
X103486648Y-167205749D01*
X103643000Y-166828283D01*
X103643000Y-166419717D01*
X103486648Y-166042251D01*
X103350244Y-165905847D01*
X103389000Y-165812283D01*
X103389000Y-165403717D01*
X103232648Y-165026251D01*
X102943749Y-164737352D01*
X102566283Y-164581000D01*
X102157717Y-164581000D01*
X102041283Y-164629229D01*
X102041283Y-164190000D01*
X101992620Y-163945357D01*
X101854041Y-163737959D01*
X101646643Y-163599380D01*
X101402000Y-163550717D01*
X100782000Y-163550717D01*
X100537357Y-163599380D01*
X100329959Y-163737959D01*
X100191380Y-163945357D01*
X100142717Y-164190000D01*
X100142717Y-166010000D01*
X100161896Y-166106417D01*
X100028643Y-166017380D01*
X99784000Y-165968717D01*
X98844000Y-165968717D01*
X98599357Y-166017380D01*
X98583000Y-166028309D01*
X98583000Y-165322250D01*
X98487750Y-165227000D01*
X98019000Y-165227000D01*
X97765000Y-165227000D01*
X97296250Y-165227000D01*
X97201000Y-165322250D01*
X86004347Y-165322250D01*
X86117000Y-165050283D01*
X86117000Y-164892214D01*
X87355000Y-164892214D01*
X87355000Y-165055750D01*
X87450250Y-165151000D01*
X88519000Y-165151000D01*
X88519000Y-164682250D01*
X88773000Y-164682250D01*
X88773000Y-165151000D01*
X89841750Y-165151000D01*
X89937000Y-165055750D01*
X89937000Y-164892214D01*
X89878996Y-164752180D01*
X89771819Y-164645004D01*
X89631785Y-164587000D01*
X88868250Y-164587000D01*
X88773000Y-164682250D01*
X88519000Y-164682250D01*
X88423750Y-164587000D01*
X87660215Y-164587000D01*
X87520181Y-164645004D01*
X87413004Y-164752180D01*
X87355000Y-164892214D01*
X86117000Y-164892214D01*
X86117000Y-164641717D01*
X85960648Y-164264251D01*
X85810612Y-164114215D01*
X97201000Y-164114215D01*
X97201000Y-164877750D01*
X97296250Y-164973000D01*
X97765000Y-164973000D01*
X97765000Y-163904250D01*
X98019000Y-163904250D01*
X98019000Y-164973000D01*
X98487750Y-164973000D01*
X98583000Y-164877750D01*
X98583000Y-164114215D01*
X98524996Y-163974181D01*
X98417820Y-163867004D01*
X98277786Y-163809000D01*
X98114250Y-163809000D01*
X98019000Y-163904250D01*
X97765000Y-163904250D01*
X97669750Y-163809000D01*
X97506214Y-163809000D01*
X97366180Y-163867004D01*
X97259004Y-163974181D01*
X97201000Y-164114215D01*
X85810612Y-164114215D01*
X85671749Y-163975352D01*
X85294283Y-163819000D01*
X84885717Y-163819000D01*
X84508251Y-163975352D01*
X84219352Y-164264251D01*
X84063000Y-164641717D01*
X83556000Y-164641717D01*
X83556000Y-162617487D01*
X93599237Y-152574250D01*
X110561000Y-152574250D01*
X110561000Y-152727786D01*
X110619004Y-152867820D01*
X110726181Y-152974996D01*
X110866215Y-153033000D01*
X111029750Y-153033000D01*
X111125000Y-152937750D01*
X111125000Y-152479000D01*
X110656250Y-152479000D01*
X110561000Y-152574250D01*
X93599237Y-152574250D01*
X95041487Y-151132000D01*
X110302717Y-151132000D01*
X110302717Y-151732000D01*
X110351380Y-151976643D01*
X110489959Y-152184041D01*
X110697357Y-152322620D01*
X110942000Y-152371283D01*
X111399000Y-152371283D01*
X111399000Y-152479000D01*
X111379000Y-152479000D01*
X111379000Y-152937750D01*
X111474250Y-153033000D01*
X111637785Y-153033000D01*
X111672000Y-153018828D01*
X111672000Y-153049002D01*
X111767248Y-153049002D01*
X111672000Y-153144250D01*
X111672000Y-153472786D01*
X111730004Y-153612820D01*
X111837181Y-153719996D01*
X111977215Y-153778000D01*
X112705750Y-153778000D01*
X112801000Y-153682750D01*
X112801000Y-153049000D01*
X113055000Y-153049000D01*
X113055000Y-153682750D01*
X113150250Y-153778000D01*
X113878785Y-153778000D01*
X114018819Y-153719996D01*
X114125996Y-153612820D01*
X114184000Y-153472786D01*
X114184000Y-153144250D01*
X114088750Y-153049000D01*
X113055000Y-153049000D01*
X112801000Y-153049000D01*
X112781000Y-153049000D01*
X112781000Y-152795000D01*
X112801000Y-152795000D01*
X112801000Y-152161250D01*
X113055000Y-152161250D01*
X113055000Y-152795000D01*
X114088750Y-152795000D01*
X114184000Y-152699750D01*
X114184000Y-152371214D01*
X114125996Y-152231180D01*
X114018819Y-152124004D01*
X113878785Y-152066000D01*
X113150250Y-152066000D01*
X113055000Y-152161250D01*
X112801000Y-152161250D01*
X112705750Y-152066000D01*
X112522715Y-152066000D01*
X112660161Y-151974161D01*
X112702116Y-151911371D01*
X112877204Y-151736283D01*
X113803000Y-151736283D01*
X114047643Y-151687620D01*
X114255041Y-151549041D01*
X114266097Y-151532494D01*
X114480251Y-151746648D01*
X114857717Y-151903000D01*
X115266283Y-151903000D01*
X115643749Y-151746648D01*
X115932648Y-151457749D01*
X116089000Y-151080283D01*
X116089000Y-150671717D01*
X115932648Y-150294251D01*
X115643749Y-150005352D01*
X115266283Y-149849000D01*
X114857717Y-149849000D01*
X114831363Y-149859916D01*
X114808000Y-149855269D01*
X114733941Y-149870000D01*
X114372000Y-149870000D01*
X114255041Y-149694959D01*
X114047643Y-149556380D01*
X113803000Y-149507717D01*
X112053000Y-149507717D01*
X111808357Y-149556380D01*
X111600959Y-149694959D01*
X111462380Y-149902357D01*
X111413717Y-150147000D01*
X111413717Y-150492717D01*
X110942000Y-150492717D01*
X110697357Y-150541380D01*
X110489959Y-150679959D01*
X110351380Y-150887357D01*
X110302717Y-151132000D01*
X95041487Y-151132000D01*
X96441238Y-149732250D01*
X110053000Y-149732250D01*
X110053000Y-149885786D01*
X110111004Y-150025820D01*
X110218181Y-150132996D01*
X110358215Y-150191000D01*
X110521750Y-150191000D01*
X110617000Y-150095750D01*
X110617000Y-149637000D01*
X110871000Y-149637000D01*
X110871000Y-150095750D01*
X110966250Y-150191000D01*
X111129785Y-150191000D01*
X111269819Y-150132996D01*
X111376996Y-150025820D01*
X111435000Y-149885786D01*
X111435000Y-149732250D01*
X111339750Y-149637000D01*
X110871000Y-149637000D01*
X110617000Y-149637000D01*
X110148250Y-149637000D01*
X110053000Y-149732250D01*
X96441238Y-149732250D01*
X96810489Y-149363000D01*
X96978283Y-149363000D01*
X97355749Y-149206648D01*
X97644648Y-148917749D01*
X97801000Y-148540283D01*
X97801000Y-148290000D01*
X109794717Y-148290000D01*
X109794717Y-148890000D01*
X109843380Y-149134643D01*
X109981959Y-149342041D01*
X110189357Y-149480620D01*
X110434000Y-149529283D01*
X111054000Y-149529283D01*
X111298643Y-149480620D01*
X111506041Y-149342041D01*
X111584570Y-149224514D01*
X111600959Y-149249041D01*
X111808357Y-149387620D01*
X112053000Y-149436283D01*
X112795032Y-149436283D01*
X112928000Y-149462732D01*
X113060968Y-149436283D01*
X113803000Y-149436283D01*
X114047643Y-149387620D01*
X114255041Y-149249041D01*
X114393620Y-149041643D01*
X114442283Y-148797000D01*
X114442283Y-147847000D01*
X114393620Y-147602357D01*
X114255041Y-147394959D01*
X114047643Y-147256380D01*
X113803000Y-147207717D01*
X113782000Y-147207717D01*
X113782000Y-146242397D01*
X113900648Y-146123749D01*
X114057000Y-145746283D01*
X114057000Y-145337717D01*
X113900648Y-144960251D01*
X113611749Y-144671352D01*
X113234283Y-144515000D01*
X112825717Y-144515000D01*
X112448251Y-144671352D01*
X112159352Y-144960251D01*
X112003000Y-145337717D01*
X112003000Y-145746283D01*
X112159352Y-146123749D01*
X112176001Y-146140398D01*
X112176001Y-147207717D01*
X112053000Y-147207717D01*
X111808357Y-147256380D01*
X111600959Y-147394959D01*
X111484000Y-147570000D01*
X111086058Y-147570000D01*
X111011999Y-147555269D01*
X110937940Y-147570000D01*
X110937937Y-147570000D01*
X110718584Y-147613632D01*
X110663083Y-147650717D01*
X110434000Y-147650717D01*
X110189357Y-147699380D01*
X109981959Y-147837959D01*
X109843380Y-148045357D01*
X109794717Y-148290000D01*
X97801000Y-148290000D01*
X97801000Y-148131717D01*
X97644648Y-147754251D01*
X97355749Y-147465352D01*
X96978283Y-147309000D01*
X96569717Y-147309000D01*
X96192251Y-147465352D01*
X95903352Y-147754251D01*
X95747000Y-148131717D01*
X95747000Y-148299511D01*
X82324628Y-161721885D01*
X82261840Y-161763839D01*
X82219887Y-161826626D01*
X82219886Y-161826627D01*
X82095632Y-162012585D01*
X82037269Y-162306000D01*
X82052001Y-162380064D01*
X82052000Y-166659603D01*
X81933352Y-166778251D01*
X81777000Y-167155717D01*
X73948098Y-167155717D01*
X73864283Y-167121000D01*
X73696488Y-167121000D01*
X73301999Y-166726512D01*
X73301999Y-166661058D01*
X73316730Y-166587000D01*
X73301999Y-166512942D01*
X73301999Y-166512938D01*
X73258367Y-166293585D01*
X73146390Y-166126000D01*
X73134113Y-166107626D01*
X73134111Y-166107624D01*
X73092160Y-166044840D01*
X73029376Y-166002889D01*
X71345500Y-164319015D01*
X71345500Y-162381283D01*
X71356000Y-162381283D01*
X71600643Y-162332620D01*
X71808041Y-162194041D01*
X71946620Y-161986643D01*
X71995283Y-161742000D01*
X71995283Y-161619461D01*
X72253282Y-161726328D01*
X72661848Y-161726328D01*
X73039314Y-161569976D01*
X73050007Y-161559283D01*
X74395000Y-161559283D01*
X74432001Y-161551923D01*
X74432000Y-165415603D01*
X74313352Y-165534251D01*
X74157000Y-165911717D01*
X74157000Y-166320283D01*
X74313352Y-166697749D01*
X74602251Y-166986648D01*
X74979717Y-167143000D01*
X75388283Y-167143000D01*
X75765749Y-166986648D01*
X76054648Y-166697749D01*
X76211000Y-166320283D01*
X76211000Y-165911717D01*
X76054648Y-165534251D01*
X75936000Y-165415603D01*
X75936000Y-157808063D01*
X75950732Y-157734000D01*
X75892368Y-157440584D01*
X75726161Y-157191839D01*
X75477416Y-157025632D01*
X75258063Y-156982000D01*
X75184000Y-156967268D01*
X75109937Y-156982000D01*
X74987488Y-156982000D01*
X73274652Y-155269165D01*
X73274652Y-155101369D01*
X73118300Y-154723903D01*
X72992942Y-154598545D01*
X78249487Y-149342000D01*
X81849603Y-149342000D01*
X81968251Y-149460648D01*
X82345717Y-149617000D01*
X82754283Y-149617000D01*
X83131749Y-149460648D01*
X83420648Y-149171749D01*
X83577000Y-148794283D01*
X83577000Y-148385717D01*
X83420648Y-148008251D01*
X83131749Y-147719352D01*
X82754283Y-147563000D01*
X82345717Y-147563000D01*
X81968251Y-147719352D01*
X81849603Y-147838000D01*
X79891054Y-147838000D01*
X80021000Y-147524283D01*
X80021000Y-147115717D01*
X79864648Y-146738251D01*
X79575749Y-146449352D01*
X79198283Y-146293000D01*
X78789717Y-146293000D01*
X78412251Y-146449352D01*
X78278544Y-146583059D01*
X78134899Y-146611632D01*
X77886154Y-146777839D01*
X77844200Y-146840627D01*
X68872612Y-155812215D01*
X68824000Y-155763603D01*
X68824000Y-152203487D01*
X68870487Y-152157000D01*
X69038283Y-152157000D01*
X69415749Y-152000648D01*
X69704648Y-151711749D01*
X69861000Y-151334283D01*
X69861000Y-150925717D01*
X69704648Y-150548251D01*
X69415749Y-150259352D01*
X69038283Y-150103000D01*
X68629717Y-150103000D01*
X68252251Y-150259352D01*
X67963352Y-150548251D01*
X67807000Y-150925717D01*
X67807000Y-151093513D01*
X67592629Y-151307884D01*
X67529839Y-151349839D01*
X67363632Y-151598585D01*
X67320000Y-151817938D01*
X67320000Y-151817941D01*
X67305269Y-151892000D01*
X67320000Y-151966059D01*
X67320001Y-155763602D01*
X67201352Y-155882251D01*
X67045000Y-156259717D01*
X67045000Y-156668283D01*
X67201352Y-157045749D01*
X67420215Y-157264612D01*
X66559828Y-158125000D01*
X66532893Y-158125000D01*
X66571283Y-157932000D01*
X66571283Y-157282000D01*
X66522620Y-157037357D01*
X66384041Y-156829959D01*
X66176643Y-156691380D01*
X65932000Y-156642717D01*
X64407000Y-156642717D01*
X64162357Y-156691380D01*
X63954959Y-156829959D01*
X63816380Y-157037357D01*
X63767717Y-157282000D01*
X63767717Y-157660717D01*
X63000000Y-157660717D01*
X62755357Y-157709380D01*
X62547959Y-157847959D01*
X62409380Y-158055357D01*
X62360717Y-158300000D01*
X58808000Y-158300000D01*
X58808000Y-150671717D01*
X61711000Y-150671717D01*
X61711000Y-151080283D01*
X61867352Y-151457749D01*
X62156251Y-151746648D01*
X62533717Y-151903000D01*
X62942283Y-151903000D01*
X63319749Y-151746648D01*
X63608648Y-151457749D01*
X63765000Y-151080283D01*
X63765000Y-150671717D01*
X63608648Y-150294251D01*
X63319749Y-150005352D01*
X62942283Y-149849000D01*
X62533717Y-149849000D01*
X62156251Y-150005352D01*
X61867352Y-150294251D01*
X61711000Y-150671717D01*
X58808000Y-150671717D01*
X58808000Y-136271000D01*
X66934685Y-136271000D01*
X66959250Y-136394496D01*
X67023373Y-136490463D01*
X67101144Y-136606856D01*
X67313504Y-136748750D01*
X67564000Y-136798577D01*
X67627228Y-136786000D01*
X108394771Y-136786000D01*
X108458000Y-136798577D01*
X108521228Y-136786000D01*
X108521229Y-136786000D01*
X108708496Y-136748750D01*
X108920856Y-136606856D01*
X109062750Y-136394496D01*
X109112577Y-136144000D01*
X109100000Y-136080771D01*
X109100000Y-135350250D01*
X129336000Y-135350250D01*
X129336000Y-135728786D01*
X129394004Y-135868820D01*
X129501181Y-135975996D01*
X129641215Y-136034000D01*
X131394750Y-136034000D01*
X131490000Y-135938750D01*
X131490000Y-135255000D01*
X131744000Y-135255000D01*
X131744000Y-135938750D01*
X131839250Y-136034000D01*
X133592785Y-136034000D01*
X133732819Y-135975996D01*
X133839996Y-135868820D01*
X133898000Y-135728786D01*
X133898000Y-135350250D01*
X133802750Y-135255000D01*
X131744000Y-135255000D01*
X131490000Y-135255000D01*
X129431250Y-135255000D01*
X129336000Y-135350250D01*
X109100000Y-135350250D01*
X109100000Y-134527214D01*
X129336000Y-134527214D01*
X129336000Y-134905750D01*
X129431250Y-135001000D01*
X131490000Y-135001000D01*
X131490000Y-134317250D01*
X131744000Y-134317250D01*
X131744000Y-135001000D01*
X133802750Y-135001000D01*
X133898000Y-134905750D01*
X133898000Y-134527214D01*
X133839996Y-134387180D01*
X133732819Y-134280004D01*
X133592785Y-134222000D01*
X131839250Y-134222000D01*
X131744000Y-134317250D01*
X131490000Y-134317250D01*
X131394750Y-134222000D01*
X129641215Y-134222000D01*
X129501181Y-134280004D01*
X129394004Y-134387180D01*
X129336000Y-134527214D01*
X109100000Y-134527214D01*
X109100000Y-118659379D01*
X129758226Y-118659379D01*
X129821590Y-118813294D01*
X130193885Y-118930359D01*
X130582639Y-118896042D01*
X130782410Y-118813294D01*
X130845774Y-118659379D01*
X130302000Y-118115605D01*
X129758226Y-118659379D01*
X109100000Y-118659379D01*
X109100000Y-117827885D01*
X129307641Y-117827885D01*
X129341958Y-118216639D01*
X129424706Y-118416410D01*
X129578621Y-118479774D01*
X130122395Y-117936000D01*
X130481605Y-117936000D01*
X131025379Y-118479774D01*
X131179294Y-118416410D01*
X131296359Y-118044115D01*
X131262042Y-117655361D01*
X131179294Y-117455590D01*
X131025379Y-117392226D01*
X130481605Y-117936000D01*
X130122395Y-117936000D01*
X129578621Y-117392226D01*
X129424706Y-117455590D01*
X129307641Y-117827885D01*
X109100000Y-117827885D01*
X109100000Y-117212621D01*
X129758226Y-117212621D01*
X130302000Y-117756395D01*
X130845774Y-117212621D01*
X130782410Y-117058706D01*
X130410115Y-116941641D01*
X130021361Y-116975958D01*
X129821590Y-117058706D01*
X129758226Y-117212621D01*
X109100000Y-117212621D01*
X109100000Y-110117379D01*
X129758226Y-110117379D01*
X129821590Y-110271294D01*
X130193885Y-110388359D01*
X130582639Y-110354042D01*
X130782410Y-110271294D01*
X130845774Y-110117379D01*
X130302000Y-109573605D01*
X129758226Y-110117379D01*
X109100000Y-110117379D01*
X109100000Y-109285885D01*
X129307641Y-109285885D01*
X129341958Y-109674639D01*
X129424706Y-109874410D01*
X129578621Y-109937774D01*
X130122395Y-109394000D01*
X130481605Y-109394000D01*
X131025379Y-109937774D01*
X131179294Y-109874410D01*
X131296359Y-109502115D01*
X131262042Y-109113361D01*
X131179294Y-108913590D01*
X131025379Y-108850226D01*
X130481605Y-109394000D01*
X130122395Y-109394000D01*
X129578621Y-108850226D01*
X129424706Y-108913590D01*
X129307641Y-109285885D01*
X109100000Y-109285885D01*
X109100000Y-107759229D01*
X109112577Y-107696000D01*
X109062750Y-107445504D01*
X108920856Y-107233144D01*
X108708496Y-107091250D01*
X108585000Y-107066685D01*
X108585000Y-98940000D01*
X136772000Y-98940000D01*
X136772000Y-99049365D01*
G36*
X71665903Y-156176300D02*
X72043369Y-156332652D01*
X72211165Y-156332652D01*
X73789881Y-157911369D01*
X73787000Y-157914250D01*
X73787000Y-158623000D01*
X73807000Y-158623000D01*
X73807000Y-158877000D01*
X73787000Y-158877000D01*
X73787000Y-158897000D01*
X73533000Y-158897000D01*
X73533000Y-158877000D01*
X72639250Y-158877000D01*
X72544000Y-158972250D01*
X72544000Y-159320491D01*
X72472959Y-159367959D01*
X72334380Y-159575357D01*
X72315091Y-159672328D01*
X72253282Y-159672328D01*
X71987417Y-159782453D01*
X71946620Y-159577357D01*
X71808041Y-159369959D01*
X71722497Y-159312800D01*
X71737000Y-159277786D01*
X71737000Y-159099250D01*
X71641750Y-159004000D01*
X70720500Y-159004000D01*
X70720500Y-159024000D01*
X70466500Y-159024000D01*
X70466500Y-159004000D01*
X70446500Y-159004000D01*
X70446500Y-158750000D01*
X70466500Y-158750000D01*
X70466500Y-158730000D01*
X70720500Y-158730000D01*
X70720500Y-158750000D01*
X71641750Y-158750000D01*
X71737000Y-158654750D01*
X71737000Y-158476214D01*
X71722497Y-158441200D01*
X71808041Y-158384041D01*
X71946620Y-158176643D01*
X71957048Y-158124214D01*
X72544000Y-158124214D01*
X72544000Y-158527750D01*
X72639250Y-158623000D01*
X73533000Y-158623000D01*
X73533000Y-157914250D01*
X73437750Y-157819000D01*
X72849215Y-157819000D01*
X72709181Y-157877004D01*
X72602004Y-157984180D01*
X72544000Y-158124214D01*
X71957048Y-158124214D01*
X71995283Y-157932000D01*
X71995283Y-157282000D01*
X71946620Y-157037357D01*
X71808041Y-156829959D01*
X71600643Y-156691380D01*
X71356000Y-156642717D01*
X70948769Y-156642717D01*
X71540544Y-156050941D01*
X71665903Y-156176300D01*
X71665903Y-156176300D01*
G37*
X71665903Y-156176300D02*
X72043369Y-156332652D01*
X72211165Y-156332652D01*
X73789881Y-157911369D01*
X73787000Y-157914250D01*
X73787000Y-158623000D01*
X73807000Y-158623000D01*
X73807000Y-158877000D01*
X73787000Y-158877000D01*
X73787000Y-158897000D01*
X73533000Y-158897000D01*
X73533000Y-158877000D01*
X72639250Y-158877000D01*
X72544000Y-158972250D01*
X72544000Y-159320491D01*
X72472959Y-159367959D01*
X72334380Y-159575357D01*
X72315091Y-159672328D01*
X72253282Y-159672328D01*
X71987417Y-159782453D01*
X71946620Y-159577357D01*
X71808041Y-159369959D01*
X71722497Y-159312800D01*
X71737000Y-159277786D01*
X71737000Y-159099250D01*
X71641750Y-159004000D01*
X70720500Y-159004000D01*
X70720500Y-159024000D01*
X70466500Y-159024000D01*
X70466500Y-159004000D01*
X70446500Y-159004000D01*
X70446500Y-158750000D01*
X70466500Y-158750000D01*
X70466500Y-158730000D01*
X70720500Y-158730000D01*
X70720500Y-158750000D01*
X71641750Y-158750000D01*
X71737000Y-158654750D01*
X71737000Y-158476214D01*
X71722497Y-158441200D01*
X71808041Y-158384041D01*
X71946620Y-158176643D01*
X71957048Y-158124214D01*
X72544000Y-158124214D01*
X72544000Y-158527750D01*
X72639250Y-158623000D01*
X73533000Y-158623000D01*
X73533000Y-157914250D01*
X73437750Y-157819000D01*
X72849215Y-157819000D01*
X72709181Y-157877004D01*
X72602004Y-157984180D01*
X72544000Y-158124214D01*
X71957048Y-158124214D01*
X71995283Y-157932000D01*
X71995283Y-157282000D01*
X71946620Y-157037357D01*
X71808041Y-156829959D01*
X71600643Y-156691380D01*
X71356000Y-156642717D01*
X70948769Y-156642717D01*
X71540544Y-156050941D01*
X71665903Y-156176300D01*
G36*
X132054717Y-186634000D02*
X132054717Y-187254000D01*
X132103380Y-187498643D01*
X132241959Y-187706041D01*
X132449357Y-187844620D01*
X132694000Y-187893283D01*
X134514000Y-187893283D01*
X134758643Y-187844620D01*
X134966041Y-187706041D01*
X134972750Y-187696000D01*
X135387456Y-187696000D01*
X135527352Y-188033739D01*
X135816251Y-188322638D01*
X136193717Y-188478990D01*
X136602283Y-188478990D01*
X136979749Y-188322638D01*
X137268648Y-188033739D01*
X137425000Y-187656273D01*
X137425000Y-187429936D01*
X137431368Y-187420406D01*
X137475000Y-187201053D01*
X137475000Y-187201049D01*
X137489731Y-187126991D01*
X137484220Y-187099283D01*
X137598000Y-187099283D01*
X137842643Y-187050620D01*
X137967717Y-186967048D01*
X137967717Y-188738409D01*
X137780584Y-188775632D01*
X137686703Y-188838361D01*
X137598000Y-188820717D01*
X137148000Y-188820717D01*
X136903357Y-188869380D01*
X136695959Y-189007959D01*
X136648491Y-189079000D01*
X136595998Y-189079000D01*
X136595998Y-189157561D01*
X136595122Y-189158872D01*
X136515250Y-189079000D01*
X136422214Y-189079000D01*
X136398000Y-189089030D01*
X136373786Y-189079000D01*
X136280750Y-189079000D01*
X136200878Y-189158872D01*
X136200002Y-189157561D01*
X136200002Y-189079000D01*
X136147509Y-189079000D01*
X136100041Y-189007959D01*
X135892643Y-188869380D01*
X135648000Y-188820717D01*
X135198000Y-188820717D01*
X134953357Y-188869380D01*
X134745959Y-189007959D01*
X134607380Y-189215357D01*
X134560109Y-189453000D01*
X133826250Y-189453000D01*
X133731000Y-189548250D01*
X133731000Y-190017000D01*
X133751000Y-190017000D01*
X133751000Y-190271000D01*
X133731000Y-190271000D01*
X133731000Y-190739750D01*
X133826250Y-190835000D01*
X134558717Y-190835000D01*
X134558717Y-190910000D01*
X134607380Y-191154643D01*
X134745959Y-191362041D01*
X134953357Y-191500620D01*
X135198000Y-191549283D01*
X135648000Y-191549283D01*
X135892643Y-191500620D01*
X136100041Y-191362041D01*
X136147509Y-191291000D01*
X136200002Y-191291000D01*
X136200002Y-191212439D01*
X136200878Y-191211128D01*
X136280750Y-191291000D01*
X136373786Y-191291000D01*
X136398000Y-191280970D01*
X136422214Y-191291000D01*
X136515250Y-191291000D01*
X136595122Y-191211128D01*
X136595998Y-191212439D01*
X136595998Y-191291000D01*
X136648491Y-191291000D01*
X136695959Y-191362041D01*
X136903357Y-191500620D01*
X137148000Y-191549283D01*
X137598000Y-191549283D01*
X137842643Y-191500620D01*
X137967717Y-191417048D01*
X137967717Y-192284000D01*
X137973560Y-192313374D01*
X125636755Y-192313374D01*
X125638570Y-192312161D01*
X125680525Y-192249371D01*
X127563646Y-190366250D01*
X132313000Y-190366250D01*
X132313000Y-190529786D01*
X132371004Y-190669820D01*
X132478181Y-190776996D01*
X132618215Y-190835000D01*
X133381750Y-190835000D01*
X133477000Y-190739750D01*
X133477000Y-190271000D01*
X132408250Y-190271000D01*
X132313000Y-190366250D01*
X127563646Y-190366250D01*
X128171682Y-189758214D01*
X132313000Y-189758214D01*
X132313000Y-189921750D01*
X132408250Y-190017000D01*
X133477000Y-190017000D01*
X133477000Y-189548250D01*
X133381750Y-189453000D01*
X132618215Y-189453000D01*
X132478181Y-189511004D01*
X132371004Y-189618180D01*
X132313000Y-189758214D01*
X128171682Y-189758214D01*
X131442897Y-186487000D01*
X132083957Y-186487000D01*
X132054717Y-186634000D01*
X132054717Y-186634000D01*
G37*
X132054717Y-186634000D02*
X132054717Y-187254000D01*
X132103380Y-187498643D01*
X132241959Y-187706041D01*
X132449357Y-187844620D01*
X132694000Y-187893283D01*
X134514000Y-187893283D01*
X134758643Y-187844620D01*
X134966041Y-187706041D01*
X134972750Y-187696000D01*
X135387456Y-187696000D01*
X135527352Y-188033739D01*
X135816251Y-188322638D01*
X136193717Y-188478990D01*
X136602283Y-188478990D01*
X136979749Y-188322638D01*
X137268648Y-188033739D01*
X137425000Y-187656273D01*
X137425000Y-187429936D01*
X137431368Y-187420406D01*
X137475000Y-187201053D01*
X137475000Y-187201049D01*
X137489731Y-187126991D01*
X137484220Y-187099283D01*
X137598000Y-187099283D01*
X137842643Y-187050620D01*
X137967717Y-186967048D01*
X137967717Y-188738409D01*
X137780584Y-188775632D01*
X137686703Y-188838361D01*
X137598000Y-188820717D01*
X137148000Y-188820717D01*
X136903357Y-188869380D01*
X136695959Y-189007959D01*
X136648491Y-189079000D01*
X136595998Y-189079000D01*
X136595998Y-189157561D01*
X136595122Y-189158872D01*
X136515250Y-189079000D01*
X136422214Y-189079000D01*
X136398000Y-189089030D01*
X136373786Y-189079000D01*
X136280750Y-189079000D01*
X136200878Y-189158872D01*
X136200002Y-189157561D01*
X136200002Y-189079000D01*
X136147509Y-189079000D01*
X136100041Y-189007959D01*
X135892643Y-188869380D01*
X135648000Y-188820717D01*
X135198000Y-188820717D01*
X134953357Y-188869380D01*
X134745959Y-189007959D01*
X134607380Y-189215357D01*
X134560109Y-189453000D01*
X133826250Y-189453000D01*
X133731000Y-189548250D01*
X133731000Y-190017000D01*
X133751000Y-190017000D01*
X133751000Y-190271000D01*
X133731000Y-190271000D01*
X133731000Y-190739750D01*
X133826250Y-190835000D01*
X134558717Y-190835000D01*
X134558717Y-190910000D01*
X134607380Y-191154643D01*
X134745959Y-191362041D01*
X134953357Y-191500620D01*
X135198000Y-191549283D01*
X135648000Y-191549283D01*
X135892643Y-191500620D01*
X136100041Y-191362041D01*
X136147509Y-191291000D01*
X136200002Y-191291000D01*
X136200002Y-191212439D01*
X136200878Y-191211128D01*
X136280750Y-191291000D01*
X136373786Y-191291000D01*
X136398000Y-191280970D01*
X136422214Y-191291000D01*
X136515250Y-191291000D01*
X136595122Y-191211128D01*
X136595998Y-191212439D01*
X136595998Y-191291000D01*
X136648491Y-191291000D01*
X136695959Y-191362041D01*
X136903357Y-191500620D01*
X137148000Y-191549283D01*
X137598000Y-191549283D01*
X137842643Y-191500620D01*
X137967717Y-191417048D01*
X137967717Y-192284000D01*
X137973560Y-192313374D01*
X125636755Y-192313374D01*
X125638570Y-192312161D01*
X125680525Y-192249371D01*
X127563646Y-190366250D01*
X132313000Y-190366250D01*
X132313000Y-190529786D01*
X132371004Y-190669820D01*
X132478181Y-190776996D01*
X132618215Y-190835000D01*
X133381750Y-190835000D01*
X133477000Y-190739750D01*
X133477000Y-190271000D01*
X132408250Y-190271000D01*
X132313000Y-190366250D01*
X127563646Y-190366250D01*
X128171682Y-189758214D01*
X132313000Y-189758214D01*
X132313000Y-189921750D01*
X132408250Y-190017000D01*
X133477000Y-190017000D01*
X133477000Y-189548250D01*
X133381750Y-189453000D01*
X132618215Y-189453000D01*
X132478181Y-189511004D01*
X132371004Y-189618180D01*
X132313000Y-189758214D01*
X128171682Y-189758214D01*
X131442897Y-186487000D01*
X132083957Y-186487000D01*
X132054717Y-186634000D01*
G36*
X91429000Y-186345489D02*
X91429000Y-186513283D01*
X91585352Y-186890749D01*
X91874251Y-187179648D01*
X92251717Y-187336000D01*
X92660283Y-187336000D01*
X93037749Y-187179648D01*
X93285455Y-186931942D01*
X96570885Y-190217373D01*
X96612839Y-190280161D01*
X96861584Y-190446368D01*
X97080937Y-190490000D01*
X97080941Y-190490000D01*
X97155000Y-190504731D01*
X97229059Y-190490000D01*
X125312922Y-190490000D01*
X124784922Y-191018000D01*
X96069488Y-191018000D01*
X93294118Y-188242631D01*
X93294114Y-188242625D01*
X92786116Y-187734628D01*
X92744161Y-187671839D01*
X92495416Y-187505632D01*
X92276063Y-187462000D01*
X92276059Y-187462000D01*
X92202000Y-187447269D01*
X92127941Y-187462000D01*
X91300491Y-187462000D01*
X88812138Y-184973649D01*
X88770183Y-184910859D01*
X88521438Y-184744652D01*
X88302085Y-184701020D01*
X88302081Y-184701020D01*
X88228022Y-184686289D01*
X88153963Y-184701020D01*
X87784297Y-184701020D01*
X87665649Y-184582372D01*
X87288183Y-184426020D01*
X86879617Y-184426020D01*
X86502151Y-184582372D01*
X86213252Y-184871271D01*
X86056900Y-185248737D01*
X86056900Y-185657303D01*
X86213252Y-186034769D01*
X86502151Y-186323668D01*
X86879617Y-186480020D01*
X87288183Y-186480020D01*
X87665649Y-186323668D01*
X87784297Y-186205020D01*
X87916535Y-186205020D01*
X90404889Y-188693376D01*
X90446841Y-188756161D01*
X90509625Y-188798112D01*
X90509627Y-188798114D01*
X90661939Y-188899886D01*
X90695586Y-188922368D01*
X90914939Y-188966000D01*
X90914942Y-188966000D01*
X90989001Y-188980731D01*
X91063060Y-188966000D01*
X91890512Y-188966000D01*
X92230625Y-189306114D01*
X92230631Y-189306118D01*
X95173885Y-192249373D01*
X95182740Y-192262625D01*
X93053115Y-192262625D01*
X88779118Y-187988629D01*
X88737163Y-187925839D01*
X88488418Y-187759632D01*
X88269065Y-187716000D01*
X88269061Y-187716000D01*
X88195002Y-187701269D01*
X88120943Y-187716000D01*
X87568397Y-187716000D01*
X87449749Y-187597352D01*
X87072283Y-187441000D01*
X86663717Y-187441000D01*
X86286251Y-187597352D01*
X86137045Y-187746558D01*
X82742395Y-184351910D01*
X82935873Y-184351910D01*
X83313339Y-184195558D01*
X83602238Y-183906659D01*
X83758590Y-183529193D01*
X83758590Y-183120627D01*
X83680314Y-182931653D01*
X88015166Y-182931653D01*
X91429000Y-186345489D01*
X91429000Y-186345489D01*
G37*
X91429000Y-186345489D02*
X91429000Y-186513283D01*
X91585352Y-186890749D01*
X91874251Y-187179648D01*
X92251717Y-187336000D01*
X92660283Y-187336000D01*
X93037749Y-187179648D01*
X93285455Y-186931942D01*
X96570885Y-190217373D01*
X96612839Y-190280161D01*
X96861584Y-190446368D01*
X97080937Y-190490000D01*
X97080941Y-190490000D01*
X97155000Y-190504731D01*
X97229059Y-190490000D01*
X125312922Y-190490000D01*
X124784922Y-191018000D01*
X96069488Y-191018000D01*
X93294118Y-188242631D01*
X93294114Y-188242625D01*
X92786116Y-187734628D01*
X92744161Y-187671839D01*
X92495416Y-187505632D01*
X92276063Y-187462000D01*
X92276059Y-187462000D01*
X92202000Y-187447269D01*
X92127941Y-187462000D01*
X91300491Y-187462000D01*
X88812138Y-184973649D01*
X88770183Y-184910859D01*
X88521438Y-184744652D01*
X88302085Y-184701020D01*
X88302081Y-184701020D01*
X88228022Y-184686289D01*
X88153963Y-184701020D01*
X87784297Y-184701020D01*
X87665649Y-184582372D01*
X87288183Y-184426020D01*
X86879617Y-184426020D01*
X86502151Y-184582372D01*
X86213252Y-184871271D01*
X86056900Y-185248737D01*
X86056900Y-185657303D01*
X86213252Y-186034769D01*
X86502151Y-186323668D01*
X86879617Y-186480020D01*
X87288183Y-186480020D01*
X87665649Y-186323668D01*
X87784297Y-186205020D01*
X87916535Y-186205020D01*
X90404889Y-188693376D01*
X90446841Y-188756161D01*
X90509625Y-188798112D01*
X90509627Y-188798114D01*
X90661939Y-188899886D01*
X90695586Y-188922368D01*
X90914939Y-188966000D01*
X90914942Y-188966000D01*
X90989001Y-188980731D01*
X91063060Y-188966000D01*
X91890512Y-188966000D01*
X92230625Y-189306114D01*
X92230631Y-189306118D01*
X95173885Y-192249373D01*
X95182740Y-192262625D01*
X93053115Y-192262625D01*
X88779118Y-187988629D01*
X88737163Y-187925839D01*
X88488418Y-187759632D01*
X88269065Y-187716000D01*
X88269061Y-187716000D01*
X88195002Y-187701269D01*
X88120943Y-187716000D01*
X87568397Y-187716000D01*
X87449749Y-187597352D01*
X87072283Y-187441000D01*
X86663717Y-187441000D01*
X86286251Y-187597352D01*
X86137045Y-187746558D01*
X82742395Y-184351910D01*
X82935873Y-184351910D01*
X83313339Y-184195558D01*
X83602238Y-183906659D01*
X83758590Y-183529193D01*
X83758590Y-183120627D01*
X83680314Y-182931653D01*
X88015166Y-182931653D01*
X91429000Y-186345489D01*
G36*
X138154717Y-169585613D02*
X138033143Y-169504380D01*
X137788500Y-169455717D01*
X137338500Y-169455717D01*
X137093857Y-169504380D01*
X136886459Y-169642959D01*
X136838991Y-169714000D01*
X136786498Y-169714000D01*
X136786498Y-169792561D01*
X136785622Y-169793872D01*
X136705750Y-169714000D01*
X136612714Y-169714000D01*
X136588500Y-169724030D01*
X136564286Y-169714000D01*
X136471250Y-169714000D01*
X136391378Y-169793872D01*
X136390502Y-169792561D01*
X136390502Y-169714000D01*
X136338009Y-169714000D01*
X136290541Y-169642959D01*
X136083143Y-169504380D01*
X135838500Y-169455717D01*
X135388500Y-169455717D01*
X135143857Y-169504380D01*
X134936459Y-169642959D01*
X134818832Y-169819000D01*
X134080250Y-169819000D01*
X133985000Y-169914250D01*
X133985000Y-170383000D01*
X134005000Y-170383000D01*
X134005000Y-170637000D01*
X133985000Y-170637000D01*
X133985000Y-171105750D01*
X134080250Y-171201000D01*
X134749217Y-171201000D01*
X134749217Y-171545000D01*
X134797880Y-171789643D01*
X134917054Y-171968000D01*
X134635295Y-171968000D01*
X133665503Y-171171247D01*
X133731000Y-171105750D01*
X133731000Y-170637000D01*
X133711000Y-170637000D01*
X133711000Y-170383000D01*
X133731000Y-170383000D01*
X133731000Y-169914250D01*
X133635750Y-169819000D01*
X133374999Y-169819000D01*
X133374999Y-168259283D01*
X134768000Y-168259283D01*
X134919215Y-168229204D01*
X135063384Y-168373373D01*
X135105338Y-168436161D01*
X135354083Y-168602368D01*
X135573436Y-168646000D01*
X135573440Y-168646000D01*
X135647499Y-168660731D01*
X135701577Y-168649974D01*
X135816251Y-168764648D01*
X136193717Y-168921000D01*
X136602283Y-168921000D01*
X136979749Y-168764648D01*
X137268648Y-168475749D01*
X137425000Y-168098283D01*
X137425000Y-167941148D01*
X137455661Y-167920661D01*
X137580195Y-167734283D01*
X137788500Y-167734283D01*
X138033143Y-167685620D01*
X138154717Y-167604387D01*
X138154717Y-169585613D01*
X138154717Y-169585613D01*
G37*
X138154717Y-169585613D02*
X138033143Y-169504380D01*
X137788500Y-169455717D01*
X137338500Y-169455717D01*
X137093857Y-169504380D01*
X136886459Y-169642959D01*
X136838991Y-169714000D01*
X136786498Y-169714000D01*
X136786498Y-169792561D01*
X136785622Y-169793872D01*
X136705750Y-169714000D01*
X136612714Y-169714000D01*
X136588500Y-169724030D01*
X136564286Y-169714000D01*
X136471250Y-169714000D01*
X136391378Y-169793872D01*
X136390502Y-169792561D01*
X136390502Y-169714000D01*
X136338009Y-169714000D01*
X136290541Y-169642959D01*
X136083143Y-169504380D01*
X135838500Y-169455717D01*
X135388500Y-169455717D01*
X135143857Y-169504380D01*
X134936459Y-169642959D01*
X134818832Y-169819000D01*
X134080250Y-169819000D01*
X133985000Y-169914250D01*
X133985000Y-170383000D01*
X134005000Y-170383000D01*
X134005000Y-170637000D01*
X133985000Y-170637000D01*
X133985000Y-171105750D01*
X134080250Y-171201000D01*
X134749217Y-171201000D01*
X134749217Y-171545000D01*
X134797880Y-171789643D01*
X134917054Y-171968000D01*
X134635295Y-171968000D01*
X133665503Y-171171247D01*
X133731000Y-171105750D01*
X133731000Y-170637000D01*
X133711000Y-170637000D01*
X133711000Y-170383000D01*
X133731000Y-170383000D01*
X133731000Y-169914250D01*
X133635750Y-169819000D01*
X133374999Y-169819000D01*
X133374999Y-168259283D01*
X134768000Y-168259283D01*
X134919215Y-168229204D01*
X135063384Y-168373373D01*
X135105338Y-168436161D01*
X135354083Y-168602368D01*
X135573436Y-168646000D01*
X135573440Y-168646000D01*
X135647499Y-168660731D01*
X135701577Y-168649974D01*
X135816251Y-168764648D01*
X136193717Y-168921000D01*
X136602283Y-168921000D01*
X136979749Y-168764648D01*
X137268648Y-168475749D01*
X137425000Y-168098283D01*
X137425000Y-167941148D01*
X137455661Y-167920661D01*
X137580195Y-167734283D01*
X137788500Y-167734283D01*
X138033143Y-167685620D01*
X138154717Y-167604387D01*
X138154717Y-169585613D01*
G36*
X131800717Y-146538000D02*
X131849380Y-146782643D01*
X131935173Y-146911041D01*
X131821583Y-146933635D01*
X131572838Y-147099842D01*
X131530884Y-147162630D01*
X131219627Y-147473888D01*
X131156840Y-147515841D01*
X131114887Y-147578628D01*
X131114886Y-147578629D01*
X130990632Y-147764587D01*
X130932269Y-148058002D01*
X130947001Y-148132065D01*
X130947000Y-149785941D01*
X130932269Y-149860000D01*
X130947000Y-149934059D01*
X130947000Y-149934062D01*
X130990632Y-150153415D01*
X131156839Y-150402161D01*
X131219629Y-150444116D01*
X133019885Y-152244373D01*
X133061839Y-152307161D01*
X133310584Y-152473368D01*
X133529937Y-152517000D01*
X133529941Y-152517000D01*
X133604000Y-152531731D01*
X133678059Y-152517000D01*
X137437574Y-152517000D01*
X137590143Y-157297500D01*
X125183584Y-157297500D01*
X125090568Y-157278998D01*
X124997552Y-157297500D01*
X124997548Y-157297500D01*
X124722044Y-157352301D01*
X124409623Y-157561054D01*
X124356929Y-157639916D01*
X114764994Y-167231851D01*
X114565820Y-167314352D01*
X114276921Y-167603251D01*
X114120569Y-167980717D01*
X114120569Y-168303999D01*
X111023142Y-168303999D01*
X110927977Y-168074251D01*
X110639078Y-167785352D01*
X110594772Y-167767000D01*
X110639078Y-167748648D01*
X110927977Y-167459749D01*
X111084329Y-167082283D01*
X111084329Y-166673717D01*
X110927977Y-166296251D01*
X110639078Y-166007352D01*
X110261612Y-165851000D01*
X110046095Y-165851000D01*
X109972000Y-165783571D01*
X109972000Y-164395487D01*
X113874118Y-160493370D01*
X113886001Y-160495734D01*
X113960060Y-160481003D01*
X113960064Y-160481003D01*
X114179417Y-160437371D01*
X114428162Y-160271164D01*
X114470117Y-160208374D01*
X119227045Y-155451447D01*
X119215411Y-155509935D01*
X119178997Y-155693000D01*
X119197500Y-155786020D01*
X119197501Y-157076543D01*
X119115000Y-157275717D01*
X119115000Y-157684283D01*
X119271352Y-158061749D01*
X119560251Y-158350648D01*
X119861205Y-158475307D01*
X113755513Y-164581000D01*
X113587717Y-164581000D01*
X113210251Y-164737352D01*
X112921352Y-165026251D01*
X112765000Y-165403717D01*
X112765000Y-165812283D01*
X112921352Y-166189749D01*
X113210251Y-166478648D01*
X113587717Y-166635000D01*
X113996283Y-166635000D01*
X114373749Y-166478648D01*
X114662648Y-166189749D01*
X114819000Y-165812283D01*
X114819000Y-165644487D01*
X121647373Y-158816115D01*
X121710160Y-158774162D01*
X121876367Y-158525417D01*
X121919999Y-158306064D01*
X121919999Y-158306060D01*
X121934730Y-158232001D01*
X121919999Y-158157942D01*
X121919999Y-156130488D01*
X122126237Y-155924250D01*
X129336000Y-155924250D01*
X129336000Y-156302786D01*
X129394004Y-156442820D01*
X129501181Y-156549996D01*
X129641215Y-156608000D01*
X131394750Y-156608000D01*
X131490000Y-156512750D01*
X131490000Y-155829000D01*
X131744000Y-155829000D01*
X131744000Y-156512750D01*
X131839250Y-156608000D01*
X133592785Y-156608000D01*
X133732819Y-156549996D01*
X133839996Y-156442820D01*
X133898000Y-156302786D01*
X133898000Y-155924250D01*
X133802750Y-155829000D01*
X131744000Y-155829000D01*
X131490000Y-155829000D01*
X129431250Y-155829000D01*
X129336000Y-155924250D01*
X122126237Y-155924250D01*
X122949273Y-155101214D01*
X129336000Y-155101214D01*
X129336000Y-155479750D01*
X129431250Y-155575000D01*
X131490000Y-155575000D01*
X131490000Y-154891250D01*
X131744000Y-154891250D01*
X131744000Y-155575000D01*
X133802750Y-155575000D01*
X133898000Y-155479750D01*
X133898000Y-155101214D01*
X133839996Y-154961180D01*
X133732819Y-154854004D01*
X133592785Y-154796000D01*
X131839250Y-154796000D01*
X131744000Y-154891250D01*
X131490000Y-154891250D01*
X131394750Y-154796000D01*
X129641215Y-154796000D01*
X129501181Y-154854004D01*
X129394004Y-154961180D01*
X129336000Y-155101214D01*
X122949273Y-155101214D01*
X131800717Y-146249771D01*
X131800717Y-146538000D01*
X131800717Y-146538000D01*
G37*
X131800717Y-146538000D02*
X131849380Y-146782643D01*
X131935173Y-146911041D01*
X131821583Y-146933635D01*
X131572838Y-147099842D01*
X131530884Y-147162630D01*
X131219627Y-147473888D01*
X131156840Y-147515841D01*
X131114887Y-147578628D01*
X131114886Y-147578629D01*
X130990632Y-147764587D01*
X130932269Y-148058002D01*
X130947001Y-148132065D01*
X130947000Y-149785941D01*
X130932269Y-149860000D01*
X130947000Y-149934059D01*
X130947000Y-149934062D01*
X130990632Y-150153415D01*
X131156839Y-150402161D01*
X131219629Y-150444116D01*
X133019885Y-152244373D01*
X133061839Y-152307161D01*
X133310584Y-152473368D01*
X133529937Y-152517000D01*
X133529941Y-152517000D01*
X133604000Y-152531731D01*
X133678059Y-152517000D01*
X137437574Y-152517000D01*
X137590143Y-157297500D01*
X125183584Y-157297500D01*
X125090568Y-157278998D01*
X124997552Y-157297500D01*
X124997548Y-157297500D01*
X124722044Y-157352301D01*
X124409623Y-157561054D01*
X124356929Y-157639916D01*
X114764994Y-167231851D01*
X114565820Y-167314352D01*
X114276921Y-167603251D01*
X114120569Y-167980717D01*
X114120569Y-168303999D01*
X111023142Y-168303999D01*
X110927977Y-168074251D01*
X110639078Y-167785352D01*
X110594772Y-167767000D01*
X110639078Y-167748648D01*
X110927977Y-167459749D01*
X111084329Y-167082283D01*
X111084329Y-166673717D01*
X110927977Y-166296251D01*
X110639078Y-166007352D01*
X110261612Y-165851000D01*
X110046095Y-165851000D01*
X109972000Y-165783571D01*
X109972000Y-164395487D01*
X113874118Y-160493370D01*
X113886001Y-160495734D01*
X113960060Y-160481003D01*
X113960064Y-160481003D01*
X114179417Y-160437371D01*
X114428162Y-160271164D01*
X114470117Y-160208374D01*
X119227045Y-155451447D01*
X119215411Y-155509935D01*
X119178997Y-155693000D01*
X119197500Y-155786020D01*
X119197501Y-157076543D01*
X119115000Y-157275717D01*
X119115000Y-157684283D01*
X119271352Y-158061749D01*
X119560251Y-158350648D01*
X119861205Y-158475307D01*
X113755513Y-164581000D01*
X113587717Y-164581000D01*
X113210251Y-164737352D01*
X112921352Y-165026251D01*
X112765000Y-165403717D01*
X112765000Y-165812283D01*
X112921352Y-166189749D01*
X113210251Y-166478648D01*
X113587717Y-166635000D01*
X113996283Y-166635000D01*
X114373749Y-166478648D01*
X114662648Y-166189749D01*
X114819000Y-165812283D01*
X114819000Y-165644487D01*
X121647373Y-158816115D01*
X121710160Y-158774162D01*
X121876367Y-158525417D01*
X121919999Y-158306064D01*
X121919999Y-158306060D01*
X121934730Y-158232001D01*
X121919999Y-158157942D01*
X121919999Y-156130488D01*
X122126237Y-155924250D01*
X129336000Y-155924250D01*
X129336000Y-156302786D01*
X129394004Y-156442820D01*
X129501181Y-156549996D01*
X129641215Y-156608000D01*
X131394750Y-156608000D01*
X131490000Y-156512750D01*
X131490000Y-155829000D01*
X131744000Y-155829000D01*
X131744000Y-156512750D01*
X131839250Y-156608000D01*
X133592785Y-156608000D01*
X133732819Y-156549996D01*
X133839996Y-156442820D01*
X133898000Y-156302786D01*
X133898000Y-155924250D01*
X133802750Y-155829000D01*
X131744000Y-155829000D01*
X131490000Y-155829000D01*
X129431250Y-155829000D01*
X129336000Y-155924250D01*
X122126237Y-155924250D01*
X122949273Y-155101214D01*
X129336000Y-155101214D01*
X129336000Y-155479750D01*
X129431250Y-155575000D01*
X131490000Y-155575000D01*
X131490000Y-154891250D01*
X131744000Y-154891250D01*
X131744000Y-155575000D01*
X133802750Y-155575000D01*
X133898000Y-155479750D01*
X133898000Y-155101214D01*
X133839996Y-154961180D01*
X133732819Y-154854004D01*
X133592785Y-154796000D01*
X131839250Y-154796000D01*
X131744000Y-154891250D01*
X131490000Y-154891250D01*
X131394750Y-154796000D01*
X129641215Y-154796000D01*
X129501181Y-154854004D01*
X129394004Y-154961180D01*
X129336000Y-155101214D01*
X122949273Y-155101214D01*
X131800717Y-146249771D01*
X131800717Y-146538000D01*
G36*
X137777717Y-163174804D02*
X137777717Y-163332000D01*
X125233487Y-163332000D01*
X126644205Y-161921283D01*
X127120000Y-161921283D01*
X127364643Y-161872620D01*
X127470000Y-161802223D01*
X127575357Y-161872620D01*
X127820000Y-161921283D01*
X128720000Y-161921283D01*
X128964643Y-161872620D01*
X129172041Y-161734041D01*
X129210148Y-161677010D01*
X129264959Y-161759041D01*
X129472357Y-161897620D01*
X129717000Y-161946283D01*
X133517000Y-161946283D01*
X133761643Y-161897620D01*
X133969041Y-161759041D01*
X134107620Y-161551643D01*
X134156283Y-161307000D01*
X134156283Y-160257000D01*
X134107620Y-160012357D01*
X133969041Y-159804959D01*
X133761643Y-159666380D01*
X133517000Y-159617717D01*
X129717000Y-159617717D01*
X129472357Y-159666380D01*
X129264959Y-159804959D01*
X129210148Y-159886990D01*
X129172041Y-159829959D01*
X128964643Y-159691380D01*
X128720000Y-159642717D01*
X127820000Y-159642717D01*
X127575357Y-159691380D01*
X127470000Y-159761777D01*
X127364643Y-159691380D01*
X127120000Y-159642717D01*
X126220000Y-159642717D01*
X125975357Y-159691380D01*
X125767959Y-159829959D01*
X125629380Y-160037357D01*
X125580717Y-160282000D01*
X125580717Y-160857795D01*
X123655514Y-162782999D01*
X122366397Y-162782999D01*
X122247749Y-162664351D01*
X122075352Y-162592941D01*
X125481793Y-159186500D01*
X137650431Y-159186500D01*
X137777717Y-163174804D01*
X137777717Y-163174804D01*
G37*
X137777717Y-163174804D02*
X137777717Y-163332000D01*
X125233487Y-163332000D01*
X126644205Y-161921283D01*
X127120000Y-161921283D01*
X127364643Y-161872620D01*
X127470000Y-161802223D01*
X127575357Y-161872620D01*
X127820000Y-161921283D01*
X128720000Y-161921283D01*
X128964643Y-161872620D01*
X129172041Y-161734041D01*
X129210148Y-161677010D01*
X129264959Y-161759041D01*
X129472357Y-161897620D01*
X129717000Y-161946283D01*
X133517000Y-161946283D01*
X133761643Y-161897620D01*
X133969041Y-161759041D01*
X134107620Y-161551643D01*
X134156283Y-161307000D01*
X134156283Y-160257000D01*
X134107620Y-160012357D01*
X133969041Y-159804959D01*
X133761643Y-159666380D01*
X133517000Y-159617717D01*
X129717000Y-159617717D01*
X129472357Y-159666380D01*
X129264959Y-159804959D01*
X129210148Y-159886990D01*
X129172041Y-159829959D01*
X128964643Y-159691380D01*
X128720000Y-159642717D01*
X127820000Y-159642717D01*
X127575357Y-159691380D01*
X127470000Y-159761777D01*
X127364643Y-159691380D01*
X127120000Y-159642717D01*
X126220000Y-159642717D01*
X125975357Y-159691380D01*
X125767959Y-159829959D01*
X125629380Y-160037357D01*
X125580717Y-160282000D01*
X125580717Y-160857795D01*
X123655514Y-162782999D01*
X122366397Y-162782999D01*
X122247749Y-162664351D01*
X122075352Y-162592941D01*
X125481793Y-159186500D01*
X137650431Y-159186500D01*
X137777717Y-163174804D01*
G36*
X138397254Y-145091000D02*
X138263380Y-145291357D01*
X138214717Y-145536000D01*
X138214717Y-148092000D01*
X137711559Y-148092000D01*
X137637500Y-148077269D01*
X137563441Y-148092000D01*
X137563437Y-148092000D01*
X137344084Y-148135632D01*
X137095339Y-148301839D01*
X137053385Y-148364627D01*
X136665796Y-148752217D01*
X136640000Y-148752217D01*
X136395357Y-148800880D01*
X136187959Y-148939459D01*
X136140491Y-149010500D01*
X136087998Y-149010500D01*
X136087998Y-149089061D01*
X136087122Y-149090372D01*
X136007250Y-149010500D01*
X135914214Y-149010500D01*
X135890000Y-149020530D01*
X135865786Y-149010500D01*
X135772750Y-149010500D01*
X135692878Y-149090372D01*
X135692002Y-149089061D01*
X135692002Y-149010500D01*
X135639509Y-149010500D01*
X135592041Y-148939459D01*
X135384643Y-148800880D01*
X135140000Y-148752217D01*
X134690000Y-148752217D01*
X134475520Y-148794880D01*
X134335785Y-148737000D01*
X133572250Y-148737000D01*
X133477000Y-148832250D01*
X133477000Y-149301000D01*
X133497000Y-149301000D01*
X133497000Y-149555000D01*
X133477000Y-149555000D01*
X133477000Y-150023750D01*
X133572250Y-150119000D01*
X134050717Y-150119000D01*
X134050717Y-150841500D01*
X134084831Y-151013000D01*
X133915488Y-151013000D01*
X133021487Y-150119000D01*
X133127750Y-150119000D01*
X133223000Y-150023750D01*
X133223000Y-149555000D01*
X133203000Y-149555000D01*
X133203000Y-149301000D01*
X133223000Y-149301000D01*
X133223000Y-148832250D01*
X133127750Y-148737000D01*
X132451000Y-148737000D01*
X132451000Y-148394003D01*
X133840438Y-148394003D01*
X133914497Y-148408734D01*
X133988556Y-148394003D01*
X133988560Y-148394003D01*
X134207913Y-148350371D01*
X134456658Y-148184164D01*
X134498613Y-148121374D01*
X135394374Y-147225614D01*
X135457161Y-147183661D01*
X135559311Y-147030783D01*
X135790000Y-147030783D01*
X135890000Y-147010892D01*
X135990000Y-147030783D01*
X136440000Y-147030783D01*
X136540000Y-147010892D01*
X136640000Y-147030783D01*
X137090000Y-147030783D01*
X137334643Y-146982120D01*
X137542041Y-146843541D01*
X137680620Y-146636143D01*
X137729283Y-146391500D01*
X137729283Y-145365704D01*
X138141988Y-144953000D01*
X138305046Y-144953000D01*
X138397254Y-145091000D01*
X138397254Y-145091000D01*
G37*
X138397254Y-145091000D02*
X138263380Y-145291357D01*
X138214717Y-145536000D01*
X138214717Y-148092000D01*
X137711559Y-148092000D01*
X137637500Y-148077269D01*
X137563441Y-148092000D01*
X137563437Y-148092000D01*
X137344084Y-148135632D01*
X137095339Y-148301839D01*
X137053385Y-148364627D01*
X136665796Y-148752217D01*
X136640000Y-148752217D01*
X136395357Y-148800880D01*
X136187959Y-148939459D01*
X136140491Y-149010500D01*
X136087998Y-149010500D01*
X136087998Y-149089061D01*
X136087122Y-149090372D01*
X136007250Y-149010500D01*
X135914214Y-149010500D01*
X135890000Y-149020530D01*
X135865786Y-149010500D01*
X135772750Y-149010500D01*
X135692878Y-149090372D01*
X135692002Y-149089061D01*
X135692002Y-149010500D01*
X135639509Y-149010500D01*
X135592041Y-148939459D01*
X135384643Y-148800880D01*
X135140000Y-148752217D01*
X134690000Y-148752217D01*
X134475520Y-148794880D01*
X134335785Y-148737000D01*
X133572250Y-148737000D01*
X133477000Y-148832250D01*
X133477000Y-149301000D01*
X133497000Y-149301000D01*
X133497000Y-149555000D01*
X133477000Y-149555000D01*
X133477000Y-150023750D01*
X133572250Y-150119000D01*
X134050717Y-150119000D01*
X134050717Y-150841500D01*
X134084831Y-151013000D01*
X133915488Y-151013000D01*
X133021487Y-150119000D01*
X133127750Y-150119000D01*
X133223000Y-150023750D01*
X133223000Y-149555000D01*
X133203000Y-149555000D01*
X133203000Y-149301000D01*
X133223000Y-149301000D01*
X133223000Y-148832250D01*
X133127750Y-148737000D01*
X132451000Y-148737000D01*
X132451000Y-148394003D01*
X133840438Y-148394003D01*
X133914497Y-148408734D01*
X133988556Y-148394003D01*
X133988560Y-148394003D01*
X134207913Y-148350371D01*
X134456658Y-148184164D01*
X134498613Y-148121374D01*
X135394374Y-147225614D01*
X135457161Y-147183661D01*
X135559311Y-147030783D01*
X135790000Y-147030783D01*
X135890000Y-147010892D01*
X135990000Y-147030783D01*
X136440000Y-147030783D01*
X136540000Y-147010892D01*
X136640000Y-147030783D01*
X137090000Y-147030783D01*
X137334643Y-146982120D01*
X137542041Y-146843541D01*
X137680620Y-146636143D01*
X137729283Y-146391500D01*
X137729283Y-145365704D01*
X138141988Y-144953000D01*
X138305046Y-144953000D01*
X138397254Y-145091000D01*
G04 #@! TO.N,SUPPLY*
G36*
X136613000Y-126803406D02*
X121227000Y-126852594D01*
X121227000Y-123158250D01*
X129321000Y-123158250D01*
X129321000Y-123573525D01*
X129335642Y-123647134D01*
X129364362Y-123716471D01*
X129406058Y-123778874D01*
X129459127Y-123831942D01*
X129521529Y-123873638D01*
X129590867Y-123902358D01*
X129664475Y-123917000D01*
X130079750Y-123917000D01*
X130175000Y-123821750D01*
X130175000Y-123063000D01*
X130429000Y-123063000D01*
X130429000Y-123821750D01*
X130524250Y-123917000D01*
X130939525Y-123917000D01*
X131013133Y-123902358D01*
X131082471Y-123873638D01*
X131144873Y-123831942D01*
X131197942Y-123778874D01*
X131239638Y-123716471D01*
X131268358Y-123647134D01*
X131283000Y-123573525D01*
X131283000Y-123158250D01*
X131187750Y-123063000D01*
X130429000Y-123063000D01*
X130175000Y-123063000D01*
X129416250Y-123063000D01*
X129321000Y-123158250D01*
X121227000Y-123158250D01*
X121227000Y-122298475D01*
X129321000Y-122298475D01*
X129321000Y-122713750D01*
X129416250Y-122809000D01*
X130175000Y-122809000D01*
X130175000Y-122050250D01*
X130429000Y-122050250D01*
X130429000Y-122809000D01*
X131187750Y-122809000D01*
X131283000Y-122713750D01*
X131283000Y-122298475D01*
X131268358Y-122224866D01*
X131239638Y-122155529D01*
X131197942Y-122093126D01*
X131144873Y-122040058D01*
X131082471Y-121998362D01*
X131013133Y-121969642D01*
X130939525Y-121955000D01*
X130524250Y-121955000D01*
X130429000Y-122050250D01*
X130175000Y-122050250D01*
X130079750Y-121955000D01*
X129664475Y-121955000D01*
X129590867Y-121969642D01*
X129521529Y-121998362D01*
X129459127Y-122040058D01*
X129406058Y-122093126D01*
X129364362Y-122155529D01*
X129335642Y-122224866D01*
X129321000Y-122298475D01*
X121227000Y-122298475D01*
X121227000Y-120986150D01*
X133020852Y-120906997D01*
X133045612Y-120904391D01*
X133069387Y-120897004D01*
X133091265Y-120885121D01*
X133110403Y-120869198D01*
X133126068Y-120849847D01*
X133137656Y-120827812D01*
X133144723Y-120803940D01*
X133147000Y-120779853D01*
X133132000Y-107819853D01*
X133129531Y-107795079D01*
X133122276Y-107771263D01*
X133110515Y-107749320D01*
X133094699Y-107730094D01*
X133075435Y-107714322D01*
X133053465Y-107702611D01*
X133029632Y-107695412D01*
X133004614Y-107693001D01*
X113394405Y-107752637D01*
X113201485Y-104616250D01*
X129321000Y-104616250D01*
X129321000Y-105031525D01*
X129335642Y-105105134D01*
X129364362Y-105174471D01*
X129406058Y-105236874D01*
X129459127Y-105289942D01*
X129521529Y-105331638D01*
X129590867Y-105360358D01*
X129664475Y-105375000D01*
X130079750Y-105375000D01*
X130175000Y-105279750D01*
X130175000Y-104521000D01*
X130429000Y-104521000D01*
X130429000Y-105279750D01*
X130524250Y-105375000D01*
X130939525Y-105375000D01*
X131013133Y-105360358D01*
X131082471Y-105331638D01*
X131144873Y-105289942D01*
X131197942Y-105236874D01*
X131239638Y-105174471D01*
X131268358Y-105105134D01*
X131283000Y-105031525D01*
X131283000Y-104616250D01*
X131187750Y-104521000D01*
X130429000Y-104521000D01*
X130175000Y-104521000D01*
X129416250Y-104521000D01*
X129321000Y-104616250D01*
X113201485Y-104616250D01*
X113148600Y-103756475D01*
X129321000Y-103756475D01*
X129321000Y-104171750D01*
X129416250Y-104267000D01*
X130175000Y-104267000D01*
X130175000Y-103508250D01*
X130429000Y-103508250D01*
X130429000Y-104267000D01*
X131187750Y-104267000D01*
X131283000Y-104171750D01*
X131283000Y-103756475D01*
X131268358Y-103682866D01*
X131239638Y-103613529D01*
X131197942Y-103551126D01*
X131144873Y-103498058D01*
X131082471Y-103456362D01*
X131013133Y-103427642D01*
X130939525Y-103413000D01*
X130524250Y-103413000D01*
X130429000Y-103508250D01*
X130175000Y-103508250D01*
X130079750Y-103413000D01*
X129664475Y-103413000D01*
X129590867Y-103427642D01*
X129521529Y-103456362D01*
X129459127Y-103498058D01*
X129406058Y-103551126D01*
X129364362Y-103613529D01*
X129335642Y-103682866D01*
X129321000Y-103756475D01*
X113148600Y-103756475D01*
X112905051Y-99797000D01*
X136613000Y-99797000D01*
X136613000Y-126803406D01*
X136613000Y-126803406D01*
G37*
X136613000Y-126803406D02*
X121227000Y-126852594D01*
X121227000Y-123158250D01*
X129321000Y-123158250D01*
X129321000Y-123573525D01*
X129335642Y-123647134D01*
X129364362Y-123716471D01*
X129406058Y-123778874D01*
X129459127Y-123831942D01*
X129521529Y-123873638D01*
X129590867Y-123902358D01*
X129664475Y-123917000D01*
X130079750Y-123917000D01*
X130175000Y-123821750D01*
X130175000Y-123063000D01*
X130429000Y-123063000D01*
X130429000Y-123821750D01*
X130524250Y-123917000D01*
X130939525Y-123917000D01*
X131013133Y-123902358D01*
X131082471Y-123873638D01*
X131144873Y-123831942D01*
X131197942Y-123778874D01*
X131239638Y-123716471D01*
X131268358Y-123647134D01*
X131283000Y-123573525D01*
X131283000Y-123158250D01*
X131187750Y-123063000D01*
X130429000Y-123063000D01*
X130175000Y-123063000D01*
X129416250Y-123063000D01*
X129321000Y-123158250D01*
X121227000Y-123158250D01*
X121227000Y-122298475D01*
X129321000Y-122298475D01*
X129321000Y-122713750D01*
X129416250Y-122809000D01*
X130175000Y-122809000D01*
X130175000Y-122050250D01*
X130429000Y-122050250D01*
X130429000Y-122809000D01*
X131187750Y-122809000D01*
X131283000Y-122713750D01*
X131283000Y-122298475D01*
X131268358Y-122224866D01*
X131239638Y-122155529D01*
X131197942Y-122093126D01*
X131144873Y-122040058D01*
X131082471Y-121998362D01*
X131013133Y-121969642D01*
X130939525Y-121955000D01*
X130524250Y-121955000D01*
X130429000Y-122050250D01*
X130175000Y-122050250D01*
X130079750Y-121955000D01*
X129664475Y-121955000D01*
X129590867Y-121969642D01*
X129521529Y-121998362D01*
X129459127Y-122040058D01*
X129406058Y-122093126D01*
X129364362Y-122155529D01*
X129335642Y-122224866D01*
X129321000Y-122298475D01*
X121227000Y-122298475D01*
X121227000Y-120986150D01*
X133020852Y-120906997D01*
X133045612Y-120904391D01*
X133069387Y-120897004D01*
X133091265Y-120885121D01*
X133110403Y-120869198D01*
X133126068Y-120849847D01*
X133137656Y-120827812D01*
X133144723Y-120803940D01*
X133147000Y-120779853D01*
X133132000Y-107819853D01*
X133129531Y-107795079D01*
X133122276Y-107771263D01*
X133110515Y-107749320D01*
X133094699Y-107730094D01*
X133075435Y-107714322D01*
X133053465Y-107702611D01*
X133029632Y-107695412D01*
X133004614Y-107693001D01*
X113394405Y-107752637D01*
X113201485Y-104616250D01*
X129321000Y-104616250D01*
X129321000Y-105031525D01*
X129335642Y-105105134D01*
X129364362Y-105174471D01*
X129406058Y-105236874D01*
X129459127Y-105289942D01*
X129521529Y-105331638D01*
X129590867Y-105360358D01*
X129664475Y-105375000D01*
X130079750Y-105375000D01*
X130175000Y-105279750D01*
X130175000Y-104521000D01*
X130429000Y-104521000D01*
X130429000Y-105279750D01*
X130524250Y-105375000D01*
X130939525Y-105375000D01*
X131013133Y-105360358D01*
X131082471Y-105331638D01*
X131144873Y-105289942D01*
X131197942Y-105236874D01*
X131239638Y-105174471D01*
X131268358Y-105105134D01*
X131283000Y-105031525D01*
X131283000Y-104616250D01*
X131187750Y-104521000D01*
X130429000Y-104521000D01*
X130175000Y-104521000D01*
X129416250Y-104521000D01*
X129321000Y-104616250D01*
X113201485Y-104616250D01*
X113148600Y-103756475D01*
X129321000Y-103756475D01*
X129321000Y-104171750D01*
X129416250Y-104267000D01*
X130175000Y-104267000D01*
X130175000Y-103508250D01*
X130429000Y-103508250D01*
X130429000Y-104267000D01*
X131187750Y-104267000D01*
X131283000Y-104171750D01*
X131283000Y-103756475D01*
X131268358Y-103682866D01*
X131239638Y-103613529D01*
X131197942Y-103551126D01*
X131144873Y-103498058D01*
X131082471Y-103456362D01*
X131013133Y-103427642D01*
X130939525Y-103413000D01*
X130524250Y-103413000D01*
X130429000Y-103508250D01*
X130175000Y-103508250D01*
X130079750Y-103413000D01*
X129664475Y-103413000D01*
X129590867Y-103427642D01*
X129521529Y-103456362D01*
X129459127Y-103498058D01*
X129406058Y-103551126D01*
X129364362Y-103613529D01*
X129335642Y-103682866D01*
X129321000Y-103756475D01*
X113148600Y-103756475D01*
X112905051Y-99797000D01*
X136613000Y-99797000D01*
X136613000Y-126803406D01*
G04 #@! TD*
M02*
