G04 #@! TF.GenerationSoftware,KiCad,Pcbnew,5.0.2+dfsg1-1*
G04 #@! TF.CreationDate,2019-09-10T17:39:56-04:00*
G04 #@! TF.ProjectId,DSC_motor_controller,4453435f-6d6f-4746-9f72-5f636f6e7472,rev?*
G04 #@! TF.SameCoordinates,Original*
G04 #@! TF.FileFunction,Legend,Bot*
G04 #@! TF.FilePolarity,Positive*
%FSLAX46Y46*%
G04 Gerber Fmt 4.6, Leading zero omitted, Abs format (unit mm)*
G04 Created by KiCad (PCBNEW 5.0.2+dfsg1-1) date Tue 10 Sep 2019 05:39:56 PM EDT*
%MOMM*%
%LPD*%
G01*
G04 APERTURE LIST*
%ADD10C,0.150000*%
%ADD11C,0.200000*%
%ADD12C,0.254000*%
G04 APERTURE END LIST*
D10*
X105030821Y-199600004D02*
X104459399Y-199597243D01*
X104745110Y-199598623D02*
X104749941Y-198598635D01*
X104654014Y-198741030D01*
X104558317Y-198835807D01*
X104462850Y-198882966D01*
X105654693Y-198603006D02*
X105749930Y-198603466D01*
X105844936Y-198651545D01*
X105892325Y-198699393D01*
X105939483Y-198794860D01*
X105986182Y-198985564D01*
X105985031Y-199223657D01*
X105936493Y-199413900D01*
X105888414Y-199508907D01*
X105840566Y-199556296D01*
X105745099Y-199603454D01*
X105649862Y-199602994D01*
X105554855Y-199554916D01*
X105507466Y-199507067D01*
X105460308Y-199411600D01*
X105413610Y-199220896D01*
X105414760Y-198982804D01*
X105463298Y-198792560D01*
X105511377Y-198697553D01*
X105559226Y-198650164D01*
X105654693Y-198603006D01*
X106892773Y-198608987D02*
X106416588Y-198606687D01*
X106366670Y-199082641D01*
X106414518Y-199035253D01*
X106509985Y-198988095D01*
X106748078Y-198989245D01*
X106843084Y-199037323D01*
X106890473Y-199085172D01*
X106937631Y-199180639D01*
X106936481Y-199418731D01*
X106888403Y-199513738D01*
X106840554Y-199561127D01*
X106745087Y-199608285D01*
X106506995Y-199607135D01*
X106411988Y-199559056D01*
X106364599Y-199511208D01*
X107364587Y-199516039D02*
X107411976Y-199563887D01*
X107364127Y-199611276D01*
X107316739Y-199563427D01*
X107364587Y-199516039D01*
X107364127Y-199611276D01*
X108364116Y-199616107D02*
X107792694Y-199613346D01*
X108078405Y-199614726D02*
X108083236Y-198614738D01*
X107987309Y-198757133D01*
X107891611Y-198851910D01*
X107796144Y-198899069D01*
X109273698Y-198620489D02*
X108797513Y-198618189D01*
X108747594Y-199094143D01*
X108795443Y-199046755D01*
X108890910Y-198999597D01*
X109129002Y-199000747D01*
X109224009Y-199048825D01*
X109271398Y-199096674D01*
X109318556Y-199192141D01*
X109317406Y-199430233D01*
X109269327Y-199525240D01*
X109221479Y-199572629D01*
X109126012Y-199619787D01*
X108887919Y-199618637D01*
X108792912Y-199570558D01*
X108745524Y-199522710D01*
X109654646Y-198622329D02*
X110321305Y-198625550D01*
X109887907Y-199623468D01*
X111459318Y-199631059D02*
X111462538Y-198964400D01*
X111462078Y-199059637D02*
X111509927Y-199012249D01*
X111605394Y-198965090D01*
X111748249Y-198965781D01*
X111843256Y-199013859D01*
X111890415Y-199109326D01*
X111887884Y-199633130D01*
X111890415Y-199109326D02*
X111938493Y-199014319D01*
X112033960Y-198967161D01*
X112176816Y-198967851D01*
X112271823Y-199015930D01*
X112318981Y-199111397D01*
X112316451Y-199635200D01*
X112792635Y-199637500D02*
X112795856Y-198970841D01*
X112795396Y-199066078D02*
X112843245Y-199018690D01*
X112938712Y-198971532D01*
X113081567Y-198972222D01*
X113176574Y-199020300D01*
X113223732Y-199115767D01*
X113221202Y-199639571D01*
X113223732Y-199115767D02*
X113271811Y-199020760D01*
X113367278Y-198973602D01*
X113510133Y-198974292D01*
X113605140Y-199022371D01*
X113652299Y-199117838D01*
X113649768Y-199641641D01*
X56508859Y-197613197D02*
X161664859Y-198121197D01*
X56515000Y-196342000D02*
X56506026Y-198199611D01*
X161671000Y-196850000D02*
X161662026Y-198707611D01*
X161664859Y-198121197D02*
X160535535Y-198702169D01*
X161664859Y-198121197D02*
X160541201Y-197529341D01*
X56508859Y-197613197D02*
X57632517Y-198205053D01*
X56508859Y-197613197D02*
X57638183Y-197032225D01*
D11*
G04 #@! TO.C,C15*
X134304000Y-188544000D02*
X132904000Y-188544000D01*
D12*
G04 #@! TO.C,Q4*
X128767160Y-160704000D02*
G75*
G03X128767160Y-160704000I-113160J0D01*
G01*
D11*
X135660000Y-163322000D02*
X137991000Y-163322000D01*
X135660000Y-153162000D02*
X137991000Y-153162000D01*
X135660000Y-163322000D02*
X135660000Y-153162000D01*
G04 #@! TO.C,R11*
X143307000Y-191894000D02*
X141307000Y-191894000D01*
X143307000Y-185294000D02*
X141307000Y-185294000D01*
D12*
G04 #@! TO.C,Q6*
X128633160Y-180897000D02*
G75*
G03X128633160Y-180897000I-113160J0D01*
G01*
D11*
X135526000Y-183515000D02*
X137857000Y-183515000D01*
X135526000Y-173355000D02*
X137857000Y-173355000D01*
X135526000Y-183515000D02*
X135526000Y-173355000D01*
D12*
G04 #@! TO.C,Q2*
X128767160Y-140130000D02*
G75*
G03X128767160Y-140130000I-113160J0D01*
G01*
D11*
X135660000Y-142748000D02*
X137991000Y-142748000D01*
X135660000Y-132588000D02*
X137991000Y-132588000D01*
X135660000Y-142748000D02*
X135660000Y-132588000D01*
G04 #@! TO.C,R10*
X143494000Y-171575000D02*
X141494000Y-171575000D01*
X143494000Y-164975000D02*
X141494000Y-164975000D01*
G04 #@! TO.C,R9*
X143554000Y-150746000D02*
X141554000Y-150746000D01*
X143554000Y-144146000D02*
X141554000Y-144146000D01*
G04 #@! TO.C,C38*
X74854000Y-178188000D02*
X74854000Y-175888000D01*
G04 #@! TO.C,C21*
X99014000Y-167678000D02*
X99614000Y-167678000D01*
G04 #@! TO.C,C23*
X99822000Y-173163000D02*
X99822000Y-174563000D01*
G04 #@! TO.C,C24*
X99492000Y-164400000D02*
X99492000Y-165800000D01*
G04 #@! TO.C,Reg1*
X112053000Y-153747000D02*
X113803000Y-153747000D01*
X114153000Y-147372000D02*
X114153000Y-153872000D01*
X118003000Y-147372000D02*
X114153000Y-147372000D01*
X118003000Y-153872000D02*
X118003000Y-147372000D01*
X114153000Y-153872000D02*
X118003000Y-153872000D01*
G04 #@! TO.C,RTERM1*
X63825000Y-159550000D02*
X63175000Y-159550000D01*
G04 #@! TO.C,R8*
X127127000Y-181300000D02*
X127127000Y-180650000D01*
G04 #@! TO.C,R6*
X127470000Y-161107000D02*
X127470000Y-160457000D01*
G04 #@! TO.C,R4*
X127000000Y-140533000D02*
X127000000Y-139883000D01*
G04 #@! TO.C,CS3*
X137948000Y-190910000D02*
X137948000Y-189460000D01*
X134898000Y-189110000D02*
X137898000Y-189110000D01*
X134898000Y-186810000D02*
X134898000Y-189110000D01*
X137898000Y-186810000D02*
X134898000Y-186810000D01*
X137898000Y-189110000D02*
X137898000Y-186810000D01*
G04 #@! TO.C,CS2*
X138138500Y-171545000D02*
X138138500Y-170095000D01*
X135088500Y-169745000D02*
X138088500Y-169745000D01*
X135088500Y-167445000D02*
X135088500Y-169745000D01*
X138088500Y-167445000D02*
X135088500Y-167445000D01*
X138088500Y-169745000D02*
X138088500Y-167445000D01*
G04 #@! TO.C,CS1*
X137440000Y-150841500D02*
X137440000Y-149391500D01*
X134390000Y-149041500D02*
X137390000Y-149041500D01*
X134390000Y-146741500D02*
X134390000Y-149041500D01*
X137390000Y-146741500D02*
X134390000Y-146741500D01*
X137390000Y-149041500D02*
X137390000Y-146741500D01*
G04 #@! TO.C,CAN_TR1*
X71356500Y-156932000D02*
X69831500Y-156932000D01*
X69481500Y-161962000D02*
X69481500Y-157062000D01*
X66281500Y-161962000D02*
X69481500Y-161962000D01*
X66281500Y-157062000D02*
X66281500Y-161962000D01*
X69481500Y-157062000D02*
X66281500Y-157062000D01*
G04 #@! TO.C,C36*
X89346000Y-166878000D02*
X87946000Y-166878000D01*
G04 #@! TO.C,C14*
X134558000Y-168910000D02*
X133158000Y-168910000D01*
G04 #@! TO.C,C13*
X132650000Y-147828000D02*
X134050000Y-147828000D01*
G04 #@! TO.C,C15*
D12*
X132025571Y-187905571D02*
X132086047Y-187845095D01*
X132146523Y-187663666D01*
X132146523Y-187542714D01*
X132086047Y-187361285D01*
X131965095Y-187240333D01*
X131844142Y-187179857D01*
X131602238Y-187119380D01*
X131420809Y-187119380D01*
X131178904Y-187179857D01*
X131057952Y-187240333D01*
X130937000Y-187361285D01*
X130876523Y-187542714D01*
X130876523Y-187663666D01*
X130937000Y-187845095D01*
X130997476Y-187905571D01*
X132146523Y-189115095D02*
X132146523Y-188389380D01*
X132146523Y-188752238D02*
X130876523Y-188752238D01*
X131057952Y-188631285D01*
X131178904Y-188510333D01*
X131239380Y-188389380D01*
X130876523Y-190264142D02*
X130876523Y-189659380D01*
X131481285Y-189598904D01*
X131420809Y-189659380D01*
X131360333Y-189780333D01*
X131360333Y-190082714D01*
X131420809Y-190203666D01*
X131481285Y-190264142D01*
X131602238Y-190324619D01*
X131904619Y-190324619D01*
X132025571Y-190264142D01*
X132086047Y-190203666D01*
X132146523Y-190082714D01*
X132146523Y-189780333D01*
X132086047Y-189659380D01*
X132025571Y-189598904D01*
G04 #@! TO.C,C40*
X78685571Y-183079571D02*
X78746047Y-183019095D01*
X78806523Y-182837666D01*
X78806523Y-182716714D01*
X78746047Y-182535285D01*
X78625095Y-182414333D01*
X78504142Y-182353857D01*
X78262238Y-182293380D01*
X78080809Y-182293380D01*
X77838904Y-182353857D01*
X77717952Y-182414333D01*
X77597000Y-182535285D01*
X77536523Y-182716714D01*
X77536523Y-182837666D01*
X77597000Y-183019095D01*
X77657476Y-183079571D01*
X77959857Y-184168142D02*
X78806523Y-184168142D01*
X77476047Y-183865761D02*
X78383190Y-183563380D01*
X78383190Y-184349571D01*
X77536523Y-185075285D02*
X77536523Y-185196238D01*
X77597000Y-185317190D01*
X77657476Y-185377666D01*
X77778428Y-185438142D01*
X78020333Y-185498619D01*
X78322714Y-185498619D01*
X78564619Y-185438142D01*
X78685571Y-185377666D01*
X78746047Y-185317190D01*
X78806523Y-185196238D01*
X78806523Y-185075285D01*
X78746047Y-184954333D01*
X78685571Y-184893857D01*
X78564619Y-184833380D01*
X78322714Y-184772904D01*
X78020333Y-184772904D01*
X77778428Y-184833380D01*
X77657476Y-184893857D01*
X77597000Y-184954333D01*
X77536523Y-185075285D01*
G04 #@! TO.C,C39*
X72335571Y-183079571D02*
X72396047Y-183019095D01*
X72456523Y-182837666D01*
X72456523Y-182716714D01*
X72396047Y-182535285D01*
X72275095Y-182414333D01*
X72154142Y-182353857D01*
X71912238Y-182293380D01*
X71730809Y-182293380D01*
X71488904Y-182353857D01*
X71367952Y-182414333D01*
X71247000Y-182535285D01*
X71186523Y-182716714D01*
X71186523Y-182837666D01*
X71247000Y-183019095D01*
X71307476Y-183079571D01*
X71186523Y-183502904D02*
X71186523Y-184289095D01*
X71670333Y-183865761D01*
X71670333Y-184047190D01*
X71730809Y-184168142D01*
X71791285Y-184228619D01*
X71912238Y-184289095D01*
X72214619Y-184289095D01*
X72335571Y-184228619D01*
X72396047Y-184168142D01*
X72456523Y-184047190D01*
X72456523Y-183684333D01*
X72396047Y-183563380D01*
X72335571Y-183502904D01*
X72456523Y-184893857D02*
X72456523Y-185135761D01*
X72396047Y-185256714D01*
X72335571Y-185317190D01*
X72154142Y-185438142D01*
X71912238Y-185498619D01*
X71428428Y-185498619D01*
X71307476Y-185438142D01*
X71247000Y-185377666D01*
X71186523Y-185256714D01*
X71186523Y-185014809D01*
X71247000Y-184893857D01*
X71307476Y-184833380D01*
X71428428Y-184772904D01*
X71730809Y-184772904D01*
X71851761Y-184833380D01*
X71912238Y-184893857D01*
X71972714Y-185014809D01*
X71972714Y-185256714D01*
X71912238Y-185377666D01*
X71851761Y-185438142D01*
X71730809Y-185498619D01*
G04 #@! TO.C,C1*
X75891571Y-159300333D02*
X75952047Y-159239857D01*
X76012523Y-159058428D01*
X76012523Y-158937476D01*
X75952047Y-158756047D01*
X75831095Y-158635095D01*
X75710142Y-158574619D01*
X75468238Y-158514142D01*
X75286809Y-158514142D01*
X75044904Y-158574619D01*
X74923952Y-158635095D01*
X74803000Y-158756047D01*
X74742523Y-158937476D01*
X74742523Y-159058428D01*
X74803000Y-159239857D01*
X74863476Y-159300333D01*
X76012523Y-160509857D02*
X76012523Y-159784142D01*
X76012523Y-160147000D02*
X74742523Y-160147000D01*
X74923952Y-160026047D01*
X75044904Y-159905095D01*
X75105380Y-159784142D01*
G04 #@! TO.C,Q4*
X136518952Y-164017476D02*
X136639904Y-163957000D01*
X136760857Y-163836047D01*
X136942285Y-163654619D01*
X137063238Y-163594142D01*
X137184190Y-163594142D01*
X137123714Y-163896523D02*
X137244666Y-163836047D01*
X137365619Y-163715095D01*
X137426095Y-163473190D01*
X137426095Y-163049857D01*
X137365619Y-162807952D01*
X137244666Y-162687000D01*
X137123714Y-162626523D01*
X136881809Y-162626523D01*
X136760857Y-162687000D01*
X136639904Y-162807952D01*
X136579428Y-163049857D01*
X136579428Y-163473190D01*
X136639904Y-163715095D01*
X136760857Y-163836047D01*
X136881809Y-163896523D01*
X137123714Y-163896523D01*
X135490857Y-163049857D02*
X135490857Y-163896523D01*
X135793238Y-162566047D02*
X136095619Y-163473190D01*
X135309428Y-163473190D01*
G04 #@! TO.C,R11*
X143310428Y-194122523D02*
X143733761Y-193517761D01*
X144036142Y-194122523D02*
X144036142Y-192852523D01*
X143552333Y-192852523D01*
X143431380Y-192913000D01*
X143370904Y-192973476D01*
X143310428Y-193094428D01*
X143310428Y-193275857D01*
X143370904Y-193396809D01*
X143431380Y-193457285D01*
X143552333Y-193517761D01*
X144036142Y-193517761D01*
X142100904Y-194122523D02*
X142826619Y-194122523D01*
X142463761Y-194122523D02*
X142463761Y-192852523D01*
X142584714Y-193033952D01*
X142705666Y-193154904D01*
X142826619Y-193215380D01*
X140891380Y-194122523D02*
X141617095Y-194122523D01*
X141254238Y-194122523D02*
X141254238Y-192852523D01*
X141375190Y-193033952D01*
X141496142Y-193154904D01*
X141617095Y-193215380D01*
G04 #@! TO.C,Q6*
X134232952Y-183321476D02*
X134353904Y-183261000D01*
X134474857Y-183140047D01*
X134656285Y-182958619D01*
X134777238Y-182898142D01*
X134898190Y-182898142D01*
X134837714Y-183200523D02*
X134958666Y-183140047D01*
X135079619Y-183019095D01*
X135140095Y-182777190D01*
X135140095Y-182353857D01*
X135079619Y-182111952D01*
X134958666Y-181991000D01*
X134837714Y-181930523D01*
X134595809Y-181930523D01*
X134474857Y-181991000D01*
X134353904Y-182111952D01*
X134293428Y-182353857D01*
X134293428Y-182777190D01*
X134353904Y-183019095D01*
X134474857Y-183140047D01*
X134595809Y-183200523D01*
X134837714Y-183200523D01*
X133204857Y-181930523D02*
X133446761Y-181930523D01*
X133567714Y-181991000D01*
X133628190Y-182051476D01*
X133749142Y-182232904D01*
X133809619Y-182474809D01*
X133809619Y-182958619D01*
X133749142Y-183079571D01*
X133688666Y-183140047D01*
X133567714Y-183200523D01*
X133325809Y-183200523D01*
X133204857Y-183140047D01*
X133144380Y-183079571D01*
X133083904Y-182958619D01*
X133083904Y-182656238D01*
X133144380Y-182535285D01*
X133204857Y-182474809D01*
X133325809Y-182414333D01*
X133567714Y-182414333D01*
X133688666Y-182474809D01*
X133749142Y-182535285D01*
X133809619Y-182656238D01*
G04 #@! TO.C,Q2*
X148202952Y-144459476D02*
X148323904Y-144399000D01*
X148444857Y-144278047D01*
X148626285Y-144096619D01*
X148747238Y-144036142D01*
X148868190Y-144036142D01*
X148807714Y-144338523D02*
X148928666Y-144278047D01*
X149049619Y-144157095D01*
X149110095Y-143915190D01*
X149110095Y-143491857D01*
X149049619Y-143249952D01*
X148928666Y-143129000D01*
X148807714Y-143068523D01*
X148565809Y-143068523D01*
X148444857Y-143129000D01*
X148323904Y-143249952D01*
X148263428Y-143491857D01*
X148263428Y-143915190D01*
X148323904Y-144157095D01*
X148444857Y-144278047D01*
X148565809Y-144338523D01*
X148807714Y-144338523D01*
X147779619Y-143189476D02*
X147719142Y-143129000D01*
X147598190Y-143068523D01*
X147295809Y-143068523D01*
X147174857Y-143129000D01*
X147114380Y-143189476D01*
X147053904Y-143310428D01*
X147053904Y-143431380D01*
X147114380Y-143612809D01*
X147840095Y-144338523D01*
X147053904Y-144338523D01*
G04 #@! TO.C,R10*
X149152428Y-172532523D02*
X149575761Y-171927761D01*
X149878142Y-172532523D02*
X149878142Y-171262523D01*
X149394333Y-171262523D01*
X149273380Y-171323000D01*
X149212904Y-171383476D01*
X149152428Y-171504428D01*
X149152428Y-171685857D01*
X149212904Y-171806809D01*
X149273380Y-171867285D01*
X149394333Y-171927761D01*
X149878142Y-171927761D01*
X147942904Y-172532523D02*
X148668619Y-172532523D01*
X148305761Y-172532523D02*
X148305761Y-171262523D01*
X148426714Y-171443952D01*
X148547666Y-171564904D01*
X148668619Y-171625380D01*
X147156714Y-171262523D02*
X147035761Y-171262523D01*
X146914809Y-171323000D01*
X146854333Y-171383476D01*
X146793857Y-171504428D01*
X146733380Y-171746333D01*
X146733380Y-172048714D01*
X146793857Y-172290619D01*
X146854333Y-172411571D01*
X146914809Y-172472047D01*
X147035761Y-172532523D01*
X147156714Y-172532523D01*
X147277666Y-172472047D01*
X147338142Y-172411571D01*
X147398619Y-172290619D01*
X147459095Y-172048714D01*
X147459095Y-171746333D01*
X147398619Y-171504428D01*
X147338142Y-171383476D01*
X147277666Y-171323000D01*
X147156714Y-171262523D01*
G04 #@! TO.C,R9*
X147785666Y-152212523D02*
X148209000Y-151607761D01*
X148511380Y-152212523D02*
X148511380Y-150942523D01*
X148027571Y-150942523D01*
X147906619Y-151003000D01*
X147846142Y-151063476D01*
X147785666Y-151184428D01*
X147785666Y-151365857D01*
X147846142Y-151486809D01*
X147906619Y-151547285D01*
X148027571Y-151607761D01*
X148511380Y-151607761D01*
X147180904Y-152212523D02*
X146939000Y-152212523D01*
X146818047Y-152152047D01*
X146757571Y-152091571D01*
X146636619Y-151910142D01*
X146576142Y-151668238D01*
X146576142Y-151184428D01*
X146636619Y-151063476D01*
X146697095Y-151003000D01*
X146818047Y-150942523D01*
X147059952Y-150942523D01*
X147180904Y-151003000D01*
X147241380Y-151063476D01*
X147301857Y-151184428D01*
X147301857Y-151486809D01*
X147241380Y-151607761D01*
X147180904Y-151668238D01*
X147059952Y-151728714D01*
X146818047Y-151728714D01*
X146697095Y-151668238D01*
X146636619Y-151607761D01*
X146576142Y-151486809D01*
G04 #@! TO.C,C38*
X75086428Y-175205571D02*
X75146904Y-175266047D01*
X75328333Y-175326523D01*
X75449285Y-175326523D01*
X75630714Y-175266047D01*
X75751666Y-175145095D01*
X75812142Y-175024142D01*
X75872619Y-174782238D01*
X75872619Y-174600809D01*
X75812142Y-174358904D01*
X75751666Y-174237952D01*
X75630714Y-174117000D01*
X75449285Y-174056523D01*
X75328333Y-174056523D01*
X75146904Y-174117000D01*
X75086428Y-174177476D01*
X74663095Y-174056523D02*
X73876904Y-174056523D01*
X74300238Y-174540333D01*
X74118809Y-174540333D01*
X73997857Y-174600809D01*
X73937380Y-174661285D01*
X73876904Y-174782238D01*
X73876904Y-175084619D01*
X73937380Y-175205571D01*
X73997857Y-175266047D01*
X74118809Y-175326523D01*
X74481666Y-175326523D01*
X74602619Y-175266047D01*
X74663095Y-175205571D01*
X73151190Y-174600809D02*
X73272142Y-174540333D01*
X73332619Y-174479857D01*
X73393095Y-174358904D01*
X73393095Y-174298428D01*
X73332619Y-174177476D01*
X73272142Y-174117000D01*
X73151190Y-174056523D01*
X72909285Y-174056523D01*
X72788333Y-174117000D01*
X72727857Y-174177476D01*
X72667380Y-174298428D01*
X72667380Y-174358904D01*
X72727857Y-174479857D01*
X72788333Y-174540333D01*
X72909285Y-174600809D01*
X73151190Y-174600809D01*
X73272142Y-174661285D01*
X73332619Y-174721761D01*
X73393095Y-174842714D01*
X73393095Y-175084619D01*
X73332619Y-175205571D01*
X73272142Y-175266047D01*
X73151190Y-175326523D01*
X72909285Y-175326523D01*
X72788333Y-175266047D01*
X72727857Y-175205571D01*
X72667380Y-175084619D01*
X72667380Y-174842714D01*
X72727857Y-174721761D01*
X72788333Y-174661285D01*
X72909285Y-174600809D01*
G04 #@! TO.C,C3*
X110435571Y-152442333D02*
X110496047Y-152381857D01*
X110556523Y-152200428D01*
X110556523Y-152079476D01*
X110496047Y-151898047D01*
X110375095Y-151777095D01*
X110254142Y-151716619D01*
X110012238Y-151656142D01*
X109830809Y-151656142D01*
X109588904Y-151716619D01*
X109467952Y-151777095D01*
X109347000Y-151898047D01*
X109286523Y-152079476D01*
X109286523Y-152200428D01*
X109347000Y-152381857D01*
X109407476Y-152442333D01*
X109286523Y-152865666D02*
X109286523Y-153651857D01*
X109770333Y-153228523D01*
X109770333Y-153409952D01*
X109830809Y-153530904D01*
X109891285Y-153591380D01*
X110012238Y-153651857D01*
X110314619Y-153651857D01*
X110435571Y-153591380D01*
X110496047Y-153530904D01*
X110556523Y-153409952D01*
X110556523Y-153047095D01*
X110496047Y-152926142D01*
X110435571Y-152865666D01*
G04 #@! TO.C,C2*
X109927571Y-148886333D02*
X109988047Y-148825857D01*
X110048523Y-148644428D01*
X110048523Y-148523476D01*
X109988047Y-148342047D01*
X109867095Y-148221095D01*
X109746142Y-148160619D01*
X109504238Y-148100142D01*
X109322809Y-148100142D01*
X109080904Y-148160619D01*
X108959952Y-148221095D01*
X108839000Y-148342047D01*
X108778523Y-148523476D01*
X108778523Y-148644428D01*
X108839000Y-148825857D01*
X108899476Y-148886333D01*
X108899476Y-149370142D02*
X108839000Y-149430619D01*
X108778523Y-149551571D01*
X108778523Y-149853952D01*
X108839000Y-149974904D01*
X108899476Y-150035380D01*
X109020428Y-150095857D01*
X109141380Y-150095857D01*
X109322809Y-150035380D01*
X110048523Y-149309666D01*
X110048523Y-150095857D01*
G04 #@! TO.C,C21*
X98243571Y-166861571D02*
X98304047Y-166801095D01*
X98364523Y-166619666D01*
X98364523Y-166498714D01*
X98304047Y-166317285D01*
X98183095Y-166196333D01*
X98062142Y-166135857D01*
X97820238Y-166075380D01*
X97638809Y-166075380D01*
X97396904Y-166135857D01*
X97275952Y-166196333D01*
X97155000Y-166317285D01*
X97094523Y-166498714D01*
X97094523Y-166619666D01*
X97155000Y-166801095D01*
X97215476Y-166861571D01*
X97215476Y-167345380D02*
X97155000Y-167405857D01*
X97094523Y-167526809D01*
X97094523Y-167829190D01*
X97155000Y-167950142D01*
X97215476Y-168010619D01*
X97336428Y-168071095D01*
X97457380Y-168071095D01*
X97638809Y-168010619D01*
X98364523Y-167284904D01*
X98364523Y-168071095D01*
X98364523Y-169280619D02*
X98364523Y-168554904D01*
X98364523Y-168917761D02*
X97094523Y-168917761D01*
X97275952Y-168796809D01*
X97396904Y-168675857D01*
X97457380Y-168554904D01*
G04 #@! TO.C,C23*
X96828428Y-174189571D02*
X96888904Y-174250047D01*
X97070333Y-174310523D01*
X97191285Y-174310523D01*
X97372714Y-174250047D01*
X97493666Y-174129095D01*
X97554142Y-174008142D01*
X97614619Y-173766238D01*
X97614619Y-173584809D01*
X97554142Y-173342904D01*
X97493666Y-173221952D01*
X97372714Y-173101000D01*
X97191285Y-173040523D01*
X97070333Y-173040523D01*
X96888904Y-173101000D01*
X96828428Y-173161476D01*
X96344619Y-173161476D02*
X96284142Y-173101000D01*
X96163190Y-173040523D01*
X95860809Y-173040523D01*
X95739857Y-173101000D01*
X95679380Y-173161476D01*
X95618904Y-173282428D01*
X95618904Y-173403380D01*
X95679380Y-173584809D01*
X96405095Y-174310523D01*
X95618904Y-174310523D01*
X95195571Y-173040523D02*
X94409380Y-173040523D01*
X94832714Y-173524333D01*
X94651285Y-173524333D01*
X94530333Y-173584809D01*
X94469857Y-173645285D01*
X94409380Y-173766238D01*
X94409380Y-174068619D01*
X94469857Y-174189571D01*
X94530333Y-174250047D01*
X94651285Y-174310523D01*
X95014142Y-174310523D01*
X95135095Y-174250047D01*
X95195571Y-174189571D01*
G04 #@! TO.C,C24*
X100892428Y-163775571D02*
X100952904Y-163836047D01*
X101134333Y-163896523D01*
X101255285Y-163896523D01*
X101436714Y-163836047D01*
X101557666Y-163715095D01*
X101618142Y-163594142D01*
X101678619Y-163352238D01*
X101678619Y-163170809D01*
X101618142Y-162928904D01*
X101557666Y-162807952D01*
X101436714Y-162687000D01*
X101255285Y-162626523D01*
X101134333Y-162626523D01*
X100952904Y-162687000D01*
X100892428Y-162747476D01*
X100408619Y-162747476D02*
X100348142Y-162687000D01*
X100227190Y-162626523D01*
X99924809Y-162626523D01*
X99803857Y-162687000D01*
X99743380Y-162747476D01*
X99682904Y-162868428D01*
X99682904Y-162989380D01*
X99743380Y-163170809D01*
X100469095Y-163896523D01*
X99682904Y-163896523D01*
X98594333Y-163049857D02*
X98594333Y-163896523D01*
X98896714Y-162566047D02*
X99199095Y-163473190D01*
X98412904Y-163473190D01*
G04 #@! TO.C,Reg1*
X117408476Y-151196523D02*
X117831809Y-150591761D01*
X118134190Y-151196523D02*
X118134190Y-149926523D01*
X117650380Y-149926523D01*
X117529428Y-149987000D01*
X117468952Y-150047476D01*
X117408476Y-150168428D01*
X117408476Y-150349857D01*
X117468952Y-150470809D01*
X117529428Y-150531285D01*
X117650380Y-150591761D01*
X118134190Y-150591761D01*
X116380380Y-151136047D02*
X116501333Y-151196523D01*
X116743238Y-151196523D01*
X116864190Y-151136047D01*
X116924666Y-151015095D01*
X116924666Y-150531285D01*
X116864190Y-150410333D01*
X116743238Y-150349857D01*
X116501333Y-150349857D01*
X116380380Y-150410333D01*
X116319904Y-150531285D01*
X116319904Y-150652238D01*
X116924666Y-150773190D01*
X115231333Y-150349857D02*
X115231333Y-151377952D01*
X115291809Y-151498904D01*
X115352285Y-151559380D01*
X115473238Y-151619857D01*
X115654666Y-151619857D01*
X115775619Y-151559380D01*
X115231333Y-151136047D02*
X115352285Y-151196523D01*
X115594190Y-151196523D01*
X115715142Y-151136047D01*
X115775619Y-151075571D01*
X115836095Y-150954619D01*
X115836095Y-150591761D01*
X115775619Y-150470809D01*
X115715142Y-150410333D01*
X115594190Y-150349857D01*
X115352285Y-150349857D01*
X115231333Y-150410333D01*
X113961333Y-151196523D02*
X114687047Y-151196523D01*
X114324190Y-151196523D02*
X114324190Y-149926523D01*
X114445142Y-150107952D01*
X114566095Y-150228904D01*
X114687047Y-150289380D01*
G04 #@! TO.C,RTERM1*
X62296523Y-156627285D02*
X61691761Y-156203952D01*
X62296523Y-155901571D02*
X61026523Y-155901571D01*
X61026523Y-156385380D01*
X61087000Y-156506333D01*
X61147476Y-156566809D01*
X61268428Y-156627285D01*
X61449857Y-156627285D01*
X61570809Y-156566809D01*
X61631285Y-156506333D01*
X61691761Y-156385380D01*
X61691761Y-155901571D01*
X61026523Y-156990142D02*
X61026523Y-157715857D01*
X62296523Y-157353000D02*
X61026523Y-157353000D01*
X61631285Y-158139190D02*
X61631285Y-158562523D01*
X62296523Y-158743952D02*
X62296523Y-158139190D01*
X61026523Y-158139190D01*
X61026523Y-158743952D01*
X62296523Y-160013952D02*
X61691761Y-159590619D01*
X62296523Y-159288238D02*
X61026523Y-159288238D01*
X61026523Y-159772047D01*
X61087000Y-159893000D01*
X61147476Y-159953476D01*
X61268428Y-160013952D01*
X61449857Y-160013952D01*
X61570809Y-159953476D01*
X61631285Y-159893000D01*
X61691761Y-159772047D01*
X61691761Y-159288238D01*
X62296523Y-160558238D02*
X61026523Y-160558238D01*
X61933666Y-160981571D01*
X61026523Y-161404904D01*
X62296523Y-161404904D01*
X62296523Y-162674904D02*
X62296523Y-161949190D01*
X62296523Y-162312047D02*
X61026523Y-162312047D01*
X61207952Y-162191095D01*
X61328904Y-162070142D01*
X61389380Y-161949190D01*
G04 #@! TO.C,R8*
X127338666Y-181549523D02*
X127762000Y-180944761D01*
X128064380Y-181549523D02*
X128064380Y-180279523D01*
X127580571Y-180279523D01*
X127459619Y-180340000D01*
X127399142Y-180400476D01*
X127338666Y-180521428D01*
X127338666Y-180702857D01*
X127399142Y-180823809D01*
X127459619Y-180884285D01*
X127580571Y-180944761D01*
X128064380Y-180944761D01*
X126612952Y-180823809D02*
X126733904Y-180763333D01*
X126794380Y-180702857D01*
X126854857Y-180581904D01*
X126854857Y-180521428D01*
X126794380Y-180400476D01*
X126733904Y-180340000D01*
X126612952Y-180279523D01*
X126371047Y-180279523D01*
X126250095Y-180340000D01*
X126189619Y-180400476D01*
X126129142Y-180521428D01*
X126129142Y-180581904D01*
X126189619Y-180702857D01*
X126250095Y-180763333D01*
X126371047Y-180823809D01*
X126612952Y-180823809D01*
X126733904Y-180884285D01*
X126794380Y-180944761D01*
X126854857Y-181065714D01*
X126854857Y-181307619D01*
X126794380Y-181428571D01*
X126733904Y-181489047D01*
X126612952Y-181549523D01*
X126371047Y-181549523D01*
X126250095Y-181489047D01*
X126189619Y-181428571D01*
X126129142Y-181307619D01*
X126129142Y-181065714D01*
X126189619Y-180944761D01*
X126250095Y-180884285D01*
X126371047Y-180823809D01*
G04 #@! TO.C,R6*
X127681666Y-161356523D02*
X128105000Y-160751761D01*
X128407380Y-161356523D02*
X128407380Y-160086523D01*
X127923571Y-160086523D01*
X127802619Y-160147000D01*
X127742142Y-160207476D01*
X127681666Y-160328428D01*
X127681666Y-160509857D01*
X127742142Y-160630809D01*
X127802619Y-160691285D01*
X127923571Y-160751761D01*
X128407380Y-160751761D01*
X126593095Y-160086523D02*
X126835000Y-160086523D01*
X126955952Y-160147000D01*
X127016428Y-160207476D01*
X127137380Y-160388904D01*
X127197857Y-160630809D01*
X127197857Y-161114619D01*
X127137380Y-161235571D01*
X127076904Y-161296047D01*
X126955952Y-161356523D01*
X126714047Y-161356523D01*
X126593095Y-161296047D01*
X126532619Y-161235571D01*
X126472142Y-161114619D01*
X126472142Y-160812238D01*
X126532619Y-160691285D01*
X126593095Y-160630809D01*
X126714047Y-160570333D01*
X126955952Y-160570333D01*
X127076904Y-160630809D01*
X127137380Y-160691285D01*
X127197857Y-160812238D01*
G04 #@! TO.C,R4*
X127211666Y-139512523D02*
X127635000Y-138907761D01*
X127937380Y-139512523D02*
X127937380Y-138242523D01*
X127453571Y-138242523D01*
X127332619Y-138303000D01*
X127272142Y-138363476D01*
X127211666Y-138484428D01*
X127211666Y-138665857D01*
X127272142Y-138786809D01*
X127332619Y-138847285D01*
X127453571Y-138907761D01*
X127937380Y-138907761D01*
X126123095Y-138665857D02*
X126123095Y-139512523D01*
X126425476Y-138182047D02*
X126727857Y-139089190D01*
X125941666Y-139089190D01*
G04 #@! TO.C,CS3*
X137468428Y-192477571D02*
X137528904Y-192538047D01*
X137710333Y-192598523D01*
X137831285Y-192598523D01*
X138012714Y-192538047D01*
X138133666Y-192417095D01*
X138194142Y-192296142D01*
X138254619Y-192054238D01*
X138254619Y-191872809D01*
X138194142Y-191630904D01*
X138133666Y-191509952D01*
X138012714Y-191389000D01*
X137831285Y-191328523D01*
X137710333Y-191328523D01*
X137528904Y-191389000D01*
X137468428Y-191449476D01*
X136984619Y-192538047D02*
X136803190Y-192598523D01*
X136500809Y-192598523D01*
X136379857Y-192538047D01*
X136319380Y-192477571D01*
X136258904Y-192356619D01*
X136258904Y-192235666D01*
X136319380Y-192114714D01*
X136379857Y-192054238D01*
X136500809Y-191993761D01*
X136742714Y-191933285D01*
X136863666Y-191872809D01*
X136924142Y-191812333D01*
X136984619Y-191691380D01*
X136984619Y-191570428D01*
X136924142Y-191449476D01*
X136863666Y-191389000D01*
X136742714Y-191328523D01*
X136440333Y-191328523D01*
X136258904Y-191389000D01*
X135835571Y-191328523D02*
X135049380Y-191328523D01*
X135472714Y-191812333D01*
X135291285Y-191812333D01*
X135170333Y-191872809D01*
X135109857Y-191933285D01*
X135049380Y-192054238D01*
X135049380Y-192356619D01*
X135109857Y-192477571D01*
X135170333Y-192538047D01*
X135291285Y-192598523D01*
X135654142Y-192598523D01*
X135775095Y-192538047D01*
X135835571Y-192477571D01*
G04 #@! TO.C,CS2*
X136706428Y-173173571D02*
X136766904Y-173234047D01*
X136948333Y-173294523D01*
X137069285Y-173294523D01*
X137250714Y-173234047D01*
X137371666Y-173113095D01*
X137432142Y-172992142D01*
X137492619Y-172750238D01*
X137492619Y-172568809D01*
X137432142Y-172326904D01*
X137371666Y-172205952D01*
X137250714Y-172085000D01*
X137069285Y-172024523D01*
X136948333Y-172024523D01*
X136766904Y-172085000D01*
X136706428Y-172145476D01*
X136222619Y-173234047D02*
X136041190Y-173294523D01*
X135738809Y-173294523D01*
X135617857Y-173234047D01*
X135557380Y-173173571D01*
X135496904Y-173052619D01*
X135496904Y-172931666D01*
X135557380Y-172810714D01*
X135617857Y-172750238D01*
X135738809Y-172689761D01*
X135980714Y-172629285D01*
X136101666Y-172568809D01*
X136162142Y-172508333D01*
X136222619Y-172387380D01*
X136222619Y-172266428D01*
X136162142Y-172145476D01*
X136101666Y-172085000D01*
X135980714Y-172024523D01*
X135678333Y-172024523D01*
X135496904Y-172085000D01*
X135013095Y-172145476D02*
X134952619Y-172085000D01*
X134831666Y-172024523D01*
X134529285Y-172024523D01*
X134408333Y-172085000D01*
X134347857Y-172145476D01*
X134287380Y-172266428D01*
X134287380Y-172387380D01*
X134347857Y-172568809D01*
X135073571Y-173294523D01*
X134287380Y-173294523D01*
G04 #@! TO.C,CS1*
X136198428Y-152345571D02*
X136258904Y-152406047D01*
X136440333Y-152466523D01*
X136561285Y-152466523D01*
X136742714Y-152406047D01*
X136863666Y-152285095D01*
X136924142Y-152164142D01*
X136984619Y-151922238D01*
X136984619Y-151740809D01*
X136924142Y-151498904D01*
X136863666Y-151377952D01*
X136742714Y-151257000D01*
X136561285Y-151196523D01*
X136440333Y-151196523D01*
X136258904Y-151257000D01*
X136198428Y-151317476D01*
X135714619Y-152406047D02*
X135533190Y-152466523D01*
X135230809Y-152466523D01*
X135109857Y-152406047D01*
X135049380Y-152345571D01*
X134988904Y-152224619D01*
X134988904Y-152103666D01*
X135049380Y-151982714D01*
X135109857Y-151922238D01*
X135230809Y-151861761D01*
X135472714Y-151801285D01*
X135593666Y-151740809D01*
X135654142Y-151680333D01*
X135714619Y-151559380D01*
X135714619Y-151438428D01*
X135654142Y-151317476D01*
X135593666Y-151257000D01*
X135472714Y-151196523D01*
X135170333Y-151196523D01*
X134988904Y-151257000D01*
X133779380Y-152466523D02*
X134505095Y-152466523D01*
X134142238Y-152466523D02*
X134142238Y-151196523D01*
X134263190Y-151377952D01*
X134384142Y-151498904D01*
X134505095Y-151559380D01*
G04 #@! TO.C,CAN_TR1*
X70968809Y-156155571D02*
X71029285Y-156216047D01*
X71210714Y-156276523D01*
X71331666Y-156276523D01*
X71513095Y-156216047D01*
X71634047Y-156095095D01*
X71694523Y-155974142D01*
X71755000Y-155732238D01*
X71755000Y-155550809D01*
X71694523Y-155308904D01*
X71634047Y-155187952D01*
X71513095Y-155067000D01*
X71331666Y-155006523D01*
X71210714Y-155006523D01*
X71029285Y-155067000D01*
X70968809Y-155127476D01*
X70485000Y-155913666D02*
X69880238Y-155913666D01*
X70605952Y-156276523D02*
X70182619Y-155006523D01*
X69759285Y-156276523D01*
X69335952Y-156276523D02*
X69335952Y-155006523D01*
X68610238Y-156276523D01*
X68610238Y-155006523D01*
X68307857Y-156397476D02*
X67340238Y-156397476D01*
X67219285Y-155006523D02*
X66493571Y-155006523D01*
X66856428Y-156276523D02*
X66856428Y-155006523D01*
X65344523Y-156276523D02*
X65767857Y-155671761D01*
X66070238Y-156276523D02*
X66070238Y-155006523D01*
X65586428Y-155006523D01*
X65465476Y-155067000D01*
X65405000Y-155127476D01*
X65344523Y-155248428D01*
X65344523Y-155429857D01*
X65405000Y-155550809D01*
X65465476Y-155611285D01*
X65586428Y-155671761D01*
X66070238Y-155671761D01*
X64135000Y-156276523D02*
X64860714Y-156276523D01*
X64497857Y-156276523D02*
X64497857Y-155006523D01*
X64618809Y-155187952D01*
X64739761Y-155308904D01*
X64860714Y-155369380D01*
G04 #@! TO.C,C36*
X90877571Y-166061571D02*
X90938047Y-166001095D01*
X90998523Y-165819666D01*
X90998523Y-165698714D01*
X90938047Y-165517285D01*
X90817095Y-165396333D01*
X90696142Y-165335857D01*
X90454238Y-165275380D01*
X90272809Y-165275380D01*
X90030904Y-165335857D01*
X89909952Y-165396333D01*
X89789000Y-165517285D01*
X89728523Y-165698714D01*
X89728523Y-165819666D01*
X89789000Y-166001095D01*
X89849476Y-166061571D01*
X89728523Y-166484904D02*
X89728523Y-167271095D01*
X90212333Y-166847761D01*
X90212333Y-167029190D01*
X90272809Y-167150142D01*
X90333285Y-167210619D01*
X90454238Y-167271095D01*
X90756619Y-167271095D01*
X90877571Y-167210619D01*
X90938047Y-167150142D01*
X90998523Y-167029190D01*
X90998523Y-166666333D01*
X90938047Y-166545380D01*
X90877571Y-166484904D01*
X89728523Y-168359666D02*
X89728523Y-168117761D01*
X89789000Y-167996809D01*
X89849476Y-167936333D01*
X90030904Y-167815380D01*
X90272809Y-167754904D01*
X90756619Y-167754904D01*
X90877571Y-167815380D01*
X90938047Y-167875857D01*
X90998523Y-167996809D01*
X90998523Y-168238714D01*
X90938047Y-168359666D01*
X90877571Y-168420142D01*
X90756619Y-168480619D01*
X90454238Y-168480619D01*
X90333285Y-168420142D01*
X90272809Y-168359666D01*
X90212333Y-168238714D01*
X90212333Y-167996809D01*
X90272809Y-167875857D01*
X90333285Y-167815380D01*
X90454238Y-167754904D01*
G04 #@! TO.C,C14*
X132279571Y-168093571D02*
X132340047Y-168033095D01*
X132400523Y-167851666D01*
X132400523Y-167730714D01*
X132340047Y-167549285D01*
X132219095Y-167428333D01*
X132098142Y-167367857D01*
X131856238Y-167307380D01*
X131674809Y-167307380D01*
X131432904Y-167367857D01*
X131311952Y-167428333D01*
X131191000Y-167549285D01*
X131130523Y-167730714D01*
X131130523Y-167851666D01*
X131191000Y-168033095D01*
X131251476Y-168093571D01*
X132400523Y-169303095D02*
X132400523Y-168577380D01*
X132400523Y-168940238D02*
X131130523Y-168940238D01*
X131311952Y-168819285D01*
X131432904Y-168698333D01*
X131493380Y-168577380D01*
X131553857Y-170391666D02*
X132400523Y-170391666D01*
X131070047Y-170089285D02*
X131977190Y-169786904D01*
X131977190Y-170573095D01*
G04 #@! TO.C,C13*
X131771571Y-147011571D02*
X131832047Y-146951095D01*
X131892523Y-146769666D01*
X131892523Y-146648714D01*
X131832047Y-146467285D01*
X131711095Y-146346333D01*
X131590142Y-146285857D01*
X131348238Y-146225380D01*
X131166809Y-146225380D01*
X130924904Y-146285857D01*
X130803952Y-146346333D01*
X130683000Y-146467285D01*
X130622523Y-146648714D01*
X130622523Y-146769666D01*
X130683000Y-146951095D01*
X130743476Y-147011571D01*
X131892523Y-148221095D02*
X131892523Y-147495380D01*
X131892523Y-147858238D02*
X130622523Y-147858238D01*
X130803952Y-147737285D01*
X130924904Y-147616333D01*
X130985380Y-147495380D01*
X130622523Y-148644428D02*
X130622523Y-149430619D01*
X131106333Y-149007285D01*
X131106333Y-149188714D01*
X131166809Y-149309666D01*
X131227285Y-149370142D01*
X131348238Y-149430619D01*
X131650619Y-149430619D01*
X131771571Y-149370142D01*
X131832047Y-149309666D01*
X131892523Y-149188714D01*
X131892523Y-148825857D01*
X131832047Y-148704904D01*
X131771571Y-148644428D01*
G04 #@! TD*
M02*
