G04 #@! TF.GenerationSoftware,KiCad,Pcbnew,5.0.2+dfsg1-1*
G04 #@! TF.CreationDate,2019-09-30T17:17:48-04:00*
G04 #@! TF.ProjectId,DSC_motor_controller,4453435f-6d6f-4746-9f72-5f636f6e7472,rev?*
G04 #@! TF.SameCoordinates,Original*
G04 #@! TF.FileFunction,Copper,L2,Inr*
G04 #@! TF.FilePolarity,Positive*
%FSLAX46Y46*%
G04 Gerber Fmt 4.6, Leading zero omitted, Abs format (unit mm)*
G04 Created by KiCad (PCBNEW 5.0.2+dfsg1-1) date Mon 30 Sep 2019 05:17:48 PM EDT*
%MOMM*%
%LPD*%
G01*
G04 APERTURE LIST*
G04 #@! TA.AperFunction,ViaPad*
%ADD10C,1.200000*%
G04 #@! TD*
G04 #@! TA.AperFunction,ViaPad*
%ADD11R,1.200000X1.200000*%
G04 #@! TD*
G04 #@! TA.AperFunction,ViaPad*
%ADD12C,0.800000*%
G04 #@! TD*
G04 #@! TA.AperFunction,ViaPad*
%ADD13C,1.524000*%
G04 #@! TD*
G04 #@! TA.AperFunction,ViaPad*
%ADD14C,0.600000*%
G04 #@! TD*
G04 #@! TA.AperFunction,Conductor*
%ADD15C,0.254000*%
G04 #@! TD*
G04 APERTURE END LIST*
D10*
G04 #@! TO.N,GND*
G04 #@! TO.C,C17*
X130302000Y-109394000D03*
D11*
G04 #@! TO.N,SUPPLY*
X130302000Y-104394000D03*
G04 #@! TD*
D10*
G04 #@! TO.N,GND*
G04 #@! TO.C,C18*
X130302000Y-117936000D03*
D11*
G04 #@! TO.N,SUPPLY*
X130302000Y-122936000D03*
G04 #@! TD*
D12*
G04 #@! TO.N,GND*
X86106000Y-166370000D03*
X72335779Y-159706769D03*
X67310000Y-153162000D03*
X75184000Y-181864000D03*
X67818000Y-177307997D03*
X98044000Y-177292000D03*
X106426000Y-170688000D03*
X106680000Y-169672000D03*
X108458000Y-170688000D03*
X134620000Y-177292000D03*
X86868000Y-148844000D03*
X130556000Y-157226000D03*
X132588000Y-162814000D03*
X135128000Y-148495009D03*
X102616000Y-157480000D03*
X107652327Y-170561000D03*
X118618000Y-162877500D03*
X110998000Y-154141000D03*
X109441429Y-151144431D03*
X102108000Y-145796000D03*
X104648000Y-146304000D03*
X104902000Y-152146000D03*
X96774000Y-164846000D03*
X136324918Y-168910000D03*
X132588000Y-138176000D03*
X132588000Y-133858000D03*
X87884000Y-184658000D03*
X88138000Y-187706000D03*
X87630000Y-190500000D03*
X80010000Y-178054000D03*
X74930000Y-176530000D03*
X87884000Y-186182000D03*
X82016600Y-186653000D03*
X134806815Y-188687185D03*
X131826000Y-171196000D03*
X82217069Y-189447010D03*
X80014653Y-185161347D03*
X73406000Y-186436004D03*
X61468000Y-184658000D03*
X113538000Y-158496016D03*
X96520000Y-187706000D03*
G04 #@! TO.N,+5V*
X113030000Y-145542000D03*
G04 #@! TO.N,/CAN/CAN_LO*
X82550000Y-148590000D03*
G04 #@! TO.N,/CAN/CAN_HI*
X78994000Y-147320000D03*
G04 #@! TO.N,+3V3*
X72644000Y-181356000D03*
X72457565Y-160699328D03*
X62738000Y-150876000D03*
X67818000Y-178308000D03*
X102362000Y-165608000D03*
X115062000Y-150876000D03*
X88387347Y-177550653D03*
X133604000Y-145034000D03*
X85090000Y-164846000D03*
X136398000Y-167894000D03*
X74422002Y-177800020D03*
X136398000Y-187451990D03*
X82731590Y-183324910D03*
G04 #@! TO.N,Net-(C21-Pad2)*
X101346000Y-168427000D03*
G04 #@! TO.N,Net-(C21-Pad1)*
X101092000Y-167386000D03*
G04 #@! TO.N,Net-(C23-Pad1)*
X105201829Y-172212000D03*
D13*
G04 #@! TO.N,/Motor_Driver/SH_C*
X148717000Y-175006000D03*
X153797000Y-174625000D03*
X150114000Y-179070000D03*
X152019000Y-174498000D03*
X150241000Y-174625000D03*
X155194000Y-175514000D03*
X149987000Y-176657000D03*
X151257000Y-177927000D03*
X148463000Y-182372000D03*
X148463000Y-179197000D03*
X148463000Y-180721000D03*
X148717000Y-177673000D03*
D12*
X114808000Y-171704000D03*
D13*
X152527000Y-178943000D03*
G04 #@! TO.N,/Motor_Driver/SH_B*
X148463000Y-155702000D03*
X156591000Y-158623000D03*
X149860000Y-157226000D03*
X148209000Y-158877000D03*
X156591000Y-160274000D03*
X151384000Y-157861000D03*
X156845000Y-154432000D03*
X148463000Y-154051000D03*
X148209000Y-157353000D03*
X150114000Y-155702000D03*
X149733000Y-158750000D03*
X150114000Y-154051000D03*
D12*
X115147569Y-168185000D03*
D13*
X148209000Y-161417000D03*
X149479000Y-160401000D03*
G04 #@! TO.N,/Motor_Driver/SH_A*
X149606000Y-134239000D03*
X149733000Y-129413000D03*
X151384000Y-129413000D03*
X153035000Y-129413000D03*
X156845000Y-129413000D03*
X149606000Y-131064000D03*
X151384000Y-131064000D03*
X153035000Y-131064000D03*
X156845000Y-131064000D03*
X149606000Y-132715000D03*
X151257000Y-132715000D03*
X152908000Y-132588000D03*
X156845000Y-132588000D03*
X149606000Y-136017000D03*
X149606000Y-137668000D03*
D12*
X120142000Y-157480000D03*
G04 #@! TO.N,Net-(C36-Pad1)*
X86614000Y-167386000D03*
G04 #@! TO.N,/CAN/CAN_TX*
X72647346Y-168160651D03*
G04 #@! TO.N,/CAN/CAN_RX*
X73660000Y-168148000D03*
G04 #@! TO.N,/Power/C_A*
X86614000Y-192024000D03*
G04 #@! TO.N,/Power/C_B*
X86868000Y-188468000D03*
G04 #@! TO.N,/Power/C_C*
X87083900Y-185453020D03*
G04 #@! TO.N,/Motor_Driver/GL_C*
X108966000Y-172427000D03*
D14*
G04 #@! TO.N,/Motor_Driver/GH_C*
X109982000Y-170942000D03*
D12*
X122428000Y-177038000D03*
G04 #@! TO.N,/Motor_Driver/GL_B*
X121666000Y-163534999D03*
G04 #@! TO.N,/Motor_Driver/GH_B*
X110057329Y-168656000D03*
X150622000Y-162306000D03*
G04 #@! TO.N,/Motor_Driver/GL_A*
X110057329Y-166878000D03*
G04 #@! TO.N,/Motor_Driver/GH_A*
X113792000Y-165608000D03*
X149098000Y-141986000D03*
G04 #@! TO.N,/Motor_controller/NRST*
X75184000Y-166116000D03*
X72247652Y-155305652D03*
G04 #@! TO.N,/Motor_Driver/Batt_voltage*
X92202000Y-184658000D03*
X135128002Y-184277000D03*
G04 #@! TO.N,/Motor_Driver/Volt_A*
X156464000Y-136398000D03*
X93218000Y-195834000D03*
X92456000Y-186309000D03*
X82805847Y-182116153D03*
G04 #@! TO.N,/Motor_Driver/Volt_B*
X91597458Y-193968777D03*
X158369000Y-156591000D03*
G04 #@! TO.N,/Motor_Driver/Volt_C*
X89916000Y-191262000D03*
X83058000Y-177038000D03*
X157606992Y-177419000D03*
G04 #@! TO.N,/Motor_controller/SDA*
X82804000Y-167360000D03*
X96774000Y-148336000D03*
G04 #@! TO.N,/Motor_controller/SWDIO*
X68834000Y-151130000D03*
X68072000Y-156464000D03*
D13*
G04 #@! TO.N,Net-(P1-Pad1)*
X154686000Y-150368000D03*
X150749000Y-150368000D03*
X152654000Y-150368000D03*
X156845000Y-150368000D03*
X148717000Y-148463000D03*
X158496000Y-145288000D03*
X156972000Y-148590000D03*
X150368000Y-145161000D03*
X155194000Y-145161000D03*
X156845000Y-145161000D03*
X153543000Y-145161000D03*
X151892000Y-145161000D03*
X156845000Y-146812000D03*
X148717000Y-146812000D03*
X148717000Y-150368000D03*
X148717000Y-145161000D03*
G04 #@! TO.N,Net-(P2-Pad1)*
X156210000Y-167640000D03*
X150749000Y-164338000D03*
X152400000Y-164338000D03*
X154051000Y-164338000D03*
X155702000Y-164338000D03*
X149479000Y-165735000D03*
X151130000Y-165862000D03*
X152781000Y-165862000D03*
X154432000Y-165862000D03*
X156210000Y-165862000D03*
X156210000Y-169418000D03*
X156210000Y-171069000D03*
G04 #@! TO.N,Net-(P3-Pad1)*
X150495000Y-185674000D03*
X147066000Y-191770000D03*
X148717000Y-188722000D03*
X148844000Y-185674000D03*
X155321000Y-189611000D03*
X147193000Y-188722000D03*
X155321000Y-185674000D03*
X153797000Y-185674000D03*
X148590000Y-190246000D03*
X147066000Y-190246000D03*
X147193000Y-187198000D03*
X148717000Y-187198000D03*
X155194000Y-191389000D03*
X155321000Y-187833000D03*
X148590000Y-191770000D03*
X152146000Y-185674000D03*
X147320000Y-185674000D03*
D12*
G04 #@! TO.N,Net-(C24-Pad1)*
X102616000Y-166624000D03*
G04 #@! TD*
D15*
G04 #@! TO.N,+3V3*
G36*
X137272001Y-126478014D02*
X137269219Y-126492000D01*
X137280240Y-126547405D01*
X137311624Y-126594376D01*
X137358595Y-126625760D01*
X137400019Y-126634000D01*
X137400020Y-126634000D01*
X137414000Y-126636781D01*
X137427981Y-126634000D01*
X161275000Y-126634000D01*
X161275001Y-196723000D01*
X152084522Y-196723000D01*
X152074405Y-196716240D01*
X152032981Y-196708000D01*
X152032980Y-196708000D01*
X152019000Y-196705219D01*
X152005019Y-196708000D01*
X67577981Y-196708000D01*
X67564000Y-196705219D01*
X67550020Y-196708000D01*
X67550019Y-196708000D01*
X67508595Y-196716240D01*
X67498478Y-196723000D01*
X58308000Y-196723000D01*
X58308000Y-195689391D01*
X92491000Y-195689391D01*
X92491000Y-195978609D01*
X92601679Y-196245813D01*
X92806187Y-196450321D01*
X93073391Y-196561000D01*
X93362609Y-196561000D01*
X93629813Y-196450321D01*
X93834321Y-196245813D01*
X93945000Y-195978609D01*
X93945000Y-195689391D01*
X93834321Y-195422187D01*
X93629813Y-195217679D01*
X93362609Y-195107000D01*
X93073391Y-195107000D01*
X92806187Y-195217679D01*
X92601679Y-195422187D01*
X92491000Y-195689391D01*
X58308000Y-195689391D01*
X58308000Y-193824168D01*
X90870458Y-193824168D01*
X90870458Y-194113386D01*
X90981137Y-194380590D01*
X91185645Y-194585098D01*
X91452849Y-194695777D01*
X91742067Y-194695777D01*
X92009271Y-194585098D01*
X92213779Y-194380590D01*
X92324458Y-194113386D01*
X92324458Y-193824168D01*
X92213779Y-193556964D01*
X92009271Y-193352456D01*
X91742067Y-193241777D01*
X91452849Y-193241777D01*
X91185645Y-193352456D01*
X90981137Y-193556964D01*
X90870458Y-193824168D01*
X58308000Y-193824168D01*
X58308000Y-191879391D01*
X85887000Y-191879391D01*
X85887000Y-192168609D01*
X85997679Y-192435813D01*
X86202187Y-192640321D01*
X86469391Y-192751000D01*
X86758609Y-192751000D01*
X87025813Y-192640321D01*
X87230321Y-192435813D01*
X87341000Y-192168609D01*
X87341000Y-191879391D01*
X87230321Y-191612187D01*
X87025813Y-191407679D01*
X86758609Y-191297000D01*
X86469391Y-191297000D01*
X86202187Y-191407679D01*
X85997679Y-191612187D01*
X85887000Y-191879391D01*
X58308000Y-191879391D01*
X58308000Y-190355391D01*
X86903000Y-190355391D01*
X86903000Y-190644609D01*
X87013679Y-190911813D01*
X87218187Y-191116321D01*
X87485391Y-191227000D01*
X87774609Y-191227000D01*
X88039229Y-191117391D01*
X89189000Y-191117391D01*
X89189000Y-191406609D01*
X89299679Y-191673813D01*
X89504187Y-191878321D01*
X89771391Y-191989000D01*
X90060609Y-191989000D01*
X90327813Y-191878321D01*
X90532321Y-191673813D01*
X90643000Y-191406609D01*
X90643000Y-191117391D01*
X90532321Y-190850187D01*
X90327813Y-190645679D01*
X90060609Y-190535000D01*
X89771391Y-190535000D01*
X89504187Y-190645679D01*
X89299679Y-190850187D01*
X89189000Y-191117391D01*
X88039229Y-191117391D01*
X88041813Y-191116321D01*
X88246321Y-190911813D01*
X88357000Y-190644609D01*
X88357000Y-190355391D01*
X88246321Y-190088187D01*
X88187518Y-190029384D01*
X145977000Y-190029384D01*
X145977000Y-190462616D01*
X146142790Y-190862869D01*
X146287921Y-191008000D01*
X146142790Y-191153131D01*
X145977000Y-191553384D01*
X145977000Y-191986616D01*
X146142790Y-192386869D01*
X146449131Y-192693210D01*
X146849384Y-192859000D01*
X147282616Y-192859000D01*
X147682869Y-192693210D01*
X147828000Y-192548079D01*
X147973131Y-192693210D01*
X148373384Y-192859000D01*
X148806616Y-192859000D01*
X149206869Y-192693210D01*
X149513210Y-192386869D01*
X149679000Y-191986616D01*
X149679000Y-191553384D01*
X149513210Y-191153131D01*
X149368079Y-191008000D01*
X149513210Y-190862869D01*
X149679000Y-190462616D01*
X149679000Y-190029384D01*
X149513210Y-189629131D01*
X149431579Y-189547500D01*
X149640210Y-189338869D01*
X149806000Y-188938616D01*
X149806000Y-188505384D01*
X149640210Y-188105131D01*
X149495079Y-187960000D01*
X149640210Y-187814869D01*
X149806000Y-187414616D01*
X149806000Y-186981384D01*
X149640210Y-186581131D01*
X149558579Y-186499500D01*
X149669500Y-186388579D01*
X149878131Y-186597210D01*
X150278384Y-186763000D01*
X150711616Y-186763000D01*
X151111869Y-186597210D01*
X151320500Y-186388579D01*
X151529131Y-186597210D01*
X151929384Y-186763000D01*
X152362616Y-186763000D01*
X152762869Y-186597210D01*
X152971500Y-186388579D01*
X153180131Y-186597210D01*
X153580384Y-186763000D01*
X154013616Y-186763000D01*
X154413869Y-186597210D01*
X154559000Y-186452079D01*
X154704131Y-186597210D01*
X155081449Y-186753500D01*
X154704131Y-186909790D01*
X154397790Y-187216131D01*
X154232000Y-187616384D01*
X154232000Y-188049616D01*
X154397790Y-188449869D01*
X154669921Y-188722000D01*
X154397790Y-188994131D01*
X154232000Y-189394384D01*
X154232000Y-189827616D01*
X154397790Y-190227869D01*
X154618553Y-190448632D01*
X154577131Y-190465790D01*
X154270790Y-190772131D01*
X154105000Y-191172384D01*
X154105000Y-191605616D01*
X154270790Y-192005869D01*
X154577131Y-192312210D01*
X154977384Y-192478000D01*
X155410616Y-192478000D01*
X155810869Y-192312210D01*
X156117210Y-192005869D01*
X156283000Y-191605616D01*
X156283000Y-191172384D01*
X156117210Y-190772131D01*
X155896447Y-190551368D01*
X155937869Y-190534210D01*
X156244210Y-190227869D01*
X156410000Y-189827616D01*
X156410000Y-189394384D01*
X156244210Y-188994131D01*
X155972079Y-188722000D01*
X156244210Y-188449869D01*
X156410000Y-188049616D01*
X156410000Y-187616384D01*
X156244210Y-187216131D01*
X155937869Y-186909790D01*
X155560551Y-186753500D01*
X155937869Y-186597210D01*
X156244210Y-186290869D01*
X156410000Y-185890616D01*
X156410000Y-185457384D01*
X156244210Y-185057131D01*
X155937869Y-184750790D01*
X155537616Y-184585000D01*
X155104384Y-184585000D01*
X154704131Y-184750790D01*
X154559000Y-184895921D01*
X154413869Y-184750790D01*
X154013616Y-184585000D01*
X153580384Y-184585000D01*
X153180131Y-184750790D01*
X152971500Y-184959421D01*
X152762869Y-184750790D01*
X152362616Y-184585000D01*
X151929384Y-184585000D01*
X151529131Y-184750790D01*
X151320500Y-184959421D01*
X151111869Y-184750790D01*
X150711616Y-184585000D01*
X150278384Y-184585000D01*
X149878131Y-184750790D01*
X149669500Y-184959421D01*
X149460869Y-184750790D01*
X149060616Y-184585000D01*
X148627384Y-184585000D01*
X148227131Y-184750790D01*
X148082000Y-184895921D01*
X147936869Y-184750790D01*
X147536616Y-184585000D01*
X147103384Y-184585000D01*
X146703131Y-184750790D01*
X146396790Y-185057131D01*
X146231000Y-185457384D01*
X146231000Y-185890616D01*
X146396790Y-186290869D01*
X146478421Y-186372500D01*
X146269790Y-186581131D01*
X146104000Y-186981384D01*
X146104000Y-187414616D01*
X146269790Y-187814869D01*
X146414921Y-187960000D01*
X146269790Y-188105131D01*
X146104000Y-188505384D01*
X146104000Y-188938616D01*
X146269790Y-189338869D01*
X146351421Y-189420500D01*
X146142790Y-189629131D01*
X145977000Y-190029384D01*
X88187518Y-190029384D01*
X88041813Y-189883679D01*
X87774609Y-189773000D01*
X87485391Y-189773000D01*
X87218187Y-189883679D01*
X87013679Y-190088187D01*
X86903000Y-190355391D01*
X58308000Y-190355391D01*
X58308000Y-189302401D01*
X81490069Y-189302401D01*
X81490069Y-189591619D01*
X81600748Y-189858823D01*
X81805256Y-190063331D01*
X82072460Y-190174010D01*
X82361678Y-190174010D01*
X82628882Y-190063331D01*
X82833390Y-189858823D01*
X82944069Y-189591619D01*
X82944069Y-189302401D01*
X82833390Y-189035197D01*
X82628882Y-188830689D01*
X82361678Y-188720010D01*
X82072460Y-188720010D01*
X81805256Y-188830689D01*
X81600748Y-189035197D01*
X81490069Y-189302401D01*
X58308000Y-189302401D01*
X58308000Y-188323391D01*
X86141000Y-188323391D01*
X86141000Y-188612609D01*
X86251679Y-188879813D01*
X86456187Y-189084321D01*
X86723391Y-189195000D01*
X87012609Y-189195000D01*
X87279813Y-189084321D01*
X87484321Y-188879813D01*
X87595000Y-188612609D01*
X87595000Y-188542576D01*
X134079815Y-188542576D01*
X134079815Y-188831794D01*
X134190494Y-189098998D01*
X134395002Y-189303506D01*
X134662206Y-189414185D01*
X134951424Y-189414185D01*
X135218628Y-189303506D01*
X135423136Y-189098998D01*
X135533815Y-188831794D01*
X135533815Y-188542576D01*
X135423136Y-188275372D01*
X135218628Y-188070864D01*
X134951424Y-187960185D01*
X134662206Y-187960185D01*
X134395002Y-188070864D01*
X134190494Y-188275372D01*
X134079815Y-188542576D01*
X87595000Y-188542576D01*
X87595000Y-188323391D01*
X87484321Y-188056187D01*
X87279813Y-187851679D01*
X87012609Y-187741000D01*
X86723391Y-187741000D01*
X86456187Y-187851679D01*
X86251679Y-188056187D01*
X86141000Y-188323391D01*
X58308000Y-188323391D01*
X58308000Y-187561391D01*
X87411000Y-187561391D01*
X87411000Y-187850609D01*
X87521679Y-188117813D01*
X87726187Y-188322321D01*
X87993391Y-188433000D01*
X88282609Y-188433000D01*
X88549813Y-188322321D01*
X88754321Y-188117813D01*
X88865000Y-187850609D01*
X88865000Y-187561391D01*
X95793000Y-187561391D01*
X95793000Y-187850609D01*
X95903679Y-188117813D01*
X96108187Y-188322321D01*
X96375391Y-188433000D01*
X96664609Y-188433000D01*
X96931813Y-188322321D01*
X97136321Y-188117813D01*
X97247000Y-187850609D01*
X97247000Y-187561391D01*
X97136321Y-187294187D01*
X96931813Y-187089679D01*
X96664609Y-186979000D01*
X96375391Y-186979000D01*
X96108187Y-187089679D01*
X95903679Y-187294187D01*
X95793000Y-187561391D01*
X88865000Y-187561391D01*
X88754321Y-187294187D01*
X88549813Y-187089679D01*
X88282609Y-186979000D01*
X87993391Y-186979000D01*
X87726187Y-187089679D01*
X87521679Y-187294187D01*
X87411000Y-187561391D01*
X58308000Y-187561391D01*
X58308000Y-186291395D01*
X72679000Y-186291395D01*
X72679000Y-186580613D01*
X72789679Y-186847817D01*
X72994187Y-187052325D01*
X73261391Y-187163004D01*
X73550609Y-187163004D01*
X73817813Y-187052325D01*
X74022321Y-186847817D01*
X74133000Y-186580613D01*
X74133000Y-186508391D01*
X81289600Y-186508391D01*
X81289600Y-186797609D01*
X81400279Y-187064813D01*
X81604787Y-187269321D01*
X81871991Y-187380000D01*
X82161209Y-187380000D01*
X82428413Y-187269321D01*
X82632921Y-187064813D01*
X82743600Y-186797609D01*
X82743600Y-186508391D01*
X82632921Y-186241187D01*
X82428413Y-186036679D01*
X82161209Y-185926000D01*
X81871991Y-185926000D01*
X81604787Y-186036679D01*
X81400279Y-186241187D01*
X81289600Y-186508391D01*
X74133000Y-186508391D01*
X74133000Y-186291395D01*
X74022321Y-186024191D01*
X73817813Y-185819683D01*
X73550609Y-185709004D01*
X73261391Y-185709004D01*
X72994187Y-185819683D01*
X72789679Y-186024191D01*
X72679000Y-186291395D01*
X58308000Y-186291395D01*
X58308000Y-184513391D01*
X60741000Y-184513391D01*
X60741000Y-184802609D01*
X60851679Y-185069813D01*
X61056187Y-185274321D01*
X61323391Y-185385000D01*
X61612609Y-185385000D01*
X61879813Y-185274321D01*
X62084321Y-185069813D01*
X62106305Y-185016738D01*
X79287653Y-185016738D01*
X79287653Y-185305956D01*
X79398332Y-185573160D01*
X79602840Y-185777668D01*
X79870044Y-185888347D01*
X80159262Y-185888347D01*
X80426466Y-185777668D01*
X80630974Y-185573160D01*
X80740636Y-185308411D01*
X86356900Y-185308411D01*
X86356900Y-185597629D01*
X86467579Y-185864833D01*
X86672087Y-186069341D01*
X86939291Y-186180020D01*
X87157000Y-186180020D01*
X87157000Y-186326609D01*
X87267679Y-186593813D01*
X87472187Y-186798321D01*
X87739391Y-186909000D01*
X88028609Y-186909000D01*
X88295813Y-186798321D01*
X88500321Y-186593813D01*
X88611000Y-186326609D01*
X88611000Y-186164391D01*
X91729000Y-186164391D01*
X91729000Y-186453609D01*
X91839679Y-186720813D01*
X92044187Y-186925321D01*
X92311391Y-187036000D01*
X92600609Y-187036000D01*
X92867813Y-186925321D01*
X93072321Y-186720813D01*
X93183000Y-186453609D01*
X93183000Y-186164391D01*
X93072321Y-185897187D01*
X92867813Y-185692679D01*
X92600609Y-185582000D01*
X92311391Y-185582000D01*
X92044187Y-185692679D01*
X91839679Y-185897187D01*
X91729000Y-186164391D01*
X88611000Y-186164391D01*
X88611000Y-186037391D01*
X88500321Y-185770187D01*
X88295813Y-185565679D01*
X88028609Y-185455000D01*
X87810900Y-185455000D01*
X87810900Y-185385000D01*
X88028609Y-185385000D01*
X88295813Y-185274321D01*
X88500321Y-185069813D01*
X88611000Y-184802609D01*
X88611000Y-184513391D01*
X91475000Y-184513391D01*
X91475000Y-184802609D01*
X91585679Y-185069813D01*
X91790187Y-185274321D01*
X92057391Y-185385000D01*
X92346609Y-185385000D01*
X92613813Y-185274321D01*
X92818321Y-185069813D01*
X92929000Y-184802609D01*
X92929000Y-184513391D01*
X92818321Y-184246187D01*
X92704525Y-184132391D01*
X134401002Y-184132391D01*
X134401002Y-184421609D01*
X134511681Y-184688813D01*
X134716189Y-184893321D01*
X134983393Y-185004000D01*
X135272611Y-185004000D01*
X135539815Y-184893321D01*
X135744323Y-184688813D01*
X135855002Y-184421609D01*
X135855002Y-184132391D01*
X135744323Y-183865187D01*
X135539815Y-183660679D01*
X135272611Y-183550000D01*
X134983393Y-183550000D01*
X134716189Y-183660679D01*
X134511681Y-183865187D01*
X134401002Y-184132391D01*
X92704525Y-184132391D01*
X92613813Y-184041679D01*
X92346609Y-183931000D01*
X92057391Y-183931000D01*
X91790187Y-184041679D01*
X91585679Y-184246187D01*
X91475000Y-184513391D01*
X88611000Y-184513391D01*
X88500321Y-184246187D01*
X88295813Y-184041679D01*
X88028609Y-183931000D01*
X87739391Y-183931000D01*
X87472187Y-184041679D01*
X87267679Y-184246187D01*
X87157000Y-184513391D01*
X87157000Y-184726020D01*
X86939291Y-184726020D01*
X86672087Y-184836699D01*
X86467579Y-185041207D01*
X86356900Y-185308411D01*
X80740636Y-185308411D01*
X80741653Y-185305956D01*
X80741653Y-185016738D01*
X80630974Y-184749534D01*
X80426466Y-184545026D01*
X80159262Y-184434347D01*
X79870044Y-184434347D01*
X79602840Y-184545026D01*
X79398332Y-184749534D01*
X79287653Y-185016738D01*
X62106305Y-185016738D01*
X62195000Y-184802609D01*
X62195000Y-184513391D01*
X62084321Y-184246187D01*
X61879813Y-184041679D01*
X61612609Y-183931000D01*
X61323391Y-183931000D01*
X61056187Y-184041679D01*
X60851679Y-184246187D01*
X60741000Y-184513391D01*
X58308000Y-184513391D01*
X58308000Y-181719391D01*
X74457000Y-181719391D01*
X74457000Y-182008609D01*
X74567679Y-182275813D01*
X74772187Y-182480321D01*
X75039391Y-182591000D01*
X75328609Y-182591000D01*
X75595813Y-182480321D01*
X75800321Y-182275813D01*
X75911000Y-182008609D01*
X75911000Y-181971544D01*
X82078847Y-181971544D01*
X82078847Y-182260762D01*
X82189526Y-182527966D01*
X82394034Y-182732474D01*
X82661238Y-182843153D01*
X82950456Y-182843153D01*
X83217660Y-182732474D01*
X83422168Y-182527966D01*
X83532847Y-182260762D01*
X83532847Y-181971544D01*
X83422168Y-181704340D01*
X83217660Y-181499832D01*
X82950456Y-181389153D01*
X82661238Y-181389153D01*
X82394034Y-181499832D01*
X82189526Y-181704340D01*
X82078847Y-181971544D01*
X75911000Y-181971544D01*
X75911000Y-181719391D01*
X75800321Y-181452187D01*
X75595813Y-181247679D01*
X75328609Y-181137000D01*
X75039391Y-181137000D01*
X74772187Y-181247679D01*
X74567679Y-181452187D01*
X74457000Y-181719391D01*
X58308000Y-181719391D01*
X58308000Y-178980384D01*
X147374000Y-178980384D01*
X147374000Y-179413616D01*
X147539790Y-179813869D01*
X147684921Y-179959000D01*
X147539790Y-180104131D01*
X147374000Y-180504384D01*
X147374000Y-180937616D01*
X147539790Y-181337869D01*
X147748421Y-181546500D01*
X147539790Y-181755131D01*
X147374000Y-182155384D01*
X147374000Y-182588616D01*
X147539790Y-182988869D01*
X147846131Y-183295210D01*
X148246384Y-183461000D01*
X148679616Y-183461000D01*
X149079869Y-183295210D01*
X149386210Y-182988869D01*
X149552000Y-182588616D01*
X149552000Y-182155384D01*
X149386210Y-181755131D01*
X149177579Y-181546500D01*
X149386210Y-181337869D01*
X149552000Y-180937616D01*
X149552000Y-180504384D01*
X149386210Y-180104131D01*
X149241079Y-179959000D01*
X149352000Y-179848079D01*
X149497131Y-179993210D01*
X149897384Y-180159000D01*
X150330616Y-180159000D01*
X150730869Y-179993210D01*
X151037210Y-179686869D01*
X151203000Y-179286616D01*
X151203000Y-179016000D01*
X151438000Y-179016000D01*
X151438000Y-179159616D01*
X151603790Y-179559869D01*
X151910131Y-179866210D01*
X152310384Y-180032000D01*
X152743616Y-180032000D01*
X153143869Y-179866210D01*
X153450210Y-179559869D01*
X153616000Y-179159616D01*
X153616000Y-178726384D01*
X153450210Y-178326131D01*
X153143869Y-178019790D01*
X152743616Y-177854000D01*
X152346000Y-177854000D01*
X152346000Y-177710384D01*
X152180210Y-177310131D01*
X152144470Y-177274391D01*
X156879992Y-177274391D01*
X156879992Y-177563609D01*
X156990671Y-177830813D01*
X157195179Y-178035321D01*
X157462383Y-178146000D01*
X157751601Y-178146000D01*
X158018805Y-178035321D01*
X158223313Y-177830813D01*
X158333992Y-177563609D01*
X158333992Y-177274391D01*
X158223313Y-177007187D01*
X158018805Y-176802679D01*
X157751601Y-176692000D01*
X157462383Y-176692000D01*
X157195179Y-176802679D01*
X156990671Y-177007187D01*
X156879992Y-177274391D01*
X152144470Y-177274391D01*
X151873869Y-177003790D01*
X151473616Y-176838000D01*
X151076000Y-176838000D01*
X151076000Y-176440384D01*
X150910210Y-176040131D01*
X150603869Y-175733790D01*
X150506854Y-175693605D01*
X150857869Y-175548210D01*
X151164210Y-175241869D01*
X151181368Y-175200447D01*
X151402131Y-175421210D01*
X151802384Y-175587000D01*
X152235616Y-175587000D01*
X152635869Y-175421210D01*
X152856632Y-175200447D01*
X152873790Y-175241869D01*
X153180131Y-175548210D01*
X153580384Y-175714000D01*
X154013616Y-175714000D01*
X154105000Y-175676148D01*
X154105000Y-175730616D01*
X154270790Y-176130869D01*
X154577131Y-176437210D01*
X154977384Y-176603000D01*
X155410616Y-176603000D01*
X155810869Y-176437210D01*
X156117210Y-176130869D01*
X156283000Y-175730616D01*
X156283000Y-175297384D01*
X156117210Y-174897131D01*
X155810869Y-174590790D01*
X155410616Y-174425000D01*
X154977384Y-174425000D01*
X154886000Y-174462852D01*
X154886000Y-174408384D01*
X154720210Y-174008131D01*
X154413869Y-173701790D01*
X154013616Y-173536000D01*
X153580384Y-173536000D01*
X153180131Y-173701790D01*
X152959368Y-173922553D01*
X152942210Y-173881131D01*
X152635869Y-173574790D01*
X152235616Y-173409000D01*
X151802384Y-173409000D01*
X151402131Y-173574790D01*
X151095790Y-173881131D01*
X151078632Y-173922553D01*
X150857869Y-173701790D01*
X150457616Y-173536000D01*
X150024384Y-173536000D01*
X149624131Y-173701790D01*
X149317790Y-174008131D01*
X149293749Y-174066172D01*
X148933616Y-173917000D01*
X148500384Y-173917000D01*
X148100131Y-174082790D01*
X147793790Y-174389131D01*
X147628000Y-174789384D01*
X147628000Y-175222616D01*
X147793790Y-175622869D01*
X148100131Y-175929210D01*
X148500384Y-176095000D01*
X148933616Y-176095000D01*
X149063315Y-176041277D01*
X148898000Y-176440384D01*
X148898000Y-176584000D01*
X148500384Y-176584000D01*
X148100131Y-176749790D01*
X147793790Y-177056131D01*
X147628000Y-177456384D01*
X147628000Y-177889616D01*
X147793790Y-178289869D01*
X147811921Y-178308000D01*
X147539790Y-178580131D01*
X147374000Y-178980384D01*
X58308000Y-178980384D01*
X58308000Y-177163388D01*
X67091000Y-177163388D01*
X67091000Y-177452606D01*
X67201679Y-177719810D01*
X67406187Y-177924318D01*
X67673391Y-178034997D01*
X67962609Y-178034997D01*
X68229813Y-177924318D01*
X68244740Y-177909391D01*
X79283000Y-177909391D01*
X79283000Y-178198609D01*
X79393679Y-178465813D01*
X79598187Y-178670321D01*
X79865391Y-178781000D01*
X80154609Y-178781000D01*
X80421813Y-178670321D01*
X80626321Y-178465813D01*
X80737000Y-178198609D01*
X80737000Y-177909391D01*
X80626321Y-177642187D01*
X80421813Y-177437679D01*
X80154609Y-177327000D01*
X79865391Y-177327000D01*
X79598187Y-177437679D01*
X79393679Y-177642187D01*
X79283000Y-177909391D01*
X68244740Y-177909391D01*
X68434321Y-177719810D01*
X68545000Y-177452606D01*
X68545000Y-177163388D01*
X68434321Y-176896184D01*
X68229813Y-176691676D01*
X67962609Y-176580997D01*
X67673391Y-176580997D01*
X67406187Y-176691676D01*
X67201679Y-176896184D01*
X67091000Y-177163388D01*
X58308000Y-177163388D01*
X58308000Y-176385391D01*
X74203000Y-176385391D01*
X74203000Y-176674609D01*
X74313679Y-176941813D01*
X74518187Y-177146321D01*
X74785391Y-177257000D01*
X75074609Y-177257000D01*
X75341813Y-177146321D01*
X75546321Y-176941813D01*
X75566377Y-176893391D01*
X82331000Y-176893391D01*
X82331000Y-177182609D01*
X82441679Y-177449813D01*
X82646187Y-177654321D01*
X82913391Y-177765000D01*
X83202609Y-177765000D01*
X83469813Y-177654321D01*
X83674321Y-177449813D01*
X83785000Y-177182609D01*
X83785000Y-177147391D01*
X97317000Y-177147391D01*
X97317000Y-177436609D01*
X97427679Y-177703813D01*
X97632187Y-177908321D01*
X97899391Y-178019000D01*
X98188609Y-178019000D01*
X98455813Y-177908321D01*
X98660321Y-177703813D01*
X98771000Y-177436609D01*
X98771000Y-177147391D01*
X98665791Y-176893391D01*
X121701000Y-176893391D01*
X121701000Y-177182609D01*
X121811679Y-177449813D01*
X122016187Y-177654321D01*
X122283391Y-177765000D01*
X122572609Y-177765000D01*
X122839813Y-177654321D01*
X123044321Y-177449813D01*
X123155000Y-177182609D01*
X123155000Y-177147391D01*
X133893000Y-177147391D01*
X133893000Y-177436609D01*
X134003679Y-177703813D01*
X134208187Y-177908321D01*
X134475391Y-178019000D01*
X134764609Y-178019000D01*
X135031813Y-177908321D01*
X135236321Y-177703813D01*
X135347000Y-177436609D01*
X135347000Y-177147391D01*
X135236321Y-176880187D01*
X135031813Y-176675679D01*
X134764609Y-176565000D01*
X134475391Y-176565000D01*
X134208187Y-176675679D01*
X134003679Y-176880187D01*
X133893000Y-177147391D01*
X123155000Y-177147391D01*
X123155000Y-176893391D01*
X123044321Y-176626187D01*
X122839813Y-176421679D01*
X122572609Y-176311000D01*
X122283391Y-176311000D01*
X122016187Y-176421679D01*
X121811679Y-176626187D01*
X121701000Y-176893391D01*
X98665791Y-176893391D01*
X98660321Y-176880187D01*
X98455813Y-176675679D01*
X98188609Y-176565000D01*
X97899391Y-176565000D01*
X97632187Y-176675679D01*
X97427679Y-176880187D01*
X97317000Y-177147391D01*
X83785000Y-177147391D01*
X83785000Y-176893391D01*
X83674321Y-176626187D01*
X83469813Y-176421679D01*
X83202609Y-176311000D01*
X82913391Y-176311000D01*
X82646187Y-176421679D01*
X82441679Y-176626187D01*
X82331000Y-176893391D01*
X75566377Y-176893391D01*
X75657000Y-176674609D01*
X75657000Y-176385391D01*
X75546321Y-176118187D01*
X75341813Y-175913679D01*
X75074609Y-175803000D01*
X74785391Y-175803000D01*
X74518187Y-175913679D01*
X74313679Y-176118187D01*
X74203000Y-176385391D01*
X58308000Y-176385391D01*
X58308000Y-172067391D01*
X104474829Y-172067391D01*
X104474829Y-172356609D01*
X104585508Y-172623813D01*
X104790016Y-172828321D01*
X105057220Y-172939000D01*
X105346438Y-172939000D01*
X105613642Y-172828321D01*
X105818150Y-172623813D01*
X105928829Y-172356609D01*
X105928829Y-172282391D01*
X108239000Y-172282391D01*
X108239000Y-172571609D01*
X108349679Y-172838813D01*
X108554187Y-173043321D01*
X108821391Y-173154000D01*
X109110609Y-173154000D01*
X109377813Y-173043321D01*
X109582321Y-172838813D01*
X109693000Y-172571609D01*
X109693000Y-172282391D01*
X109582321Y-172015187D01*
X109377813Y-171810679D01*
X109110609Y-171700000D01*
X108821391Y-171700000D01*
X108554187Y-171810679D01*
X108349679Y-172015187D01*
X108239000Y-172282391D01*
X105928829Y-172282391D01*
X105928829Y-172067391D01*
X105818150Y-171800187D01*
X105613642Y-171595679D01*
X105346438Y-171485000D01*
X105057220Y-171485000D01*
X104790016Y-171595679D01*
X104585508Y-171800187D01*
X104474829Y-172067391D01*
X58308000Y-172067391D01*
X58308000Y-170543391D01*
X105699000Y-170543391D01*
X105699000Y-170832609D01*
X105809679Y-171099813D01*
X106014187Y-171304321D01*
X106281391Y-171415000D01*
X106570609Y-171415000D01*
X106837813Y-171304321D01*
X107042321Y-171099813D01*
X107077669Y-171014476D01*
X107240514Y-171177321D01*
X107507718Y-171288000D01*
X107796936Y-171288000D01*
X107961643Y-171219777D01*
X108046187Y-171304321D01*
X108313391Y-171415000D01*
X108602609Y-171415000D01*
X108869813Y-171304321D01*
X109074321Y-171099813D01*
X109185000Y-170832609D01*
X109185000Y-170817282D01*
X109355000Y-170817282D01*
X109355000Y-171066718D01*
X109450455Y-171297167D01*
X109626833Y-171473545D01*
X109857282Y-171569000D01*
X110106718Y-171569000D01*
X110129916Y-171559391D01*
X114081000Y-171559391D01*
X114081000Y-171848609D01*
X114191679Y-172115813D01*
X114396187Y-172320321D01*
X114663391Y-172431000D01*
X114952609Y-172431000D01*
X115219813Y-172320321D01*
X115424321Y-172115813D01*
X115535000Y-171848609D01*
X115535000Y-171559391D01*
X115424321Y-171292187D01*
X115219813Y-171087679D01*
X115132206Y-171051391D01*
X131099000Y-171051391D01*
X131099000Y-171340609D01*
X131209679Y-171607813D01*
X131414187Y-171812321D01*
X131681391Y-171923000D01*
X131970609Y-171923000D01*
X132237813Y-171812321D01*
X132442321Y-171607813D01*
X132553000Y-171340609D01*
X132553000Y-171051391D01*
X132442321Y-170784187D01*
X132237813Y-170579679D01*
X131970609Y-170469000D01*
X131681391Y-170469000D01*
X131414187Y-170579679D01*
X131209679Y-170784187D01*
X131099000Y-171051391D01*
X115132206Y-171051391D01*
X114952609Y-170977000D01*
X114663391Y-170977000D01*
X114396187Y-171087679D01*
X114191679Y-171292187D01*
X114081000Y-171559391D01*
X110129916Y-171559391D01*
X110337167Y-171473545D01*
X110513545Y-171297167D01*
X110609000Y-171066718D01*
X110609000Y-170817282D01*
X110513545Y-170586833D01*
X110337167Y-170410455D01*
X110106718Y-170315000D01*
X109857282Y-170315000D01*
X109626833Y-170410455D01*
X109450455Y-170586833D01*
X109355000Y-170817282D01*
X109185000Y-170817282D01*
X109185000Y-170543391D01*
X109074321Y-170276187D01*
X108869813Y-170071679D01*
X108602609Y-169961000D01*
X108313391Y-169961000D01*
X108148684Y-170029223D01*
X108064140Y-169944679D01*
X107796936Y-169834000D01*
X107507718Y-169834000D01*
X107377445Y-169887960D01*
X107407000Y-169816609D01*
X107407000Y-169527391D01*
X107296321Y-169260187D01*
X107091813Y-169055679D01*
X106824609Y-168945000D01*
X106535391Y-168945000D01*
X106268187Y-169055679D01*
X106063679Y-169260187D01*
X105953000Y-169527391D01*
X105953000Y-169816609D01*
X106052141Y-170055958D01*
X106014187Y-170071679D01*
X105809679Y-170276187D01*
X105699000Y-170543391D01*
X58308000Y-170543391D01*
X58308000Y-168016042D01*
X71920346Y-168016042D01*
X71920346Y-168305260D01*
X72031025Y-168572464D01*
X72235533Y-168776972D01*
X72502737Y-168887651D01*
X72791955Y-168887651D01*
X73059159Y-168776972D01*
X73159999Y-168676133D01*
X73248187Y-168764321D01*
X73515391Y-168875000D01*
X73804609Y-168875000D01*
X74071813Y-168764321D01*
X74276321Y-168559813D01*
X74387000Y-168292609D01*
X74387000Y-168003391D01*
X74276321Y-167736187D01*
X74071813Y-167531679D01*
X73804609Y-167421000D01*
X73515391Y-167421000D01*
X73248187Y-167531679D01*
X73147348Y-167632519D01*
X73059159Y-167544330D01*
X72791955Y-167433651D01*
X72502737Y-167433651D01*
X72235533Y-167544330D01*
X72031025Y-167748838D01*
X71920346Y-168016042D01*
X58308000Y-168016042D01*
X58308000Y-167215391D01*
X82077000Y-167215391D01*
X82077000Y-167504609D01*
X82187679Y-167771813D01*
X82392187Y-167976321D01*
X82659391Y-168087000D01*
X82948609Y-168087000D01*
X83215813Y-167976321D01*
X83420321Y-167771813D01*
X83531000Y-167504609D01*
X83531000Y-167215391D01*
X83420321Y-166948187D01*
X83215813Y-166743679D01*
X82948609Y-166633000D01*
X82659391Y-166633000D01*
X82392187Y-166743679D01*
X82187679Y-166948187D01*
X82077000Y-167215391D01*
X58308000Y-167215391D01*
X58308000Y-165971391D01*
X74457000Y-165971391D01*
X74457000Y-166260609D01*
X74567679Y-166527813D01*
X74772187Y-166732321D01*
X75039391Y-166843000D01*
X75328609Y-166843000D01*
X75595813Y-166732321D01*
X75800321Y-166527813D01*
X75911000Y-166260609D01*
X75911000Y-166225391D01*
X85379000Y-166225391D01*
X85379000Y-166514609D01*
X85489679Y-166781813D01*
X85694187Y-166986321D01*
X85948944Y-167091844D01*
X85887000Y-167241391D01*
X85887000Y-167530609D01*
X85997679Y-167797813D01*
X86202187Y-168002321D01*
X86469391Y-168113000D01*
X86758609Y-168113000D01*
X87025813Y-168002321D01*
X87230321Y-167797813D01*
X87341000Y-167530609D01*
X87341000Y-167241391D01*
X100365000Y-167241391D01*
X100365000Y-167530609D01*
X100475679Y-167797813D01*
X100680187Y-168002321D01*
X100726980Y-168021703D01*
X100619000Y-168282391D01*
X100619000Y-168571609D01*
X100729679Y-168838813D01*
X100934187Y-169043321D01*
X101201391Y-169154000D01*
X101490609Y-169154000D01*
X101757813Y-169043321D01*
X101962321Y-168838813D01*
X102073000Y-168571609D01*
X102073000Y-168511391D01*
X109330329Y-168511391D01*
X109330329Y-168800609D01*
X109441008Y-169067813D01*
X109645516Y-169272321D01*
X109912720Y-169383000D01*
X110201938Y-169383000D01*
X110469142Y-169272321D01*
X110673650Y-169067813D01*
X110784329Y-168800609D01*
X110784329Y-168511391D01*
X110673650Y-168244187D01*
X110469854Y-168040391D01*
X114420569Y-168040391D01*
X114420569Y-168329609D01*
X114531248Y-168596813D01*
X114735756Y-168801321D01*
X115002960Y-168912000D01*
X115292178Y-168912000D01*
X115559382Y-168801321D01*
X115595312Y-168765391D01*
X135597918Y-168765391D01*
X135597918Y-169054609D01*
X135708597Y-169321813D01*
X135913105Y-169526321D01*
X136180309Y-169637000D01*
X136469527Y-169637000D01*
X136736731Y-169526321D01*
X136941239Y-169321813D01*
X137051918Y-169054609D01*
X137051918Y-168765391D01*
X136941239Y-168498187D01*
X136736731Y-168293679D01*
X136469527Y-168183000D01*
X136180309Y-168183000D01*
X135913105Y-168293679D01*
X135708597Y-168498187D01*
X135597918Y-168765391D01*
X115595312Y-168765391D01*
X115763890Y-168596813D01*
X115874569Y-168329609D01*
X115874569Y-168040391D01*
X115763890Y-167773187D01*
X115559382Y-167568679D01*
X115292178Y-167458000D01*
X115002960Y-167458000D01*
X114735756Y-167568679D01*
X114531248Y-167773187D01*
X114420569Y-168040391D01*
X110469854Y-168040391D01*
X110469142Y-168039679D01*
X110201938Y-167929000D01*
X109912720Y-167929000D01*
X109645516Y-168039679D01*
X109441008Y-168244187D01*
X109330329Y-168511391D01*
X102073000Y-168511391D01*
X102073000Y-168282391D01*
X101962321Y-168015187D01*
X101757813Y-167810679D01*
X101711020Y-167791297D01*
X101819000Y-167530609D01*
X101819000Y-167241391D01*
X101708321Y-166974187D01*
X101503813Y-166769679D01*
X101236609Y-166659000D01*
X100947391Y-166659000D01*
X100680187Y-166769679D01*
X100475679Y-166974187D01*
X100365000Y-167241391D01*
X87341000Y-167241391D01*
X87230321Y-166974187D01*
X87025813Y-166769679D01*
X86771056Y-166664156D01*
X86833000Y-166514609D01*
X86833000Y-166479391D01*
X101889000Y-166479391D01*
X101889000Y-166768609D01*
X101999679Y-167035813D01*
X102204187Y-167240321D01*
X102471391Y-167351000D01*
X102760609Y-167351000D01*
X103027813Y-167240321D01*
X103232321Y-167035813D01*
X103343000Y-166768609D01*
X103343000Y-166733391D01*
X109330329Y-166733391D01*
X109330329Y-167022609D01*
X109441008Y-167289813D01*
X109645516Y-167494321D01*
X109912720Y-167605000D01*
X110201938Y-167605000D01*
X110469142Y-167494321D01*
X110673650Y-167289813D01*
X110784329Y-167022609D01*
X110784329Y-166733391D01*
X110673650Y-166466187D01*
X110469142Y-166261679D01*
X110201938Y-166151000D01*
X109912720Y-166151000D01*
X109645516Y-166261679D01*
X109441008Y-166466187D01*
X109330329Y-166733391D01*
X103343000Y-166733391D01*
X103343000Y-166479391D01*
X103232321Y-166212187D01*
X103027813Y-166007679D01*
X102760609Y-165897000D01*
X102471391Y-165897000D01*
X102204187Y-166007679D01*
X101999679Y-166212187D01*
X101889000Y-166479391D01*
X86833000Y-166479391D01*
X86833000Y-166225391D01*
X86722321Y-165958187D01*
X86517813Y-165753679D01*
X86250609Y-165643000D01*
X85961391Y-165643000D01*
X85694187Y-165753679D01*
X85489679Y-165958187D01*
X85379000Y-166225391D01*
X75911000Y-166225391D01*
X75911000Y-165971391D01*
X75800321Y-165704187D01*
X75595813Y-165499679D01*
X75328609Y-165389000D01*
X75039391Y-165389000D01*
X74772187Y-165499679D01*
X74567679Y-165704187D01*
X74457000Y-165971391D01*
X58308000Y-165971391D01*
X58308000Y-164701391D01*
X96047000Y-164701391D01*
X96047000Y-164990609D01*
X96157679Y-165257813D01*
X96362187Y-165462321D01*
X96629391Y-165573000D01*
X96918609Y-165573000D01*
X97183229Y-165463391D01*
X113065000Y-165463391D01*
X113065000Y-165752609D01*
X113175679Y-166019813D01*
X113380187Y-166224321D01*
X113647391Y-166335000D01*
X113936609Y-166335000D01*
X114203813Y-166224321D01*
X114408321Y-166019813D01*
X114519000Y-165752609D01*
X114519000Y-165518384D01*
X148390000Y-165518384D01*
X148390000Y-165951616D01*
X148555790Y-166351869D01*
X148862131Y-166658210D01*
X149262384Y-166824000D01*
X149695616Y-166824000D01*
X150095869Y-166658210D01*
X150241000Y-166513079D01*
X150513131Y-166785210D01*
X150913384Y-166951000D01*
X151346616Y-166951000D01*
X151746869Y-166785210D01*
X151955500Y-166576579D01*
X152164131Y-166785210D01*
X152564384Y-166951000D01*
X152997616Y-166951000D01*
X153397869Y-166785210D01*
X153606500Y-166576579D01*
X153815131Y-166785210D01*
X154215384Y-166951000D01*
X154648616Y-166951000D01*
X155048869Y-166785210D01*
X155321000Y-166513079D01*
X155558921Y-166751000D01*
X155286790Y-167023131D01*
X155121000Y-167423384D01*
X155121000Y-167856616D01*
X155286790Y-168256869D01*
X155558921Y-168529000D01*
X155286790Y-168801131D01*
X155121000Y-169201384D01*
X155121000Y-169634616D01*
X155286790Y-170034869D01*
X155495421Y-170243500D01*
X155286790Y-170452131D01*
X155121000Y-170852384D01*
X155121000Y-171285616D01*
X155286790Y-171685869D01*
X155593131Y-171992210D01*
X155993384Y-172158000D01*
X156426616Y-172158000D01*
X156826869Y-171992210D01*
X157133210Y-171685869D01*
X157299000Y-171285616D01*
X157299000Y-170852384D01*
X157133210Y-170452131D01*
X156924579Y-170243500D01*
X157133210Y-170034869D01*
X157299000Y-169634616D01*
X157299000Y-169201384D01*
X157133210Y-168801131D01*
X156861079Y-168529000D01*
X157133210Y-168256869D01*
X157299000Y-167856616D01*
X157299000Y-167423384D01*
X157133210Y-167023131D01*
X156861079Y-166751000D01*
X157133210Y-166478869D01*
X157299000Y-166078616D01*
X157299000Y-165645384D01*
X157133210Y-165245131D01*
X156826869Y-164938790D01*
X156660427Y-164869848D01*
X156791000Y-164554616D01*
X156791000Y-164121384D01*
X156625210Y-163721131D01*
X156318869Y-163414790D01*
X155918616Y-163249000D01*
X155485384Y-163249000D01*
X155085131Y-163414790D01*
X154876500Y-163623421D01*
X154667869Y-163414790D01*
X154267616Y-163249000D01*
X153834384Y-163249000D01*
X153434131Y-163414790D01*
X153225500Y-163623421D01*
X153016869Y-163414790D01*
X152616616Y-163249000D01*
X152183384Y-163249000D01*
X151783131Y-163414790D01*
X151574500Y-163623421D01*
X151365869Y-163414790D01*
X150965616Y-163249000D01*
X150532384Y-163249000D01*
X150132131Y-163414790D01*
X149825790Y-163721131D01*
X149660000Y-164121384D01*
X149660000Y-164554616D01*
X149698316Y-164647118D01*
X149695616Y-164646000D01*
X149262384Y-164646000D01*
X148862131Y-164811790D01*
X148555790Y-165118131D01*
X148390000Y-165518384D01*
X114519000Y-165518384D01*
X114519000Y-165463391D01*
X114408321Y-165196187D01*
X114203813Y-164991679D01*
X113936609Y-164881000D01*
X113647391Y-164881000D01*
X113380187Y-164991679D01*
X113175679Y-165196187D01*
X113065000Y-165463391D01*
X97183229Y-165463391D01*
X97185813Y-165462321D01*
X97390321Y-165257813D01*
X97501000Y-164990609D01*
X97501000Y-164701391D01*
X97390321Y-164434187D01*
X97185813Y-164229679D01*
X96918609Y-164119000D01*
X96629391Y-164119000D01*
X96362187Y-164229679D01*
X96157679Y-164434187D01*
X96047000Y-164701391D01*
X58308000Y-164701391D01*
X58308000Y-162732891D01*
X117891000Y-162732891D01*
X117891000Y-163022109D01*
X118001679Y-163289313D01*
X118206187Y-163493821D01*
X118473391Y-163604500D01*
X118762609Y-163604500D01*
X119029813Y-163493821D01*
X119133244Y-163390390D01*
X120939000Y-163390390D01*
X120939000Y-163679608D01*
X121049679Y-163946812D01*
X121254187Y-164151320D01*
X121521391Y-164261999D01*
X121810609Y-164261999D01*
X122077813Y-164151320D01*
X122282321Y-163946812D01*
X122393000Y-163679608D01*
X122393000Y-163390390D01*
X122282321Y-163123186D01*
X122077813Y-162918678D01*
X121810609Y-162807999D01*
X121521391Y-162807999D01*
X121254187Y-162918678D01*
X121049679Y-163123186D01*
X120939000Y-163390390D01*
X119133244Y-163390390D01*
X119234321Y-163289313D01*
X119345000Y-163022109D01*
X119345000Y-162732891D01*
X119318698Y-162669391D01*
X131861000Y-162669391D01*
X131861000Y-162958609D01*
X131971679Y-163225813D01*
X132176187Y-163430321D01*
X132443391Y-163541000D01*
X132732609Y-163541000D01*
X132999813Y-163430321D01*
X133204321Y-163225813D01*
X133315000Y-162958609D01*
X133315000Y-162669391D01*
X133204321Y-162402187D01*
X132999813Y-162197679D01*
X132732609Y-162087000D01*
X132443391Y-162087000D01*
X132176187Y-162197679D01*
X131971679Y-162402187D01*
X131861000Y-162669391D01*
X119318698Y-162669391D01*
X119234321Y-162465687D01*
X119029813Y-162261179D01*
X118762609Y-162150500D01*
X118473391Y-162150500D01*
X118206187Y-162261179D01*
X118001679Y-162465687D01*
X117891000Y-162732891D01*
X58308000Y-162732891D01*
X58308000Y-159562160D01*
X71608779Y-159562160D01*
X71608779Y-159851378D01*
X71719458Y-160118582D01*
X71923966Y-160323090D01*
X72191170Y-160433769D01*
X72480388Y-160433769D01*
X72747592Y-160323090D01*
X72952100Y-160118582D01*
X73062779Y-159851378D01*
X73062779Y-159562160D01*
X72952100Y-159294956D01*
X72747592Y-159090448D01*
X72480388Y-158979769D01*
X72191170Y-158979769D01*
X71923966Y-159090448D01*
X71719458Y-159294956D01*
X71608779Y-159562160D01*
X58308000Y-159562160D01*
X58308000Y-158351407D01*
X112811000Y-158351407D01*
X112811000Y-158640625D01*
X112921679Y-158907829D01*
X113126187Y-159112337D01*
X113393391Y-159223016D01*
X113682609Y-159223016D01*
X113949813Y-159112337D01*
X114154321Y-158907829D01*
X114265000Y-158640625D01*
X114265000Y-158351407D01*
X114154321Y-158084203D01*
X113949813Y-157879695D01*
X113682609Y-157769016D01*
X113393391Y-157769016D01*
X113126187Y-157879695D01*
X112921679Y-158084203D01*
X112811000Y-158351407D01*
X58308000Y-158351407D01*
X58308000Y-157335391D01*
X101889000Y-157335391D01*
X101889000Y-157624609D01*
X101999679Y-157891813D01*
X102204187Y-158096321D01*
X102471391Y-158207000D01*
X102760609Y-158207000D01*
X103027813Y-158096321D01*
X103232321Y-157891813D01*
X103343000Y-157624609D01*
X103343000Y-157335391D01*
X119415000Y-157335391D01*
X119415000Y-157624609D01*
X119525679Y-157891813D01*
X119730187Y-158096321D01*
X119997391Y-158207000D01*
X120286609Y-158207000D01*
X120553813Y-158096321D01*
X120758321Y-157891813D01*
X120869000Y-157624609D01*
X120869000Y-157335391D01*
X120763791Y-157081391D01*
X129829000Y-157081391D01*
X129829000Y-157370609D01*
X129939679Y-157637813D01*
X130144187Y-157842321D01*
X130411391Y-157953000D01*
X130700609Y-157953000D01*
X130967813Y-157842321D01*
X131172321Y-157637813D01*
X131283000Y-157370609D01*
X131283000Y-157136384D01*
X147120000Y-157136384D01*
X147120000Y-157569616D01*
X147285790Y-157969869D01*
X147430921Y-158115000D01*
X147285790Y-158260131D01*
X147120000Y-158660384D01*
X147120000Y-159093616D01*
X147285790Y-159493869D01*
X147592131Y-159800210D01*
X147992384Y-159966000D01*
X148425616Y-159966000D01*
X148491816Y-159938579D01*
X148390000Y-160184384D01*
X148390000Y-160328000D01*
X147992384Y-160328000D01*
X147592131Y-160493790D01*
X147285790Y-160800131D01*
X147120000Y-161200384D01*
X147120000Y-161633616D01*
X147285790Y-162033869D01*
X147592131Y-162340210D01*
X147992384Y-162506000D01*
X148425616Y-162506000D01*
X148825869Y-162340210D01*
X149004688Y-162161391D01*
X149895000Y-162161391D01*
X149895000Y-162450609D01*
X150005679Y-162717813D01*
X150210187Y-162922321D01*
X150477391Y-163033000D01*
X150766609Y-163033000D01*
X151033813Y-162922321D01*
X151238321Y-162717813D01*
X151349000Y-162450609D01*
X151349000Y-162161391D01*
X151238321Y-161894187D01*
X151033813Y-161689679D01*
X150766609Y-161579000D01*
X150477391Y-161579000D01*
X150210187Y-161689679D01*
X150005679Y-161894187D01*
X149895000Y-162161391D01*
X149004688Y-162161391D01*
X149132210Y-162033869D01*
X149298000Y-161633616D01*
X149298000Y-161490000D01*
X149695616Y-161490000D01*
X150095869Y-161324210D01*
X150402210Y-161017869D01*
X150568000Y-160617616D01*
X150568000Y-160184384D01*
X150402210Y-159784131D01*
X150308447Y-159690368D01*
X150349869Y-159673210D01*
X150656210Y-159366869D01*
X150822000Y-158966616D01*
X150822000Y-158806937D01*
X151167384Y-158950000D01*
X151600616Y-158950000D01*
X152000869Y-158784210D01*
X152307210Y-158477869D01*
X152336820Y-158406384D01*
X155502000Y-158406384D01*
X155502000Y-158839616D01*
X155667790Y-159239869D01*
X155876421Y-159448500D01*
X155667790Y-159657131D01*
X155502000Y-160057384D01*
X155502000Y-160490616D01*
X155667790Y-160890869D01*
X155974131Y-161197210D01*
X156374384Y-161363000D01*
X156807616Y-161363000D01*
X157207869Y-161197210D01*
X157514210Y-160890869D01*
X157680000Y-160490616D01*
X157680000Y-160057384D01*
X157514210Y-159657131D01*
X157305579Y-159448500D01*
X157514210Y-159239869D01*
X157680000Y-158839616D01*
X157680000Y-158406384D01*
X157514210Y-158006131D01*
X157207869Y-157699790D01*
X156807616Y-157534000D01*
X156374384Y-157534000D01*
X155974131Y-157699790D01*
X155667790Y-158006131D01*
X155502000Y-158406384D01*
X152336820Y-158406384D01*
X152473000Y-158077616D01*
X152473000Y-157644384D01*
X152307210Y-157244131D01*
X152000869Y-156937790D01*
X151600616Y-156772000D01*
X151167384Y-156772000D01*
X150897054Y-156883974D01*
X150783210Y-156609131D01*
X150765079Y-156591000D01*
X150909688Y-156446391D01*
X157642000Y-156446391D01*
X157642000Y-156735609D01*
X157752679Y-157002813D01*
X157957187Y-157207321D01*
X158224391Y-157318000D01*
X158513609Y-157318000D01*
X158780813Y-157207321D01*
X158985321Y-157002813D01*
X159096000Y-156735609D01*
X159096000Y-156446391D01*
X158985321Y-156179187D01*
X158780813Y-155974679D01*
X158513609Y-155864000D01*
X158224391Y-155864000D01*
X157957187Y-155974679D01*
X157752679Y-156179187D01*
X157642000Y-156446391D01*
X150909688Y-156446391D01*
X151037210Y-156318869D01*
X151203000Y-155918616D01*
X151203000Y-155485384D01*
X151037210Y-155085131D01*
X150828579Y-154876500D01*
X151037210Y-154667869D01*
X151203000Y-154267616D01*
X151203000Y-154215384D01*
X155756000Y-154215384D01*
X155756000Y-154648616D01*
X155921790Y-155048869D01*
X156228131Y-155355210D01*
X156628384Y-155521000D01*
X157061616Y-155521000D01*
X157461869Y-155355210D01*
X157768210Y-155048869D01*
X157934000Y-154648616D01*
X157934000Y-154215384D01*
X157768210Y-153815131D01*
X157461869Y-153508790D01*
X157061616Y-153343000D01*
X156628384Y-153343000D01*
X156228131Y-153508790D01*
X155921790Y-153815131D01*
X155756000Y-154215384D01*
X151203000Y-154215384D01*
X151203000Y-153834384D01*
X151037210Y-153434131D01*
X150730869Y-153127790D01*
X150330616Y-152962000D01*
X149897384Y-152962000D01*
X149497131Y-153127790D01*
X149288500Y-153336421D01*
X149079869Y-153127790D01*
X148679616Y-152962000D01*
X148246384Y-152962000D01*
X147846131Y-153127790D01*
X147539790Y-153434131D01*
X147374000Y-153834384D01*
X147374000Y-154267616D01*
X147539790Y-154667869D01*
X147748421Y-154876500D01*
X147539790Y-155085131D01*
X147374000Y-155485384D01*
X147374000Y-155918616D01*
X147539790Y-156318869D01*
X147633553Y-156412632D01*
X147592131Y-156429790D01*
X147285790Y-156736131D01*
X147120000Y-157136384D01*
X131283000Y-157136384D01*
X131283000Y-157081391D01*
X131172321Y-156814187D01*
X130967813Y-156609679D01*
X130700609Y-156499000D01*
X130411391Y-156499000D01*
X130144187Y-156609679D01*
X129939679Y-156814187D01*
X129829000Y-157081391D01*
X120763791Y-157081391D01*
X120758321Y-157068187D01*
X120553813Y-156863679D01*
X120286609Y-156753000D01*
X119997391Y-156753000D01*
X119730187Y-156863679D01*
X119525679Y-157068187D01*
X119415000Y-157335391D01*
X103343000Y-157335391D01*
X103232321Y-157068187D01*
X103027813Y-156863679D01*
X102760609Y-156753000D01*
X102471391Y-156753000D01*
X102204187Y-156863679D01*
X101999679Y-157068187D01*
X101889000Y-157335391D01*
X58308000Y-157335391D01*
X58308000Y-156319391D01*
X67345000Y-156319391D01*
X67345000Y-156608609D01*
X67455679Y-156875813D01*
X67660187Y-157080321D01*
X67927391Y-157191000D01*
X68216609Y-157191000D01*
X68483813Y-157080321D01*
X68688321Y-156875813D01*
X68799000Y-156608609D01*
X68799000Y-156319391D01*
X68688321Y-156052187D01*
X68483813Y-155847679D01*
X68216609Y-155737000D01*
X67927391Y-155737000D01*
X67660187Y-155847679D01*
X67455679Y-156052187D01*
X67345000Y-156319391D01*
X58308000Y-156319391D01*
X58308000Y-155161043D01*
X71520652Y-155161043D01*
X71520652Y-155450261D01*
X71631331Y-155717465D01*
X71835839Y-155921973D01*
X72103043Y-156032652D01*
X72392261Y-156032652D01*
X72659465Y-155921973D01*
X72863973Y-155717465D01*
X72974652Y-155450261D01*
X72974652Y-155161043D01*
X72863973Y-154893839D01*
X72659465Y-154689331D01*
X72392261Y-154578652D01*
X72103043Y-154578652D01*
X71835839Y-154689331D01*
X71631331Y-154893839D01*
X71520652Y-155161043D01*
X58308000Y-155161043D01*
X58308000Y-153996391D01*
X110271000Y-153996391D01*
X110271000Y-154285609D01*
X110381679Y-154552813D01*
X110586187Y-154757321D01*
X110853391Y-154868000D01*
X111142609Y-154868000D01*
X111409813Y-154757321D01*
X111614321Y-154552813D01*
X111725000Y-154285609D01*
X111725000Y-153996391D01*
X111614321Y-153729187D01*
X111409813Y-153524679D01*
X111142609Y-153414000D01*
X110853391Y-153414000D01*
X110586187Y-153524679D01*
X110381679Y-153729187D01*
X110271000Y-153996391D01*
X58308000Y-153996391D01*
X58308000Y-153017391D01*
X66583000Y-153017391D01*
X66583000Y-153306609D01*
X66693679Y-153573813D01*
X66898187Y-153778321D01*
X67165391Y-153889000D01*
X67454609Y-153889000D01*
X67721813Y-153778321D01*
X67926321Y-153573813D01*
X68037000Y-153306609D01*
X68037000Y-153017391D01*
X67926321Y-152750187D01*
X67721813Y-152545679D01*
X67454609Y-152435000D01*
X67165391Y-152435000D01*
X66898187Y-152545679D01*
X66693679Y-152750187D01*
X66583000Y-153017391D01*
X58308000Y-153017391D01*
X58308000Y-152001391D01*
X104175000Y-152001391D01*
X104175000Y-152290609D01*
X104285679Y-152557813D01*
X104490187Y-152762321D01*
X104757391Y-152873000D01*
X105046609Y-152873000D01*
X105313813Y-152762321D01*
X105518321Y-152557813D01*
X105629000Y-152290609D01*
X105629000Y-152001391D01*
X105518321Y-151734187D01*
X105313813Y-151529679D01*
X105046609Y-151419000D01*
X104757391Y-151419000D01*
X104490187Y-151529679D01*
X104285679Y-151734187D01*
X104175000Y-152001391D01*
X58308000Y-152001391D01*
X58308000Y-150985391D01*
X68107000Y-150985391D01*
X68107000Y-151274609D01*
X68217679Y-151541813D01*
X68422187Y-151746321D01*
X68689391Y-151857000D01*
X68978609Y-151857000D01*
X69245813Y-151746321D01*
X69450321Y-151541813D01*
X69561000Y-151274609D01*
X69561000Y-150999822D01*
X108714429Y-150999822D01*
X108714429Y-151289040D01*
X108825108Y-151556244D01*
X109029616Y-151760752D01*
X109296820Y-151871431D01*
X109586038Y-151871431D01*
X109853242Y-151760752D01*
X110057750Y-151556244D01*
X110168429Y-151289040D01*
X110168429Y-150999822D01*
X110057750Y-150732618D01*
X109853242Y-150528110D01*
X109586038Y-150417431D01*
X109296820Y-150417431D01*
X109029616Y-150528110D01*
X108825108Y-150732618D01*
X108714429Y-150999822D01*
X69561000Y-150999822D01*
X69561000Y-150985391D01*
X69450321Y-150718187D01*
X69245813Y-150513679D01*
X68978609Y-150403000D01*
X68689391Y-150403000D01*
X68422187Y-150513679D01*
X68217679Y-150718187D01*
X68107000Y-150985391D01*
X58308000Y-150985391D01*
X58308000Y-148445391D01*
X81823000Y-148445391D01*
X81823000Y-148734609D01*
X81933679Y-149001813D01*
X82138187Y-149206321D01*
X82405391Y-149317000D01*
X82694609Y-149317000D01*
X82961813Y-149206321D01*
X83166321Y-149001813D01*
X83277000Y-148734609D01*
X83277000Y-148699391D01*
X86141000Y-148699391D01*
X86141000Y-148988609D01*
X86251679Y-149255813D01*
X86456187Y-149460321D01*
X86723391Y-149571000D01*
X87012609Y-149571000D01*
X87279813Y-149460321D01*
X87484321Y-149255813D01*
X87595000Y-148988609D01*
X87595000Y-148699391D01*
X87484321Y-148432187D01*
X87279813Y-148227679D01*
X87192206Y-148191391D01*
X96047000Y-148191391D01*
X96047000Y-148480609D01*
X96157679Y-148747813D01*
X96362187Y-148952321D01*
X96629391Y-149063000D01*
X96918609Y-149063000D01*
X97185813Y-148952321D01*
X97390321Y-148747813D01*
X97501000Y-148480609D01*
X97501000Y-148350400D01*
X134401000Y-148350400D01*
X134401000Y-148639618D01*
X134511679Y-148906822D01*
X134716187Y-149111330D01*
X134983391Y-149222009D01*
X135272609Y-149222009D01*
X135539813Y-149111330D01*
X135744321Y-148906822D01*
X135855000Y-148639618D01*
X135855000Y-148350400D01*
X135744321Y-148083196D01*
X135539813Y-147878688D01*
X135272609Y-147768009D01*
X134983391Y-147768009D01*
X134716187Y-147878688D01*
X134511679Y-148083196D01*
X134401000Y-148350400D01*
X97501000Y-148350400D01*
X97501000Y-148191391D01*
X97390321Y-147924187D01*
X97185813Y-147719679D01*
X96918609Y-147609000D01*
X96629391Y-147609000D01*
X96362187Y-147719679D01*
X96157679Y-147924187D01*
X96047000Y-148191391D01*
X87192206Y-148191391D01*
X87012609Y-148117000D01*
X86723391Y-148117000D01*
X86456187Y-148227679D01*
X86251679Y-148432187D01*
X86141000Y-148699391D01*
X83277000Y-148699391D01*
X83277000Y-148445391D01*
X83166321Y-148178187D01*
X82961813Y-147973679D01*
X82694609Y-147863000D01*
X82405391Y-147863000D01*
X82138187Y-147973679D01*
X81933679Y-148178187D01*
X81823000Y-148445391D01*
X58308000Y-148445391D01*
X58308000Y-147175391D01*
X78267000Y-147175391D01*
X78267000Y-147464609D01*
X78377679Y-147731813D01*
X78582187Y-147936321D01*
X78849391Y-148047000D01*
X79138609Y-148047000D01*
X79405813Y-147936321D01*
X79610321Y-147731813D01*
X79721000Y-147464609D01*
X79721000Y-147175391D01*
X79610321Y-146908187D01*
X79405813Y-146703679D01*
X79138609Y-146593000D01*
X78849391Y-146593000D01*
X78582187Y-146703679D01*
X78377679Y-146908187D01*
X78267000Y-147175391D01*
X58308000Y-147175391D01*
X58308000Y-145651391D01*
X101381000Y-145651391D01*
X101381000Y-145940609D01*
X101491679Y-146207813D01*
X101696187Y-146412321D01*
X101963391Y-146523000D01*
X102252609Y-146523000D01*
X102519813Y-146412321D01*
X102724321Y-146207813D01*
X102744377Y-146159391D01*
X103921000Y-146159391D01*
X103921000Y-146448609D01*
X104031679Y-146715813D01*
X104236187Y-146920321D01*
X104503391Y-147031000D01*
X104792609Y-147031000D01*
X105059813Y-146920321D01*
X105264321Y-146715813D01*
X105375000Y-146448609D01*
X105375000Y-146159391D01*
X105264321Y-145892187D01*
X105059813Y-145687679D01*
X104792609Y-145577000D01*
X104503391Y-145577000D01*
X104236187Y-145687679D01*
X104031679Y-145892187D01*
X103921000Y-146159391D01*
X102744377Y-146159391D01*
X102835000Y-145940609D01*
X102835000Y-145651391D01*
X102729791Y-145397391D01*
X112303000Y-145397391D01*
X112303000Y-145686609D01*
X112413679Y-145953813D01*
X112618187Y-146158321D01*
X112885391Y-146269000D01*
X113174609Y-146269000D01*
X113441813Y-146158321D01*
X113646321Y-145953813D01*
X113757000Y-145686609D01*
X113757000Y-145397391D01*
X113646321Y-145130187D01*
X113460518Y-144944384D01*
X147628000Y-144944384D01*
X147628000Y-145377616D01*
X147793790Y-145777869D01*
X148002421Y-145986500D01*
X147793790Y-146195131D01*
X147628000Y-146595384D01*
X147628000Y-147028616D01*
X147793790Y-147428869D01*
X148002421Y-147637500D01*
X147793790Y-147846131D01*
X147628000Y-148246384D01*
X147628000Y-148679616D01*
X147793790Y-149079869D01*
X148100131Y-149386210D01*
X148170843Y-149415500D01*
X148100131Y-149444790D01*
X147793790Y-149751131D01*
X147628000Y-150151384D01*
X147628000Y-150584616D01*
X147793790Y-150984869D01*
X148100131Y-151291210D01*
X148500384Y-151457000D01*
X148933616Y-151457000D01*
X149333869Y-151291210D01*
X149640210Y-150984869D01*
X149733000Y-150760854D01*
X149825790Y-150984869D01*
X150132131Y-151291210D01*
X150532384Y-151457000D01*
X150965616Y-151457000D01*
X151365869Y-151291210D01*
X151672210Y-150984869D01*
X151701500Y-150914157D01*
X151730790Y-150984869D01*
X152037131Y-151291210D01*
X152437384Y-151457000D01*
X152870616Y-151457000D01*
X153270869Y-151291210D01*
X153577210Y-150984869D01*
X153670000Y-150760854D01*
X153762790Y-150984869D01*
X154069131Y-151291210D01*
X154469384Y-151457000D01*
X154902616Y-151457000D01*
X155302869Y-151291210D01*
X155609210Y-150984869D01*
X155765500Y-150607551D01*
X155921790Y-150984869D01*
X156228131Y-151291210D01*
X156628384Y-151457000D01*
X157061616Y-151457000D01*
X157461869Y-151291210D01*
X157768210Y-150984869D01*
X157934000Y-150584616D01*
X157934000Y-150151384D01*
X157768210Y-149751131D01*
X157547447Y-149530368D01*
X157588869Y-149513210D01*
X157895210Y-149206869D01*
X158061000Y-148806616D01*
X158061000Y-148373384D01*
X157895210Y-147973131D01*
X157588869Y-147666790D01*
X157547447Y-147649632D01*
X157768210Y-147428869D01*
X157934000Y-147028616D01*
X157934000Y-146595384D01*
X157768210Y-146195131D01*
X157559579Y-145986500D01*
X157607000Y-145939079D01*
X157879131Y-146211210D01*
X158279384Y-146377000D01*
X158712616Y-146377000D01*
X159112869Y-146211210D01*
X159419210Y-145904869D01*
X159585000Y-145504616D01*
X159585000Y-145071384D01*
X159419210Y-144671131D01*
X159112869Y-144364790D01*
X158712616Y-144199000D01*
X158279384Y-144199000D01*
X157879131Y-144364790D01*
X157734000Y-144509921D01*
X157461869Y-144237790D01*
X157061616Y-144072000D01*
X156628384Y-144072000D01*
X156228131Y-144237790D01*
X156019500Y-144446421D01*
X155810869Y-144237790D01*
X155410616Y-144072000D01*
X154977384Y-144072000D01*
X154577131Y-144237790D01*
X154368500Y-144446421D01*
X154159869Y-144237790D01*
X153759616Y-144072000D01*
X153326384Y-144072000D01*
X152926131Y-144237790D01*
X152717500Y-144446421D01*
X152508869Y-144237790D01*
X152108616Y-144072000D01*
X151675384Y-144072000D01*
X151275131Y-144237790D01*
X151130000Y-144382921D01*
X150984869Y-144237790D01*
X150584616Y-144072000D01*
X150151384Y-144072000D01*
X149751131Y-144237790D01*
X149542500Y-144446421D01*
X149333869Y-144237790D01*
X148933616Y-144072000D01*
X148500384Y-144072000D01*
X148100131Y-144237790D01*
X147793790Y-144544131D01*
X147628000Y-144944384D01*
X113460518Y-144944384D01*
X113441813Y-144925679D01*
X113174609Y-144815000D01*
X112885391Y-144815000D01*
X112618187Y-144925679D01*
X112413679Y-145130187D01*
X112303000Y-145397391D01*
X102729791Y-145397391D01*
X102724321Y-145384187D01*
X102519813Y-145179679D01*
X102252609Y-145069000D01*
X101963391Y-145069000D01*
X101696187Y-145179679D01*
X101491679Y-145384187D01*
X101381000Y-145651391D01*
X58308000Y-145651391D01*
X58308000Y-141841391D01*
X148371000Y-141841391D01*
X148371000Y-142130609D01*
X148481679Y-142397813D01*
X148686187Y-142602321D01*
X148953391Y-142713000D01*
X149242609Y-142713000D01*
X149509813Y-142602321D01*
X149714321Y-142397813D01*
X149825000Y-142130609D01*
X149825000Y-141841391D01*
X149714321Y-141574187D01*
X149509813Y-141369679D01*
X149242609Y-141259000D01*
X148953391Y-141259000D01*
X148686187Y-141369679D01*
X148481679Y-141574187D01*
X148371000Y-141841391D01*
X58308000Y-141841391D01*
X58308000Y-138031391D01*
X131861000Y-138031391D01*
X131861000Y-138320609D01*
X131971679Y-138587813D01*
X132176187Y-138792321D01*
X132443391Y-138903000D01*
X132732609Y-138903000D01*
X132999813Y-138792321D01*
X133204321Y-138587813D01*
X133315000Y-138320609D01*
X133315000Y-138031391D01*
X133204321Y-137764187D01*
X132999813Y-137559679D01*
X132732609Y-137449000D01*
X132443391Y-137449000D01*
X132176187Y-137559679D01*
X131971679Y-137764187D01*
X131861000Y-138031391D01*
X58308000Y-138031391D01*
X58308000Y-136271000D01*
X67498478Y-136271000D01*
X67508595Y-136277760D01*
X67564000Y-136288781D01*
X67577980Y-136286000D01*
X108444019Y-136286000D01*
X108458000Y-136288781D01*
X108471980Y-136286000D01*
X108471981Y-136286000D01*
X108513405Y-136277760D01*
X108560376Y-136246376D01*
X108591760Y-136199405D01*
X108602781Y-136144000D01*
X108600000Y-136130019D01*
X108600000Y-133713391D01*
X131861000Y-133713391D01*
X131861000Y-134002609D01*
X131971679Y-134269813D01*
X132176187Y-134474321D01*
X132443391Y-134585000D01*
X132732609Y-134585000D01*
X132999813Y-134474321D01*
X133204321Y-134269813D01*
X133315000Y-134002609D01*
X133315000Y-133713391D01*
X133204321Y-133446187D01*
X132999813Y-133241679D01*
X132732609Y-133131000D01*
X132443391Y-133131000D01*
X132176187Y-133241679D01*
X131971679Y-133446187D01*
X131861000Y-133713391D01*
X108600000Y-133713391D01*
X108600000Y-130847384D01*
X148517000Y-130847384D01*
X148517000Y-131280616D01*
X148682790Y-131680869D01*
X148891421Y-131889500D01*
X148682790Y-132098131D01*
X148517000Y-132498384D01*
X148517000Y-132931616D01*
X148682790Y-133331869D01*
X148827921Y-133477000D01*
X148682790Y-133622131D01*
X148517000Y-134022384D01*
X148517000Y-134455616D01*
X148682790Y-134855869D01*
X148954921Y-135128000D01*
X148682790Y-135400131D01*
X148517000Y-135800384D01*
X148517000Y-136233616D01*
X148682790Y-136633869D01*
X148891421Y-136842500D01*
X148682790Y-137051131D01*
X148517000Y-137451384D01*
X148517000Y-137884616D01*
X148682790Y-138284869D01*
X148989131Y-138591210D01*
X149389384Y-138757000D01*
X149822616Y-138757000D01*
X150222869Y-138591210D01*
X150529210Y-138284869D01*
X150695000Y-137884616D01*
X150695000Y-137451384D01*
X150529210Y-137051131D01*
X150320579Y-136842500D01*
X150529210Y-136633869D01*
X150686808Y-136253391D01*
X155737000Y-136253391D01*
X155737000Y-136542609D01*
X155847679Y-136809813D01*
X156052187Y-137014321D01*
X156319391Y-137125000D01*
X156608609Y-137125000D01*
X156875813Y-137014321D01*
X157080321Y-136809813D01*
X157191000Y-136542609D01*
X157191000Y-136253391D01*
X157080321Y-135986187D01*
X156875813Y-135781679D01*
X156608609Y-135671000D01*
X156319391Y-135671000D01*
X156052187Y-135781679D01*
X155847679Y-135986187D01*
X155737000Y-136253391D01*
X150686808Y-136253391D01*
X150695000Y-136233616D01*
X150695000Y-135800384D01*
X150529210Y-135400131D01*
X150257079Y-135128000D01*
X150529210Y-134855869D01*
X150695000Y-134455616D01*
X150695000Y-134022384D01*
X150529210Y-133622131D01*
X150384079Y-133477000D01*
X150431500Y-133429579D01*
X150640131Y-133638210D01*
X151040384Y-133804000D01*
X151473616Y-133804000D01*
X151873869Y-133638210D01*
X152146000Y-133366079D01*
X152291131Y-133511210D01*
X152691384Y-133677000D01*
X153124616Y-133677000D01*
X153524869Y-133511210D01*
X153831210Y-133204869D01*
X153997000Y-132804616D01*
X153997000Y-132371384D01*
X153831210Y-131971131D01*
X153749579Y-131889500D01*
X153958210Y-131680869D01*
X154124000Y-131280616D01*
X154124000Y-130847384D01*
X153958210Y-130447131D01*
X153749579Y-130238500D01*
X153958210Y-130029869D01*
X154124000Y-129629616D01*
X154124000Y-129196384D01*
X155756000Y-129196384D01*
X155756000Y-129629616D01*
X155921790Y-130029869D01*
X156130421Y-130238500D01*
X155921790Y-130447131D01*
X155756000Y-130847384D01*
X155756000Y-131280616D01*
X155921790Y-131680869D01*
X156066921Y-131826000D01*
X155921790Y-131971131D01*
X155756000Y-132371384D01*
X155756000Y-132804616D01*
X155921790Y-133204869D01*
X156228131Y-133511210D01*
X156628384Y-133677000D01*
X157061616Y-133677000D01*
X157461869Y-133511210D01*
X157768210Y-133204869D01*
X157934000Y-132804616D01*
X157934000Y-132371384D01*
X157768210Y-131971131D01*
X157623079Y-131826000D01*
X157768210Y-131680869D01*
X157934000Y-131280616D01*
X157934000Y-130847384D01*
X157768210Y-130447131D01*
X157559579Y-130238500D01*
X157768210Y-130029869D01*
X157934000Y-129629616D01*
X157934000Y-129196384D01*
X157768210Y-128796131D01*
X157461869Y-128489790D01*
X157061616Y-128324000D01*
X156628384Y-128324000D01*
X156228131Y-128489790D01*
X155921790Y-128796131D01*
X155756000Y-129196384D01*
X154124000Y-129196384D01*
X153958210Y-128796131D01*
X153651869Y-128489790D01*
X153251616Y-128324000D01*
X152818384Y-128324000D01*
X152418131Y-128489790D01*
X152209500Y-128698421D01*
X152000869Y-128489790D01*
X151600616Y-128324000D01*
X151167384Y-128324000D01*
X150767131Y-128489790D01*
X150558500Y-128698421D01*
X150349869Y-128489790D01*
X149949616Y-128324000D01*
X149516384Y-128324000D01*
X149116131Y-128489790D01*
X148809790Y-128796131D01*
X148644000Y-129196384D01*
X148644000Y-129629616D01*
X148809790Y-130029869D01*
X148954921Y-130175000D01*
X148682790Y-130447131D01*
X148517000Y-130847384D01*
X108600000Y-130847384D01*
X108600000Y-122336000D01*
X129368594Y-122336000D01*
X129368594Y-123536000D01*
X129393973Y-123663589D01*
X129466246Y-123771754D01*
X129574411Y-123844027D01*
X129702000Y-123869406D01*
X130902000Y-123869406D01*
X131029589Y-123844027D01*
X131137754Y-123771754D01*
X131210027Y-123663589D01*
X131235406Y-123536000D01*
X131235406Y-122336000D01*
X131210027Y-122208411D01*
X131137754Y-122100246D01*
X131029589Y-122027973D01*
X130902000Y-122002594D01*
X129702000Y-122002594D01*
X129574411Y-122027973D01*
X129466246Y-122100246D01*
X129393973Y-122208411D01*
X129368594Y-122336000D01*
X108600000Y-122336000D01*
X108600000Y-117751608D01*
X129375000Y-117751608D01*
X129375000Y-118120392D01*
X129516127Y-118461103D01*
X129776897Y-118721873D01*
X130117608Y-118863000D01*
X130486392Y-118863000D01*
X130827103Y-118721873D01*
X131087873Y-118461103D01*
X131229000Y-118120392D01*
X131229000Y-117751608D01*
X131087873Y-117410897D01*
X130827103Y-117150127D01*
X130486392Y-117009000D01*
X130117608Y-117009000D01*
X129776897Y-117150127D01*
X129516127Y-117410897D01*
X129375000Y-117751608D01*
X108600000Y-117751608D01*
X108600000Y-109209608D01*
X129375000Y-109209608D01*
X129375000Y-109578392D01*
X129516127Y-109919103D01*
X129776897Y-110179873D01*
X130117608Y-110321000D01*
X130486392Y-110321000D01*
X130827103Y-110179873D01*
X131087873Y-109919103D01*
X131229000Y-109578392D01*
X131229000Y-109209608D01*
X131087873Y-108868897D01*
X130827103Y-108608127D01*
X130486392Y-108467000D01*
X130117608Y-108467000D01*
X129776897Y-108608127D01*
X129516127Y-108868897D01*
X129375000Y-109209608D01*
X108600000Y-109209608D01*
X108600000Y-107709981D01*
X108602781Y-107696000D01*
X108591760Y-107640595D01*
X108585000Y-107630478D01*
X108585000Y-103794000D01*
X129368594Y-103794000D01*
X129368594Y-104994000D01*
X129393973Y-105121589D01*
X129466246Y-105229754D01*
X129574411Y-105302027D01*
X129702000Y-105327406D01*
X130902000Y-105327406D01*
X131029589Y-105302027D01*
X131137754Y-105229754D01*
X131210027Y-105121589D01*
X131235406Y-104994000D01*
X131235406Y-103794000D01*
X131210027Y-103666411D01*
X131137754Y-103558246D01*
X131029589Y-103485973D01*
X130902000Y-103460594D01*
X129702000Y-103460594D01*
X129574411Y-103485973D01*
X129466246Y-103558246D01*
X129393973Y-103666411D01*
X129368594Y-103794000D01*
X108585000Y-103794000D01*
X108585000Y-98440000D01*
X137272000Y-98440000D01*
X137272001Y-126478014D01*
X137272001Y-126478014D01*
G37*
X137272001Y-126478014D02*
X137269219Y-126492000D01*
X137280240Y-126547405D01*
X137311624Y-126594376D01*
X137358595Y-126625760D01*
X137400019Y-126634000D01*
X137400020Y-126634000D01*
X137414000Y-126636781D01*
X137427981Y-126634000D01*
X161275000Y-126634000D01*
X161275001Y-196723000D01*
X152084522Y-196723000D01*
X152074405Y-196716240D01*
X152032981Y-196708000D01*
X152032980Y-196708000D01*
X152019000Y-196705219D01*
X152005019Y-196708000D01*
X67577981Y-196708000D01*
X67564000Y-196705219D01*
X67550020Y-196708000D01*
X67550019Y-196708000D01*
X67508595Y-196716240D01*
X67498478Y-196723000D01*
X58308000Y-196723000D01*
X58308000Y-195689391D01*
X92491000Y-195689391D01*
X92491000Y-195978609D01*
X92601679Y-196245813D01*
X92806187Y-196450321D01*
X93073391Y-196561000D01*
X93362609Y-196561000D01*
X93629813Y-196450321D01*
X93834321Y-196245813D01*
X93945000Y-195978609D01*
X93945000Y-195689391D01*
X93834321Y-195422187D01*
X93629813Y-195217679D01*
X93362609Y-195107000D01*
X93073391Y-195107000D01*
X92806187Y-195217679D01*
X92601679Y-195422187D01*
X92491000Y-195689391D01*
X58308000Y-195689391D01*
X58308000Y-193824168D01*
X90870458Y-193824168D01*
X90870458Y-194113386D01*
X90981137Y-194380590D01*
X91185645Y-194585098D01*
X91452849Y-194695777D01*
X91742067Y-194695777D01*
X92009271Y-194585098D01*
X92213779Y-194380590D01*
X92324458Y-194113386D01*
X92324458Y-193824168D01*
X92213779Y-193556964D01*
X92009271Y-193352456D01*
X91742067Y-193241777D01*
X91452849Y-193241777D01*
X91185645Y-193352456D01*
X90981137Y-193556964D01*
X90870458Y-193824168D01*
X58308000Y-193824168D01*
X58308000Y-191879391D01*
X85887000Y-191879391D01*
X85887000Y-192168609D01*
X85997679Y-192435813D01*
X86202187Y-192640321D01*
X86469391Y-192751000D01*
X86758609Y-192751000D01*
X87025813Y-192640321D01*
X87230321Y-192435813D01*
X87341000Y-192168609D01*
X87341000Y-191879391D01*
X87230321Y-191612187D01*
X87025813Y-191407679D01*
X86758609Y-191297000D01*
X86469391Y-191297000D01*
X86202187Y-191407679D01*
X85997679Y-191612187D01*
X85887000Y-191879391D01*
X58308000Y-191879391D01*
X58308000Y-190355391D01*
X86903000Y-190355391D01*
X86903000Y-190644609D01*
X87013679Y-190911813D01*
X87218187Y-191116321D01*
X87485391Y-191227000D01*
X87774609Y-191227000D01*
X88039229Y-191117391D01*
X89189000Y-191117391D01*
X89189000Y-191406609D01*
X89299679Y-191673813D01*
X89504187Y-191878321D01*
X89771391Y-191989000D01*
X90060609Y-191989000D01*
X90327813Y-191878321D01*
X90532321Y-191673813D01*
X90643000Y-191406609D01*
X90643000Y-191117391D01*
X90532321Y-190850187D01*
X90327813Y-190645679D01*
X90060609Y-190535000D01*
X89771391Y-190535000D01*
X89504187Y-190645679D01*
X89299679Y-190850187D01*
X89189000Y-191117391D01*
X88039229Y-191117391D01*
X88041813Y-191116321D01*
X88246321Y-190911813D01*
X88357000Y-190644609D01*
X88357000Y-190355391D01*
X88246321Y-190088187D01*
X88187518Y-190029384D01*
X145977000Y-190029384D01*
X145977000Y-190462616D01*
X146142790Y-190862869D01*
X146287921Y-191008000D01*
X146142790Y-191153131D01*
X145977000Y-191553384D01*
X145977000Y-191986616D01*
X146142790Y-192386869D01*
X146449131Y-192693210D01*
X146849384Y-192859000D01*
X147282616Y-192859000D01*
X147682869Y-192693210D01*
X147828000Y-192548079D01*
X147973131Y-192693210D01*
X148373384Y-192859000D01*
X148806616Y-192859000D01*
X149206869Y-192693210D01*
X149513210Y-192386869D01*
X149679000Y-191986616D01*
X149679000Y-191553384D01*
X149513210Y-191153131D01*
X149368079Y-191008000D01*
X149513210Y-190862869D01*
X149679000Y-190462616D01*
X149679000Y-190029384D01*
X149513210Y-189629131D01*
X149431579Y-189547500D01*
X149640210Y-189338869D01*
X149806000Y-188938616D01*
X149806000Y-188505384D01*
X149640210Y-188105131D01*
X149495079Y-187960000D01*
X149640210Y-187814869D01*
X149806000Y-187414616D01*
X149806000Y-186981384D01*
X149640210Y-186581131D01*
X149558579Y-186499500D01*
X149669500Y-186388579D01*
X149878131Y-186597210D01*
X150278384Y-186763000D01*
X150711616Y-186763000D01*
X151111869Y-186597210D01*
X151320500Y-186388579D01*
X151529131Y-186597210D01*
X151929384Y-186763000D01*
X152362616Y-186763000D01*
X152762869Y-186597210D01*
X152971500Y-186388579D01*
X153180131Y-186597210D01*
X153580384Y-186763000D01*
X154013616Y-186763000D01*
X154413869Y-186597210D01*
X154559000Y-186452079D01*
X154704131Y-186597210D01*
X155081449Y-186753500D01*
X154704131Y-186909790D01*
X154397790Y-187216131D01*
X154232000Y-187616384D01*
X154232000Y-188049616D01*
X154397790Y-188449869D01*
X154669921Y-188722000D01*
X154397790Y-188994131D01*
X154232000Y-189394384D01*
X154232000Y-189827616D01*
X154397790Y-190227869D01*
X154618553Y-190448632D01*
X154577131Y-190465790D01*
X154270790Y-190772131D01*
X154105000Y-191172384D01*
X154105000Y-191605616D01*
X154270790Y-192005869D01*
X154577131Y-192312210D01*
X154977384Y-192478000D01*
X155410616Y-192478000D01*
X155810869Y-192312210D01*
X156117210Y-192005869D01*
X156283000Y-191605616D01*
X156283000Y-191172384D01*
X156117210Y-190772131D01*
X155896447Y-190551368D01*
X155937869Y-190534210D01*
X156244210Y-190227869D01*
X156410000Y-189827616D01*
X156410000Y-189394384D01*
X156244210Y-188994131D01*
X155972079Y-188722000D01*
X156244210Y-188449869D01*
X156410000Y-188049616D01*
X156410000Y-187616384D01*
X156244210Y-187216131D01*
X155937869Y-186909790D01*
X155560551Y-186753500D01*
X155937869Y-186597210D01*
X156244210Y-186290869D01*
X156410000Y-185890616D01*
X156410000Y-185457384D01*
X156244210Y-185057131D01*
X155937869Y-184750790D01*
X155537616Y-184585000D01*
X155104384Y-184585000D01*
X154704131Y-184750790D01*
X154559000Y-184895921D01*
X154413869Y-184750790D01*
X154013616Y-184585000D01*
X153580384Y-184585000D01*
X153180131Y-184750790D01*
X152971500Y-184959421D01*
X152762869Y-184750790D01*
X152362616Y-184585000D01*
X151929384Y-184585000D01*
X151529131Y-184750790D01*
X151320500Y-184959421D01*
X151111869Y-184750790D01*
X150711616Y-184585000D01*
X150278384Y-184585000D01*
X149878131Y-184750790D01*
X149669500Y-184959421D01*
X149460869Y-184750790D01*
X149060616Y-184585000D01*
X148627384Y-184585000D01*
X148227131Y-184750790D01*
X148082000Y-184895921D01*
X147936869Y-184750790D01*
X147536616Y-184585000D01*
X147103384Y-184585000D01*
X146703131Y-184750790D01*
X146396790Y-185057131D01*
X146231000Y-185457384D01*
X146231000Y-185890616D01*
X146396790Y-186290869D01*
X146478421Y-186372500D01*
X146269790Y-186581131D01*
X146104000Y-186981384D01*
X146104000Y-187414616D01*
X146269790Y-187814869D01*
X146414921Y-187960000D01*
X146269790Y-188105131D01*
X146104000Y-188505384D01*
X146104000Y-188938616D01*
X146269790Y-189338869D01*
X146351421Y-189420500D01*
X146142790Y-189629131D01*
X145977000Y-190029384D01*
X88187518Y-190029384D01*
X88041813Y-189883679D01*
X87774609Y-189773000D01*
X87485391Y-189773000D01*
X87218187Y-189883679D01*
X87013679Y-190088187D01*
X86903000Y-190355391D01*
X58308000Y-190355391D01*
X58308000Y-189302401D01*
X81490069Y-189302401D01*
X81490069Y-189591619D01*
X81600748Y-189858823D01*
X81805256Y-190063331D01*
X82072460Y-190174010D01*
X82361678Y-190174010D01*
X82628882Y-190063331D01*
X82833390Y-189858823D01*
X82944069Y-189591619D01*
X82944069Y-189302401D01*
X82833390Y-189035197D01*
X82628882Y-188830689D01*
X82361678Y-188720010D01*
X82072460Y-188720010D01*
X81805256Y-188830689D01*
X81600748Y-189035197D01*
X81490069Y-189302401D01*
X58308000Y-189302401D01*
X58308000Y-188323391D01*
X86141000Y-188323391D01*
X86141000Y-188612609D01*
X86251679Y-188879813D01*
X86456187Y-189084321D01*
X86723391Y-189195000D01*
X87012609Y-189195000D01*
X87279813Y-189084321D01*
X87484321Y-188879813D01*
X87595000Y-188612609D01*
X87595000Y-188542576D01*
X134079815Y-188542576D01*
X134079815Y-188831794D01*
X134190494Y-189098998D01*
X134395002Y-189303506D01*
X134662206Y-189414185D01*
X134951424Y-189414185D01*
X135218628Y-189303506D01*
X135423136Y-189098998D01*
X135533815Y-188831794D01*
X135533815Y-188542576D01*
X135423136Y-188275372D01*
X135218628Y-188070864D01*
X134951424Y-187960185D01*
X134662206Y-187960185D01*
X134395002Y-188070864D01*
X134190494Y-188275372D01*
X134079815Y-188542576D01*
X87595000Y-188542576D01*
X87595000Y-188323391D01*
X87484321Y-188056187D01*
X87279813Y-187851679D01*
X87012609Y-187741000D01*
X86723391Y-187741000D01*
X86456187Y-187851679D01*
X86251679Y-188056187D01*
X86141000Y-188323391D01*
X58308000Y-188323391D01*
X58308000Y-187561391D01*
X87411000Y-187561391D01*
X87411000Y-187850609D01*
X87521679Y-188117813D01*
X87726187Y-188322321D01*
X87993391Y-188433000D01*
X88282609Y-188433000D01*
X88549813Y-188322321D01*
X88754321Y-188117813D01*
X88865000Y-187850609D01*
X88865000Y-187561391D01*
X95793000Y-187561391D01*
X95793000Y-187850609D01*
X95903679Y-188117813D01*
X96108187Y-188322321D01*
X96375391Y-188433000D01*
X96664609Y-188433000D01*
X96931813Y-188322321D01*
X97136321Y-188117813D01*
X97247000Y-187850609D01*
X97247000Y-187561391D01*
X97136321Y-187294187D01*
X96931813Y-187089679D01*
X96664609Y-186979000D01*
X96375391Y-186979000D01*
X96108187Y-187089679D01*
X95903679Y-187294187D01*
X95793000Y-187561391D01*
X88865000Y-187561391D01*
X88754321Y-187294187D01*
X88549813Y-187089679D01*
X88282609Y-186979000D01*
X87993391Y-186979000D01*
X87726187Y-187089679D01*
X87521679Y-187294187D01*
X87411000Y-187561391D01*
X58308000Y-187561391D01*
X58308000Y-186291395D01*
X72679000Y-186291395D01*
X72679000Y-186580613D01*
X72789679Y-186847817D01*
X72994187Y-187052325D01*
X73261391Y-187163004D01*
X73550609Y-187163004D01*
X73817813Y-187052325D01*
X74022321Y-186847817D01*
X74133000Y-186580613D01*
X74133000Y-186508391D01*
X81289600Y-186508391D01*
X81289600Y-186797609D01*
X81400279Y-187064813D01*
X81604787Y-187269321D01*
X81871991Y-187380000D01*
X82161209Y-187380000D01*
X82428413Y-187269321D01*
X82632921Y-187064813D01*
X82743600Y-186797609D01*
X82743600Y-186508391D01*
X82632921Y-186241187D01*
X82428413Y-186036679D01*
X82161209Y-185926000D01*
X81871991Y-185926000D01*
X81604787Y-186036679D01*
X81400279Y-186241187D01*
X81289600Y-186508391D01*
X74133000Y-186508391D01*
X74133000Y-186291395D01*
X74022321Y-186024191D01*
X73817813Y-185819683D01*
X73550609Y-185709004D01*
X73261391Y-185709004D01*
X72994187Y-185819683D01*
X72789679Y-186024191D01*
X72679000Y-186291395D01*
X58308000Y-186291395D01*
X58308000Y-184513391D01*
X60741000Y-184513391D01*
X60741000Y-184802609D01*
X60851679Y-185069813D01*
X61056187Y-185274321D01*
X61323391Y-185385000D01*
X61612609Y-185385000D01*
X61879813Y-185274321D01*
X62084321Y-185069813D01*
X62106305Y-185016738D01*
X79287653Y-185016738D01*
X79287653Y-185305956D01*
X79398332Y-185573160D01*
X79602840Y-185777668D01*
X79870044Y-185888347D01*
X80159262Y-185888347D01*
X80426466Y-185777668D01*
X80630974Y-185573160D01*
X80740636Y-185308411D01*
X86356900Y-185308411D01*
X86356900Y-185597629D01*
X86467579Y-185864833D01*
X86672087Y-186069341D01*
X86939291Y-186180020D01*
X87157000Y-186180020D01*
X87157000Y-186326609D01*
X87267679Y-186593813D01*
X87472187Y-186798321D01*
X87739391Y-186909000D01*
X88028609Y-186909000D01*
X88295813Y-186798321D01*
X88500321Y-186593813D01*
X88611000Y-186326609D01*
X88611000Y-186164391D01*
X91729000Y-186164391D01*
X91729000Y-186453609D01*
X91839679Y-186720813D01*
X92044187Y-186925321D01*
X92311391Y-187036000D01*
X92600609Y-187036000D01*
X92867813Y-186925321D01*
X93072321Y-186720813D01*
X93183000Y-186453609D01*
X93183000Y-186164391D01*
X93072321Y-185897187D01*
X92867813Y-185692679D01*
X92600609Y-185582000D01*
X92311391Y-185582000D01*
X92044187Y-185692679D01*
X91839679Y-185897187D01*
X91729000Y-186164391D01*
X88611000Y-186164391D01*
X88611000Y-186037391D01*
X88500321Y-185770187D01*
X88295813Y-185565679D01*
X88028609Y-185455000D01*
X87810900Y-185455000D01*
X87810900Y-185385000D01*
X88028609Y-185385000D01*
X88295813Y-185274321D01*
X88500321Y-185069813D01*
X88611000Y-184802609D01*
X88611000Y-184513391D01*
X91475000Y-184513391D01*
X91475000Y-184802609D01*
X91585679Y-185069813D01*
X91790187Y-185274321D01*
X92057391Y-185385000D01*
X92346609Y-185385000D01*
X92613813Y-185274321D01*
X92818321Y-185069813D01*
X92929000Y-184802609D01*
X92929000Y-184513391D01*
X92818321Y-184246187D01*
X92704525Y-184132391D01*
X134401002Y-184132391D01*
X134401002Y-184421609D01*
X134511681Y-184688813D01*
X134716189Y-184893321D01*
X134983393Y-185004000D01*
X135272611Y-185004000D01*
X135539815Y-184893321D01*
X135744323Y-184688813D01*
X135855002Y-184421609D01*
X135855002Y-184132391D01*
X135744323Y-183865187D01*
X135539815Y-183660679D01*
X135272611Y-183550000D01*
X134983393Y-183550000D01*
X134716189Y-183660679D01*
X134511681Y-183865187D01*
X134401002Y-184132391D01*
X92704525Y-184132391D01*
X92613813Y-184041679D01*
X92346609Y-183931000D01*
X92057391Y-183931000D01*
X91790187Y-184041679D01*
X91585679Y-184246187D01*
X91475000Y-184513391D01*
X88611000Y-184513391D01*
X88500321Y-184246187D01*
X88295813Y-184041679D01*
X88028609Y-183931000D01*
X87739391Y-183931000D01*
X87472187Y-184041679D01*
X87267679Y-184246187D01*
X87157000Y-184513391D01*
X87157000Y-184726020D01*
X86939291Y-184726020D01*
X86672087Y-184836699D01*
X86467579Y-185041207D01*
X86356900Y-185308411D01*
X80740636Y-185308411D01*
X80741653Y-185305956D01*
X80741653Y-185016738D01*
X80630974Y-184749534D01*
X80426466Y-184545026D01*
X80159262Y-184434347D01*
X79870044Y-184434347D01*
X79602840Y-184545026D01*
X79398332Y-184749534D01*
X79287653Y-185016738D01*
X62106305Y-185016738D01*
X62195000Y-184802609D01*
X62195000Y-184513391D01*
X62084321Y-184246187D01*
X61879813Y-184041679D01*
X61612609Y-183931000D01*
X61323391Y-183931000D01*
X61056187Y-184041679D01*
X60851679Y-184246187D01*
X60741000Y-184513391D01*
X58308000Y-184513391D01*
X58308000Y-181719391D01*
X74457000Y-181719391D01*
X74457000Y-182008609D01*
X74567679Y-182275813D01*
X74772187Y-182480321D01*
X75039391Y-182591000D01*
X75328609Y-182591000D01*
X75595813Y-182480321D01*
X75800321Y-182275813D01*
X75911000Y-182008609D01*
X75911000Y-181971544D01*
X82078847Y-181971544D01*
X82078847Y-182260762D01*
X82189526Y-182527966D01*
X82394034Y-182732474D01*
X82661238Y-182843153D01*
X82950456Y-182843153D01*
X83217660Y-182732474D01*
X83422168Y-182527966D01*
X83532847Y-182260762D01*
X83532847Y-181971544D01*
X83422168Y-181704340D01*
X83217660Y-181499832D01*
X82950456Y-181389153D01*
X82661238Y-181389153D01*
X82394034Y-181499832D01*
X82189526Y-181704340D01*
X82078847Y-181971544D01*
X75911000Y-181971544D01*
X75911000Y-181719391D01*
X75800321Y-181452187D01*
X75595813Y-181247679D01*
X75328609Y-181137000D01*
X75039391Y-181137000D01*
X74772187Y-181247679D01*
X74567679Y-181452187D01*
X74457000Y-181719391D01*
X58308000Y-181719391D01*
X58308000Y-178980384D01*
X147374000Y-178980384D01*
X147374000Y-179413616D01*
X147539790Y-179813869D01*
X147684921Y-179959000D01*
X147539790Y-180104131D01*
X147374000Y-180504384D01*
X147374000Y-180937616D01*
X147539790Y-181337869D01*
X147748421Y-181546500D01*
X147539790Y-181755131D01*
X147374000Y-182155384D01*
X147374000Y-182588616D01*
X147539790Y-182988869D01*
X147846131Y-183295210D01*
X148246384Y-183461000D01*
X148679616Y-183461000D01*
X149079869Y-183295210D01*
X149386210Y-182988869D01*
X149552000Y-182588616D01*
X149552000Y-182155384D01*
X149386210Y-181755131D01*
X149177579Y-181546500D01*
X149386210Y-181337869D01*
X149552000Y-180937616D01*
X149552000Y-180504384D01*
X149386210Y-180104131D01*
X149241079Y-179959000D01*
X149352000Y-179848079D01*
X149497131Y-179993210D01*
X149897384Y-180159000D01*
X150330616Y-180159000D01*
X150730869Y-179993210D01*
X151037210Y-179686869D01*
X151203000Y-179286616D01*
X151203000Y-179016000D01*
X151438000Y-179016000D01*
X151438000Y-179159616D01*
X151603790Y-179559869D01*
X151910131Y-179866210D01*
X152310384Y-180032000D01*
X152743616Y-180032000D01*
X153143869Y-179866210D01*
X153450210Y-179559869D01*
X153616000Y-179159616D01*
X153616000Y-178726384D01*
X153450210Y-178326131D01*
X153143869Y-178019790D01*
X152743616Y-177854000D01*
X152346000Y-177854000D01*
X152346000Y-177710384D01*
X152180210Y-177310131D01*
X152144470Y-177274391D01*
X156879992Y-177274391D01*
X156879992Y-177563609D01*
X156990671Y-177830813D01*
X157195179Y-178035321D01*
X157462383Y-178146000D01*
X157751601Y-178146000D01*
X158018805Y-178035321D01*
X158223313Y-177830813D01*
X158333992Y-177563609D01*
X158333992Y-177274391D01*
X158223313Y-177007187D01*
X158018805Y-176802679D01*
X157751601Y-176692000D01*
X157462383Y-176692000D01*
X157195179Y-176802679D01*
X156990671Y-177007187D01*
X156879992Y-177274391D01*
X152144470Y-177274391D01*
X151873869Y-177003790D01*
X151473616Y-176838000D01*
X151076000Y-176838000D01*
X151076000Y-176440384D01*
X150910210Y-176040131D01*
X150603869Y-175733790D01*
X150506854Y-175693605D01*
X150857869Y-175548210D01*
X151164210Y-175241869D01*
X151181368Y-175200447D01*
X151402131Y-175421210D01*
X151802384Y-175587000D01*
X152235616Y-175587000D01*
X152635869Y-175421210D01*
X152856632Y-175200447D01*
X152873790Y-175241869D01*
X153180131Y-175548210D01*
X153580384Y-175714000D01*
X154013616Y-175714000D01*
X154105000Y-175676148D01*
X154105000Y-175730616D01*
X154270790Y-176130869D01*
X154577131Y-176437210D01*
X154977384Y-176603000D01*
X155410616Y-176603000D01*
X155810869Y-176437210D01*
X156117210Y-176130869D01*
X156283000Y-175730616D01*
X156283000Y-175297384D01*
X156117210Y-174897131D01*
X155810869Y-174590790D01*
X155410616Y-174425000D01*
X154977384Y-174425000D01*
X154886000Y-174462852D01*
X154886000Y-174408384D01*
X154720210Y-174008131D01*
X154413869Y-173701790D01*
X154013616Y-173536000D01*
X153580384Y-173536000D01*
X153180131Y-173701790D01*
X152959368Y-173922553D01*
X152942210Y-173881131D01*
X152635869Y-173574790D01*
X152235616Y-173409000D01*
X151802384Y-173409000D01*
X151402131Y-173574790D01*
X151095790Y-173881131D01*
X151078632Y-173922553D01*
X150857869Y-173701790D01*
X150457616Y-173536000D01*
X150024384Y-173536000D01*
X149624131Y-173701790D01*
X149317790Y-174008131D01*
X149293749Y-174066172D01*
X148933616Y-173917000D01*
X148500384Y-173917000D01*
X148100131Y-174082790D01*
X147793790Y-174389131D01*
X147628000Y-174789384D01*
X147628000Y-175222616D01*
X147793790Y-175622869D01*
X148100131Y-175929210D01*
X148500384Y-176095000D01*
X148933616Y-176095000D01*
X149063315Y-176041277D01*
X148898000Y-176440384D01*
X148898000Y-176584000D01*
X148500384Y-176584000D01*
X148100131Y-176749790D01*
X147793790Y-177056131D01*
X147628000Y-177456384D01*
X147628000Y-177889616D01*
X147793790Y-178289869D01*
X147811921Y-178308000D01*
X147539790Y-178580131D01*
X147374000Y-178980384D01*
X58308000Y-178980384D01*
X58308000Y-177163388D01*
X67091000Y-177163388D01*
X67091000Y-177452606D01*
X67201679Y-177719810D01*
X67406187Y-177924318D01*
X67673391Y-178034997D01*
X67962609Y-178034997D01*
X68229813Y-177924318D01*
X68244740Y-177909391D01*
X79283000Y-177909391D01*
X79283000Y-178198609D01*
X79393679Y-178465813D01*
X79598187Y-178670321D01*
X79865391Y-178781000D01*
X80154609Y-178781000D01*
X80421813Y-178670321D01*
X80626321Y-178465813D01*
X80737000Y-178198609D01*
X80737000Y-177909391D01*
X80626321Y-177642187D01*
X80421813Y-177437679D01*
X80154609Y-177327000D01*
X79865391Y-177327000D01*
X79598187Y-177437679D01*
X79393679Y-177642187D01*
X79283000Y-177909391D01*
X68244740Y-177909391D01*
X68434321Y-177719810D01*
X68545000Y-177452606D01*
X68545000Y-177163388D01*
X68434321Y-176896184D01*
X68229813Y-176691676D01*
X67962609Y-176580997D01*
X67673391Y-176580997D01*
X67406187Y-176691676D01*
X67201679Y-176896184D01*
X67091000Y-177163388D01*
X58308000Y-177163388D01*
X58308000Y-176385391D01*
X74203000Y-176385391D01*
X74203000Y-176674609D01*
X74313679Y-176941813D01*
X74518187Y-177146321D01*
X74785391Y-177257000D01*
X75074609Y-177257000D01*
X75341813Y-177146321D01*
X75546321Y-176941813D01*
X75566377Y-176893391D01*
X82331000Y-176893391D01*
X82331000Y-177182609D01*
X82441679Y-177449813D01*
X82646187Y-177654321D01*
X82913391Y-177765000D01*
X83202609Y-177765000D01*
X83469813Y-177654321D01*
X83674321Y-177449813D01*
X83785000Y-177182609D01*
X83785000Y-177147391D01*
X97317000Y-177147391D01*
X97317000Y-177436609D01*
X97427679Y-177703813D01*
X97632187Y-177908321D01*
X97899391Y-178019000D01*
X98188609Y-178019000D01*
X98455813Y-177908321D01*
X98660321Y-177703813D01*
X98771000Y-177436609D01*
X98771000Y-177147391D01*
X98665791Y-176893391D01*
X121701000Y-176893391D01*
X121701000Y-177182609D01*
X121811679Y-177449813D01*
X122016187Y-177654321D01*
X122283391Y-177765000D01*
X122572609Y-177765000D01*
X122839813Y-177654321D01*
X123044321Y-177449813D01*
X123155000Y-177182609D01*
X123155000Y-177147391D01*
X133893000Y-177147391D01*
X133893000Y-177436609D01*
X134003679Y-177703813D01*
X134208187Y-177908321D01*
X134475391Y-178019000D01*
X134764609Y-178019000D01*
X135031813Y-177908321D01*
X135236321Y-177703813D01*
X135347000Y-177436609D01*
X135347000Y-177147391D01*
X135236321Y-176880187D01*
X135031813Y-176675679D01*
X134764609Y-176565000D01*
X134475391Y-176565000D01*
X134208187Y-176675679D01*
X134003679Y-176880187D01*
X133893000Y-177147391D01*
X123155000Y-177147391D01*
X123155000Y-176893391D01*
X123044321Y-176626187D01*
X122839813Y-176421679D01*
X122572609Y-176311000D01*
X122283391Y-176311000D01*
X122016187Y-176421679D01*
X121811679Y-176626187D01*
X121701000Y-176893391D01*
X98665791Y-176893391D01*
X98660321Y-176880187D01*
X98455813Y-176675679D01*
X98188609Y-176565000D01*
X97899391Y-176565000D01*
X97632187Y-176675679D01*
X97427679Y-176880187D01*
X97317000Y-177147391D01*
X83785000Y-177147391D01*
X83785000Y-176893391D01*
X83674321Y-176626187D01*
X83469813Y-176421679D01*
X83202609Y-176311000D01*
X82913391Y-176311000D01*
X82646187Y-176421679D01*
X82441679Y-176626187D01*
X82331000Y-176893391D01*
X75566377Y-176893391D01*
X75657000Y-176674609D01*
X75657000Y-176385391D01*
X75546321Y-176118187D01*
X75341813Y-175913679D01*
X75074609Y-175803000D01*
X74785391Y-175803000D01*
X74518187Y-175913679D01*
X74313679Y-176118187D01*
X74203000Y-176385391D01*
X58308000Y-176385391D01*
X58308000Y-172067391D01*
X104474829Y-172067391D01*
X104474829Y-172356609D01*
X104585508Y-172623813D01*
X104790016Y-172828321D01*
X105057220Y-172939000D01*
X105346438Y-172939000D01*
X105613642Y-172828321D01*
X105818150Y-172623813D01*
X105928829Y-172356609D01*
X105928829Y-172282391D01*
X108239000Y-172282391D01*
X108239000Y-172571609D01*
X108349679Y-172838813D01*
X108554187Y-173043321D01*
X108821391Y-173154000D01*
X109110609Y-173154000D01*
X109377813Y-173043321D01*
X109582321Y-172838813D01*
X109693000Y-172571609D01*
X109693000Y-172282391D01*
X109582321Y-172015187D01*
X109377813Y-171810679D01*
X109110609Y-171700000D01*
X108821391Y-171700000D01*
X108554187Y-171810679D01*
X108349679Y-172015187D01*
X108239000Y-172282391D01*
X105928829Y-172282391D01*
X105928829Y-172067391D01*
X105818150Y-171800187D01*
X105613642Y-171595679D01*
X105346438Y-171485000D01*
X105057220Y-171485000D01*
X104790016Y-171595679D01*
X104585508Y-171800187D01*
X104474829Y-172067391D01*
X58308000Y-172067391D01*
X58308000Y-170543391D01*
X105699000Y-170543391D01*
X105699000Y-170832609D01*
X105809679Y-171099813D01*
X106014187Y-171304321D01*
X106281391Y-171415000D01*
X106570609Y-171415000D01*
X106837813Y-171304321D01*
X107042321Y-171099813D01*
X107077669Y-171014476D01*
X107240514Y-171177321D01*
X107507718Y-171288000D01*
X107796936Y-171288000D01*
X107961643Y-171219777D01*
X108046187Y-171304321D01*
X108313391Y-171415000D01*
X108602609Y-171415000D01*
X108869813Y-171304321D01*
X109074321Y-171099813D01*
X109185000Y-170832609D01*
X109185000Y-170817282D01*
X109355000Y-170817282D01*
X109355000Y-171066718D01*
X109450455Y-171297167D01*
X109626833Y-171473545D01*
X109857282Y-171569000D01*
X110106718Y-171569000D01*
X110129916Y-171559391D01*
X114081000Y-171559391D01*
X114081000Y-171848609D01*
X114191679Y-172115813D01*
X114396187Y-172320321D01*
X114663391Y-172431000D01*
X114952609Y-172431000D01*
X115219813Y-172320321D01*
X115424321Y-172115813D01*
X115535000Y-171848609D01*
X115535000Y-171559391D01*
X115424321Y-171292187D01*
X115219813Y-171087679D01*
X115132206Y-171051391D01*
X131099000Y-171051391D01*
X131099000Y-171340609D01*
X131209679Y-171607813D01*
X131414187Y-171812321D01*
X131681391Y-171923000D01*
X131970609Y-171923000D01*
X132237813Y-171812321D01*
X132442321Y-171607813D01*
X132553000Y-171340609D01*
X132553000Y-171051391D01*
X132442321Y-170784187D01*
X132237813Y-170579679D01*
X131970609Y-170469000D01*
X131681391Y-170469000D01*
X131414187Y-170579679D01*
X131209679Y-170784187D01*
X131099000Y-171051391D01*
X115132206Y-171051391D01*
X114952609Y-170977000D01*
X114663391Y-170977000D01*
X114396187Y-171087679D01*
X114191679Y-171292187D01*
X114081000Y-171559391D01*
X110129916Y-171559391D01*
X110337167Y-171473545D01*
X110513545Y-171297167D01*
X110609000Y-171066718D01*
X110609000Y-170817282D01*
X110513545Y-170586833D01*
X110337167Y-170410455D01*
X110106718Y-170315000D01*
X109857282Y-170315000D01*
X109626833Y-170410455D01*
X109450455Y-170586833D01*
X109355000Y-170817282D01*
X109185000Y-170817282D01*
X109185000Y-170543391D01*
X109074321Y-170276187D01*
X108869813Y-170071679D01*
X108602609Y-169961000D01*
X108313391Y-169961000D01*
X108148684Y-170029223D01*
X108064140Y-169944679D01*
X107796936Y-169834000D01*
X107507718Y-169834000D01*
X107377445Y-169887960D01*
X107407000Y-169816609D01*
X107407000Y-169527391D01*
X107296321Y-169260187D01*
X107091813Y-169055679D01*
X106824609Y-168945000D01*
X106535391Y-168945000D01*
X106268187Y-169055679D01*
X106063679Y-169260187D01*
X105953000Y-169527391D01*
X105953000Y-169816609D01*
X106052141Y-170055958D01*
X106014187Y-170071679D01*
X105809679Y-170276187D01*
X105699000Y-170543391D01*
X58308000Y-170543391D01*
X58308000Y-168016042D01*
X71920346Y-168016042D01*
X71920346Y-168305260D01*
X72031025Y-168572464D01*
X72235533Y-168776972D01*
X72502737Y-168887651D01*
X72791955Y-168887651D01*
X73059159Y-168776972D01*
X73159999Y-168676133D01*
X73248187Y-168764321D01*
X73515391Y-168875000D01*
X73804609Y-168875000D01*
X74071813Y-168764321D01*
X74276321Y-168559813D01*
X74387000Y-168292609D01*
X74387000Y-168003391D01*
X74276321Y-167736187D01*
X74071813Y-167531679D01*
X73804609Y-167421000D01*
X73515391Y-167421000D01*
X73248187Y-167531679D01*
X73147348Y-167632519D01*
X73059159Y-167544330D01*
X72791955Y-167433651D01*
X72502737Y-167433651D01*
X72235533Y-167544330D01*
X72031025Y-167748838D01*
X71920346Y-168016042D01*
X58308000Y-168016042D01*
X58308000Y-167215391D01*
X82077000Y-167215391D01*
X82077000Y-167504609D01*
X82187679Y-167771813D01*
X82392187Y-167976321D01*
X82659391Y-168087000D01*
X82948609Y-168087000D01*
X83215813Y-167976321D01*
X83420321Y-167771813D01*
X83531000Y-167504609D01*
X83531000Y-167215391D01*
X83420321Y-166948187D01*
X83215813Y-166743679D01*
X82948609Y-166633000D01*
X82659391Y-166633000D01*
X82392187Y-166743679D01*
X82187679Y-166948187D01*
X82077000Y-167215391D01*
X58308000Y-167215391D01*
X58308000Y-165971391D01*
X74457000Y-165971391D01*
X74457000Y-166260609D01*
X74567679Y-166527813D01*
X74772187Y-166732321D01*
X75039391Y-166843000D01*
X75328609Y-166843000D01*
X75595813Y-166732321D01*
X75800321Y-166527813D01*
X75911000Y-166260609D01*
X75911000Y-166225391D01*
X85379000Y-166225391D01*
X85379000Y-166514609D01*
X85489679Y-166781813D01*
X85694187Y-166986321D01*
X85948944Y-167091844D01*
X85887000Y-167241391D01*
X85887000Y-167530609D01*
X85997679Y-167797813D01*
X86202187Y-168002321D01*
X86469391Y-168113000D01*
X86758609Y-168113000D01*
X87025813Y-168002321D01*
X87230321Y-167797813D01*
X87341000Y-167530609D01*
X87341000Y-167241391D01*
X100365000Y-167241391D01*
X100365000Y-167530609D01*
X100475679Y-167797813D01*
X100680187Y-168002321D01*
X100726980Y-168021703D01*
X100619000Y-168282391D01*
X100619000Y-168571609D01*
X100729679Y-168838813D01*
X100934187Y-169043321D01*
X101201391Y-169154000D01*
X101490609Y-169154000D01*
X101757813Y-169043321D01*
X101962321Y-168838813D01*
X102073000Y-168571609D01*
X102073000Y-168511391D01*
X109330329Y-168511391D01*
X109330329Y-168800609D01*
X109441008Y-169067813D01*
X109645516Y-169272321D01*
X109912720Y-169383000D01*
X110201938Y-169383000D01*
X110469142Y-169272321D01*
X110673650Y-169067813D01*
X110784329Y-168800609D01*
X110784329Y-168511391D01*
X110673650Y-168244187D01*
X110469854Y-168040391D01*
X114420569Y-168040391D01*
X114420569Y-168329609D01*
X114531248Y-168596813D01*
X114735756Y-168801321D01*
X115002960Y-168912000D01*
X115292178Y-168912000D01*
X115559382Y-168801321D01*
X115595312Y-168765391D01*
X135597918Y-168765391D01*
X135597918Y-169054609D01*
X135708597Y-169321813D01*
X135913105Y-169526321D01*
X136180309Y-169637000D01*
X136469527Y-169637000D01*
X136736731Y-169526321D01*
X136941239Y-169321813D01*
X137051918Y-169054609D01*
X137051918Y-168765391D01*
X136941239Y-168498187D01*
X136736731Y-168293679D01*
X136469527Y-168183000D01*
X136180309Y-168183000D01*
X135913105Y-168293679D01*
X135708597Y-168498187D01*
X135597918Y-168765391D01*
X115595312Y-168765391D01*
X115763890Y-168596813D01*
X115874569Y-168329609D01*
X115874569Y-168040391D01*
X115763890Y-167773187D01*
X115559382Y-167568679D01*
X115292178Y-167458000D01*
X115002960Y-167458000D01*
X114735756Y-167568679D01*
X114531248Y-167773187D01*
X114420569Y-168040391D01*
X110469854Y-168040391D01*
X110469142Y-168039679D01*
X110201938Y-167929000D01*
X109912720Y-167929000D01*
X109645516Y-168039679D01*
X109441008Y-168244187D01*
X109330329Y-168511391D01*
X102073000Y-168511391D01*
X102073000Y-168282391D01*
X101962321Y-168015187D01*
X101757813Y-167810679D01*
X101711020Y-167791297D01*
X101819000Y-167530609D01*
X101819000Y-167241391D01*
X101708321Y-166974187D01*
X101503813Y-166769679D01*
X101236609Y-166659000D01*
X100947391Y-166659000D01*
X100680187Y-166769679D01*
X100475679Y-166974187D01*
X100365000Y-167241391D01*
X87341000Y-167241391D01*
X87230321Y-166974187D01*
X87025813Y-166769679D01*
X86771056Y-166664156D01*
X86833000Y-166514609D01*
X86833000Y-166479391D01*
X101889000Y-166479391D01*
X101889000Y-166768609D01*
X101999679Y-167035813D01*
X102204187Y-167240321D01*
X102471391Y-167351000D01*
X102760609Y-167351000D01*
X103027813Y-167240321D01*
X103232321Y-167035813D01*
X103343000Y-166768609D01*
X103343000Y-166733391D01*
X109330329Y-166733391D01*
X109330329Y-167022609D01*
X109441008Y-167289813D01*
X109645516Y-167494321D01*
X109912720Y-167605000D01*
X110201938Y-167605000D01*
X110469142Y-167494321D01*
X110673650Y-167289813D01*
X110784329Y-167022609D01*
X110784329Y-166733391D01*
X110673650Y-166466187D01*
X110469142Y-166261679D01*
X110201938Y-166151000D01*
X109912720Y-166151000D01*
X109645516Y-166261679D01*
X109441008Y-166466187D01*
X109330329Y-166733391D01*
X103343000Y-166733391D01*
X103343000Y-166479391D01*
X103232321Y-166212187D01*
X103027813Y-166007679D01*
X102760609Y-165897000D01*
X102471391Y-165897000D01*
X102204187Y-166007679D01*
X101999679Y-166212187D01*
X101889000Y-166479391D01*
X86833000Y-166479391D01*
X86833000Y-166225391D01*
X86722321Y-165958187D01*
X86517813Y-165753679D01*
X86250609Y-165643000D01*
X85961391Y-165643000D01*
X85694187Y-165753679D01*
X85489679Y-165958187D01*
X85379000Y-166225391D01*
X75911000Y-166225391D01*
X75911000Y-165971391D01*
X75800321Y-165704187D01*
X75595813Y-165499679D01*
X75328609Y-165389000D01*
X75039391Y-165389000D01*
X74772187Y-165499679D01*
X74567679Y-165704187D01*
X74457000Y-165971391D01*
X58308000Y-165971391D01*
X58308000Y-164701391D01*
X96047000Y-164701391D01*
X96047000Y-164990609D01*
X96157679Y-165257813D01*
X96362187Y-165462321D01*
X96629391Y-165573000D01*
X96918609Y-165573000D01*
X97183229Y-165463391D01*
X113065000Y-165463391D01*
X113065000Y-165752609D01*
X113175679Y-166019813D01*
X113380187Y-166224321D01*
X113647391Y-166335000D01*
X113936609Y-166335000D01*
X114203813Y-166224321D01*
X114408321Y-166019813D01*
X114519000Y-165752609D01*
X114519000Y-165518384D01*
X148390000Y-165518384D01*
X148390000Y-165951616D01*
X148555790Y-166351869D01*
X148862131Y-166658210D01*
X149262384Y-166824000D01*
X149695616Y-166824000D01*
X150095869Y-166658210D01*
X150241000Y-166513079D01*
X150513131Y-166785210D01*
X150913384Y-166951000D01*
X151346616Y-166951000D01*
X151746869Y-166785210D01*
X151955500Y-166576579D01*
X152164131Y-166785210D01*
X152564384Y-166951000D01*
X152997616Y-166951000D01*
X153397869Y-166785210D01*
X153606500Y-166576579D01*
X153815131Y-166785210D01*
X154215384Y-166951000D01*
X154648616Y-166951000D01*
X155048869Y-166785210D01*
X155321000Y-166513079D01*
X155558921Y-166751000D01*
X155286790Y-167023131D01*
X155121000Y-167423384D01*
X155121000Y-167856616D01*
X155286790Y-168256869D01*
X155558921Y-168529000D01*
X155286790Y-168801131D01*
X155121000Y-169201384D01*
X155121000Y-169634616D01*
X155286790Y-170034869D01*
X155495421Y-170243500D01*
X155286790Y-170452131D01*
X155121000Y-170852384D01*
X155121000Y-171285616D01*
X155286790Y-171685869D01*
X155593131Y-171992210D01*
X155993384Y-172158000D01*
X156426616Y-172158000D01*
X156826869Y-171992210D01*
X157133210Y-171685869D01*
X157299000Y-171285616D01*
X157299000Y-170852384D01*
X157133210Y-170452131D01*
X156924579Y-170243500D01*
X157133210Y-170034869D01*
X157299000Y-169634616D01*
X157299000Y-169201384D01*
X157133210Y-168801131D01*
X156861079Y-168529000D01*
X157133210Y-168256869D01*
X157299000Y-167856616D01*
X157299000Y-167423384D01*
X157133210Y-167023131D01*
X156861079Y-166751000D01*
X157133210Y-166478869D01*
X157299000Y-166078616D01*
X157299000Y-165645384D01*
X157133210Y-165245131D01*
X156826869Y-164938790D01*
X156660427Y-164869848D01*
X156791000Y-164554616D01*
X156791000Y-164121384D01*
X156625210Y-163721131D01*
X156318869Y-163414790D01*
X155918616Y-163249000D01*
X155485384Y-163249000D01*
X155085131Y-163414790D01*
X154876500Y-163623421D01*
X154667869Y-163414790D01*
X154267616Y-163249000D01*
X153834384Y-163249000D01*
X153434131Y-163414790D01*
X153225500Y-163623421D01*
X153016869Y-163414790D01*
X152616616Y-163249000D01*
X152183384Y-163249000D01*
X151783131Y-163414790D01*
X151574500Y-163623421D01*
X151365869Y-163414790D01*
X150965616Y-163249000D01*
X150532384Y-163249000D01*
X150132131Y-163414790D01*
X149825790Y-163721131D01*
X149660000Y-164121384D01*
X149660000Y-164554616D01*
X149698316Y-164647118D01*
X149695616Y-164646000D01*
X149262384Y-164646000D01*
X148862131Y-164811790D01*
X148555790Y-165118131D01*
X148390000Y-165518384D01*
X114519000Y-165518384D01*
X114519000Y-165463391D01*
X114408321Y-165196187D01*
X114203813Y-164991679D01*
X113936609Y-164881000D01*
X113647391Y-164881000D01*
X113380187Y-164991679D01*
X113175679Y-165196187D01*
X113065000Y-165463391D01*
X97183229Y-165463391D01*
X97185813Y-165462321D01*
X97390321Y-165257813D01*
X97501000Y-164990609D01*
X97501000Y-164701391D01*
X97390321Y-164434187D01*
X97185813Y-164229679D01*
X96918609Y-164119000D01*
X96629391Y-164119000D01*
X96362187Y-164229679D01*
X96157679Y-164434187D01*
X96047000Y-164701391D01*
X58308000Y-164701391D01*
X58308000Y-162732891D01*
X117891000Y-162732891D01*
X117891000Y-163022109D01*
X118001679Y-163289313D01*
X118206187Y-163493821D01*
X118473391Y-163604500D01*
X118762609Y-163604500D01*
X119029813Y-163493821D01*
X119133244Y-163390390D01*
X120939000Y-163390390D01*
X120939000Y-163679608D01*
X121049679Y-163946812D01*
X121254187Y-164151320D01*
X121521391Y-164261999D01*
X121810609Y-164261999D01*
X122077813Y-164151320D01*
X122282321Y-163946812D01*
X122393000Y-163679608D01*
X122393000Y-163390390D01*
X122282321Y-163123186D01*
X122077813Y-162918678D01*
X121810609Y-162807999D01*
X121521391Y-162807999D01*
X121254187Y-162918678D01*
X121049679Y-163123186D01*
X120939000Y-163390390D01*
X119133244Y-163390390D01*
X119234321Y-163289313D01*
X119345000Y-163022109D01*
X119345000Y-162732891D01*
X119318698Y-162669391D01*
X131861000Y-162669391D01*
X131861000Y-162958609D01*
X131971679Y-163225813D01*
X132176187Y-163430321D01*
X132443391Y-163541000D01*
X132732609Y-163541000D01*
X132999813Y-163430321D01*
X133204321Y-163225813D01*
X133315000Y-162958609D01*
X133315000Y-162669391D01*
X133204321Y-162402187D01*
X132999813Y-162197679D01*
X132732609Y-162087000D01*
X132443391Y-162087000D01*
X132176187Y-162197679D01*
X131971679Y-162402187D01*
X131861000Y-162669391D01*
X119318698Y-162669391D01*
X119234321Y-162465687D01*
X119029813Y-162261179D01*
X118762609Y-162150500D01*
X118473391Y-162150500D01*
X118206187Y-162261179D01*
X118001679Y-162465687D01*
X117891000Y-162732891D01*
X58308000Y-162732891D01*
X58308000Y-159562160D01*
X71608779Y-159562160D01*
X71608779Y-159851378D01*
X71719458Y-160118582D01*
X71923966Y-160323090D01*
X72191170Y-160433769D01*
X72480388Y-160433769D01*
X72747592Y-160323090D01*
X72952100Y-160118582D01*
X73062779Y-159851378D01*
X73062779Y-159562160D01*
X72952100Y-159294956D01*
X72747592Y-159090448D01*
X72480388Y-158979769D01*
X72191170Y-158979769D01*
X71923966Y-159090448D01*
X71719458Y-159294956D01*
X71608779Y-159562160D01*
X58308000Y-159562160D01*
X58308000Y-158351407D01*
X112811000Y-158351407D01*
X112811000Y-158640625D01*
X112921679Y-158907829D01*
X113126187Y-159112337D01*
X113393391Y-159223016D01*
X113682609Y-159223016D01*
X113949813Y-159112337D01*
X114154321Y-158907829D01*
X114265000Y-158640625D01*
X114265000Y-158351407D01*
X114154321Y-158084203D01*
X113949813Y-157879695D01*
X113682609Y-157769016D01*
X113393391Y-157769016D01*
X113126187Y-157879695D01*
X112921679Y-158084203D01*
X112811000Y-158351407D01*
X58308000Y-158351407D01*
X58308000Y-157335391D01*
X101889000Y-157335391D01*
X101889000Y-157624609D01*
X101999679Y-157891813D01*
X102204187Y-158096321D01*
X102471391Y-158207000D01*
X102760609Y-158207000D01*
X103027813Y-158096321D01*
X103232321Y-157891813D01*
X103343000Y-157624609D01*
X103343000Y-157335391D01*
X119415000Y-157335391D01*
X119415000Y-157624609D01*
X119525679Y-157891813D01*
X119730187Y-158096321D01*
X119997391Y-158207000D01*
X120286609Y-158207000D01*
X120553813Y-158096321D01*
X120758321Y-157891813D01*
X120869000Y-157624609D01*
X120869000Y-157335391D01*
X120763791Y-157081391D01*
X129829000Y-157081391D01*
X129829000Y-157370609D01*
X129939679Y-157637813D01*
X130144187Y-157842321D01*
X130411391Y-157953000D01*
X130700609Y-157953000D01*
X130967813Y-157842321D01*
X131172321Y-157637813D01*
X131283000Y-157370609D01*
X131283000Y-157136384D01*
X147120000Y-157136384D01*
X147120000Y-157569616D01*
X147285790Y-157969869D01*
X147430921Y-158115000D01*
X147285790Y-158260131D01*
X147120000Y-158660384D01*
X147120000Y-159093616D01*
X147285790Y-159493869D01*
X147592131Y-159800210D01*
X147992384Y-159966000D01*
X148425616Y-159966000D01*
X148491816Y-159938579D01*
X148390000Y-160184384D01*
X148390000Y-160328000D01*
X147992384Y-160328000D01*
X147592131Y-160493790D01*
X147285790Y-160800131D01*
X147120000Y-161200384D01*
X147120000Y-161633616D01*
X147285790Y-162033869D01*
X147592131Y-162340210D01*
X147992384Y-162506000D01*
X148425616Y-162506000D01*
X148825869Y-162340210D01*
X149004688Y-162161391D01*
X149895000Y-162161391D01*
X149895000Y-162450609D01*
X150005679Y-162717813D01*
X150210187Y-162922321D01*
X150477391Y-163033000D01*
X150766609Y-163033000D01*
X151033813Y-162922321D01*
X151238321Y-162717813D01*
X151349000Y-162450609D01*
X151349000Y-162161391D01*
X151238321Y-161894187D01*
X151033813Y-161689679D01*
X150766609Y-161579000D01*
X150477391Y-161579000D01*
X150210187Y-161689679D01*
X150005679Y-161894187D01*
X149895000Y-162161391D01*
X149004688Y-162161391D01*
X149132210Y-162033869D01*
X149298000Y-161633616D01*
X149298000Y-161490000D01*
X149695616Y-161490000D01*
X150095869Y-161324210D01*
X150402210Y-161017869D01*
X150568000Y-160617616D01*
X150568000Y-160184384D01*
X150402210Y-159784131D01*
X150308447Y-159690368D01*
X150349869Y-159673210D01*
X150656210Y-159366869D01*
X150822000Y-158966616D01*
X150822000Y-158806937D01*
X151167384Y-158950000D01*
X151600616Y-158950000D01*
X152000869Y-158784210D01*
X152307210Y-158477869D01*
X152336820Y-158406384D01*
X155502000Y-158406384D01*
X155502000Y-158839616D01*
X155667790Y-159239869D01*
X155876421Y-159448500D01*
X155667790Y-159657131D01*
X155502000Y-160057384D01*
X155502000Y-160490616D01*
X155667790Y-160890869D01*
X155974131Y-161197210D01*
X156374384Y-161363000D01*
X156807616Y-161363000D01*
X157207869Y-161197210D01*
X157514210Y-160890869D01*
X157680000Y-160490616D01*
X157680000Y-160057384D01*
X157514210Y-159657131D01*
X157305579Y-159448500D01*
X157514210Y-159239869D01*
X157680000Y-158839616D01*
X157680000Y-158406384D01*
X157514210Y-158006131D01*
X157207869Y-157699790D01*
X156807616Y-157534000D01*
X156374384Y-157534000D01*
X155974131Y-157699790D01*
X155667790Y-158006131D01*
X155502000Y-158406384D01*
X152336820Y-158406384D01*
X152473000Y-158077616D01*
X152473000Y-157644384D01*
X152307210Y-157244131D01*
X152000869Y-156937790D01*
X151600616Y-156772000D01*
X151167384Y-156772000D01*
X150897054Y-156883974D01*
X150783210Y-156609131D01*
X150765079Y-156591000D01*
X150909688Y-156446391D01*
X157642000Y-156446391D01*
X157642000Y-156735609D01*
X157752679Y-157002813D01*
X157957187Y-157207321D01*
X158224391Y-157318000D01*
X158513609Y-157318000D01*
X158780813Y-157207321D01*
X158985321Y-157002813D01*
X159096000Y-156735609D01*
X159096000Y-156446391D01*
X158985321Y-156179187D01*
X158780813Y-155974679D01*
X158513609Y-155864000D01*
X158224391Y-155864000D01*
X157957187Y-155974679D01*
X157752679Y-156179187D01*
X157642000Y-156446391D01*
X150909688Y-156446391D01*
X151037210Y-156318869D01*
X151203000Y-155918616D01*
X151203000Y-155485384D01*
X151037210Y-155085131D01*
X150828579Y-154876500D01*
X151037210Y-154667869D01*
X151203000Y-154267616D01*
X151203000Y-154215384D01*
X155756000Y-154215384D01*
X155756000Y-154648616D01*
X155921790Y-155048869D01*
X156228131Y-155355210D01*
X156628384Y-155521000D01*
X157061616Y-155521000D01*
X157461869Y-155355210D01*
X157768210Y-155048869D01*
X157934000Y-154648616D01*
X157934000Y-154215384D01*
X157768210Y-153815131D01*
X157461869Y-153508790D01*
X157061616Y-153343000D01*
X156628384Y-153343000D01*
X156228131Y-153508790D01*
X155921790Y-153815131D01*
X155756000Y-154215384D01*
X151203000Y-154215384D01*
X151203000Y-153834384D01*
X151037210Y-153434131D01*
X150730869Y-153127790D01*
X150330616Y-152962000D01*
X149897384Y-152962000D01*
X149497131Y-153127790D01*
X149288500Y-153336421D01*
X149079869Y-153127790D01*
X148679616Y-152962000D01*
X148246384Y-152962000D01*
X147846131Y-153127790D01*
X147539790Y-153434131D01*
X147374000Y-153834384D01*
X147374000Y-154267616D01*
X147539790Y-154667869D01*
X147748421Y-154876500D01*
X147539790Y-155085131D01*
X147374000Y-155485384D01*
X147374000Y-155918616D01*
X147539790Y-156318869D01*
X147633553Y-156412632D01*
X147592131Y-156429790D01*
X147285790Y-156736131D01*
X147120000Y-157136384D01*
X131283000Y-157136384D01*
X131283000Y-157081391D01*
X131172321Y-156814187D01*
X130967813Y-156609679D01*
X130700609Y-156499000D01*
X130411391Y-156499000D01*
X130144187Y-156609679D01*
X129939679Y-156814187D01*
X129829000Y-157081391D01*
X120763791Y-157081391D01*
X120758321Y-157068187D01*
X120553813Y-156863679D01*
X120286609Y-156753000D01*
X119997391Y-156753000D01*
X119730187Y-156863679D01*
X119525679Y-157068187D01*
X119415000Y-157335391D01*
X103343000Y-157335391D01*
X103232321Y-157068187D01*
X103027813Y-156863679D01*
X102760609Y-156753000D01*
X102471391Y-156753000D01*
X102204187Y-156863679D01*
X101999679Y-157068187D01*
X101889000Y-157335391D01*
X58308000Y-157335391D01*
X58308000Y-156319391D01*
X67345000Y-156319391D01*
X67345000Y-156608609D01*
X67455679Y-156875813D01*
X67660187Y-157080321D01*
X67927391Y-157191000D01*
X68216609Y-157191000D01*
X68483813Y-157080321D01*
X68688321Y-156875813D01*
X68799000Y-156608609D01*
X68799000Y-156319391D01*
X68688321Y-156052187D01*
X68483813Y-155847679D01*
X68216609Y-155737000D01*
X67927391Y-155737000D01*
X67660187Y-155847679D01*
X67455679Y-156052187D01*
X67345000Y-156319391D01*
X58308000Y-156319391D01*
X58308000Y-155161043D01*
X71520652Y-155161043D01*
X71520652Y-155450261D01*
X71631331Y-155717465D01*
X71835839Y-155921973D01*
X72103043Y-156032652D01*
X72392261Y-156032652D01*
X72659465Y-155921973D01*
X72863973Y-155717465D01*
X72974652Y-155450261D01*
X72974652Y-155161043D01*
X72863973Y-154893839D01*
X72659465Y-154689331D01*
X72392261Y-154578652D01*
X72103043Y-154578652D01*
X71835839Y-154689331D01*
X71631331Y-154893839D01*
X71520652Y-155161043D01*
X58308000Y-155161043D01*
X58308000Y-153996391D01*
X110271000Y-153996391D01*
X110271000Y-154285609D01*
X110381679Y-154552813D01*
X110586187Y-154757321D01*
X110853391Y-154868000D01*
X111142609Y-154868000D01*
X111409813Y-154757321D01*
X111614321Y-154552813D01*
X111725000Y-154285609D01*
X111725000Y-153996391D01*
X111614321Y-153729187D01*
X111409813Y-153524679D01*
X111142609Y-153414000D01*
X110853391Y-153414000D01*
X110586187Y-153524679D01*
X110381679Y-153729187D01*
X110271000Y-153996391D01*
X58308000Y-153996391D01*
X58308000Y-153017391D01*
X66583000Y-153017391D01*
X66583000Y-153306609D01*
X66693679Y-153573813D01*
X66898187Y-153778321D01*
X67165391Y-153889000D01*
X67454609Y-153889000D01*
X67721813Y-153778321D01*
X67926321Y-153573813D01*
X68037000Y-153306609D01*
X68037000Y-153017391D01*
X67926321Y-152750187D01*
X67721813Y-152545679D01*
X67454609Y-152435000D01*
X67165391Y-152435000D01*
X66898187Y-152545679D01*
X66693679Y-152750187D01*
X66583000Y-153017391D01*
X58308000Y-153017391D01*
X58308000Y-152001391D01*
X104175000Y-152001391D01*
X104175000Y-152290609D01*
X104285679Y-152557813D01*
X104490187Y-152762321D01*
X104757391Y-152873000D01*
X105046609Y-152873000D01*
X105313813Y-152762321D01*
X105518321Y-152557813D01*
X105629000Y-152290609D01*
X105629000Y-152001391D01*
X105518321Y-151734187D01*
X105313813Y-151529679D01*
X105046609Y-151419000D01*
X104757391Y-151419000D01*
X104490187Y-151529679D01*
X104285679Y-151734187D01*
X104175000Y-152001391D01*
X58308000Y-152001391D01*
X58308000Y-150985391D01*
X68107000Y-150985391D01*
X68107000Y-151274609D01*
X68217679Y-151541813D01*
X68422187Y-151746321D01*
X68689391Y-151857000D01*
X68978609Y-151857000D01*
X69245813Y-151746321D01*
X69450321Y-151541813D01*
X69561000Y-151274609D01*
X69561000Y-150999822D01*
X108714429Y-150999822D01*
X108714429Y-151289040D01*
X108825108Y-151556244D01*
X109029616Y-151760752D01*
X109296820Y-151871431D01*
X109586038Y-151871431D01*
X109853242Y-151760752D01*
X110057750Y-151556244D01*
X110168429Y-151289040D01*
X110168429Y-150999822D01*
X110057750Y-150732618D01*
X109853242Y-150528110D01*
X109586038Y-150417431D01*
X109296820Y-150417431D01*
X109029616Y-150528110D01*
X108825108Y-150732618D01*
X108714429Y-150999822D01*
X69561000Y-150999822D01*
X69561000Y-150985391D01*
X69450321Y-150718187D01*
X69245813Y-150513679D01*
X68978609Y-150403000D01*
X68689391Y-150403000D01*
X68422187Y-150513679D01*
X68217679Y-150718187D01*
X68107000Y-150985391D01*
X58308000Y-150985391D01*
X58308000Y-148445391D01*
X81823000Y-148445391D01*
X81823000Y-148734609D01*
X81933679Y-149001813D01*
X82138187Y-149206321D01*
X82405391Y-149317000D01*
X82694609Y-149317000D01*
X82961813Y-149206321D01*
X83166321Y-149001813D01*
X83277000Y-148734609D01*
X83277000Y-148699391D01*
X86141000Y-148699391D01*
X86141000Y-148988609D01*
X86251679Y-149255813D01*
X86456187Y-149460321D01*
X86723391Y-149571000D01*
X87012609Y-149571000D01*
X87279813Y-149460321D01*
X87484321Y-149255813D01*
X87595000Y-148988609D01*
X87595000Y-148699391D01*
X87484321Y-148432187D01*
X87279813Y-148227679D01*
X87192206Y-148191391D01*
X96047000Y-148191391D01*
X96047000Y-148480609D01*
X96157679Y-148747813D01*
X96362187Y-148952321D01*
X96629391Y-149063000D01*
X96918609Y-149063000D01*
X97185813Y-148952321D01*
X97390321Y-148747813D01*
X97501000Y-148480609D01*
X97501000Y-148350400D01*
X134401000Y-148350400D01*
X134401000Y-148639618D01*
X134511679Y-148906822D01*
X134716187Y-149111330D01*
X134983391Y-149222009D01*
X135272609Y-149222009D01*
X135539813Y-149111330D01*
X135744321Y-148906822D01*
X135855000Y-148639618D01*
X135855000Y-148350400D01*
X135744321Y-148083196D01*
X135539813Y-147878688D01*
X135272609Y-147768009D01*
X134983391Y-147768009D01*
X134716187Y-147878688D01*
X134511679Y-148083196D01*
X134401000Y-148350400D01*
X97501000Y-148350400D01*
X97501000Y-148191391D01*
X97390321Y-147924187D01*
X97185813Y-147719679D01*
X96918609Y-147609000D01*
X96629391Y-147609000D01*
X96362187Y-147719679D01*
X96157679Y-147924187D01*
X96047000Y-148191391D01*
X87192206Y-148191391D01*
X87012609Y-148117000D01*
X86723391Y-148117000D01*
X86456187Y-148227679D01*
X86251679Y-148432187D01*
X86141000Y-148699391D01*
X83277000Y-148699391D01*
X83277000Y-148445391D01*
X83166321Y-148178187D01*
X82961813Y-147973679D01*
X82694609Y-147863000D01*
X82405391Y-147863000D01*
X82138187Y-147973679D01*
X81933679Y-148178187D01*
X81823000Y-148445391D01*
X58308000Y-148445391D01*
X58308000Y-147175391D01*
X78267000Y-147175391D01*
X78267000Y-147464609D01*
X78377679Y-147731813D01*
X78582187Y-147936321D01*
X78849391Y-148047000D01*
X79138609Y-148047000D01*
X79405813Y-147936321D01*
X79610321Y-147731813D01*
X79721000Y-147464609D01*
X79721000Y-147175391D01*
X79610321Y-146908187D01*
X79405813Y-146703679D01*
X79138609Y-146593000D01*
X78849391Y-146593000D01*
X78582187Y-146703679D01*
X78377679Y-146908187D01*
X78267000Y-147175391D01*
X58308000Y-147175391D01*
X58308000Y-145651391D01*
X101381000Y-145651391D01*
X101381000Y-145940609D01*
X101491679Y-146207813D01*
X101696187Y-146412321D01*
X101963391Y-146523000D01*
X102252609Y-146523000D01*
X102519813Y-146412321D01*
X102724321Y-146207813D01*
X102744377Y-146159391D01*
X103921000Y-146159391D01*
X103921000Y-146448609D01*
X104031679Y-146715813D01*
X104236187Y-146920321D01*
X104503391Y-147031000D01*
X104792609Y-147031000D01*
X105059813Y-146920321D01*
X105264321Y-146715813D01*
X105375000Y-146448609D01*
X105375000Y-146159391D01*
X105264321Y-145892187D01*
X105059813Y-145687679D01*
X104792609Y-145577000D01*
X104503391Y-145577000D01*
X104236187Y-145687679D01*
X104031679Y-145892187D01*
X103921000Y-146159391D01*
X102744377Y-146159391D01*
X102835000Y-145940609D01*
X102835000Y-145651391D01*
X102729791Y-145397391D01*
X112303000Y-145397391D01*
X112303000Y-145686609D01*
X112413679Y-145953813D01*
X112618187Y-146158321D01*
X112885391Y-146269000D01*
X113174609Y-146269000D01*
X113441813Y-146158321D01*
X113646321Y-145953813D01*
X113757000Y-145686609D01*
X113757000Y-145397391D01*
X113646321Y-145130187D01*
X113460518Y-144944384D01*
X147628000Y-144944384D01*
X147628000Y-145377616D01*
X147793790Y-145777869D01*
X148002421Y-145986500D01*
X147793790Y-146195131D01*
X147628000Y-146595384D01*
X147628000Y-147028616D01*
X147793790Y-147428869D01*
X148002421Y-147637500D01*
X147793790Y-147846131D01*
X147628000Y-148246384D01*
X147628000Y-148679616D01*
X147793790Y-149079869D01*
X148100131Y-149386210D01*
X148170843Y-149415500D01*
X148100131Y-149444790D01*
X147793790Y-149751131D01*
X147628000Y-150151384D01*
X147628000Y-150584616D01*
X147793790Y-150984869D01*
X148100131Y-151291210D01*
X148500384Y-151457000D01*
X148933616Y-151457000D01*
X149333869Y-151291210D01*
X149640210Y-150984869D01*
X149733000Y-150760854D01*
X149825790Y-150984869D01*
X150132131Y-151291210D01*
X150532384Y-151457000D01*
X150965616Y-151457000D01*
X151365869Y-151291210D01*
X151672210Y-150984869D01*
X151701500Y-150914157D01*
X151730790Y-150984869D01*
X152037131Y-151291210D01*
X152437384Y-151457000D01*
X152870616Y-151457000D01*
X153270869Y-151291210D01*
X153577210Y-150984869D01*
X153670000Y-150760854D01*
X153762790Y-150984869D01*
X154069131Y-151291210D01*
X154469384Y-151457000D01*
X154902616Y-151457000D01*
X155302869Y-151291210D01*
X155609210Y-150984869D01*
X155765500Y-150607551D01*
X155921790Y-150984869D01*
X156228131Y-151291210D01*
X156628384Y-151457000D01*
X157061616Y-151457000D01*
X157461869Y-151291210D01*
X157768210Y-150984869D01*
X157934000Y-150584616D01*
X157934000Y-150151384D01*
X157768210Y-149751131D01*
X157547447Y-149530368D01*
X157588869Y-149513210D01*
X157895210Y-149206869D01*
X158061000Y-148806616D01*
X158061000Y-148373384D01*
X157895210Y-147973131D01*
X157588869Y-147666790D01*
X157547447Y-147649632D01*
X157768210Y-147428869D01*
X157934000Y-147028616D01*
X157934000Y-146595384D01*
X157768210Y-146195131D01*
X157559579Y-145986500D01*
X157607000Y-145939079D01*
X157879131Y-146211210D01*
X158279384Y-146377000D01*
X158712616Y-146377000D01*
X159112869Y-146211210D01*
X159419210Y-145904869D01*
X159585000Y-145504616D01*
X159585000Y-145071384D01*
X159419210Y-144671131D01*
X159112869Y-144364790D01*
X158712616Y-144199000D01*
X158279384Y-144199000D01*
X157879131Y-144364790D01*
X157734000Y-144509921D01*
X157461869Y-144237790D01*
X157061616Y-144072000D01*
X156628384Y-144072000D01*
X156228131Y-144237790D01*
X156019500Y-144446421D01*
X155810869Y-144237790D01*
X155410616Y-144072000D01*
X154977384Y-144072000D01*
X154577131Y-144237790D01*
X154368500Y-144446421D01*
X154159869Y-144237790D01*
X153759616Y-144072000D01*
X153326384Y-144072000D01*
X152926131Y-144237790D01*
X152717500Y-144446421D01*
X152508869Y-144237790D01*
X152108616Y-144072000D01*
X151675384Y-144072000D01*
X151275131Y-144237790D01*
X151130000Y-144382921D01*
X150984869Y-144237790D01*
X150584616Y-144072000D01*
X150151384Y-144072000D01*
X149751131Y-144237790D01*
X149542500Y-144446421D01*
X149333869Y-144237790D01*
X148933616Y-144072000D01*
X148500384Y-144072000D01*
X148100131Y-144237790D01*
X147793790Y-144544131D01*
X147628000Y-144944384D01*
X113460518Y-144944384D01*
X113441813Y-144925679D01*
X113174609Y-144815000D01*
X112885391Y-144815000D01*
X112618187Y-144925679D01*
X112413679Y-145130187D01*
X112303000Y-145397391D01*
X102729791Y-145397391D01*
X102724321Y-145384187D01*
X102519813Y-145179679D01*
X102252609Y-145069000D01*
X101963391Y-145069000D01*
X101696187Y-145179679D01*
X101491679Y-145384187D01*
X101381000Y-145651391D01*
X58308000Y-145651391D01*
X58308000Y-141841391D01*
X148371000Y-141841391D01*
X148371000Y-142130609D01*
X148481679Y-142397813D01*
X148686187Y-142602321D01*
X148953391Y-142713000D01*
X149242609Y-142713000D01*
X149509813Y-142602321D01*
X149714321Y-142397813D01*
X149825000Y-142130609D01*
X149825000Y-141841391D01*
X149714321Y-141574187D01*
X149509813Y-141369679D01*
X149242609Y-141259000D01*
X148953391Y-141259000D01*
X148686187Y-141369679D01*
X148481679Y-141574187D01*
X148371000Y-141841391D01*
X58308000Y-141841391D01*
X58308000Y-138031391D01*
X131861000Y-138031391D01*
X131861000Y-138320609D01*
X131971679Y-138587813D01*
X132176187Y-138792321D01*
X132443391Y-138903000D01*
X132732609Y-138903000D01*
X132999813Y-138792321D01*
X133204321Y-138587813D01*
X133315000Y-138320609D01*
X133315000Y-138031391D01*
X133204321Y-137764187D01*
X132999813Y-137559679D01*
X132732609Y-137449000D01*
X132443391Y-137449000D01*
X132176187Y-137559679D01*
X131971679Y-137764187D01*
X131861000Y-138031391D01*
X58308000Y-138031391D01*
X58308000Y-136271000D01*
X67498478Y-136271000D01*
X67508595Y-136277760D01*
X67564000Y-136288781D01*
X67577980Y-136286000D01*
X108444019Y-136286000D01*
X108458000Y-136288781D01*
X108471980Y-136286000D01*
X108471981Y-136286000D01*
X108513405Y-136277760D01*
X108560376Y-136246376D01*
X108591760Y-136199405D01*
X108602781Y-136144000D01*
X108600000Y-136130019D01*
X108600000Y-133713391D01*
X131861000Y-133713391D01*
X131861000Y-134002609D01*
X131971679Y-134269813D01*
X132176187Y-134474321D01*
X132443391Y-134585000D01*
X132732609Y-134585000D01*
X132999813Y-134474321D01*
X133204321Y-134269813D01*
X133315000Y-134002609D01*
X133315000Y-133713391D01*
X133204321Y-133446187D01*
X132999813Y-133241679D01*
X132732609Y-133131000D01*
X132443391Y-133131000D01*
X132176187Y-133241679D01*
X131971679Y-133446187D01*
X131861000Y-133713391D01*
X108600000Y-133713391D01*
X108600000Y-130847384D01*
X148517000Y-130847384D01*
X148517000Y-131280616D01*
X148682790Y-131680869D01*
X148891421Y-131889500D01*
X148682790Y-132098131D01*
X148517000Y-132498384D01*
X148517000Y-132931616D01*
X148682790Y-133331869D01*
X148827921Y-133477000D01*
X148682790Y-133622131D01*
X148517000Y-134022384D01*
X148517000Y-134455616D01*
X148682790Y-134855869D01*
X148954921Y-135128000D01*
X148682790Y-135400131D01*
X148517000Y-135800384D01*
X148517000Y-136233616D01*
X148682790Y-136633869D01*
X148891421Y-136842500D01*
X148682790Y-137051131D01*
X148517000Y-137451384D01*
X148517000Y-137884616D01*
X148682790Y-138284869D01*
X148989131Y-138591210D01*
X149389384Y-138757000D01*
X149822616Y-138757000D01*
X150222869Y-138591210D01*
X150529210Y-138284869D01*
X150695000Y-137884616D01*
X150695000Y-137451384D01*
X150529210Y-137051131D01*
X150320579Y-136842500D01*
X150529210Y-136633869D01*
X150686808Y-136253391D01*
X155737000Y-136253391D01*
X155737000Y-136542609D01*
X155847679Y-136809813D01*
X156052187Y-137014321D01*
X156319391Y-137125000D01*
X156608609Y-137125000D01*
X156875813Y-137014321D01*
X157080321Y-136809813D01*
X157191000Y-136542609D01*
X157191000Y-136253391D01*
X157080321Y-135986187D01*
X156875813Y-135781679D01*
X156608609Y-135671000D01*
X156319391Y-135671000D01*
X156052187Y-135781679D01*
X155847679Y-135986187D01*
X155737000Y-136253391D01*
X150686808Y-136253391D01*
X150695000Y-136233616D01*
X150695000Y-135800384D01*
X150529210Y-135400131D01*
X150257079Y-135128000D01*
X150529210Y-134855869D01*
X150695000Y-134455616D01*
X150695000Y-134022384D01*
X150529210Y-133622131D01*
X150384079Y-133477000D01*
X150431500Y-133429579D01*
X150640131Y-133638210D01*
X151040384Y-133804000D01*
X151473616Y-133804000D01*
X151873869Y-133638210D01*
X152146000Y-133366079D01*
X152291131Y-133511210D01*
X152691384Y-133677000D01*
X153124616Y-133677000D01*
X153524869Y-133511210D01*
X153831210Y-133204869D01*
X153997000Y-132804616D01*
X153997000Y-132371384D01*
X153831210Y-131971131D01*
X153749579Y-131889500D01*
X153958210Y-131680869D01*
X154124000Y-131280616D01*
X154124000Y-130847384D01*
X153958210Y-130447131D01*
X153749579Y-130238500D01*
X153958210Y-130029869D01*
X154124000Y-129629616D01*
X154124000Y-129196384D01*
X155756000Y-129196384D01*
X155756000Y-129629616D01*
X155921790Y-130029869D01*
X156130421Y-130238500D01*
X155921790Y-130447131D01*
X155756000Y-130847384D01*
X155756000Y-131280616D01*
X155921790Y-131680869D01*
X156066921Y-131826000D01*
X155921790Y-131971131D01*
X155756000Y-132371384D01*
X155756000Y-132804616D01*
X155921790Y-133204869D01*
X156228131Y-133511210D01*
X156628384Y-133677000D01*
X157061616Y-133677000D01*
X157461869Y-133511210D01*
X157768210Y-133204869D01*
X157934000Y-132804616D01*
X157934000Y-132371384D01*
X157768210Y-131971131D01*
X157623079Y-131826000D01*
X157768210Y-131680869D01*
X157934000Y-131280616D01*
X157934000Y-130847384D01*
X157768210Y-130447131D01*
X157559579Y-130238500D01*
X157768210Y-130029869D01*
X157934000Y-129629616D01*
X157934000Y-129196384D01*
X157768210Y-128796131D01*
X157461869Y-128489790D01*
X157061616Y-128324000D01*
X156628384Y-128324000D01*
X156228131Y-128489790D01*
X155921790Y-128796131D01*
X155756000Y-129196384D01*
X154124000Y-129196384D01*
X153958210Y-128796131D01*
X153651869Y-128489790D01*
X153251616Y-128324000D01*
X152818384Y-128324000D01*
X152418131Y-128489790D01*
X152209500Y-128698421D01*
X152000869Y-128489790D01*
X151600616Y-128324000D01*
X151167384Y-128324000D01*
X150767131Y-128489790D01*
X150558500Y-128698421D01*
X150349869Y-128489790D01*
X149949616Y-128324000D01*
X149516384Y-128324000D01*
X149116131Y-128489790D01*
X148809790Y-128796131D01*
X148644000Y-129196384D01*
X148644000Y-129629616D01*
X148809790Y-130029869D01*
X148954921Y-130175000D01*
X148682790Y-130447131D01*
X148517000Y-130847384D01*
X108600000Y-130847384D01*
X108600000Y-122336000D01*
X129368594Y-122336000D01*
X129368594Y-123536000D01*
X129393973Y-123663589D01*
X129466246Y-123771754D01*
X129574411Y-123844027D01*
X129702000Y-123869406D01*
X130902000Y-123869406D01*
X131029589Y-123844027D01*
X131137754Y-123771754D01*
X131210027Y-123663589D01*
X131235406Y-123536000D01*
X131235406Y-122336000D01*
X131210027Y-122208411D01*
X131137754Y-122100246D01*
X131029589Y-122027973D01*
X130902000Y-122002594D01*
X129702000Y-122002594D01*
X129574411Y-122027973D01*
X129466246Y-122100246D01*
X129393973Y-122208411D01*
X129368594Y-122336000D01*
X108600000Y-122336000D01*
X108600000Y-117751608D01*
X129375000Y-117751608D01*
X129375000Y-118120392D01*
X129516127Y-118461103D01*
X129776897Y-118721873D01*
X130117608Y-118863000D01*
X130486392Y-118863000D01*
X130827103Y-118721873D01*
X131087873Y-118461103D01*
X131229000Y-118120392D01*
X131229000Y-117751608D01*
X131087873Y-117410897D01*
X130827103Y-117150127D01*
X130486392Y-117009000D01*
X130117608Y-117009000D01*
X129776897Y-117150127D01*
X129516127Y-117410897D01*
X129375000Y-117751608D01*
X108600000Y-117751608D01*
X108600000Y-109209608D01*
X129375000Y-109209608D01*
X129375000Y-109578392D01*
X129516127Y-109919103D01*
X129776897Y-110179873D01*
X130117608Y-110321000D01*
X130486392Y-110321000D01*
X130827103Y-110179873D01*
X131087873Y-109919103D01*
X131229000Y-109578392D01*
X131229000Y-109209608D01*
X131087873Y-108868897D01*
X130827103Y-108608127D01*
X130486392Y-108467000D01*
X130117608Y-108467000D01*
X129776897Y-108608127D01*
X129516127Y-108868897D01*
X129375000Y-109209608D01*
X108600000Y-109209608D01*
X108600000Y-107709981D01*
X108602781Y-107696000D01*
X108591760Y-107640595D01*
X108585000Y-107630478D01*
X108585000Y-103794000D01*
X129368594Y-103794000D01*
X129368594Y-104994000D01*
X129393973Y-105121589D01*
X129466246Y-105229754D01*
X129574411Y-105302027D01*
X129702000Y-105327406D01*
X130902000Y-105327406D01*
X131029589Y-105302027D01*
X131137754Y-105229754D01*
X131210027Y-105121589D01*
X131235406Y-104994000D01*
X131235406Y-103794000D01*
X131210027Y-103666411D01*
X131137754Y-103558246D01*
X131029589Y-103485973D01*
X130902000Y-103460594D01*
X129702000Y-103460594D01*
X129574411Y-103485973D01*
X129466246Y-103558246D01*
X129393973Y-103666411D01*
X129368594Y-103794000D01*
X108585000Y-103794000D01*
X108585000Y-98440000D01*
X137272000Y-98440000D01*
X137272001Y-126478014D01*
G04 #@! TD*
M02*
