G04 #@! TF.GenerationSoftware,KiCad,Pcbnew,5.0.2+dfsg1-1*
G04 #@! TF.CreationDate,2019-09-10T17:39:56-04:00*
G04 #@! TF.ProjectId,DSC_motor_controller,4453435f-6d6f-4746-9f72-5f636f6e7472,rev?*
G04 #@! TF.SameCoordinates,Original*
G04 #@! TF.FileFunction,Soldermask,Top*
G04 #@! TF.FilePolarity,Negative*
%FSLAX46Y46*%
G04 Gerber Fmt 4.6, Leading zero omitted, Abs format (unit mm)*
G04 Created by KiCad (PCBNEW 5.0.2+dfsg1-1) date Tue 10 Sep 2019 05:39:56 PM EDT*
%MOMM*%
%LPD*%
G01*
G04 APERTURE LIST*
%ADD10C,0.100000*%
G04 APERTURE END LIST*
D10*
G36*
X157266156Y-197094794D02*
X157987140Y-197238206D01*
X158778972Y-197566193D01*
X159491601Y-198042357D01*
X160097643Y-198648399D01*
X160573807Y-199361028D01*
X160901794Y-200152860D01*
X161069000Y-200993464D01*
X161069000Y-201850536D01*
X160901794Y-202691140D01*
X160573807Y-203482972D01*
X160097643Y-204195601D01*
X159491601Y-204801643D01*
X158778972Y-205277807D01*
X157987140Y-205605794D01*
X157266156Y-205749206D01*
X157146537Y-205773000D01*
X156289463Y-205773000D01*
X156169844Y-205749206D01*
X155448860Y-205605794D01*
X154657028Y-205277807D01*
X153944399Y-204801643D01*
X153338357Y-204195601D01*
X152862193Y-203482972D01*
X152534206Y-202691140D01*
X152367000Y-201850536D01*
X152367000Y-200993464D01*
X152534206Y-200152860D01*
X152862193Y-199361028D01*
X153338357Y-198648399D01*
X153944399Y-198042357D01*
X154657028Y-197566193D01*
X155448860Y-197238206D01*
X156169844Y-197094794D01*
X156289463Y-197071000D01*
X157146537Y-197071000D01*
X157266156Y-197094794D01*
X157266156Y-197094794D01*
G37*
G36*
X63413156Y-197094794D02*
X64134140Y-197238206D01*
X64925972Y-197566193D01*
X65638601Y-198042357D01*
X66244643Y-198648399D01*
X66720807Y-199361028D01*
X67048794Y-200152860D01*
X67216000Y-200993464D01*
X67216000Y-201850536D01*
X67048794Y-202691140D01*
X66720807Y-203482972D01*
X66244643Y-204195601D01*
X65638601Y-204801643D01*
X64925972Y-205277807D01*
X64134140Y-205605794D01*
X63413156Y-205749206D01*
X63293537Y-205773000D01*
X62436463Y-205773000D01*
X62316844Y-205749206D01*
X61595860Y-205605794D01*
X60804028Y-205277807D01*
X60091399Y-204801643D01*
X59485357Y-204195601D01*
X59009193Y-203482972D01*
X58681206Y-202691140D01*
X58514000Y-201850536D01*
X58514000Y-200993464D01*
X58681206Y-200152860D01*
X59009193Y-199361028D01*
X59485357Y-198648399D01*
X60091399Y-198042357D01*
X60804028Y-197566193D01*
X61595860Y-197238206D01*
X62316844Y-197094794D01*
X62436463Y-197071000D01*
X63293537Y-197071000D01*
X63413156Y-197094794D01*
X63413156Y-197094794D01*
G37*
G36*
X84245000Y-192321000D02*
X83243000Y-192321000D01*
X83243000Y-191219000D01*
X84245000Y-191219000D01*
X84245000Y-192321000D01*
X84245000Y-192321000D01*
G37*
G36*
X85845000Y-192321000D02*
X84843000Y-192321000D01*
X84843000Y-191219000D01*
X85845000Y-191219000D01*
X85845000Y-192321000D01*
X85845000Y-192321000D01*
G37*
G36*
X156752500Y-192162000D02*
X146650500Y-192162000D01*
X146650500Y-187060000D01*
X156752500Y-187060000D01*
X156752500Y-192162000D01*
X156752500Y-192162000D01*
G37*
G36*
X84123000Y-190861000D02*
X82501000Y-190861000D01*
X82501000Y-190139000D01*
X84123000Y-190139000D01*
X84123000Y-190861000D01*
X84123000Y-190861000D01*
G37*
G36*
X89807500Y-190289000D02*
X88805500Y-190289000D01*
X88805500Y-189187000D01*
X89807500Y-189187000D01*
X89807500Y-190289000D01*
X89807500Y-190289000D01*
G37*
G36*
X91407500Y-190289000D02*
X90405500Y-190289000D01*
X90405500Y-189187000D01*
X91407500Y-189187000D01*
X91407500Y-190289000D01*
X91407500Y-190289000D01*
G37*
G36*
X86200500Y-189273000D02*
X85198500Y-189273000D01*
X85198500Y-188171000D01*
X86200500Y-188171000D01*
X86200500Y-189273000D01*
X86200500Y-189273000D01*
G37*
G36*
X84440500Y-188046000D02*
X84442902Y-188070386D01*
X84450015Y-188093835D01*
X84461566Y-188115446D01*
X84477112Y-188134388D01*
X84496054Y-188149934D01*
X84517665Y-188161485D01*
X84541114Y-188168598D01*
X84565500Y-188171000D01*
X84600500Y-188171000D01*
X84600500Y-189273000D01*
X83598500Y-189273000D01*
X83598500Y-188141200D01*
X83596098Y-188116814D01*
X83588985Y-188093365D01*
X83577434Y-188071754D01*
X83561888Y-188052812D01*
X83542946Y-188037266D01*
X83521335Y-188025715D01*
X83497886Y-188018602D01*
X83473500Y-188016200D01*
X82818500Y-188016200D01*
X82818500Y-187294200D01*
X84440500Y-187294200D01*
X84440500Y-188046000D01*
X84440500Y-188046000D01*
G37*
G36*
X98824500Y-188955500D02*
X97822500Y-188955500D01*
X97822500Y-187853500D01*
X98824500Y-187853500D01*
X98824500Y-188955500D01*
X98824500Y-188955500D01*
G37*
G36*
X100424500Y-188955500D02*
X99422500Y-188955500D01*
X99422500Y-187853500D01*
X100424500Y-187853500D01*
X100424500Y-188955500D01*
X100424500Y-188955500D01*
G37*
G36*
X89807500Y-188638000D02*
X88805500Y-188638000D01*
X88805500Y-187536000D01*
X89807500Y-187536000D01*
X89807500Y-188638000D01*
X89807500Y-188638000D01*
G37*
G36*
X91407500Y-188638000D02*
X90405500Y-188638000D01*
X90405500Y-187536000D01*
X91407500Y-187536000D01*
X91407500Y-188638000D01*
X91407500Y-188638000D01*
G37*
G36*
X101211500Y-187079500D02*
X100489500Y-187079500D01*
X100489500Y-185157500D01*
X101211500Y-185157500D01*
X101211500Y-187079500D01*
X101211500Y-187079500D01*
G37*
G36*
X98011500Y-187079500D02*
X97289500Y-187079500D01*
X97289500Y-185157500D01*
X98011500Y-185157500D01*
X98011500Y-187079500D01*
X98011500Y-187079500D01*
G37*
G36*
X91344000Y-186860000D02*
X90342000Y-186860000D01*
X90342000Y-185758000D01*
X91344000Y-185758000D01*
X91344000Y-186860000D01*
X91344000Y-186860000D01*
G37*
G36*
X89744000Y-186860000D02*
X88742000Y-186860000D01*
X88742000Y-185758000D01*
X89744000Y-185758000D01*
X89744000Y-186860000D01*
X89744000Y-186860000D01*
G37*
G36*
X133877000Y-186733000D02*
X132775000Y-186733000D01*
X132775000Y-185631000D01*
X133877000Y-185631000D01*
X133877000Y-186733000D01*
X133877000Y-186733000D01*
G37*
G36*
X132377000Y-186733000D02*
X131275000Y-186733000D01*
X131275000Y-185631000D01*
X132377000Y-185631000D01*
X132377000Y-186733000D01*
X132377000Y-186733000D01*
G37*
G36*
X84753000Y-186479000D02*
X83751000Y-186479000D01*
X83751000Y-185377000D01*
X84753000Y-185377000D01*
X84753000Y-186479000D01*
X84753000Y-186479000D01*
G37*
G36*
X86353000Y-186479000D02*
X85351000Y-186479000D01*
X85351000Y-185377000D01*
X86353000Y-185377000D01*
X86353000Y-186479000D01*
X86353000Y-186479000D01*
G37*
G36*
X63417000Y-185910108D02*
X62415000Y-185910108D01*
X62415000Y-184808108D01*
X63417000Y-184808108D01*
X63417000Y-185910108D01*
X63417000Y-185910108D01*
G37*
G36*
X65017000Y-185910108D02*
X64015000Y-185910108D01*
X64015000Y-184808108D01*
X65017000Y-184808108D01*
X65017000Y-185910108D01*
X65017000Y-185910108D01*
G37*
G36*
X68024497Y-185885108D02*
X67022497Y-185885108D01*
X67022497Y-184833108D01*
X68024497Y-184833108D01*
X68024497Y-185885108D01*
X68024497Y-185885108D01*
G37*
G36*
X66424497Y-185885108D02*
X65422497Y-185885108D01*
X65422497Y-184833108D01*
X66424497Y-184833108D01*
X66424497Y-185885108D01*
X66424497Y-185885108D01*
G37*
G36*
X82320000Y-185307000D02*
X80748000Y-185307000D01*
X80748000Y-184105000D01*
X82320000Y-184105000D01*
X82320000Y-185307000D01*
X82320000Y-185307000D01*
G37*
G36*
X91433000Y-185209000D02*
X90431000Y-185209000D01*
X90431000Y-184107000D01*
X91433000Y-184107000D01*
X91433000Y-185209000D01*
X91433000Y-185209000D01*
G37*
G36*
X89833000Y-185209000D02*
X88831000Y-185209000D01*
X88831000Y-184107000D01*
X89833000Y-184107000D01*
X89833000Y-185209000D01*
X89833000Y-185209000D01*
G37*
G36*
X84679000Y-185019000D02*
X83057000Y-185019000D01*
X83057000Y-184297000D01*
X84679000Y-184297000D01*
X84679000Y-185019000D01*
X84679000Y-185019000D01*
G37*
G36*
X63417000Y-184447000D02*
X62415000Y-184447000D01*
X62415000Y-183345000D01*
X63417000Y-183345000D01*
X63417000Y-184447000D01*
X63417000Y-184447000D01*
G37*
G36*
X65017000Y-184447000D02*
X64015000Y-184447000D01*
X64015000Y-183345000D01*
X65017000Y-183345000D01*
X65017000Y-184447000D01*
X65017000Y-184447000D01*
G37*
G36*
X68065000Y-184422000D02*
X67063000Y-184422000D01*
X67063000Y-183370000D01*
X68065000Y-183370000D01*
X68065000Y-184422000D01*
X68065000Y-184422000D01*
G37*
G36*
X66465000Y-184422000D02*
X65463000Y-184422000D01*
X65463000Y-183370000D01*
X66465000Y-183370000D01*
X66465000Y-184422000D01*
X66465000Y-184422000D01*
G37*
G36*
X80371000Y-184405000D02*
X79649000Y-184405000D01*
X79649000Y-182783000D01*
X80371000Y-182783000D01*
X80371000Y-184405000D01*
X80371000Y-184405000D01*
G37*
G36*
X146114000Y-183924500D02*
X138112000Y-183924500D01*
X138112000Y-173072500D01*
X146114000Y-173072500D01*
X146114000Y-183924500D01*
X146114000Y-183924500D01*
G37*
G36*
X82320000Y-183687000D02*
X80748000Y-183687000D01*
X80748000Y-182485000D01*
X82320000Y-182485000D01*
X82320000Y-183687000D01*
X82320000Y-183687000D01*
G37*
G36*
X135591000Y-183431000D02*
X134589000Y-183431000D01*
X134589000Y-182329000D01*
X135591000Y-182329000D01*
X135591000Y-183431000D01*
X135591000Y-183431000D01*
G37*
G36*
X137191000Y-183431000D02*
X136189000Y-183431000D01*
X136189000Y-182329000D01*
X137191000Y-182329000D01*
X137191000Y-183431000D01*
X137191000Y-183431000D01*
G37*
G36*
X153409000Y-183177000D02*
X152407000Y-183177000D01*
X152407000Y-182075000D01*
X153409000Y-182075000D01*
X153409000Y-183177000D01*
X153409000Y-183177000D01*
G37*
G36*
X151809000Y-183177000D02*
X150807000Y-183177000D01*
X150807000Y-182075000D01*
X151809000Y-182075000D01*
X151809000Y-183177000D01*
X151809000Y-183177000D01*
G37*
G36*
X154814000Y-181614500D02*
X150912000Y-181614500D01*
X150912000Y-180462500D01*
X154814000Y-180462500D01*
X154814000Y-181614500D01*
X154814000Y-181614500D01*
G37*
G36*
X137057000Y-180975500D02*
X136145000Y-180975500D01*
X136145000Y-178053500D01*
X137057000Y-178053500D01*
X137057000Y-180975500D01*
X137057000Y-180975500D01*
G37*
G36*
X133857000Y-180975500D02*
X132945000Y-180975500D01*
X132945000Y-178053500D01*
X133857000Y-178053500D01*
X133857000Y-180975500D01*
X133857000Y-180975500D01*
G37*
G36*
X83226500Y-180611500D02*
X70824500Y-180611500D01*
X70824500Y-179034500D01*
X83226500Y-179034500D01*
X83226500Y-180611500D01*
X83226500Y-180611500D01*
G37*
G36*
X87654000Y-179513000D02*
X86082000Y-179513000D01*
X86082000Y-178311000D01*
X87654000Y-178311000D01*
X87654000Y-179513000D01*
X87654000Y-179513000D01*
G37*
G36*
X67334000Y-179513000D02*
X65762000Y-179513000D01*
X65762000Y-178311000D01*
X67334000Y-178311000D01*
X67334000Y-179513000D01*
X67334000Y-179513000D01*
G37*
G36*
X102307000Y-178821000D02*
X100385000Y-178821000D01*
X100385000Y-178099000D01*
X102307000Y-178099000D01*
X102307000Y-178821000D01*
X102307000Y-178821000D01*
G37*
G36*
X85552000Y-178286000D02*
X83975000Y-178286000D01*
X83975000Y-165884000D01*
X85552000Y-165884000D01*
X85552000Y-178286000D01*
X85552000Y-178286000D01*
G37*
G36*
X70076000Y-178286000D02*
X68499000Y-178286000D01*
X68499000Y-165884000D01*
X70076000Y-165884000D01*
X70076000Y-178286000D01*
X70076000Y-178286000D01*
G37*
G36*
X154717000Y-178097000D02*
X153715000Y-178097000D01*
X153715000Y-176995000D01*
X154717000Y-176995000D01*
X154717000Y-178097000D01*
X154717000Y-178097000D01*
G37*
G36*
X153117000Y-178097000D02*
X152115000Y-178097000D01*
X152115000Y-176995000D01*
X153117000Y-176995000D01*
X153117000Y-178097000D01*
X153117000Y-178097000D01*
G37*
G36*
X87654000Y-177893000D02*
X86082000Y-177893000D01*
X86082000Y-176691000D01*
X87654000Y-176691000D01*
X87654000Y-177893000D01*
X87654000Y-177893000D01*
G37*
G36*
X67334000Y-177893000D02*
X65762000Y-177893000D01*
X65762000Y-176691000D01*
X67334000Y-176691000D01*
X67334000Y-177893000D01*
X67334000Y-177893000D01*
G37*
G36*
X137108000Y-176911500D02*
X136196000Y-176911500D01*
X136196000Y-173989500D01*
X137108000Y-173989500D01*
X137108000Y-176911500D01*
X137108000Y-176911500D01*
G37*
G36*
X133908000Y-176911500D02*
X132996000Y-176911500D01*
X132996000Y-173989500D01*
X133908000Y-173989500D01*
X133908000Y-176911500D01*
X133908000Y-176911500D01*
G37*
G36*
X154814000Y-176534500D02*
X150912000Y-176534500D01*
X150912000Y-175382500D01*
X154814000Y-175382500D01*
X154814000Y-176534500D01*
X154814000Y-176534500D01*
G37*
G36*
X102307000Y-175621000D02*
X100385000Y-175621000D01*
X100385000Y-174899000D01*
X102307000Y-174899000D01*
X102307000Y-175621000D01*
X102307000Y-175621000D01*
G37*
G36*
X112228827Y-175353000D02*
X110651827Y-175353000D01*
X110651827Y-161451000D01*
X112228827Y-161451000D01*
X112228827Y-175353000D01*
X112228827Y-175353000D01*
G37*
G36*
X104652827Y-175353000D02*
X103075827Y-175353000D01*
X103075827Y-161451000D01*
X104652827Y-161451000D01*
X104652827Y-175353000D01*
X104652827Y-175353000D01*
G37*
G36*
X137108000Y-172657000D02*
X136196000Y-172657000D01*
X136196000Y-169735000D01*
X137108000Y-169735000D01*
X137108000Y-172657000D01*
X137108000Y-172657000D01*
G37*
G36*
X133908000Y-172657000D02*
X132996000Y-172657000D01*
X132996000Y-169735000D01*
X133908000Y-169735000D01*
X133908000Y-172657000D01*
X133908000Y-172657000D01*
G37*
G36*
X113645000Y-171959000D02*
X112923000Y-171959000D01*
X112923000Y-170337000D01*
X113645000Y-170337000D01*
X113645000Y-171959000D01*
X113645000Y-171959000D01*
G37*
G36*
X157451000Y-171715000D02*
X147349000Y-171715000D01*
X147349000Y-166613000D01*
X157451000Y-166613000D01*
X157451000Y-171715000D01*
X157451000Y-171715000D01*
G37*
G36*
X109508327Y-171628000D02*
X105796327Y-171628000D01*
X105796327Y-165176000D01*
X109508327Y-165176000D01*
X109508327Y-171628000D01*
X109508327Y-171628000D01*
G37*
G36*
X113645000Y-169419000D02*
X112923000Y-169419000D01*
X112923000Y-167797000D01*
X113645000Y-167797000D01*
X113645000Y-169419000D01*
X113645000Y-169419000D01*
G37*
G36*
X99751000Y-167331000D02*
X99029000Y-167331000D01*
X99029000Y-165409000D01*
X99751000Y-165409000D01*
X99751000Y-167331000D01*
X99751000Y-167331000D01*
G37*
G36*
X96551000Y-167331000D02*
X95829000Y-167331000D01*
X95829000Y-165409000D01*
X96551000Y-165409000D01*
X96551000Y-167331000D01*
X96551000Y-167331000D01*
G37*
G36*
X116333000Y-165969000D02*
X114711000Y-165969000D01*
X114711000Y-165247000D01*
X116333000Y-165247000D01*
X116333000Y-165969000D01*
X116333000Y-165969000D01*
G37*
G36*
X87654000Y-165749000D02*
X86082000Y-165749000D01*
X86082000Y-164547000D01*
X87654000Y-164547000D01*
X87654000Y-165749000D01*
X87654000Y-165749000D01*
G37*
G36*
X99777000Y-165143000D02*
X98775000Y-165143000D01*
X98775000Y-164041000D01*
X99777000Y-164041000D01*
X99777000Y-165143000D01*
X99777000Y-165143000D01*
G37*
G36*
X101377000Y-165143000D02*
X100375000Y-165143000D01*
X100375000Y-164041000D01*
X101377000Y-164041000D01*
X101377000Y-165143000D01*
X101377000Y-165143000D01*
G37*
G36*
X83226500Y-165135500D02*
X70824500Y-165135500D01*
X70824500Y-163558500D01*
X83226500Y-163558500D01*
X83226500Y-165135500D01*
X83226500Y-165135500D01*
G37*
G36*
X117595000Y-164762000D02*
X116593000Y-164762000D01*
X116593000Y-163660000D01*
X117595000Y-163660000D01*
X117595000Y-164762000D01*
X117595000Y-164762000D01*
G37*
G36*
X115995000Y-164762000D02*
X114993000Y-164762000D01*
X114993000Y-163660000D01*
X115995000Y-163660000D01*
X115995000Y-164762000D01*
X115995000Y-164762000D01*
G37*
G36*
X87654000Y-164129000D02*
X86082000Y-164129000D01*
X86082000Y-162927000D01*
X87654000Y-162927000D01*
X87654000Y-164129000D01*
X87654000Y-164129000D01*
G37*
G36*
X137438000Y-163767000D02*
X136526000Y-163767000D01*
X136526000Y-160845000D01*
X137438000Y-160845000D01*
X137438000Y-163767000D01*
X137438000Y-163767000D01*
G37*
G36*
X134238000Y-163767000D02*
X133326000Y-163767000D01*
X133326000Y-160845000D01*
X134238000Y-160845000D01*
X134238000Y-163767000D01*
X134238000Y-163767000D01*
G37*
G36*
X117372000Y-163257000D02*
X115800000Y-163257000D01*
X115800000Y-162055000D01*
X117372000Y-162055000D01*
X117372000Y-163257000D01*
X117372000Y-163257000D01*
G37*
G36*
X146248000Y-162906000D02*
X138246000Y-162906000D01*
X138246000Y-152054000D01*
X146248000Y-152054000D01*
X146248000Y-162906000D01*
X146248000Y-162906000D01*
G37*
G36*
X152101000Y-162857000D02*
X151099000Y-162857000D01*
X151099000Y-161755000D01*
X152101000Y-161755000D01*
X152101000Y-162857000D01*
X152101000Y-162857000D01*
G37*
G36*
X153701000Y-162857000D02*
X152699000Y-162857000D01*
X152699000Y-161755000D01*
X153701000Y-161755000D01*
X153701000Y-162857000D01*
X153701000Y-162857000D01*
G37*
G36*
X71906000Y-162447000D02*
X70334000Y-162447000D01*
X70334000Y-161245000D01*
X71906000Y-161245000D01*
X71906000Y-162447000D01*
X71906000Y-162447000D01*
G37*
G36*
X74113000Y-162413000D02*
X72191000Y-162413000D01*
X72191000Y-161691000D01*
X74113000Y-161691000D01*
X74113000Y-162413000D01*
X74113000Y-162413000D01*
G37*
G36*
X100120000Y-162412500D02*
X99118000Y-162412500D01*
X99118000Y-161310500D01*
X100120000Y-161310500D01*
X100120000Y-162412500D01*
X100120000Y-162412500D01*
G37*
G36*
X101720000Y-162412500D02*
X100718000Y-162412500D01*
X100718000Y-161310500D01*
X101720000Y-161310500D01*
X101720000Y-162412500D01*
X101720000Y-162412500D01*
G37*
G36*
X117372000Y-161637000D02*
X115800000Y-161637000D01*
X115800000Y-160435000D01*
X117372000Y-160435000D01*
X117372000Y-161637000D01*
X117372000Y-161637000D01*
G37*
G36*
X113855000Y-161069000D02*
X112973000Y-161069000D01*
X112973000Y-159987000D01*
X113855000Y-159987000D01*
X113855000Y-161069000D01*
X113855000Y-161069000D01*
G37*
G36*
X112455000Y-161069000D02*
X111573000Y-161069000D01*
X111573000Y-159987000D01*
X112455000Y-159987000D01*
X112455000Y-161069000D01*
X112455000Y-161069000D01*
G37*
G36*
X71906000Y-160827000D02*
X70334000Y-160827000D01*
X70334000Y-159625000D01*
X71906000Y-159625000D01*
X71906000Y-160827000D01*
X71906000Y-160827000D01*
G37*
G36*
X102595500Y-160813000D02*
X101493500Y-160813000D01*
X101493500Y-159811000D01*
X102595500Y-159811000D01*
X102595500Y-160813000D01*
X102595500Y-160813000D01*
G37*
G36*
X100617000Y-160780000D02*
X99535000Y-160780000D01*
X99535000Y-159898000D01*
X100617000Y-159898000D01*
X100617000Y-160780000D01*
X100617000Y-160780000D01*
G37*
G36*
X99136500Y-160760000D02*
X98094500Y-160760000D01*
X98094500Y-160118000D01*
X99136500Y-160118000D01*
X99136500Y-160760000D01*
X99136500Y-160760000D01*
G37*
G36*
X154948000Y-160596000D02*
X151046000Y-160596000D01*
X151046000Y-159444000D01*
X154948000Y-159444000D01*
X154948000Y-160596000D01*
X154948000Y-160596000D01*
G37*
G36*
X105961000Y-160089000D02*
X104859000Y-160089000D01*
X104859000Y-159087000D01*
X105961000Y-159087000D01*
X105961000Y-160089000D01*
X105961000Y-160089000D01*
G37*
G36*
X104437000Y-160089000D02*
X103335000Y-160089000D01*
X103335000Y-159087000D01*
X104437000Y-159087000D01*
X104437000Y-160089000D01*
X104437000Y-160089000D01*
G37*
G36*
X100617000Y-159380000D02*
X99535000Y-159380000D01*
X99535000Y-158498000D01*
X100617000Y-158498000D01*
X100617000Y-159380000D01*
X100617000Y-159380000D01*
G37*
G36*
X74113000Y-159213000D02*
X72191000Y-159213000D01*
X72191000Y-158491000D01*
X74113000Y-158491000D01*
X74113000Y-159213000D01*
X74113000Y-159213000D01*
G37*
G36*
X102595500Y-159213000D02*
X101493500Y-159213000D01*
X101493500Y-158211000D01*
X102595500Y-158211000D01*
X102595500Y-159213000D01*
X102595500Y-159213000D01*
G37*
G36*
X99136500Y-159160000D02*
X98094500Y-159160000D01*
X98094500Y-158518000D01*
X99136500Y-158518000D01*
X99136500Y-159160000D01*
X99136500Y-159160000D01*
G37*
G36*
X137692000Y-158687000D02*
X136780000Y-158687000D01*
X136780000Y-155765000D01*
X137692000Y-155765000D01*
X137692000Y-158687000D01*
X137692000Y-158687000D01*
G37*
G36*
X134492000Y-158687000D02*
X133580000Y-158687000D01*
X133580000Y-155765000D01*
X134492000Y-155765000D01*
X134492000Y-158687000D01*
X134492000Y-158687000D01*
G37*
G36*
X104437000Y-158489000D02*
X103335000Y-158489000D01*
X103335000Y-157487000D01*
X104437000Y-157487000D01*
X104437000Y-158489000D01*
X104437000Y-158489000D01*
G37*
G36*
X105961000Y-158489000D02*
X104859000Y-158489000D01*
X104859000Y-157487000D01*
X105961000Y-157487000D01*
X105961000Y-158489000D01*
X105961000Y-158489000D01*
G37*
G36*
X153155000Y-157269000D02*
X152153000Y-157269000D01*
X152153000Y-156167000D01*
X153155000Y-156167000D01*
X153155000Y-157269000D01*
X153155000Y-157269000D01*
G37*
G36*
X154755000Y-157269000D02*
X153753000Y-157269000D01*
X153753000Y-156167000D01*
X154755000Y-156167000D01*
X154755000Y-157269000D01*
X154755000Y-157269000D01*
G37*
G36*
X154948000Y-155516000D02*
X151046000Y-155516000D01*
X151046000Y-154364000D01*
X154948000Y-154364000D01*
X154948000Y-155516000D01*
X154948000Y-155516000D01*
G37*
G36*
X120129000Y-154927000D02*
X112027000Y-154927000D01*
X112027000Y-152125000D01*
X120129000Y-152125000D01*
X120129000Y-154927000D01*
X120129000Y-154927000D01*
G37*
G36*
X137692000Y-154877000D02*
X136780000Y-154877000D01*
X136780000Y-151955000D01*
X137692000Y-151955000D01*
X137692000Y-154877000D01*
X137692000Y-154877000D01*
G37*
G36*
X134492000Y-154877000D02*
X133580000Y-154877000D01*
X133580000Y-151955000D01*
X134492000Y-151955000D01*
X134492000Y-154877000D01*
X134492000Y-154877000D01*
G37*
G36*
X110315000Y-154007000D02*
X109293000Y-154007000D01*
X109293000Y-152825000D01*
X110315000Y-152825000D01*
X110315000Y-154007000D01*
X110315000Y-154007000D01*
G37*
G36*
X107115000Y-154007000D02*
X106093000Y-154007000D01*
X106093000Y-152825000D01*
X107115000Y-152825000D01*
X107115000Y-154007000D01*
X107115000Y-154007000D01*
G37*
G36*
X71309000Y-153694000D02*
X70107000Y-153694000D01*
X70107000Y-152122000D01*
X71309000Y-152122000D01*
X71309000Y-153694000D01*
X71309000Y-153694000D01*
G37*
G36*
X69689000Y-153694000D02*
X68487000Y-153694000D01*
X68487000Y-152122000D01*
X69689000Y-152122000D01*
X69689000Y-153694000D01*
X69689000Y-153694000D01*
G37*
G36*
X157705000Y-151141000D02*
X147603000Y-151141000D01*
X147603000Y-146039000D01*
X157705000Y-146039000D01*
X157705000Y-151141000D01*
X157705000Y-151141000D01*
G37*
G36*
X111235000Y-150374000D02*
X108833000Y-150374000D01*
X108833000Y-147822000D01*
X111235000Y-147822000D01*
X111235000Y-150374000D01*
X111235000Y-150374000D01*
G37*
G36*
X105035000Y-150374000D02*
X102633000Y-150374000D01*
X102633000Y-147822000D01*
X105035000Y-147822000D01*
X105035000Y-150374000D01*
X105035000Y-150374000D01*
G37*
G36*
X71353000Y-149831000D02*
X70251000Y-149831000D01*
X70251000Y-147029000D01*
X71353000Y-147029000D01*
X71353000Y-149831000D01*
X71353000Y-149831000D01*
G37*
G36*
X63353000Y-149831000D02*
X62251000Y-149831000D01*
X62251000Y-147029000D01*
X63353000Y-147029000D01*
X63353000Y-149831000D01*
X63353000Y-149831000D01*
G37*
G36*
X69353000Y-149831000D02*
X68251000Y-149831000D01*
X68251000Y-147029000D01*
X69353000Y-147029000D01*
X69353000Y-149831000D01*
X69353000Y-149831000D01*
G37*
G36*
X65353000Y-149831000D02*
X64251000Y-149831000D01*
X64251000Y-147029000D01*
X65353000Y-147029000D01*
X65353000Y-149831000D01*
X65353000Y-149831000D01*
G37*
G36*
X67353000Y-149831000D02*
X66251000Y-149831000D01*
X66251000Y-147029000D01*
X67353000Y-147029000D01*
X67353000Y-149831000D01*
X67353000Y-149831000D01*
G37*
G36*
X120129000Y-149627000D02*
X112027000Y-149627000D01*
X112027000Y-146825000D01*
X120129000Y-146825000D01*
X120129000Y-149627000D01*
X120129000Y-149627000D01*
G37*
G36*
X81117000Y-147805000D02*
X80015000Y-147805000D01*
X80015000Y-145003000D01*
X81117000Y-145003000D01*
X81117000Y-147805000D01*
X81117000Y-147805000D01*
G37*
G36*
X83117000Y-147805000D02*
X82015000Y-147805000D01*
X82015000Y-145003000D01*
X83117000Y-145003000D01*
X83117000Y-147805000D01*
X83117000Y-147805000D01*
G37*
G36*
X85117000Y-147805000D02*
X84015000Y-147805000D01*
X84015000Y-145003000D01*
X85117000Y-145003000D01*
X85117000Y-147805000D01*
X85117000Y-147805000D01*
G37*
G36*
X87117000Y-147805000D02*
X86015000Y-147805000D01*
X86015000Y-145003000D01*
X87117000Y-145003000D01*
X87117000Y-147805000D01*
X87117000Y-147805000D01*
G37*
G36*
X95341000Y-147297000D02*
X94239000Y-147297000D01*
X94239000Y-144495000D01*
X95341000Y-144495000D01*
X95341000Y-147297000D01*
X95341000Y-147297000D01*
G37*
G36*
X97341000Y-147297000D02*
X96239000Y-147297000D01*
X96239000Y-144495000D01*
X97341000Y-144495000D01*
X97341000Y-147297000D01*
X97341000Y-147297000D01*
G37*
G36*
X99341000Y-147297000D02*
X98239000Y-147297000D01*
X98239000Y-144495000D01*
X99341000Y-144495000D01*
X99341000Y-147297000D01*
X99341000Y-147297000D01*
G37*
G36*
X101341000Y-147297000D02*
X100239000Y-147297000D01*
X100239000Y-144495000D01*
X101341000Y-144495000D01*
X101341000Y-147297000D01*
X101341000Y-147297000D01*
G37*
G36*
X107981000Y-146503000D02*
X107259000Y-146503000D01*
X107259000Y-144581000D01*
X107981000Y-144581000D01*
X107981000Y-146503000D01*
X107981000Y-146503000D01*
G37*
G36*
X111181000Y-146503000D02*
X110459000Y-146503000D01*
X110459000Y-144581000D01*
X111181000Y-144581000D01*
X111181000Y-146503000D01*
X111181000Y-146503000D01*
G37*
G36*
X74103000Y-145931000D02*
X72201000Y-145931000D01*
X72201000Y-142029000D01*
X74103000Y-142029000D01*
X74103000Y-145931000D01*
X74103000Y-145931000D01*
G37*
G36*
X61403000Y-145931000D02*
X59501000Y-145931000D01*
X59501000Y-142029000D01*
X61403000Y-142029000D01*
X61403000Y-145931000D01*
X61403000Y-145931000D01*
G37*
G36*
X89867000Y-143905000D02*
X87965000Y-143905000D01*
X87965000Y-140003000D01*
X89867000Y-140003000D01*
X89867000Y-143905000D01*
X89867000Y-143905000D01*
G37*
G36*
X79167000Y-143905000D02*
X77265000Y-143905000D01*
X77265000Y-140003000D01*
X79167000Y-140003000D01*
X79167000Y-143905000D01*
X79167000Y-143905000D01*
G37*
G36*
X104091000Y-143397000D02*
X102189000Y-143397000D01*
X102189000Y-139495000D01*
X104091000Y-139495000D01*
X104091000Y-143397000D01*
X104091000Y-143397000D01*
G37*
G36*
X93391000Y-143397000D02*
X91489000Y-143397000D01*
X91489000Y-139495000D01*
X93391000Y-139495000D01*
X93391000Y-143397000D01*
X93391000Y-143397000D01*
G37*
G36*
X146375000Y-142713000D02*
X138373000Y-142713000D01*
X138373000Y-131861000D01*
X146375000Y-131861000D01*
X146375000Y-142713000D01*
X146375000Y-142713000D01*
G37*
G36*
X151123000Y-142283000D02*
X150121000Y-142283000D01*
X150121000Y-141181000D01*
X151123000Y-141181000D01*
X151123000Y-142283000D01*
X151123000Y-142283000D01*
G37*
G36*
X152723000Y-142283000D02*
X151721000Y-142283000D01*
X151721000Y-141181000D01*
X152723000Y-141181000D01*
X152723000Y-142283000D01*
X152723000Y-142283000D01*
G37*
G36*
X155075000Y-140403000D02*
X151173000Y-140403000D01*
X151173000Y-139251000D01*
X155075000Y-139251000D01*
X155075000Y-140403000D01*
X155075000Y-140403000D01*
G37*
G36*
X134568000Y-139891000D02*
X133656000Y-139891000D01*
X133656000Y-136969000D01*
X134568000Y-136969000D01*
X134568000Y-139891000D01*
X134568000Y-139891000D01*
G37*
G36*
X137768000Y-139891000D02*
X136856000Y-139891000D01*
X136856000Y-136969000D01*
X137768000Y-136969000D01*
X137768000Y-139891000D01*
X137768000Y-139891000D01*
G37*
G36*
X155187000Y-136949000D02*
X154185000Y-136949000D01*
X154185000Y-135847000D01*
X155187000Y-135847000D01*
X155187000Y-136949000D01*
X155187000Y-136949000D01*
G37*
G36*
X153587000Y-136949000D02*
X152585000Y-136949000D01*
X152585000Y-135847000D01*
X153587000Y-135847000D01*
X153587000Y-136949000D01*
X153587000Y-136949000D01*
G37*
G36*
X137768000Y-136335000D02*
X136856000Y-136335000D01*
X136856000Y-133413000D01*
X137768000Y-133413000D01*
X137768000Y-136335000D01*
X137768000Y-136335000D01*
G37*
G36*
X134568000Y-136335000D02*
X133656000Y-136335000D01*
X133656000Y-133413000D01*
X134568000Y-133413000D01*
X134568000Y-136335000D01*
X134568000Y-136335000D01*
G37*
G36*
X63413156Y-127244794D02*
X64134140Y-127388206D01*
X64925972Y-127716193D01*
X65638601Y-128192357D01*
X66244643Y-128798399D01*
X66720807Y-129511028D01*
X67048794Y-130302860D01*
X67216000Y-131143464D01*
X67216000Y-132000536D01*
X67048794Y-132841140D01*
X66720807Y-133632972D01*
X66244643Y-134345601D01*
X65638601Y-134951643D01*
X64925972Y-135427807D01*
X64134140Y-135755794D01*
X63413156Y-135899206D01*
X63293537Y-135923000D01*
X62436463Y-135923000D01*
X62316844Y-135899206D01*
X61595860Y-135755794D01*
X60804028Y-135427807D01*
X60091399Y-134951643D01*
X59485357Y-134345601D01*
X59009193Y-133632972D01*
X58681206Y-132841140D01*
X58514000Y-132000536D01*
X58514000Y-131143464D01*
X58681206Y-130302860D01*
X59009193Y-129511028D01*
X59485357Y-128798399D01*
X60091399Y-128192357D01*
X60804028Y-127716193D01*
X61595860Y-127388206D01*
X62316844Y-127244794D01*
X62436463Y-127221000D01*
X63293537Y-127221000D01*
X63413156Y-127244794D01*
X63413156Y-127244794D01*
G37*
G36*
X155075000Y-135323000D02*
X151173000Y-135323000D01*
X151173000Y-134171000D01*
X155075000Y-134171000D01*
X155075000Y-135323000D01*
X155075000Y-135323000D01*
G37*
G36*
X130953000Y-123587000D02*
X129651000Y-123587000D01*
X129651000Y-122285000D01*
X130953000Y-122285000D01*
X130953000Y-123587000D01*
X130953000Y-123587000D01*
G37*
G36*
X130491890Y-117310017D02*
X130610361Y-117359089D01*
X130716992Y-117430338D01*
X130807662Y-117521008D01*
X130878911Y-117627639D01*
X130927983Y-117746110D01*
X130953000Y-117871881D01*
X130953000Y-118000119D01*
X130927983Y-118125890D01*
X130878911Y-118244361D01*
X130807662Y-118350992D01*
X130716992Y-118441662D01*
X130610361Y-118512911D01*
X130491890Y-118561983D01*
X130366119Y-118587000D01*
X130237881Y-118587000D01*
X130112110Y-118561983D01*
X129993639Y-118512911D01*
X129887008Y-118441662D01*
X129796338Y-118350992D01*
X129725089Y-118244361D01*
X129676017Y-118125890D01*
X129651000Y-118000119D01*
X129651000Y-117871881D01*
X129676017Y-117746110D01*
X129725089Y-117627639D01*
X129796338Y-117521008D01*
X129887008Y-117430338D01*
X129993639Y-117359089D01*
X130112110Y-117310017D01*
X130237881Y-117285000D01*
X130366119Y-117285000D01*
X130491890Y-117310017D01*
X130491890Y-117310017D01*
G37*
G36*
X122208500Y-118311500D02*
X112106500Y-118311500D01*
X112106500Y-113209500D01*
X122208500Y-113209500D01*
X122208500Y-118311500D01*
X122208500Y-118311500D01*
G37*
G36*
X130491890Y-108768017D02*
X130610361Y-108817089D01*
X130716992Y-108888338D01*
X130807662Y-108979008D01*
X130878911Y-109085639D01*
X130927983Y-109204110D01*
X130953000Y-109329881D01*
X130953000Y-109458119D01*
X130927983Y-109583890D01*
X130878911Y-109702361D01*
X130807662Y-109808992D01*
X130716992Y-109899662D01*
X130610361Y-109970911D01*
X130491890Y-110019983D01*
X130366119Y-110045000D01*
X130237881Y-110045000D01*
X130112110Y-110019983D01*
X129993639Y-109970911D01*
X129887008Y-109899662D01*
X129796338Y-109808992D01*
X129725089Y-109702361D01*
X129676017Y-109583890D01*
X129651000Y-109458119D01*
X129651000Y-109329881D01*
X129676017Y-109204110D01*
X129725089Y-109085639D01*
X129796338Y-108979008D01*
X129887008Y-108888338D01*
X129993639Y-108817089D01*
X130112110Y-108768017D01*
X130237881Y-108743000D01*
X130366119Y-108743000D01*
X130491890Y-108768017D01*
X130491890Y-108768017D01*
G37*
G36*
X122081500Y-108532500D02*
X111979500Y-108532500D01*
X111979500Y-103430500D01*
X122081500Y-103430500D01*
X122081500Y-108532500D01*
X122081500Y-108532500D01*
G37*
G36*
X104307156Y-98669794D02*
X105028140Y-98813206D01*
X105819972Y-99141193D01*
X106532601Y-99617357D01*
X107138643Y-100223399D01*
X107614807Y-100936028D01*
X107942794Y-101727860D01*
X108110000Y-102568464D01*
X108110000Y-103425536D01*
X107942794Y-104266140D01*
X107614807Y-105057972D01*
X107138643Y-105770601D01*
X106532601Y-106376643D01*
X105819972Y-106852807D01*
X105028140Y-107180794D01*
X104307156Y-107324206D01*
X104187537Y-107348000D01*
X103330463Y-107348000D01*
X103210844Y-107324206D01*
X102489860Y-107180794D01*
X101698028Y-106852807D01*
X100985399Y-106376643D01*
X100379357Y-105770601D01*
X99903193Y-105057972D01*
X99575206Y-104266140D01*
X99408000Y-103425536D01*
X99408000Y-102568464D01*
X99575206Y-101727860D01*
X99903193Y-100936028D01*
X100379357Y-100223399D01*
X100985399Y-99617357D01*
X101698028Y-99141193D01*
X102489860Y-98813206D01*
X103210844Y-98669794D01*
X103330463Y-98646000D01*
X104187537Y-98646000D01*
X104307156Y-98669794D01*
X104307156Y-98669794D01*
G37*
G36*
X130953000Y-105045000D02*
X129651000Y-105045000D01*
X129651000Y-103743000D01*
X130953000Y-103743000D01*
X130953000Y-105045000D01*
X130953000Y-105045000D01*
G37*
M02*
