G04 #@! TF.GenerationSoftware,KiCad,Pcbnew,5.0.2+dfsg1-1*
G04 #@! TF.CreationDate,2019-09-10T17:39:56-04:00*
G04 #@! TF.ProjectId,DSC_motor_controller,4453435f-6d6f-4746-9f72-5f636f6e7472,rev?*
G04 #@! TF.SameCoordinates,Original*
G04 #@! TF.FileFunction,Paste,Bot*
G04 #@! TF.FilePolarity,Positive*
%FSLAX46Y46*%
G04 Gerber Fmt 4.6, Leading zero omitted, Abs format (unit mm)*
G04 Created by KiCad (PCBNEW 5.0.2+dfsg1-1) date Tue 10 Sep 2019 05:39:56 PM EDT*
%MOMM*%
%LPD*%
G01*
G04 APERTURE LIST*
%ADD10R,1.820000X0.620000*%
%ADD11R,1.470000X1.100000*%
%ADD12R,7.900000X10.750000*%
%ADD13R,3.800000X1.050000*%
%ADD14R,2.440000X0.890000*%
%ADD15R,2.440000X5.600000*%
%ADD16R,0.810000X2.820000*%
%ADD17R,0.620000X0.600000*%
%ADD18R,0.940000X0.540000*%
%ADD19R,0.620000X1.820000*%
%ADD20R,1.750000X3.200000*%
%ADD21R,1.750000X0.950000*%
%ADD22R,1.000000X0.900000*%
%ADD23R,0.900000X1.000000*%
%ADD24R,0.450000X1.450000*%
%ADD25R,1.525000X0.650000*%
G04 APERTURE END LIST*
D10*
G04 #@! TO.C,C15*
X133604000Y-186944000D03*
X133604000Y-190144000D03*
G04 #@! TD*
D11*
G04 #@! TO.C,C40*
X76200000Y-184754000D03*
X76200000Y-183134000D03*
G04 #@! TD*
G04 #@! TO.C,C39*
X73660000Y-183134000D03*
X73660000Y-184754000D03*
G04 #@! TD*
G04 #@! TO.C,C1*
X73660000Y-158750000D03*
X73660000Y-160370000D03*
G04 #@! TD*
D12*
G04 #@! TO.C,Q4*
X142367000Y-158242000D03*
D13*
X131617000Y-155702000D03*
X131617000Y-160782000D03*
G04 #@! TD*
D14*
G04 #@! TO.C,R11*
X139827000Y-185349000D03*
D15*
X139827000Y-189484000D03*
D14*
X144787000Y-185349000D03*
D15*
X144787000Y-189484000D03*
G04 #@! TD*
D12*
G04 #@! TO.C,Q6*
X142233000Y-178435000D03*
D13*
X131483000Y-175895000D03*
X131483000Y-180975000D03*
G04 #@! TD*
D12*
G04 #@! TO.C,Q2*
X142367000Y-137668000D03*
D13*
X131617000Y-135128000D03*
X131617000Y-140208000D03*
G04 #@! TD*
D14*
G04 #@! TO.C,R10*
X140014000Y-165030000D03*
D15*
X140014000Y-169165000D03*
D14*
X144974000Y-165030000D03*
D15*
X144974000Y-169165000D03*
G04 #@! TD*
D14*
G04 #@! TO.C,R9*
X140074000Y-144201000D03*
D15*
X140074000Y-148336000D03*
D14*
X145034000Y-144201000D03*
D15*
X145034000Y-148336000D03*
G04 #@! TD*
D16*
G04 #@! TO.C,C38*
X73254000Y-177038000D03*
X76454000Y-177038000D03*
G04 #@! TD*
D17*
G04 #@! TO.C,C3*
X111252000Y-152352000D03*
X111252000Y-151432000D03*
G04 #@! TD*
G04 #@! TO.C,C2*
X110744000Y-149510000D03*
X110744000Y-148590000D03*
G04 #@! TD*
D18*
G04 #@! TO.C,C21*
X99314000Y-168478000D03*
X99314000Y-166878000D03*
G04 #@! TD*
D19*
G04 #@! TO.C,C23*
X98222000Y-173863000D03*
X101422000Y-173863000D03*
G04 #@! TD*
G04 #@! TO.C,C24*
X97892000Y-165100000D03*
X101092000Y-165100000D03*
G04 #@! TD*
D20*
G04 #@! TO.C,Reg1*
X119228000Y-150622000D03*
D21*
X112928000Y-148322000D03*
X112928000Y-150622000D03*
X112928000Y-152922000D03*
G04 #@! TD*
D22*
G04 #@! TO.C,RTERM1*
X63500000Y-158750000D03*
X63500000Y-160350000D03*
G04 #@! TD*
D23*
G04 #@! TO.C,R8*
X127927000Y-180975000D03*
X126327000Y-180975000D03*
G04 #@! TD*
G04 #@! TO.C,R6*
X128270000Y-160782000D03*
X126670000Y-160782000D03*
G04 #@! TD*
G04 #@! TO.C,R4*
X127800000Y-140208000D03*
X126200000Y-140208000D03*
G04 #@! TD*
D24*
G04 #@! TO.C,CS3*
X137373000Y-185735000D03*
X136723000Y-185735000D03*
X136073000Y-185735000D03*
X135423000Y-185735000D03*
X135423000Y-190185000D03*
X136073000Y-190185000D03*
X136723000Y-190185000D03*
X137373000Y-190185000D03*
G04 #@! TD*
G04 #@! TO.C,CS2*
X137563500Y-166370000D03*
X136913500Y-166370000D03*
X136263500Y-166370000D03*
X135613500Y-166370000D03*
X135613500Y-170820000D03*
X136263500Y-170820000D03*
X136913500Y-170820000D03*
X137563500Y-170820000D03*
G04 #@! TD*
G04 #@! TO.C,CS1*
X136865000Y-145666500D03*
X136215000Y-145666500D03*
X135565000Y-145666500D03*
X134915000Y-145666500D03*
X134915000Y-150116500D03*
X135565000Y-150116500D03*
X136215000Y-150116500D03*
X136865000Y-150116500D03*
G04 #@! TD*
D25*
G04 #@! TO.C,CAN_TR1*
X65169500Y-157607000D03*
X65169500Y-158877000D03*
X65169500Y-160147000D03*
X65169500Y-161417000D03*
X70593500Y-161417000D03*
X70593500Y-160147000D03*
X70593500Y-158877000D03*
X70593500Y-157607000D03*
G04 #@! TD*
D10*
G04 #@! TO.C,C36*
X88646000Y-165278000D03*
X88646000Y-168478000D03*
G04 #@! TD*
G04 #@! TO.C,C14*
X133858000Y-167310000D03*
X133858000Y-170510000D03*
G04 #@! TD*
G04 #@! TO.C,C13*
X133350000Y-149428000D03*
X133350000Y-146228000D03*
G04 #@! TD*
M02*
