M48
;DRILL file {KiCad 5.0.2+dfsg1-1} date Mon 30 Sep 2019 05:17:35 PM EDT
;FORMAT={-:-/ absolute / inch / decimal}
FMAT,2
INCH,TZ
T1C0.0157
T2C0.0300
T3C0.0315
%
G90
G05
T1
X2.42Y-7.27
X2.47Y-5.94
X2.65Y-6.03
X2.67Y-6.9806
X2.67Y-7.02
X2.68Y-6.16
X2.71Y-5.95
X2.8444Y-6.1144
X2.8479Y-6.2877
X2.8527Y-6.3267
X2.86Y-7.14
X2.8601Y-6.6205
X2.89Y-7.34
X2.9Y-6.62
X2.93Y-7.
X2.95Y-6.95
X2.96Y-6.54
X2.96Y-7.16
X3.11Y-5.8
X3.15Y-7.01
X3.1502Y-7.2898
X3.229Y-7.3485
X3.2369Y-7.4585
X3.25Y-5.85
X3.2571Y-7.2175
X3.26Y-6.589
X3.2601Y-7.1699
X3.27Y-6.97
X3.35Y-6.49
X3.39Y-6.55
X3.41Y-6.59
X3.41Y-7.56
X3.42Y-5.86
X3.42Y-7.42
X3.4285Y-7.3013
X3.45Y-7.5
X3.46Y-7.27
X3.46Y-7.33
X3.47Y-7.39
X3.4798Y-6.9902
X3.54Y-7.53
X3.6062Y-7.6366
X3.63Y-7.27
X3.64Y-7.335
X3.67Y-7.71
X3.8Y-7.39
X3.81Y-5.84
X3.81Y-6.49
X3.86Y-6.98
X3.98Y-6.59
X3.99Y-6.631
X4.02Y-5.74
X4.03Y-6.52
X4.04Y-6.2
X4.04Y-6.56
X4.12Y-5.76
X4.13Y-5.99
X4.1418Y-6.78
X4.19Y-6.72
X4.2Y-6.68
X4.2383Y-6.715
X4.27Y-6.72
X4.29Y-6.7885
X4.3087Y-5.9506
X4.33Y-6.73
X4.333Y-6.57
X4.333Y-6.64
X4.37Y-6.0685
X4.45Y-5.73
X4.47Y-6.24
X4.48Y-6.52
X4.52Y-6.76
X4.53Y-5.94
X4.5334Y-6.6215
X4.67Y-6.4125
X4.73Y-6.2
X4.79Y-6.4384
X4.82Y-6.97
X5.14Y-6.19
X5.19Y-6.74
X5.22Y-5.27
X5.22Y-5.44
X5.22Y-6.41
X5.26Y-5.71
X5.3Y-6.98
X5.3074Y-7.4286
X5.32Y-5.8463
X5.32Y-7.255
X5.3671Y-6.65
X5.37Y-6.61
X5.37Y-7.38
X5.87Y-5.59
X5.93Y-6.39
X6.16Y-5.37
X6.205Y-6.985
X6.235Y-6.165
T2
X5.79Y-7.49
X5.79Y-7.55
X5.795Y-7.37
X5.795Y-7.43
X5.8Y-7.31
X5.835Y-6.195
X5.835Y-6.255
X5.835Y-6.355
X5.845Y-6.065
X5.845Y-6.13
X5.845Y-7.055
X5.845Y-7.115
X5.845Y-7.18
X5.85Y-7.49
X5.85Y-7.55
X5.855Y-5.715
X5.855Y-5.78
X5.855Y-5.845
X5.855Y-5.92
X5.855Y-6.89
X5.855Y-6.995
X5.855Y-7.37
X5.855Y-7.43
X5.86Y-7.31
X5.885Y-6.315
X5.885Y-6.525
X5.89Y-5.16
X5.89Y-5.225
X5.89Y-5.285
X5.89Y-5.355
X5.89Y-5.42
X5.895Y-5.095
X5.895Y-6.25
X5.9Y-6.19
X5.905Y-6.955
X5.91Y-6.065
X5.91Y-6.13
X5.91Y-7.05
X5.915Y-6.875
X5.92Y-5.715
X5.925Y-7.31
X5.935Y-5.92
X5.935Y-6.47
X5.95Y-6.53
X5.955Y-5.225
X5.955Y-7.005
X5.96Y-5.095
X5.96Y-5.16
X5.96Y-6.215
X5.98Y-5.715
X5.985Y-6.87
X5.99Y-7.31
X6.Y-6.47
X6.005Y-7.045
X6.01Y-5.92
X6.015Y-6.53
X6.02Y-5.22
X6.025Y-5.095
X6.025Y-5.16
X6.045Y-5.715
X6.055Y-6.875
X6.055Y-7.31
X6.065Y-6.47
X6.08Y-6.53
X6.09Y-5.92
X6.11Y-5.715
X6.11Y-6.91
X6.11Y-7.535
X6.115Y-7.31
X6.115Y-7.395
X6.115Y-7.465
X6.13Y-6.47
X6.15Y-6.53
X6.15Y-6.6
X6.15Y-6.67
X6.15Y-6.735
X6.165Y-6.245
X6.165Y-6.31
X6.175Y-5.095
X6.175Y-5.16
X6.175Y-5.22
X6.175Y-5.715
X6.175Y-5.78
X6.175Y-5.92
X6.175Y-6.08
X6.18Y-5.85
X6.24Y-5.72
T3
X5.13Y-4.6431
X5.13Y-4.84
X5.13Y-4.11
X5.13Y-4.3069
T0
M30
