solid
 facet normal -1.000000e+00 -0.000000e+00 -0.000000e+00
   outer loop
     vertex -1.300000e+00  8.500000e-01  1.100000e+00
     vertex -1.300000e+00  8.500000e-01  0.000000e+00
     vertex -1.300000e+00 -8.500000e-01  0.000000e+00
   endloop
 endfacet
 facet normal -1.000000e+00 -0.000000e+00  0.000000e+00
   outer loop
     vertex -1.300000e+00  8.500000e-01  1.100000e+00
     vertex -1.300000e+00 -8.500000e-01  0.000000e+00
     vertex -1.300000e+00 -8.500000e-01  1.100000e+00
   endloop
 endfacet
 facet normal  1.000000e+00  0.000000e+00  0.000000e+00
   outer loop
     vertex -8.500000e-01 -8.500000e-01  0.000000e+00
     vertex -8.500000e-01  8.500000e-01  0.000000e+00
     vertex -8.500000e-01  8.500000e-01  1.100000e+00
   endloop
 endfacet
 facet normal  1.000000e+00 -0.000000e+00  0.000000e+00
   outer loop
     vertex -8.500000e-01 -8.500000e-01  1.100000e+00
     vertex -8.500000e-01 -8.500000e-01  0.000000e+00
     vertex -8.500000e-01  8.500000e-01  1.100000e+00
   endloop
 endfacet
 facet normal  0.000000e+00 -1.000000e+00  0.000000e+00
   outer loop
     vertex -1.300000e+00 -8.500000e-01  0.000000e+00
     vertex -8.500000e-01 -8.500000e-01  0.000000e+00
     vertex -8.500000e-01 -8.500000e-01  1.100000e+00
   endloop
 endfacet
 facet normal  0.000000e+00 -1.000000e+00  0.000000e+00
   outer loop
     vertex -1.300000e+00 -8.500000e-01  1.100000e+00
     vertex -1.300000e+00 -8.500000e-01  0.000000e+00
     vertex -8.500000e-01 -8.500000e-01  1.100000e+00
   endloop
 endfacet
 facet normal  0.000000e+00  1.000000e+00  0.000000e+00
   outer loop
     vertex -8.500000e-01  8.500000e-01  1.100000e+00
     vertex -8.500000e-01  8.500000e-01  0.000000e+00
     vertex -1.300000e+00  8.500000e-01  0.000000e+00
   endloop
 endfacet
 facet normal  0.000000e+00  1.000000e+00 -0.000000e+00
   outer loop
     vertex -8.500000e-01  8.500000e-01  1.100000e+00
     vertex -1.300000e+00  8.500000e-01  0.000000e+00
     vertex -1.300000e+00  8.500000e-01  1.100000e+00
   endloop
 endfacet
 facet normal  0.000000e+00  0.000000e+00 -1.000000e+00
   outer loop
     vertex -1.300000e+00 -8.500000e-01  0.000000e+00
     vertex -1.300000e+00  8.500000e-01  0.000000e+00
     vertex -8.500000e-01  8.500000e-01  0.000000e+00
   endloop
 endfacet
 facet normal  0.000000e+00  0.000000e+00 -1.000000e+00
   outer loop
     vertex -8.500000e-01 -8.500000e-01  0.000000e+00
     vertex -1.300000e+00 -8.500000e-01  0.000000e+00
     vertex -8.500000e-01  8.500000e-01  0.000000e+00
   endloop
 endfacet
 facet normal  0.000000e+00  0.000000e+00  1.000000e+00
   outer loop
     vertex -8.500000e-01  8.500000e-01  1.100000e+00
     vertex -1.300000e+00  8.500000e-01  1.100000e+00
     vertex -1.300000e+00 -8.500000e-01  1.100000e+00
   endloop
 endfacet
 facet normal -0.000000e+00  0.000000e+00  1.000000e+00
   outer loop
     vertex -8.500000e-01  8.500000e-01  1.100000e+00
     vertex -1.300000e+00 -8.500000e-01  1.100000e+00
     vertex -8.500000e-01 -8.500000e-01  1.100000e+00
   endloop
 endfacet
 facet normal -1.000000e+00 -0.000000e+00 -0.000000e+00
   outer loop
     vertex  8.500000e-01  8.500000e-01  1.100000e+00
     vertex  8.500000e-01  8.500000e-01  0.000000e+00
     vertex  8.500000e-01 -8.500000e-01  0.000000e+00
   endloop
 endfacet
 facet normal -1.000000e+00 -0.000000e+00  0.000000e+00
   outer loop
     vertex  8.500000e-01  8.500000e-01  1.100000e+00
     vertex  8.500000e-01 -8.500000e-01  0.000000e+00
     vertex  8.500000e-01 -8.500000e-01  1.100000e+00
   endloop
 endfacet
 facet normal  1.000000e+00  0.000000e+00  0.000000e+00
   outer loop
     vertex  1.300000e+00 -8.500000e-01  0.000000e+00
     vertex  1.300000e+00  8.500000e-01  0.000000e+00
     vertex  1.300000e+00  8.500000e-01  1.100000e+00
   endloop
 endfacet
 facet normal  1.000000e+00 -0.000000e+00  0.000000e+00
   outer loop
     vertex  1.300000e+00 -8.500000e-01  1.100000e+00
     vertex  1.300000e+00 -8.500000e-01  0.000000e+00
     vertex  1.300000e+00  8.500000e-01  1.100000e+00
   endloop
 endfacet
 facet normal  0.000000e+00 -1.000000e+00  0.000000e+00
   outer loop
     vertex  8.500000e-01 -8.500000e-01  0.000000e+00
     vertex  1.300000e+00 -8.500000e-01  0.000000e+00
     vertex  1.300000e+00 -8.500000e-01  1.100000e+00
   endloop
 endfacet
 facet normal  0.000000e+00 -1.000000e+00  0.000000e+00
   outer loop
     vertex  8.500000e-01 -8.500000e-01  1.100000e+00
     vertex  8.500000e-01 -8.500000e-01  0.000000e+00
     vertex  1.300000e+00 -8.500000e-01  1.100000e+00
   endloop
 endfacet
 facet normal  0.000000e+00  1.000000e+00  0.000000e+00
   outer loop
     vertex  1.300000e+00  8.500000e-01  1.100000e+00
     vertex  1.300000e+00  8.500000e-01  0.000000e+00
     vertex  8.500000e-01  8.500000e-01  0.000000e+00
   endloop
 endfacet
 facet normal  0.000000e+00  1.000000e+00 -0.000000e+00
   outer loop
     vertex  1.300000e+00  8.500000e-01  1.100000e+00
     vertex  8.500000e-01  8.500000e-01  0.000000e+00
     vertex  8.500000e-01  8.500000e-01  1.100000e+00
   endloop
 endfacet
 facet normal  0.000000e+00  0.000000e+00 -1.000000e+00
   outer loop
     vertex  8.500000e-01 -8.500000e-01  0.000000e+00
     vertex  8.500000e-01  8.500000e-01  0.000000e+00
     vertex  1.300000e+00  8.500000e-01  0.000000e+00
   endloop
 endfacet
 facet normal  0.000000e+00  0.000000e+00 -1.000000e+00
   outer loop
     vertex  1.300000e+00 -8.500000e-01  0.000000e+00
     vertex  8.500000e-01 -8.500000e-01  0.000000e+00
     vertex  1.300000e+00  8.500000e-01  0.000000e+00
   endloop
 endfacet
 facet normal  0.000000e+00  0.000000e+00  1.000000e+00
   outer loop
     vertex  1.300000e+00  8.500000e-01  1.100000e+00
     vertex  8.500000e-01  8.500000e-01  1.100000e+00
     vertex  8.500000e-01 -8.500000e-01  1.100000e+00
   endloop
 endfacet
 facet normal -0.000000e+00  0.000000e+00  1.000000e+00
   outer loop
     vertex  1.300000e+00  8.500000e-01  1.100000e+00
     vertex  8.500000e-01 -8.500000e-01  1.100000e+00
     vertex  1.300000e+00 -8.500000e-01  1.100000e+00
   endloop
 endfacet
 facet normal -1.000000e+00 -0.000000e+00 -0.000000e+00
   outer loop
     vertex -8.500000e-01  8.330000e-01  1.089000e+00
     vertex -8.500000e-01  8.330000e-01  1.100000e-02
     vertex -8.500000e-01 -8.330000e-01  1.089000e+00
   endloop
 endfacet
 facet normal -1.000000e+00  0.000000e+00  0.000000e+00
   outer loop
     vertex -8.500000e-01  8.330000e-01  1.100000e-02
     vertex -8.500000e-01 -8.330000e-01  1.100000e-02
     vertex -8.500000e-01 -8.330000e-01  1.089000e+00
   endloop
 endfacet
 facet normal  1.000000e+00 -0.000000e+00  0.000000e+00
   outer loop
     vertex  8.500000e-01 -8.330000e-01  1.089000e+00
     vertex  8.500000e-01  8.330000e-01  1.100000e-02
     vertex  8.500000e-01  8.330000e-01  1.089000e+00
   endloop
 endfacet
 facet normal  1.000000e+00 -0.000000e+00  0.000000e+00
   outer loop
     vertex  8.500000e-01 -8.330000e-01  1.089000e+00
     vertex  8.500000e-01 -8.330000e-01  1.100000e-02
     vertex  8.500000e-01  8.330000e-01  1.100000e-02
   endloop
 endfacet
 facet normal  0.000000e+00 -1.000000e+00  0.000000e+00
   outer loop
     vertex -8.500000e-01 -8.330000e-01  1.100000e-02
     vertex  8.500000e-01 -8.330000e-01  1.100000e-02
     vertex  8.500000e-01 -8.330000e-01  1.089000e+00
   endloop
 endfacet
 facet normal  0.000000e+00 -1.000000e+00  0.000000e+00
   outer loop
     vertex -8.500000e-01 -8.330000e-01  1.089000e+00
     vertex -8.500000e-01 -8.330000e-01  1.100000e-02
     vertex  8.500000e-01 -8.330000e-01  1.089000e+00
   endloop
 endfacet
 facet normal  0.000000e+00  1.000000e+00  0.000000e+00
   outer loop
     vertex  8.500000e-01  8.330000e-01  1.089000e+00
     vertex  8.500000e-01  8.330000e-01  1.100000e-02
     vertex -8.500000e-01  8.330000e-01  1.100000e-02
   endloop
 endfacet
 facet normal  0.000000e+00  1.000000e+00 -0.000000e+00
   outer loop
     vertex  8.500000e-01  8.330000e-01  1.089000e+00
     vertex -8.500000e-01  8.330000e-01  1.100000e-02
     vertex -8.500000e-01  8.330000e-01  1.089000e+00
   endloop
 endfacet
 facet normal  0.000000e+00  0.000000e+00 -1.000000e+00
   outer loop
     vertex -8.500000e-01 -8.330000e-01  1.100000e-02
     vertex -8.500000e-01  8.330000e-01  1.100000e-02
     vertex  8.500000e-01  8.330000e-01  1.100000e-02
   endloop
 endfacet
 facet normal  0.000000e+00  0.000000e+00 -1.000000e+00
   outer loop
     vertex  8.500000e-01 -8.330000e-01  1.100000e-02
     vertex -8.500000e-01 -8.330000e-01  1.100000e-02
     vertex  8.500000e-01  8.330000e-01  1.100000e-02
   endloop
 endfacet
 facet normal  0.000000e+00  0.000000e+00  1.000000e+00
   outer loop
     vertex  8.500000e-01  8.330000e-01  1.089000e+00
     vertex -8.500000e-01  8.330000e-01  1.089000e+00
     vertex -8.500000e-01 -8.330000e-01  1.089000e+00
   endloop
 endfacet
 facet normal -0.000000e+00  0.000000e+00  1.000000e+00
   outer loop
     vertex  8.500000e-01  8.330000e-01  1.089000e+00
     vertex -8.500000e-01 -8.330000e-01  1.089000e+00
     vertex  8.500000e-01 -8.330000e-01  1.089000e+00
   endloop
 endfacet
endsolid
