solid
 facet normal -1.000000e+00  0.000000e+00  0.000000e+00
   outer loop
     vertex -1.400000e+00 -1.209776e+00  1.434633e-01
     vertex -1.400000e+00 -1.218185e+00  1.682362e-01
     vertex -1.400000e+00 -1.223289e+00  1.938948e-01
   endloop
 endfacet
 facet normal -1.000000e+00  0.000000e+00  0.000000e+00
   outer loop
     vertex -1.400000e+00 -1.025000e+00  2.000000e-02
     vertex -1.400000e+00 -1.209776e+00  1.434633e-01
     vertex -1.400000e+00 -1.225000e+00  2.200000e-01
   endloop
 endfacet
 facet normal -1.000000e+00  0.000000e+00  0.000000e+00
   outer loop
     vertex -1.400000e+00 -1.209776e+00  1.434633e-01
     vertex -1.400000e+00 -1.223289e+00  1.938948e-01
     vertex -1.400000e+00 -1.225000e+00  2.200000e-01
   endloop
 endfacet
 facet normal -1.000000e+00  0.000000e+00  0.000000e+00
   outer loop
     vertex -1.400000e+00 -1.225000e+00  2.200000e-01
     vertex -1.400000e+00 -1.225000e+00  1.780000e+00
     vertex -1.400000e+00 -1.025000e+00  1.980000e+00
   endloop
 endfacet
 facet normal -1.000000e+00  0.000000e+00  0.000000e+00
   outer loop
     vertex -1.400000e+00 -1.025000e+00  2.000000e-02
     vertex -1.400000e+00 -1.225000e+00  2.200000e-01
     vertex -1.400000e+00 -1.025000e+00  1.980000e+00
   endloop
 endfacet
 facet normal -1.000000e+00 -0.000000e+00  0.000000e+00
   outer loop
     vertex -1.400000e+00  1.025000e+00  1.980000e+00
     vertex -1.400000e+00 -1.025000e+00  2.000000e-02
     vertex -1.400000e+00 -1.025000e+00  1.980000e+00
   endloop
 endfacet
 facet normal -1.000000e+00  0.000000e+00  0.000000e+00
   outer loop
     vertex -1.400000e+00  1.166421e+00  7.857864e-02
     vertex -1.400000e+00  1.146752e+00  6.132933e-02
     vertex -1.400000e+00  1.101537e+00  3.522409e-02
   endloop
 endfacet
 facet normal -1.000000e+00  0.000000e+00  0.000000e+00
   outer loop
     vertex -1.400000e+00  1.146752e+00  6.132933e-02
     vertex -1.400000e+00  1.125000e+00  4.679492e-02
     vertex -1.400000e+00  1.101537e+00  3.522409e-02
   endloop
 endfacet
 facet normal -1.000000e+00 -0.000000e+00  0.000000e+00
   outer loop
     vertex -1.400000e+00  1.198205e+00  1.200000e-01
     vertex -1.400000e+00  1.183671e+00  9.824771e-02
     vertex -1.400000e+00  1.209776e+00  1.434633e-01
   endloop
 endfacet
 facet normal -1.000000e+00  0.000000e+00 -0.000000e+00
   outer loop
     vertex -1.400000e+00 -1.051105e+00  1.978289e+00
     vertex -1.400000e+00 -1.025000e+00  1.980000e+00
     vertex -1.400000e+00 -1.076764e+00  1.973185e+00
   endloop
 endfacet
 facet normal -1.000000e+00  0.000000e+00  0.000000e+00
   outer loop
     vertex -1.400000e+00 -1.225000e+00  1.780000e+00
     vertex -1.400000e+00 -1.223289e+00  1.806105e+00
     vertex -1.400000e+00 -1.209776e+00  1.856537e+00
   endloop
 endfacet
 facet normal -1.000000e+00  0.000000e+00  0.000000e+00
   outer loop
     vertex -1.400000e+00 -1.223289e+00  1.806105e+00
     vertex -1.400000e+00 -1.218185e+00  1.831764e+00
     vertex -1.400000e+00 -1.209776e+00  1.856537e+00
   endloop
 endfacet
 facet normal -1.000000e+00 -0.000000e+00  0.000000e+00
   outer loop
     vertex -1.400000e+00 -1.025000e+00  1.980000e+00
     vertex -1.400000e+00 -1.225000e+00  1.780000e+00
     vertex -1.400000e+00 -1.209776e+00  1.856537e+00
   endloop
 endfacet
 facet normal -1.000000e+00  0.000000e+00 -0.000000e+00
   outer loop
     vertex -1.400000e+00 -1.076764e+00  1.973185e+00
     vertex -1.400000e+00 -1.025000e+00  1.980000e+00
     vertex -1.400000e+00 -1.209776e+00  1.856537e+00
   endloop
 endfacet
 facet normal -1.000000e+00 -0.000000e+00  0.000000e+00
   outer loop
     vertex -1.400000e+00 -1.076764e+00  1.973185e+00
     vertex -1.400000e+00 -1.209776e+00  1.856537e+00
     vertex -1.400000e+00 -1.101537e+00  1.964776e+00
   endloop
 endfacet
 facet normal -1.000000e+00 -0.000000e+00  0.000000e+00
   outer loop
     vertex -1.400000e+00  1.218185e+00  1.682362e-01
     vertex -1.400000e+00  1.209776e+00  1.434633e-01
     vertex -1.400000e+00  1.223289e+00  1.938948e-01
   endloop
 endfacet
 facet normal -1.000000e+00  0.000000e+00  0.000000e+00
   outer loop
     vertex -1.400000e+00 -1.209776e+00  1.856537e+00
     vertex -1.400000e+00 -1.198205e+00  1.880000e+00
     vertex -1.400000e+00 -1.183671e+00  1.901752e+00
   endloop
 endfacet
 facet normal -1.000000e+00  0.000000e+00  0.000000e+00
   outer loop
     vertex -1.400000e+00  1.101537e+00  3.522409e-02
     vertex -1.400000e+00  1.076764e+00  2.681483e-02
     vertex -1.400000e+00  1.051105e+00  2.171103e-02
   endloop
 endfacet
 facet normal -1.000000e+00 -0.000000e+00  0.000000e+00
   outer loop
     vertex -1.400000e+00 -1.101537e+00  1.964776e+00
     vertex -1.400000e+00 -1.209776e+00  1.856537e+00
     vertex -1.400000e+00 -1.183671e+00  1.901752e+00
   endloop
 endfacet
 facet normal -1.000000e+00  0.000000e+00  0.000000e+00
   outer loop
     vertex -1.400000e+00  1.166421e+00  7.857864e-02
     vertex -1.400000e+00  1.101537e+00  3.522409e-02
     vertex -1.400000e+00  1.051105e+00  2.171103e-02
   endloop
 endfacet
 facet normal -1.000000e+00  0.000000e+00 -0.000000e+00
   outer loop
     vertex -1.400000e+00 -1.125000e+00  1.953205e+00
     vertex -1.400000e+00 -1.101537e+00  1.964776e+00
     vertex -1.400000e+00 -1.146752e+00  1.938671e+00
   endloop
 endfacet
 facet normal -1.000000e+00 -0.000000e+00  0.000000e+00
   outer loop
     vertex -1.400000e+00 -1.101537e+00  1.964776e+00
     vertex -1.400000e+00 -1.183671e+00  1.901752e+00
     vertex -1.400000e+00 -1.146752e+00  1.938671e+00
   endloop
 endfacet
 facet normal -1.000000e+00  0.000000e+00  0.000000e+00
   outer loop
     vertex -1.400000e+00  1.183671e+00  9.824771e-02
     vertex -1.400000e+00  1.166421e+00  7.857864e-02
     vertex -1.400000e+00  1.025000e+00  2.000000e-02
   endloop
 endfacet
 facet normal -1.000000e+00  0.000000e+00  0.000000e+00
   outer loop
     vertex -1.400000e+00  1.166421e+00  7.857864e-02
     vertex -1.400000e+00  1.051105e+00  2.171103e-02
     vertex -1.400000e+00  1.025000e+00  2.000000e-02
   endloop
 endfacet
 facet normal -1.000000e+00 -0.000000e+00  0.000000e+00
   outer loop
     vertex -1.400000e+00 -1.146752e+00  1.938671e+00
     vertex -1.400000e+00 -1.183671e+00  1.901752e+00
     vertex -1.400000e+00 -1.166421e+00  1.921421e+00
   endloop
 endfacet
 facet normal -1.000000e+00 -0.000000e+00  0.000000e+00
   outer loop
     vertex -1.400000e+00  1.209776e+00  1.434633e-01
     vertex -1.400000e+00  1.183671e+00  9.824771e-02
     vertex -1.400000e+00  1.225000e+00  2.200000e-01
   endloop
 endfacet
 facet normal -1.000000e+00 -0.000000e+00  0.000000e+00
   outer loop
     vertex -1.400000e+00  1.223289e+00  1.938948e-01
     vertex -1.400000e+00  1.209776e+00  1.434633e-01
     vertex -1.400000e+00  1.225000e+00  2.200000e-01
   endloop
 endfacet
 facet normal -1.000000e+00 -0.000000e+00  0.000000e+00
   outer loop
     vertex -1.400000e+00  1.183671e+00  9.824771e-02
     vertex -1.400000e+00  1.025000e+00  2.000000e-02
     vertex -1.400000e+00  1.225000e+00  2.200000e-01
   endloop
 endfacet
 facet normal -1.000000e+00 -0.000000e+00 -0.000000e+00
   outer loop
     vertex -1.400000e+00  1.223289e+00  1.806105e+00
     vertex -1.400000e+00  1.225000e+00  1.780000e+00
     vertex -1.400000e+00  1.209776e+00  1.856537e+00
   endloop
 endfacet
 facet normal -1.000000e+00 -0.000000e+00 -0.000000e+00
   outer loop
     vertex -1.400000e+00  1.218185e+00  1.831764e+00
     vertex -1.400000e+00  1.223289e+00  1.806105e+00
     vertex -1.400000e+00  1.209776e+00  1.856537e+00
   endloop
 endfacet
 facet normal -1.000000e+00 -0.000000e+00 -0.000000e+00
   outer loop
     vertex -1.400000e+00  1.183671e+00  1.901752e+00
     vertex -1.400000e+00  1.198205e+00  1.880000e+00
     vertex -1.400000e+00  1.146752e+00  1.938671e+00
   endloop
 endfacet
 facet normal -1.000000e+00 -0.000000e+00 -0.000000e+00
   outer loop
     vertex -1.400000e+00  1.166421e+00  1.921421e+00
     vertex -1.400000e+00  1.183671e+00  1.901752e+00
     vertex -1.400000e+00  1.146752e+00  1.938671e+00
   endloop
 endfacet
 facet normal -1.000000e+00 -0.000000e+00 -0.000000e+00
   outer loop
     vertex -1.400000e+00  1.125000e+00  1.953205e+00
     vertex -1.400000e+00  1.146752e+00  1.938671e+00
     vertex -1.400000e+00  1.101537e+00  1.964776e+00
   endloop
 endfacet
 facet normal -1.000000e+00 -0.000000e+00 -0.000000e+00
   outer loop
     vertex -1.400000e+00  1.076764e+00  1.973185e+00
     vertex -1.400000e+00  1.101537e+00  1.964776e+00
     vertex -1.400000e+00  1.051105e+00  1.978289e+00
   endloop
 endfacet
 facet normal -1.000000e+00 -0.000000e+00 -0.000000e+00
   outer loop
     vertex -1.400000e+00  1.051105e+00  1.978289e+00
     vertex -1.400000e+00  1.101537e+00  1.964776e+00
     vertex -1.400000e+00  1.025000e+00  1.980000e+00
   endloop
 endfacet
 facet normal -1.000000e+00 -0.000000e+00 -0.000000e+00
   outer loop
     vertex -1.400000e+00  1.198205e+00  1.880000e+00
     vertex -1.400000e+00  1.209776e+00  1.856537e+00
     vertex -1.400000e+00  1.025000e+00  1.980000e+00
   endloop
 endfacet
 facet normal -1.000000e+00 -0.000000e+00 -0.000000e+00
   outer loop
     vertex -1.400000e+00  1.225000e+00  1.780000e+00
     vertex -1.400000e+00  1.225000e+00  2.200000e-01
     vertex -1.400000e+00  1.025000e+00  1.980000e+00
   endloop
 endfacet
 facet normal -1.000000e+00 -0.000000e+00  0.000000e+00
   outer loop
     vertex -1.400000e+00  1.225000e+00  2.200000e-01
     vertex -1.400000e+00  1.025000e+00  2.000000e-02
     vertex -1.400000e+00  1.025000e+00  1.980000e+00
   endloop
 endfacet
 facet normal -1.000000e+00 -0.000000e+00 -0.000000e+00
   outer loop
     vertex -1.400000e+00  1.209776e+00  1.856537e+00
     vertex -1.400000e+00  1.225000e+00  1.780000e+00
     vertex -1.400000e+00  1.025000e+00  1.980000e+00
   endloop
 endfacet
 facet normal -1.000000e+00 -0.000000e+00 -0.000000e+00
   outer loop
     vertex -1.400000e+00  1.146752e+00  1.938671e+00
     vertex -1.400000e+00  1.198205e+00  1.880000e+00
     vertex -1.400000e+00  1.025000e+00  1.980000e+00
   endloop
 endfacet
 facet normal -1.000000e+00 -0.000000e+00 -0.000000e+00
   outer loop
     vertex -1.400000e+00  1.101537e+00  1.964776e+00
     vertex -1.400000e+00  1.146752e+00  1.938671e+00
     vertex -1.400000e+00  1.025000e+00  1.980000e+00
   endloop
 endfacet
 facet normal -1.000000e+00 -0.000000e+00 -0.000000e+00
   outer loop
     vertex -1.400000e+00  1.025000e+00  1.980000e+00
     vertex -1.400000e+00  1.025000e+00  2.000000e-02
     vertex -1.400000e+00 -1.025000e+00  2.000000e-02
   endloop
 endfacet
 facet normal -1.000000e+00  0.000000e+00  0.000000e+00
   outer loop
     vertex -1.400000e+00 -1.025000e+00  2.000000e-02
     vertex -1.400000e+00 -1.051105e+00  2.171103e-02
     vertex -1.400000e+00 -1.076764e+00  2.681483e-02
   endloop
 endfacet
 facet normal -1.000000e+00  0.000000e+00  0.000000e+00
   outer loop
     vertex -1.400000e+00 -1.025000e+00  2.000000e-02
     vertex -1.400000e+00 -1.076764e+00  2.681483e-02
     vertex -1.400000e+00 -1.101537e+00  3.522409e-02
   endloop
 endfacet
 facet normal -1.000000e+00  0.000000e+00  0.000000e+00
   outer loop
     vertex -1.400000e+00 -1.025000e+00  2.000000e-02
     vertex -1.400000e+00 -1.101537e+00  3.522409e-02
     vertex -1.400000e+00 -1.125000e+00  4.679492e-02
   endloop
 endfacet
 facet normal -1.000000e+00  0.000000e+00  0.000000e+00
   outer loop
     vertex -1.400000e+00 -1.025000e+00  2.000000e-02
     vertex -1.400000e+00 -1.125000e+00  4.679492e-02
     vertex -1.400000e+00 -1.146752e+00  6.132933e-02
   endloop
 endfacet
 facet normal -1.000000e+00  0.000000e+00  0.000000e+00
   outer loop
     vertex -1.400000e+00 -1.025000e+00  2.000000e-02
     vertex -1.400000e+00 -1.146752e+00  6.132933e-02
     vertex -1.400000e+00 -1.166421e+00  7.857864e-02
   endloop
 endfacet
 facet normal -1.000000e+00  0.000000e+00  0.000000e+00
   outer loop
     vertex -1.400000e+00 -1.183671e+00  9.824771e-02
     vertex -1.400000e+00 -1.198205e+00  1.200000e-01
     vertex -1.400000e+00 -1.209776e+00  1.434633e-01
   endloop
 endfacet
 facet normal -1.000000e+00  0.000000e+00  0.000000e+00
   outer loop
     vertex -1.400000e+00 -1.166421e+00  7.857864e-02
     vertex -1.400000e+00 -1.183671e+00  9.824771e-02
     vertex -1.400000e+00 -1.209776e+00  1.434633e-01
   endloop
 endfacet
 facet normal -1.000000e+00  0.000000e+00  0.000000e+00
   outer loop
     vertex -1.400000e+00 -1.025000e+00  2.000000e-02
     vertex -1.400000e+00 -1.166421e+00  7.857864e-02
     vertex -1.400000e+00 -1.209776e+00  1.434633e-01
   endloop
 endfacet
 facet normal  0.000000e+00 -1.000000e+00  0.000000e+00
   outer loop
     vertex -1.400000e+00 -1.225000e+00  2.200000e-01
     vertex  1.400000e+00 -1.225000e+00  2.200000e-01
     vertex  1.400000e+00 -1.225000e+00  1.780000e+00
   endloop
 endfacet
 facet normal  0.000000e+00 -1.000000e+00  0.000000e+00
   outer loop
     vertex -1.400000e+00 -1.225000e+00  1.780000e+00
     vertex -1.400000e+00 -1.225000e+00  2.200000e-01
     vertex  1.400000e+00 -1.225000e+00  1.780000e+00
   endloop
 endfacet
 facet normal  0.000000e+00 -9.978589e-01 -6.540313e-02
   outer loop
     vertex  1.400000e+00 -1.223289e+00  1.938948e-01
     vertex -1.400000e+00 -1.225000e+00  2.200000e-01
     vertex -1.400000e+00 -1.223289e+00  1.938948e-01
   endloop
 endfacet
 facet normal -0.000000e+00 -9.978589e-01 -6.540313e-02
   outer loop
     vertex  1.400000e+00 -1.223289e+00  1.938948e-01
     vertex  1.400000e+00 -1.225000e+00  2.200000e-01
     vertex -1.400000e+00 -1.225000e+00  2.200000e-01
   endloop
 endfacet
 facet normal  0.000000e+00 -9.807853e-01 -1.950903e-01
   outer loop
     vertex  1.400000e+00 -1.218185e+00  1.682362e-01
     vertex -1.400000e+00 -1.223289e+00  1.938948e-01
     vertex -1.400000e+00 -1.218185e+00  1.682362e-01
   endloop
 endfacet
 facet normal -0.000000e+00 -9.469301e-01 -3.214395e-01
   outer loop
     vertex  1.400000e+00 -1.218185e+00  1.682362e-01
     vertex -1.400000e+00 -1.218185e+00  1.682362e-01
     vertex -1.400000e+00 -1.209776e+00  1.434633e-01
   endloop
 endfacet
 facet normal -0.000000e+00 -9.807853e-01 -1.950903e-01
   outer loop
     vertex  1.400000e+00 -1.218185e+00  1.682362e-01
     vertex  1.400000e+00 -1.223289e+00  1.938948e-01
     vertex -1.400000e+00 -1.223289e+00  1.938948e-01
   endloop
 endfacet
 facet normal  0.000000e+00 -9.469301e-01 -3.214395e-01
   outer loop
     vertex  1.400000e+00 -1.209776e+00  1.434633e-01
     vertex  1.400000e+00 -1.218185e+00  1.682362e-01
     vertex -1.400000e+00 -1.209776e+00  1.434633e-01
   endloop
 endfacet
 facet normal  0.000000e+00 -8.968727e-01 -4.422887e-01
   outer loop
     vertex  1.400000e+00 -1.198205e+00  1.200000e-01
     vertex -1.400000e+00 -1.209776e+00  1.434633e-01
     vertex -1.400000e+00 -1.198205e+00  1.200000e-01
   endloop
 endfacet
 facet normal -0.000000e+00 -8.968727e-01 -4.422887e-01
   outer loop
     vertex  1.400000e+00 -1.198205e+00  1.200000e-01
     vertex  1.400000e+00 -1.209776e+00  1.434633e-01
     vertex -1.400000e+00 -1.209776e+00  1.434633e-01
   endloop
 endfacet
 facet normal  0.000000e+00 -8.314696e-01 -5.555702e-01
   outer loop
     vertex  1.400000e+00 -1.183671e+00  9.824771e-02
     vertex -1.400000e+00 -1.198205e+00  1.200000e-01
     vertex -1.400000e+00 -1.183671e+00  9.824771e-02
   endloop
 endfacet
 facet normal -0.000000e+00 -7.518398e-01 -6.593458e-01
   outer loop
     vertex  1.400000e+00 -1.183671e+00  9.824771e-02
     vertex -1.400000e+00 -1.183671e+00  9.824771e-02
     vertex -1.400000e+00 -1.166421e+00  7.857864e-02
   endloop
 endfacet
 facet normal -0.000000e+00 -8.314696e-01 -5.555702e-01
   outer loop
     vertex  1.400000e+00 -1.183671e+00  9.824771e-02
     vertex  1.400000e+00 -1.198205e+00  1.200000e-01
     vertex -1.400000e+00 -1.198205e+00  1.200000e-01
   endloop
 endfacet
 facet normal  0.000000e+00 -7.518398e-01 -6.593458e-01
   outer loop
     vertex  1.400000e+00 -1.166421e+00  7.857864e-02
     vertex  1.400000e+00 -1.183671e+00  9.824771e-02
     vertex -1.400000e+00 -1.166421e+00  7.857864e-02
   endloop
 endfacet
 facet normal  0.000000e+00 -6.593458e-01 -7.518398e-01
   outer loop
     vertex  1.400000e+00 -1.146752e+00  6.132933e-02
     vertex -1.400000e+00 -1.166421e+00  7.857864e-02
     vertex -1.400000e+00 -1.146752e+00  6.132933e-02
   endloop
 endfacet
 facet normal -0.000000e+00 -5.555702e-01 -8.314696e-01
   outer loop
     vertex  1.400000e+00 -1.146752e+00  6.132933e-02
     vertex -1.400000e+00 -1.146752e+00  6.132933e-02
     vertex -1.400000e+00 -1.125000e+00  4.679492e-02
   endloop
 endfacet
 facet normal -0.000000e+00 -6.593458e-01 -7.518398e-01
   outer loop
     vertex  1.400000e+00 -1.146752e+00  6.132933e-02
     vertex  1.400000e+00 -1.166421e+00  7.857864e-02
     vertex -1.400000e+00 -1.166421e+00  7.857864e-02
   endloop
 endfacet
 facet normal -0.000000e+00 -4.422887e-01 -8.968727e-01
   outer loop
     vertex  1.400000e+00 -1.125000e+00  4.679492e-02
     vertex -1.400000e+00 -1.125000e+00  4.679492e-02
     vertex -1.400000e+00 -1.101537e+00  3.522409e-02
   endloop
 endfacet
 facet normal  0.000000e+00 -5.555702e-01 -8.314696e-01
   outer loop
     vertex  1.400000e+00 -1.125000e+00  4.679492e-02
     vertex  1.400000e+00 -1.146752e+00  6.132933e-02
     vertex -1.400000e+00 -1.125000e+00  4.679492e-02
   endloop
 endfacet
 facet normal  0.000000e+00 -4.422887e-01 -8.968727e-01
   outer loop
     vertex  1.400000e+00 -1.101537e+00  3.522409e-02
     vertex  1.400000e+00 -1.125000e+00  4.679492e-02
     vertex -1.400000e+00 -1.101537e+00  3.522409e-02
   endloop
 endfacet
 facet normal  0.000000e+00 -3.214395e-01 -9.469301e-01
   outer loop
     vertex  1.400000e+00 -1.076764e+00  2.681483e-02
     vertex -1.400000e+00 -1.101537e+00  3.522409e-02
     vertex -1.400000e+00 -1.076764e+00  2.681483e-02
   endloop
 endfacet
 facet normal -0.000000e+00 -3.214395e-01 -9.469301e-01
   outer loop
     vertex  1.400000e+00 -1.076764e+00  2.681483e-02
     vertex  1.400000e+00 -1.101537e+00  3.522409e-02
     vertex -1.400000e+00 -1.101537e+00  3.522409e-02
   endloop
 endfacet
 facet normal  0.000000e+00 -1.950903e-01 -9.807853e-01
   outer loop
     vertex  1.400000e+00 -1.051105e+00  2.171103e-02
     vertex -1.400000e+00 -1.076764e+00  2.681483e-02
     vertex -1.400000e+00 -1.051105e+00  2.171103e-02
   endloop
 endfacet
 facet normal -0.000000e+00 -6.540313e-02 -9.978589e-01
   outer loop
     vertex  1.400000e+00 -1.051105e+00  2.171103e-02
     vertex -1.400000e+00 -1.051105e+00  2.171103e-02
     vertex -1.400000e+00 -1.025000e+00  2.000000e-02
   endloop
 endfacet
 facet normal -0.000000e+00 -1.950903e-01 -9.807853e-01
   outer loop
     vertex  1.400000e+00 -1.051105e+00  2.171103e-02
     vertex  1.400000e+00 -1.076764e+00  2.681483e-02
     vertex -1.400000e+00 -1.076764e+00  2.681483e-02
   endloop
 endfacet
 facet normal  0.000000e+00 -6.540313e-02 -9.978589e-01
   outer loop
     vertex  1.400000e+00 -1.025000e+00  2.000000e-02
     vertex  1.400000e+00 -1.051105e+00  2.171103e-02
     vertex -1.400000e+00 -1.025000e+00  2.000000e-02
   endloop
 endfacet
 facet normal  0.000000e+00 -9.978589e-01  6.540313e-02
   outer loop
     vertex -1.400000e+00 -1.223289e+00  1.806105e+00
     vertex -1.400000e+00 -1.225000e+00  1.780000e+00
     vertex  1.400000e+00 -1.223289e+00  1.806105e+00
   endloop
 endfacet
 facet normal  0.000000e+00 -9.978589e-01  6.540313e-02
   outer loop
     vertex -1.400000e+00 -1.225000e+00  1.780000e+00
     vertex  1.400000e+00 -1.225000e+00  1.780000e+00
     vertex  1.400000e+00 -1.223289e+00  1.806105e+00
   endloop
 endfacet
 facet normal  0.000000e+00 -9.807853e-01  1.950903e-01
   outer loop
     vertex -1.400000e+00 -1.218185e+00  1.831764e+00
     vertex -1.400000e+00 -1.223289e+00  1.806105e+00
     vertex  1.400000e+00 -1.218185e+00  1.831764e+00
   endloop
 endfacet
 facet normal  0.000000e+00 -9.469301e-01  3.214395e-01
   outer loop
     vertex -1.400000e+00 -1.209776e+00  1.856537e+00
     vertex -1.400000e+00 -1.218185e+00  1.831764e+00
     vertex  1.400000e+00 -1.218185e+00  1.831764e+00
   endloop
 endfacet
 facet normal  0.000000e+00 -9.807853e-01  1.950903e-01
   outer loop
     vertex -1.400000e+00 -1.223289e+00  1.806105e+00
     vertex  1.400000e+00 -1.223289e+00  1.806105e+00
     vertex  1.400000e+00 -1.218185e+00  1.831764e+00
   endloop
 endfacet
 facet normal  0.000000e+00 -9.469301e-01  3.214395e-01
   outer loop
     vertex -1.400000e+00 -1.209776e+00  1.856537e+00
     vertex  1.400000e+00 -1.218185e+00  1.831764e+00
     vertex  1.400000e+00 -1.209776e+00  1.856537e+00
   endloop
 endfacet
 facet normal  0.000000e+00 -8.968727e-01  4.422887e-01
   outer loop
     vertex -1.400000e+00 -1.198205e+00  1.880000e+00
     vertex -1.400000e+00 -1.209776e+00  1.856537e+00
     vertex  1.400000e+00 -1.198205e+00  1.880000e+00
   endloop
 endfacet
 facet normal  0.000000e+00 -8.968727e-01  4.422887e-01
   outer loop
     vertex -1.400000e+00 -1.209776e+00  1.856537e+00
     vertex  1.400000e+00 -1.209776e+00  1.856537e+00
     vertex  1.400000e+00 -1.198205e+00  1.880000e+00
   endloop
 endfacet
 facet normal  0.000000e+00 -8.314696e-01  5.555702e-01
   outer loop
     vertex -1.400000e+00 -1.183671e+00  1.901752e+00
     vertex -1.400000e+00 -1.198205e+00  1.880000e+00
     vertex  1.400000e+00 -1.183671e+00  1.901752e+00
   endloop
 endfacet
 facet normal  0.000000e+00 -7.518398e-01  6.593458e-01
   outer loop
     vertex -1.400000e+00 -1.166421e+00  1.921421e+00
     vertex -1.400000e+00 -1.183671e+00  1.901752e+00
     vertex  1.400000e+00 -1.183671e+00  1.901752e+00
   endloop
 endfacet
 facet normal  0.000000e+00 -8.314696e-01  5.555702e-01
   outer loop
     vertex -1.400000e+00 -1.198205e+00  1.880000e+00
     vertex  1.400000e+00 -1.198205e+00  1.880000e+00
     vertex  1.400000e+00 -1.183671e+00  1.901752e+00
   endloop
 endfacet
 facet normal  0.000000e+00 -7.518398e-01  6.593458e-01
   outer loop
     vertex -1.400000e+00 -1.166421e+00  1.921421e+00
     vertex  1.400000e+00 -1.183671e+00  1.901752e+00
     vertex  1.400000e+00 -1.166421e+00  1.921421e+00
   endloop
 endfacet
 facet normal  0.000000e+00 -6.593458e-01  7.518398e-01
   outer loop
     vertex -1.400000e+00 -1.146752e+00  1.938671e+00
     vertex -1.400000e+00 -1.166421e+00  1.921421e+00
     vertex  1.400000e+00 -1.146752e+00  1.938671e+00
   endloop
 endfacet
 facet normal  0.000000e+00 -5.555702e-01  8.314696e-01
   outer loop
     vertex -1.400000e+00 -1.125000e+00  1.953205e+00
     vertex -1.400000e+00 -1.146752e+00  1.938671e+00
     vertex  1.400000e+00 -1.146752e+00  1.938671e+00
   endloop
 endfacet
 facet normal  0.000000e+00 -6.593458e-01  7.518398e-01
   outer loop
     vertex -1.400000e+00 -1.166421e+00  1.921421e+00
     vertex  1.400000e+00 -1.166421e+00  1.921421e+00
     vertex  1.400000e+00 -1.146752e+00  1.938671e+00
   endloop
 endfacet
 facet normal  0.000000e+00 -5.555702e-01  8.314696e-01
   outer loop
     vertex -1.400000e+00 -1.125000e+00  1.953205e+00
     vertex  1.400000e+00 -1.146752e+00  1.938671e+00
     vertex  1.400000e+00 -1.125000e+00  1.953205e+00
   endloop
 endfacet
 facet normal  0.000000e+00 -4.422887e-01  8.968727e-01
   outer loop
     vertex -1.400000e+00 -1.101537e+00  1.964776e+00
     vertex -1.400000e+00 -1.125000e+00  1.953205e+00
     vertex  1.400000e+00 -1.101537e+00  1.964776e+00
   endloop
 endfacet
 facet normal  0.000000e+00 -4.422887e-01  8.968727e-01
   outer loop
     vertex -1.400000e+00 -1.125000e+00  1.953205e+00
     vertex  1.400000e+00 -1.125000e+00  1.953205e+00
     vertex  1.400000e+00 -1.101537e+00  1.964776e+00
   endloop
 endfacet
 facet normal  0.000000e+00 -3.214395e-01  9.469301e-01
   outer loop
     vertex -1.400000e+00 -1.076764e+00  1.973185e+00
     vertex -1.400000e+00 -1.101537e+00  1.964776e+00
     vertex  1.400000e+00 -1.076764e+00  1.973185e+00
   endloop
 endfacet
 facet normal  0.000000e+00 -3.214395e-01  9.469301e-01
   outer loop
     vertex -1.400000e+00 -1.101537e+00  1.964776e+00
     vertex  1.400000e+00 -1.101537e+00  1.964776e+00
     vertex  1.400000e+00 -1.076764e+00  1.973185e+00
   endloop
 endfacet
 facet normal  0.000000e+00 -1.950903e-01  9.807853e-01
   outer loop
     vertex -1.400000e+00 -1.051105e+00  1.978289e+00
     vertex -1.400000e+00 -1.076764e+00  1.973185e+00
     vertex  1.400000e+00 -1.051105e+00  1.978289e+00
   endloop
 endfacet
 facet normal  0.000000e+00 -6.540313e-02  9.978589e-01
   outer loop
     vertex -1.400000e+00 -1.025000e+00  1.980000e+00
     vertex -1.400000e+00 -1.051105e+00  1.978289e+00
     vertex  1.400000e+00 -1.051105e+00  1.978289e+00
   endloop
 endfacet
 facet normal  0.000000e+00 -1.950903e-01  9.807853e-01
   outer loop
     vertex -1.400000e+00 -1.076764e+00  1.973185e+00
     vertex  1.400000e+00 -1.076764e+00  1.973185e+00
     vertex  1.400000e+00 -1.051105e+00  1.978289e+00
   endloop
 endfacet
 facet normal  0.000000e+00 -6.540313e-02  9.978589e-01
   outer loop
     vertex -1.400000e+00 -1.025000e+00  1.980000e+00
     vertex  1.400000e+00 -1.051105e+00  1.978289e+00
     vertex  1.400000e+00 -1.025000e+00  1.980000e+00
   endloop
 endfacet
 facet normal  0.000000e+00  0.000000e+00 -1.000000e+00
   outer loop
     vertex -1.400000e+00 -1.025000e+00  2.000000e-02
     vertex -1.400000e+00  1.025000e+00  2.000000e-02
     vertex  1.400000e+00  1.025000e+00  2.000000e-02
   endloop
 endfacet
 facet normal  0.000000e+00  0.000000e+00 -1.000000e+00
   outer loop
     vertex  1.400000e+00 -1.025000e+00  2.000000e-02
     vertex -1.400000e+00 -1.025000e+00  2.000000e-02
     vertex  1.400000e+00  1.025000e+00  2.000000e-02
   endloop
 endfacet
 facet normal  0.000000e+00  0.000000e+00  1.000000e+00
   outer loop
     vertex  1.400000e+00  1.025000e+00  1.980000e+00
     vertex -1.400000e+00  1.025000e+00  1.980000e+00
     vertex -1.400000e+00 -1.025000e+00  1.980000e+00
   endloop
 endfacet
 facet normal -0.000000e+00  0.000000e+00  1.000000e+00
   outer loop
     vertex  1.400000e+00  1.025000e+00  1.980000e+00
     vertex -1.400000e+00 -1.025000e+00  1.980000e+00
     vertex  1.400000e+00 -1.025000e+00  1.980000e+00
   endloop
 endfacet
 facet normal  0.000000e+00  9.978589e-01 -6.540313e-02
   outer loop
     vertex -1.400000e+00  1.223289e+00  1.938948e-01
     vertex -1.400000e+00  1.225000e+00  2.200000e-01
     vertex  1.400000e+00  1.223289e+00  1.938948e-01
   endloop
 endfacet
 facet normal  0.000000e+00  9.978589e-01 -6.540313e-02
   outer loop
     vertex -1.400000e+00  1.225000e+00  2.200000e-01
     vertex  1.400000e+00  1.225000e+00  2.200000e-01
     vertex  1.400000e+00  1.223289e+00  1.938948e-01
   endloop
 endfacet
 facet normal  0.000000e+00  9.807853e-01 -1.950903e-01
   outer loop
     vertex -1.400000e+00  1.218185e+00  1.682362e-01
     vertex -1.400000e+00  1.223289e+00  1.938948e-01
     vertex  1.400000e+00  1.218185e+00  1.682362e-01
   endloop
 endfacet
 facet normal  0.000000e+00  9.807853e-01 -1.950903e-01
   outer loop
     vertex -1.400000e+00  1.223289e+00  1.938948e-01
     vertex  1.400000e+00  1.223289e+00  1.938948e-01
     vertex  1.400000e+00  1.218185e+00  1.682362e-01
   endloop
 endfacet
 facet normal  0.000000e+00  9.469301e-01 -3.214395e-01
   outer loop
     vertex -1.400000e+00  1.209776e+00  1.434633e-01
     vertex -1.400000e+00  1.218185e+00  1.682362e-01
     vertex  1.400000e+00  1.209776e+00  1.434633e-01
   endloop
 endfacet
 facet normal  0.000000e+00  8.968727e-01 -4.422887e-01
   outer loop
     vertex -1.400000e+00  1.198205e+00  1.200000e-01
     vertex -1.400000e+00  1.209776e+00  1.434633e-01
     vertex  1.400000e+00  1.209776e+00  1.434633e-01
   endloop
 endfacet
 facet normal  0.000000e+00  9.469301e-01 -3.214395e-01
   outer loop
     vertex -1.400000e+00  1.218185e+00  1.682362e-01
     vertex  1.400000e+00  1.218185e+00  1.682362e-01
     vertex  1.400000e+00  1.209776e+00  1.434633e-01
   endloop
 endfacet
 facet normal  0.000000e+00  8.968727e-01 -4.422887e-01
   outer loop
     vertex -1.400000e+00  1.198205e+00  1.200000e-01
     vertex  1.400000e+00  1.209776e+00  1.434633e-01
     vertex  1.400000e+00  1.198205e+00  1.200000e-01
   endloop
 endfacet
 facet normal  0.000000e+00  8.314696e-01 -5.555702e-01
   outer loop
     vertex -1.400000e+00  1.183671e+00  9.824771e-02
     vertex -1.400000e+00  1.198205e+00  1.200000e-01
     vertex  1.400000e+00  1.183671e+00  9.824771e-02
   endloop
 endfacet
 facet normal  0.000000e+00  7.518398e-01 -6.593458e-01
   outer loop
     vertex -1.400000e+00  1.166421e+00  7.857864e-02
     vertex -1.400000e+00  1.183671e+00  9.824771e-02
     vertex  1.400000e+00  1.183671e+00  9.824771e-02
   endloop
 endfacet
 facet normal  0.000000e+00  8.314696e-01 -5.555702e-01
   outer loop
     vertex -1.400000e+00  1.198205e+00  1.200000e-01
     vertex  1.400000e+00  1.198205e+00  1.200000e-01
     vertex  1.400000e+00  1.183671e+00  9.824771e-02
   endloop
 endfacet
 facet normal  0.000000e+00  6.593458e-01 -7.518398e-01
   outer loop
     vertex -1.400000e+00  1.146752e+00  6.132933e-02
     vertex -1.400000e+00  1.166421e+00  7.857864e-02
     vertex  1.400000e+00  1.166421e+00  7.857864e-02
   endloop
 endfacet
 facet normal  0.000000e+00  7.518398e-01 -6.593458e-01
   outer loop
     vertex -1.400000e+00  1.166421e+00  7.857864e-02
     vertex  1.400000e+00  1.183671e+00  9.824771e-02
     vertex  1.400000e+00  1.166421e+00  7.857864e-02
   endloop
 endfacet
 facet normal  0.000000e+00  6.593458e-01 -7.518398e-01
   outer loop
     vertex -1.400000e+00  1.146752e+00  6.132933e-02
     vertex  1.400000e+00  1.166421e+00  7.857864e-02
     vertex  1.400000e+00  1.146752e+00  6.132933e-02
   endloop
 endfacet
 facet normal  0.000000e+00  5.555702e-01 -8.314696e-01
   outer loop
     vertex -1.400000e+00  1.125000e+00  4.679492e-02
     vertex -1.400000e+00  1.146752e+00  6.132933e-02
     vertex  1.400000e+00  1.125000e+00  4.679492e-02
   endloop
 endfacet
 facet normal  0.000000e+00  5.555702e-01 -8.314696e-01
   outer loop
     vertex -1.400000e+00  1.146752e+00  6.132933e-02
     vertex  1.400000e+00  1.146752e+00  6.132933e-02
     vertex  1.400000e+00  1.125000e+00  4.679492e-02
   endloop
 endfacet
 facet normal  0.000000e+00  4.422887e-01 -8.968727e-01
   outer loop
     vertex -1.400000e+00  1.101537e+00  3.522409e-02
     vertex -1.400000e+00  1.125000e+00  4.679492e-02
     vertex  1.400000e+00  1.101537e+00  3.522409e-02
   endloop
 endfacet
 facet normal  0.000000e+00  3.214395e-01 -9.469301e-01
   outer loop
     vertex -1.400000e+00  1.076764e+00  2.681483e-02
     vertex -1.400000e+00  1.101537e+00  3.522409e-02
     vertex  1.400000e+00  1.101537e+00  3.522409e-02
   endloop
 endfacet
 facet normal  0.000000e+00  4.422887e-01 -8.968727e-01
   outer loop
     vertex -1.400000e+00  1.125000e+00  4.679492e-02
     vertex  1.400000e+00  1.125000e+00  4.679492e-02
     vertex  1.400000e+00  1.101537e+00  3.522409e-02
   endloop
 endfacet
 facet normal  0.000000e+00  1.950903e-01 -9.807853e-01
   outer loop
     vertex -1.400000e+00  1.051105e+00  2.171103e-02
     vertex -1.400000e+00  1.076764e+00  2.681483e-02
     vertex  1.400000e+00  1.076764e+00  2.681483e-02
   endloop
 endfacet
 facet normal  0.000000e+00  3.214395e-01 -9.469301e-01
   outer loop
     vertex -1.400000e+00  1.076764e+00  2.681483e-02
     vertex  1.400000e+00  1.101537e+00  3.522409e-02
     vertex  1.400000e+00  1.076764e+00  2.681483e-02
   endloop
 endfacet
 facet normal  0.000000e+00  1.950903e-01 -9.807853e-01
   outer loop
     vertex -1.400000e+00  1.051105e+00  2.171103e-02
     vertex  1.400000e+00  1.076764e+00  2.681483e-02
     vertex  1.400000e+00  1.051105e+00  2.171103e-02
   endloop
 endfacet
 facet normal  0.000000e+00  6.540313e-02 -9.978589e-01
   outer loop
     vertex -1.400000e+00  1.025000e+00  2.000000e-02
     vertex -1.400000e+00  1.051105e+00  2.171103e-02
     vertex  1.400000e+00  1.025000e+00  2.000000e-02
   endloop
 endfacet
 facet normal  0.000000e+00  6.540313e-02 -9.978589e-01
   outer loop
     vertex -1.400000e+00  1.051105e+00  2.171103e-02
     vertex  1.400000e+00  1.051105e+00  2.171103e-02
     vertex  1.400000e+00  1.025000e+00  2.000000e-02
   endloop
 endfacet
 facet normal  0.000000e+00  9.978589e-01  6.540313e-02
   outer loop
     vertex  1.400000e+00  1.223289e+00  1.806105e+00
     vertex -1.400000e+00  1.225000e+00  1.780000e+00
     vertex -1.400000e+00  1.223289e+00  1.806105e+00
   endloop
 endfacet
 facet normal  0.000000e+00  9.978589e-01  6.540313e-02
   outer loop
     vertex  1.400000e+00  1.223289e+00  1.806105e+00
     vertex  1.400000e+00  1.225000e+00  1.780000e+00
     vertex -1.400000e+00  1.225000e+00  1.780000e+00
   endloop
 endfacet
 facet normal  0.000000e+00  9.807853e-01  1.950903e-01
   outer loop
     vertex  1.400000e+00  1.218185e+00  1.831764e+00
     vertex -1.400000e+00  1.223289e+00  1.806105e+00
     vertex -1.400000e+00  1.218185e+00  1.831764e+00
   endloop
 endfacet
 facet normal  0.000000e+00  9.469301e-01  3.214395e-01
   outer loop
     vertex  1.400000e+00  1.218185e+00  1.831764e+00
     vertex -1.400000e+00  1.218185e+00  1.831764e+00
     vertex -1.400000e+00  1.209776e+00  1.856537e+00
   endloop
 endfacet
 facet normal  0.000000e+00  9.807853e-01  1.950903e-01
   outer loop
     vertex  1.400000e+00  1.218185e+00  1.831764e+00
     vertex  1.400000e+00  1.223289e+00  1.806105e+00
     vertex -1.400000e+00  1.223289e+00  1.806105e+00
   endloop
 endfacet
 facet normal  0.000000e+00  9.469301e-01  3.214395e-01
   outer loop
     vertex  1.400000e+00  1.209776e+00  1.856537e+00
     vertex  1.400000e+00  1.218185e+00  1.831764e+00
     vertex -1.400000e+00  1.209776e+00  1.856537e+00
   endloop
 endfacet
 facet normal  0.000000e+00  8.968727e-01  4.422887e-01
   outer loop
     vertex  1.400000e+00  1.198205e+00  1.880000e+00
     vertex -1.400000e+00  1.209776e+00  1.856537e+00
     vertex -1.400000e+00  1.198205e+00  1.880000e+00
   endloop
 endfacet
 facet normal  0.000000e+00  8.968727e-01  4.422887e-01
   outer loop
     vertex  1.400000e+00  1.198205e+00  1.880000e+00
     vertex  1.400000e+00  1.209776e+00  1.856537e+00
     vertex -1.400000e+00  1.209776e+00  1.856537e+00
   endloop
 endfacet
 facet normal  0.000000e+00  8.314696e-01  5.555702e-01
   outer loop
     vertex  1.400000e+00  1.183671e+00  1.901752e+00
     vertex -1.400000e+00  1.198205e+00  1.880000e+00
     vertex -1.400000e+00  1.183671e+00  1.901752e+00
   endloop
 endfacet
 facet normal  0.000000e+00  7.518398e-01  6.593458e-01
   outer loop
     vertex  1.400000e+00  1.183671e+00  1.901752e+00
     vertex -1.400000e+00  1.183671e+00  1.901752e+00
     vertex -1.400000e+00  1.166421e+00  1.921421e+00
   endloop
 endfacet
 facet normal  0.000000e+00  8.314696e-01  5.555702e-01
   outer loop
     vertex  1.400000e+00  1.183671e+00  1.901752e+00
     vertex  1.400000e+00  1.198205e+00  1.880000e+00
     vertex -1.400000e+00  1.198205e+00  1.880000e+00
   endloop
 endfacet
 facet normal  0.000000e+00  7.518398e-01  6.593458e-01
   outer loop
     vertex  1.400000e+00  1.166421e+00  1.921421e+00
     vertex  1.400000e+00  1.183671e+00  1.901752e+00
     vertex -1.400000e+00  1.166421e+00  1.921421e+00
   endloop
 endfacet
 facet normal  0.000000e+00  6.593458e-01  7.518398e-01
   outer loop
     vertex  1.400000e+00  1.146752e+00  1.938671e+00
     vertex -1.400000e+00  1.166421e+00  1.921421e+00
     vertex -1.400000e+00  1.146752e+00  1.938671e+00
   endloop
 endfacet
 facet normal  0.000000e+00  5.555702e-01  8.314696e-01
   outer loop
     vertex  1.400000e+00  1.146752e+00  1.938671e+00
     vertex -1.400000e+00  1.146752e+00  1.938671e+00
     vertex -1.400000e+00  1.125000e+00  1.953205e+00
   endloop
 endfacet
 facet normal  0.000000e+00  6.593458e-01  7.518398e-01
   outer loop
     vertex  1.400000e+00  1.146752e+00  1.938671e+00
     vertex  1.400000e+00  1.166421e+00  1.921421e+00
     vertex -1.400000e+00  1.166421e+00  1.921421e+00
   endloop
 endfacet
 facet normal  0.000000e+00  5.555702e-01  8.314696e-01
   outer loop
     vertex  1.400000e+00  1.125000e+00  1.953205e+00
     vertex  1.400000e+00  1.146752e+00  1.938671e+00
     vertex -1.400000e+00  1.125000e+00  1.953205e+00
   endloop
 endfacet
 facet normal  0.000000e+00  4.422887e-01  8.968727e-01
   outer loop
     vertex  1.400000e+00  1.101537e+00  1.964776e+00
     vertex -1.400000e+00  1.125000e+00  1.953205e+00
     vertex -1.400000e+00  1.101537e+00  1.964776e+00
   endloop
 endfacet
 facet normal  0.000000e+00  4.422887e-01  8.968727e-01
   outer loop
     vertex  1.400000e+00  1.101537e+00  1.964776e+00
     vertex  1.400000e+00  1.125000e+00  1.953205e+00
     vertex -1.400000e+00  1.125000e+00  1.953205e+00
   endloop
 endfacet
 facet normal  0.000000e+00  3.214395e-01  9.469301e-01
   outer loop
     vertex  1.400000e+00  1.076764e+00  1.973185e+00
     vertex -1.400000e+00  1.101537e+00  1.964776e+00
     vertex -1.400000e+00  1.076764e+00  1.973185e+00
   endloop
 endfacet
 facet normal  0.000000e+00  3.214395e-01  9.469301e-01
   outer loop
     vertex  1.400000e+00  1.076764e+00  1.973185e+00
     vertex  1.400000e+00  1.101537e+00  1.964776e+00
     vertex -1.400000e+00  1.101537e+00  1.964776e+00
   endloop
 endfacet
 facet normal  0.000000e+00  1.950903e-01  9.807853e-01
   outer loop
     vertex  1.400000e+00  1.051105e+00  1.978289e+00
     vertex -1.400000e+00  1.076764e+00  1.973185e+00
     vertex -1.400000e+00  1.051105e+00  1.978289e+00
   endloop
 endfacet
 facet normal  0.000000e+00  1.950903e-01  9.807853e-01
   outer loop
     vertex  1.400000e+00  1.051105e+00  1.978289e+00
     vertex  1.400000e+00  1.076764e+00  1.973185e+00
     vertex -1.400000e+00  1.076764e+00  1.973185e+00
   endloop
 endfacet
 facet normal  0.000000e+00  6.540313e-02  9.978589e-01
   outer loop
     vertex  1.400000e+00  1.025000e+00  1.980000e+00
     vertex -1.400000e+00  1.051105e+00  1.978289e+00
     vertex -1.400000e+00  1.025000e+00  1.980000e+00
   endloop
 endfacet
 facet normal  0.000000e+00  6.540313e-02  9.978589e-01
   outer loop
     vertex  1.400000e+00  1.025000e+00  1.980000e+00
     vertex  1.400000e+00  1.051105e+00  1.978289e+00
     vertex -1.400000e+00  1.051105e+00  1.978289e+00
   endloop
 endfacet
 facet normal  0.000000e+00  1.000000e+00  0.000000e+00
   outer loop
     vertex  1.400000e+00  1.225000e+00  1.780000e+00
     vertex  1.400000e+00  1.225000e+00  2.200000e-01
     vertex -1.400000e+00  1.225000e+00  2.200000e-01
   endloop
 endfacet
 facet normal  0.000000e+00  1.000000e+00 -0.000000e+00
   outer loop
     vertex  1.400000e+00  1.225000e+00  1.780000e+00
     vertex -1.400000e+00  1.225000e+00  2.200000e-01
     vertex -1.400000e+00  1.225000e+00  1.780000e+00
   endloop
 endfacet
 facet normal  1.000000e+00  0.000000e+00  0.000000e+00
   outer loop
     vertex  1.400000e+00 -1.223289e+00  1.938948e-01
     vertex  1.400000e+00 -1.218185e+00  1.682362e-01
     vertex  1.400000e+00 -1.209776e+00  1.434633e-01
   endloop
 endfacet
 facet normal  1.000000e+00  0.000000e+00  0.000000e+00
   outer loop
     vertex  1.400000e+00 -1.225000e+00  2.200000e-01
     vertex  1.400000e+00 -1.209776e+00  1.434633e-01
     vertex  1.400000e+00 -1.025000e+00  2.000000e-02
   endloop
 endfacet
 facet normal  1.000000e+00  0.000000e+00  0.000000e+00
   outer loop
     vertex  1.400000e+00 -1.225000e+00  2.200000e-01
     vertex  1.400000e+00 -1.223289e+00  1.938948e-01
     vertex  1.400000e+00 -1.209776e+00  1.434633e-01
   endloop
 endfacet
 facet normal  1.000000e+00  0.000000e+00  0.000000e+00
   outer loop
     vertex  1.400000e+00 -1.025000e+00  1.980000e+00
     vertex  1.400000e+00 -1.225000e+00  1.780000e+00
     vertex  1.400000e+00 -1.225000e+00  2.200000e-01
   endloop
 endfacet
 facet normal  1.000000e+00  0.000000e+00  0.000000e+00
   outer loop
     vertex  1.400000e+00 -1.025000e+00  1.980000e+00
     vertex  1.400000e+00 -1.225000e+00  2.200000e-01
     vertex  1.400000e+00 -1.025000e+00  2.000000e-02
   endloop
 endfacet
 facet normal  1.000000e+00 -0.000000e+00  0.000000e+00
   outer loop
     vertex  1.400000e+00 -1.025000e+00  1.980000e+00
     vertex  1.400000e+00 -1.025000e+00  2.000000e-02
     vertex  1.400000e+00  1.025000e+00  1.980000e+00
   endloop
 endfacet
 facet normal  1.000000e+00  0.000000e+00  0.000000e+00
   outer loop
     vertex  1.400000e+00  1.101537e+00  3.522409e-02
     vertex  1.400000e+00  1.146752e+00  6.132933e-02
     vertex  1.400000e+00  1.166421e+00  7.857864e-02
   endloop
 endfacet
 facet normal  1.000000e+00  0.000000e+00  0.000000e+00
   outer loop
     vertex  1.400000e+00  1.101537e+00  3.522409e-02
     vertex  1.400000e+00  1.125000e+00  4.679492e-02
     vertex  1.400000e+00  1.146752e+00  6.132933e-02
   endloop
 endfacet
 facet normal  1.000000e+00 -0.000000e+00  0.000000e+00
   outer loop
     vertex  1.400000e+00  1.209776e+00  1.434633e-01
     vertex  1.400000e+00  1.183671e+00  9.824771e-02
     vertex  1.400000e+00  1.198205e+00  1.200000e-01
   endloop
 endfacet
 facet normal  1.000000e+00  0.000000e+00 -0.000000e+00
   outer loop
     vertex  1.400000e+00 -1.076764e+00  1.973185e+00
     vertex  1.400000e+00 -1.025000e+00  1.980000e+00
     vertex  1.400000e+00 -1.051105e+00  1.978289e+00
   endloop
 endfacet
 facet normal  1.000000e+00  0.000000e+00  0.000000e+00
   outer loop
     vertex  1.400000e+00 -1.209776e+00  1.856537e+00
     vertex  1.400000e+00 -1.223289e+00  1.806105e+00
     vertex  1.400000e+00 -1.225000e+00  1.780000e+00
   endloop
 endfacet
 facet normal  1.000000e+00  0.000000e+00  0.000000e+00
   outer loop
     vertex  1.400000e+00 -1.209776e+00  1.856537e+00
     vertex  1.400000e+00 -1.218185e+00  1.831764e+00
     vertex  1.400000e+00 -1.223289e+00  1.806105e+00
   endloop
 endfacet
 facet normal  1.000000e+00 -0.000000e+00  0.000000e+00
   outer loop
     vertex  1.400000e+00 -1.209776e+00  1.856537e+00
     vertex  1.400000e+00 -1.225000e+00  1.780000e+00
     vertex  1.400000e+00 -1.025000e+00  1.980000e+00
   endloop
 endfacet
 facet normal  1.000000e+00  0.000000e+00 -0.000000e+00
   outer loop
     vertex  1.400000e+00 -1.209776e+00  1.856537e+00
     vertex  1.400000e+00 -1.025000e+00  1.980000e+00
     vertex  1.400000e+00 -1.076764e+00  1.973185e+00
   endloop
 endfacet
 facet normal  1.000000e+00 -0.000000e+00  0.000000e+00
   outer loop
     vertex  1.400000e+00 -1.101537e+00  1.964776e+00
     vertex  1.400000e+00 -1.209776e+00  1.856537e+00
     vertex  1.400000e+00 -1.076764e+00  1.973185e+00
   endloop
 endfacet
 facet normal  1.000000e+00 -0.000000e+00  0.000000e+00
   outer loop
     vertex  1.400000e+00  1.223289e+00  1.938948e-01
     vertex  1.400000e+00  1.209776e+00  1.434633e-01
     vertex  1.400000e+00  1.218185e+00  1.682362e-01
   endloop
 endfacet
 facet normal  1.000000e+00  0.000000e+00  0.000000e+00
   outer loop
     vertex  1.400000e+00 -1.183671e+00  1.901752e+00
     vertex  1.400000e+00 -1.198205e+00  1.880000e+00
     vertex  1.400000e+00 -1.209776e+00  1.856537e+00
   endloop
 endfacet
 facet normal  1.000000e+00  0.000000e+00  0.000000e+00
   outer loop
     vertex  1.400000e+00  1.051105e+00  2.171103e-02
     vertex  1.400000e+00  1.076764e+00  2.681483e-02
     vertex  1.400000e+00  1.101537e+00  3.522409e-02
   endloop
 endfacet
 facet normal  1.000000e+00 -0.000000e+00  0.000000e+00
   outer loop
     vertex  1.400000e+00 -1.183671e+00  1.901752e+00
     vertex  1.400000e+00 -1.209776e+00  1.856537e+00
     vertex  1.400000e+00 -1.101537e+00  1.964776e+00
   endloop
 endfacet
 facet normal  1.000000e+00  0.000000e+00  0.000000e+00
   outer loop
     vertex  1.400000e+00  1.051105e+00  2.171103e-02
     vertex  1.400000e+00  1.101537e+00  3.522409e-02
     vertex  1.400000e+00  1.166421e+00  7.857864e-02
   endloop
 endfacet
 facet normal  1.000000e+00  0.000000e+00 -0.000000e+00
   outer loop
     vertex  1.400000e+00 -1.146752e+00  1.938671e+00
     vertex  1.400000e+00 -1.101537e+00  1.964776e+00
     vertex  1.400000e+00 -1.125000e+00  1.953205e+00
   endloop
 endfacet
 facet normal  1.000000e+00 -0.000000e+00  0.000000e+00
   outer loop
     vertex  1.400000e+00 -1.146752e+00  1.938671e+00
     vertex  1.400000e+00 -1.183671e+00  1.901752e+00
     vertex  1.400000e+00 -1.101537e+00  1.964776e+00
   endloop
 endfacet
 facet normal  1.000000e+00  0.000000e+00  0.000000e+00
   outer loop
     vertex  1.400000e+00  1.025000e+00  2.000000e-02
     vertex  1.400000e+00  1.166421e+00  7.857864e-02
     vertex  1.400000e+00  1.183671e+00  9.824771e-02
   endloop
 endfacet
 facet normal  1.000000e+00  0.000000e+00  0.000000e+00
   outer loop
     vertex  1.400000e+00  1.025000e+00  2.000000e-02
     vertex  1.400000e+00  1.051105e+00  2.171103e-02
     vertex  1.400000e+00  1.166421e+00  7.857864e-02
   endloop
 endfacet
 facet normal  1.000000e+00 -0.000000e+00  0.000000e+00
   outer loop
     vertex  1.400000e+00 -1.166421e+00  1.921421e+00
     vertex  1.400000e+00 -1.183671e+00  1.901752e+00
     vertex  1.400000e+00 -1.146752e+00  1.938671e+00
   endloop
 endfacet
 facet normal  1.000000e+00 -0.000000e+00  0.000000e+00
   outer loop
     vertex  1.400000e+00  1.225000e+00  2.200000e-01
     vertex  1.400000e+00  1.183671e+00  9.824771e-02
     vertex  1.400000e+00  1.209776e+00  1.434633e-01
   endloop
 endfacet
 facet normal  1.000000e+00 -0.000000e+00  0.000000e+00
   outer loop
     vertex  1.400000e+00  1.225000e+00  2.200000e-01
     vertex  1.400000e+00  1.209776e+00  1.434633e-01
     vertex  1.400000e+00  1.223289e+00  1.938948e-01
   endloop
 endfacet
 facet normal  1.000000e+00 -0.000000e+00  0.000000e+00
   outer loop
     vertex  1.400000e+00  1.225000e+00  2.200000e-01
     vertex  1.400000e+00  1.025000e+00  2.000000e-02
     vertex  1.400000e+00  1.183671e+00  9.824771e-02
   endloop
 endfacet
 facet normal  1.000000e+00 -0.000000e+00 -0.000000e+00
   outer loop
     vertex  1.400000e+00  1.209776e+00  1.856537e+00
     vertex  1.400000e+00  1.225000e+00  1.780000e+00
     vertex  1.400000e+00  1.223289e+00  1.806105e+00
   endloop
 endfacet
 facet normal  1.000000e+00 -0.000000e+00 -0.000000e+00
   outer loop
     vertex  1.400000e+00  1.209776e+00  1.856537e+00
     vertex  1.400000e+00  1.223289e+00  1.806105e+00
     vertex  1.400000e+00  1.218185e+00  1.831764e+00
   endloop
 endfacet
 facet normal  1.000000e+00 -0.000000e+00 -0.000000e+00
   outer loop
     vertex  1.400000e+00  1.146752e+00  1.938671e+00
     vertex  1.400000e+00  1.198205e+00  1.880000e+00
     vertex  1.400000e+00  1.183671e+00  1.901752e+00
   endloop
 endfacet
 facet normal  1.000000e+00 -0.000000e+00 -0.000000e+00
   outer loop
     vertex  1.400000e+00  1.146752e+00  1.938671e+00
     vertex  1.400000e+00  1.183671e+00  1.901752e+00
     vertex  1.400000e+00  1.166421e+00  1.921421e+00
   endloop
 endfacet
 facet normal  1.000000e+00 -0.000000e+00 -0.000000e+00
   outer loop
     vertex  1.400000e+00  1.101537e+00  1.964776e+00
     vertex  1.400000e+00  1.146752e+00  1.938671e+00
     vertex  1.400000e+00  1.125000e+00  1.953205e+00
   endloop
 endfacet
 facet normal  1.000000e+00 -0.000000e+00 -0.000000e+00
   outer loop
     vertex  1.400000e+00  1.051105e+00  1.978289e+00
     vertex  1.400000e+00  1.101537e+00  1.964776e+00
     vertex  1.400000e+00  1.076764e+00  1.973185e+00
   endloop
 endfacet
 facet normal  1.000000e+00 -0.000000e+00 -0.000000e+00
   outer loop
     vertex  1.400000e+00  1.025000e+00  1.980000e+00
     vertex  1.400000e+00  1.101537e+00  1.964776e+00
     vertex  1.400000e+00  1.051105e+00  1.978289e+00
   endloop
 endfacet
 facet normal  1.000000e+00 -0.000000e+00 -0.000000e+00
   outer loop
     vertex  1.400000e+00  1.025000e+00  1.980000e+00
     vertex  1.400000e+00  1.209776e+00  1.856537e+00
     vertex  1.400000e+00  1.198205e+00  1.880000e+00
   endloop
 endfacet
 facet normal  1.000000e+00 -0.000000e+00  0.000000e+00
   outer loop
     vertex  1.400000e+00  1.025000e+00  1.980000e+00
     vertex  1.400000e+00  1.225000e+00  2.200000e-01
     vertex  1.400000e+00  1.225000e+00  1.780000e+00
   endloop
 endfacet
 facet normal  1.000000e+00 -0.000000e+00  0.000000e+00
   outer loop
     vertex  1.400000e+00  1.025000e+00  1.980000e+00
     vertex  1.400000e+00  1.025000e+00  2.000000e-02
     vertex  1.400000e+00  1.225000e+00  2.200000e-01
   endloop
 endfacet
 facet normal  1.000000e+00 -0.000000e+00 -0.000000e+00
   outer loop
     vertex  1.400000e+00  1.025000e+00  1.980000e+00
     vertex  1.400000e+00  1.225000e+00  1.780000e+00
     vertex  1.400000e+00  1.209776e+00  1.856537e+00
   endloop
 endfacet
 facet normal  1.000000e+00 -0.000000e+00 -0.000000e+00
   outer loop
     vertex  1.400000e+00  1.025000e+00  1.980000e+00
     vertex  1.400000e+00  1.198205e+00  1.880000e+00
     vertex  1.400000e+00  1.146752e+00  1.938671e+00
   endloop
 endfacet
 facet normal  1.000000e+00 -0.000000e+00 -0.000000e+00
   outer loop
     vertex  1.400000e+00  1.025000e+00  1.980000e+00
     vertex  1.400000e+00  1.146752e+00  1.938671e+00
     vertex  1.400000e+00  1.101537e+00  1.964776e+00
   endloop
 endfacet
 facet normal  1.000000e+00  0.000000e+00  0.000000e+00
   outer loop
     vertex  1.400000e+00 -1.025000e+00  2.000000e-02
     vertex  1.400000e+00  1.025000e+00  2.000000e-02
     vertex  1.400000e+00  1.025000e+00  1.980000e+00
   endloop
 endfacet
 facet normal  1.000000e+00  0.000000e+00  0.000000e+00
   outer loop
     vertex  1.400000e+00 -1.076764e+00  2.681483e-02
     vertex  1.400000e+00 -1.051105e+00  2.171103e-02
     vertex  1.400000e+00 -1.025000e+00  2.000000e-02
   endloop
 endfacet
 facet normal  1.000000e+00  0.000000e+00  0.000000e+00
   outer loop
     vertex  1.400000e+00 -1.101537e+00  3.522409e-02
     vertex  1.400000e+00 -1.076764e+00  2.681483e-02
     vertex  1.400000e+00 -1.025000e+00  2.000000e-02
   endloop
 endfacet
 facet normal  1.000000e+00  0.000000e+00  0.000000e+00
   outer loop
     vertex  1.400000e+00 -1.125000e+00  4.679492e-02
     vertex  1.400000e+00 -1.101537e+00  3.522409e-02
     vertex  1.400000e+00 -1.025000e+00  2.000000e-02
   endloop
 endfacet
 facet normal  1.000000e+00  0.000000e+00  0.000000e+00
   outer loop
     vertex  1.400000e+00 -1.146752e+00  6.132933e-02
     vertex  1.400000e+00 -1.125000e+00  4.679492e-02
     vertex  1.400000e+00 -1.025000e+00  2.000000e-02
   endloop
 endfacet
 facet normal  1.000000e+00  0.000000e+00  0.000000e+00
   outer loop
     vertex  1.400000e+00 -1.166421e+00  7.857864e-02
     vertex  1.400000e+00 -1.146752e+00  6.132933e-02
     vertex  1.400000e+00 -1.025000e+00  2.000000e-02
   endloop
 endfacet
 facet normal  1.000000e+00  0.000000e+00  0.000000e+00
   outer loop
     vertex  1.400000e+00 -1.209776e+00  1.434633e-01
     vertex  1.400000e+00 -1.198205e+00  1.200000e-01
     vertex  1.400000e+00 -1.183671e+00  9.824771e-02
   endloop
 endfacet
 facet normal  1.000000e+00  0.000000e+00  0.000000e+00
   outer loop
     vertex  1.400000e+00 -1.209776e+00  1.434633e-01
     vertex  1.400000e+00 -1.183671e+00  9.824771e-02
     vertex  1.400000e+00 -1.166421e+00  7.857864e-02
   endloop
 endfacet
 facet normal  1.000000e+00  0.000000e+00  0.000000e+00
   outer loop
     vertex  1.400000e+00 -1.209776e+00  1.434633e-01
     vertex  1.400000e+00 -1.166421e+00  7.857864e-02
     vertex  1.400000e+00 -1.025000e+00  2.000000e-02
   endloop
 endfacet
endsolid
