G04 #@! TF.GenerationSoftware,KiCad,Pcbnew,5.1.4-e60b266~84~ubuntu19.04.1*
G04 #@! TF.CreationDate,2019-10-22T08:35:31-04:00*
G04 #@! TF.ProjectId,Forward_acceleration_board,466f7277-6172-4645-9f61-6363656c6572,rev?*
G04 #@! TF.SameCoordinates,Original*
G04 #@! TF.FileFunction,Soldermask,Top*
G04 #@! TF.FilePolarity,Negative*
%FSLAX46Y46*%
G04 Gerber Fmt 4.6, Leading zero omitted, Abs format (unit mm)*
G04 Created by KiCad (PCBNEW 5.1.4-e60b266~84~ubuntu19.04.1) date 2019-10-22 08:35:31*
%MOMM*%
%LPD*%
G04 APERTURE LIST*
%ADD10C,0.100000*%
G04 APERTURE END LIST*
D10*
G36*
X262191000Y-259491000D02*
G01*
X261089000Y-259491000D01*
X261089000Y-255889000D01*
X262191000Y-255889000D01*
X262191000Y-259491000D01*
X262191000Y-259491000D01*
G37*
G36*
X259651000Y-259491000D02*
G01*
X258549000Y-259491000D01*
X258549000Y-255889000D01*
X259651000Y-255889000D01*
X259651000Y-259491000D01*
X259651000Y-259491000D01*
G37*
G36*
X107531000Y-259491000D02*
G01*
X106429000Y-259491000D01*
X106429000Y-255889000D01*
X107531000Y-255889000D01*
X107531000Y-259491000D01*
X107531000Y-259491000D01*
G37*
G36*
X109801000Y-259491000D02*
G01*
X108699000Y-259491000D01*
X108699000Y-255889000D01*
X109801000Y-255889000D01*
X109801000Y-259491000D01*
X109801000Y-259491000D01*
G37*
G36*
X92742007Y-188913582D02*
G01*
X93118423Y-189069499D01*
X93142565Y-189079499D01*
X93503056Y-189320371D01*
X93809629Y-189626944D01*
X94050501Y-189987435D01*
X94050502Y-189987437D01*
X94216418Y-190387993D01*
X94301000Y-190813219D01*
X94301000Y-191246781D01*
X94216418Y-191672007D01*
X94058786Y-192052563D01*
X94050501Y-192072565D01*
X93809629Y-192433056D01*
X93503056Y-192739629D01*
X93142565Y-192980501D01*
X93142564Y-192980502D01*
X93142563Y-192980502D01*
X92742007Y-193146418D01*
X92316781Y-193231000D01*
X91883219Y-193231000D01*
X91457993Y-193146418D01*
X91057437Y-192980502D01*
X91057436Y-192980502D01*
X91057435Y-192980501D01*
X90696944Y-192739629D01*
X90390371Y-192433056D01*
X90149499Y-192072565D01*
X90141214Y-192052563D01*
X89983582Y-191672007D01*
X89899000Y-191246781D01*
X89899000Y-190813219D01*
X89983582Y-190387993D01*
X90149498Y-189987437D01*
X90149499Y-189987435D01*
X90390371Y-189626944D01*
X90696944Y-189320371D01*
X91057435Y-189079499D01*
X91081577Y-189069499D01*
X91457993Y-188913582D01*
X91883219Y-188829000D01*
X92316781Y-188829000D01*
X92742007Y-188913582D01*
X92742007Y-188913582D01*
G37*
G36*
X276892007Y-188903582D02*
G01*
X277268423Y-189059499D01*
X277292565Y-189069499D01*
X277653056Y-189310371D01*
X277959629Y-189616944D01*
X278200501Y-189977435D01*
X278200502Y-189977437D01*
X278366418Y-190377993D01*
X278451000Y-190803219D01*
X278451000Y-191236781D01*
X278366418Y-191662007D01*
X278362275Y-191672008D01*
X278200501Y-192062565D01*
X277959629Y-192423056D01*
X277653056Y-192729629D01*
X277292565Y-192970501D01*
X277292564Y-192970502D01*
X277292563Y-192970502D01*
X276892007Y-193136418D01*
X276466781Y-193221000D01*
X276033219Y-193221000D01*
X275607993Y-193136418D01*
X275207437Y-192970502D01*
X275207436Y-192970502D01*
X275207435Y-192970501D01*
X274846944Y-192729629D01*
X274540371Y-192423056D01*
X274299499Y-192062565D01*
X274137725Y-191672008D01*
X274133582Y-191662007D01*
X274049000Y-191236781D01*
X274049000Y-190803219D01*
X274133582Y-190377993D01*
X274299498Y-189977437D01*
X274299499Y-189977435D01*
X274540371Y-189616944D01*
X274846944Y-189310371D01*
X275207435Y-189069499D01*
X275231577Y-189059499D01*
X275607993Y-188903582D01*
X276033219Y-188819000D01*
X276466781Y-188819000D01*
X276892007Y-188903582D01*
X276892007Y-188903582D01*
G37*
G36*
X124472007Y-188903582D02*
G01*
X124848423Y-189059499D01*
X124872565Y-189069499D01*
X125233056Y-189310371D01*
X125539629Y-189616944D01*
X125780501Y-189977435D01*
X125780502Y-189977437D01*
X125946418Y-190377993D01*
X126031000Y-190803219D01*
X126031000Y-191236781D01*
X125946418Y-191662007D01*
X125942275Y-191672008D01*
X125780501Y-192062565D01*
X125539629Y-192423056D01*
X125233056Y-192729629D01*
X124872565Y-192970501D01*
X124872564Y-192970502D01*
X124872563Y-192970502D01*
X124472007Y-193136418D01*
X124046781Y-193221000D01*
X123613219Y-193221000D01*
X123187993Y-193136418D01*
X122787437Y-192970502D01*
X122787436Y-192970502D01*
X122787435Y-192970501D01*
X122426944Y-192729629D01*
X122120371Y-192423056D01*
X121879499Y-192062565D01*
X121717725Y-191672008D01*
X121713582Y-191662007D01*
X121629000Y-191236781D01*
X121629000Y-190803219D01*
X121713582Y-190377993D01*
X121879498Y-189977437D01*
X121879499Y-189977435D01*
X122120371Y-189616944D01*
X122426944Y-189310371D01*
X122787435Y-189069499D01*
X122811577Y-189059499D01*
X123187993Y-188903582D01*
X123613219Y-188819000D01*
X124046781Y-188819000D01*
X124472007Y-188903582D01*
X124472007Y-188903582D01*
G37*
G36*
X245142007Y-188893582D02*
G01*
X245542563Y-189059498D01*
X245542565Y-189059499D01*
X245903056Y-189300371D01*
X246209629Y-189606944D01*
X246222993Y-189626945D01*
X246450502Y-189967437D01*
X246616418Y-190367993D01*
X246701000Y-190793219D01*
X246701000Y-191226781D01*
X246616418Y-191652007D01*
X246608133Y-191672008D01*
X246450501Y-192052565D01*
X246209629Y-192413056D01*
X245903056Y-192719629D01*
X245542565Y-192960501D01*
X245542564Y-192960502D01*
X245542563Y-192960502D01*
X245142007Y-193126418D01*
X244716781Y-193211000D01*
X244283219Y-193211000D01*
X243857993Y-193126418D01*
X243457437Y-192960502D01*
X243457436Y-192960502D01*
X243457435Y-192960501D01*
X243096944Y-192719629D01*
X242790371Y-192413056D01*
X242549499Y-192052565D01*
X242391867Y-191672008D01*
X242383582Y-191652007D01*
X242299000Y-191226781D01*
X242299000Y-190793219D01*
X242383582Y-190367993D01*
X242549498Y-189967437D01*
X242777007Y-189626945D01*
X242790371Y-189606944D01*
X243096944Y-189300371D01*
X243457435Y-189059499D01*
X243457437Y-189059498D01*
X243857993Y-188893582D01*
X244283219Y-188809000D01*
X244716781Y-188809000D01*
X245142007Y-188893582D01*
X245142007Y-188893582D01*
G37*
G36*
X107276000Y-185211000D02*
G01*
X106174000Y-185211000D01*
X106174000Y-181609000D01*
X107276000Y-181609000D01*
X107276000Y-185211000D01*
X107276000Y-185211000D01*
G37*
G36*
X259651000Y-185211000D02*
G01*
X258549000Y-185211000D01*
X258549000Y-181609000D01*
X259651000Y-181609000D01*
X259651000Y-185211000D01*
X259651000Y-185211000D01*
G37*
G36*
X109801000Y-185211000D02*
G01*
X108699000Y-185211000D01*
X108699000Y-181609000D01*
X109801000Y-181609000D01*
X109801000Y-185211000D01*
X109801000Y-185211000D01*
G37*
G36*
X262191000Y-185211000D02*
G01*
X261089000Y-185211000D01*
X261089000Y-181609000D01*
X262191000Y-181609000D01*
X262191000Y-185211000D01*
X262191000Y-185211000D01*
G37*
G36*
X259651000Y-110931000D02*
G01*
X258549000Y-110931000D01*
X258549000Y-107329000D01*
X259651000Y-107329000D01*
X259651000Y-110931000D01*
X259651000Y-110931000D01*
G37*
G36*
X262191000Y-110931000D02*
G01*
X261089000Y-110931000D01*
X261089000Y-107329000D01*
X262191000Y-107329000D01*
X262191000Y-110931000D01*
X262191000Y-110931000D01*
G37*
G36*
X107311000Y-110931000D02*
G01*
X106209000Y-110931000D01*
X106209000Y-107329000D01*
X107311000Y-107329000D01*
X107311000Y-110931000D01*
X107311000Y-110931000D01*
G37*
G36*
X109851000Y-110931000D02*
G01*
X108749000Y-110931000D01*
X108749000Y-107329000D01*
X109851000Y-107329000D01*
X109851000Y-110931000D01*
X109851000Y-110931000D01*
G37*
G36*
X92762007Y-100033582D02*
G01*
X93138423Y-100189499D01*
X93162565Y-100199499D01*
X93523056Y-100440371D01*
X93829629Y-100746944D01*
X94070501Y-101107435D01*
X94070502Y-101107437D01*
X94236418Y-101507993D01*
X94321000Y-101933219D01*
X94321000Y-102366781D01*
X94236418Y-102792007D01*
X94074644Y-103182563D01*
X94070501Y-103192565D01*
X93829629Y-103553056D01*
X93523056Y-103859629D01*
X93162565Y-104100501D01*
X93162564Y-104100502D01*
X93162563Y-104100502D01*
X92762007Y-104266418D01*
X92336781Y-104351000D01*
X91903219Y-104351000D01*
X91477993Y-104266418D01*
X91077437Y-104100502D01*
X91077436Y-104100502D01*
X91077435Y-104100501D01*
X90716944Y-103859629D01*
X90410371Y-103553056D01*
X90169499Y-103192565D01*
X90165356Y-103182563D01*
X90003582Y-102792007D01*
X89919000Y-102366781D01*
X89919000Y-101933219D01*
X90003582Y-101507993D01*
X90169498Y-101107437D01*
X90169499Y-101107435D01*
X90410371Y-100746944D01*
X90716944Y-100440371D01*
X91077435Y-100199499D01*
X91101577Y-100189499D01*
X91477993Y-100033582D01*
X91903219Y-99949000D01*
X92336781Y-99949000D01*
X92762007Y-100033582D01*
X92762007Y-100033582D01*
G37*
G36*
X245142007Y-100023582D02*
G01*
X245494281Y-100169499D01*
X245542565Y-100189499D01*
X245903056Y-100430371D01*
X246209629Y-100736944D01*
X246450501Y-101097435D01*
X246450502Y-101097437D01*
X246616418Y-101497993D01*
X246701000Y-101923219D01*
X246701000Y-102356781D01*
X246616418Y-102782007D01*
X246467070Y-103142565D01*
X246450501Y-103182565D01*
X246209629Y-103543056D01*
X245903056Y-103849629D01*
X245542565Y-104090501D01*
X245542564Y-104090502D01*
X245542563Y-104090502D01*
X245142007Y-104256418D01*
X244716781Y-104341000D01*
X244283219Y-104341000D01*
X243857993Y-104256418D01*
X243457437Y-104090502D01*
X243457436Y-104090502D01*
X243457435Y-104090501D01*
X243096944Y-103849629D01*
X242790371Y-103543056D01*
X242549499Y-103182565D01*
X242532930Y-103142565D01*
X242383582Y-102782007D01*
X242299000Y-102356781D01*
X242299000Y-101923219D01*
X242383582Y-101497993D01*
X242549498Y-101097437D01*
X242549499Y-101097435D01*
X242790371Y-100736944D01*
X243096944Y-100430371D01*
X243457435Y-100189499D01*
X243505719Y-100169499D01*
X243857993Y-100023582D01*
X244283219Y-99939000D01*
X244716781Y-99939000D01*
X245142007Y-100023582D01*
X245142007Y-100023582D01*
G37*
G36*
X276902007Y-100003582D02*
G01*
X277254281Y-100149499D01*
X277302565Y-100169499D01*
X277663056Y-100410371D01*
X277969629Y-100716944D01*
X278210501Y-101077435D01*
X278210502Y-101077437D01*
X278376418Y-101477993D01*
X278461000Y-101903219D01*
X278461000Y-102336781D01*
X278376418Y-102762007D01*
X278363991Y-102792008D01*
X278210501Y-103162565D01*
X277969629Y-103523056D01*
X277663056Y-103829629D01*
X277302565Y-104070501D01*
X277302564Y-104070502D01*
X277302563Y-104070502D01*
X276902007Y-104236418D01*
X276476781Y-104321000D01*
X276043219Y-104321000D01*
X275617993Y-104236418D01*
X275217437Y-104070502D01*
X275217436Y-104070502D01*
X275217435Y-104070501D01*
X274856944Y-103829629D01*
X274550371Y-103523056D01*
X274309499Y-103162565D01*
X274156009Y-102792008D01*
X274143582Y-102762007D01*
X274059000Y-102336781D01*
X274059000Y-101903219D01*
X274143582Y-101477993D01*
X274309498Y-101077437D01*
X274309499Y-101077435D01*
X274550371Y-100716944D01*
X274856944Y-100410371D01*
X275217435Y-100169499D01*
X275265719Y-100149499D01*
X275617993Y-100003582D01*
X276043219Y-99919000D01*
X276476781Y-99919000D01*
X276902007Y-100003582D01*
X276902007Y-100003582D01*
G37*
G36*
X124512007Y-99983582D02*
G01*
X124912563Y-100149498D01*
X124912565Y-100149499D01*
X125273056Y-100390371D01*
X125579629Y-100696944D01*
X125820501Y-101057435D01*
X125820502Y-101057437D01*
X125986418Y-101457993D01*
X126071000Y-101883219D01*
X126071000Y-102316781D01*
X125986418Y-102742007D01*
X125820502Y-103142563D01*
X125820501Y-103142565D01*
X125579629Y-103503056D01*
X125273056Y-103809629D01*
X124912565Y-104050501D01*
X124912564Y-104050502D01*
X124912563Y-104050502D01*
X124512007Y-104216418D01*
X124086781Y-104301000D01*
X123653219Y-104301000D01*
X123227993Y-104216418D01*
X122827437Y-104050502D01*
X122827436Y-104050502D01*
X122827435Y-104050501D01*
X122466944Y-103809629D01*
X122160371Y-103503056D01*
X121919499Y-103142565D01*
X121919498Y-103142563D01*
X121753582Y-102742007D01*
X121669000Y-102316781D01*
X121669000Y-101883219D01*
X121753582Y-101457993D01*
X121919498Y-101057437D01*
X121919499Y-101057435D01*
X122160371Y-100696944D01*
X122466944Y-100390371D01*
X122827435Y-100149499D01*
X122827437Y-100149498D01*
X123227993Y-99983582D01*
X123653219Y-99899000D01*
X124086781Y-99899000D01*
X124512007Y-99983582D01*
X124512007Y-99983582D01*
G37*
G36*
X181651000Y-79451000D02*
G01*
X180549000Y-79451000D01*
X180549000Y-75849000D01*
X181651000Y-75849000D01*
X181651000Y-79451000D01*
X181651000Y-79451000D01*
G37*
G36*
X178201000Y-79451000D02*
G01*
X177099000Y-79451000D01*
X177099000Y-75849000D01*
X178201000Y-75849000D01*
X178201000Y-79451000D01*
X178201000Y-79451000D01*
G37*
G36*
X158026000Y-78951000D02*
G01*
X156924000Y-78951000D01*
X156924000Y-77949000D01*
X158026000Y-77949000D01*
X158026000Y-78951000D01*
X158026000Y-78951000D01*
G37*
G36*
X159461000Y-78511000D02*
G01*
X158739000Y-78511000D01*
X158739000Y-76889000D01*
X159461000Y-76889000D01*
X159461000Y-78511000D01*
X159461000Y-78511000D01*
G37*
G36*
X163601000Y-77576000D02*
G01*
X162599000Y-77576000D01*
X162599000Y-76474000D01*
X163601000Y-76474000D01*
X163601000Y-77576000D01*
X163601000Y-77576000D01*
G37*
G36*
X165201000Y-77576000D02*
G01*
X164199000Y-77576000D01*
X164199000Y-76474000D01*
X165201000Y-76474000D01*
X165201000Y-77576000D01*
X165201000Y-77576000D01*
G37*
G36*
X158026000Y-77351000D02*
G01*
X156924000Y-77351000D01*
X156924000Y-76349000D01*
X158026000Y-76349000D01*
X158026000Y-77351000D01*
X158026000Y-77351000D01*
G37*
G36*
X147126000Y-77226000D02*
G01*
X146124000Y-77226000D01*
X146124000Y-76124000D01*
X147126000Y-76124000D01*
X147126000Y-77226000D01*
X147126000Y-77226000D01*
G37*
G36*
X145526000Y-77226000D02*
G01*
X144524000Y-77226000D01*
X144524000Y-76124000D01*
X145526000Y-76124000D01*
X145526000Y-77226000D01*
X145526000Y-77226000D01*
G37*
G36*
X150121000Y-76341000D02*
G01*
X149019000Y-76341000D01*
X149019000Y-75339000D01*
X150121000Y-75339000D01*
X150121000Y-76341000D01*
X150121000Y-76341000D01*
G37*
G36*
X162459000Y-75817000D02*
G01*
X161457000Y-75817000D01*
X161457000Y-74715000D01*
X162459000Y-74715000D01*
X162459000Y-75817000D01*
X162459000Y-75817000D01*
G37*
G36*
X164059000Y-75817000D02*
G01*
X163057000Y-75817000D01*
X163057000Y-74715000D01*
X164059000Y-74715000D01*
X164059000Y-75817000D01*
X164059000Y-75817000D01*
G37*
G36*
X166523000Y-75817000D02*
G01*
X165521000Y-75817000D01*
X165521000Y-74715000D01*
X166523000Y-74715000D01*
X166523000Y-75817000D01*
X166523000Y-75817000D01*
G37*
G36*
X168123000Y-75817000D02*
G01*
X167121000Y-75817000D01*
X167121000Y-74715000D01*
X168123000Y-74715000D01*
X168123000Y-75817000D01*
X168123000Y-75817000D01*
G37*
G36*
X145501000Y-75626000D02*
G01*
X144499000Y-75626000D01*
X144499000Y-74524000D01*
X145501000Y-74524000D01*
X145501000Y-75626000D01*
X145501000Y-75626000D01*
G37*
G36*
X147101000Y-75626000D02*
G01*
X146099000Y-75626000D01*
X146099000Y-74524000D01*
X147101000Y-74524000D01*
X147101000Y-75626000D01*
X147101000Y-75626000D01*
G37*
G36*
X158926000Y-75511000D02*
G01*
X157324000Y-75511000D01*
X157324000Y-74759000D01*
X158926000Y-74759000D01*
X158926000Y-75511000D01*
X158926000Y-75511000D01*
G37*
G36*
X153526000Y-75511000D02*
G01*
X151924000Y-75511000D01*
X151924000Y-74759000D01*
X153526000Y-74759000D01*
X153526000Y-75511000D01*
X153526000Y-75511000D01*
G37*
G36*
X151411000Y-75511000D02*
G01*
X150689000Y-75511000D01*
X150689000Y-73889000D01*
X151411000Y-73889000D01*
X151411000Y-75511000D01*
X151411000Y-75511000D01*
G37*
G36*
X150121000Y-74741000D02*
G01*
X149019000Y-74741000D01*
X149019000Y-73739000D01*
X150121000Y-73739000D01*
X150121000Y-74741000D01*
X150121000Y-74741000D01*
G37*
G36*
X158926000Y-74241000D02*
G01*
X157324000Y-74241000D01*
X157324000Y-73489000D01*
X158926000Y-73489000D01*
X158926000Y-74241000D01*
X158926000Y-74241000D01*
G37*
G36*
X153526000Y-74241000D02*
G01*
X151924000Y-74241000D01*
X151924000Y-73489000D01*
X153526000Y-73489000D01*
X153526000Y-74241000D01*
X153526000Y-74241000D01*
G37*
G36*
X145526000Y-74026000D02*
G01*
X144524000Y-74026000D01*
X144524000Y-72924000D01*
X145526000Y-72924000D01*
X145526000Y-74026000D01*
X145526000Y-74026000D01*
G37*
G36*
X147126000Y-74026000D02*
G01*
X146124000Y-74026000D01*
X146124000Y-72924000D01*
X147126000Y-72924000D01*
X147126000Y-74026000D01*
X147126000Y-74026000D01*
G37*
G36*
X223984000Y-73490000D02*
G01*
X222382000Y-73490000D01*
X222382000Y-72738000D01*
X223984000Y-72738000D01*
X223984000Y-73490000D01*
X223984000Y-73490000D01*
G37*
G36*
X229384000Y-73490000D02*
G01*
X227782000Y-73490000D01*
X227782000Y-72738000D01*
X229384000Y-72738000D01*
X229384000Y-73490000D01*
X229384000Y-73490000D01*
G37*
G36*
X153526000Y-72971000D02*
G01*
X151924000Y-72971000D01*
X151924000Y-72219000D01*
X153526000Y-72219000D01*
X153526000Y-72971000D01*
X153526000Y-72971000D01*
G37*
G36*
X158926000Y-72971000D02*
G01*
X157324000Y-72971000D01*
X157324000Y-72219000D01*
X158926000Y-72219000D01*
X158926000Y-72971000D01*
X158926000Y-72971000D01*
G37*
G36*
X223984000Y-72220000D02*
G01*
X222382000Y-72220000D01*
X222382000Y-71468000D01*
X223984000Y-71468000D01*
X223984000Y-72220000D01*
X223984000Y-72220000D01*
G37*
G36*
X229384000Y-72220000D02*
G01*
X227782000Y-72220000D01*
X227782000Y-71468000D01*
X229384000Y-71468000D01*
X229384000Y-72220000D01*
X229384000Y-72220000D01*
G37*
G36*
X148141000Y-72136000D02*
G01*
X146939000Y-72136000D01*
X146939000Y-70564000D01*
X148141000Y-70564000D01*
X148141000Y-72136000D01*
X148141000Y-72136000D01*
G37*
G36*
X149761000Y-72136000D02*
G01*
X148559000Y-72136000D01*
X148559000Y-70564000D01*
X149761000Y-70564000D01*
X149761000Y-72136000D01*
X149761000Y-72136000D01*
G37*
G36*
X161351000Y-72001000D02*
G01*
X160349000Y-72001000D01*
X160349000Y-70899000D01*
X161351000Y-70899000D01*
X161351000Y-72001000D01*
X161351000Y-72001000D01*
G37*
G36*
X162951000Y-72001000D02*
G01*
X161949000Y-72001000D01*
X161949000Y-70899000D01*
X162951000Y-70899000D01*
X162951000Y-72001000D01*
X162951000Y-72001000D01*
G37*
G36*
X153526000Y-71701000D02*
G01*
X151924000Y-71701000D01*
X151924000Y-70949000D01*
X153526000Y-70949000D01*
X153526000Y-71701000D01*
X153526000Y-71701000D01*
G37*
G36*
X158926000Y-71701000D02*
G01*
X157324000Y-71701000D01*
X157324000Y-70949000D01*
X158926000Y-70949000D01*
X158926000Y-71701000D01*
X158926000Y-71701000D01*
G37*
G36*
X215501000Y-71151000D02*
G01*
X214499000Y-71151000D01*
X214499000Y-70049000D01*
X215501000Y-70049000D01*
X215501000Y-71151000D01*
X215501000Y-71151000D01*
G37*
G36*
X213901000Y-71151000D02*
G01*
X212899000Y-71151000D01*
X212899000Y-70049000D01*
X213901000Y-70049000D01*
X213901000Y-71151000D01*
X213901000Y-71151000D01*
G37*
G36*
X223984000Y-70950000D02*
G01*
X222382000Y-70950000D01*
X222382000Y-70198000D01*
X223984000Y-70198000D01*
X223984000Y-70950000D01*
X223984000Y-70950000D01*
G37*
G36*
X229384000Y-70950000D02*
G01*
X227782000Y-70950000D01*
X227782000Y-70198000D01*
X229384000Y-70198000D01*
X229384000Y-70950000D01*
X229384000Y-70950000D01*
G37*
G36*
X158926000Y-70431000D02*
G01*
X157324000Y-70431000D01*
X157324000Y-69679000D01*
X158926000Y-69679000D01*
X158926000Y-70431000D01*
X158926000Y-70431000D01*
G37*
G36*
X153526000Y-70431000D02*
G01*
X151924000Y-70431000D01*
X151924000Y-69679000D01*
X153526000Y-69679000D01*
X153526000Y-70431000D01*
X153526000Y-70431000D01*
G37*
G36*
X162951000Y-70376000D02*
G01*
X161949000Y-70376000D01*
X161949000Y-69274000D01*
X162951000Y-69274000D01*
X162951000Y-70376000D01*
X162951000Y-70376000D01*
G37*
G36*
X161351000Y-70376000D02*
G01*
X160349000Y-70376000D01*
X160349000Y-69274000D01*
X161351000Y-69274000D01*
X161351000Y-70376000D01*
X161351000Y-70376000D01*
G37*
G36*
X220686000Y-70286000D02*
G01*
X219484000Y-70286000D01*
X219484000Y-68714000D01*
X220686000Y-68714000D01*
X220686000Y-70286000D01*
X220686000Y-70286000D01*
G37*
G36*
X219066000Y-70286000D02*
G01*
X217864000Y-70286000D01*
X217864000Y-68714000D01*
X219066000Y-68714000D01*
X219066000Y-70286000D01*
X219066000Y-70286000D01*
G37*
G36*
X146601000Y-70151000D02*
G01*
X145599000Y-70151000D01*
X145599000Y-69049000D01*
X146601000Y-69049000D01*
X146601000Y-70151000D01*
X146601000Y-70151000D01*
G37*
G36*
X145001000Y-70151000D02*
G01*
X143999000Y-70151000D01*
X143999000Y-69049000D01*
X145001000Y-69049000D01*
X145001000Y-70151000D01*
X145001000Y-70151000D01*
G37*
G36*
X223984000Y-69680000D02*
G01*
X222382000Y-69680000D01*
X222382000Y-68928000D01*
X223984000Y-68928000D01*
X223984000Y-69680000D01*
X223984000Y-69680000D01*
G37*
G36*
X229384000Y-69680000D02*
G01*
X227782000Y-69680000D01*
X227782000Y-68928000D01*
X229384000Y-68928000D01*
X229384000Y-69680000D01*
X229384000Y-69680000D01*
G37*
G36*
X151351000Y-69401000D02*
G01*
X150249000Y-69401000D01*
X150249000Y-68399000D01*
X151351000Y-68399000D01*
X151351000Y-69401000D01*
X151351000Y-69401000D01*
G37*
G36*
X215596013Y-69375995D02*
G01*
X214594013Y-69375995D01*
X214594013Y-68273995D01*
X215596013Y-68273995D01*
X215596013Y-69375995D01*
X215596013Y-69375995D01*
G37*
G36*
X213996013Y-69375995D02*
G01*
X212994013Y-69375995D01*
X212994013Y-68273995D01*
X213996013Y-68273995D01*
X213996013Y-69375995D01*
X213996013Y-69375995D01*
G37*
G36*
X149461000Y-69286000D02*
G01*
X148739000Y-69286000D01*
X148739000Y-67664000D01*
X149461000Y-67664000D01*
X149461000Y-69286000D01*
X149461000Y-69286000D01*
G37*
G36*
X153526000Y-69161000D02*
G01*
X151924000Y-69161000D01*
X151924000Y-68409000D01*
X153526000Y-68409000D01*
X153526000Y-69161000D01*
X153526000Y-69161000D01*
G37*
G36*
X158926000Y-69161000D02*
G01*
X157324000Y-69161000D01*
X157324000Y-68409000D01*
X158926000Y-68409000D01*
X158926000Y-69161000D01*
X158926000Y-69161000D01*
G37*
G36*
X180486000Y-69136000D02*
G01*
X178914000Y-69136000D01*
X178914000Y-67934000D01*
X180486000Y-67934000D01*
X180486000Y-69136000D01*
X180486000Y-69136000D01*
G37*
G36*
X163001000Y-68776000D02*
G01*
X161999000Y-68776000D01*
X161999000Y-67674000D01*
X163001000Y-67674000D01*
X163001000Y-68776000D01*
X163001000Y-68776000D01*
G37*
G36*
X161401000Y-68776000D02*
G01*
X160399000Y-68776000D01*
X160399000Y-67674000D01*
X161401000Y-67674000D01*
X161401000Y-68776000D01*
X161401000Y-68776000D01*
G37*
G36*
X146576000Y-68501000D02*
G01*
X145574000Y-68501000D01*
X145574000Y-67399000D01*
X146576000Y-67399000D01*
X146576000Y-68501000D01*
X146576000Y-68501000D01*
G37*
G36*
X144976000Y-68501000D02*
G01*
X143974000Y-68501000D01*
X143974000Y-67399000D01*
X144976000Y-67399000D01*
X144976000Y-68501000D01*
X144976000Y-68501000D01*
G37*
G36*
X229384000Y-68410000D02*
G01*
X227782000Y-68410000D01*
X227782000Y-67658000D01*
X229384000Y-67658000D01*
X229384000Y-68410000D01*
X229384000Y-68410000D01*
G37*
G36*
X223984000Y-68410000D02*
G01*
X222382000Y-68410000D01*
X222382000Y-67658000D01*
X223984000Y-67658000D01*
X223984000Y-68410000D01*
X223984000Y-68410000D01*
G37*
G36*
X158926000Y-67891000D02*
G01*
X157324000Y-67891000D01*
X157324000Y-67139000D01*
X158926000Y-67139000D01*
X158926000Y-67891000D01*
X158926000Y-67891000D01*
G37*
G36*
X153526000Y-67891000D02*
G01*
X151924000Y-67891000D01*
X151924000Y-67139000D01*
X153526000Y-67139000D01*
X153526000Y-67891000D01*
X153526000Y-67891000D01*
G37*
G36*
X151351000Y-67801000D02*
G01*
X150249000Y-67801000D01*
X150249000Y-66799000D01*
X151351000Y-66799000D01*
X151351000Y-67801000D01*
X151351000Y-67801000D01*
G37*
G36*
X187483000Y-67763000D02*
G01*
X186761000Y-67763000D01*
X186761000Y-65841000D01*
X187483000Y-65841000D01*
X187483000Y-67763000D01*
X187483000Y-67763000D01*
G37*
G36*
X190683000Y-67763000D02*
G01*
X189961000Y-67763000D01*
X189961000Y-65841000D01*
X190683000Y-65841000D01*
X190683000Y-67763000D01*
X190683000Y-67763000D01*
G37*
G36*
X213976000Y-67751000D02*
G01*
X212974000Y-67751000D01*
X212974000Y-66649000D01*
X213976000Y-66649000D01*
X213976000Y-67751000D01*
X213976000Y-67751000D01*
G37*
G36*
X215576000Y-67751000D02*
G01*
X214574000Y-67751000D01*
X214574000Y-66649000D01*
X215576000Y-66649000D01*
X215576000Y-67751000D01*
X215576000Y-67751000D01*
G37*
G36*
X180486000Y-67516000D02*
G01*
X178914000Y-67516000D01*
X178914000Y-66314000D01*
X180486000Y-66314000D01*
X180486000Y-67516000D01*
X180486000Y-67516000D01*
G37*
G36*
X220276000Y-67401000D02*
G01*
X219174000Y-67401000D01*
X219174000Y-66399000D01*
X220276000Y-66399000D01*
X220276000Y-67401000D01*
X220276000Y-67401000D01*
G37*
G36*
X229384000Y-67140000D02*
G01*
X227782000Y-67140000D01*
X227782000Y-66388000D01*
X229384000Y-66388000D01*
X229384000Y-67140000D01*
X229384000Y-67140000D01*
G37*
G36*
X223984000Y-67140000D02*
G01*
X222382000Y-67140000D01*
X222382000Y-66388000D01*
X223984000Y-66388000D01*
X223984000Y-67140000D01*
X223984000Y-67140000D01*
G37*
G36*
X146551000Y-66926000D02*
G01*
X145549000Y-66926000D01*
X145549000Y-65824000D01*
X146551000Y-65824000D01*
X146551000Y-66926000D01*
X146551000Y-66926000D01*
G37*
G36*
X144951000Y-66926000D02*
G01*
X143949000Y-66926000D01*
X143949000Y-65824000D01*
X144951000Y-65824000D01*
X144951000Y-66926000D01*
X144951000Y-66926000D01*
G37*
G36*
X221661000Y-66911000D02*
G01*
X220939000Y-66911000D01*
X220939000Y-65289000D01*
X221661000Y-65289000D01*
X221661000Y-66911000D01*
X221661000Y-66911000D01*
G37*
G36*
X161776000Y-66561000D02*
G01*
X160154000Y-66561000D01*
X160154000Y-65839000D01*
X161776000Y-65839000D01*
X161776000Y-66561000D01*
X161776000Y-66561000D01*
G37*
G36*
X223984000Y-65870000D02*
G01*
X222382000Y-65870000D01*
X222382000Y-65118000D01*
X223984000Y-65118000D01*
X223984000Y-65870000D01*
X223984000Y-65870000D01*
G37*
G36*
X229384000Y-65870000D02*
G01*
X227782000Y-65870000D01*
X227782000Y-65118000D01*
X229384000Y-65118000D01*
X229384000Y-65870000D01*
X229384000Y-65870000D01*
G37*
G36*
X220276000Y-65801000D02*
G01*
X219174000Y-65801000D01*
X219174000Y-64799000D01*
X220276000Y-64799000D01*
X220276000Y-65801000D01*
X220276000Y-65801000D01*
G37*
G36*
X185946015Y-65517747D02*
G01*
X178044015Y-65517747D01*
X178044015Y-63940747D01*
X185946015Y-63940747D01*
X185946015Y-65517747D01*
X185946015Y-65517747D01*
G37*
G36*
X189417000Y-65515000D02*
G01*
X188215000Y-65515000D01*
X188215000Y-63943000D01*
X189417000Y-63943000D01*
X189417000Y-65515000D01*
X189417000Y-65515000D01*
G37*
G36*
X187797000Y-65515000D02*
G01*
X186595000Y-65515000D01*
X186595000Y-63943000D01*
X187797000Y-63943000D01*
X187797000Y-65515000D01*
X187797000Y-65515000D01*
G37*
G36*
X160626000Y-65251000D02*
G01*
X159624000Y-65251000D01*
X159624000Y-64149000D01*
X160626000Y-64149000D01*
X160626000Y-65251000D01*
X160626000Y-65251000D01*
G37*
G36*
X162226000Y-65251000D02*
G01*
X161224000Y-65251000D01*
X161224000Y-64149000D01*
X162226000Y-64149000D01*
X162226000Y-65251000D01*
X162226000Y-65251000D01*
G37*
G36*
X144891000Y-64286000D02*
G01*
X143689000Y-64286000D01*
X143689000Y-62714000D01*
X144891000Y-62714000D01*
X144891000Y-64286000D01*
X144891000Y-64286000D01*
G37*
G36*
X146511000Y-64286000D02*
G01*
X145309000Y-64286000D01*
X145309000Y-62714000D01*
X146511000Y-62714000D01*
X146511000Y-64286000D01*
X146511000Y-64286000D01*
G37*
G36*
X175030000Y-64197000D02*
G01*
X173458000Y-64197000D01*
X173458000Y-62995000D01*
X175030000Y-62995000D01*
X175030000Y-64197000D01*
X175030000Y-64197000D01*
G37*
G36*
X173081000Y-63597000D02*
G01*
X172359000Y-63597000D01*
X172359000Y-61975000D01*
X173081000Y-61975000D01*
X173081000Y-63597000D01*
X173081000Y-63597000D01*
G37*
G36*
X218131000Y-63386000D02*
G01*
X217219000Y-63386000D01*
X217219000Y-60464000D01*
X218131000Y-60464000D01*
X218131000Y-63386000D01*
X218131000Y-63386000D01*
G37*
G36*
X221331000Y-63386000D02*
G01*
X220419000Y-63386000D01*
X220419000Y-60464000D01*
X221331000Y-60464000D01*
X221331000Y-63386000D01*
X221331000Y-63386000D01*
G37*
G36*
X223326000Y-63261000D02*
G01*
X222124000Y-63261000D01*
X222124000Y-61689000D01*
X223326000Y-61689000D01*
X223326000Y-63261000D01*
X223326000Y-63261000D01*
G37*
G36*
X224946000Y-63261000D02*
G01*
X223744000Y-63261000D01*
X223744000Y-61689000D01*
X224946000Y-61689000D01*
X224946000Y-63261000D01*
X224946000Y-63261000D01*
G37*
G36*
X177045515Y-62942247D02*
G01*
X175468515Y-62942247D01*
X175468515Y-55040247D01*
X177045515Y-55040247D01*
X177045515Y-62942247D01*
X177045515Y-62942247D01*
G37*
G36*
X188558126Y-55041611D02*
G01*
X188542581Y-55060553D01*
X188531030Y-55082164D01*
X188523917Y-55105613D01*
X188521515Y-55129999D01*
X188521515Y-62942247D01*
X186944515Y-62942247D01*
X186944515Y-55040247D01*
X188559788Y-55040247D01*
X188558126Y-55041611D01*
X188558126Y-55041611D01*
G37*
G36*
X175030000Y-62577000D02*
G01*
X173458000Y-62577000D01*
X173458000Y-61375000D01*
X175030000Y-61375000D01*
X175030000Y-62577000D01*
X175030000Y-62577000D01*
G37*
G36*
X149201500Y-61851000D02*
G01*
X147624500Y-61851000D01*
X147624500Y-57399000D01*
X149201500Y-57399000D01*
X149201500Y-61851000D01*
X149201500Y-61851000D01*
G37*
G36*
X143325500Y-61851000D02*
G01*
X141748500Y-61851000D01*
X141748500Y-57399000D01*
X143325500Y-57399000D01*
X143325500Y-61851000D01*
X143325500Y-61851000D01*
G37*
G36*
X151476000Y-61326000D02*
G01*
X150474000Y-61326000D01*
X150474000Y-60224000D01*
X151476000Y-60224000D01*
X151476000Y-61326000D01*
X151476000Y-61326000D01*
G37*
G36*
X153076000Y-61326000D02*
G01*
X152074000Y-61326000D01*
X152074000Y-60224000D01*
X153076000Y-60224000D01*
X153076000Y-61326000D01*
X153076000Y-61326000D01*
G37*
G36*
X223925500Y-60751000D02*
G01*
X222348500Y-60751000D01*
X222348500Y-56299000D01*
X223925500Y-56299000D01*
X223925500Y-60751000D01*
X223925500Y-60751000D01*
G37*
G36*
X229801500Y-60751000D02*
G01*
X228224500Y-60751000D01*
X228224500Y-56299000D01*
X229801500Y-56299000D01*
X229801500Y-60751000D01*
X229801500Y-60751000D01*
G37*
G36*
X219251000Y-59976000D02*
G01*
X218249000Y-59976000D01*
X218249000Y-58874000D01*
X219251000Y-58874000D01*
X219251000Y-59976000D01*
X219251000Y-59976000D01*
G37*
G36*
X220851000Y-59976000D02*
G01*
X219849000Y-59976000D01*
X219849000Y-58874000D01*
X220851000Y-58874000D01*
X220851000Y-59976000D01*
X220851000Y-59976000D01*
G37*
G36*
X151441011Y-59745993D02*
G01*
X150439011Y-59745993D01*
X150439011Y-58643993D01*
X151441011Y-58643993D01*
X151441011Y-59745993D01*
X151441011Y-59745993D01*
G37*
G36*
X153041011Y-59745993D02*
G01*
X152039011Y-59745993D01*
X152039011Y-58643993D01*
X153041011Y-58643993D01*
X153041011Y-59745993D01*
X153041011Y-59745993D01*
G37*
G36*
X174131000Y-58698000D02*
G01*
X172929000Y-58698000D01*
X172929000Y-57126000D01*
X174131000Y-57126000D01*
X174131000Y-58698000D01*
X174131000Y-58698000D01*
G37*
G36*
X172511000Y-58698000D02*
G01*
X171309000Y-58698000D01*
X171309000Y-57126000D01*
X172511000Y-57126000D01*
X172511000Y-58698000D01*
X172511000Y-58698000D01*
G37*
G36*
X219251000Y-58401000D02*
G01*
X218249000Y-58401000D01*
X218249000Y-57299000D01*
X219251000Y-57299000D01*
X219251000Y-58401000D01*
X219251000Y-58401000D01*
G37*
G36*
X220851000Y-58401000D02*
G01*
X219849000Y-58401000D01*
X219849000Y-57299000D01*
X220851000Y-57299000D01*
X220851000Y-58401000D01*
X220851000Y-58401000D01*
G37*
G36*
X152711000Y-57456000D02*
G01*
X149789000Y-57456000D01*
X149789000Y-56544000D01*
X152711000Y-56544000D01*
X152711000Y-57456000D01*
X152711000Y-57456000D01*
G37*
G36*
X149261000Y-56861000D02*
G01*
X147689000Y-56861000D01*
X147689000Y-55659000D01*
X149261000Y-55659000D01*
X149261000Y-56861000D01*
X149261000Y-56861000D01*
G37*
G36*
X157201000Y-56576000D02*
G01*
X156099000Y-56576000D01*
X156099000Y-55574000D01*
X157201000Y-55574000D01*
X157201000Y-56576000D01*
X157201000Y-56576000D01*
G37*
G36*
X155601000Y-56401000D02*
G01*
X154499000Y-56401000D01*
X154499000Y-55399000D01*
X155601000Y-55399000D01*
X155601000Y-56401000D01*
X155601000Y-56401000D01*
G37*
G36*
X192985000Y-56241000D02*
G01*
X191063000Y-56241000D01*
X191063000Y-55519000D01*
X192985000Y-55519000D01*
X192985000Y-56241000D01*
X192985000Y-56241000D01*
G37*
G36*
X149261000Y-55241000D02*
G01*
X147689000Y-55241000D01*
X147689000Y-54039000D01*
X149261000Y-54039000D01*
X149261000Y-55241000D01*
X149261000Y-55241000D01*
G37*
G36*
X190270000Y-55005000D02*
G01*
X188659727Y-55005000D01*
X188661389Y-55003636D01*
X188676934Y-54984694D01*
X188688485Y-54963083D01*
X188695598Y-54939634D01*
X188698000Y-54915248D01*
X188698000Y-53803000D01*
X190270000Y-53803000D01*
X190270000Y-55005000D01*
X190270000Y-55005000D01*
G37*
G36*
X157201000Y-54976000D02*
G01*
X156099000Y-54976000D01*
X156099000Y-53974000D01*
X157201000Y-53974000D01*
X157201000Y-54976000D01*
X157201000Y-54976000D01*
G37*
G36*
X159336000Y-54861000D02*
G01*
X158614000Y-54861000D01*
X158614000Y-53239000D01*
X159336000Y-53239000D01*
X159336000Y-54861000D01*
X159336000Y-54861000D01*
G37*
G36*
X229580000Y-54850000D02*
G01*
X228378000Y-54850000D01*
X228378000Y-53278000D01*
X229580000Y-53278000D01*
X229580000Y-54850000D01*
X229580000Y-54850000D01*
G37*
G36*
X227960000Y-54850000D02*
G01*
X226758000Y-54850000D01*
X226758000Y-53278000D01*
X227960000Y-53278000D01*
X227960000Y-54850000D01*
X227960000Y-54850000D01*
G37*
G36*
X155601000Y-54801000D02*
G01*
X154499000Y-54801000D01*
X154499000Y-53799000D01*
X155601000Y-53799000D01*
X155601000Y-54801000D01*
X155601000Y-54801000D01*
G37*
G36*
X161861000Y-54736000D02*
G01*
X160289000Y-54736000D01*
X160289000Y-53534000D01*
X161861000Y-53534000D01*
X161861000Y-54736000D01*
X161861000Y-54736000D01*
G37*
G36*
X163711000Y-54426000D02*
G01*
X162989000Y-54426000D01*
X162989000Y-52804000D01*
X163711000Y-52804000D01*
X163711000Y-54426000D01*
X163711000Y-54426000D01*
G37*
G36*
X175486000Y-54261000D02*
G01*
X173914000Y-54261000D01*
X173914000Y-53059000D01*
X175486000Y-53059000D01*
X175486000Y-54261000D01*
X175486000Y-54261000D01*
G37*
G36*
X152711000Y-54256000D02*
G01*
X149789000Y-54256000D01*
X149789000Y-53344000D01*
X152711000Y-53344000D01*
X152711000Y-54256000D01*
X152711000Y-54256000D01*
G37*
G36*
X185946015Y-54041747D02*
G01*
X178044015Y-54041747D01*
X178044015Y-52464747D01*
X185946015Y-52464747D01*
X185946015Y-54041747D01*
X185946015Y-54041747D01*
G37*
G36*
X190270000Y-53385000D02*
G01*
X188698000Y-53385000D01*
X188698000Y-52183000D01*
X190270000Y-52183000D01*
X190270000Y-53385000D01*
X190270000Y-53385000D01*
G37*
G36*
X161861000Y-53116000D02*
G01*
X160289000Y-53116000D01*
X160289000Y-51914000D01*
X161861000Y-51914000D01*
X161861000Y-53116000D01*
X161861000Y-53116000D01*
G37*
G36*
X192985000Y-53041000D02*
G01*
X191063000Y-53041000D01*
X191063000Y-52319000D01*
X192985000Y-52319000D01*
X192985000Y-53041000D01*
X192985000Y-53041000D01*
G37*
G36*
X158151000Y-51099001D02*
G01*
X158153402Y-51123387D01*
X158160515Y-51146836D01*
X158172066Y-51168447D01*
X158176000Y-51173241D01*
X158176000Y-52176759D01*
X158172066Y-52181553D01*
X158160515Y-52203164D01*
X158153402Y-52226613D01*
X158151000Y-52250999D01*
X158151000Y-52651000D01*
X156249000Y-52651000D01*
X156249000Y-52250999D01*
X156246598Y-52226613D01*
X156239485Y-52203164D01*
X156227934Y-52181553D01*
X156224000Y-52176759D01*
X156224000Y-51275999D01*
X156676000Y-51275999D01*
X156676000Y-52074001D01*
X156678402Y-52098387D01*
X156685515Y-52121836D01*
X156697066Y-52143447D01*
X156712611Y-52162389D01*
X156731553Y-52177934D01*
X156753164Y-52189485D01*
X156776613Y-52196598D01*
X156800999Y-52199000D01*
X157599001Y-52199000D01*
X157623387Y-52196598D01*
X157646836Y-52189485D01*
X157668447Y-52177934D01*
X157687389Y-52162389D01*
X157702934Y-52143447D01*
X157714485Y-52121836D01*
X157721598Y-52098387D01*
X157724000Y-52074001D01*
X157724000Y-51275999D01*
X157721598Y-51251613D01*
X157714485Y-51228164D01*
X157702934Y-51206553D01*
X157687389Y-51187611D01*
X157668447Y-51172066D01*
X157646836Y-51160515D01*
X157623387Y-51153402D01*
X157599001Y-51151000D01*
X156800999Y-51151000D01*
X156776613Y-51153402D01*
X156753164Y-51160515D01*
X156731553Y-51172066D01*
X156712611Y-51187611D01*
X156697066Y-51206553D01*
X156685515Y-51228164D01*
X156678402Y-51251613D01*
X156676000Y-51275999D01*
X156224000Y-51275999D01*
X156224000Y-51173241D01*
X156227934Y-51168447D01*
X156239485Y-51146836D01*
X156246598Y-51123387D01*
X156249000Y-51099001D01*
X156249000Y-50699000D01*
X158151000Y-50699000D01*
X158151000Y-51099001D01*
X158151000Y-51099001D01*
G37*
G36*
X175486000Y-52641000D02*
G01*
X173914000Y-52641000D01*
X173914000Y-51439000D01*
X175486000Y-51439000D01*
X175486000Y-52641000D01*
X175486000Y-52641000D01*
G37*
G36*
X180624000Y-51151000D02*
G01*
X177702000Y-51151000D01*
X177702000Y-50239000D01*
X180624000Y-50239000D01*
X180624000Y-51151000D01*
X180624000Y-51151000D01*
G37*
G36*
X177224000Y-50631000D02*
G01*
X175652000Y-50631000D01*
X175652000Y-49429000D01*
X177224000Y-49429000D01*
X177224000Y-50631000D01*
X177224000Y-50631000D01*
G37*
G36*
X146736000Y-50311000D02*
G01*
X146014000Y-50311000D01*
X146014000Y-48689000D01*
X146736000Y-48689000D01*
X146736000Y-50311000D01*
X146736000Y-50311000D01*
G37*
G36*
X149426000Y-49551000D02*
G01*
X147574000Y-49551000D01*
X147574000Y-48499000D01*
X149426000Y-48499000D01*
X149426000Y-49551000D01*
X149426000Y-49551000D01*
G37*
G36*
X177224000Y-49011000D02*
G01*
X175652000Y-49011000D01*
X175652000Y-47809000D01*
X177224000Y-47809000D01*
X177224000Y-49011000D01*
X177224000Y-49011000D01*
G37*
G36*
X155726000Y-48376000D02*
G01*
X153874000Y-48376000D01*
X153874000Y-45074000D01*
X155726000Y-45074000D01*
X155726000Y-48376000D01*
X155726000Y-48376000D01*
G37*
G36*
X180624000Y-47951000D02*
G01*
X177702000Y-47951000D01*
X177702000Y-47039000D01*
X180624000Y-47039000D01*
X180624000Y-47951000D01*
X180624000Y-47951000D01*
G37*
G36*
X149426000Y-47251000D02*
G01*
X147574000Y-47251000D01*
X147574000Y-46199000D01*
X149426000Y-46199000D01*
X149426000Y-47251000D01*
X149426000Y-47251000D01*
G37*
G36*
X146871000Y-47061000D02*
G01*
X145249000Y-47061000D01*
X145249000Y-46339000D01*
X146871000Y-46339000D01*
X146871000Y-47061000D01*
X146871000Y-47061000D01*
G37*
G36*
X149426000Y-44951000D02*
G01*
X147574000Y-44951000D01*
X147574000Y-43899000D01*
X149426000Y-43899000D01*
X149426000Y-44951000D01*
X149426000Y-44951000D01*
G37*
G36*
X187273000Y-44501000D02*
G01*
X186171000Y-44501000D01*
X186171000Y-41699000D01*
X187273000Y-41699000D01*
X187273000Y-44501000D01*
X187273000Y-44501000D01*
G37*
G36*
X191273000Y-44501000D02*
G01*
X190171000Y-44501000D01*
X190171000Y-41699000D01*
X191273000Y-41699000D01*
X191273000Y-44501000D01*
X191273000Y-44501000D01*
G37*
G36*
X189273000Y-44501000D02*
G01*
X188171000Y-44501000D01*
X188171000Y-41699000D01*
X189273000Y-41699000D01*
X189273000Y-44501000D01*
X189273000Y-44501000D01*
G37*
G36*
X185273000Y-44501000D02*
G01*
X184171000Y-44501000D01*
X184171000Y-41699000D01*
X185273000Y-41699000D01*
X185273000Y-44501000D01*
X185273000Y-44501000D01*
G37*
G36*
X193273000Y-44501000D02*
G01*
X192171000Y-44501000D01*
X192171000Y-41699000D01*
X193273000Y-41699000D01*
X193273000Y-44501000D01*
X193273000Y-44501000D01*
G37*
G36*
X137151000Y-43301000D02*
G01*
X136049000Y-43301000D01*
X136049000Y-40499000D01*
X137151000Y-40499000D01*
X137151000Y-43301000D01*
X137151000Y-43301000D01*
G37*
G36*
X141151000Y-43301000D02*
G01*
X140049000Y-43301000D01*
X140049000Y-40499000D01*
X141151000Y-40499000D01*
X141151000Y-43301000D01*
X141151000Y-43301000D01*
G37*
G36*
X143151000Y-43301000D02*
G01*
X142049000Y-43301000D01*
X142049000Y-40499000D01*
X143151000Y-40499000D01*
X143151000Y-43301000D01*
X143151000Y-43301000D01*
G37*
G36*
X139151000Y-43301000D02*
G01*
X138049000Y-43301000D01*
X138049000Y-40499000D01*
X139151000Y-40499000D01*
X139151000Y-43301000D01*
X139151000Y-43301000D01*
G37*
G36*
X196023000Y-40601000D02*
G01*
X194121000Y-40601000D01*
X194121000Y-36699000D01*
X196023000Y-36699000D01*
X196023000Y-40601000D01*
X196023000Y-40601000D01*
G37*
G36*
X183323000Y-40601000D02*
G01*
X181421000Y-40601000D01*
X181421000Y-36699000D01*
X183323000Y-36699000D01*
X183323000Y-40601000D01*
X183323000Y-40601000D01*
G37*
G36*
X135201000Y-39401000D02*
G01*
X133299000Y-39401000D01*
X133299000Y-35499000D01*
X135201000Y-35499000D01*
X135201000Y-39401000D01*
X135201000Y-39401000D01*
G37*
G36*
X145901000Y-39401000D02*
G01*
X143999000Y-39401000D01*
X143999000Y-35499000D01*
X145901000Y-35499000D01*
X145901000Y-39401000D01*
X145901000Y-39401000D01*
G37*
M02*
