G04 #@! TF.GenerationSoftware,KiCad,Pcbnew,5.1.4-e60b266~84~ubuntu19.04.1*
G04 #@! TF.CreationDate,2019-10-22T08:35:31-04:00*
G04 #@! TF.ProjectId,Forward_acceleration_board,466f7277-6172-4645-9f61-6363656c6572,rev?*
G04 #@! TF.SameCoordinates,Original*
G04 #@! TF.FileFunction,Legend,Bot*
G04 #@! TF.FilePolarity,Positive*
%FSLAX46Y46*%
G04 Gerber Fmt 4.6, Leading zero omitted, Abs format (unit mm)*
G04 Created by KiCad (PCBNEW 5.1.4-e60b266~84~ubuntu19.04.1) date 2019-10-22 08:35:31*
%MOMM*%
%LPD*%
G04 APERTURE LIST*
%ADD10C,0.200000*%
%ADD11C,0.254000*%
G04 APERTURE END LIST*
D10*
X220125000Y-74300000D02*
X220125000Y-73650000D01*
X225625000Y-70875000D02*
X226275000Y-70875000D01*
X235150000Y-74275000D02*
X235150000Y-74925000D01*
X220100000Y-72025000D02*
X220100000Y-72675000D01*
X235200000Y-73325000D02*
X235200000Y-72675000D01*
X219275000Y-71050000D02*
X219275000Y-70400000D01*
X235600000Y-71000000D02*
X235600000Y-71650000D01*
X166800000Y-37470000D02*
X165275000Y-37470000D01*
X164925000Y-42500000D02*
X164925000Y-37600000D01*
X161725000Y-42500000D02*
X164925000Y-42500000D01*
X161725000Y-37600000D02*
X161725000Y-42500000D01*
X164925000Y-37600000D02*
X161725000Y-37600000D01*
X231250000Y-72725000D02*
X231900000Y-72725000D01*
D11*
X217461666Y-74514523D02*
X217885000Y-73909761D01*
X218187380Y-74514523D02*
X218187380Y-73244523D01*
X217703571Y-73244523D01*
X217582619Y-73305000D01*
X217522142Y-73365476D01*
X217461666Y-73486428D01*
X217461666Y-73667857D01*
X217522142Y-73788809D01*
X217582619Y-73849285D01*
X217703571Y-73909761D01*
X218187380Y-73909761D01*
X216373095Y-73244523D02*
X216615000Y-73244523D01*
X216735952Y-73305000D01*
X216796428Y-73365476D01*
X216917380Y-73546904D01*
X216977857Y-73788809D01*
X216977857Y-74272619D01*
X216917380Y-74393571D01*
X216856904Y-74454047D01*
X216735952Y-74514523D01*
X216494047Y-74514523D01*
X216373095Y-74454047D01*
X216312619Y-74393571D01*
X216252142Y-74272619D01*
X216252142Y-73970238D01*
X216312619Y-73849285D01*
X216373095Y-73788809D01*
X216494047Y-73728333D01*
X216735952Y-73728333D01*
X216856904Y-73788809D01*
X216917380Y-73849285D01*
X216977857Y-73970238D01*
X226294523Y-73503571D02*
X225689761Y-73080238D01*
X226294523Y-72777857D02*
X225024523Y-72777857D01*
X225024523Y-73261666D01*
X225085000Y-73382619D01*
X225145476Y-73443095D01*
X225266428Y-73503571D01*
X225447857Y-73503571D01*
X225568809Y-73443095D01*
X225629285Y-73382619D01*
X225689761Y-73261666D01*
X225689761Y-72777857D01*
X226294523Y-74713095D02*
X226294523Y-73987380D01*
X226294523Y-74350238D02*
X225024523Y-74350238D01*
X225205952Y-74229285D01*
X225326904Y-74108333D01*
X225387380Y-73987380D01*
X225024523Y-75862142D02*
X225024523Y-75257380D01*
X225629285Y-75196904D01*
X225568809Y-75257380D01*
X225508333Y-75378333D01*
X225508333Y-75680714D01*
X225568809Y-75801666D01*
X225629285Y-75862142D01*
X225750238Y-75922619D01*
X226052619Y-75922619D01*
X226173571Y-75862142D01*
X226234047Y-75801666D01*
X226294523Y-75680714D01*
X226294523Y-75378333D01*
X226234047Y-75257380D01*
X226173571Y-75196904D01*
X239476428Y-75474523D02*
X239899761Y-74869761D01*
X240202142Y-75474523D02*
X240202142Y-74204523D01*
X239718333Y-74204523D01*
X239597380Y-74265000D01*
X239536904Y-74325476D01*
X239476428Y-74446428D01*
X239476428Y-74627857D01*
X239536904Y-74748809D01*
X239597380Y-74809285D01*
X239718333Y-74869761D01*
X240202142Y-74869761D01*
X238266904Y-75474523D02*
X238992619Y-75474523D01*
X238629761Y-75474523D02*
X238629761Y-74204523D01*
X238750714Y-74385952D01*
X238871666Y-74506904D01*
X238992619Y-74567380D01*
X237480714Y-74204523D02*
X237359761Y-74204523D01*
X237238809Y-74265000D01*
X237178333Y-74325476D01*
X237117857Y-74446428D01*
X237057380Y-74688333D01*
X237057380Y-74990714D01*
X237117857Y-75232619D01*
X237178333Y-75353571D01*
X237238809Y-75414047D01*
X237359761Y-75474523D01*
X237480714Y-75474523D01*
X237601666Y-75414047D01*
X237662142Y-75353571D01*
X237722619Y-75232619D01*
X237783095Y-74990714D01*
X237783095Y-74688333D01*
X237722619Y-74446428D01*
X237662142Y-74325476D01*
X237601666Y-74265000D01*
X237480714Y-74204523D01*
X217201666Y-72884523D02*
X217625000Y-72279761D01*
X217927380Y-72884523D02*
X217927380Y-71614523D01*
X217443571Y-71614523D01*
X217322619Y-71675000D01*
X217262142Y-71735476D01*
X217201666Y-71856428D01*
X217201666Y-72037857D01*
X217262142Y-72158809D01*
X217322619Y-72219285D01*
X217443571Y-72279761D01*
X217927380Y-72279761D01*
X216778333Y-71614523D02*
X215931666Y-71614523D01*
X216475952Y-72884523D01*
X239516428Y-73594523D02*
X239939761Y-72989761D01*
X240242142Y-73594523D02*
X240242142Y-72324523D01*
X239758333Y-72324523D01*
X239637380Y-72385000D01*
X239576904Y-72445476D01*
X239516428Y-72566428D01*
X239516428Y-72747857D01*
X239576904Y-72868809D01*
X239637380Y-72929285D01*
X239758333Y-72989761D01*
X240242142Y-72989761D01*
X238306904Y-73594523D02*
X239032619Y-73594523D01*
X238669761Y-73594523D02*
X238669761Y-72324523D01*
X238790714Y-72505952D01*
X238911666Y-72626904D01*
X239032619Y-72687380D01*
X237097380Y-73594523D02*
X237823095Y-73594523D01*
X237460238Y-73594523D02*
X237460238Y-72324523D01*
X237581190Y-72505952D01*
X237702142Y-72626904D01*
X237823095Y-72687380D01*
X216821666Y-71054523D02*
X217245000Y-70449761D01*
X217547380Y-71054523D02*
X217547380Y-69784523D01*
X217063571Y-69784523D01*
X216942619Y-69845000D01*
X216882142Y-69905476D01*
X216821666Y-70026428D01*
X216821666Y-70207857D01*
X216882142Y-70328809D01*
X216942619Y-70389285D01*
X217063571Y-70449761D01*
X217547380Y-70449761D01*
X215672619Y-69784523D02*
X216277380Y-69784523D01*
X216337857Y-70389285D01*
X216277380Y-70328809D01*
X216156428Y-70268333D01*
X215854047Y-70268333D01*
X215733095Y-70328809D01*
X215672619Y-70389285D01*
X215612142Y-70510238D01*
X215612142Y-70812619D01*
X215672619Y-70933571D01*
X215733095Y-70994047D01*
X215854047Y-71054523D01*
X216156428Y-71054523D01*
X216277380Y-70994047D01*
X216337857Y-70933571D01*
X238481666Y-71864523D02*
X238905000Y-71259761D01*
X239207380Y-71864523D02*
X239207380Y-70594523D01*
X238723571Y-70594523D01*
X238602619Y-70655000D01*
X238542142Y-70715476D01*
X238481666Y-70836428D01*
X238481666Y-71017857D01*
X238542142Y-71138809D01*
X238602619Y-71199285D01*
X238723571Y-71259761D01*
X239207380Y-71259761D01*
X237876904Y-71864523D02*
X237635000Y-71864523D01*
X237514047Y-71804047D01*
X237453571Y-71743571D01*
X237332619Y-71562142D01*
X237272142Y-71320238D01*
X237272142Y-70836428D01*
X237332619Y-70715476D01*
X237393095Y-70655000D01*
X237514047Y-70594523D01*
X237755952Y-70594523D01*
X237876904Y-70655000D01*
X237937380Y-70715476D01*
X237997857Y-70836428D01*
X237997857Y-71138809D01*
X237937380Y-71259761D01*
X237876904Y-71320238D01*
X237755952Y-71380714D01*
X237514047Y-71380714D01*
X237393095Y-71320238D01*
X237332619Y-71259761D01*
X237272142Y-71138809D01*
X166213809Y-44403571D02*
X166274285Y-44464047D01*
X166455714Y-44524523D01*
X166576666Y-44524523D01*
X166758095Y-44464047D01*
X166879047Y-44343095D01*
X166939523Y-44222142D01*
X167000000Y-43980238D01*
X167000000Y-43798809D01*
X166939523Y-43556904D01*
X166879047Y-43435952D01*
X166758095Y-43315000D01*
X166576666Y-43254523D01*
X166455714Y-43254523D01*
X166274285Y-43315000D01*
X166213809Y-43375476D01*
X165730000Y-44161666D02*
X165125238Y-44161666D01*
X165850952Y-44524523D02*
X165427619Y-43254523D01*
X165004285Y-44524523D01*
X164580952Y-44524523D02*
X164580952Y-43254523D01*
X163855238Y-44524523D01*
X163855238Y-43254523D01*
X163552857Y-44645476D02*
X162585238Y-44645476D01*
X162464285Y-43254523D02*
X161738571Y-43254523D01*
X162101428Y-44524523D02*
X162101428Y-43254523D01*
X160589523Y-44524523D02*
X161012857Y-43919761D01*
X161315238Y-44524523D02*
X161315238Y-43254523D01*
X160831428Y-43254523D01*
X160710476Y-43315000D01*
X160650000Y-43375476D01*
X160589523Y-43496428D01*
X160589523Y-43677857D01*
X160650000Y-43798809D01*
X160710476Y-43859285D01*
X160831428Y-43919761D01*
X161315238Y-43919761D01*
X159380000Y-44524523D02*
X160105714Y-44524523D01*
X159742857Y-44524523D02*
X159742857Y-43254523D01*
X159863809Y-43435952D01*
X159984761Y-43556904D01*
X160105714Y-43617380D01*
X228303571Y-73088333D02*
X228364047Y-73027857D01*
X228424523Y-72846428D01*
X228424523Y-72725476D01*
X228364047Y-72544047D01*
X228243095Y-72423095D01*
X228122142Y-72362619D01*
X227880238Y-72302142D01*
X227698809Y-72302142D01*
X227456904Y-72362619D01*
X227335952Y-72423095D01*
X227215000Y-72544047D01*
X227154523Y-72725476D01*
X227154523Y-72846428D01*
X227215000Y-73027857D01*
X227275476Y-73088333D01*
X227154523Y-73511666D02*
X227154523Y-74358333D01*
X228424523Y-73814047D01*
X232184523Y-68523571D02*
X231579761Y-68100238D01*
X232184523Y-67797857D02*
X230914523Y-67797857D01*
X230914523Y-68281666D01*
X230975000Y-68402619D01*
X231035476Y-68463095D01*
X231156428Y-68523571D01*
X231337857Y-68523571D01*
X231458809Y-68463095D01*
X231519285Y-68402619D01*
X231579761Y-68281666D01*
X231579761Y-67797857D01*
X231035476Y-69007380D02*
X230975000Y-69067857D01*
X230914523Y-69188809D01*
X230914523Y-69491190D01*
X230975000Y-69612142D01*
X231035476Y-69672619D01*
X231156428Y-69733095D01*
X231277380Y-69733095D01*
X231458809Y-69672619D01*
X232184523Y-68946904D01*
X232184523Y-69733095D01*
X230914523Y-70519285D02*
X230914523Y-70640238D01*
X230975000Y-70761190D01*
X231035476Y-70821666D01*
X231156428Y-70882142D01*
X231398333Y-70942619D01*
X231700714Y-70942619D01*
X231942619Y-70882142D01*
X232063571Y-70821666D01*
X232124047Y-70761190D01*
X232184523Y-70640238D01*
X232184523Y-70519285D01*
X232124047Y-70398333D01*
X232063571Y-70337857D01*
X231942619Y-70277380D01*
X231700714Y-70216904D01*
X231398333Y-70216904D01*
X231156428Y-70277380D01*
X231035476Y-70337857D01*
X230975000Y-70398333D01*
X230914523Y-70519285D01*
X168763571Y-35763571D02*
X168824047Y-35703095D01*
X168884523Y-35521666D01*
X168884523Y-35400714D01*
X168824047Y-35219285D01*
X168703095Y-35098333D01*
X168582142Y-35037857D01*
X168340238Y-34977380D01*
X168158809Y-34977380D01*
X167916904Y-35037857D01*
X167795952Y-35098333D01*
X167675000Y-35219285D01*
X167614523Y-35400714D01*
X167614523Y-35521666D01*
X167675000Y-35703095D01*
X167735476Y-35763571D01*
X167614523Y-36186904D02*
X167614523Y-36973095D01*
X168098333Y-36549761D01*
X168098333Y-36731190D01*
X168158809Y-36852142D01*
X168219285Y-36912619D01*
X168340238Y-36973095D01*
X168642619Y-36973095D01*
X168763571Y-36912619D01*
X168824047Y-36852142D01*
X168884523Y-36731190D01*
X168884523Y-36368333D01*
X168824047Y-36247380D01*
X168763571Y-36186904D01*
X168884523Y-38182619D02*
X168884523Y-37456904D01*
X168884523Y-37819761D02*
X167614523Y-37819761D01*
X167795952Y-37698809D01*
X167916904Y-37577857D01*
X167977380Y-37456904D01*
X233673571Y-70208333D02*
X233734047Y-70147857D01*
X233794523Y-69966428D01*
X233794523Y-69845476D01*
X233734047Y-69664047D01*
X233613095Y-69543095D01*
X233492142Y-69482619D01*
X233250238Y-69422142D01*
X233068809Y-69422142D01*
X232826904Y-69482619D01*
X232705952Y-69543095D01*
X232585000Y-69664047D01*
X232524523Y-69845476D01*
X232524523Y-69966428D01*
X232585000Y-70147857D01*
X232645476Y-70208333D01*
X233068809Y-70934047D02*
X233008333Y-70813095D01*
X232947857Y-70752619D01*
X232826904Y-70692142D01*
X232766428Y-70692142D01*
X232645476Y-70752619D01*
X232585000Y-70813095D01*
X232524523Y-70934047D01*
X232524523Y-71175952D01*
X232585000Y-71296904D01*
X232645476Y-71357380D01*
X232766428Y-71417857D01*
X232826904Y-71417857D01*
X232947857Y-71357380D01*
X233008333Y-71296904D01*
X233068809Y-71175952D01*
X233068809Y-70934047D01*
X233129285Y-70813095D01*
X233189761Y-70752619D01*
X233310714Y-70692142D01*
X233552619Y-70692142D01*
X233673571Y-70752619D01*
X233734047Y-70813095D01*
X233794523Y-70934047D01*
X233794523Y-71175952D01*
X233734047Y-71296904D01*
X233673571Y-71357380D01*
X233552619Y-71417857D01*
X233310714Y-71417857D01*
X233189761Y-71357380D01*
X233129285Y-71296904D01*
X233068809Y-71175952D01*
M02*
