G04 #@! TF.GenerationSoftware,KiCad,Pcbnew,5.1.4-e60b266~84~ubuntu19.04.1*
G04 #@! TF.CreationDate,2019-10-22T08:35:31-04:00*
G04 #@! TF.ProjectId,Forward_acceleration_board,466f7277-6172-4645-9f61-6363656c6572,rev?*
G04 #@! TF.SameCoordinates,Original*
G04 #@! TF.FileFunction,Paste,Top*
G04 #@! TF.FilePolarity,Positive*
%FSLAX46Y46*%
G04 Gerber Fmt 4.6, Leading zero omitted, Abs format (unit mm)*
G04 Created by KiCad (PCBNEW 5.1.4-e60b266~84~ubuntu19.04.1) date 2019-10-22 08:35:31*
%MOMM*%
%LPD*%
G04 APERTURE LIST*
%ADD10R,1.000000X2.700000*%
%ADD11R,1.800000X3.800000*%
%ADD12R,1.470000X1.100000*%
%ADD13R,1.000000X3.500000*%
%ADD14R,1.100000X1.470000*%
%ADD15R,1.000000X0.900000*%
%ADD16R,1.475000X0.450000*%
%ADD17R,0.900000X1.000000*%
%ADD18R,0.350000X0.300000*%
%ADD19R,0.300000X0.350000*%
%ADD20R,0.620000X0.600000*%
%ADD21R,2.820000X0.810000*%
%ADD22R,0.300000X1.475000*%
%ADD23R,1.475000X0.300000*%
%ADD24R,0.810000X2.820000*%
%ADD25R,1.500000X0.650000*%
%ADD26R,0.620000X1.820000*%
%ADD27R,1.820000X0.620000*%
%ADD28R,1.750000X3.200000*%
%ADD29R,1.750000X0.950000*%
%ADD30R,0.600000X0.620000*%
G04 APERTURE END LIST*
D10*
X136600000Y-41900000D03*
X138600000Y-41900000D03*
X140600000Y-41900000D03*
X142600000Y-41900000D03*
D11*
X134250000Y-37450000D03*
X144950000Y-37450000D03*
D12*
X174700000Y-52040000D03*
X174700000Y-53660000D03*
D13*
X181100000Y-77650000D03*
D14*
X224345000Y-62475000D03*
X222725000Y-62475000D03*
D15*
X156650000Y-56075000D03*
X156650000Y-54475000D03*
D13*
X106725000Y-183410000D03*
X261640000Y-257690000D03*
D14*
X171910000Y-57912000D03*
X173530000Y-57912000D03*
D13*
X109250000Y-183410000D03*
X109300000Y-109130000D03*
D16*
X223137000Y-60475000D03*
X223137000Y-59825000D03*
X223137000Y-59175000D03*
X223137000Y-58525000D03*
X223137000Y-57875000D03*
X223137000Y-57225000D03*
X223137000Y-56575000D03*
X229013000Y-56575000D03*
X229013000Y-57225000D03*
X229013000Y-57875000D03*
X229013000Y-58525000D03*
X229013000Y-59175000D03*
X229013000Y-59825000D03*
X229013000Y-60475000D03*
D17*
X162500000Y-68225000D03*
X160900000Y-68225000D03*
D13*
X259100000Y-183410000D03*
D17*
X215095013Y-68824995D03*
X213495013Y-68824995D03*
D18*
X157950000Y-51425000D03*
X157950000Y-51925000D03*
D19*
X157950000Y-52425000D03*
X157450000Y-52425000D03*
X156950000Y-52425000D03*
X156450000Y-52425000D03*
D18*
X156450000Y-51925000D03*
X156450000Y-51425000D03*
D19*
X156450000Y-50925000D03*
X156950000Y-50925000D03*
X157450000Y-50925000D03*
X157950000Y-50925000D03*
D20*
X159100000Y-77240000D03*
X159100000Y-78160000D03*
X149100000Y-68015000D03*
X149100000Y-68935000D03*
D15*
X149570000Y-75840000D03*
X149570000Y-74240000D03*
D12*
X176438000Y-48410000D03*
X176438000Y-50030000D03*
D21*
X151250000Y-53800000D03*
X151250000Y-57000000D03*
D13*
X261640000Y-109130000D03*
D22*
X178245015Y-53253247D03*
X178745015Y-53253247D03*
X179245015Y-53253247D03*
X179745015Y-53253247D03*
X180245015Y-53253247D03*
X180745015Y-53253247D03*
X181245015Y-53253247D03*
X181745015Y-53253247D03*
X182245015Y-53253247D03*
X182745015Y-53253247D03*
X183245015Y-53253247D03*
X183745015Y-53253247D03*
X184245015Y-53253247D03*
X184745015Y-53253247D03*
X185245015Y-53253247D03*
X185745015Y-53253247D03*
D23*
X187733015Y-55241247D03*
X187733015Y-55741247D03*
X187733015Y-56241247D03*
X187733015Y-56741247D03*
X187733015Y-57241247D03*
X187733015Y-57741247D03*
X187733015Y-58241247D03*
X187733015Y-58741247D03*
X187733015Y-59241247D03*
X187733015Y-59741247D03*
X187733015Y-60241247D03*
X187733015Y-60741247D03*
X187733015Y-61241247D03*
X187733015Y-61741247D03*
X187733015Y-62241247D03*
X187733015Y-62741247D03*
D22*
X185745015Y-64729247D03*
X185245015Y-64729247D03*
X184745015Y-64729247D03*
X184245015Y-64729247D03*
X183745015Y-64729247D03*
X183245015Y-64729247D03*
X182745015Y-64729247D03*
X182245015Y-64729247D03*
X181745015Y-64729247D03*
X181245015Y-64729247D03*
X180745015Y-64729247D03*
X180245015Y-64729247D03*
X179745015Y-64729247D03*
X179245015Y-64729247D03*
X178745015Y-64729247D03*
X178245015Y-64729247D03*
D23*
X176257015Y-62741247D03*
X176257015Y-62241247D03*
X176257015Y-61741247D03*
X176257015Y-61241247D03*
X176257015Y-60741247D03*
X176257015Y-60241247D03*
X176257015Y-59741247D03*
X176257015Y-59241247D03*
X176257015Y-58741247D03*
X176257015Y-58241247D03*
X176257015Y-57741247D03*
X176257015Y-57241247D03*
X176257015Y-56741247D03*
X176257015Y-56241247D03*
X176257015Y-55741247D03*
X176257015Y-55241247D03*
D13*
X106760000Y-109130000D03*
D17*
X160125000Y-64700000D03*
X161725000Y-64700000D03*
X152575000Y-60775000D03*
X150975000Y-60775000D03*
D13*
X106980000Y-257690000D03*
D17*
X166022000Y-75266000D03*
X167622000Y-75266000D03*
D15*
X219725000Y-65300000D03*
X219725000Y-66900000D03*
D13*
X261640000Y-183410000D03*
D17*
X218750000Y-57850000D03*
X220350000Y-57850000D03*
X215075000Y-67200000D03*
X213475000Y-67200000D03*
X218750000Y-59425000D03*
X220350000Y-59425000D03*
D13*
X259100000Y-257690000D03*
D17*
X213400000Y-70600000D03*
X215000000Y-70600000D03*
X146050000Y-66375000D03*
X144450000Y-66375000D03*
D13*
X259100000Y-109130000D03*
D17*
X152540011Y-59194993D03*
X150940011Y-59194993D03*
D13*
X177650000Y-77650000D03*
D20*
X146375000Y-49960000D03*
X146375000Y-49040000D03*
D24*
X217675000Y-61925000D03*
X220875000Y-61925000D03*
D17*
X144500000Y-69600000D03*
X146100000Y-69600000D03*
D15*
X150800000Y-67300000D03*
X150800000Y-68900000D03*
D21*
X179163000Y-47495000D03*
X179163000Y-50695000D03*
D17*
X146600000Y-75075000D03*
X145000000Y-75075000D03*
X145025000Y-76675000D03*
X146625000Y-76675000D03*
X162450000Y-71450000D03*
X160850000Y-71450000D03*
D25*
X228583000Y-65494000D03*
X228583000Y-66764000D03*
X228583000Y-68034000D03*
X228583000Y-69304000D03*
X228583000Y-70574000D03*
X228583000Y-71844000D03*
X228583000Y-73114000D03*
X223183000Y-73114000D03*
X223183000Y-71844000D03*
X223183000Y-70574000D03*
X223183000Y-69304000D03*
X223183000Y-68034000D03*
X223183000Y-66764000D03*
X223183000Y-65494000D03*
D12*
X174244000Y-63596000D03*
X174244000Y-61976000D03*
D20*
X172720000Y-63246000D03*
X172720000Y-62326000D03*
D17*
X146625000Y-73475000D03*
X145025000Y-73475000D03*
X161958000Y-75266000D03*
X163558000Y-75266000D03*
X146075000Y-67950000D03*
X144475000Y-67950000D03*
D15*
X157475000Y-76850000D03*
X157475000Y-78450000D03*
D26*
X190322000Y-66802000D03*
X187122000Y-66802000D03*
D14*
X188816000Y-64729000D03*
X187196000Y-64729000D03*
D12*
X189484000Y-52784000D03*
X189484000Y-54404000D03*
D14*
X218465000Y-69500000D03*
X220085000Y-69500000D03*
X227359000Y-54064000D03*
X228979000Y-54064000D03*
X147540000Y-71350000D03*
X149160000Y-71350000D03*
D25*
X158125000Y-67515000D03*
X158125000Y-68785000D03*
X158125000Y-70055000D03*
X158125000Y-71325000D03*
X158125000Y-72595000D03*
X158125000Y-73865000D03*
X158125000Y-75135000D03*
X152725000Y-75135000D03*
X152725000Y-73865000D03*
X152725000Y-72595000D03*
X152725000Y-71325000D03*
X152725000Y-70055000D03*
X152725000Y-68785000D03*
X152725000Y-67515000D03*
D27*
X192024000Y-52680000D03*
X192024000Y-55880000D03*
D13*
X109250000Y-257690000D03*
D14*
X145910000Y-63500000D03*
X144290000Y-63500000D03*
D20*
X158975000Y-54510000D03*
X158975000Y-53590000D03*
D12*
X161075000Y-54135000D03*
X161075000Y-52515000D03*
D28*
X154800000Y-46725000D03*
D29*
X148500000Y-49025000D03*
X148500000Y-46725000D03*
X148500000Y-44425000D03*
D30*
X160505000Y-66200000D03*
X161425000Y-66200000D03*
D20*
X221300000Y-65640000D03*
X221300000Y-66560000D03*
X163350000Y-54075000D03*
X163350000Y-53155000D03*
D12*
X179700000Y-68535000D03*
X179700000Y-66915000D03*
D15*
X155050000Y-55900000D03*
X155050000Y-54300000D03*
D12*
X148475000Y-54640000D03*
X148475000Y-56260000D03*
D17*
X164700000Y-77025000D03*
X163100000Y-77025000D03*
D16*
X148413000Y-57675000D03*
X148413000Y-58325000D03*
X148413000Y-58975000D03*
X148413000Y-59625000D03*
X148413000Y-60275000D03*
X148413000Y-60925000D03*
X148413000Y-61575000D03*
X142537000Y-61575000D03*
X142537000Y-60925000D03*
X142537000Y-60275000D03*
X142537000Y-59625000D03*
X142537000Y-58975000D03*
X142537000Y-58325000D03*
X142537000Y-57675000D03*
D20*
X151050000Y-75160000D03*
X151050000Y-74240000D03*
D30*
X145600000Y-46700000D03*
X146520000Y-46700000D03*
D11*
X195072000Y-38650000D03*
X182372000Y-38650000D03*
D10*
X192722000Y-43100000D03*
X190722000Y-43100000D03*
X188722000Y-43100000D03*
X186722000Y-43100000D03*
X184722000Y-43100000D03*
D17*
X162450000Y-69825000D03*
X160850000Y-69825000D03*
M02*
