M48
; DRILL file {KiCad 5.1.4-e60b266~84~ubuntu19.04.1} date Tue 22 Oct 2019 08:35:20 AM EDT
; FORMAT={-:-/ absolute / inch / decimal}
; #@! TF.CreationDate,2019-10-22T08:35:20-04:00
; #@! TF.GenerationSoftware,Kicad,Pcbnew,5.1.4-e60b266~84~ubuntu19.04.1
; #@! TF.FileFunction,Plated,1,4,PTH
FMAT,2
INCH
T1C0.0157
%
G90
G05
T1
X4.1535Y-7.1305
X4.2118Y-10.0496
X4.2535Y-4.2005
X4.3035Y-4.1976
X4.3396Y-4.7766
X5.3888Y-1.5581
X5.4114Y-3.1323
X5.4606Y-1.561
X5.5305Y-2.313
X5.6171Y-2.502
X5.6339Y-2.6752
X5.6368Y-2.6152
X5.6407Y-2.9508
X5.6457Y-3.0
X5.6645Y-2.434
X5.6801Y-1.749
X5.685Y-2.3839
X5.6939Y-2.7972
X5.72Y-1.96
X5.7224Y-2.3593
X5.7323Y-2.5694
X5.77Y-1.79
X5.813Y-2.7224
X5.8248Y-2.4813
X5.91Y-2.2
X5.939Y-2.8081
X5.9469Y-2.1722
X6.0719Y-2.3819
X6.0758Y-2.3287
X6.0797Y-2.9203
X6.1135Y-2.8105
X6.16Y-2.81
X6.1673Y-2.0955
X6.1713Y-2.5906
X6.2539Y-2.5482
X6.2736Y-2.064
X6.2854Y-2.9596
X6.3258Y-3.0266
X6.3494Y-3.0709
X6.3957Y-2.1299
X6.4163Y-2.8671
X6.4474Y-2.6845
X6.4528Y-2.7864
X6.6821Y-1.6073
X6.686Y-1.5453
X6.7352Y-2.3622
X6.7598Y-2.1798
X6.8022Y-2.4163
X6.81Y-2.06
X6.8275Y-2.5475
X6.8278Y-2.0974
X6.8564Y-2.3627
X6.8881Y-2.3861
X6.9301Y-2.541
X6.9439Y-2.6358
X6.997Y-2.1575
X7.01Y-1.95
X7.0118Y-2.3337
X7.0157Y-2.4656
X7.0276Y-2.189
X7.0338Y-2.4305
X7.0419Y-1.9211
X7.07Y-2.21
X7.08Y-2.04
X7.0827Y-3.0571
X7.14Y-2.64
X7.1644Y-2.1594
X7.1654Y-2.2047
X7.35Y-1.6024
X7.3884Y-2.5724
X7.43Y-1.61
X7.4398Y-2.5749
X7.5102Y-2.1101
X7.55Y-2.13
X7.58Y-1.79
X8.3563Y-2.7067
X8.439Y-2.3091
X8.5413Y-2.7362
X8.5512Y-2.2776
X8.563Y-2.5846
X8.5738Y-2.8701
X8.6319Y-2.4429
X8.7215Y-2.7884
X8.723Y-2.7285
X8.7874Y-2.9281
X8.8346Y-2.628
X8.843Y-2.3485
X8.8445Y-2.8228
X8.8593Y-2.872
X8.8642Y-2.6772
X8.893Y-2.1685
X8.9134Y-2.8799
X8.9262Y-2.3228
X8.9272Y-2.6959
X9.063Y-2.6831
X9.063Y-2.8337
X9.063Y-2.8829
X9.0699Y-2.7795
X9.1093Y-2.5778
X9.1644Y-2.6467
X9.312Y-2.6535
X9.3327Y-2.938
X9.3376Y-2.876
X9.9035Y-4.1405
X10.3012Y-7.1182
X10.3035Y-10.0005
T0
M30
