G04 #@! TF.GenerationSoftware,KiCad,Pcbnew,5.1.4-e60b266~84~ubuntu19.04.1*
G04 #@! TF.CreationDate,2019-10-22T08:35:31-04:00*
G04 #@! TF.ProjectId,Forward_acceleration_board,466f7277-6172-4645-9f61-6363656c6572,rev?*
G04 #@! TF.SameCoordinates,Original*
G04 #@! TF.FileFunction,Legend,Top*
G04 #@! TF.FilePolarity,Positive*
%FSLAX46Y46*%
G04 Gerber Fmt 4.6, Leading zero omitted, Abs format (unit mm)*
G04 Created by KiCad (PCBNEW 5.1.4-e60b266~84~ubuntu19.04.1) date 2019-10-22 08:35:31*
%MOMM*%
%LPD*%
G04 APERTURE LIST*
%ADD10C,0.200000*%
%ADD11C,0.254000*%
%ADD12C,0.100000*%
%ADD13C,0.150000*%
G04 APERTURE END LIST*
D10*
X133600000Y-32900000D02*
X145600000Y-32900000D01*
X133600000Y-32900000D02*
X133600000Y-35238000D01*
X133600000Y-41800000D02*
X133600000Y-39700000D01*
X145600000Y-41800000D02*
X145600000Y-39700000D01*
X145600000Y-32900000D02*
X145600000Y-35238000D01*
X133600000Y-41800000D02*
X135753000Y-41800000D01*
X145600000Y-41800000D02*
X143447000Y-41800000D01*
D11*
X136610750Y-43914000D02*
G75*
G03X136610750Y-43914000I-42750J0D01*
G01*
D10*
X156975000Y-55275000D02*
X156325000Y-55275000D01*
X229750000Y-61050000D02*
X228275000Y-61050000D01*
X227925000Y-56025000D02*
X227925000Y-61025000D01*
X224225000Y-56025000D02*
X227925000Y-56025000D01*
X224225000Y-61025000D02*
X224225000Y-56025000D01*
X227925000Y-61025000D02*
X224225000Y-61025000D01*
X161700000Y-67900000D02*
X161700000Y-68550000D01*
X214295013Y-68499995D02*
X214295013Y-69149995D01*
D12*
X157950000Y-50375000D02*
G75*
G02X157950000Y-50275000I0J50000D01*
G01*
X157950000Y-50275000D02*
G75*
G02X157950000Y-50375000I0J-50000D01*
G01*
X157950000Y-50275000D02*
X157950000Y-50275000D01*
X157950000Y-50375000D02*
X157950000Y-50375000D01*
D10*
X149895000Y-75040000D02*
X149245000Y-75040000D01*
X150100000Y-55400000D02*
X152400000Y-55400000D01*
D11*
X175895015Y-54491247D02*
G75*
G03X175895015Y-54491247I-125000J0D01*
G01*
D10*
X177345015Y-63641247D02*
X177345015Y-54341247D01*
X186645015Y-63641247D02*
X177345015Y-63641247D01*
X186645015Y-54341247D02*
X186645015Y-63641247D01*
X177345015Y-54341247D02*
X186645015Y-54341247D01*
X160925000Y-65025000D02*
X160925000Y-64375000D01*
X151775000Y-60450000D02*
X151775000Y-61100000D01*
X166822000Y-75591000D02*
X166822000Y-74941000D01*
X219400000Y-66100000D02*
X220050000Y-66100000D01*
X219550000Y-58175000D02*
X219550000Y-57525000D01*
X214275000Y-66875000D02*
X214275000Y-67525000D01*
X219550000Y-59750000D02*
X219550000Y-59100000D01*
X214200000Y-70925000D02*
X214200000Y-70275000D01*
X145250000Y-66050000D02*
X145250000Y-66700000D01*
X151740011Y-58869993D02*
X151740011Y-59519993D01*
X219275000Y-63075000D02*
X219275000Y-60775000D01*
X145300000Y-69925000D02*
X145300000Y-69275000D01*
X150475000Y-68100000D02*
X151125000Y-68100000D01*
X178013000Y-49095000D02*
X180313000Y-49095000D01*
X145800000Y-74750000D02*
X145800000Y-75400000D01*
X145825000Y-77000000D02*
X145825000Y-76350000D01*
X161650000Y-71125000D02*
X161650000Y-71775000D01*
X222433000Y-64819000D02*
X223933000Y-64819000D01*
X224283000Y-73629000D02*
X224283000Y-64979000D01*
X227483000Y-73629000D02*
X224283000Y-73629000D01*
X227483000Y-64979000D02*
X227483000Y-73629000D01*
X224283000Y-64979000D02*
X227483000Y-64979000D01*
X145825000Y-73150000D02*
X145825000Y-73800000D01*
X162758000Y-75591000D02*
X162758000Y-74941000D01*
X145275000Y-67625000D02*
X145275000Y-68275000D01*
X157150000Y-77650000D02*
X157800000Y-77650000D01*
X188722000Y-66102000D02*
X188722000Y-67502000D01*
X151975000Y-66840000D02*
X153475000Y-66840000D01*
X153825000Y-75650000D02*
X153825000Y-67000000D01*
X157025000Y-75650000D02*
X153825000Y-75650000D01*
X157025000Y-67000000D02*
X157025000Y-75650000D01*
X153825000Y-67000000D02*
X157025000Y-67000000D01*
X191324000Y-54280000D02*
X192724000Y-54280000D01*
X147625000Y-43600000D02*
X149375000Y-43600000D01*
X149725000Y-49975000D02*
X149725000Y-43475000D01*
X153575000Y-49975000D02*
X149725000Y-49975000D01*
X153575000Y-43475000D02*
X153575000Y-49975000D01*
X149725000Y-43475000D02*
X153575000Y-43475000D01*
X155375000Y-55100000D02*
X154725000Y-55100000D01*
X163900000Y-76700000D02*
X163900000Y-77350000D01*
X141800000Y-57100000D02*
X143275000Y-57100000D01*
X143625000Y-62125000D02*
X143625000Y-57125000D01*
X147325000Y-62125000D02*
X143625000Y-62125000D01*
X147325000Y-57125000D02*
X147325000Y-62125000D01*
X143625000Y-57125000D02*
X147325000Y-57125000D01*
X184622000Y-44800000D02*
G75*
G03X184822000Y-44800000I100000J0D01*
G01*
X184822000Y-44800000D02*
G75*
G03X184622000Y-44800000I-100000J0D01*
G01*
X184822000Y-44800000D02*
X184822000Y-44800000D01*
X184622000Y-44800000D02*
X184622000Y-44800000D01*
D12*
X195722000Y-42900000D02*
X195722000Y-41100000D01*
X193722000Y-42900000D02*
X195722000Y-42900000D01*
X195722000Y-34000000D02*
X195722000Y-36100000D01*
X181722000Y-34000000D02*
X195722000Y-34000000D01*
X181722000Y-36100000D02*
X181722000Y-34000000D01*
X181722000Y-42900000D02*
X183722000Y-42900000D01*
X181722000Y-41100000D02*
X181722000Y-42900000D01*
D10*
X161650000Y-69500000D02*
X161650000Y-70150000D01*
D11*
X132594047Y-40478333D02*
X132654523Y-40296904D01*
X132654523Y-39994523D01*
X132594047Y-39873571D01*
X132533571Y-39813095D01*
X132412619Y-39752619D01*
X132291666Y-39752619D01*
X132170714Y-39813095D01*
X132110238Y-39873571D01*
X132049761Y-39994523D01*
X131989285Y-40236428D01*
X131928809Y-40357380D01*
X131868333Y-40417857D01*
X131747380Y-40478333D01*
X131626428Y-40478333D01*
X131505476Y-40417857D01*
X131445000Y-40357380D01*
X131384523Y-40236428D01*
X131384523Y-39934047D01*
X131445000Y-39752619D01*
X131384523Y-39329285D02*
X132654523Y-39026904D01*
X131747380Y-38785000D01*
X132654523Y-38543095D01*
X131384523Y-38240714D01*
X132654523Y-37756904D02*
X131384523Y-37756904D01*
X131384523Y-37454523D01*
X131445000Y-37273095D01*
X131565952Y-37152142D01*
X131686904Y-37091666D01*
X131928809Y-37031190D01*
X132110238Y-37031190D01*
X132352142Y-37091666D01*
X132473095Y-37152142D01*
X132594047Y-37273095D01*
X132654523Y-37454523D01*
X132654523Y-37756904D01*
X132654523Y-35821666D02*
X132654523Y-36547380D01*
X132654523Y-36184523D02*
X131384523Y-36184523D01*
X131565952Y-36305476D01*
X131686904Y-36426428D01*
X131747380Y-36547380D01*
X173413571Y-53766428D02*
X173474047Y-53826904D01*
X173534523Y-54008333D01*
X173534523Y-54129285D01*
X173474047Y-54310714D01*
X173353095Y-54431666D01*
X173232142Y-54492142D01*
X172990238Y-54552619D01*
X172808809Y-54552619D01*
X172566904Y-54492142D01*
X172445952Y-54431666D01*
X172325000Y-54310714D01*
X172264523Y-54129285D01*
X172264523Y-54008333D01*
X172325000Y-53826904D01*
X172385476Y-53766428D01*
X172385476Y-53282619D02*
X172325000Y-53222142D01*
X172264523Y-53101190D01*
X172264523Y-52798809D01*
X172325000Y-52677857D01*
X172385476Y-52617380D01*
X172506428Y-52556904D01*
X172627380Y-52556904D01*
X172808809Y-52617380D01*
X173534523Y-53343095D01*
X173534523Y-52556904D01*
X172264523Y-51770714D02*
X172264523Y-51649761D01*
X172325000Y-51528809D01*
X172385476Y-51468333D01*
X172506428Y-51407857D01*
X172748333Y-51347380D01*
X173050714Y-51347380D01*
X173292619Y-51407857D01*
X173413571Y-51468333D01*
X173474047Y-51528809D01*
X173534523Y-51649761D01*
X173534523Y-51770714D01*
X173474047Y-51891666D01*
X173413571Y-51952142D01*
X173292619Y-52012619D01*
X173050714Y-52073095D01*
X172748333Y-52073095D01*
X172506428Y-52012619D01*
X172385476Y-51952142D01*
X172325000Y-51891666D01*
X172264523Y-51770714D01*
D13*
X180290476Y-73292380D02*
X180290476Y-74006666D01*
X180242857Y-74149523D01*
X180147619Y-74244761D01*
X180004761Y-74292380D01*
X179909523Y-74292380D01*
X181290476Y-74292380D02*
X180719047Y-74292380D01*
X181004761Y-74292380D02*
X181004761Y-73292380D01*
X180909523Y-73435238D01*
X180814285Y-73530476D01*
X180719047Y-73578095D01*
X182147619Y-73292380D02*
X181957142Y-73292380D01*
X181861904Y-73340000D01*
X181814285Y-73387619D01*
X181719047Y-73530476D01*
X181671428Y-73720952D01*
X181671428Y-74101904D01*
X181719047Y-74197142D01*
X181766666Y-74244761D01*
X181861904Y-74292380D01*
X182052380Y-74292380D01*
X182147619Y-74244761D01*
X182195238Y-74197142D01*
X182242857Y-74101904D01*
X182242857Y-73863809D01*
X182195238Y-73768571D01*
X182147619Y-73720952D01*
X182052380Y-73673333D01*
X181861904Y-73673333D01*
X181766666Y-73720952D01*
X181719047Y-73768571D01*
X181671428Y-73863809D01*
D11*
X226103571Y-63273571D02*
X226043095Y-63334047D01*
X225861666Y-63394523D01*
X225740714Y-63394523D01*
X225559285Y-63334047D01*
X225438333Y-63213095D01*
X225377857Y-63092142D01*
X225317380Y-62850238D01*
X225317380Y-62668809D01*
X225377857Y-62426904D01*
X225438333Y-62305952D01*
X225559285Y-62185000D01*
X225740714Y-62124523D01*
X225861666Y-62124523D01*
X226043095Y-62185000D01*
X226103571Y-62245476D01*
X227313095Y-63394523D02*
X226587380Y-63394523D01*
X226950238Y-63394523D02*
X226950238Y-62124523D01*
X226829285Y-62305952D01*
X226708333Y-62426904D01*
X226587380Y-62487380D01*
X228522619Y-63394523D02*
X227796904Y-63394523D01*
X228159761Y-63394523D02*
X228159761Y-62124523D01*
X228038809Y-62305952D01*
X227917857Y-62426904D01*
X227796904Y-62487380D01*
X158894523Y-57176428D02*
X158289761Y-57599761D01*
X158894523Y-57902142D02*
X157624523Y-57902142D01*
X157624523Y-57418333D01*
X157685000Y-57297380D01*
X157745476Y-57236904D01*
X157866428Y-57176428D01*
X158047857Y-57176428D01*
X158168809Y-57236904D01*
X158229285Y-57297380D01*
X158289761Y-57418333D01*
X158289761Y-57902142D01*
X157624523Y-56753095D02*
X157624523Y-55966904D01*
X158108333Y-56390238D01*
X158108333Y-56208809D01*
X158168809Y-56087857D01*
X158229285Y-56027380D01*
X158350238Y-55966904D01*
X158652619Y-55966904D01*
X158773571Y-56027380D01*
X158834047Y-56087857D01*
X158894523Y-56208809D01*
X158894523Y-56571666D01*
X158834047Y-56692619D01*
X158773571Y-56753095D01*
X157624523Y-55543571D02*
X157624523Y-54757380D01*
X158108333Y-55180714D01*
X158108333Y-54999285D01*
X158168809Y-54878333D01*
X158229285Y-54817857D01*
X158350238Y-54757380D01*
X158652619Y-54757380D01*
X158773571Y-54817857D01*
X158834047Y-54878333D01*
X158894523Y-54999285D01*
X158894523Y-55362142D01*
X158834047Y-55483095D01*
X158773571Y-55543571D01*
D13*
X104656666Y-184376380D02*
X104656666Y-185090666D01*
X104609047Y-185233523D01*
X104513809Y-185328761D01*
X104370952Y-185376380D01*
X104275714Y-185376380D01*
X105037619Y-184376380D02*
X105704285Y-184376380D01*
X105275714Y-185376380D01*
X262898666Y-256512380D02*
X262898666Y-257226666D01*
X262851047Y-257369523D01*
X262755809Y-257464761D01*
X262612952Y-257512380D01*
X262517714Y-257512380D01*
X263851047Y-256512380D02*
X263374857Y-256512380D01*
X263327238Y-256988571D01*
X263374857Y-256940952D01*
X263470095Y-256893333D01*
X263708190Y-256893333D01*
X263803428Y-256940952D01*
X263851047Y-256988571D01*
X263898666Y-257083809D01*
X263898666Y-257321904D01*
X263851047Y-257417142D01*
X263803428Y-257464761D01*
X263708190Y-257512380D01*
X263470095Y-257512380D01*
X263374857Y-257464761D01*
X263327238Y-257417142D01*
D11*
X170703571Y-58626428D02*
X170764047Y-58686904D01*
X170824523Y-58868333D01*
X170824523Y-58989285D01*
X170764047Y-59170714D01*
X170643095Y-59291666D01*
X170522142Y-59352142D01*
X170280238Y-59412619D01*
X170098809Y-59412619D01*
X169856904Y-59352142D01*
X169735952Y-59291666D01*
X169615000Y-59170714D01*
X169554523Y-58989285D01*
X169554523Y-58868333D01*
X169615000Y-58686904D01*
X169675476Y-58626428D01*
X170824523Y-57416904D02*
X170824523Y-58142619D01*
X170824523Y-57779761D02*
X169554523Y-57779761D01*
X169735952Y-57900714D01*
X169856904Y-58021666D01*
X169917380Y-58142619D01*
X169554523Y-56993571D02*
X169554523Y-56146904D01*
X170824523Y-56691190D01*
D13*
X110450476Y-184122380D02*
X110450476Y-184836666D01*
X110402857Y-184979523D01*
X110307619Y-185074761D01*
X110164761Y-185122380D01*
X110069523Y-185122380D01*
X111450476Y-185122380D02*
X110879047Y-185122380D01*
X111164761Y-185122380D02*
X111164761Y-184122380D01*
X111069523Y-184265238D01*
X110974285Y-184360476D01*
X110879047Y-184408095D01*
X112069523Y-184122380D02*
X112164761Y-184122380D01*
X112260000Y-184170000D01*
X112307619Y-184217619D01*
X112355238Y-184312857D01*
X112402857Y-184503333D01*
X112402857Y-184741428D01*
X112355238Y-184931904D01*
X112307619Y-185027142D01*
X112260000Y-185074761D01*
X112164761Y-185122380D01*
X112069523Y-185122380D01*
X111974285Y-185074761D01*
X111926666Y-185027142D01*
X111879047Y-184931904D01*
X111831428Y-184741428D01*
X111831428Y-184503333D01*
X111879047Y-184312857D01*
X111926666Y-184217619D01*
X111974285Y-184170000D01*
X112069523Y-184122380D01*
X110530476Y-111224380D02*
X110530476Y-111938666D01*
X110482857Y-112081523D01*
X110387619Y-112176761D01*
X110244761Y-112224380D01*
X110149523Y-112224380D01*
X111530476Y-112224380D02*
X110959047Y-112224380D01*
X111244761Y-112224380D02*
X111244761Y-111224380D01*
X111149523Y-111367238D01*
X111054285Y-111462476D01*
X110959047Y-111510095D01*
X111863809Y-111224380D02*
X112482857Y-111224380D01*
X112149523Y-111605333D01*
X112292380Y-111605333D01*
X112387619Y-111652952D01*
X112435238Y-111700571D01*
X112482857Y-111795809D01*
X112482857Y-112033904D01*
X112435238Y-112129142D01*
X112387619Y-112176761D01*
X112292380Y-112224380D01*
X112006666Y-112224380D01*
X111911428Y-112176761D01*
X111863809Y-112129142D01*
D11*
X221803333Y-55344523D02*
X221803333Y-54074523D01*
X222105714Y-54074523D01*
X222287142Y-54135000D01*
X222408095Y-54255952D01*
X222468571Y-54376904D01*
X222529047Y-54618809D01*
X222529047Y-54800238D01*
X222468571Y-55042142D01*
X222408095Y-55163095D01*
X222287142Y-55284047D01*
X222105714Y-55344523D01*
X221803333Y-55344523D01*
X223012857Y-54981666D02*
X223617619Y-54981666D01*
X222891904Y-55344523D02*
X223315238Y-54074523D01*
X223738571Y-55344523D01*
X224887619Y-55223571D02*
X224827142Y-55284047D01*
X224645714Y-55344523D01*
X224524761Y-55344523D01*
X224343333Y-55284047D01*
X224222380Y-55163095D01*
X224161904Y-55042142D01*
X224101428Y-54800238D01*
X224101428Y-54618809D01*
X224161904Y-54376904D01*
X224222380Y-54255952D01*
X224343333Y-54135000D01*
X224524761Y-54074523D01*
X224645714Y-54074523D01*
X224827142Y-54135000D01*
X224887619Y-54195476D01*
X226097142Y-55344523D02*
X225371428Y-55344523D01*
X225734285Y-55344523D02*
X225734285Y-54074523D01*
X225613333Y-54255952D01*
X225492380Y-54376904D01*
X225371428Y-54437380D01*
X164393571Y-68784523D02*
X163970238Y-68179761D01*
X163667857Y-68784523D02*
X163667857Y-67514523D01*
X164151666Y-67514523D01*
X164272619Y-67575000D01*
X164333095Y-67635476D01*
X164393571Y-67756428D01*
X164393571Y-67937857D01*
X164333095Y-68058809D01*
X164272619Y-68119285D01*
X164151666Y-68179761D01*
X163667857Y-68179761D01*
X164816904Y-67514523D02*
X165603095Y-67514523D01*
X165179761Y-67998333D01*
X165361190Y-67998333D01*
X165482142Y-68058809D01*
X165542619Y-68119285D01*
X165603095Y-68240238D01*
X165603095Y-68542619D01*
X165542619Y-68663571D01*
X165482142Y-68724047D01*
X165361190Y-68784523D01*
X164998333Y-68784523D01*
X164877380Y-68724047D01*
X164816904Y-68663571D01*
X166812619Y-68784523D02*
X166086904Y-68784523D01*
X166449761Y-68784523D02*
X166449761Y-67514523D01*
X166328809Y-67695952D01*
X166207857Y-67816904D01*
X166086904Y-67877380D01*
D13*
X256105476Y-184102380D02*
X256105476Y-184816666D01*
X256057857Y-184959523D01*
X255962619Y-185054761D01*
X255819761Y-185102380D01*
X255724523Y-185102380D01*
X257105476Y-185102380D02*
X256534047Y-185102380D01*
X256819761Y-185102380D02*
X256819761Y-184102380D01*
X256724523Y-184245238D01*
X256629285Y-184340476D01*
X256534047Y-184388095D01*
X258010238Y-184102380D02*
X257534047Y-184102380D01*
X257486428Y-184578571D01*
X257534047Y-184530952D01*
X257629285Y-184483333D01*
X257867380Y-184483333D01*
X257962619Y-184530952D01*
X258010238Y-184578571D01*
X258057857Y-184673809D01*
X258057857Y-184911904D01*
X258010238Y-185007142D01*
X257962619Y-185054761D01*
X257867380Y-185102380D01*
X257629285Y-185102380D01*
X257534047Y-185054761D01*
X257486428Y-185007142D01*
D11*
X214083346Y-69399518D02*
X213660013Y-68794756D01*
X213357632Y-69399518D02*
X213357632Y-68129518D01*
X213841441Y-68129518D01*
X213962393Y-68189995D01*
X214022870Y-68250471D01*
X214083346Y-68371423D01*
X214083346Y-68552852D01*
X214022870Y-68673804D01*
X213962393Y-68734280D01*
X213841441Y-68794756D01*
X213357632Y-68794756D01*
X214567155Y-68250471D02*
X214627632Y-68189995D01*
X214748584Y-68129518D01*
X215050965Y-68129518D01*
X215171917Y-68189995D01*
X215232393Y-68250471D01*
X215292870Y-68371423D01*
X215292870Y-68492375D01*
X215232393Y-68673804D01*
X214506679Y-69399518D01*
X215292870Y-69399518D01*
X157824523Y-50195714D02*
X156554523Y-50195714D01*
X157824523Y-49590952D02*
X156554523Y-49590952D01*
X157461666Y-49167619D01*
X156554523Y-48744285D01*
X157824523Y-48744285D01*
X156554523Y-48139523D02*
X157582619Y-48139523D01*
X157703571Y-48079047D01*
X157764047Y-48018571D01*
X157824523Y-47897619D01*
X157824523Y-47655714D01*
X157764047Y-47534761D01*
X157703571Y-47474285D01*
X157582619Y-47413809D01*
X156554523Y-47413809D01*
X157824523Y-46143809D02*
X157824523Y-46869523D01*
X157824523Y-46506666D02*
X156554523Y-46506666D01*
X156735952Y-46627619D01*
X156856904Y-46748571D01*
X156917380Y-46869523D01*
X160973571Y-78716428D02*
X161034047Y-78776904D01*
X161094523Y-78958333D01*
X161094523Y-79079285D01*
X161034047Y-79260714D01*
X160913095Y-79381666D01*
X160792142Y-79442142D01*
X160550238Y-79502619D01*
X160368809Y-79502619D01*
X160126904Y-79442142D01*
X160005952Y-79381666D01*
X159885000Y-79260714D01*
X159824523Y-79079285D01*
X159824523Y-78958333D01*
X159885000Y-78776904D01*
X159945476Y-78716428D01*
X161094523Y-77506904D02*
X161094523Y-78232619D01*
X161094523Y-77869761D02*
X159824523Y-77869761D01*
X160005952Y-77990714D01*
X160126904Y-78111666D01*
X160187380Y-78232619D01*
X160247857Y-76418333D02*
X161094523Y-76418333D01*
X159764047Y-76720714D02*
X160671190Y-77023095D01*
X160671190Y-76236904D01*
X148313571Y-68876428D02*
X148374047Y-68936904D01*
X148434523Y-69118333D01*
X148434523Y-69239285D01*
X148374047Y-69420714D01*
X148253095Y-69541666D01*
X148132142Y-69602142D01*
X147890238Y-69662619D01*
X147708809Y-69662619D01*
X147466904Y-69602142D01*
X147345952Y-69541666D01*
X147225000Y-69420714D01*
X147164523Y-69239285D01*
X147164523Y-69118333D01*
X147225000Y-68936904D01*
X147285476Y-68876428D01*
X148434523Y-67666904D02*
X148434523Y-68392619D01*
X148434523Y-68029761D02*
X147164523Y-68029761D01*
X147345952Y-68150714D01*
X147466904Y-68271666D01*
X147527380Y-68392619D01*
X147164523Y-66517857D02*
X147164523Y-67122619D01*
X147769285Y-67183095D01*
X147708809Y-67122619D01*
X147648333Y-67001666D01*
X147648333Y-66699285D01*
X147708809Y-66578333D01*
X147769285Y-66517857D01*
X147890238Y-66457380D01*
X148192619Y-66457380D01*
X148313571Y-66517857D01*
X148374047Y-66578333D01*
X148434523Y-66699285D01*
X148434523Y-67001666D01*
X148374047Y-67122619D01*
X148313571Y-67183095D01*
X150154523Y-79111428D02*
X149549761Y-79534761D01*
X150154523Y-79837142D02*
X148884523Y-79837142D01*
X148884523Y-79353333D01*
X148945000Y-79232380D01*
X149005476Y-79171904D01*
X149126428Y-79111428D01*
X149307857Y-79111428D01*
X149428809Y-79171904D01*
X149489285Y-79232380D01*
X149549761Y-79353333D01*
X149549761Y-79837142D01*
X148884523Y-78688095D02*
X148884523Y-77901904D01*
X149368333Y-78325238D01*
X149368333Y-78143809D01*
X149428809Y-78022857D01*
X149489285Y-77962380D01*
X149610238Y-77901904D01*
X149912619Y-77901904D01*
X150033571Y-77962380D01*
X150094047Y-78022857D01*
X150154523Y-78143809D01*
X150154523Y-78506666D01*
X150094047Y-78627619D01*
X150033571Y-78688095D01*
X149005476Y-77418095D02*
X148945000Y-77357619D01*
X148884523Y-77236666D01*
X148884523Y-76934285D01*
X148945000Y-76813333D01*
X149005476Y-76752857D01*
X149126428Y-76692380D01*
X149247380Y-76692380D01*
X149428809Y-76752857D01*
X150154523Y-77478571D01*
X150154523Y-76692380D01*
X175183571Y-49486428D02*
X175244047Y-49546904D01*
X175304523Y-49728333D01*
X175304523Y-49849285D01*
X175244047Y-50030714D01*
X175123095Y-50151666D01*
X175002142Y-50212142D01*
X174760238Y-50272619D01*
X174578809Y-50272619D01*
X174336904Y-50212142D01*
X174215952Y-50151666D01*
X174095000Y-50030714D01*
X174034523Y-49849285D01*
X174034523Y-49728333D01*
X174095000Y-49546904D01*
X174155476Y-49486428D01*
X174155476Y-49002619D02*
X174095000Y-48942142D01*
X174034523Y-48821190D01*
X174034523Y-48518809D01*
X174095000Y-48397857D01*
X174155476Y-48337380D01*
X174276428Y-48276904D01*
X174397380Y-48276904D01*
X174578809Y-48337380D01*
X175304523Y-49063095D01*
X175304523Y-48276904D01*
X175304523Y-47067380D02*
X175304523Y-47793095D01*
X175304523Y-47430238D02*
X174034523Y-47430238D01*
X174215952Y-47551190D01*
X174336904Y-47672142D01*
X174397380Y-47793095D01*
X150333571Y-52773571D02*
X150273095Y-52834047D01*
X150091666Y-52894523D01*
X149970714Y-52894523D01*
X149789285Y-52834047D01*
X149668333Y-52713095D01*
X149607857Y-52592142D01*
X149547380Y-52350238D01*
X149547380Y-52168809D01*
X149607857Y-51926904D01*
X149668333Y-51805952D01*
X149789285Y-51685000D01*
X149970714Y-51624523D01*
X150091666Y-51624523D01*
X150273095Y-51685000D01*
X150333571Y-51745476D01*
X151543095Y-52894523D02*
X150817380Y-52894523D01*
X151180238Y-52894523D02*
X151180238Y-51624523D01*
X151059285Y-51805952D01*
X150938333Y-51926904D01*
X150817380Y-51987380D01*
X152026904Y-51745476D02*
X152087380Y-51685000D01*
X152208333Y-51624523D01*
X152510714Y-51624523D01*
X152631666Y-51685000D01*
X152692142Y-51745476D01*
X152752619Y-51866428D01*
X152752619Y-51987380D01*
X152692142Y-52168809D01*
X151966428Y-52894523D01*
X152752619Y-52894523D01*
D13*
X263011666Y-108332380D02*
X263011666Y-109046666D01*
X262964047Y-109189523D01*
X262868809Y-109284761D01*
X262725952Y-109332380D01*
X262630714Y-109332380D01*
X263392619Y-108332380D02*
X264011666Y-108332380D01*
X263678333Y-108713333D01*
X263821190Y-108713333D01*
X263916428Y-108760952D01*
X263964047Y-108808571D01*
X264011666Y-108903809D01*
X264011666Y-109141904D01*
X263964047Y-109237142D01*
X263916428Y-109284761D01*
X263821190Y-109332380D01*
X263535476Y-109332380D01*
X263440238Y-109284761D01*
X263392619Y-109237142D01*
D11*
X177247634Y-59202913D02*
X177852395Y-59202913D01*
X177126681Y-59565770D02*
X177550015Y-58295770D01*
X177973348Y-59565770D01*
X178940967Y-59505294D02*
X178820015Y-59565770D01*
X178578110Y-59565770D01*
X178457157Y-59505294D01*
X178396681Y-59444818D01*
X178336205Y-59323866D01*
X178336205Y-58961008D01*
X178396681Y-58840056D01*
X178457157Y-58779580D01*
X178578110Y-58719104D01*
X178820015Y-58719104D01*
X178940967Y-58779580D01*
X180029538Y-59505294D02*
X179908586Y-59565770D01*
X179666681Y-59565770D01*
X179545729Y-59505294D01*
X179485253Y-59444818D01*
X179424776Y-59323866D01*
X179424776Y-58961008D01*
X179485253Y-58840056D01*
X179545729Y-58779580D01*
X179666681Y-58719104D01*
X179908586Y-58719104D01*
X180029538Y-58779580D01*
X181057634Y-59505294D02*
X180936681Y-59565770D01*
X180694776Y-59565770D01*
X180573824Y-59505294D01*
X180513348Y-59384342D01*
X180513348Y-58900532D01*
X180573824Y-58779580D01*
X180694776Y-58719104D01*
X180936681Y-58719104D01*
X181057634Y-58779580D01*
X181118110Y-58900532D01*
X181118110Y-59021485D01*
X180513348Y-59142437D01*
X181843824Y-59565770D02*
X181722872Y-59505294D01*
X181662395Y-59384342D01*
X181662395Y-58295770D01*
X182025253Y-59686723D02*
X182992872Y-59686723D01*
X183295253Y-59565770D02*
X183295253Y-58719104D01*
X183295253Y-58840056D02*
X183355729Y-58779580D01*
X183476681Y-58719104D01*
X183658110Y-58719104D01*
X183779062Y-58779580D01*
X183839538Y-58900532D01*
X183839538Y-59565770D01*
X183839538Y-58900532D02*
X183900015Y-58779580D01*
X184020967Y-58719104D01*
X184202395Y-58719104D01*
X184323348Y-58779580D01*
X184383824Y-58900532D01*
X184383824Y-59565770D01*
X185532872Y-59505294D02*
X185411919Y-59565770D01*
X185170015Y-59565770D01*
X185049062Y-59505294D01*
X184988586Y-59444818D01*
X184928110Y-59323866D01*
X184928110Y-58961008D01*
X184988586Y-58840056D01*
X185049062Y-58779580D01*
X185170015Y-58719104D01*
X185411919Y-58719104D01*
X185532872Y-58779580D01*
X186742395Y-59565770D02*
X186016681Y-59565770D01*
X186379538Y-59565770D02*
X186379538Y-58295770D01*
X186258586Y-58477199D01*
X186137634Y-58598151D01*
X186016681Y-58658627D01*
D13*
X104910666Y-110970380D02*
X104910666Y-111684666D01*
X104863047Y-111827523D01*
X104767809Y-111922761D01*
X104624952Y-111970380D01*
X104529714Y-111970380D01*
X105815428Y-110970380D02*
X105624952Y-110970380D01*
X105529714Y-111018000D01*
X105482095Y-111065619D01*
X105386857Y-111208476D01*
X105339238Y-111398952D01*
X105339238Y-111779904D01*
X105386857Y-111875142D01*
X105434476Y-111922761D01*
X105529714Y-111970380D01*
X105720190Y-111970380D01*
X105815428Y-111922761D01*
X105863047Y-111875142D01*
X105910666Y-111779904D01*
X105910666Y-111541809D01*
X105863047Y-111446571D01*
X105815428Y-111398952D01*
X105720190Y-111351333D01*
X105529714Y-111351333D01*
X105434476Y-111398952D01*
X105386857Y-111446571D01*
X105339238Y-111541809D01*
D11*
X163548333Y-65274523D02*
X163125000Y-64669761D01*
X162822619Y-65274523D02*
X162822619Y-64004523D01*
X163306428Y-64004523D01*
X163427380Y-64065000D01*
X163487857Y-64125476D01*
X163548333Y-64246428D01*
X163548333Y-64427857D01*
X163487857Y-64548809D01*
X163427380Y-64609285D01*
X163306428Y-64669761D01*
X162822619Y-64669761D01*
X164636904Y-64427857D02*
X164636904Y-65274523D01*
X164334523Y-63944047D02*
X164032142Y-64851190D01*
X164818333Y-64851190D01*
X150958571Y-61349523D02*
X150535238Y-60744761D01*
X150232857Y-61349523D02*
X150232857Y-60079523D01*
X150716666Y-60079523D01*
X150837619Y-60140000D01*
X150898095Y-60200476D01*
X150958571Y-60321428D01*
X150958571Y-60502857D01*
X150898095Y-60623809D01*
X150837619Y-60684285D01*
X150716666Y-60744761D01*
X150232857Y-60744761D01*
X152168095Y-61349523D02*
X151442380Y-61349523D01*
X151805238Y-61349523D02*
X151805238Y-60079523D01*
X151684285Y-60260952D01*
X151563333Y-60381904D01*
X151442380Y-60442380D01*
X152591428Y-60079523D02*
X153377619Y-60079523D01*
X152954285Y-60563333D01*
X153135714Y-60563333D01*
X153256666Y-60623809D01*
X153317142Y-60684285D01*
X153377619Y-60805238D01*
X153377619Y-61107619D01*
X153317142Y-61228571D01*
X153256666Y-61289047D01*
X153135714Y-61349523D01*
X152772857Y-61349523D01*
X152651904Y-61289047D01*
X152591428Y-61228571D01*
D13*
X104910666Y-256258380D02*
X104910666Y-256972666D01*
X104863047Y-257115523D01*
X104767809Y-257210761D01*
X104624952Y-257258380D01*
X104529714Y-257258380D01*
X105529714Y-256686952D02*
X105434476Y-256639333D01*
X105386857Y-256591714D01*
X105339238Y-256496476D01*
X105339238Y-256448857D01*
X105386857Y-256353619D01*
X105434476Y-256306000D01*
X105529714Y-256258380D01*
X105720190Y-256258380D01*
X105815428Y-256306000D01*
X105863047Y-256353619D01*
X105910666Y-256448857D01*
X105910666Y-256496476D01*
X105863047Y-256591714D01*
X105815428Y-256639333D01*
X105720190Y-256686952D01*
X105529714Y-256686952D01*
X105434476Y-256734571D01*
X105386857Y-256782190D01*
X105339238Y-256877428D01*
X105339238Y-257067904D01*
X105386857Y-257163142D01*
X105434476Y-257210761D01*
X105529714Y-257258380D01*
X105720190Y-257258380D01*
X105815428Y-257210761D01*
X105863047Y-257163142D01*
X105910666Y-257067904D01*
X105910666Y-256877428D01*
X105863047Y-256782190D01*
X105815428Y-256734571D01*
X105720190Y-256686952D01*
D11*
X166133571Y-74294523D02*
X165710238Y-73689761D01*
X165407857Y-74294523D02*
X165407857Y-73024523D01*
X165891666Y-73024523D01*
X166012619Y-73085000D01*
X166073095Y-73145476D01*
X166133571Y-73266428D01*
X166133571Y-73447857D01*
X166073095Y-73568809D01*
X166012619Y-73629285D01*
X165891666Y-73689761D01*
X165407857Y-73689761D01*
X167343095Y-74294523D02*
X166617380Y-74294523D01*
X166980238Y-74294523D02*
X166980238Y-73024523D01*
X166859285Y-73205952D01*
X166738333Y-73326904D01*
X166617380Y-73387380D01*
X167766428Y-73024523D02*
X168613095Y-73024523D01*
X168068809Y-74294523D01*
X218554523Y-66291666D02*
X217949761Y-66715000D01*
X218554523Y-67017380D02*
X217284523Y-67017380D01*
X217284523Y-66533571D01*
X217345000Y-66412619D01*
X217405476Y-66352142D01*
X217526428Y-66291666D01*
X217707857Y-66291666D01*
X217828809Y-66352142D01*
X217889285Y-66412619D01*
X217949761Y-66533571D01*
X217949761Y-67017380D01*
X217828809Y-65565952D02*
X217768333Y-65686904D01*
X217707857Y-65747380D01*
X217586904Y-65807857D01*
X217526428Y-65807857D01*
X217405476Y-65747380D01*
X217345000Y-65686904D01*
X217284523Y-65565952D01*
X217284523Y-65324047D01*
X217345000Y-65203095D01*
X217405476Y-65142619D01*
X217526428Y-65082142D01*
X217586904Y-65082142D01*
X217707857Y-65142619D01*
X217768333Y-65203095D01*
X217828809Y-65324047D01*
X217828809Y-65565952D01*
X217889285Y-65686904D01*
X217949761Y-65747380D01*
X218070714Y-65807857D01*
X218312619Y-65807857D01*
X218433571Y-65747380D01*
X218494047Y-65686904D01*
X218554523Y-65565952D01*
X218554523Y-65324047D01*
X218494047Y-65203095D01*
X218433571Y-65142619D01*
X218312619Y-65082142D01*
X218070714Y-65082142D01*
X217949761Y-65142619D01*
X217889285Y-65203095D01*
X217828809Y-65324047D01*
D13*
X263186666Y-182652380D02*
X263186666Y-183366666D01*
X263139047Y-183509523D01*
X263043809Y-183604761D01*
X262900952Y-183652380D01*
X262805714Y-183652380D01*
X264091428Y-182985714D02*
X264091428Y-183652380D01*
X263853333Y-182604761D02*
X263615238Y-183319047D01*
X264234285Y-183319047D01*
D11*
X215483571Y-58244523D02*
X215060238Y-57639761D01*
X214757857Y-58244523D02*
X214757857Y-56974523D01*
X215241666Y-56974523D01*
X215362619Y-57035000D01*
X215423095Y-57095476D01*
X215483571Y-57216428D01*
X215483571Y-57397857D01*
X215423095Y-57518809D01*
X215362619Y-57579285D01*
X215241666Y-57639761D01*
X214757857Y-57639761D01*
X216693095Y-58244523D02*
X215967380Y-58244523D01*
X216330238Y-58244523D02*
X216330238Y-56974523D01*
X216209285Y-57155952D01*
X216088333Y-57276904D01*
X215967380Y-57337380D01*
X217176904Y-57095476D02*
X217237380Y-57035000D01*
X217358333Y-56974523D01*
X217660714Y-56974523D01*
X217781666Y-57035000D01*
X217842142Y-57095476D01*
X217902619Y-57216428D01*
X217902619Y-57337380D01*
X217842142Y-57518809D01*
X217116428Y-58244523D01*
X217902619Y-58244523D01*
X214063333Y-67774523D02*
X213640000Y-67169761D01*
X213337619Y-67774523D02*
X213337619Y-66504523D01*
X213821428Y-66504523D01*
X213942380Y-66565000D01*
X214002857Y-66625476D01*
X214063333Y-66746428D01*
X214063333Y-66927857D01*
X214002857Y-67048809D01*
X213942380Y-67109285D01*
X213821428Y-67169761D01*
X213337619Y-67169761D01*
X215272857Y-67774523D02*
X214547142Y-67774523D01*
X214910000Y-67774523D02*
X214910000Y-66504523D01*
X214789047Y-66685952D01*
X214668095Y-66806904D01*
X214547142Y-66867380D01*
X215053571Y-60154523D02*
X214630238Y-59549761D01*
X214327857Y-60154523D02*
X214327857Y-58884523D01*
X214811666Y-58884523D01*
X214932619Y-58945000D01*
X214993095Y-59005476D01*
X215053571Y-59126428D01*
X215053571Y-59307857D01*
X214993095Y-59428809D01*
X214932619Y-59489285D01*
X214811666Y-59549761D01*
X214327857Y-59549761D01*
X216263095Y-60154523D02*
X215537380Y-60154523D01*
X215900238Y-60154523D02*
X215900238Y-58884523D01*
X215779285Y-59065952D01*
X215658333Y-59186904D01*
X215537380Y-59247380D01*
X217351666Y-59307857D02*
X217351666Y-60154523D01*
X217049285Y-58824047D02*
X216746904Y-59731190D01*
X217533095Y-59731190D01*
D13*
X256326476Y-256512380D02*
X256326476Y-257226666D01*
X256278857Y-257369523D01*
X256183619Y-257464761D01*
X256040761Y-257512380D01*
X255945523Y-257512380D01*
X257326476Y-257512380D02*
X256755047Y-257512380D01*
X257040761Y-257512380D02*
X257040761Y-256512380D01*
X256945523Y-256655238D01*
X256850285Y-256750476D01*
X256755047Y-256798095D01*
X258278857Y-257512380D02*
X257707428Y-257512380D01*
X257993142Y-257512380D02*
X257993142Y-256512380D01*
X257897904Y-256655238D01*
X257802666Y-256750476D01*
X257707428Y-256798095D01*
D11*
X213988333Y-71174523D02*
X213565000Y-70569761D01*
X213262619Y-71174523D02*
X213262619Y-69904523D01*
X213746428Y-69904523D01*
X213867380Y-69965000D01*
X213927857Y-70025476D01*
X213988333Y-70146428D01*
X213988333Y-70327857D01*
X213927857Y-70448809D01*
X213867380Y-70509285D01*
X213746428Y-70569761D01*
X213262619Y-70569761D01*
X214411666Y-69904523D02*
X215197857Y-69904523D01*
X214774523Y-70388333D01*
X214955952Y-70388333D01*
X215076904Y-70448809D01*
X215137380Y-70509285D01*
X215197857Y-70630238D01*
X215197857Y-70932619D01*
X215137380Y-71053571D01*
X215076904Y-71114047D01*
X214955952Y-71174523D01*
X214593095Y-71174523D01*
X214472142Y-71114047D01*
X214411666Y-71053571D01*
X141033571Y-66964523D02*
X140610238Y-66359761D01*
X140307857Y-66964523D02*
X140307857Y-65694523D01*
X140791666Y-65694523D01*
X140912619Y-65755000D01*
X140973095Y-65815476D01*
X141033571Y-65936428D01*
X141033571Y-66117857D01*
X140973095Y-66238809D01*
X140912619Y-66299285D01*
X140791666Y-66359761D01*
X140307857Y-66359761D01*
X141517380Y-65815476D02*
X141577857Y-65755000D01*
X141698809Y-65694523D01*
X142001190Y-65694523D01*
X142122142Y-65755000D01*
X142182619Y-65815476D01*
X142243095Y-65936428D01*
X142243095Y-66057380D01*
X142182619Y-66238809D01*
X141456904Y-66964523D01*
X142243095Y-66964523D01*
X143452619Y-66964523D02*
X142726904Y-66964523D01*
X143089761Y-66964523D02*
X143089761Y-65694523D01*
X142968809Y-65875952D01*
X142847857Y-65996904D01*
X142726904Y-66057380D01*
D13*
X256020476Y-108837380D02*
X256020476Y-109551666D01*
X255972857Y-109694523D01*
X255877619Y-109789761D01*
X255734761Y-109837380D01*
X255639523Y-109837380D01*
X257020476Y-109837380D02*
X256449047Y-109837380D01*
X256734761Y-109837380D02*
X256734761Y-108837380D01*
X256639523Y-108980238D01*
X256544285Y-109075476D01*
X256449047Y-109123095D01*
X257877619Y-109170714D02*
X257877619Y-109837380D01*
X257639523Y-108789761D02*
X257401428Y-109504047D01*
X258020476Y-109504047D01*
D11*
X150923582Y-59769516D02*
X150500249Y-59164754D01*
X150197868Y-59769516D02*
X150197868Y-58499516D01*
X150681677Y-58499516D01*
X150802630Y-58559993D01*
X150863106Y-58620469D01*
X150923582Y-58741421D01*
X150923582Y-58922850D01*
X150863106Y-59043802D01*
X150802630Y-59104278D01*
X150681677Y-59164754D01*
X150197868Y-59164754D01*
X152133106Y-59769516D02*
X151407391Y-59769516D01*
X151770249Y-59769516D02*
X151770249Y-58499516D01*
X151649296Y-58680945D01*
X151528344Y-58801897D01*
X151407391Y-58862373D01*
X153221677Y-58499516D02*
X152979772Y-58499516D01*
X152858820Y-58559993D01*
X152798344Y-58620469D01*
X152677391Y-58801897D01*
X152616915Y-59043802D01*
X152616915Y-59527612D01*
X152677391Y-59648564D01*
X152737868Y-59709040D01*
X152858820Y-59769516D01*
X153100725Y-59769516D01*
X153221677Y-59709040D01*
X153282153Y-59648564D01*
X153342630Y-59527612D01*
X153342630Y-59225231D01*
X153282153Y-59104278D01*
X153221677Y-59043802D01*
X153100725Y-58983326D01*
X152858820Y-58983326D01*
X152737868Y-59043802D01*
X152677391Y-59104278D01*
X152616915Y-59225231D01*
D13*
X177316666Y-73292380D02*
X177316666Y-74006666D01*
X177269047Y-74149523D01*
X177173809Y-74244761D01*
X177030952Y-74292380D01*
X176935714Y-74292380D01*
X177840476Y-74292380D02*
X178030952Y-74292380D01*
X178126190Y-74244761D01*
X178173809Y-74197142D01*
X178269047Y-74054285D01*
X178316666Y-73863809D01*
X178316666Y-73482857D01*
X178269047Y-73387619D01*
X178221428Y-73340000D01*
X178126190Y-73292380D01*
X177935714Y-73292380D01*
X177840476Y-73340000D01*
X177792857Y-73387619D01*
X177745238Y-73482857D01*
X177745238Y-73720952D01*
X177792857Y-73816190D01*
X177840476Y-73863809D01*
X177935714Y-73911428D01*
X178126190Y-73911428D01*
X178221428Y-73863809D01*
X178269047Y-73816190D01*
X178316666Y-73720952D01*
D11*
X146828571Y-49711666D02*
X146889047Y-49772142D01*
X146949523Y-49953571D01*
X146949523Y-50074523D01*
X146889047Y-50255952D01*
X146768095Y-50376904D01*
X146647142Y-50437380D01*
X146405238Y-50497857D01*
X146223809Y-50497857D01*
X145981904Y-50437380D01*
X145860952Y-50376904D01*
X145740000Y-50255952D01*
X145679523Y-50074523D01*
X145679523Y-49953571D01*
X145740000Y-49772142D01*
X145800476Y-49711666D01*
X145800476Y-49227857D02*
X145740000Y-49167380D01*
X145679523Y-49046428D01*
X145679523Y-48744047D01*
X145740000Y-48623095D01*
X145800476Y-48562619D01*
X145921428Y-48502142D01*
X146042380Y-48502142D01*
X146223809Y-48562619D01*
X146949523Y-49288333D01*
X146949523Y-48502142D01*
X214293571Y-62573571D02*
X214233095Y-62634047D01*
X214051666Y-62694523D01*
X213930714Y-62694523D01*
X213749285Y-62634047D01*
X213628333Y-62513095D01*
X213567857Y-62392142D01*
X213507380Y-62150238D01*
X213507380Y-61968809D01*
X213567857Y-61726904D01*
X213628333Y-61605952D01*
X213749285Y-61485000D01*
X213930714Y-61424523D01*
X214051666Y-61424523D01*
X214233095Y-61485000D01*
X214293571Y-61545476D01*
X215503095Y-62694523D02*
X214777380Y-62694523D01*
X215140238Y-62694523D02*
X215140238Y-61424523D01*
X215019285Y-61605952D01*
X214898333Y-61726904D01*
X214777380Y-61787380D01*
X215926428Y-61424523D02*
X216712619Y-61424523D01*
X216289285Y-61908333D01*
X216470714Y-61908333D01*
X216591666Y-61968809D01*
X216652142Y-62029285D01*
X216712619Y-62150238D01*
X216712619Y-62452619D01*
X216652142Y-62573571D01*
X216591666Y-62634047D01*
X216470714Y-62694523D01*
X216107857Y-62694523D01*
X215986904Y-62634047D01*
X215926428Y-62573571D01*
X141033571Y-70324523D02*
X140610238Y-69719761D01*
X140307857Y-70324523D02*
X140307857Y-69054523D01*
X140791666Y-69054523D01*
X140912619Y-69115000D01*
X140973095Y-69175476D01*
X141033571Y-69296428D01*
X141033571Y-69477857D01*
X140973095Y-69598809D01*
X140912619Y-69659285D01*
X140791666Y-69719761D01*
X140307857Y-69719761D01*
X141517380Y-69175476D02*
X141577857Y-69115000D01*
X141698809Y-69054523D01*
X142001190Y-69054523D01*
X142122142Y-69115000D01*
X142182619Y-69175476D01*
X142243095Y-69296428D01*
X142243095Y-69417380D01*
X142182619Y-69598809D01*
X141456904Y-70324523D01*
X142243095Y-70324523D01*
X142666428Y-69054523D02*
X143452619Y-69054523D01*
X143029285Y-69538333D01*
X143210714Y-69538333D01*
X143331666Y-69598809D01*
X143392142Y-69659285D01*
X143452619Y-69780238D01*
X143452619Y-70082619D01*
X143392142Y-70203571D01*
X143331666Y-70264047D01*
X143210714Y-70324523D01*
X142847857Y-70324523D01*
X142726904Y-70264047D01*
X142666428Y-70203571D01*
X151464523Y-65576428D02*
X150859761Y-65999761D01*
X151464523Y-66302142D02*
X150194523Y-66302142D01*
X150194523Y-65818333D01*
X150255000Y-65697380D01*
X150315476Y-65636904D01*
X150436428Y-65576428D01*
X150617857Y-65576428D01*
X150738809Y-65636904D01*
X150799285Y-65697380D01*
X150859761Y-65818333D01*
X150859761Y-66302142D01*
X150315476Y-65092619D02*
X150255000Y-65032142D01*
X150194523Y-64911190D01*
X150194523Y-64608809D01*
X150255000Y-64487857D01*
X150315476Y-64427380D01*
X150436428Y-64366904D01*
X150557380Y-64366904D01*
X150738809Y-64427380D01*
X151464523Y-65153095D01*
X151464523Y-64366904D01*
X150738809Y-63641190D02*
X150678333Y-63762142D01*
X150617857Y-63822619D01*
X150496904Y-63883095D01*
X150436428Y-63883095D01*
X150315476Y-63822619D01*
X150255000Y-63762142D01*
X150194523Y-63641190D01*
X150194523Y-63399285D01*
X150255000Y-63278333D01*
X150315476Y-63217857D01*
X150436428Y-63157380D01*
X150496904Y-63157380D01*
X150617857Y-63217857D01*
X150678333Y-63278333D01*
X150738809Y-63399285D01*
X150738809Y-63641190D01*
X150799285Y-63762142D01*
X150859761Y-63822619D01*
X150980714Y-63883095D01*
X151222619Y-63883095D01*
X151343571Y-63822619D01*
X151404047Y-63762142D01*
X151464523Y-63641190D01*
X151464523Y-63399285D01*
X151404047Y-63278333D01*
X151343571Y-63217857D01*
X151222619Y-63157380D01*
X150980714Y-63157380D01*
X150859761Y-63217857D01*
X150799285Y-63278333D01*
X150738809Y-63399285D01*
X182303571Y-49766428D02*
X182364047Y-49826904D01*
X182424523Y-50008333D01*
X182424523Y-50129285D01*
X182364047Y-50310714D01*
X182243095Y-50431666D01*
X182122142Y-50492142D01*
X181880238Y-50552619D01*
X181698809Y-50552619D01*
X181456904Y-50492142D01*
X181335952Y-50431666D01*
X181215000Y-50310714D01*
X181154523Y-50129285D01*
X181154523Y-50008333D01*
X181215000Y-49826904D01*
X181275476Y-49766428D01*
X181275476Y-49282619D02*
X181215000Y-49222142D01*
X181154523Y-49101190D01*
X181154523Y-48798809D01*
X181215000Y-48677857D01*
X181275476Y-48617380D01*
X181396428Y-48556904D01*
X181517380Y-48556904D01*
X181698809Y-48617380D01*
X182424523Y-49343095D01*
X182424523Y-48556904D01*
X181275476Y-48073095D02*
X181215000Y-48012619D01*
X181154523Y-47891666D01*
X181154523Y-47589285D01*
X181215000Y-47468333D01*
X181275476Y-47407857D01*
X181396428Y-47347380D01*
X181517380Y-47347380D01*
X181698809Y-47407857D01*
X182424523Y-48133571D01*
X182424523Y-47347380D01*
X141493571Y-75624523D02*
X141070238Y-75019761D01*
X140767857Y-75624523D02*
X140767857Y-74354523D01*
X141251666Y-74354523D01*
X141372619Y-74415000D01*
X141433095Y-74475476D01*
X141493571Y-74596428D01*
X141493571Y-74777857D01*
X141433095Y-74898809D01*
X141372619Y-74959285D01*
X141251666Y-75019761D01*
X140767857Y-75019761D01*
X141977380Y-74475476D02*
X142037857Y-74415000D01*
X142158809Y-74354523D01*
X142461190Y-74354523D01*
X142582142Y-74415000D01*
X142642619Y-74475476D01*
X142703095Y-74596428D01*
X142703095Y-74717380D01*
X142642619Y-74898809D01*
X141916904Y-75624523D01*
X142703095Y-75624523D01*
X143791666Y-74354523D02*
X143549761Y-74354523D01*
X143428809Y-74415000D01*
X143368333Y-74475476D01*
X143247380Y-74656904D01*
X143186904Y-74898809D01*
X143186904Y-75382619D01*
X143247380Y-75503571D01*
X143307857Y-75564047D01*
X143428809Y-75624523D01*
X143670714Y-75624523D01*
X143791666Y-75564047D01*
X143852142Y-75503571D01*
X143912619Y-75382619D01*
X143912619Y-75080238D01*
X143852142Y-74959285D01*
X143791666Y-74898809D01*
X143670714Y-74838333D01*
X143428809Y-74838333D01*
X143307857Y-74898809D01*
X143247380Y-74959285D01*
X143186904Y-75080238D01*
X141363571Y-77334523D02*
X140940238Y-76729761D01*
X140637857Y-77334523D02*
X140637857Y-76064523D01*
X141121666Y-76064523D01*
X141242619Y-76125000D01*
X141303095Y-76185476D01*
X141363571Y-76306428D01*
X141363571Y-76487857D01*
X141303095Y-76608809D01*
X141242619Y-76669285D01*
X141121666Y-76729761D01*
X140637857Y-76729761D01*
X141847380Y-76185476D02*
X141907857Y-76125000D01*
X142028809Y-76064523D01*
X142331190Y-76064523D01*
X142452142Y-76125000D01*
X142512619Y-76185476D01*
X142573095Y-76306428D01*
X142573095Y-76427380D01*
X142512619Y-76608809D01*
X141786904Y-77334523D01*
X142573095Y-77334523D01*
X142996428Y-76064523D02*
X143843095Y-76064523D01*
X143298809Y-77334523D01*
X164273571Y-72174523D02*
X163850238Y-71569761D01*
X163547857Y-72174523D02*
X163547857Y-70904523D01*
X164031666Y-70904523D01*
X164152619Y-70965000D01*
X164213095Y-71025476D01*
X164273571Y-71146428D01*
X164273571Y-71327857D01*
X164213095Y-71448809D01*
X164152619Y-71509285D01*
X164031666Y-71569761D01*
X163547857Y-71569761D01*
X164757380Y-71025476D02*
X164817857Y-70965000D01*
X164938809Y-70904523D01*
X165241190Y-70904523D01*
X165362142Y-70965000D01*
X165422619Y-71025476D01*
X165483095Y-71146428D01*
X165483095Y-71267380D01*
X165422619Y-71448809D01*
X164696904Y-72174523D01*
X165483095Y-72174523D01*
X166087857Y-72174523D02*
X166329761Y-72174523D01*
X166450714Y-72114047D01*
X166511190Y-72053571D01*
X166632142Y-71872142D01*
X166692619Y-71630238D01*
X166692619Y-71146428D01*
X166632142Y-71025476D01*
X166571666Y-70965000D01*
X166450714Y-70904523D01*
X166208809Y-70904523D01*
X166087857Y-70965000D01*
X166027380Y-71025476D01*
X165966904Y-71146428D01*
X165966904Y-71448809D01*
X166027380Y-71569761D01*
X166087857Y-71630238D01*
X166208809Y-71690714D01*
X166450714Y-71690714D01*
X166571666Y-71630238D01*
X166632142Y-71569761D01*
X166692619Y-71448809D01*
X223832142Y-75161666D02*
X224436904Y-75161666D01*
X223711190Y-75524523D02*
X224134523Y-74254523D01*
X224557857Y-75524523D01*
X224981190Y-75524523D02*
X224981190Y-74254523D01*
X225404523Y-75161666D01*
X225827857Y-74254523D01*
X225827857Y-75524523D01*
X226432619Y-75524523D02*
X226432619Y-74254523D01*
X226916428Y-74254523D01*
X227037380Y-74315000D01*
X227097857Y-74375476D01*
X227158333Y-74496428D01*
X227158333Y-74677857D01*
X227097857Y-74798809D01*
X227037380Y-74859285D01*
X226916428Y-74919761D01*
X226432619Y-74919761D01*
X228367857Y-75524523D02*
X227642142Y-75524523D01*
X228005000Y-75524523D02*
X228005000Y-74254523D01*
X227884047Y-74435952D01*
X227763095Y-74556904D01*
X227642142Y-74617380D01*
X174713571Y-66986428D02*
X174774047Y-67046904D01*
X174834523Y-67228333D01*
X174834523Y-67349285D01*
X174774047Y-67530714D01*
X174653095Y-67651666D01*
X174532142Y-67712142D01*
X174290238Y-67772619D01*
X174108809Y-67772619D01*
X173866904Y-67712142D01*
X173745952Y-67651666D01*
X173625000Y-67530714D01*
X173564523Y-67349285D01*
X173564523Y-67228333D01*
X173625000Y-67046904D01*
X173685476Y-66986428D01*
X174834523Y-65776904D02*
X174834523Y-66502619D01*
X174834523Y-66139761D02*
X173564523Y-66139761D01*
X173745952Y-66260714D01*
X173866904Y-66381666D01*
X173927380Y-66502619D01*
X174108809Y-65051190D02*
X174048333Y-65172142D01*
X173987857Y-65232619D01*
X173866904Y-65293095D01*
X173806428Y-65293095D01*
X173685476Y-65232619D01*
X173625000Y-65172142D01*
X173564523Y-65051190D01*
X173564523Y-64809285D01*
X173625000Y-64688333D01*
X173685476Y-64627857D01*
X173806428Y-64567380D01*
X173866904Y-64567380D01*
X173987857Y-64627857D01*
X174048333Y-64688333D01*
X174108809Y-64809285D01*
X174108809Y-65051190D01*
X174169285Y-65172142D01*
X174229761Y-65232619D01*
X174350714Y-65293095D01*
X174592619Y-65293095D01*
X174713571Y-65232619D01*
X174774047Y-65172142D01*
X174834523Y-65051190D01*
X174834523Y-64809285D01*
X174774047Y-64688333D01*
X174713571Y-64627857D01*
X174592619Y-64567380D01*
X174350714Y-64567380D01*
X174229761Y-64627857D01*
X174169285Y-64688333D01*
X174108809Y-64809285D01*
X172753571Y-66506428D02*
X172814047Y-66566904D01*
X172874523Y-66748333D01*
X172874523Y-66869285D01*
X172814047Y-67050714D01*
X172693095Y-67171666D01*
X172572142Y-67232142D01*
X172330238Y-67292619D01*
X172148809Y-67292619D01*
X171906904Y-67232142D01*
X171785952Y-67171666D01*
X171665000Y-67050714D01*
X171604523Y-66869285D01*
X171604523Y-66748333D01*
X171665000Y-66566904D01*
X171725476Y-66506428D01*
X172874523Y-65296904D02*
X172874523Y-66022619D01*
X172874523Y-65659761D02*
X171604523Y-65659761D01*
X171785952Y-65780714D01*
X171906904Y-65901666D01*
X171967380Y-66022619D01*
X172874523Y-64692142D02*
X172874523Y-64450238D01*
X172814047Y-64329285D01*
X172753571Y-64268809D01*
X172572142Y-64147857D01*
X172330238Y-64087380D01*
X171846428Y-64087380D01*
X171725476Y-64147857D01*
X171665000Y-64208333D01*
X171604523Y-64329285D01*
X171604523Y-64571190D01*
X171665000Y-64692142D01*
X171725476Y-64752619D01*
X171846428Y-64813095D01*
X172148809Y-64813095D01*
X172269761Y-64752619D01*
X172330238Y-64692142D01*
X172390714Y-64571190D01*
X172390714Y-64329285D01*
X172330238Y-64208333D01*
X172269761Y-64147857D01*
X172148809Y-64087380D01*
X141463571Y-73934523D02*
X141040238Y-73329761D01*
X140737857Y-73934523D02*
X140737857Y-72664523D01*
X141221666Y-72664523D01*
X141342619Y-72725000D01*
X141403095Y-72785476D01*
X141463571Y-72906428D01*
X141463571Y-73087857D01*
X141403095Y-73208809D01*
X141342619Y-73269285D01*
X141221666Y-73329761D01*
X140737857Y-73329761D01*
X141947380Y-72785476D02*
X142007857Y-72725000D01*
X142128809Y-72664523D01*
X142431190Y-72664523D01*
X142552142Y-72725000D01*
X142612619Y-72785476D01*
X142673095Y-72906428D01*
X142673095Y-73027380D01*
X142612619Y-73208809D01*
X141886904Y-73934523D01*
X142673095Y-73934523D01*
X143822142Y-72664523D02*
X143217380Y-72664523D01*
X143156904Y-73269285D01*
X143217380Y-73208809D01*
X143338333Y-73148333D01*
X143640714Y-73148333D01*
X143761666Y-73208809D01*
X143822142Y-73269285D01*
X143882619Y-73390238D01*
X143882619Y-73692619D01*
X143822142Y-73813571D01*
X143761666Y-73874047D01*
X143640714Y-73934523D01*
X143338333Y-73934523D01*
X143217380Y-73874047D01*
X143156904Y-73813571D01*
X161783571Y-74314523D02*
X161360238Y-73709761D01*
X161057857Y-74314523D02*
X161057857Y-73044523D01*
X161541666Y-73044523D01*
X161662619Y-73105000D01*
X161723095Y-73165476D01*
X161783571Y-73286428D01*
X161783571Y-73467857D01*
X161723095Y-73588809D01*
X161662619Y-73649285D01*
X161541666Y-73709761D01*
X161057857Y-73709761D01*
X162993095Y-74314523D02*
X162267380Y-74314523D01*
X162630238Y-74314523D02*
X162630238Y-73044523D01*
X162509285Y-73225952D01*
X162388333Y-73346904D01*
X162267380Y-73407380D01*
X163597857Y-74314523D02*
X163839761Y-74314523D01*
X163960714Y-74254047D01*
X164021190Y-74193571D01*
X164142142Y-74012142D01*
X164202619Y-73770238D01*
X164202619Y-73286428D01*
X164142142Y-73165476D01*
X164081666Y-73105000D01*
X163960714Y-73044523D01*
X163718809Y-73044523D01*
X163597857Y-73105000D01*
X163537380Y-73165476D01*
X163476904Y-73286428D01*
X163476904Y-73588809D01*
X163537380Y-73709761D01*
X163597857Y-73770238D01*
X163718809Y-73830714D01*
X163960714Y-73830714D01*
X164081666Y-73770238D01*
X164142142Y-73709761D01*
X164202619Y-73588809D01*
X140933571Y-68604523D02*
X140510238Y-67999761D01*
X140207857Y-68604523D02*
X140207857Y-67334523D01*
X140691666Y-67334523D01*
X140812619Y-67395000D01*
X140873095Y-67455476D01*
X140933571Y-67576428D01*
X140933571Y-67757857D01*
X140873095Y-67878809D01*
X140812619Y-67939285D01*
X140691666Y-67999761D01*
X140207857Y-67999761D01*
X141417380Y-67455476D02*
X141477857Y-67395000D01*
X141598809Y-67334523D01*
X141901190Y-67334523D01*
X142022142Y-67395000D01*
X142082619Y-67455476D01*
X142143095Y-67576428D01*
X142143095Y-67697380D01*
X142082619Y-67878809D01*
X141356904Y-68604523D01*
X142143095Y-68604523D01*
X142626904Y-67455476D02*
X142687380Y-67395000D01*
X142808333Y-67334523D01*
X143110714Y-67334523D01*
X143231666Y-67395000D01*
X143292142Y-67455476D01*
X143352619Y-67576428D01*
X143352619Y-67697380D01*
X143292142Y-67878809D01*
X142566428Y-68604523D01*
X143352619Y-68604523D01*
X156304523Y-78796428D02*
X155699761Y-79219761D01*
X156304523Y-79522142D02*
X155034523Y-79522142D01*
X155034523Y-79038333D01*
X155095000Y-78917380D01*
X155155476Y-78856904D01*
X155276428Y-78796428D01*
X155457857Y-78796428D01*
X155578809Y-78856904D01*
X155639285Y-78917380D01*
X155699761Y-79038333D01*
X155699761Y-79522142D01*
X155155476Y-78312619D02*
X155095000Y-78252142D01*
X155034523Y-78131190D01*
X155034523Y-77828809D01*
X155095000Y-77707857D01*
X155155476Y-77647380D01*
X155276428Y-77586904D01*
X155397380Y-77586904D01*
X155578809Y-77647380D01*
X156304523Y-78373095D01*
X156304523Y-77586904D01*
X155457857Y-76498333D02*
X156304523Y-76498333D01*
X154974047Y-76800714D02*
X155881190Y-77103095D01*
X155881190Y-76316904D01*
X191833571Y-67423571D02*
X191773095Y-67484047D01*
X191591666Y-67544523D01*
X191470714Y-67544523D01*
X191289285Y-67484047D01*
X191168333Y-67363095D01*
X191107857Y-67242142D01*
X191047380Y-67000238D01*
X191047380Y-66818809D01*
X191107857Y-66576904D01*
X191168333Y-66455952D01*
X191289285Y-66335000D01*
X191470714Y-66274523D01*
X191591666Y-66274523D01*
X191773095Y-66335000D01*
X191833571Y-66395476D01*
X192317380Y-66395476D02*
X192377857Y-66335000D01*
X192498809Y-66274523D01*
X192801190Y-66274523D01*
X192922142Y-66335000D01*
X192982619Y-66395476D01*
X193043095Y-66516428D01*
X193043095Y-66637380D01*
X192982619Y-66818809D01*
X192256904Y-67544523D01*
X193043095Y-67544523D01*
X194131666Y-66697857D02*
X194131666Y-67544523D01*
X193829285Y-66214047D02*
X193526904Y-67121190D01*
X194313095Y-67121190D01*
X191143571Y-65273571D02*
X191083095Y-65334047D01*
X190901666Y-65394523D01*
X190780714Y-65394523D01*
X190599285Y-65334047D01*
X190478333Y-65213095D01*
X190417857Y-65092142D01*
X190357380Y-64850238D01*
X190357380Y-64668809D01*
X190417857Y-64426904D01*
X190478333Y-64305952D01*
X190599285Y-64185000D01*
X190780714Y-64124523D01*
X190901666Y-64124523D01*
X191083095Y-64185000D01*
X191143571Y-64245476D01*
X191627380Y-64245476D02*
X191687857Y-64185000D01*
X191808809Y-64124523D01*
X192111190Y-64124523D01*
X192232142Y-64185000D01*
X192292619Y-64245476D01*
X192353095Y-64366428D01*
X192353095Y-64487380D01*
X192292619Y-64668809D01*
X191566904Y-65394523D01*
X192353095Y-65394523D01*
X193502142Y-64124523D02*
X192897380Y-64124523D01*
X192836904Y-64729285D01*
X192897380Y-64668809D01*
X193018333Y-64608333D01*
X193320714Y-64608333D01*
X193441666Y-64668809D01*
X193502142Y-64729285D01*
X193562619Y-64850238D01*
X193562619Y-65152619D01*
X193502142Y-65273571D01*
X193441666Y-65334047D01*
X193320714Y-65394523D01*
X193018333Y-65394523D01*
X192897380Y-65334047D01*
X192836904Y-65273571D01*
X187633571Y-51493571D02*
X187573095Y-51554047D01*
X187391666Y-51614523D01*
X187270714Y-51614523D01*
X187089285Y-51554047D01*
X186968333Y-51433095D01*
X186907857Y-51312142D01*
X186847380Y-51070238D01*
X186847380Y-50888809D01*
X186907857Y-50646904D01*
X186968333Y-50525952D01*
X187089285Y-50405000D01*
X187270714Y-50344523D01*
X187391666Y-50344523D01*
X187573095Y-50405000D01*
X187633571Y-50465476D01*
X188117380Y-50465476D02*
X188177857Y-50405000D01*
X188298809Y-50344523D01*
X188601190Y-50344523D01*
X188722142Y-50405000D01*
X188782619Y-50465476D01*
X188843095Y-50586428D01*
X188843095Y-50707380D01*
X188782619Y-50888809D01*
X188056904Y-51614523D01*
X188843095Y-51614523D01*
X189931666Y-50344523D02*
X189689761Y-50344523D01*
X189568809Y-50405000D01*
X189508333Y-50465476D01*
X189387380Y-50646904D01*
X189326904Y-50888809D01*
X189326904Y-51372619D01*
X189387380Y-51493571D01*
X189447857Y-51554047D01*
X189568809Y-51614523D01*
X189810714Y-51614523D01*
X189931666Y-51554047D01*
X189992142Y-51493571D01*
X190052619Y-51372619D01*
X190052619Y-51070238D01*
X189992142Y-50949285D01*
X189931666Y-50888809D01*
X189810714Y-50828333D01*
X189568809Y-50828333D01*
X189447857Y-50888809D01*
X189387380Y-50949285D01*
X189326904Y-51070238D01*
X219008333Y-72853571D02*
X218947857Y-72914047D01*
X218766428Y-72974523D01*
X218645476Y-72974523D01*
X218464047Y-72914047D01*
X218343095Y-72793095D01*
X218282619Y-72672142D01*
X218222142Y-72430238D01*
X218222142Y-72248809D01*
X218282619Y-72006904D01*
X218343095Y-71885952D01*
X218464047Y-71765000D01*
X218645476Y-71704523D01*
X218766428Y-71704523D01*
X218947857Y-71765000D01*
X219008333Y-71825476D01*
X219431666Y-71704523D02*
X220217857Y-71704523D01*
X219794523Y-72188333D01*
X219975952Y-72188333D01*
X220096904Y-72248809D01*
X220157380Y-72309285D01*
X220217857Y-72430238D01*
X220217857Y-72732619D01*
X220157380Y-72853571D01*
X220096904Y-72914047D01*
X219975952Y-72974523D01*
X219613095Y-72974523D01*
X219492142Y-72914047D01*
X219431666Y-72853571D01*
X230883571Y-54663571D02*
X230823095Y-54724047D01*
X230641666Y-54784523D01*
X230520714Y-54784523D01*
X230339285Y-54724047D01*
X230218333Y-54603095D01*
X230157857Y-54482142D01*
X230097380Y-54240238D01*
X230097380Y-54058809D01*
X230157857Y-53816904D01*
X230218333Y-53695952D01*
X230339285Y-53575000D01*
X230520714Y-53514523D01*
X230641666Y-53514523D01*
X230823095Y-53575000D01*
X230883571Y-53635476D01*
X231306904Y-53514523D02*
X232093095Y-53514523D01*
X231669761Y-53998333D01*
X231851190Y-53998333D01*
X231972142Y-54058809D01*
X232032619Y-54119285D01*
X232093095Y-54240238D01*
X232093095Y-54542619D01*
X232032619Y-54663571D01*
X231972142Y-54724047D01*
X231851190Y-54784523D01*
X231488333Y-54784523D01*
X231367380Y-54724047D01*
X231306904Y-54663571D01*
X232576904Y-53635476D02*
X232637380Y-53575000D01*
X232758333Y-53514523D01*
X233060714Y-53514523D01*
X233181666Y-53575000D01*
X233242142Y-53635476D01*
X233302619Y-53756428D01*
X233302619Y-53877380D01*
X233242142Y-54058809D01*
X232516428Y-54784523D01*
X233302619Y-54784523D01*
X145208333Y-71893571D02*
X145147857Y-71954047D01*
X144966428Y-72014523D01*
X144845476Y-72014523D01*
X144664047Y-71954047D01*
X144543095Y-71833095D01*
X144482619Y-71712142D01*
X144422142Y-71470238D01*
X144422142Y-71288809D01*
X144482619Y-71046904D01*
X144543095Y-70925952D01*
X144664047Y-70805000D01*
X144845476Y-70744523D01*
X144966428Y-70744523D01*
X145147857Y-70805000D01*
X145208333Y-70865476D01*
X146296904Y-71167857D02*
X146296904Y-72014523D01*
X145994523Y-70684047D02*
X145692142Y-71591190D01*
X146478333Y-71591190D01*
X153122142Y-66101666D02*
X153726904Y-66101666D01*
X153001190Y-66464523D02*
X153424523Y-65194523D01*
X153847857Y-66464523D01*
X154271190Y-66464523D02*
X154271190Y-65194523D01*
X154694523Y-66101666D01*
X155117857Y-65194523D01*
X155117857Y-66464523D01*
X155722619Y-66464523D02*
X155722619Y-65194523D01*
X156206428Y-65194523D01*
X156327380Y-65255000D01*
X156387857Y-65315476D01*
X156448333Y-65436428D01*
X156448333Y-65617857D01*
X156387857Y-65738809D01*
X156327380Y-65799285D01*
X156206428Y-65859761D01*
X155722619Y-65859761D01*
X156932142Y-65315476D02*
X156992619Y-65255000D01*
X157113571Y-65194523D01*
X157415952Y-65194523D01*
X157536904Y-65255000D01*
X157597380Y-65315476D01*
X157657857Y-65436428D01*
X157657857Y-65557380D01*
X157597380Y-65738809D01*
X156871666Y-66464523D01*
X157657857Y-66464523D01*
X192283571Y-51763571D02*
X192223095Y-51824047D01*
X192041666Y-51884523D01*
X191920714Y-51884523D01*
X191739285Y-51824047D01*
X191618333Y-51703095D01*
X191557857Y-51582142D01*
X191497380Y-51340238D01*
X191497380Y-51158809D01*
X191557857Y-50916904D01*
X191618333Y-50795952D01*
X191739285Y-50675000D01*
X191920714Y-50614523D01*
X192041666Y-50614523D01*
X192223095Y-50675000D01*
X192283571Y-50735476D01*
X192767380Y-50735476D02*
X192827857Y-50675000D01*
X192948809Y-50614523D01*
X193251190Y-50614523D01*
X193372142Y-50675000D01*
X193432619Y-50735476D01*
X193493095Y-50856428D01*
X193493095Y-50977380D01*
X193432619Y-51158809D01*
X192706904Y-51884523D01*
X193493095Y-51884523D01*
X193916428Y-50614523D02*
X194763095Y-50614523D01*
X194218809Y-51884523D01*
D13*
X110784476Y-256258380D02*
X110784476Y-256972666D01*
X110736857Y-257115523D01*
X110641619Y-257210761D01*
X110498761Y-257258380D01*
X110403523Y-257258380D01*
X111784476Y-257258380D02*
X111213047Y-257258380D01*
X111498761Y-257258380D02*
X111498761Y-256258380D01*
X111403523Y-256401238D01*
X111308285Y-256496476D01*
X111213047Y-256544095D01*
X112165428Y-256353619D02*
X112213047Y-256306000D01*
X112308285Y-256258380D01*
X112546380Y-256258380D01*
X112641619Y-256306000D01*
X112689238Y-256353619D01*
X112736857Y-256448857D01*
X112736857Y-256544095D01*
X112689238Y-256686952D01*
X112117809Y-257258380D01*
X112736857Y-257258380D01*
D11*
X147678333Y-63973571D02*
X147617857Y-64034047D01*
X147436428Y-64094523D01*
X147315476Y-64094523D01*
X147134047Y-64034047D01*
X147013095Y-63913095D01*
X146952619Y-63792142D01*
X146892142Y-63550238D01*
X146892142Y-63368809D01*
X146952619Y-63126904D01*
X147013095Y-63005952D01*
X147134047Y-62885000D01*
X147315476Y-62824523D01*
X147436428Y-62824523D01*
X147617857Y-62885000D01*
X147678333Y-62945476D01*
X148283095Y-64094523D02*
X148525000Y-64094523D01*
X148645952Y-64034047D01*
X148706428Y-63973571D01*
X148827380Y-63792142D01*
X148887857Y-63550238D01*
X148887857Y-63066428D01*
X148827380Y-62945476D01*
X148766904Y-62885000D01*
X148645952Y-62824523D01*
X148404047Y-62824523D01*
X148283095Y-62885000D01*
X148222619Y-62945476D01*
X148162142Y-63066428D01*
X148162142Y-63368809D01*
X148222619Y-63489761D01*
X148283095Y-63550238D01*
X148404047Y-63610714D01*
X148645952Y-63610714D01*
X148766904Y-63550238D01*
X148827380Y-63489761D01*
X148887857Y-63368809D01*
X159873571Y-52056428D02*
X159934047Y-52116904D01*
X159994523Y-52298333D01*
X159994523Y-52419285D01*
X159934047Y-52600714D01*
X159813095Y-52721666D01*
X159692142Y-52782142D01*
X159450238Y-52842619D01*
X159268809Y-52842619D01*
X159026904Y-52782142D01*
X158905952Y-52721666D01*
X158785000Y-52600714D01*
X158724523Y-52419285D01*
X158724523Y-52298333D01*
X158785000Y-52116904D01*
X158845476Y-52056428D01*
X158845476Y-51572619D02*
X158785000Y-51512142D01*
X158724523Y-51391190D01*
X158724523Y-51088809D01*
X158785000Y-50967857D01*
X158845476Y-50907380D01*
X158966428Y-50846904D01*
X159087380Y-50846904D01*
X159268809Y-50907380D01*
X159994523Y-51633095D01*
X159994523Y-50846904D01*
X159268809Y-50121190D02*
X159208333Y-50242142D01*
X159147857Y-50302619D01*
X159026904Y-50363095D01*
X158966428Y-50363095D01*
X158845476Y-50302619D01*
X158785000Y-50242142D01*
X158724523Y-50121190D01*
X158724523Y-49879285D01*
X158785000Y-49758333D01*
X158845476Y-49697857D01*
X158966428Y-49637380D01*
X159026904Y-49637380D01*
X159147857Y-49697857D01*
X159208333Y-49758333D01*
X159268809Y-49879285D01*
X159268809Y-50121190D01*
X159329285Y-50242142D01*
X159389761Y-50302619D01*
X159510714Y-50363095D01*
X159752619Y-50363095D01*
X159873571Y-50302619D01*
X159934047Y-50242142D01*
X159994523Y-50121190D01*
X159994523Y-49879285D01*
X159934047Y-49758333D01*
X159873571Y-49697857D01*
X159752619Y-49637380D01*
X159510714Y-49637380D01*
X159389761Y-49697857D01*
X159329285Y-49758333D01*
X159268809Y-49879285D01*
X160973571Y-56293571D02*
X160913095Y-56354047D01*
X160731666Y-56414523D01*
X160610714Y-56414523D01*
X160429285Y-56354047D01*
X160308333Y-56233095D01*
X160247857Y-56112142D01*
X160187380Y-55870238D01*
X160187380Y-55688809D01*
X160247857Y-55446904D01*
X160308333Y-55325952D01*
X160429285Y-55205000D01*
X160610714Y-55144523D01*
X160731666Y-55144523D01*
X160913095Y-55205000D01*
X160973571Y-55265476D01*
X161457380Y-55265476D02*
X161517857Y-55205000D01*
X161638809Y-55144523D01*
X161941190Y-55144523D01*
X162062142Y-55205000D01*
X162122619Y-55265476D01*
X162183095Y-55386428D01*
X162183095Y-55507380D01*
X162122619Y-55688809D01*
X161396904Y-56414523D01*
X162183095Y-56414523D01*
X162787857Y-56414523D02*
X163029761Y-56414523D01*
X163150714Y-56354047D01*
X163211190Y-56293571D01*
X163332142Y-56112142D01*
X163392619Y-55870238D01*
X163392619Y-55386428D01*
X163332142Y-55265476D01*
X163271666Y-55205000D01*
X163150714Y-55144523D01*
X162908809Y-55144523D01*
X162787857Y-55205000D01*
X162727380Y-55265476D01*
X162666904Y-55386428D01*
X162666904Y-55688809D01*
X162727380Y-55809761D01*
X162787857Y-55870238D01*
X162908809Y-55930714D01*
X163150714Y-55930714D01*
X163271666Y-55870238D01*
X163332142Y-55809761D01*
X163392619Y-55688809D01*
X150319523Y-47299523D02*
X149896190Y-46694761D01*
X149593809Y-47299523D02*
X149593809Y-46029523D01*
X150077619Y-46029523D01*
X150198571Y-46090000D01*
X150259047Y-46150476D01*
X150319523Y-46271428D01*
X150319523Y-46452857D01*
X150259047Y-46573809D01*
X150198571Y-46634285D01*
X150077619Y-46694761D01*
X149593809Y-46694761D01*
X151347619Y-47239047D02*
X151226666Y-47299523D01*
X150984761Y-47299523D01*
X150863809Y-47239047D01*
X150803333Y-47118095D01*
X150803333Y-46634285D01*
X150863809Y-46513333D01*
X150984761Y-46452857D01*
X151226666Y-46452857D01*
X151347619Y-46513333D01*
X151408095Y-46634285D01*
X151408095Y-46755238D01*
X150803333Y-46876190D01*
X152496666Y-46452857D02*
X152496666Y-47480952D01*
X152436190Y-47601904D01*
X152375714Y-47662380D01*
X152254761Y-47722857D01*
X152073333Y-47722857D01*
X151952380Y-47662380D01*
X152496666Y-47239047D02*
X152375714Y-47299523D01*
X152133809Y-47299523D01*
X152012857Y-47239047D01*
X151952380Y-47178571D01*
X151891904Y-47057619D01*
X151891904Y-46694761D01*
X151952380Y-46573809D01*
X152012857Y-46513333D01*
X152133809Y-46452857D01*
X152375714Y-46452857D01*
X152496666Y-46513333D01*
X153766666Y-47299523D02*
X153040952Y-47299523D01*
X153403809Y-47299523D02*
X153403809Y-46029523D01*
X153282857Y-46210952D01*
X153161904Y-46331904D01*
X153040952Y-46392380D01*
X163308333Y-66843571D02*
X163247857Y-66904047D01*
X163066428Y-66964523D01*
X162945476Y-66964523D01*
X162764047Y-66904047D01*
X162643095Y-66783095D01*
X162582619Y-66662142D01*
X162522142Y-66420238D01*
X162522142Y-66238809D01*
X162582619Y-65996904D01*
X162643095Y-65875952D01*
X162764047Y-65755000D01*
X162945476Y-65694523D01*
X163066428Y-65694523D01*
X163247857Y-65755000D01*
X163308333Y-65815476D01*
X164457380Y-65694523D02*
X163852619Y-65694523D01*
X163792142Y-66299285D01*
X163852619Y-66238809D01*
X163973571Y-66178333D01*
X164275952Y-66178333D01*
X164396904Y-66238809D01*
X164457380Y-66299285D01*
X164517857Y-66420238D01*
X164517857Y-66722619D01*
X164457380Y-66843571D01*
X164396904Y-66904047D01*
X164275952Y-66964523D01*
X163973571Y-66964523D01*
X163852619Y-66904047D01*
X163792142Y-66843571D01*
X221753571Y-68461666D02*
X221814047Y-68522142D01*
X221874523Y-68703571D01*
X221874523Y-68824523D01*
X221814047Y-69005952D01*
X221693095Y-69126904D01*
X221572142Y-69187380D01*
X221330238Y-69247857D01*
X221148809Y-69247857D01*
X220906904Y-69187380D01*
X220785952Y-69126904D01*
X220665000Y-69005952D01*
X220604523Y-68824523D01*
X220604523Y-68703571D01*
X220665000Y-68522142D01*
X220725476Y-68461666D01*
X220604523Y-67373095D02*
X220604523Y-67615000D01*
X220665000Y-67735952D01*
X220725476Y-67796428D01*
X220906904Y-67917380D01*
X221148809Y-67977857D01*
X221632619Y-67977857D01*
X221753571Y-67917380D01*
X221814047Y-67856904D01*
X221874523Y-67735952D01*
X221874523Y-67494047D01*
X221814047Y-67373095D01*
X221753571Y-67312619D01*
X221632619Y-67252142D01*
X221330238Y-67252142D01*
X221209285Y-67312619D01*
X221148809Y-67373095D01*
X221088333Y-67494047D01*
X221088333Y-67735952D01*
X221148809Y-67856904D01*
X221209285Y-67917380D01*
X221330238Y-67977857D01*
X165143571Y-54286428D02*
X165204047Y-54346904D01*
X165264523Y-54528333D01*
X165264523Y-54649285D01*
X165204047Y-54830714D01*
X165083095Y-54951666D01*
X164962142Y-55012142D01*
X164720238Y-55072619D01*
X164538809Y-55072619D01*
X164296904Y-55012142D01*
X164175952Y-54951666D01*
X164055000Y-54830714D01*
X163994523Y-54649285D01*
X163994523Y-54528333D01*
X164055000Y-54346904D01*
X164115476Y-54286428D01*
X163994523Y-53863095D02*
X163994523Y-53076904D01*
X164478333Y-53500238D01*
X164478333Y-53318809D01*
X164538809Y-53197857D01*
X164599285Y-53137380D01*
X164720238Y-53076904D01*
X165022619Y-53076904D01*
X165143571Y-53137380D01*
X165204047Y-53197857D01*
X165264523Y-53318809D01*
X165264523Y-53681666D01*
X165204047Y-53802619D01*
X165143571Y-53863095D01*
X163994523Y-52290714D02*
X163994523Y-52169761D01*
X164055000Y-52048809D01*
X164115476Y-51988333D01*
X164236428Y-51927857D01*
X164478333Y-51867380D01*
X164780714Y-51867380D01*
X165022619Y-51927857D01*
X165143571Y-51988333D01*
X165204047Y-52048809D01*
X165264523Y-52169761D01*
X165264523Y-52290714D01*
X165204047Y-52411666D01*
X165143571Y-52472142D01*
X165022619Y-52532619D01*
X164780714Y-52593095D01*
X164478333Y-52593095D01*
X164236428Y-52532619D01*
X164115476Y-52472142D01*
X164055000Y-52411666D01*
X163994523Y-52290714D01*
X178323571Y-68976428D02*
X178384047Y-69036904D01*
X178444523Y-69218333D01*
X178444523Y-69339285D01*
X178384047Y-69520714D01*
X178263095Y-69641666D01*
X178142142Y-69702142D01*
X177900238Y-69762619D01*
X177718809Y-69762619D01*
X177476904Y-69702142D01*
X177355952Y-69641666D01*
X177235000Y-69520714D01*
X177174523Y-69339285D01*
X177174523Y-69218333D01*
X177235000Y-69036904D01*
X177295476Y-68976428D01*
X177295476Y-68492619D02*
X177235000Y-68432142D01*
X177174523Y-68311190D01*
X177174523Y-68008809D01*
X177235000Y-67887857D01*
X177295476Y-67827380D01*
X177416428Y-67766904D01*
X177537380Y-67766904D01*
X177718809Y-67827380D01*
X178444523Y-68553095D01*
X178444523Y-67766904D01*
X177174523Y-67343571D02*
X177174523Y-66557380D01*
X177658333Y-66980714D01*
X177658333Y-66799285D01*
X177718809Y-66678333D01*
X177779285Y-66617857D01*
X177900238Y-66557380D01*
X178202619Y-66557380D01*
X178323571Y-66617857D01*
X178384047Y-66678333D01*
X178444523Y-66799285D01*
X178444523Y-67162142D01*
X178384047Y-67283095D01*
X178323571Y-67343571D01*
X154424523Y-55886428D02*
X153819761Y-56309761D01*
X154424523Y-56612142D02*
X153154523Y-56612142D01*
X153154523Y-56128333D01*
X153215000Y-56007380D01*
X153275476Y-55946904D01*
X153396428Y-55886428D01*
X153577857Y-55886428D01*
X153698809Y-55946904D01*
X153759285Y-56007380D01*
X153819761Y-56128333D01*
X153819761Y-56612142D01*
X153154523Y-55463095D02*
X153154523Y-54676904D01*
X153638333Y-55100238D01*
X153638333Y-54918809D01*
X153698809Y-54797857D01*
X153759285Y-54737380D01*
X153880238Y-54676904D01*
X154182619Y-54676904D01*
X154303571Y-54737380D01*
X154364047Y-54797857D01*
X154424523Y-54918809D01*
X154424523Y-55281666D01*
X154364047Y-55402619D01*
X154303571Y-55463095D01*
X153577857Y-53588333D02*
X154424523Y-53588333D01*
X153094047Y-53890714D02*
X154001190Y-54193095D01*
X154001190Y-53406904D01*
X146843571Y-53593571D02*
X146783095Y-53654047D01*
X146601666Y-53714523D01*
X146480714Y-53714523D01*
X146299285Y-53654047D01*
X146178333Y-53533095D01*
X146117857Y-53412142D01*
X146057380Y-53170238D01*
X146057380Y-52988809D01*
X146117857Y-52746904D01*
X146178333Y-52625952D01*
X146299285Y-52505000D01*
X146480714Y-52444523D01*
X146601666Y-52444523D01*
X146783095Y-52505000D01*
X146843571Y-52565476D01*
X148053095Y-53714523D02*
X147327380Y-53714523D01*
X147690238Y-53714523D02*
X147690238Y-52444523D01*
X147569285Y-52625952D01*
X147448333Y-52746904D01*
X147327380Y-52807380D01*
X148839285Y-52444523D02*
X148960238Y-52444523D01*
X149081190Y-52505000D01*
X149141666Y-52565476D01*
X149202142Y-52686428D01*
X149262619Y-52928333D01*
X149262619Y-53230714D01*
X149202142Y-53472619D01*
X149141666Y-53593571D01*
X149081190Y-53654047D01*
X148960238Y-53714523D01*
X148839285Y-53714523D01*
X148718333Y-53654047D01*
X148657857Y-53593571D01*
X148597380Y-53472619D01*
X148536904Y-53230714D01*
X148536904Y-52928333D01*
X148597380Y-52686428D01*
X148657857Y-52565476D01*
X148718333Y-52505000D01*
X148839285Y-52444523D01*
X163033571Y-79304523D02*
X162610238Y-78699761D01*
X162307857Y-79304523D02*
X162307857Y-78034523D01*
X162791666Y-78034523D01*
X162912619Y-78095000D01*
X162973095Y-78155476D01*
X163033571Y-78276428D01*
X163033571Y-78457857D01*
X162973095Y-78578809D01*
X162912619Y-78639285D01*
X162791666Y-78699761D01*
X162307857Y-78699761D01*
X164243095Y-79304523D02*
X163517380Y-79304523D01*
X163880238Y-79304523D02*
X163880238Y-78034523D01*
X163759285Y-78215952D01*
X163638333Y-78336904D01*
X163517380Y-78397380D01*
X164968809Y-78578809D02*
X164847857Y-78518333D01*
X164787380Y-78457857D01*
X164726904Y-78336904D01*
X164726904Y-78276428D01*
X164787380Y-78155476D01*
X164847857Y-78095000D01*
X164968809Y-78034523D01*
X165210714Y-78034523D01*
X165331666Y-78095000D01*
X165392142Y-78155476D01*
X165452619Y-78276428D01*
X165452619Y-78336904D01*
X165392142Y-78457857D01*
X165331666Y-78518333D01*
X165210714Y-78578809D01*
X164968809Y-78578809D01*
X164847857Y-78639285D01*
X164787380Y-78699761D01*
X164726904Y-78820714D01*
X164726904Y-79062619D01*
X164787380Y-79183571D01*
X164847857Y-79244047D01*
X164968809Y-79304523D01*
X165210714Y-79304523D01*
X165331666Y-79244047D01*
X165392142Y-79183571D01*
X165452619Y-79062619D01*
X165452619Y-78820714D01*
X165392142Y-78699761D01*
X165331666Y-78639285D01*
X165210714Y-78578809D01*
X142803333Y-56434523D02*
X142803333Y-55164523D01*
X143105714Y-55164523D01*
X143287142Y-55225000D01*
X143408095Y-55345952D01*
X143468571Y-55466904D01*
X143529047Y-55708809D01*
X143529047Y-55890238D01*
X143468571Y-56132142D01*
X143408095Y-56253095D01*
X143287142Y-56374047D01*
X143105714Y-56434523D01*
X142803333Y-56434523D01*
X144012857Y-56071666D02*
X144617619Y-56071666D01*
X143891904Y-56434523D02*
X144315238Y-55164523D01*
X144738571Y-56434523D01*
X145887619Y-56313571D02*
X145827142Y-56374047D01*
X145645714Y-56434523D01*
X145524761Y-56434523D01*
X145343333Y-56374047D01*
X145222380Y-56253095D01*
X145161904Y-56132142D01*
X145101428Y-55890238D01*
X145101428Y-55708809D01*
X145161904Y-55466904D01*
X145222380Y-55345952D01*
X145343333Y-55225000D01*
X145524761Y-55164523D01*
X145645714Y-55164523D01*
X145827142Y-55225000D01*
X145887619Y-55285476D01*
X146371428Y-55285476D02*
X146431904Y-55225000D01*
X146552857Y-55164523D01*
X146855238Y-55164523D01*
X146976190Y-55225000D01*
X147036666Y-55285476D01*
X147097142Y-55406428D01*
X147097142Y-55527380D01*
X147036666Y-55708809D01*
X146310952Y-56434523D01*
X147097142Y-56434523D01*
X151603571Y-78666428D02*
X151664047Y-78726904D01*
X151724523Y-78908333D01*
X151724523Y-79029285D01*
X151664047Y-79210714D01*
X151543095Y-79331666D01*
X151422142Y-79392142D01*
X151180238Y-79452619D01*
X150998809Y-79452619D01*
X150756904Y-79392142D01*
X150635952Y-79331666D01*
X150515000Y-79210714D01*
X150454523Y-79029285D01*
X150454523Y-78908333D01*
X150515000Y-78726904D01*
X150575476Y-78666428D01*
X151724523Y-77456904D02*
X151724523Y-78182619D01*
X151724523Y-77819761D02*
X150454523Y-77819761D01*
X150635952Y-77940714D01*
X150756904Y-78061666D01*
X150817380Y-78182619D01*
X150454523Y-76368333D02*
X150454523Y-76610238D01*
X150515000Y-76731190D01*
X150575476Y-76791666D01*
X150756904Y-76912619D01*
X150998809Y-76973095D01*
X151482619Y-76973095D01*
X151603571Y-76912619D01*
X151664047Y-76852142D01*
X151724523Y-76731190D01*
X151724523Y-76489285D01*
X151664047Y-76368333D01*
X151603571Y-76307857D01*
X151482619Y-76247380D01*
X151180238Y-76247380D01*
X151059285Y-76307857D01*
X150998809Y-76368333D01*
X150938333Y-76489285D01*
X150938333Y-76731190D01*
X150998809Y-76852142D01*
X151059285Y-76912619D01*
X151180238Y-76973095D01*
X145848333Y-47153571D02*
X145787857Y-47214047D01*
X145606428Y-47274523D01*
X145485476Y-47274523D01*
X145304047Y-47214047D01*
X145183095Y-47093095D01*
X145122619Y-46972142D01*
X145062142Y-46730238D01*
X145062142Y-46548809D01*
X145122619Y-46306904D01*
X145183095Y-46185952D01*
X145304047Y-46065000D01*
X145485476Y-46004523D01*
X145606428Y-46004523D01*
X145787857Y-46065000D01*
X145848333Y-46125476D01*
X147057857Y-47274523D02*
X146332142Y-47274523D01*
X146695000Y-47274523D02*
X146695000Y-46004523D01*
X146574047Y-46185952D01*
X146453095Y-46306904D01*
X146332142Y-46367380D01*
X197269285Y-42718095D02*
X197329761Y-42536666D01*
X197390238Y-42476190D01*
X197511190Y-42415714D01*
X197692619Y-42415714D01*
X197813571Y-42476190D01*
X197874047Y-42536666D01*
X197934523Y-42657619D01*
X197934523Y-43141428D01*
X196664523Y-43141428D01*
X196664523Y-42718095D01*
X196725000Y-42597142D01*
X196785476Y-42536666D01*
X196906428Y-42476190D01*
X197027380Y-42476190D01*
X197148333Y-42536666D01*
X197208809Y-42597142D01*
X197269285Y-42718095D01*
X197269285Y-43141428D01*
X196664523Y-41871428D02*
X197692619Y-41871428D01*
X197813571Y-41810952D01*
X197874047Y-41750476D01*
X197934523Y-41629523D01*
X197934523Y-41387619D01*
X197874047Y-41266666D01*
X197813571Y-41206190D01*
X197692619Y-41145714D01*
X196664523Y-41145714D01*
X197874047Y-40601428D02*
X197934523Y-40420000D01*
X197934523Y-40117619D01*
X197874047Y-39996666D01*
X197813571Y-39936190D01*
X197692619Y-39875714D01*
X197571666Y-39875714D01*
X197450714Y-39936190D01*
X197390238Y-39996666D01*
X197329761Y-40117619D01*
X197269285Y-40359523D01*
X197208809Y-40480476D01*
X197148333Y-40540952D01*
X197027380Y-40601428D01*
X196906428Y-40601428D01*
X196785476Y-40540952D01*
X196725000Y-40480476D01*
X196664523Y-40359523D01*
X196664523Y-40057142D01*
X196725000Y-39875714D01*
X197813571Y-38605714D02*
X197874047Y-38666190D01*
X197934523Y-38847619D01*
X197934523Y-38968571D01*
X197874047Y-39150000D01*
X197753095Y-39270952D01*
X197632142Y-39331428D01*
X197390238Y-39391904D01*
X197208809Y-39391904D01*
X196966904Y-39331428D01*
X196845952Y-39270952D01*
X196725000Y-39150000D01*
X196664523Y-38968571D01*
X196664523Y-38847619D01*
X196725000Y-38666190D01*
X196785476Y-38605714D01*
X197934523Y-38061428D02*
X196664523Y-38061428D01*
X197934523Y-37335714D01*
X196664523Y-37335714D01*
X196664523Y-36912380D02*
X196664523Y-36186666D01*
X197934523Y-36549523D02*
X196664523Y-36549523D01*
X197934523Y-35098095D02*
X197934523Y-35823809D01*
X197934523Y-35460952D02*
X196664523Y-35460952D01*
X196845952Y-35581904D01*
X196966904Y-35702857D01*
X197027380Y-35823809D01*
X164413571Y-70484523D02*
X163990238Y-69879761D01*
X163687857Y-70484523D02*
X163687857Y-69214523D01*
X164171666Y-69214523D01*
X164292619Y-69275000D01*
X164353095Y-69335476D01*
X164413571Y-69456428D01*
X164413571Y-69637857D01*
X164353095Y-69758809D01*
X164292619Y-69819285D01*
X164171666Y-69879761D01*
X163687857Y-69879761D01*
X164836904Y-69214523D02*
X165623095Y-69214523D01*
X165199761Y-69698333D01*
X165381190Y-69698333D01*
X165502142Y-69758809D01*
X165562619Y-69819285D01*
X165623095Y-69940238D01*
X165623095Y-70242619D01*
X165562619Y-70363571D01*
X165502142Y-70424047D01*
X165381190Y-70484523D01*
X165018333Y-70484523D01*
X164897380Y-70424047D01*
X164836904Y-70363571D01*
X166409285Y-69214523D02*
X166530238Y-69214523D01*
X166651190Y-69275000D01*
X166711666Y-69335476D01*
X166772142Y-69456428D01*
X166832619Y-69698333D01*
X166832619Y-70000714D01*
X166772142Y-70242619D01*
X166711666Y-70363571D01*
X166651190Y-70424047D01*
X166530238Y-70484523D01*
X166409285Y-70484523D01*
X166288333Y-70424047D01*
X166227857Y-70363571D01*
X166167380Y-70242619D01*
X166106904Y-70000714D01*
X166106904Y-69698333D01*
X166167380Y-69456428D01*
X166227857Y-69335476D01*
X166288333Y-69275000D01*
X166409285Y-69214523D01*
M02*
