G04 #@! TF.GenerationSoftware,KiCad,Pcbnew,5.1.4-e60b266~84~ubuntu19.04.1*
G04 #@! TF.CreationDate,2019-10-22T08:35:31-04:00*
G04 #@! TF.ProjectId,Forward_acceleration_board,466f7277-6172-4645-9f61-6363656c6572,rev?*
G04 #@! TF.SameCoordinates,Original*
G04 #@! TF.FileFunction,Copper,L2,Inr*
G04 #@! TF.FilePolarity,Positive*
%FSLAX46Y46*%
G04 Gerber Fmt 4.6, Leading zero omitted, Abs format (unit mm)*
G04 Created by KiCad (PCBNEW 5.1.4-e60b266~84~ubuntu19.04.1) date 2019-10-22 08:35:31*
%MOMM*%
%LPD*%
G04 APERTURE LIST*
%ADD10C,0.800000*%
%ADD11C,0.254000*%
G04 APERTURE END LIST*
D10*
X261650000Y-180802000D03*
X224650000Y-71700000D03*
X151050000Y-55175000D03*
X188722000Y-40894000D03*
X156464000Y-71374000D03*
X171697930Y-55365929D03*
X143400000Y-76200000D03*
X169825000Y-39250000D03*
X144275000Y-44425000D03*
X226750000Y-68475000D03*
X110225000Y-121325000D03*
X160675000Y-76875000D03*
X231375000Y-65475000D03*
X219250000Y-62050000D03*
X216950000Y-69500000D03*
X188971789Y-65401211D03*
X144625000Y-71050000D03*
X174958244Y-60606794D03*
X173418660Y-64706660D03*
X179900000Y-77650000D03*
X145350000Y-59925000D03*
X163763419Y-68186262D03*
X145600009Y-65262660D03*
X237175000Y-73050000D03*
X226725000Y-59000000D03*
X225883000Y-55080000D03*
X145288000Y-49784000D03*
X162450000Y-54100000D03*
X109310000Y-106620000D03*
X191770000Y-54102000D03*
X179832000Y-51816000D03*
X172974000Y-52324000D03*
X178863000Y-48795000D03*
X156650082Y-53225000D03*
X137450000Y-79560000D03*
X106980000Y-255260000D03*
X105498000Y-181113978D03*
X147650000Y-69150000D03*
X155282000Y-71386000D03*
X108038000Y-106692000D03*
X261708000Y-254012000D03*
X251548000Y-105168000D03*
X230200000Y-71975000D03*
X224400000Y-66750000D03*
X232775000Y-67225000D03*
X143100000Y-67950000D03*
X163900000Y-70775000D03*
X173425000Y-53275000D03*
X142675000Y-63550000D03*
X161275000Y-78000000D03*
X230200000Y-68150000D03*
X186690000Y-40699989D03*
X143275000Y-74950000D03*
X217775000Y-72900000D03*
X159350000Y-52425000D03*
X150850000Y-71325000D03*
X169725000Y-40825000D03*
X187665988Y-65339502D03*
X237050000Y-74625000D03*
X221565000Y-69304000D03*
X224613000Y-59652000D03*
X146558000Y-45466000D03*
X150114000Y-55880000D03*
X190758650Y-53596260D03*
X181356000Y-67056000D03*
X178054000Y-49530000D03*
X212250000Y-68750000D03*
X172775000Y-61375000D03*
X192532000Y-45466000D03*
X179578000Y-56134000D03*
X158850000Y-64725000D03*
X178100000Y-59275000D03*
X171075000Y-60000010D03*
X156750000Y-65800000D03*
X174153091Y-60013706D03*
X154425000Y-74175000D03*
X217500000Y-65650000D03*
X178657353Y-61735702D03*
X225025000Y-72950000D03*
X223200000Y-74375000D03*
X178200000Y-62625000D03*
X176024101Y-64541726D03*
X226400000Y-73150000D03*
X230200000Y-73225000D03*
X159650000Y-75175000D03*
X176375000Y-66950000D03*
X154325000Y-59150000D03*
X181975000Y-54850000D03*
X214350000Y-58649990D03*
X217200000Y-57850000D03*
X182000000Y-56000000D03*
X154225000Y-60500000D03*
X178500000Y-55600000D03*
X177725000Y-54800000D03*
X138700000Y-39650000D03*
X136875000Y-39575000D03*
X221525000Y-70825000D03*
X230375000Y-70600000D03*
X140474840Y-58749840D03*
X143175000Y-66425000D03*
X162975000Y-72825000D03*
X144400000Y-60550000D03*
X143878412Y-61824454D03*
X147950000Y-63025000D03*
X236525000Y-67400000D03*
X225150000Y-68000000D03*
D11*
G36*
X248372361Y-85490262D02*
G01*
X234587161Y-85150545D01*
X234514300Y-85050260D01*
X233867170Y-84292568D01*
X233757432Y-84182830D01*
X233757424Y-84182824D01*
X232999740Y-83535700D01*
X232874187Y-83444480D01*
X232874177Y-83444475D01*
X232024597Y-82923852D01*
X232024592Y-82923848D01*
X231886314Y-82853392D01*
X230965732Y-82472074D01*
X230818136Y-82424117D01*
X230818133Y-82424117D01*
X229849240Y-82191506D01*
X229849237Y-82191505D01*
X229828278Y-82188186D01*
X229695955Y-82167227D01*
X229695942Y-82167227D01*
X228712279Y-82089811D01*
X228673584Y-82086000D01*
X139676416Y-82086000D01*
X139637721Y-82089811D01*
X138654045Y-82167228D01*
X138500763Y-82191505D01*
X137531867Y-82424117D01*
X137531864Y-82424117D01*
X137384268Y-82472074D01*
X136739324Y-82739219D01*
X135253949Y-82702614D01*
X135229120Y-82704443D01*
X135205125Y-82711081D01*
X135182885Y-82722272D01*
X135163257Y-82737587D01*
X135146994Y-82756438D01*
X135134720Y-82778098D01*
X135126908Y-82801737D01*
X135123823Y-82828703D01*
X135117602Y-83734409D01*
X134592568Y-84182830D01*
X134482830Y-84292568D01*
X134482824Y-84292576D01*
X133835700Y-85050260D01*
X133744480Y-85175813D01*
X133744475Y-85175823D01*
X133223852Y-86025403D01*
X133223848Y-86025408D01*
X133153392Y-86163686D01*
X132772074Y-87084268D01*
X132724117Y-87231865D01*
X132491506Y-88200760D01*
X132491505Y-88200763D01*
X132489284Y-88214784D01*
X132467227Y-88354045D01*
X132467227Y-88354058D01*
X132389807Y-89337772D01*
X132386001Y-89376416D01*
X132386000Y-254486145D01*
X132316977Y-255363165D01*
X132120706Y-256180694D01*
X131798960Y-256957457D01*
X131359665Y-257674320D01*
X130813637Y-258313636D01*
X130174317Y-258859668D01*
X129457457Y-259298960D01*
X128680695Y-259620705D01*
X127863165Y-259816977D01*
X126986145Y-259886000D01*
X88963855Y-259886000D01*
X88086835Y-259816977D01*
X87269306Y-259620706D01*
X86492543Y-259298960D01*
X85775680Y-258859665D01*
X85136364Y-258313637D01*
X84590332Y-257674317D01*
X84151040Y-256957457D01*
X83829295Y-256180695D01*
X83633023Y-255363165D01*
X83614913Y-255133045D01*
X105691000Y-255133045D01*
X105691000Y-255386955D01*
X105740535Y-255635987D01*
X105837703Y-255870570D01*
X105978768Y-256081690D01*
X106158310Y-256261232D01*
X106369430Y-256402297D01*
X106604013Y-256499465D01*
X106853045Y-256549000D01*
X107106955Y-256549000D01*
X107355987Y-256499465D01*
X107590570Y-256402297D01*
X107801690Y-256261232D01*
X107981232Y-256081690D01*
X108122297Y-255870570D01*
X108219465Y-255635987D01*
X108269000Y-255386955D01*
X108269000Y-255133045D01*
X108219465Y-254884013D01*
X108122297Y-254649430D01*
X107981232Y-254438310D01*
X107801690Y-254258768D01*
X107590570Y-254117703D01*
X107355987Y-254020535D01*
X107106955Y-253971000D01*
X106853045Y-253971000D01*
X106604013Y-254020535D01*
X106369430Y-254117703D01*
X106158310Y-254258768D01*
X105978768Y-254438310D01*
X105837703Y-254649430D01*
X105740535Y-254884013D01*
X105691000Y-255133045D01*
X83614913Y-255133045D01*
X83564000Y-254486145D01*
X83564000Y-190730685D01*
X89061000Y-190730685D01*
X89061000Y-191329315D01*
X89177787Y-191916443D01*
X89406874Y-192469506D01*
X89739455Y-192967249D01*
X90162751Y-193390545D01*
X90660494Y-193723126D01*
X91213557Y-193952213D01*
X91800685Y-194069000D01*
X92399315Y-194069000D01*
X92986443Y-193952213D01*
X93539506Y-193723126D01*
X94037249Y-193390545D01*
X94460545Y-192967249D01*
X94793126Y-192469506D01*
X95022213Y-191916443D01*
X95139000Y-191329315D01*
X95139000Y-190730685D01*
X95137011Y-190720685D01*
X120791000Y-190720685D01*
X120791000Y-191319315D01*
X120907787Y-191906443D01*
X121136874Y-192459506D01*
X121469455Y-192957249D01*
X121892751Y-193380545D01*
X122390494Y-193713126D01*
X122943557Y-193942213D01*
X123530685Y-194059000D01*
X124129315Y-194059000D01*
X124716443Y-193942213D01*
X125269506Y-193713126D01*
X125767249Y-193380545D01*
X126190545Y-192957249D01*
X126523126Y-192459506D01*
X126752213Y-191906443D01*
X126869000Y-191319315D01*
X126869000Y-190720685D01*
X126752213Y-190133557D01*
X126523126Y-189580494D01*
X126190545Y-189082751D01*
X125767249Y-188659455D01*
X125269506Y-188326874D01*
X124716443Y-188097787D01*
X124129315Y-187981000D01*
X123530685Y-187981000D01*
X122943557Y-188097787D01*
X122390494Y-188326874D01*
X121892751Y-188659455D01*
X121469455Y-189082751D01*
X121136874Y-189580494D01*
X120907787Y-190133557D01*
X120791000Y-190720685D01*
X95137011Y-190720685D01*
X95022213Y-190143557D01*
X94793126Y-189590494D01*
X94460545Y-189092751D01*
X94037249Y-188669455D01*
X93539506Y-188336874D01*
X92986443Y-188107787D01*
X92399315Y-187991000D01*
X91800685Y-187991000D01*
X91213557Y-188107787D01*
X90660494Y-188336874D01*
X90162751Y-188669455D01*
X89739455Y-189092751D01*
X89406874Y-189590494D01*
X89177787Y-190143557D01*
X89061000Y-190730685D01*
X83564000Y-190730685D01*
X83564000Y-180987023D01*
X104209000Y-180987023D01*
X104209000Y-181240933D01*
X104258535Y-181489965D01*
X104355703Y-181724548D01*
X104496768Y-181935668D01*
X104676310Y-182115210D01*
X104887430Y-182256275D01*
X105122013Y-182353443D01*
X105371045Y-182402978D01*
X105624955Y-182402978D01*
X105873987Y-182353443D01*
X106108570Y-182256275D01*
X106319690Y-182115210D01*
X106499232Y-181935668D01*
X106640297Y-181724548D01*
X106737465Y-181489965D01*
X106787000Y-181240933D01*
X106787000Y-180987023D01*
X106737465Y-180737991D01*
X106640297Y-180503408D01*
X106499232Y-180292288D01*
X106319690Y-180112746D01*
X106108570Y-179971681D01*
X105873987Y-179874513D01*
X105624955Y-179824978D01*
X105371045Y-179824978D01*
X105122013Y-179874513D01*
X104887430Y-179971681D01*
X104676310Y-180112746D01*
X104496768Y-180292288D01*
X104355703Y-180503408D01*
X104258535Y-180737991D01*
X104209000Y-180987023D01*
X83564000Y-180987023D01*
X83564000Y-128242410D01*
X83604769Y-121198045D01*
X108936000Y-121198045D01*
X108936000Y-121451955D01*
X108985535Y-121700987D01*
X109082703Y-121935570D01*
X109223768Y-122146690D01*
X109403310Y-122326232D01*
X109614430Y-122467297D01*
X109849013Y-122564465D01*
X110098045Y-122614000D01*
X110351955Y-122614000D01*
X110600987Y-122564465D01*
X110835570Y-122467297D01*
X111046690Y-122326232D01*
X111226232Y-122146690D01*
X111367297Y-121935570D01*
X111464465Y-121700987D01*
X111514000Y-121451955D01*
X111514000Y-121198045D01*
X111464465Y-120949013D01*
X111367297Y-120714430D01*
X111226232Y-120503310D01*
X111046690Y-120323768D01*
X110835570Y-120182703D01*
X110600987Y-120085535D01*
X110351955Y-120036000D01*
X110098045Y-120036000D01*
X109849013Y-120085535D01*
X109614430Y-120182703D01*
X109403310Y-120323768D01*
X109223768Y-120503310D01*
X109082703Y-120714430D01*
X108985535Y-120949013D01*
X108936000Y-121198045D01*
X83604769Y-121198045D01*
X83689459Y-106565045D01*
X106749000Y-106565045D01*
X106749000Y-106818955D01*
X106798535Y-107067987D01*
X106895703Y-107302570D01*
X107036768Y-107513690D01*
X107216310Y-107693232D01*
X107427430Y-107834297D01*
X107662013Y-107931465D01*
X107911045Y-107981000D01*
X108164955Y-107981000D01*
X108413987Y-107931465D01*
X108648570Y-107834297D01*
X108734553Y-107776845D01*
X108934013Y-107859465D01*
X109183045Y-107909000D01*
X109436955Y-107909000D01*
X109685987Y-107859465D01*
X109920570Y-107762297D01*
X110131690Y-107621232D01*
X110311232Y-107441690D01*
X110452297Y-107230570D01*
X110549465Y-106995987D01*
X110599000Y-106746955D01*
X110599000Y-106493045D01*
X110549465Y-106244013D01*
X110452297Y-106009430D01*
X110311232Y-105798310D01*
X110131690Y-105618768D01*
X109920570Y-105477703D01*
X109685987Y-105380535D01*
X109436955Y-105331000D01*
X109183045Y-105331000D01*
X108934013Y-105380535D01*
X108699430Y-105477703D01*
X108613447Y-105535155D01*
X108413987Y-105452535D01*
X108164955Y-105403000D01*
X107911045Y-105403000D01*
X107662013Y-105452535D01*
X107427430Y-105549703D01*
X107216310Y-105690768D01*
X107036768Y-105870310D01*
X106895703Y-106081430D01*
X106798535Y-106316013D01*
X106749000Y-106565045D01*
X83689459Y-106565045D01*
X83716744Y-101850685D01*
X89081000Y-101850685D01*
X89081000Y-102449315D01*
X89197787Y-103036443D01*
X89426874Y-103589506D01*
X89759455Y-104087249D01*
X90182751Y-104510545D01*
X90680494Y-104843126D01*
X91233557Y-105072213D01*
X91820685Y-105189000D01*
X92419315Y-105189000D01*
X93006443Y-105072213D01*
X93559506Y-104843126D01*
X94057249Y-104510545D01*
X94480545Y-104087249D01*
X94813126Y-103589506D01*
X95042213Y-103036443D01*
X95159000Y-102449315D01*
X95159000Y-101850685D01*
X95149055Y-101800685D01*
X120831000Y-101800685D01*
X120831000Y-102399315D01*
X120947787Y-102986443D01*
X121176874Y-103539506D01*
X121509455Y-104037249D01*
X121932751Y-104460545D01*
X122430494Y-104793126D01*
X122983557Y-105022213D01*
X123570685Y-105139000D01*
X124169315Y-105139000D01*
X124756443Y-105022213D01*
X125309506Y-104793126D01*
X125807249Y-104460545D01*
X126230545Y-104037249D01*
X126563126Y-103539506D01*
X126792213Y-102986443D01*
X126909000Y-102399315D01*
X126909000Y-101800685D01*
X126792213Y-101213557D01*
X126563126Y-100660494D01*
X126230545Y-100162751D01*
X125807249Y-99739455D01*
X125309506Y-99406874D01*
X124756443Y-99177787D01*
X124169315Y-99061000D01*
X123570685Y-99061000D01*
X122983557Y-99177787D01*
X122430494Y-99406874D01*
X121932751Y-99739455D01*
X121509455Y-100162751D01*
X121176874Y-100660494D01*
X120947787Y-101213557D01*
X120831000Y-101800685D01*
X95149055Y-101800685D01*
X95042213Y-101263557D01*
X94813126Y-100710494D01*
X94480545Y-100212751D01*
X94057249Y-99789455D01*
X93559506Y-99456874D01*
X93006443Y-99227787D01*
X92419315Y-99111000D01*
X91820685Y-99111000D01*
X91233557Y-99227787D01*
X90680494Y-99456874D01*
X90182751Y-99789455D01*
X89759455Y-100212751D01*
X89426874Y-100710494D01*
X89197787Y-101263557D01*
X89081000Y-101850685D01*
X83716744Y-101850685D01*
X83826884Y-82820509D01*
X84929637Y-79433045D01*
X136161000Y-79433045D01*
X136161000Y-79686955D01*
X136210535Y-79935987D01*
X136307703Y-80170570D01*
X136448768Y-80381690D01*
X136628310Y-80561232D01*
X136839430Y-80702297D01*
X137074013Y-80799465D01*
X137323045Y-80849000D01*
X137576955Y-80849000D01*
X137825987Y-80799465D01*
X138060570Y-80702297D01*
X138271690Y-80561232D01*
X138451232Y-80381690D01*
X138592297Y-80170570D01*
X138689465Y-79935987D01*
X138739000Y-79686955D01*
X138739000Y-79433045D01*
X138689465Y-79184013D01*
X138592297Y-78949430D01*
X138451232Y-78738310D01*
X138271690Y-78558768D01*
X138060570Y-78417703D01*
X137825987Y-78320535D01*
X137576955Y-78271000D01*
X137323045Y-78271000D01*
X137074013Y-78320535D01*
X136839430Y-78417703D01*
X136628310Y-78558768D01*
X136448768Y-78738310D01*
X136307703Y-78949430D01*
X136210535Y-79184013D01*
X136161000Y-79433045D01*
X84929637Y-79433045D01*
X86023449Y-76073045D01*
X142111000Y-76073045D01*
X142111000Y-76326955D01*
X142160535Y-76575987D01*
X142257703Y-76810570D01*
X142398768Y-77021690D01*
X142578310Y-77201232D01*
X142789430Y-77342297D01*
X143024013Y-77439465D01*
X143273045Y-77489000D01*
X143526955Y-77489000D01*
X143775987Y-77439465D01*
X144010570Y-77342297D01*
X144221690Y-77201232D01*
X144401232Y-77021690D01*
X144542297Y-76810570D01*
X144639465Y-76575987D01*
X144689000Y-76326955D01*
X144689000Y-76073045D01*
X144639465Y-75824013D01*
X144542297Y-75589430D01*
X144401232Y-75378310D01*
X144221690Y-75198768D01*
X144010570Y-75057703D01*
X143775987Y-74960535D01*
X143526955Y-74911000D01*
X143273045Y-74911000D01*
X143024013Y-74960535D01*
X142789430Y-75057703D01*
X142578310Y-75198768D01*
X142398768Y-75378310D01*
X142257703Y-75589430D01*
X142160535Y-75824013D01*
X142111000Y-76073045D01*
X86023449Y-76073045D01*
X86083262Y-75889313D01*
X86088611Y-75864998D01*
X86089114Y-75840107D01*
X86084751Y-75815596D01*
X86075690Y-75792407D01*
X86062279Y-75771431D01*
X86045034Y-75753475D01*
X86024617Y-75739228D01*
X86001813Y-75729238D01*
X85977498Y-75723889D01*
X85949815Y-75723635D01*
X83564000Y-75963139D01*
X83564000Y-74048045D01*
X153136000Y-74048045D01*
X153136000Y-74301955D01*
X153185535Y-74550987D01*
X153282703Y-74785570D01*
X153423768Y-74996690D01*
X153603310Y-75176232D01*
X153814430Y-75317297D01*
X154049013Y-75414465D01*
X154298045Y-75464000D01*
X154551955Y-75464000D01*
X154800987Y-75414465D01*
X155035570Y-75317297D01*
X155246690Y-75176232D01*
X155374877Y-75048045D01*
X158361000Y-75048045D01*
X158361000Y-75301955D01*
X158410535Y-75550987D01*
X158507703Y-75785570D01*
X158648768Y-75996690D01*
X158828310Y-76176232D01*
X159039430Y-76317297D01*
X159274013Y-76414465D01*
X159455595Y-76450584D01*
X159435535Y-76499013D01*
X159386000Y-76748045D01*
X159386000Y-77001955D01*
X159435535Y-77250987D01*
X159532703Y-77485570D01*
X159673768Y-77696690D01*
X159853310Y-77876232D01*
X160064430Y-78017297D01*
X160299013Y-78114465D01*
X160548045Y-78164000D01*
X160801955Y-78164000D01*
X161050987Y-78114465D01*
X161285570Y-78017297D01*
X161496690Y-77876232D01*
X161676232Y-77696690D01*
X161792257Y-77523045D01*
X178611000Y-77523045D01*
X178611000Y-77776955D01*
X178660535Y-78025987D01*
X178757703Y-78260570D01*
X178898768Y-78471690D01*
X179078310Y-78651232D01*
X179289430Y-78792297D01*
X179524013Y-78889465D01*
X179773045Y-78939000D01*
X180026955Y-78939000D01*
X180275987Y-78889465D01*
X180510570Y-78792297D01*
X180721690Y-78651232D01*
X180901232Y-78471690D01*
X181042297Y-78260570D01*
X181139465Y-78025987D01*
X181189000Y-77776955D01*
X181189000Y-77523045D01*
X181139465Y-77274013D01*
X181042297Y-77039430D01*
X180901232Y-76828310D01*
X180721690Y-76648768D01*
X180510570Y-76507703D01*
X180275987Y-76410535D01*
X180026955Y-76361000D01*
X179773045Y-76361000D01*
X179524013Y-76410535D01*
X179289430Y-76507703D01*
X179078310Y-76648768D01*
X178898768Y-76828310D01*
X178757703Y-77039430D01*
X178660535Y-77274013D01*
X178611000Y-77523045D01*
X161792257Y-77523045D01*
X161817297Y-77485570D01*
X161914465Y-77250987D01*
X161964000Y-77001955D01*
X161964000Y-76748045D01*
X161914465Y-76499013D01*
X161817297Y-76264430D01*
X161676232Y-76053310D01*
X161496690Y-75873768D01*
X161285570Y-75732703D01*
X161050987Y-75635535D01*
X160869405Y-75599416D01*
X160889465Y-75550987D01*
X160939000Y-75301955D01*
X160939000Y-75048045D01*
X160889465Y-74799013D01*
X160792297Y-74564430D01*
X160651232Y-74353310D01*
X160545967Y-74248045D01*
X221911000Y-74248045D01*
X221911000Y-74501955D01*
X221960535Y-74750987D01*
X222057703Y-74985570D01*
X222198768Y-75196690D01*
X222378310Y-75376232D01*
X222589430Y-75517297D01*
X222824013Y-75614465D01*
X223073045Y-75664000D01*
X223326955Y-75664000D01*
X223575987Y-75614465D01*
X223810570Y-75517297D01*
X224021690Y-75376232D01*
X224201232Y-75196690D01*
X224342297Y-74985570D01*
X224439465Y-74750987D01*
X224489000Y-74501955D01*
X224489000Y-74248045D01*
X224461934Y-74111974D01*
X224649013Y-74189465D01*
X224898045Y-74239000D01*
X225151955Y-74239000D01*
X225400987Y-74189465D01*
X225553408Y-74126330D01*
X225578310Y-74151232D01*
X225789430Y-74292297D01*
X226024013Y-74389465D01*
X226273045Y-74439000D01*
X226526955Y-74439000D01*
X226775987Y-74389465D01*
X227010570Y-74292297D01*
X227221690Y-74151232D01*
X227401232Y-73971690D01*
X227542297Y-73760570D01*
X227639465Y-73525987D01*
X227689000Y-73276955D01*
X227689000Y-73023045D01*
X227639465Y-72774013D01*
X227542297Y-72539430D01*
X227401232Y-72328310D01*
X227221690Y-72148768D01*
X227010570Y-72007703D01*
X226775987Y-71910535D01*
X226526955Y-71861000D01*
X226273045Y-71861000D01*
X226024013Y-71910535D01*
X225913249Y-71956415D01*
X225934804Y-71848045D01*
X228911000Y-71848045D01*
X228911000Y-72101955D01*
X228960535Y-72350987D01*
X229057703Y-72585570D01*
X229067345Y-72600000D01*
X229057703Y-72614430D01*
X228960535Y-72849013D01*
X228911000Y-73098045D01*
X228911000Y-73351955D01*
X228960535Y-73600987D01*
X229057703Y-73835570D01*
X229198768Y-74046690D01*
X229378310Y-74226232D01*
X229589430Y-74367297D01*
X229824013Y-74464465D01*
X230073045Y-74514000D01*
X230326955Y-74514000D01*
X230575987Y-74464465D01*
X230810570Y-74367297D01*
X231021690Y-74226232D01*
X231201232Y-74046690D01*
X231342297Y-73835570D01*
X231439465Y-73600987D01*
X231489000Y-73351955D01*
X231489000Y-73098045D01*
X231454191Y-72923045D01*
X235886000Y-72923045D01*
X235886000Y-73176955D01*
X235935535Y-73425987D01*
X236032703Y-73660570D01*
X236173768Y-73871690D01*
X236353310Y-74051232D01*
X236564430Y-74192297D01*
X236799013Y-74289465D01*
X237048045Y-74339000D01*
X237301955Y-74339000D01*
X237550987Y-74289465D01*
X237785570Y-74192297D01*
X237996690Y-74051232D01*
X238176232Y-73871690D01*
X238317297Y-73660570D01*
X238414465Y-73425987D01*
X238464000Y-73176955D01*
X238464000Y-72923045D01*
X238414465Y-72674013D01*
X238317297Y-72439430D01*
X238176232Y-72228310D01*
X237996690Y-72048768D01*
X237785570Y-71907703D01*
X237550987Y-71810535D01*
X237301955Y-71761000D01*
X237048045Y-71761000D01*
X236799013Y-71810535D01*
X236564430Y-71907703D01*
X236353310Y-72048768D01*
X236173768Y-72228310D01*
X236032703Y-72439430D01*
X235935535Y-72674013D01*
X235886000Y-72923045D01*
X231454191Y-72923045D01*
X231439465Y-72849013D01*
X231342297Y-72614430D01*
X231332655Y-72600000D01*
X231342297Y-72585570D01*
X231439465Y-72350987D01*
X231489000Y-72101955D01*
X231489000Y-71848045D01*
X231439465Y-71599013D01*
X231369008Y-71428914D01*
X231376232Y-71421690D01*
X231517297Y-71210570D01*
X231614465Y-70975987D01*
X231664000Y-70726955D01*
X231664000Y-70473045D01*
X231614465Y-70224013D01*
X231517297Y-69989430D01*
X231376232Y-69778310D01*
X231196690Y-69598768D01*
X230985570Y-69457703D01*
X230750987Y-69360535D01*
X230501955Y-69311000D01*
X230248045Y-69311000D01*
X229999013Y-69360535D01*
X229764430Y-69457703D01*
X229553310Y-69598768D01*
X229373768Y-69778310D01*
X229232703Y-69989430D01*
X229135535Y-70224013D01*
X229086000Y-70473045D01*
X229086000Y-70726955D01*
X229135535Y-70975987D01*
X229205992Y-71146086D01*
X229198768Y-71153310D01*
X229057703Y-71364430D01*
X228960535Y-71599013D01*
X228911000Y-71848045D01*
X225934804Y-71848045D01*
X225939000Y-71826955D01*
X225939000Y-71573045D01*
X225889465Y-71324013D01*
X225792297Y-71089430D01*
X225651232Y-70878310D01*
X225471690Y-70698768D01*
X225260570Y-70557703D01*
X225025987Y-70460535D01*
X224776955Y-70411000D01*
X224523045Y-70411000D01*
X224274013Y-70460535D01*
X224039430Y-70557703D01*
X223828310Y-70698768D01*
X223648768Y-70878310D01*
X223507703Y-71089430D01*
X223410535Y-71324013D01*
X223361000Y-71573045D01*
X223361000Y-71826955D01*
X223410535Y-72075987D01*
X223507703Y-72310570D01*
X223648768Y-72521690D01*
X223771525Y-72644447D01*
X223736000Y-72823045D01*
X223736000Y-73076955D01*
X223763066Y-73213026D01*
X223575987Y-73135535D01*
X223326955Y-73086000D01*
X223073045Y-73086000D01*
X222824013Y-73135535D01*
X222589430Y-73232703D01*
X222378310Y-73373768D01*
X222198768Y-73553310D01*
X222057703Y-73764430D01*
X221960535Y-73999013D01*
X221911000Y-74248045D01*
X160545967Y-74248045D01*
X160471690Y-74173768D01*
X160260570Y-74032703D01*
X160025987Y-73935535D01*
X159776955Y-73886000D01*
X159523045Y-73886000D01*
X159274013Y-73935535D01*
X159039430Y-74032703D01*
X158828310Y-74173768D01*
X158648768Y-74353310D01*
X158507703Y-74564430D01*
X158410535Y-74799013D01*
X158361000Y-75048045D01*
X155374877Y-75048045D01*
X155426232Y-74996690D01*
X155567297Y-74785570D01*
X155664465Y-74550987D01*
X155714000Y-74301955D01*
X155714000Y-74048045D01*
X155664465Y-73799013D01*
X155567297Y-73564430D01*
X155426232Y-73353310D01*
X155246690Y-73173768D01*
X155035570Y-73032703D01*
X154800987Y-72935535D01*
X154551955Y-72886000D01*
X154298045Y-72886000D01*
X154049013Y-72935535D01*
X153814430Y-73032703D01*
X153603310Y-73173768D01*
X153423768Y-73353310D01*
X153282703Y-73564430D01*
X153185535Y-73799013D01*
X153136000Y-74048045D01*
X83564000Y-74048045D01*
X83564000Y-72698045D01*
X161686000Y-72698045D01*
X161686000Y-72951955D01*
X161735535Y-73200987D01*
X161832703Y-73435570D01*
X161973768Y-73646690D01*
X162153310Y-73826232D01*
X162364430Y-73967297D01*
X162599013Y-74064465D01*
X162848045Y-74114000D01*
X163101955Y-74114000D01*
X163350987Y-74064465D01*
X163585570Y-73967297D01*
X163796690Y-73826232D01*
X163976232Y-73646690D01*
X164117297Y-73435570D01*
X164214465Y-73200987D01*
X164264000Y-72951955D01*
X164264000Y-72698045D01*
X164214465Y-72449013D01*
X164117297Y-72214430D01*
X163976232Y-72003310D01*
X163796690Y-71823768D01*
X163585570Y-71682703D01*
X163350987Y-71585535D01*
X163101955Y-71536000D01*
X162848045Y-71536000D01*
X162599013Y-71585535D01*
X162364430Y-71682703D01*
X162153310Y-71823768D01*
X161973768Y-72003310D01*
X161832703Y-72214430D01*
X161735535Y-72449013D01*
X161686000Y-72698045D01*
X83564000Y-72698045D01*
X83564000Y-70923045D01*
X143336000Y-70923045D01*
X143336000Y-71176955D01*
X143385535Y-71425987D01*
X143482703Y-71660570D01*
X143623768Y-71871690D01*
X143803310Y-72051232D01*
X144014430Y-72192297D01*
X144249013Y-72289465D01*
X144498045Y-72339000D01*
X144751955Y-72339000D01*
X145000987Y-72289465D01*
X145235570Y-72192297D01*
X145446690Y-72051232D01*
X145626232Y-71871690D01*
X145767297Y-71660570D01*
X145864465Y-71425987D01*
X145897671Y-71259045D01*
X153993000Y-71259045D01*
X153993000Y-71512955D01*
X154042535Y-71761987D01*
X154139703Y-71996570D01*
X154280768Y-72207690D01*
X154460310Y-72387232D01*
X154671430Y-72528297D01*
X154906013Y-72625465D01*
X155155045Y-72675000D01*
X155408955Y-72675000D01*
X155657987Y-72625465D01*
X155887485Y-72530403D01*
X156088013Y-72613465D01*
X156337045Y-72663000D01*
X156590955Y-72663000D01*
X156839987Y-72613465D01*
X157074570Y-72516297D01*
X157285690Y-72375232D01*
X157465232Y-72195690D01*
X157606297Y-71984570D01*
X157703465Y-71749987D01*
X157753000Y-71500955D01*
X157753000Y-71247045D01*
X157703465Y-70998013D01*
X157606297Y-70763430D01*
X157465232Y-70552310D01*
X157285690Y-70372768D01*
X157074570Y-70231703D01*
X156839987Y-70134535D01*
X156590955Y-70085000D01*
X156337045Y-70085000D01*
X156088013Y-70134535D01*
X155858515Y-70229597D01*
X155657987Y-70146535D01*
X155408955Y-70097000D01*
X155155045Y-70097000D01*
X154906013Y-70146535D01*
X154671430Y-70243703D01*
X154460310Y-70384768D01*
X154280768Y-70564310D01*
X154139703Y-70775430D01*
X154042535Y-71010013D01*
X153993000Y-71259045D01*
X145897671Y-71259045D01*
X145914000Y-71176955D01*
X145914000Y-70923045D01*
X145864465Y-70674013D01*
X145767297Y-70439430D01*
X145626232Y-70228310D01*
X145446690Y-70048768D01*
X145235570Y-69907703D01*
X145000987Y-69810535D01*
X144751955Y-69761000D01*
X144498045Y-69761000D01*
X144249013Y-69810535D01*
X144014430Y-69907703D01*
X143803310Y-70048768D01*
X143623768Y-70228310D01*
X143482703Y-70439430D01*
X143385535Y-70674013D01*
X143336000Y-70923045D01*
X83564000Y-70923045D01*
X83564000Y-69023045D01*
X146361000Y-69023045D01*
X146361000Y-69276955D01*
X146410535Y-69525987D01*
X146507703Y-69760570D01*
X146648768Y-69971690D01*
X146828310Y-70151232D01*
X147039430Y-70292297D01*
X147274013Y-70389465D01*
X147523045Y-70439000D01*
X147776955Y-70439000D01*
X148025987Y-70389465D01*
X148260570Y-70292297D01*
X148471690Y-70151232D01*
X148651232Y-69971690D01*
X148792297Y-69760570D01*
X148889465Y-69525987D01*
X148939000Y-69276955D01*
X148939000Y-69023045D01*
X148889465Y-68774013D01*
X148792297Y-68539430D01*
X148651232Y-68328310D01*
X148471690Y-68148768D01*
X148337802Y-68059307D01*
X162474419Y-68059307D01*
X162474419Y-68313217D01*
X162523954Y-68562249D01*
X162621122Y-68796832D01*
X162762187Y-69007952D01*
X162941729Y-69187494D01*
X163152849Y-69328559D01*
X163387432Y-69425727D01*
X163636464Y-69475262D01*
X163890374Y-69475262D01*
X164139406Y-69425727D01*
X164266590Y-69373045D01*
X215661000Y-69373045D01*
X215661000Y-69626955D01*
X215710535Y-69875987D01*
X215807703Y-70110570D01*
X215948768Y-70321690D01*
X216128310Y-70501232D01*
X216339430Y-70642297D01*
X216574013Y-70739465D01*
X216823045Y-70789000D01*
X217076955Y-70789000D01*
X217325987Y-70739465D01*
X217425983Y-70698045D01*
X220236000Y-70698045D01*
X220236000Y-70951955D01*
X220285535Y-71200987D01*
X220382703Y-71435570D01*
X220523768Y-71646690D01*
X220703310Y-71826232D01*
X220914430Y-71967297D01*
X221149013Y-72064465D01*
X221398045Y-72114000D01*
X221651955Y-72114000D01*
X221900987Y-72064465D01*
X222135570Y-71967297D01*
X222346690Y-71826232D01*
X222526232Y-71646690D01*
X222667297Y-71435570D01*
X222764465Y-71200987D01*
X222814000Y-70951955D01*
X222814000Y-70698045D01*
X222764465Y-70449013D01*
X222667297Y-70214430D01*
X222526232Y-70003310D01*
X222346690Y-69823768D01*
X222135570Y-69682703D01*
X221900987Y-69585535D01*
X221651955Y-69536000D01*
X221398045Y-69536000D01*
X221149013Y-69585535D01*
X220914430Y-69682703D01*
X220703310Y-69823768D01*
X220523768Y-70003310D01*
X220382703Y-70214430D01*
X220285535Y-70449013D01*
X220236000Y-70698045D01*
X217425983Y-70698045D01*
X217560570Y-70642297D01*
X217771690Y-70501232D01*
X217951232Y-70321690D01*
X218092297Y-70110570D01*
X218189465Y-69875987D01*
X218239000Y-69626955D01*
X218239000Y-69373045D01*
X218189465Y-69124013D01*
X218092297Y-68889430D01*
X217951232Y-68678310D01*
X217771690Y-68498768D01*
X217560570Y-68357703D01*
X217325987Y-68260535D01*
X217076955Y-68211000D01*
X216823045Y-68211000D01*
X216574013Y-68260535D01*
X216339430Y-68357703D01*
X216128310Y-68498768D01*
X215948768Y-68678310D01*
X215807703Y-68889430D01*
X215710535Y-69124013D01*
X215661000Y-69373045D01*
X164266590Y-69373045D01*
X164373989Y-69328559D01*
X164585109Y-69187494D01*
X164764651Y-69007952D01*
X164905716Y-68796832D01*
X165002884Y-68562249D01*
X165052419Y-68313217D01*
X165052419Y-68059307D01*
X165002884Y-67810275D01*
X164905716Y-67575692D01*
X164764651Y-67364572D01*
X164585109Y-67185030D01*
X164373989Y-67043965D01*
X164139406Y-66946797D01*
X163890374Y-66897262D01*
X163636464Y-66897262D01*
X163387432Y-66946797D01*
X163152849Y-67043965D01*
X162941729Y-67185030D01*
X162762187Y-67364572D01*
X162621122Y-67575692D01*
X162523954Y-67810275D01*
X162474419Y-68059307D01*
X148337802Y-68059307D01*
X148260570Y-68007703D01*
X148025987Y-67910535D01*
X147776955Y-67861000D01*
X147523045Y-67861000D01*
X147274013Y-67910535D01*
X147039430Y-68007703D01*
X146828310Y-68148768D01*
X146648768Y-68328310D01*
X146507703Y-68539430D01*
X146410535Y-68774013D01*
X146361000Y-69023045D01*
X83564000Y-69023045D01*
X83564000Y-66298045D01*
X141886000Y-66298045D01*
X141886000Y-66551955D01*
X141935535Y-66800987D01*
X142032703Y-67035570D01*
X142173768Y-67246690D01*
X142353310Y-67426232D01*
X142564430Y-67567297D01*
X142799013Y-67664465D01*
X143048045Y-67714000D01*
X143301955Y-67714000D01*
X143550987Y-67664465D01*
X143785570Y-67567297D01*
X143996690Y-67426232D01*
X144176232Y-67246690D01*
X144317297Y-67035570D01*
X144414465Y-66800987D01*
X144464000Y-66551955D01*
X144464000Y-66298045D01*
X144414465Y-66049013D01*
X144317297Y-65814430D01*
X144176232Y-65603310D01*
X143996690Y-65423768D01*
X143785570Y-65282703D01*
X143550987Y-65185535D01*
X143301955Y-65136000D01*
X143048045Y-65136000D01*
X142799013Y-65185535D01*
X142564430Y-65282703D01*
X142353310Y-65423768D01*
X142173768Y-65603310D01*
X142032703Y-65814430D01*
X141935535Y-66049013D01*
X141886000Y-66298045D01*
X83564000Y-66298045D01*
X83564000Y-65135705D01*
X144311009Y-65135705D01*
X144311009Y-65389615D01*
X144360544Y-65638647D01*
X144457712Y-65873230D01*
X144598777Y-66084350D01*
X144778319Y-66263892D01*
X144989439Y-66404957D01*
X145224022Y-66502125D01*
X145473054Y-66551660D01*
X145726964Y-66551660D01*
X145975996Y-66502125D01*
X146210579Y-66404957D01*
X146421699Y-66263892D01*
X146601241Y-66084350D01*
X146742306Y-65873230D01*
X146825225Y-65673045D01*
X155461000Y-65673045D01*
X155461000Y-65926955D01*
X155510535Y-66175987D01*
X155607703Y-66410570D01*
X155748768Y-66621690D01*
X155928310Y-66801232D01*
X156139430Y-66942297D01*
X156374013Y-67039465D01*
X156623045Y-67089000D01*
X156876955Y-67089000D01*
X157125987Y-67039465D01*
X157360570Y-66942297D01*
X157571690Y-66801232D01*
X157751232Y-66621690D01*
X157892297Y-66410570D01*
X157989465Y-66175987D01*
X158039000Y-65926955D01*
X158039000Y-65733375D01*
X158239430Y-65867297D01*
X158474013Y-65964465D01*
X158723045Y-66014000D01*
X158976955Y-66014000D01*
X159225987Y-65964465D01*
X159460570Y-65867297D01*
X159671690Y-65726232D01*
X159851232Y-65546690D01*
X159992297Y-65335570D01*
X160089465Y-65100987D01*
X160139000Y-64851955D01*
X160139000Y-64598045D01*
X160135352Y-64579705D01*
X172129660Y-64579705D01*
X172129660Y-64833615D01*
X172179195Y-65082647D01*
X172276363Y-65317230D01*
X172417428Y-65528350D01*
X172596970Y-65707892D01*
X172808090Y-65848957D01*
X173042673Y-65946125D01*
X173291705Y-65995660D01*
X173545615Y-65995660D01*
X173794647Y-65946125D01*
X174029230Y-65848957D01*
X174240350Y-65707892D01*
X174419892Y-65528350D01*
X174560957Y-65317230D01*
X174658125Y-65082647D01*
X174707660Y-64833615D01*
X174707660Y-64579705D01*
X174674853Y-64414771D01*
X174735101Y-64414771D01*
X174735101Y-64668681D01*
X174784636Y-64917713D01*
X174881804Y-65152296D01*
X175022869Y-65363416D01*
X175202411Y-65542958D01*
X175413531Y-65684023D01*
X175648114Y-65781191D01*
X175769935Y-65805423D01*
X175764430Y-65807703D01*
X175553310Y-65948768D01*
X175373768Y-66128310D01*
X175232703Y-66339430D01*
X175135535Y-66574013D01*
X175086000Y-66823045D01*
X175086000Y-67076955D01*
X175135535Y-67325987D01*
X175232703Y-67560570D01*
X175373768Y-67771690D01*
X175553310Y-67951232D01*
X175764430Y-68092297D01*
X175999013Y-68189465D01*
X176248045Y-68239000D01*
X176501955Y-68239000D01*
X176750987Y-68189465D01*
X176985570Y-68092297D01*
X177196690Y-67951232D01*
X177376232Y-67771690D01*
X177517297Y-67560570D01*
X177614465Y-67325987D01*
X177664000Y-67076955D01*
X177664000Y-66823045D01*
X177614465Y-66574013D01*
X177517297Y-66339430D01*
X177376232Y-66128310D01*
X177196690Y-65948768D01*
X176985570Y-65807703D01*
X176750987Y-65710535D01*
X176629166Y-65686303D01*
X176634671Y-65684023D01*
X176845791Y-65542958D01*
X177025333Y-65363416D01*
X177084907Y-65274256D01*
X187682789Y-65274256D01*
X187682789Y-65528166D01*
X187732324Y-65777198D01*
X187829492Y-66011781D01*
X187970557Y-66222901D01*
X188150099Y-66402443D01*
X188361219Y-66543508D01*
X188595802Y-66640676D01*
X188844834Y-66690211D01*
X189098744Y-66690211D01*
X189347776Y-66640676D01*
X189582359Y-66543508D01*
X189793479Y-66402443D01*
X189973021Y-66222901D01*
X190114086Y-66011781D01*
X190211254Y-65777198D01*
X190260789Y-65528166D01*
X190260789Y-65523045D01*
X216211000Y-65523045D01*
X216211000Y-65776955D01*
X216260535Y-66025987D01*
X216357703Y-66260570D01*
X216498768Y-66471690D01*
X216678310Y-66651232D01*
X216889430Y-66792297D01*
X217124013Y-66889465D01*
X217373045Y-66939000D01*
X217626955Y-66939000D01*
X217875987Y-66889465D01*
X218110570Y-66792297D01*
X218321690Y-66651232D01*
X218349877Y-66623045D01*
X223111000Y-66623045D01*
X223111000Y-66876955D01*
X223160535Y-67125987D01*
X223257703Y-67360570D01*
X223398768Y-67571690D01*
X223578310Y-67751232D01*
X223789430Y-67892297D01*
X223861000Y-67921942D01*
X223861000Y-68126955D01*
X223910535Y-68375987D01*
X224007703Y-68610570D01*
X224148768Y-68821690D01*
X224328310Y-69001232D01*
X224539430Y-69142297D01*
X224774013Y-69239465D01*
X225023045Y-69289000D01*
X225276955Y-69289000D01*
X225525987Y-69239465D01*
X225670527Y-69179594D01*
X225748768Y-69296690D01*
X225928310Y-69476232D01*
X226139430Y-69617297D01*
X226374013Y-69714465D01*
X226623045Y-69764000D01*
X226876955Y-69764000D01*
X227125987Y-69714465D01*
X227360570Y-69617297D01*
X227571690Y-69476232D01*
X227751232Y-69296690D01*
X227892297Y-69085570D01*
X227989465Y-68850987D01*
X228039000Y-68601955D01*
X228039000Y-68348045D01*
X227989465Y-68099013D01*
X227892297Y-67864430D01*
X227751232Y-67653310D01*
X227571690Y-67473768D01*
X227360570Y-67332703D01*
X227125987Y-67235535D01*
X226876955Y-67186000D01*
X226623045Y-67186000D01*
X226374013Y-67235535D01*
X226229473Y-67295406D01*
X226151232Y-67178310D01*
X225971690Y-66998768D01*
X225760570Y-66857703D01*
X225689000Y-66828058D01*
X225689000Y-66623045D01*
X225639465Y-66374013D01*
X225542297Y-66139430D01*
X225401232Y-65928310D01*
X225221690Y-65748768D01*
X225010570Y-65607703D01*
X224775987Y-65510535D01*
X224526955Y-65461000D01*
X224273045Y-65461000D01*
X224024013Y-65510535D01*
X223789430Y-65607703D01*
X223578310Y-65748768D01*
X223398768Y-65928310D01*
X223257703Y-66139430D01*
X223160535Y-66374013D01*
X223111000Y-66623045D01*
X218349877Y-66623045D01*
X218501232Y-66471690D01*
X218642297Y-66260570D01*
X218739465Y-66025987D01*
X218789000Y-65776955D01*
X218789000Y-65523045D01*
X218754191Y-65348045D01*
X230086000Y-65348045D01*
X230086000Y-65601955D01*
X230135535Y-65850987D01*
X230232703Y-66085570D01*
X230373768Y-66296690D01*
X230553310Y-66476232D01*
X230764430Y-66617297D01*
X230999013Y-66714465D01*
X231248045Y-66764000D01*
X231501955Y-66764000D01*
X231576926Y-66749088D01*
X231535535Y-66849013D01*
X231486000Y-67098045D01*
X231486000Y-67351955D01*
X231535535Y-67600987D01*
X231632703Y-67835570D01*
X231773768Y-68046690D01*
X231953310Y-68226232D01*
X232164430Y-68367297D01*
X232399013Y-68464465D01*
X232648045Y-68514000D01*
X232901955Y-68514000D01*
X233150987Y-68464465D01*
X233385570Y-68367297D01*
X233596690Y-68226232D01*
X233776232Y-68046690D01*
X233917297Y-67835570D01*
X234014465Y-67600987D01*
X234064000Y-67351955D01*
X234064000Y-67273045D01*
X235236000Y-67273045D01*
X235236000Y-67526955D01*
X235285535Y-67775987D01*
X235382703Y-68010570D01*
X235523768Y-68221690D01*
X235703310Y-68401232D01*
X235914430Y-68542297D01*
X236149013Y-68639465D01*
X236398045Y-68689000D01*
X236651955Y-68689000D01*
X236900987Y-68639465D01*
X237135570Y-68542297D01*
X237346690Y-68401232D01*
X237526232Y-68221690D01*
X237667297Y-68010570D01*
X237764465Y-67775987D01*
X237814000Y-67526955D01*
X237814000Y-67273045D01*
X237764465Y-67024013D01*
X237667297Y-66789430D01*
X237526232Y-66578310D01*
X237346690Y-66398768D01*
X237135570Y-66257703D01*
X236900987Y-66160535D01*
X236651955Y-66111000D01*
X236398045Y-66111000D01*
X236149013Y-66160535D01*
X235914430Y-66257703D01*
X235703310Y-66398768D01*
X235523768Y-66578310D01*
X235382703Y-66789430D01*
X235285535Y-67024013D01*
X235236000Y-67273045D01*
X234064000Y-67273045D01*
X234064000Y-67098045D01*
X234014465Y-66849013D01*
X233917297Y-66614430D01*
X233776232Y-66403310D01*
X233596690Y-66223768D01*
X233385570Y-66082703D01*
X233150987Y-65985535D01*
X232901955Y-65936000D01*
X232648045Y-65936000D01*
X232573074Y-65950912D01*
X232614465Y-65850987D01*
X232664000Y-65601955D01*
X232664000Y-65348045D01*
X232614465Y-65099013D01*
X232517297Y-64864430D01*
X232376232Y-64653310D01*
X232196690Y-64473768D01*
X231985570Y-64332703D01*
X231750987Y-64235535D01*
X231501955Y-64186000D01*
X231248045Y-64186000D01*
X230999013Y-64235535D01*
X230764430Y-64332703D01*
X230553310Y-64473768D01*
X230373768Y-64653310D01*
X230232703Y-64864430D01*
X230135535Y-65099013D01*
X230086000Y-65348045D01*
X218754191Y-65348045D01*
X218739465Y-65274013D01*
X218642297Y-65039430D01*
X218501232Y-64828310D01*
X218321690Y-64648768D01*
X218110570Y-64507703D01*
X217875987Y-64410535D01*
X217626955Y-64361000D01*
X217373045Y-64361000D01*
X217124013Y-64410535D01*
X216889430Y-64507703D01*
X216678310Y-64648768D01*
X216498768Y-64828310D01*
X216357703Y-65039430D01*
X216260535Y-65274013D01*
X216211000Y-65523045D01*
X190260789Y-65523045D01*
X190260789Y-65274256D01*
X190211254Y-65025224D01*
X190114086Y-64790641D01*
X189973021Y-64579521D01*
X189793479Y-64399979D01*
X189582359Y-64258914D01*
X189347776Y-64161746D01*
X189098744Y-64112211D01*
X188844834Y-64112211D01*
X188595802Y-64161746D01*
X188361219Y-64258914D01*
X188150099Y-64399979D01*
X187970557Y-64579521D01*
X187829492Y-64790641D01*
X187732324Y-65025224D01*
X187682789Y-65274256D01*
X177084907Y-65274256D01*
X177166398Y-65152296D01*
X177263566Y-64917713D01*
X177313101Y-64668681D01*
X177313101Y-64414771D01*
X177263566Y-64165739D01*
X177166398Y-63931156D01*
X177025333Y-63720036D01*
X176845791Y-63540494D01*
X176634671Y-63399429D01*
X176400088Y-63302261D01*
X176151056Y-63252726D01*
X175897146Y-63252726D01*
X175648114Y-63302261D01*
X175413531Y-63399429D01*
X175202411Y-63540494D01*
X175022869Y-63720036D01*
X174881804Y-63931156D01*
X174784636Y-64165739D01*
X174735101Y-64414771D01*
X174674853Y-64414771D01*
X174658125Y-64330673D01*
X174560957Y-64096090D01*
X174419892Y-63884970D01*
X174240350Y-63705428D01*
X174029230Y-63564363D01*
X173794647Y-63467195D01*
X173545615Y-63417660D01*
X173291705Y-63417660D01*
X173042673Y-63467195D01*
X172808090Y-63564363D01*
X172596970Y-63705428D01*
X172417428Y-63884970D01*
X172276363Y-64096090D01*
X172179195Y-64330673D01*
X172129660Y-64579705D01*
X160135352Y-64579705D01*
X160089465Y-64349013D01*
X159992297Y-64114430D01*
X159851232Y-63903310D01*
X159671690Y-63723768D01*
X159460570Y-63582703D01*
X159225987Y-63485535D01*
X158976955Y-63436000D01*
X158723045Y-63436000D01*
X158474013Y-63485535D01*
X158239430Y-63582703D01*
X158028310Y-63723768D01*
X157848768Y-63903310D01*
X157707703Y-64114430D01*
X157610535Y-64349013D01*
X157561000Y-64598045D01*
X157561000Y-64791625D01*
X157360570Y-64657703D01*
X157125987Y-64560535D01*
X156876955Y-64511000D01*
X156623045Y-64511000D01*
X156374013Y-64560535D01*
X156139430Y-64657703D01*
X155928310Y-64798768D01*
X155748768Y-64978310D01*
X155607703Y-65189430D01*
X155510535Y-65424013D01*
X155461000Y-65673045D01*
X146825225Y-65673045D01*
X146839474Y-65638647D01*
X146889009Y-65389615D01*
X146889009Y-65135705D01*
X146839474Y-64886673D01*
X146742306Y-64652090D01*
X146601241Y-64440970D01*
X146421699Y-64261428D01*
X146210579Y-64120363D01*
X145975996Y-64023195D01*
X145726964Y-63973660D01*
X145473054Y-63973660D01*
X145224022Y-64023195D01*
X144989439Y-64120363D01*
X144778319Y-64261428D01*
X144598777Y-64440970D01*
X144457712Y-64652090D01*
X144360544Y-64886673D01*
X144311009Y-65135705D01*
X83564000Y-65135705D01*
X83564000Y-61697499D01*
X142589412Y-61697499D01*
X142589412Y-61951409D01*
X142638947Y-62200441D01*
X142736115Y-62435024D01*
X142877180Y-62646144D01*
X143056722Y-62825686D01*
X143267842Y-62966751D01*
X143502425Y-63063919D01*
X143751457Y-63113454D01*
X144005367Y-63113454D01*
X144254399Y-63063919D01*
X144488982Y-62966751D01*
X144591808Y-62898045D01*
X146661000Y-62898045D01*
X146661000Y-63151955D01*
X146710535Y-63400987D01*
X146807703Y-63635570D01*
X146948768Y-63846690D01*
X147128310Y-64026232D01*
X147339430Y-64167297D01*
X147574013Y-64264465D01*
X147823045Y-64314000D01*
X148076955Y-64314000D01*
X148325987Y-64264465D01*
X148560570Y-64167297D01*
X148771690Y-64026232D01*
X148951232Y-63846690D01*
X149092297Y-63635570D01*
X149189465Y-63400987D01*
X149239000Y-63151955D01*
X149239000Y-62898045D01*
X149189465Y-62649013D01*
X149092297Y-62414430D01*
X148951232Y-62203310D01*
X148771690Y-62023768D01*
X148560570Y-61882703D01*
X148325987Y-61785535D01*
X148076955Y-61736000D01*
X147823045Y-61736000D01*
X147574013Y-61785535D01*
X147339430Y-61882703D01*
X147128310Y-62023768D01*
X146948768Y-62203310D01*
X146807703Y-62414430D01*
X146710535Y-62649013D01*
X146661000Y-62898045D01*
X144591808Y-62898045D01*
X144700102Y-62825686D01*
X144879644Y-62646144D01*
X145020709Y-62435024D01*
X145117877Y-62200441D01*
X145167412Y-61951409D01*
X145167412Y-61697499D01*
X145148099Y-61600404D01*
X145221690Y-61551232D01*
X145401232Y-61371690D01*
X145511140Y-61207200D01*
X145725987Y-61164465D01*
X145960570Y-61067297D01*
X146171690Y-60926232D01*
X146351232Y-60746690D01*
X146492297Y-60535570D01*
X146559617Y-60373045D01*
X152936000Y-60373045D01*
X152936000Y-60626955D01*
X152985535Y-60875987D01*
X153082703Y-61110570D01*
X153223768Y-61321690D01*
X153403310Y-61501232D01*
X153614430Y-61642297D01*
X153849013Y-61739465D01*
X154098045Y-61789000D01*
X154351955Y-61789000D01*
X154600987Y-61739465D01*
X154835570Y-61642297D01*
X155046690Y-61501232D01*
X155226232Y-61321690D01*
X155367297Y-61110570D01*
X155464465Y-60875987D01*
X155514000Y-60626955D01*
X155514000Y-60373045D01*
X155464465Y-60124013D01*
X155372616Y-59902271D01*
X155392137Y-59873055D01*
X169786000Y-59873055D01*
X169786000Y-60126965D01*
X169835535Y-60375997D01*
X169932703Y-60610580D01*
X170073768Y-60821700D01*
X170253310Y-61001242D01*
X170464430Y-61142307D01*
X170699013Y-61239475D01*
X170948045Y-61289010D01*
X171201955Y-61289010D01*
X171450987Y-61239475D01*
X171685570Y-61142307D01*
X171896690Y-61001242D01*
X172076232Y-60821700D01*
X172217297Y-60610580D01*
X172314465Y-60375997D01*
X172364000Y-60126965D01*
X172364000Y-59886751D01*
X172864091Y-59886751D01*
X172864091Y-60140661D01*
X172913626Y-60389693D01*
X173010794Y-60624276D01*
X173151859Y-60835396D01*
X173331401Y-61014938D01*
X173542521Y-61156003D01*
X173777104Y-61253171D01*
X173849493Y-61267570D01*
X173957012Y-61428484D01*
X174136554Y-61608026D01*
X174347674Y-61749091D01*
X174582257Y-61846259D01*
X174831289Y-61895794D01*
X175085199Y-61895794D01*
X175334231Y-61846259D01*
X175568814Y-61749091D01*
X175779934Y-61608026D01*
X175959476Y-61428484D01*
X176100541Y-61217364D01*
X176197709Y-60982781D01*
X176247244Y-60733749D01*
X176247244Y-60479839D01*
X176197709Y-60230807D01*
X176100541Y-59996224D01*
X175959476Y-59785104D01*
X175779934Y-59605562D01*
X175568814Y-59464497D01*
X175334231Y-59367329D01*
X175261842Y-59352930D01*
X175154323Y-59192016D01*
X175110352Y-59148045D01*
X176811000Y-59148045D01*
X176811000Y-59401955D01*
X176860535Y-59650987D01*
X176957703Y-59885570D01*
X177098768Y-60096690D01*
X177278310Y-60276232D01*
X177489430Y-60417297D01*
X177724013Y-60514465D01*
X177973045Y-60564000D01*
X178117773Y-60564000D01*
X178046783Y-60593405D01*
X177835663Y-60734470D01*
X177656121Y-60914012D01*
X177515056Y-61125132D01*
X177417888Y-61359715D01*
X177368353Y-61608747D01*
X177368353Y-61633725D01*
X177198768Y-61803310D01*
X177057703Y-62014430D01*
X176960535Y-62249013D01*
X176911000Y-62498045D01*
X176911000Y-62751955D01*
X176960535Y-63000987D01*
X177057703Y-63235570D01*
X177198768Y-63446690D01*
X177378310Y-63626232D01*
X177589430Y-63767297D01*
X177824013Y-63864465D01*
X178073045Y-63914000D01*
X178326955Y-63914000D01*
X178575987Y-63864465D01*
X178810570Y-63767297D01*
X179021690Y-63626232D01*
X179201232Y-63446690D01*
X179342297Y-63235570D01*
X179439465Y-63000987D01*
X179489000Y-62751955D01*
X179489000Y-62726977D01*
X179658585Y-62557392D01*
X179799650Y-62346272D01*
X179896818Y-62111689D01*
X179934341Y-61923045D01*
X217961000Y-61923045D01*
X217961000Y-62176955D01*
X218010535Y-62425987D01*
X218107703Y-62660570D01*
X218248768Y-62871690D01*
X218428310Y-63051232D01*
X218639430Y-63192297D01*
X218874013Y-63289465D01*
X219123045Y-63339000D01*
X219376955Y-63339000D01*
X219625987Y-63289465D01*
X219860570Y-63192297D01*
X220071690Y-63051232D01*
X220251232Y-62871690D01*
X220392297Y-62660570D01*
X220489465Y-62425987D01*
X220539000Y-62176955D01*
X220539000Y-61923045D01*
X220489465Y-61674013D01*
X220392297Y-61439430D01*
X220251232Y-61228310D01*
X220071690Y-61048768D01*
X219860570Y-60907703D01*
X219625987Y-60810535D01*
X219376955Y-60761000D01*
X219123045Y-60761000D01*
X218874013Y-60810535D01*
X218639430Y-60907703D01*
X218428310Y-61048768D01*
X218248768Y-61228310D01*
X218107703Y-61439430D01*
X218010535Y-61674013D01*
X217961000Y-61923045D01*
X179934341Y-61923045D01*
X179946353Y-61862657D01*
X179946353Y-61608747D01*
X179896818Y-61359715D01*
X179799650Y-61125132D01*
X179658585Y-60914012D01*
X179479043Y-60734470D01*
X179267923Y-60593405D01*
X179033340Y-60496237D01*
X178784308Y-60446702D01*
X178639580Y-60446702D01*
X178710570Y-60417297D01*
X178921690Y-60276232D01*
X179101232Y-60096690D01*
X179242297Y-59885570D01*
X179339465Y-59650987D01*
X179389000Y-59401955D01*
X179389000Y-59148045D01*
X179339465Y-58899013D01*
X179242297Y-58664430D01*
X179147821Y-58523035D01*
X213061000Y-58523035D01*
X213061000Y-58776945D01*
X213110535Y-59025977D01*
X213207703Y-59260560D01*
X213348768Y-59471680D01*
X213528310Y-59651222D01*
X213739430Y-59792287D01*
X213974013Y-59889455D01*
X214223045Y-59938990D01*
X214476955Y-59938990D01*
X214725987Y-59889455D01*
X214960570Y-59792287D01*
X215171690Y-59651222D01*
X215351232Y-59471680D01*
X215492297Y-59260560D01*
X215589465Y-59025977D01*
X215639000Y-58776945D01*
X215639000Y-58523035D01*
X215589465Y-58274003D01*
X215492297Y-58039420D01*
X215351232Y-57828300D01*
X215245977Y-57723045D01*
X215911000Y-57723045D01*
X215911000Y-57976955D01*
X215960535Y-58225987D01*
X216057703Y-58460570D01*
X216198768Y-58671690D01*
X216378310Y-58851232D01*
X216589430Y-58992297D01*
X216824013Y-59089465D01*
X217073045Y-59139000D01*
X217326955Y-59139000D01*
X217575987Y-59089465D01*
X217810570Y-58992297D01*
X217989044Y-58873045D01*
X225436000Y-58873045D01*
X225436000Y-59126955D01*
X225485535Y-59375987D01*
X225582703Y-59610570D01*
X225723768Y-59821690D01*
X225903310Y-60001232D01*
X226114430Y-60142297D01*
X226349013Y-60239465D01*
X226598045Y-60289000D01*
X226851955Y-60289000D01*
X227100987Y-60239465D01*
X227335570Y-60142297D01*
X227546690Y-60001232D01*
X227726232Y-59821690D01*
X227867297Y-59610570D01*
X227964465Y-59375987D01*
X228014000Y-59126955D01*
X228014000Y-58873045D01*
X227964465Y-58624013D01*
X227867297Y-58389430D01*
X227726232Y-58178310D01*
X227546690Y-57998768D01*
X227335570Y-57857703D01*
X227100987Y-57760535D01*
X226851955Y-57711000D01*
X226598045Y-57711000D01*
X226349013Y-57760535D01*
X226114430Y-57857703D01*
X225903310Y-57998768D01*
X225723768Y-58178310D01*
X225582703Y-58389430D01*
X225485535Y-58624013D01*
X225436000Y-58873045D01*
X217989044Y-58873045D01*
X218021690Y-58851232D01*
X218201232Y-58671690D01*
X218342297Y-58460570D01*
X218439465Y-58225987D01*
X218489000Y-57976955D01*
X218489000Y-57723045D01*
X218439465Y-57474013D01*
X218342297Y-57239430D01*
X218201232Y-57028310D01*
X218021690Y-56848768D01*
X217810570Y-56707703D01*
X217575987Y-56610535D01*
X217326955Y-56561000D01*
X217073045Y-56561000D01*
X216824013Y-56610535D01*
X216589430Y-56707703D01*
X216378310Y-56848768D01*
X216198768Y-57028310D01*
X216057703Y-57239430D01*
X215960535Y-57474013D01*
X215911000Y-57723045D01*
X215245977Y-57723045D01*
X215171690Y-57648758D01*
X214960570Y-57507693D01*
X214725987Y-57410525D01*
X214476955Y-57360990D01*
X214223045Y-57360990D01*
X213974013Y-57410525D01*
X213739430Y-57507693D01*
X213528310Y-57648758D01*
X213348768Y-57828300D01*
X213207703Y-58039420D01*
X213110535Y-58274003D01*
X213061000Y-58523035D01*
X179147821Y-58523035D01*
X179101232Y-58453310D01*
X178921690Y-58273768D01*
X178710570Y-58132703D01*
X178475987Y-58035535D01*
X178226955Y-57986000D01*
X177973045Y-57986000D01*
X177724013Y-58035535D01*
X177489430Y-58132703D01*
X177278310Y-58273768D01*
X177098768Y-58453310D01*
X176957703Y-58664430D01*
X176860535Y-58899013D01*
X176811000Y-59148045D01*
X175110352Y-59148045D01*
X174974781Y-59012474D01*
X174763661Y-58871409D01*
X174529078Y-58774241D01*
X174280046Y-58724706D01*
X174026136Y-58724706D01*
X173777104Y-58774241D01*
X173542521Y-58871409D01*
X173331401Y-59012474D01*
X173151859Y-59192016D01*
X173010794Y-59403136D01*
X172913626Y-59637719D01*
X172864091Y-59886751D01*
X172364000Y-59886751D01*
X172364000Y-59873055D01*
X172314465Y-59624023D01*
X172217297Y-59389440D01*
X172076232Y-59178320D01*
X171896690Y-58998778D01*
X171685570Y-58857713D01*
X171450987Y-58760545D01*
X171201955Y-58711010D01*
X170948045Y-58711010D01*
X170699013Y-58760545D01*
X170464430Y-58857713D01*
X170253310Y-58998778D01*
X170073768Y-59178320D01*
X169932703Y-59389440D01*
X169835535Y-59624023D01*
X169786000Y-59873055D01*
X155392137Y-59873055D01*
X155467297Y-59760570D01*
X155564465Y-59525987D01*
X155614000Y-59276955D01*
X155614000Y-59023045D01*
X155564465Y-58774013D01*
X155467297Y-58539430D01*
X155326232Y-58328310D01*
X155146690Y-58148768D01*
X154935570Y-58007703D01*
X154700987Y-57910535D01*
X154451955Y-57861000D01*
X154198045Y-57861000D01*
X153949013Y-57910535D01*
X153714430Y-58007703D01*
X153503310Y-58148768D01*
X153323768Y-58328310D01*
X153182703Y-58539430D01*
X153085535Y-58774013D01*
X153036000Y-59023045D01*
X153036000Y-59276955D01*
X153085535Y-59525987D01*
X153177384Y-59747729D01*
X153082703Y-59889430D01*
X152985535Y-60124013D01*
X152936000Y-60373045D01*
X146559617Y-60373045D01*
X146589465Y-60300987D01*
X146639000Y-60051955D01*
X146639000Y-59798045D01*
X146589465Y-59549013D01*
X146492297Y-59314430D01*
X146351232Y-59103310D01*
X146171690Y-58923768D01*
X145960570Y-58782703D01*
X145725987Y-58685535D01*
X145476955Y-58636000D01*
X145223045Y-58636000D01*
X144974013Y-58685535D01*
X144739430Y-58782703D01*
X144528310Y-58923768D01*
X144348768Y-59103310D01*
X144238860Y-59267800D01*
X144024013Y-59310535D01*
X143789430Y-59407703D01*
X143578310Y-59548768D01*
X143398768Y-59728310D01*
X143257703Y-59939430D01*
X143160535Y-60174013D01*
X143111000Y-60423045D01*
X143111000Y-60676955D01*
X143130313Y-60774050D01*
X143056722Y-60823222D01*
X142877180Y-61002764D01*
X142736115Y-61213884D01*
X142638947Y-61448467D01*
X142589412Y-61697499D01*
X83564000Y-61697499D01*
X83564000Y-58622885D01*
X139185840Y-58622885D01*
X139185840Y-58876795D01*
X139235375Y-59125827D01*
X139332543Y-59360410D01*
X139473608Y-59571530D01*
X139653150Y-59751072D01*
X139864270Y-59892137D01*
X140098853Y-59989305D01*
X140347885Y-60038840D01*
X140601795Y-60038840D01*
X140850827Y-59989305D01*
X141085410Y-59892137D01*
X141296530Y-59751072D01*
X141476072Y-59571530D01*
X141617137Y-59360410D01*
X141714305Y-59125827D01*
X141763840Y-58876795D01*
X141763840Y-58622885D01*
X141714305Y-58373853D01*
X141617137Y-58139270D01*
X141476072Y-57928150D01*
X141296530Y-57748608D01*
X141085410Y-57607543D01*
X140850827Y-57510375D01*
X140601795Y-57460840D01*
X140347885Y-57460840D01*
X140098853Y-57510375D01*
X139864270Y-57607543D01*
X139653150Y-57748608D01*
X139473608Y-57928150D01*
X139332543Y-58139270D01*
X139235375Y-58373853D01*
X139185840Y-58622885D01*
X83564000Y-58622885D01*
X83564000Y-55048045D01*
X149761000Y-55048045D01*
X149761000Y-55301955D01*
X149810535Y-55550987D01*
X149907703Y-55785570D01*
X150048768Y-55996690D01*
X150228310Y-56176232D01*
X150439430Y-56317297D01*
X150674013Y-56414465D01*
X150923045Y-56464000D01*
X151176955Y-56464000D01*
X151425987Y-56414465D01*
X151660570Y-56317297D01*
X151871690Y-56176232D01*
X152051232Y-55996690D01*
X152192297Y-55785570D01*
X152289465Y-55550987D01*
X152339000Y-55301955D01*
X152339000Y-55048045D01*
X152289465Y-54799013D01*
X152192297Y-54564430D01*
X152051232Y-54353310D01*
X151871690Y-54173768D01*
X151660570Y-54032703D01*
X151425987Y-53935535D01*
X151176955Y-53886000D01*
X150923045Y-53886000D01*
X150674013Y-53935535D01*
X150439430Y-54032703D01*
X150228310Y-54173768D01*
X150048768Y-54353310D01*
X149907703Y-54564430D01*
X149810535Y-54799013D01*
X149761000Y-55048045D01*
X83564000Y-55048045D01*
X83564000Y-53098045D01*
X155361082Y-53098045D01*
X155361082Y-53351955D01*
X155410617Y-53600987D01*
X155507785Y-53835570D01*
X155648850Y-54046690D01*
X155828392Y-54226232D01*
X156039512Y-54367297D01*
X156274095Y-54464465D01*
X156523127Y-54514000D01*
X156777037Y-54514000D01*
X157026069Y-54464465D01*
X157260652Y-54367297D01*
X157471772Y-54226232D01*
X157651314Y-54046690D01*
X157700521Y-53973045D01*
X161161000Y-53973045D01*
X161161000Y-54226955D01*
X161210535Y-54475987D01*
X161307703Y-54710570D01*
X161448768Y-54921690D01*
X161628310Y-55101232D01*
X161839430Y-55242297D01*
X162074013Y-55339465D01*
X162323045Y-55389000D01*
X162576955Y-55389000D01*
X162825987Y-55339465D01*
X163060570Y-55242297D01*
X163065543Y-55238974D01*
X170408930Y-55238974D01*
X170408930Y-55492884D01*
X170458465Y-55741916D01*
X170555633Y-55976499D01*
X170696698Y-56187619D01*
X170876240Y-56367161D01*
X171087360Y-56508226D01*
X171321943Y-56605394D01*
X171570975Y-56654929D01*
X171824885Y-56654929D01*
X172073917Y-56605394D01*
X172308500Y-56508226D01*
X172519620Y-56367161D01*
X172699162Y-56187619D01*
X172840227Y-55976499D01*
X172937395Y-55741916D01*
X172986930Y-55492884D01*
X172986930Y-55238974D01*
X172937395Y-54989942D01*
X172840227Y-54755359D01*
X172785227Y-54673045D01*
X176436000Y-54673045D01*
X176436000Y-54926955D01*
X176485535Y-55175987D01*
X176582703Y-55410570D01*
X176723768Y-55621690D01*
X176903310Y-55801232D01*
X177114430Y-55942297D01*
X177273950Y-56008373D01*
X177357703Y-56210570D01*
X177498768Y-56421690D01*
X177678310Y-56601232D01*
X177889430Y-56742297D01*
X178124013Y-56839465D01*
X178373045Y-56889000D01*
X178532207Y-56889000D01*
X178576768Y-56955690D01*
X178756310Y-57135232D01*
X178967430Y-57276297D01*
X179202013Y-57373465D01*
X179451045Y-57423000D01*
X179704955Y-57423000D01*
X179953987Y-57373465D01*
X180188570Y-57276297D01*
X180399690Y-57135232D01*
X180579232Y-56955690D01*
X180720297Y-56744570D01*
X180816752Y-56511707D01*
X180857703Y-56610570D01*
X180998768Y-56821690D01*
X181178310Y-57001232D01*
X181389430Y-57142297D01*
X181624013Y-57239465D01*
X181873045Y-57289000D01*
X182126955Y-57289000D01*
X182375987Y-57239465D01*
X182610570Y-57142297D01*
X182821690Y-57001232D01*
X183001232Y-56821690D01*
X183142297Y-56610570D01*
X183239465Y-56375987D01*
X183289000Y-56126955D01*
X183289000Y-55873045D01*
X183239465Y-55624013D01*
X183144531Y-55394822D01*
X183214465Y-55225987D01*
X183264000Y-54976955D01*
X183264000Y-54723045D01*
X183214465Y-54474013D01*
X183117297Y-54239430D01*
X182976232Y-54028310D01*
X182922967Y-53975045D01*
X190481000Y-53975045D01*
X190481000Y-54228955D01*
X190530535Y-54477987D01*
X190627703Y-54712570D01*
X190768768Y-54923690D01*
X190948310Y-55103232D01*
X191159430Y-55244297D01*
X191394013Y-55341465D01*
X191643045Y-55391000D01*
X191896955Y-55391000D01*
X192145987Y-55341465D01*
X192380570Y-55244297D01*
X192591690Y-55103232D01*
X192741877Y-54953045D01*
X224594000Y-54953045D01*
X224594000Y-55206955D01*
X224643535Y-55455987D01*
X224740703Y-55690570D01*
X224881768Y-55901690D01*
X225061310Y-56081232D01*
X225272430Y-56222297D01*
X225507013Y-56319465D01*
X225756045Y-56369000D01*
X226009955Y-56369000D01*
X226258987Y-56319465D01*
X226493570Y-56222297D01*
X226704690Y-56081232D01*
X226884232Y-55901690D01*
X227025297Y-55690570D01*
X227122465Y-55455987D01*
X227172000Y-55206955D01*
X227172000Y-54953045D01*
X227122465Y-54704013D01*
X227025297Y-54469430D01*
X226884232Y-54258310D01*
X226704690Y-54078768D01*
X226493570Y-53937703D01*
X226258987Y-53840535D01*
X226009955Y-53791000D01*
X225756045Y-53791000D01*
X225507013Y-53840535D01*
X225272430Y-53937703D01*
X225061310Y-54078768D01*
X224881768Y-54258310D01*
X224740703Y-54469430D01*
X224643535Y-54704013D01*
X224594000Y-54953045D01*
X192741877Y-54953045D01*
X192771232Y-54923690D01*
X192912297Y-54712570D01*
X193009465Y-54477987D01*
X193059000Y-54228955D01*
X193059000Y-53975045D01*
X193009465Y-53726013D01*
X192912297Y-53491430D01*
X192771232Y-53280310D01*
X192591690Y-53100768D01*
X192380570Y-52959703D01*
X192145987Y-52862535D01*
X191896955Y-52813000D01*
X191643045Y-52813000D01*
X191394013Y-52862535D01*
X191159430Y-52959703D01*
X190948310Y-53100768D01*
X190768768Y-53280310D01*
X190627703Y-53491430D01*
X190530535Y-53726013D01*
X190481000Y-53975045D01*
X182922967Y-53975045D01*
X182796690Y-53848768D01*
X182585570Y-53707703D01*
X182350987Y-53610535D01*
X182101955Y-53561000D01*
X181848045Y-53561000D01*
X181599013Y-53610535D01*
X181364430Y-53707703D01*
X181153310Y-53848768D01*
X180973768Y-54028310D01*
X180832703Y-54239430D01*
X180735535Y-54474013D01*
X180686000Y-54723045D01*
X180686000Y-54976955D01*
X180735535Y-55225987D01*
X180830469Y-55455178D01*
X180761248Y-55622293D01*
X180720297Y-55523430D01*
X180579232Y-55312310D01*
X180399690Y-55132768D01*
X180188570Y-54991703D01*
X179953987Y-54894535D01*
X179704955Y-54845000D01*
X179545793Y-54845000D01*
X179501232Y-54778310D01*
X179321690Y-54598768D01*
X179110570Y-54457703D01*
X178951050Y-54391627D01*
X178867297Y-54189430D01*
X178726232Y-53978310D01*
X178546690Y-53798768D01*
X178335570Y-53657703D01*
X178100987Y-53560535D01*
X177851955Y-53511000D01*
X177598045Y-53511000D01*
X177349013Y-53560535D01*
X177114430Y-53657703D01*
X176903310Y-53798768D01*
X176723768Y-53978310D01*
X176582703Y-54189430D01*
X176485535Y-54424013D01*
X176436000Y-54673045D01*
X172785227Y-54673045D01*
X172699162Y-54544239D01*
X172519620Y-54364697D01*
X172308500Y-54223632D01*
X172073917Y-54126464D01*
X171824885Y-54076929D01*
X171570975Y-54076929D01*
X171321943Y-54126464D01*
X171087360Y-54223632D01*
X170876240Y-54364697D01*
X170696698Y-54544239D01*
X170555633Y-54755359D01*
X170458465Y-54989942D01*
X170408930Y-55238974D01*
X163065543Y-55238974D01*
X163271690Y-55101232D01*
X163451232Y-54921690D01*
X163592297Y-54710570D01*
X163689465Y-54475987D01*
X163739000Y-54226955D01*
X163739000Y-53973045D01*
X163689465Y-53724013D01*
X163592297Y-53489430D01*
X163451232Y-53278310D01*
X163271690Y-53098768D01*
X163060570Y-52957703D01*
X162825987Y-52860535D01*
X162576955Y-52811000D01*
X162323045Y-52811000D01*
X162074013Y-52860535D01*
X161839430Y-52957703D01*
X161628310Y-53098768D01*
X161448768Y-53278310D01*
X161307703Y-53489430D01*
X161210535Y-53724013D01*
X161161000Y-53973045D01*
X157700521Y-53973045D01*
X157792379Y-53835570D01*
X157889547Y-53600987D01*
X157939082Y-53351955D01*
X157939082Y-53098045D01*
X157889547Y-52849013D01*
X157792379Y-52614430D01*
X157651314Y-52403310D01*
X157471772Y-52223768D01*
X157431778Y-52197045D01*
X171685000Y-52197045D01*
X171685000Y-52450955D01*
X171734535Y-52699987D01*
X171831703Y-52934570D01*
X171972768Y-53145690D01*
X172152310Y-53325232D01*
X172363430Y-53466297D01*
X172598013Y-53563465D01*
X172847045Y-53613000D01*
X173100955Y-53613000D01*
X173349987Y-53563465D01*
X173584570Y-53466297D01*
X173795690Y-53325232D01*
X173975232Y-53145690D01*
X174116297Y-52934570D01*
X174213465Y-52699987D01*
X174263000Y-52450955D01*
X174263000Y-52197045D01*
X174213465Y-51948013D01*
X174116297Y-51713430D01*
X174100004Y-51689045D01*
X178543000Y-51689045D01*
X178543000Y-51942955D01*
X178592535Y-52191987D01*
X178689703Y-52426570D01*
X178830768Y-52637690D01*
X179010310Y-52817232D01*
X179221430Y-52958297D01*
X179456013Y-53055465D01*
X179705045Y-53105000D01*
X179958955Y-53105000D01*
X180207987Y-53055465D01*
X180442570Y-52958297D01*
X180653690Y-52817232D01*
X180833232Y-52637690D01*
X180974297Y-52426570D01*
X181071465Y-52191987D01*
X181121000Y-51942955D01*
X181121000Y-51689045D01*
X181071465Y-51440013D01*
X180974297Y-51205430D01*
X180833232Y-50994310D01*
X180653690Y-50814768D01*
X180442570Y-50673703D01*
X180207987Y-50576535D01*
X179958955Y-50527000D01*
X179705045Y-50527000D01*
X179456013Y-50576535D01*
X179221430Y-50673703D01*
X179010310Y-50814768D01*
X178830768Y-50994310D01*
X178689703Y-51205430D01*
X178592535Y-51440013D01*
X178543000Y-51689045D01*
X174100004Y-51689045D01*
X173975232Y-51502310D01*
X173795690Y-51322768D01*
X173584570Y-51181703D01*
X173349987Y-51084535D01*
X173100955Y-51035000D01*
X172847045Y-51035000D01*
X172598013Y-51084535D01*
X172363430Y-51181703D01*
X172152310Y-51322768D01*
X171972768Y-51502310D01*
X171831703Y-51713430D01*
X171734535Y-51948013D01*
X171685000Y-52197045D01*
X157431778Y-52197045D01*
X157260652Y-52082703D01*
X157026069Y-51985535D01*
X156777037Y-51936000D01*
X156523127Y-51936000D01*
X156274095Y-51985535D01*
X156039512Y-52082703D01*
X155828392Y-52223768D01*
X155648850Y-52403310D01*
X155507785Y-52614430D01*
X155410617Y-52849013D01*
X155361082Y-53098045D01*
X83564000Y-53098045D01*
X83564000Y-49657045D01*
X143999000Y-49657045D01*
X143999000Y-49910955D01*
X144048535Y-50159987D01*
X144145703Y-50394570D01*
X144286768Y-50605690D01*
X144466310Y-50785232D01*
X144677430Y-50926297D01*
X144912013Y-51023465D01*
X145161045Y-51073000D01*
X145414955Y-51073000D01*
X145663987Y-51023465D01*
X145898570Y-50926297D01*
X146109690Y-50785232D01*
X146289232Y-50605690D01*
X146430297Y-50394570D01*
X146527465Y-50159987D01*
X146577000Y-49910955D01*
X146577000Y-49657045D01*
X146527465Y-49408013D01*
X146430297Y-49173430D01*
X146289232Y-48962310D01*
X146109690Y-48782768D01*
X145937994Y-48668045D01*
X177574000Y-48668045D01*
X177574000Y-48921955D01*
X177623535Y-49170987D01*
X177720703Y-49405570D01*
X177861768Y-49616690D01*
X178041310Y-49796232D01*
X178252430Y-49937297D01*
X178487013Y-50034465D01*
X178736045Y-50084000D01*
X178989955Y-50084000D01*
X179238987Y-50034465D01*
X179473570Y-49937297D01*
X179684690Y-49796232D01*
X179864232Y-49616690D01*
X180005297Y-49405570D01*
X180102465Y-49170987D01*
X180152000Y-48921955D01*
X180152000Y-48668045D01*
X180102465Y-48419013D01*
X180005297Y-48184430D01*
X179864232Y-47973310D01*
X179684690Y-47793768D01*
X179473570Y-47652703D01*
X179238987Y-47555535D01*
X178989955Y-47506000D01*
X178736045Y-47506000D01*
X178487013Y-47555535D01*
X178252430Y-47652703D01*
X178041310Y-47793768D01*
X177861768Y-47973310D01*
X177720703Y-48184430D01*
X177623535Y-48419013D01*
X177574000Y-48668045D01*
X145937994Y-48668045D01*
X145898570Y-48641703D01*
X145663987Y-48544535D01*
X145414955Y-48495000D01*
X145161045Y-48495000D01*
X144912013Y-48544535D01*
X144677430Y-48641703D01*
X144466310Y-48782768D01*
X144286768Y-48962310D01*
X144145703Y-49173430D01*
X144048535Y-49408013D01*
X143999000Y-49657045D01*
X83564000Y-49657045D01*
X83564000Y-44298045D01*
X142986000Y-44298045D01*
X142986000Y-44551955D01*
X143035535Y-44800987D01*
X143132703Y-45035570D01*
X143273768Y-45246690D01*
X143453310Y-45426232D01*
X143664430Y-45567297D01*
X143899013Y-45664465D01*
X144148045Y-45714000D01*
X144401955Y-45714000D01*
X144650987Y-45664465D01*
X144885570Y-45567297D01*
X145096690Y-45426232D01*
X145183877Y-45339045D01*
X191243000Y-45339045D01*
X191243000Y-45592955D01*
X191292535Y-45841987D01*
X191389703Y-46076570D01*
X191530768Y-46287690D01*
X191710310Y-46467232D01*
X191921430Y-46608297D01*
X192156013Y-46705465D01*
X192405045Y-46755000D01*
X192658955Y-46755000D01*
X192907987Y-46705465D01*
X193142570Y-46608297D01*
X193353690Y-46467232D01*
X193533232Y-46287690D01*
X193674297Y-46076570D01*
X193771465Y-45841987D01*
X193821000Y-45592955D01*
X193821000Y-45339045D01*
X193771465Y-45090013D01*
X193674297Y-44855430D01*
X193533232Y-44644310D01*
X193353690Y-44464768D01*
X193142570Y-44323703D01*
X192907987Y-44226535D01*
X192658955Y-44177000D01*
X192405045Y-44177000D01*
X192156013Y-44226535D01*
X191921430Y-44323703D01*
X191710310Y-44464768D01*
X191530768Y-44644310D01*
X191389703Y-44855430D01*
X191292535Y-45090013D01*
X191243000Y-45339045D01*
X145183877Y-45339045D01*
X145276232Y-45246690D01*
X145417297Y-45035570D01*
X145514465Y-44800987D01*
X145564000Y-44551955D01*
X145564000Y-44298045D01*
X145514465Y-44049013D01*
X145417297Y-43814430D01*
X145276232Y-43603310D01*
X145096690Y-43423768D01*
X144885570Y-43282703D01*
X144650987Y-43185535D01*
X144401955Y-43136000D01*
X144148045Y-43136000D01*
X143899013Y-43185535D01*
X143664430Y-43282703D01*
X143453310Y-43423768D01*
X143273768Y-43603310D01*
X143132703Y-43814430D01*
X143035535Y-44049013D01*
X142986000Y-44298045D01*
X83564000Y-44298045D01*
X83564000Y-39448045D01*
X135586000Y-39448045D01*
X135586000Y-39701955D01*
X135635535Y-39950987D01*
X135732703Y-40185570D01*
X135873768Y-40396690D01*
X136053310Y-40576232D01*
X136264430Y-40717297D01*
X136499013Y-40814465D01*
X136748045Y-40864000D01*
X137001955Y-40864000D01*
X137250987Y-40814465D01*
X137485570Y-40717297D01*
X137696690Y-40576232D01*
X137750000Y-40522922D01*
X137878310Y-40651232D01*
X138089430Y-40792297D01*
X138324013Y-40889465D01*
X138573045Y-40939000D01*
X138826955Y-40939000D01*
X139075987Y-40889465D01*
X139310570Y-40792297D01*
X139348362Y-40767045D01*
X187433000Y-40767045D01*
X187433000Y-41020955D01*
X187482535Y-41269987D01*
X187579703Y-41504570D01*
X187720768Y-41715690D01*
X187900310Y-41895232D01*
X188111430Y-42036297D01*
X188346013Y-42133465D01*
X188595045Y-42183000D01*
X188848955Y-42183000D01*
X189097987Y-42133465D01*
X189332570Y-42036297D01*
X189543690Y-41895232D01*
X189723232Y-41715690D01*
X189864297Y-41504570D01*
X189961465Y-41269987D01*
X190011000Y-41020955D01*
X190011000Y-40767045D01*
X189961465Y-40518013D01*
X189864297Y-40283430D01*
X189723232Y-40072310D01*
X189543690Y-39892768D01*
X189332570Y-39751703D01*
X189097987Y-39654535D01*
X188848955Y-39605000D01*
X188595045Y-39605000D01*
X188346013Y-39654535D01*
X188111430Y-39751703D01*
X187900310Y-39892768D01*
X187720768Y-40072310D01*
X187579703Y-40283430D01*
X187482535Y-40518013D01*
X187433000Y-40767045D01*
X139348362Y-40767045D01*
X139521690Y-40651232D01*
X139701232Y-40471690D01*
X139842297Y-40260570D01*
X139939465Y-40025987D01*
X139989000Y-39776955D01*
X139989000Y-39523045D01*
X139939465Y-39274013D01*
X139876932Y-39123045D01*
X168536000Y-39123045D01*
X168536000Y-39376955D01*
X168585535Y-39625987D01*
X168682703Y-39860570D01*
X168823768Y-40071690D01*
X169003310Y-40251232D01*
X169214430Y-40392297D01*
X169449013Y-40489465D01*
X169698045Y-40539000D01*
X169951955Y-40539000D01*
X170200987Y-40489465D01*
X170435570Y-40392297D01*
X170646690Y-40251232D01*
X170826232Y-40071690D01*
X170967297Y-39860570D01*
X171064465Y-39625987D01*
X171114000Y-39376955D01*
X171114000Y-39123045D01*
X171064465Y-38874013D01*
X170967297Y-38639430D01*
X170826232Y-38428310D01*
X170646690Y-38248768D01*
X170435570Y-38107703D01*
X170200987Y-38010535D01*
X169951955Y-37961000D01*
X169698045Y-37961000D01*
X169449013Y-38010535D01*
X169214430Y-38107703D01*
X169003310Y-38248768D01*
X168823768Y-38428310D01*
X168682703Y-38639430D01*
X168585535Y-38874013D01*
X168536000Y-39123045D01*
X139876932Y-39123045D01*
X139842297Y-39039430D01*
X139701232Y-38828310D01*
X139521690Y-38648768D01*
X139310570Y-38507703D01*
X139075987Y-38410535D01*
X138826955Y-38361000D01*
X138573045Y-38361000D01*
X138324013Y-38410535D01*
X138089430Y-38507703D01*
X137878310Y-38648768D01*
X137825000Y-38702078D01*
X137696690Y-38573768D01*
X137485570Y-38432703D01*
X137250987Y-38335535D01*
X137001955Y-38286000D01*
X136748045Y-38286000D01*
X136499013Y-38335535D01*
X136264430Y-38432703D01*
X136053310Y-38573768D01*
X135873768Y-38753310D01*
X135732703Y-38964430D01*
X135635535Y-39199013D01*
X135586000Y-39448045D01*
X83564000Y-39448045D01*
X83564000Y-38663855D01*
X83633023Y-37786835D01*
X83829295Y-36969305D01*
X84151040Y-36192543D01*
X84590332Y-35475683D01*
X85136364Y-34836363D01*
X85775680Y-34290335D01*
X86492543Y-33851040D01*
X87269306Y-33529294D01*
X88086835Y-33333023D01*
X88963855Y-33264000D01*
X248444609Y-33264000D01*
X248372361Y-85490262D01*
X248372361Y-85490262D01*
G37*
X248372361Y-85490262D02*
X234587161Y-85150545D01*
X234514300Y-85050260D01*
X233867170Y-84292568D01*
X233757432Y-84182830D01*
X233757424Y-84182824D01*
X232999740Y-83535700D01*
X232874187Y-83444480D01*
X232874177Y-83444475D01*
X232024597Y-82923852D01*
X232024592Y-82923848D01*
X231886314Y-82853392D01*
X230965732Y-82472074D01*
X230818136Y-82424117D01*
X230818133Y-82424117D01*
X229849240Y-82191506D01*
X229849237Y-82191505D01*
X229828278Y-82188186D01*
X229695955Y-82167227D01*
X229695942Y-82167227D01*
X228712279Y-82089811D01*
X228673584Y-82086000D01*
X139676416Y-82086000D01*
X139637721Y-82089811D01*
X138654045Y-82167228D01*
X138500763Y-82191505D01*
X137531867Y-82424117D01*
X137531864Y-82424117D01*
X137384268Y-82472074D01*
X136739324Y-82739219D01*
X135253949Y-82702614D01*
X135229120Y-82704443D01*
X135205125Y-82711081D01*
X135182885Y-82722272D01*
X135163257Y-82737587D01*
X135146994Y-82756438D01*
X135134720Y-82778098D01*
X135126908Y-82801737D01*
X135123823Y-82828703D01*
X135117602Y-83734409D01*
X134592568Y-84182830D01*
X134482830Y-84292568D01*
X134482824Y-84292576D01*
X133835700Y-85050260D01*
X133744480Y-85175813D01*
X133744475Y-85175823D01*
X133223852Y-86025403D01*
X133223848Y-86025408D01*
X133153392Y-86163686D01*
X132772074Y-87084268D01*
X132724117Y-87231865D01*
X132491506Y-88200760D01*
X132491505Y-88200763D01*
X132489284Y-88214784D01*
X132467227Y-88354045D01*
X132467227Y-88354058D01*
X132389807Y-89337772D01*
X132386001Y-89376416D01*
X132386000Y-254486145D01*
X132316977Y-255363165D01*
X132120706Y-256180694D01*
X131798960Y-256957457D01*
X131359665Y-257674320D01*
X130813637Y-258313636D01*
X130174317Y-258859668D01*
X129457457Y-259298960D01*
X128680695Y-259620705D01*
X127863165Y-259816977D01*
X126986145Y-259886000D01*
X88963855Y-259886000D01*
X88086835Y-259816977D01*
X87269306Y-259620706D01*
X86492543Y-259298960D01*
X85775680Y-258859665D01*
X85136364Y-258313637D01*
X84590332Y-257674317D01*
X84151040Y-256957457D01*
X83829295Y-256180695D01*
X83633023Y-255363165D01*
X83614913Y-255133045D01*
X105691000Y-255133045D01*
X105691000Y-255386955D01*
X105740535Y-255635987D01*
X105837703Y-255870570D01*
X105978768Y-256081690D01*
X106158310Y-256261232D01*
X106369430Y-256402297D01*
X106604013Y-256499465D01*
X106853045Y-256549000D01*
X107106955Y-256549000D01*
X107355987Y-256499465D01*
X107590570Y-256402297D01*
X107801690Y-256261232D01*
X107981232Y-256081690D01*
X108122297Y-255870570D01*
X108219465Y-255635987D01*
X108269000Y-255386955D01*
X108269000Y-255133045D01*
X108219465Y-254884013D01*
X108122297Y-254649430D01*
X107981232Y-254438310D01*
X107801690Y-254258768D01*
X107590570Y-254117703D01*
X107355987Y-254020535D01*
X107106955Y-253971000D01*
X106853045Y-253971000D01*
X106604013Y-254020535D01*
X106369430Y-254117703D01*
X106158310Y-254258768D01*
X105978768Y-254438310D01*
X105837703Y-254649430D01*
X105740535Y-254884013D01*
X105691000Y-255133045D01*
X83614913Y-255133045D01*
X83564000Y-254486145D01*
X83564000Y-190730685D01*
X89061000Y-190730685D01*
X89061000Y-191329315D01*
X89177787Y-191916443D01*
X89406874Y-192469506D01*
X89739455Y-192967249D01*
X90162751Y-193390545D01*
X90660494Y-193723126D01*
X91213557Y-193952213D01*
X91800685Y-194069000D01*
X92399315Y-194069000D01*
X92986443Y-193952213D01*
X93539506Y-193723126D01*
X94037249Y-193390545D01*
X94460545Y-192967249D01*
X94793126Y-192469506D01*
X95022213Y-191916443D01*
X95139000Y-191329315D01*
X95139000Y-190730685D01*
X95137011Y-190720685D01*
X120791000Y-190720685D01*
X120791000Y-191319315D01*
X120907787Y-191906443D01*
X121136874Y-192459506D01*
X121469455Y-192957249D01*
X121892751Y-193380545D01*
X122390494Y-193713126D01*
X122943557Y-193942213D01*
X123530685Y-194059000D01*
X124129315Y-194059000D01*
X124716443Y-193942213D01*
X125269506Y-193713126D01*
X125767249Y-193380545D01*
X126190545Y-192957249D01*
X126523126Y-192459506D01*
X126752213Y-191906443D01*
X126869000Y-191319315D01*
X126869000Y-190720685D01*
X126752213Y-190133557D01*
X126523126Y-189580494D01*
X126190545Y-189082751D01*
X125767249Y-188659455D01*
X125269506Y-188326874D01*
X124716443Y-188097787D01*
X124129315Y-187981000D01*
X123530685Y-187981000D01*
X122943557Y-188097787D01*
X122390494Y-188326874D01*
X121892751Y-188659455D01*
X121469455Y-189082751D01*
X121136874Y-189580494D01*
X120907787Y-190133557D01*
X120791000Y-190720685D01*
X95137011Y-190720685D01*
X95022213Y-190143557D01*
X94793126Y-189590494D01*
X94460545Y-189092751D01*
X94037249Y-188669455D01*
X93539506Y-188336874D01*
X92986443Y-188107787D01*
X92399315Y-187991000D01*
X91800685Y-187991000D01*
X91213557Y-188107787D01*
X90660494Y-188336874D01*
X90162751Y-188669455D01*
X89739455Y-189092751D01*
X89406874Y-189590494D01*
X89177787Y-190143557D01*
X89061000Y-190730685D01*
X83564000Y-190730685D01*
X83564000Y-180987023D01*
X104209000Y-180987023D01*
X104209000Y-181240933D01*
X104258535Y-181489965D01*
X104355703Y-181724548D01*
X104496768Y-181935668D01*
X104676310Y-182115210D01*
X104887430Y-182256275D01*
X105122013Y-182353443D01*
X105371045Y-182402978D01*
X105624955Y-182402978D01*
X105873987Y-182353443D01*
X106108570Y-182256275D01*
X106319690Y-182115210D01*
X106499232Y-181935668D01*
X106640297Y-181724548D01*
X106737465Y-181489965D01*
X106787000Y-181240933D01*
X106787000Y-180987023D01*
X106737465Y-180737991D01*
X106640297Y-180503408D01*
X106499232Y-180292288D01*
X106319690Y-180112746D01*
X106108570Y-179971681D01*
X105873987Y-179874513D01*
X105624955Y-179824978D01*
X105371045Y-179824978D01*
X105122013Y-179874513D01*
X104887430Y-179971681D01*
X104676310Y-180112746D01*
X104496768Y-180292288D01*
X104355703Y-180503408D01*
X104258535Y-180737991D01*
X104209000Y-180987023D01*
X83564000Y-180987023D01*
X83564000Y-128242410D01*
X83604769Y-121198045D01*
X108936000Y-121198045D01*
X108936000Y-121451955D01*
X108985535Y-121700987D01*
X109082703Y-121935570D01*
X109223768Y-122146690D01*
X109403310Y-122326232D01*
X109614430Y-122467297D01*
X109849013Y-122564465D01*
X110098045Y-122614000D01*
X110351955Y-122614000D01*
X110600987Y-122564465D01*
X110835570Y-122467297D01*
X111046690Y-122326232D01*
X111226232Y-122146690D01*
X111367297Y-121935570D01*
X111464465Y-121700987D01*
X111514000Y-121451955D01*
X111514000Y-121198045D01*
X111464465Y-120949013D01*
X111367297Y-120714430D01*
X111226232Y-120503310D01*
X111046690Y-120323768D01*
X110835570Y-120182703D01*
X110600987Y-120085535D01*
X110351955Y-120036000D01*
X110098045Y-120036000D01*
X109849013Y-120085535D01*
X109614430Y-120182703D01*
X109403310Y-120323768D01*
X109223768Y-120503310D01*
X109082703Y-120714430D01*
X108985535Y-120949013D01*
X108936000Y-121198045D01*
X83604769Y-121198045D01*
X83689459Y-106565045D01*
X106749000Y-106565045D01*
X106749000Y-106818955D01*
X106798535Y-107067987D01*
X106895703Y-107302570D01*
X107036768Y-107513690D01*
X107216310Y-107693232D01*
X107427430Y-107834297D01*
X107662013Y-107931465D01*
X107911045Y-107981000D01*
X108164955Y-107981000D01*
X108413987Y-107931465D01*
X108648570Y-107834297D01*
X108734553Y-107776845D01*
X108934013Y-107859465D01*
X109183045Y-107909000D01*
X109436955Y-107909000D01*
X109685987Y-107859465D01*
X109920570Y-107762297D01*
X110131690Y-107621232D01*
X110311232Y-107441690D01*
X110452297Y-107230570D01*
X110549465Y-106995987D01*
X110599000Y-106746955D01*
X110599000Y-106493045D01*
X110549465Y-106244013D01*
X110452297Y-106009430D01*
X110311232Y-105798310D01*
X110131690Y-105618768D01*
X109920570Y-105477703D01*
X109685987Y-105380535D01*
X109436955Y-105331000D01*
X109183045Y-105331000D01*
X108934013Y-105380535D01*
X108699430Y-105477703D01*
X108613447Y-105535155D01*
X108413987Y-105452535D01*
X108164955Y-105403000D01*
X107911045Y-105403000D01*
X107662013Y-105452535D01*
X107427430Y-105549703D01*
X107216310Y-105690768D01*
X107036768Y-105870310D01*
X106895703Y-106081430D01*
X106798535Y-106316013D01*
X106749000Y-106565045D01*
X83689459Y-106565045D01*
X83716744Y-101850685D01*
X89081000Y-101850685D01*
X89081000Y-102449315D01*
X89197787Y-103036443D01*
X89426874Y-103589506D01*
X89759455Y-104087249D01*
X90182751Y-104510545D01*
X90680494Y-104843126D01*
X91233557Y-105072213D01*
X91820685Y-105189000D01*
X92419315Y-105189000D01*
X93006443Y-105072213D01*
X93559506Y-104843126D01*
X94057249Y-104510545D01*
X94480545Y-104087249D01*
X94813126Y-103589506D01*
X95042213Y-103036443D01*
X95159000Y-102449315D01*
X95159000Y-101850685D01*
X95149055Y-101800685D01*
X120831000Y-101800685D01*
X120831000Y-102399315D01*
X120947787Y-102986443D01*
X121176874Y-103539506D01*
X121509455Y-104037249D01*
X121932751Y-104460545D01*
X122430494Y-104793126D01*
X122983557Y-105022213D01*
X123570685Y-105139000D01*
X124169315Y-105139000D01*
X124756443Y-105022213D01*
X125309506Y-104793126D01*
X125807249Y-104460545D01*
X126230545Y-104037249D01*
X126563126Y-103539506D01*
X126792213Y-102986443D01*
X126909000Y-102399315D01*
X126909000Y-101800685D01*
X126792213Y-101213557D01*
X126563126Y-100660494D01*
X126230545Y-100162751D01*
X125807249Y-99739455D01*
X125309506Y-99406874D01*
X124756443Y-99177787D01*
X124169315Y-99061000D01*
X123570685Y-99061000D01*
X122983557Y-99177787D01*
X122430494Y-99406874D01*
X121932751Y-99739455D01*
X121509455Y-100162751D01*
X121176874Y-100660494D01*
X120947787Y-101213557D01*
X120831000Y-101800685D01*
X95149055Y-101800685D01*
X95042213Y-101263557D01*
X94813126Y-100710494D01*
X94480545Y-100212751D01*
X94057249Y-99789455D01*
X93559506Y-99456874D01*
X93006443Y-99227787D01*
X92419315Y-99111000D01*
X91820685Y-99111000D01*
X91233557Y-99227787D01*
X90680494Y-99456874D01*
X90182751Y-99789455D01*
X89759455Y-100212751D01*
X89426874Y-100710494D01*
X89197787Y-101263557D01*
X89081000Y-101850685D01*
X83716744Y-101850685D01*
X83826884Y-82820509D01*
X84929637Y-79433045D01*
X136161000Y-79433045D01*
X136161000Y-79686955D01*
X136210535Y-79935987D01*
X136307703Y-80170570D01*
X136448768Y-80381690D01*
X136628310Y-80561232D01*
X136839430Y-80702297D01*
X137074013Y-80799465D01*
X137323045Y-80849000D01*
X137576955Y-80849000D01*
X137825987Y-80799465D01*
X138060570Y-80702297D01*
X138271690Y-80561232D01*
X138451232Y-80381690D01*
X138592297Y-80170570D01*
X138689465Y-79935987D01*
X138739000Y-79686955D01*
X138739000Y-79433045D01*
X138689465Y-79184013D01*
X138592297Y-78949430D01*
X138451232Y-78738310D01*
X138271690Y-78558768D01*
X138060570Y-78417703D01*
X137825987Y-78320535D01*
X137576955Y-78271000D01*
X137323045Y-78271000D01*
X137074013Y-78320535D01*
X136839430Y-78417703D01*
X136628310Y-78558768D01*
X136448768Y-78738310D01*
X136307703Y-78949430D01*
X136210535Y-79184013D01*
X136161000Y-79433045D01*
X84929637Y-79433045D01*
X86023449Y-76073045D01*
X142111000Y-76073045D01*
X142111000Y-76326955D01*
X142160535Y-76575987D01*
X142257703Y-76810570D01*
X142398768Y-77021690D01*
X142578310Y-77201232D01*
X142789430Y-77342297D01*
X143024013Y-77439465D01*
X143273045Y-77489000D01*
X143526955Y-77489000D01*
X143775987Y-77439465D01*
X144010570Y-77342297D01*
X144221690Y-77201232D01*
X144401232Y-77021690D01*
X144542297Y-76810570D01*
X144639465Y-76575987D01*
X144689000Y-76326955D01*
X144689000Y-76073045D01*
X144639465Y-75824013D01*
X144542297Y-75589430D01*
X144401232Y-75378310D01*
X144221690Y-75198768D01*
X144010570Y-75057703D01*
X143775987Y-74960535D01*
X143526955Y-74911000D01*
X143273045Y-74911000D01*
X143024013Y-74960535D01*
X142789430Y-75057703D01*
X142578310Y-75198768D01*
X142398768Y-75378310D01*
X142257703Y-75589430D01*
X142160535Y-75824013D01*
X142111000Y-76073045D01*
X86023449Y-76073045D01*
X86083262Y-75889313D01*
X86088611Y-75864998D01*
X86089114Y-75840107D01*
X86084751Y-75815596D01*
X86075690Y-75792407D01*
X86062279Y-75771431D01*
X86045034Y-75753475D01*
X86024617Y-75739228D01*
X86001813Y-75729238D01*
X85977498Y-75723889D01*
X85949815Y-75723635D01*
X83564000Y-75963139D01*
X83564000Y-74048045D01*
X153136000Y-74048045D01*
X153136000Y-74301955D01*
X153185535Y-74550987D01*
X153282703Y-74785570D01*
X153423768Y-74996690D01*
X153603310Y-75176232D01*
X153814430Y-75317297D01*
X154049013Y-75414465D01*
X154298045Y-75464000D01*
X154551955Y-75464000D01*
X154800987Y-75414465D01*
X155035570Y-75317297D01*
X155246690Y-75176232D01*
X155374877Y-75048045D01*
X158361000Y-75048045D01*
X158361000Y-75301955D01*
X158410535Y-75550987D01*
X158507703Y-75785570D01*
X158648768Y-75996690D01*
X158828310Y-76176232D01*
X159039430Y-76317297D01*
X159274013Y-76414465D01*
X159455595Y-76450584D01*
X159435535Y-76499013D01*
X159386000Y-76748045D01*
X159386000Y-77001955D01*
X159435535Y-77250987D01*
X159532703Y-77485570D01*
X159673768Y-77696690D01*
X159853310Y-77876232D01*
X160064430Y-78017297D01*
X160299013Y-78114465D01*
X160548045Y-78164000D01*
X160801955Y-78164000D01*
X161050987Y-78114465D01*
X161285570Y-78017297D01*
X161496690Y-77876232D01*
X161676232Y-77696690D01*
X161792257Y-77523045D01*
X178611000Y-77523045D01*
X178611000Y-77776955D01*
X178660535Y-78025987D01*
X178757703Y-78260570D01*
X178898768Y-78471690D01*
X179078310Y-78651232D01*
X179289430Y-78792297D01*
X179524013Y-78889465D01*
X179773045Y-78939000D01*
X180026955Y-78939000D01*
X180275987Y-78889465D01*
X180510570Y-78792297D01*
X180721690Y-78651232D01*
X180901232Y-78471690D01*
X181042297Y-78260570D01*
X181139465Y-78025987D01*
X181189000Y-77776955D01*
X181189000Y-77523045D01*
X181139465Y-77274013D01*
X181042297Y-77039430D01*
X180901232Y-76828310D01*
X180721690Y-76648768D01*
X180510570Y-76507703D01*
X180275987Y-76410535D01*
X180026955Y-76361000D01*
X179773045Y-76361000D01*
X179524013Y-76410535D01*
X179289430Y-76507703D01*
X179078310Y-76648768D01*
X178898768Y-76828310D01*
X178757703Y-77039430D01*
X178660535Y-77274013D01*
X178611000Y-77523045D01*
X161792257Y-77523045D01*
X161817297Y-77485570D01*
X161914465Y-77250987D01*
X161964000Y-77001955D01*
X161964000Y-76748045D01*
X161914465Y-76499013D01*
X161817297Y-76264430D01*
X161676232Y-76053310D01*
X161496690Y-75873768D01*
X161285570Y-75732703D01*
X161050987Y-75635535D01*
X160869405Y-75599416D01*
X160889465Y-75550987D01*
X160939000Y-75301955D01*
X160939000Y-75048045D01*
X160889465Y-74799013D01*
X160792297Y-74564430D01*
X160651232Y-74353310D01*
X160545967Y-74248045D01*
X221911000Y-74248045D01*
X221911000Y-74501955D01*
X221960535Y-74750987D01*
X222057703Y-74985570D01*
X222198768Y-75196690D01*
X222378310Y-75376232D01*
X222589430Y-75517297D01*
X222824013Y-75614465D01*
X223073045Y-75664000D01*
X223326955Y-75664000D01*
X223575987Y-75614465D01*
X223810570Y-75517297D01*
X224021690Y-75376232D01*
X224201232Y-75196690D01*
X224342297Y-74985570D01*
X224439465Y-74750987D01*
X224489000Y-74501955D01*
X224489000Y-74248045D01*
X224461934Y-74111974D01*
X224649013Y-74189465D01*
X224898045Y-74239000D01*
X225151955Y-74239000D01*
X225400987Y-74189465D01*
X225553408Y-74126330D01*
X225578310Y-74151232D01*
X225789430Y-74292297D01*
X226024013Y-74389465D01*
X226273045Y-74439000D01*
X226526955Y-74439000D01*
X226775987Y-74389465D01*
X227010570Y-74292297D01*
X227221690Y-74151232D01*
X227401232Y-73971690D01*
X227542297Y-73760570D01*
X227639465Y-73525987D01*
X227689000Y-73276955D01*
X227689000Y-73023045D01*
X227639465Y-72774013D01*
X227542297Y-72539430D01*
X227401232Y-72328310D01*
X227221690Y-72148768D01*
X227010570Y-72007703D01*
X226775987Y-71910535D01*
X226526955Y-71861000D01*
X226273045Y-71861000D01*
X226024013Y-71910535D01*
X225913249Y-71956415D01*
X225934804Y-71848045D01*
X228911000Y-71848045D01*
X228911000Y-72101955D01*
X228960535Y-72350987D01*
X229057703Y-72585570D01*
X229067345Y-72600000D01*
X229057703Y-72614430D01*
X228960535Y-72849013D01*
X228911000Y-73098045D01*
X228911000Y-73351955D01*
X228960535Y-73600987D01*
X229057703Y-73835570D01*
X229198768Y-74046690D01*
X229378310Y-74226232D01*
X229589430Y-74367297D01*
X229824013Y-74464465D01*
X230073045Y-74514000D01*
X230326955Y-74514000D01*
X230575987Y-74464465D01*
X230810570Y-74367297D01*
X231021690Y-74226232D01*
X231201232Y-74046690D01*
X231342297Y-73835570D01*
X231439465Y-73600987D01*
X231489000Y-73351955D01*
X231489000Y-73098045D01*
X231454191Y-72923045D01*
X235886000Y-72923045D01*
X235886000Y-73176955D01*
X235935535Y-73425987D01*
X236032703Y-73660570D01*
X236173768Y-73871690D01*
X236353310Y-74051232D01*
X236564430Y-74192297D01*
X236799013Y-74289465D01*
X237048045Y-74339000D01*
X237301955Y-74339000D01*
X237550987Y-74289465D01*
X237785570Y-74192297D01*
X237996690Y-74051232D01*
X238176232Y-73871690D01*
X238317297Y-73660570D01*
X238414465Y-73425987D01*
X238464000Y-73176955D01*
X238464000Y-72923045D01*
X238414465Y-72674013D01*
X238317297Y-72439430D01*
X238176232Y-72228310D01*
X237996690Y-72048768D01*
X237785570Y-71907703D01*
X237550987Y-71810535D01*
X237301955Y-71761000D01*
X237048045Y-71761000D01*
X236799013Y-71810535D01*
X236564430Y-71907703D01*
X236353310Y-72048768D01*
X236173768Y-72228310D01*
X236032703Y-72439430D01*
X235935535Y-72674013D01*
X235886000Y-72923045D01*
X231454191Y-72923045D01*
X231439465Y-72849013D01*
X231342297Y-72614430D01*
X231332655Y-72600000D01*
X231342297Y-72585570D01*
X231439465Y-72350987D01*
X231489000Y-72101955D01*
X231489000Y-71848045D01*
X231439465Y-71599013D01*
X231369008Y-71428914D01*
X231376232Y-71421690D01*
X231517297Y-71210570D01*
X231614465Y-70975987D01*
X231664000Y-70726955D01*
X231664000Y-70473045D01*
X231614465Y-70224013D01*
X231517297Y-69989430D01*
X231376232Y-69778310D01*
X231196690Y-69598768D01*
X230985570Y-69457703D01*
X230750987Y-69360535D01*
X230501955Y-69311000D01*
X230248045Y-69311000D01*
X229999013Y-69360535D01*
X229764430Y-69457703D01*
X229553310Y-69598768D01*
X229373768Y-69778310D01*
X229232703Y-69989430D01*
X229135535Y-70224013D01*
X229086000Y-70473045D01*
X229086000Y-70726955D01*
X229135535Y-70975987D01*
X229205992Y-71146086D01*
X229198768Y-71153310D01*
X229057703Y-71364430D01*
X228960535Y-71599013D01*
X228911000Y-71848045D01*
X225934804Y-71848045D01*
X225939000Y-71826955D01*
X225939000Y-71573045D01*
X225889465Y-71324013D01*
X225792297Y-71089430D01*
X225651232Y-70878310D01*
X225471690Y-70698768D01*
X225260570Y-70557703D01*
X225025987Y-70460535D01*
X224776955Y-70411000D01*
X224523045Y-70411000D01*
X224274013Y-70460535D01*
X224039430Y-70557703D01*
X223828310Y-70698768D01*
X223648768Y-70878310D01*
X223507703Y-71089430D01*
X223410535Y-71324013D01*
X223361000Y-71573045D01*
X223361000Y-71826955D01*
X223410535Y-72075987D01*
X223507703Y-72310570D01*
X223648768Y-72521690D01*
X223771525Y-72644447D01*
X223736000Y-72823045D01*
X223736000Y-73076955D01*
X223763066Y-73213026D01*
X223575987Y-73135535D01*
X223326955Y-73086000D01*
X223073045Y-73086000D01*
X222824013Y-73135535D01*
X222589430Y-73232703D01*
X222378310Y-73373768D01*
X222198768Y-73553310D01*
X222057703Y-73764430D01*
X221960535Y-73999013D01*
X221911000Y-74248045D01*
X160545967Y-74248045D01*
X160471690Y-74173768D01*
X160260570Y-74032703D01*
X160025987Y-73935535D01*
X159776955Y-73886000D01*
X159523045Y-73886000D01*
X159274013Y-73935535D01*
X159039430Y-74032703D01*
X158828310Y-74173768D01*
X158648768Y-74353310D01*
X158507703Y-74564430D01*
X158410535Y-74799013D01*
X158361000Y-75048045D01*
X155374877Y-75048045D01*
X155426232Y-74996690D01*
X155567297Y-74785570D01*
X155664465Y-74550987D01*
X155714000Y-74301955D01*
X155714000Y-74048045D01*
X155664465Y-73799013D01*
X155567297Y-73564430D01*
X155426232Y-73353310D01*
X155246690Y-73173768D01*
X155035570Y-73032703D01*
X154800987Y-72935535D01*
X154551955Y-72886000D01*
X154298045Y-72886000D01*
X154049013Y-72935535D01*
X153814430Y-73032703D01*
X153603310Y-73173768D01*
X153423768Y-73353310D01*
X153282703Y-73564430D01*
X153185535Y-73799013D01*
X153136000Y-74048045D01*
X83564000Y-74048045D01*
X83564000Y-72698045D01*
X161686000Y-72698045D01*
X161686000Y-72951955D01*
X161735535Y-73200987D01*
X161832703Y-73435570D01*
X161973768Y-73646690D01*
X162153310Y-73826232D01*
X162364430Y-73967297D01*
X162599013Y-74064465D01*
X162848045Y-74114000D01*
X163101955Y-74114000D01*
X163350987Y-74064465D01*
X163585570Y-73967297D01*
X163796690Y-73826232D01*
X163976232Y-73646690D01*
X164117297Y-73435570D01*
X164214465Y-73200987D01*
X164264000Y-72951955D01*
X164264000Y-72698045D01*
X164214465Y-72449013D01*
X164117297Y-72214430D01*
X163976232Y-72003310D01*
X163796690Y-71823768D01*
X163585570Y-71682703D01*
X163350987Y-71585535D01*
X163101955Y-71536000D01*
X162848045Y-71536000D01*
X162599013Y-71585535D01*
X162364430Y-71682703D01*
X162153310Y-71823768D01*
X161973768Y-72003310D01*
X161832703Y-72214430D01*
X161735535Y-72449013D01*
X161686000Y-72698045D01*
X83564000Y-72698045D01*
X83564000Y-70923045D01*
X143336000Y-70923045D01*
X143336000Y-71176955D01*
X143385535Y-71425987D01*
X143482703Y-71660570D01*
X143623768Y-71871690D01*
X143803310Y-72051232D01*
X144014430Y-72192297D01*
X144249013Y-72289465D01*
X144498045Y-72339000D01*
X144751955Y-72339000D01*
X145000987Y-72289465D01*
X145235570Y-72192297D01*
X145446690Y-72051232D01*
X145626232Y-71871690D01*
X145767297Y-71660570D01*
X145864465Y-71425987D01*
X145897671Y-71259045D01*
X153993000Y-71259045D01*
X153993000Y-71512955D01*
X154042535Y-71761987D01*
X154139703Y-71996570D01*
X154280768Y-72207690D01*
X154460310Y-72387232D01*
X154671430Y-72528297D01*
X154906013Y-72625465D01*
X155155045Y-72675000D01*
X155408955Y-72675000D01*
X155657987Y-72625465D01*
X155887485Y-72530403D01*
X156088013Y-72613465D01*
X156337045Y-72663000D01*
X156590955Y-72663000D01*
X156839987Y-72613465D01*
X157074570Y-72516297D01*
X157285690Y-72375232D01*
X157465232Y-72195690D01*
X157606297Y-71984570D01*
X157703465Y-71749987D01*
X157753000Y-71500955D01*
X157753000Y-71247045D01*
X157703465Y-70998013D01*
X157606297Y-70763430D01*
X157465232Y-70552310D01*
X157285690Y-70372768D01*
X157074570Y-70231703D01*
X156839987Y-70134535D01*
X156590955Y-70085000D01*
X156337045Y-70085000D01*
X156088013Y-70134535D01*
X155858515Y-70229597D01*
X155657987Y-70146535D01*
X155408955Y-70097000D01*
X155155045Y-70097000D01*
X154906013Y-70146535D01*
X154671430Y-70243703D01*
X154460310Y-70384768D01*
X154280768Y-70564310D01*
X154139703Y-70775430D01*
X154042535Y-71010013D01*
X153993000Y-71259045D01*
X145897671Y-71259045D01*
X145914000Y-71176955D01*
X145914000Y-70923045D01*
X145864465Y-70674013D01*
X145767297Y-70439430D01*
X145626232Y-70228310D01*
X145446690Y-70048768D01*
X145235570Y-69907703D01*
X145000987Y-69810535D01*
X144751955Y-69761000D01*
X144498045Y-69761000D01*
X144249013Y-69810535D01*
X144014430Y-69907703D01*
X143803310Y-70048768D01*
X143623768Y-70228310D01*
X143482703Y-70439430D01*
X143385535Y-70674013D01*
X143336000Y-70923045D01*
X83564000Y-70923045D01*
X83564000Y-69023045D01*
X146361000Y-69023045D01*
X146361000Y-69276955D01*
X146410535Y-69525987D01*
X146507703Y-69760570D01*
X146648768Y-69971690D01*
X146828310Y-70151232D01*
X147039430Y-70292297D01*
X147274013Y-70389465D01*
X147523045Y-70439000D01*
X147776955Y-70439000D01*
X148025987Y-70389465D01*
X148260570Y-70292297D01*
X148471690Y-70151232D01*
X148651232Y-69971690D01*
X148792297Y-69760570D01*
X148889465Y-69525987D01*
X148939000Y-69276955D01*
X148939000Y-69023045D01*
X148889465Y-68774013D01*
X148792297Y-68539430D01*
X148651232Y-68328310D01*
X148471690Y-68148768D01*
X148337802Y-68059307D01*
X162474419Y-68059307D01*
X162474419Y-68313217D01*
X162523954Y-68562249D01*
X162621122Y-68796832D01*
X162762187Y-69007952D01*
X162941729Y-69187494D01*
X163152849Y-69328559D01*
X163387432Y-69425727D01*
X163636464Y-69475262D01*
X163890374Y-69475262D01*
X164139406Y-69425727D01*
X164266590Y-69373045D01*
X215661000Y-69373045D01*
X215661000Y-69626955D01*
X215710535Y-69875987D01*
X215807703Y-70110570D01*
X215948768Y-70321690D01*
X216128310Y-70501232D01*
X216339430Y-70642297D01*
X216574013Y-70739465D01*
X216823045Y-70789000D01*
X217076955Y-70789000D01*
X217325987Y-70739465D01*
X217425983Y-70698045D01*
X220236000Y-70698045D01*
X220236000Y-70951955D01*
X220285535Y-71200987D01*
X220382703Y-71435570D01*
X220523768Y-71646690D01*
X220703310Y-71826232D01*
X220914430Y-71967297D01*
X221149013Y-72064465D01*
X221398045Y-72114000D01*
X221651955Y-72114000D01*
X221900987Y-72064465D01*
X222135570Y-71967297D01*
X222346690Y-71826232D01*
X222526232Y-71646690D01*
X222667297Y-71435570D01*
X222764465Y-71200987D01*
X222814000Y-70951955D01*
X222814000Y-70698045D01*
X222764465Y-70449013D01*
X222667297Y-70214430D01*
X222526232Y-70003310D01*
X222346690Y-69823768D01*
X222135570Y-69682703D01*
X221900987Y-69585535D01*
X221651955Y-69536000D01*
X221398045Y-69536000D01*
X221149013Y-69585535D01*
X220914430Y-69682703D01*
X220703310Y-69823768D01*
X220523768Y-70003310D01*
X220382703Y-70214430D01*
X220285535Y-70449013D01*
X220236000Y-70698045D01*
X217425983Y-70698045D01*
X217560570Y-70642297D01*
X217771690Y-70501232D01*
X217951232Y-70321690D01*
X218092297Y-70110570D01*
X218189465Y-69875987D01*
X218239000Y-69626955D01*
X218239000Y-69373045D01*
X218189465Y-69124013D01*
X218092297Y-68889430D01*
X217951232Y-68678310D01*
X217771690Y-68498768D01*
X217560570Y-68357703D01*
X217325987Y-68260535D01*
X217076955Y-68211000D01*
X216823045Y-68211000D01*
X216574013Y-68260535D01*
X216339430Y-68357703D01*
X216128310Y-68498768D01*
X215948768Y-68678310D01*
X215807703Y-68889430D01*
X215710535Y-69124013D01*
X215661000Y-69373045D01*
X164266590Y-69373045D01*
X164373989Y-69328559D01*
X164585109Y-69187494D01*
X164764651Y-69007952D01*
X164905716Y-68796832D01*
X165002884Y-68562249D01*
X165052419Y-68313217D01*
X165052419Y-68059307D01*
X165002884Y-67810275D01*
X164905716Y-67575692D01*
X164764651Y-67364572D01*
X164585109Y-67185030D01*
X164373989Y-67043965D01*
X164139406Y-66946797D01*
X163890374Y-66897262D01*
X163636464Y-66897262D01*
X163387432Y-66946797D01*
X163152849Y-67043965D01*
X162941729Y-67185030D01*
X162762187Y-67364572D01*
X162621122Y-67575692D01*
X162523954Y-67810275D01*
X162474419Y-68059307D01*
X148337802Y-68059307D01*
X148260570Y-68007703D01*
X148025987Y-67910535D01*
X147776955Y-67861000D01*
X147523045Y-67861000D01*
X147274013Y-67910535D01*
X147039430Y-68007703D01*
X146828310Y-68148768D01*
X146648768Y-68328310D01*
X146507703Y-68539430D01*
X146410535Y-68774013D01*
X146361000Y-69023045D01*
X83564000Y-69023045D01*
X83564000Y-66298045D01*
X141886000Y-66298045D01*
X141886000Y-66551955D01*
X141935535Y-66800987D01*
X142032703Y-67035570D01*
X142173768Y-67246690D01*
X142353310Y-67426232D01*
X142564430Y-67567297D01*
X142799013Y-67664465D01*
X143048045Y-67714000D01*
X143301955Y-67714000D01*
X143550987Y-67664465D01*
X143785570Y-67567297D01*
X143996690Y-67426232D01*
X144176232Y-67246690D01*
X144317297Y-67035570D01*
X144414465Y-66800987D01*
X144464000Y-66551955D01*
X144464000Y-66298045D01*
X144414465Y-66049013D01*
X144317297Y-65814430D01*
X144176232Y-65603310D01*
X143996690Y-65423768D01*
X143785570Y-65282703D01*
X143550987Y-65185535D01*
X143301955Y-65136000D01*
X143048045Y-65136000D01*
X142799013Y-65185535D01*
X142564430Y-65282703D01*
X142353310Y-65423768D01*
X142173768Y-65603310D01*
X142032703Y-65814430D01*
X141935535Y-66049013D01*
X141886000Y-66298045D01*
X83564000Y-66298045D01*
X83564000Y-65135705D01*
X144311009Y-65135705D01*
X144311009Y-65389615D01*
X144360544Y-65638647D01*
X144457712Y-65873230D01*
X144598777Y-66084350D01*
X144778319Y-66263892D01*
X144989439Y-66404957D01*
X145224022Y-66502125D01*
X145473054Y-66551660D01*
X145726964Y-66551660D01*
X145975996Y-66502125D01*
X146210579Y-66404957D01*
X146421699Y-66263892D01*
X146601241Y-66084350D01*
X146742306Y-65873230D01*
X146825225Y-65673045D01*
X155461000Y-65673045D01*
X155461000Y-65926955D01*
X155510535Y-66175987D01*
X155607703Y-66410570D01*
X155748768Y-66621690D01*
X155928310Y-66801232D01*
X156139430Y-66942297D01*
X156374013Y-67039465D01*
X156623045Y-67089000D01*
X156876955Y-67089000D01*
X157125987Y-67039465D01*
X157360570Y-66942297D01*
X157571690Y-66801232D01*
X157751232Y-66621690D01*
X157892297Y-66410570D01*
X157989465Y-66175987D01*
X158039000Y-65926955D01*
X158039000Y-65733375D01*
X158239430Y-65867297D01*
X158474013Y-65964465D01*
X158723045Y-66014000D01*
X158976955Y-66014000D01*
X159225987Y-65964465D01*
X159460570Y-65867297D01*
X159671690Y-65726232D01*
X159851232Y-65546690D01*
X159992297Y-65335570D01*
X160089465Y-65100987D01*
X160139000Y-64851955D01*
X160139000Y-64598045D01*
X160135352Y-64579705D01*
X172129660Y-64579705D01*
X172129660Y-64833615D01*
X172179195Y-65082647D01*
X172276363Y-65317230D01*
X172417428Y-65528350D01*
X172596970Y-65707892D01*
X172808090Y-65848957D01*
X173042673Y-65946125D01*
X173291705Y-65995660D01*
X173545615Y-65995660D01*
X173794647Y-65946125D01*
X174029230Y-65848957D01*
X174240350Y-65707892D01*
X174419892Y-65528350D01*
X174560957Y-65317230D01*
X174658125Y-65082647D01*
X174707660Y-64833615D01*
X174707660Y-64579705D01*
X174674853Y-64414771D01*
X174735101Y-64414771D01*
X174735101Y-64668681D01*
X174784636Y-64917713D01*
X174881804Y-65152296D01*
X175022869Y-65363416D01*
X175202411Y-65542958D01*
X175413531Y-65684023D01*
X175648114Y-65781191D01*
X175769935Y-65805423D01*
X175764430Y-65807703D01*
X175553310Y-65948768D01*
X175373768Y-66128310D01*
X175232703Y-66339430D01*
X175135535Y-66574013D01*
X175086000Y-66823045D01*
X175086000Y-67076955D01*
X175135535Y-67325987D01*
X175232703Y-67560570D01*
X175373768Y-67771690D01*
X175553310Y-67951232D01*
X175764430Y-68092297D01*
X175999013Y-68189465D01*
X176248045Y-68239000D01*
X176501955Y-68239000D01*
X176750987Y-68189465D01*
X176985570Y-68092297D01*
X177196690Y-67951232D01*
X177376232Y-67771690D01*
X177517297Y-67560570D01*
X177614465Y-67325987D01*
X177664000Y-67076955D01*
X177664000Y-66823045D01*
X177614465Y-66574013D01*
X177517297Y-66339430D01*
X177376232Y-66128310D01*
X177196690Y-65948768D01*
X176985570Y-65807703D01*
X176750987Y-65710535D01*
X176629166Y-65686303D01*
X176634671Y-65684023D01*
X176845791Y-65542958D01*
X177025333Y-65363416D01*
X177084907Y-65274256D01*
X187682789Y-65274256D01*
X187682789Y-65528166D01*
X187732324Y-65777198D01*
X187829492Y-66011781D01*
X187970557Y-66222901D01*
X188150099Y-66402443D01*
X188361219Y-66543508D01*
X188595802Y-66640676D01*
X188844834Y-66690211D01*
X189098744Y-66690211D01*
X189347776Y-66640676D01*
X189582359Y-66543508D01*
X189793479Y-66402443D01*
X189973021Y-66222901D01*
X190114086Y-66011781D01*
X190211254Y-65777198D01*
X190260789Y-65528166D01*
X190260789Y-65523045D01*
X216211000Y-65523045D01*
X216211000Y-65776955D01*
X216260535Y-66025987D01*
X216357703Y-66260570D01*
X216498768Y-66471690D01*
X216678310Y-66651232D01*
X216889430Y-66792297D01*
X217124013Y-66889465D01*
X217373045Y-66939000D01*
X217626955Y-66939000D01*
X217875987Y-66889465D01*
X218110570Y-66792297D01*
X218321690Y-66651232D01*
X218349877Y-66623045D01*
X223111000Y-66623045D01*
X223111000Y-66876955D01*
X223160535Y-67125987D01*
X223257703Y-67360570D01*
X223398768Y-67571690D01*
X223578310Y-67751232D01*
X223789430Y-67892297D01*
X223861000Y-67921942D01*
X223861000Y-68126955D01*
X223910535Y-68375987D01*
X224007703Y-68610570D01*
X224148768Y-68821690D01*
X224328310Y-69001232D01*
X224539430Y-69142297D01*
X224774013Y-69239465D01*
X225023045Y-69289000D01*
X225276955Y-69289000D01*
X225525987Y-69239465D01*
X225670527Y-69179594D01*
X225748768Y-69296690D01*
X225928310Y-69476232D01*
X226139430Y-69617297D01*
X226374013Y-69714465D01*
X226623045Y-69764000D01*
X226876955Y-69764000D01*
X227125987Y-69714465D01*
X227360570Y-69617297D01*
X227571690Y-69476232D01*
X227751232Y-69296690D01*
X227892297Y-69085570D01*
X227989465Y-68850987D01*
X228039000Y-68601955D01*
X228039000Y-68348045D01*
X227989465Y-68099013D01*
X227892297Y-67864430D01*
X227751232Y-67653310D01*
X227571690Y-67473768D01*
X227360570Y-67332703D01*
X227125987Y-67235535D01*
X226876955Y-67186000D01*
X226623045Y-67186000D01*
X226374013Y-67235535D01*
X226229473Y-67295406D01*
X226151232Y-67178310D01*
X225971690Y-66998768D01*
X225760570Y-66857703D01*
X225689000Y-66828058D01*
X225689000Y-66623045D01*
X225639465Y-66374013D01*
X225542297Y-66139430D01*
X225401232Y-65928310D01*
X225221690Y-65748768D01*
X225010570Y-65607703D01*
X224775987Y-65510535D01*
X224526955Y-65461000D01*
X224273045Y-65461000D01*
X224024013Y-65510535D01*
X223789430Y-65607703D01*
X223578310Y-65748768D01*
X223398768Y-65928310D01*
X223257703Y-66139430D01*
X223160535Y-66374013D01*
X223111000Y-66623045D01*
X218349877Y-66623045D01*
X218501232Y-66471690D01*
X218642297Y-66260570D01*
X218739465Y-66025987D01*
X218789000Y-65776955D01*
X218789000Y-65523045D01*
X218754191Y-65348045D01*
X230086000Y-65348045D01*
X230086000Y-65601955D01*
X230135535Y-65850987D01*
X230232703Y-66085570D01*
X230373768Y-66296690D01*
X230553310Y-66476232D01*
X230764430Y-66617297D01*
X230999013Y-66714465D01*
X231248045Y-66764000D01*
X231501955Y-66764000D01*
X231576926Y-66749088D01*
X231535535Y-66849013D01*
X231486000Y-67098045D01*
X231486000Y-67351955D01*
X231535535Y-67600987D01*
X231632703Y-67835570D01*
X231773768Y-68046690D01*
X231953310Y-68226232D01*
X232164430Y-68367297D01*
X232399013Y-68464465D01*
X232648045Y-68514000D01*
X232901955Y-68514000D01*
X233150987Y-68464465D01*
X233385570Y-68367297D01*
X233596690Y-68226232D01*
X233776232Y-68046690D01*
X233917297Y-67835570D01*
X234014465Y-67600987D01*
X234064000Y-67351955D01*
X234064000Y-67273045D01*
X235236000Y-67273045D01*
X235236000Y-67526955D01*
X235285535Y-67775987D01*
X235382703Y-68010570D01*
X235523768Y-68221690D01*
X235703310Y-68401232D01*
X235914430Y-68542297D01*
X236149013Y-68639465D01*
X236398045Y-68689000D01*
X236651955Y-68689000D01*
X236900987Y-68639465D01*
X237135570Y-68542297D01*
X237346690Y-68401232D01*
X237526232Y-68221690D01*
X237667297Y-68010570D01*
X237764465Y-67775987D01*
X237814000Y-67526955D01*
X237814000Y-67273045D01*
X237764465Y-67024013D01*
X237667297Y-66789430D01*
X237526232Y-66578310D01*
X237346690Y-66398768D01*
X237135570Y-66257703D01*
X236900987Y-66160535D01*
X236651955Y-66111000D01*
X236398045Y-66111000D01*
X236149013Y-66160535D01*
X235914430Y-66257703D01*
X235703310Y-66398768D01*
X235523768Y-66578310D01*
X235382703Y-66789430D01*
X235285535Y-67024013D01*
X235236000Y-67273045D01*
X234064000Y-67273045D01*
X234064000Y-67098045D01*
X234014465Y-66849013D01*
X233917297Y-66614430D01*
X233776232Y-66403310D01*
X233596690Y-66223768D01*
X233385570Y-66082703D01*
X233150987Y-65985535D01*
X232901955Y-65936000D01*
X232648045Y-65936000D01*
X232573074Y-65950912D01*
X232614465Y-65850987D01*
X232664000Y-65601955D01*
X232664000Y-65348045D01*
X232614465Y-65099013D01*
X232517297Y-64864430D01*
X232376232Y-64653310D01*
X232196690Y-64473768D01*
X231985570Y-64332703D01*
X231750987Y-64235535D01*
X231501955Y-64186000D01*
X231248045Y-64186000D01*
X230999013Y-64235535D01*
X230764430Y-64332703D01*
X230553310Y-64473768D01*
X230373768Y-64653310D01*
X230232703Y-64864430D01*
X230135535Y-65099013D01*
X230086000Y-65348045D01*
X218754191Y-65348045D01*
X218739465Y-65274013D01*
X218642297Y-65039430D01*
X218501232Y-64828310D01*
X218321690Y-64648768D01*
X218110570Y-64507703D01*
X217875987Y-64410535D01*
X217626955Y-64361000D01*
X217373045Y-64361000D01*
X217124013Y-64410535D01*
X216889430Y-64507703D01*
X216678310Y-64648768D01*
X216498768Y-64828310D01*
X216357703Y-65039430D01*
X216260535Y-65274013D01*
X216211000Y-65523045D01*
X190260789Y-65523045D01*
X190260789Y-65274256D01*
X190211254Y-65025224D01*
X190114086Y-64790641D01*
X189973021Y-64579521D01*
X189793479Y-64399979D01*
X189582359Y-64258914D01*
X189347776Y-64161746D01*
X189098744Y-64112211D01*
X188844834Y-64112211D01*
X188595802Y-64161746D01*
X188361219Y-64258914D01*
X188150099Y-64399979D01*
X187970557Y-64579521D01*
X187829492Y-64790641D01*
X187732324Y-65025224D01*
X187682789Y-65274256D01*
X177084907Y-65274256D01*
X177166398Y-65152296D01*
X177263566Y-64917713D01*
X177313101Y-64668681D01*
X177313101Y-64414771D01*
X177263566Y-64165739D01*
X177166398Y-63931156D01*
X177025333Y-63720036D01*
X176845791Y-63540494D01*
X176634671Y-63399429D01*
X176400088Y-63302261D01*
X176151056Y-63252726D01*
X175897146Y-63252726D01*
X175648114Y-63302261D01*
X175413531Y-63399429D01*
X175202411Y-63540494D01*
X175022869Y-63720036D01*
X174881804Y-63931156D01*
X174784636Y-64165739D01*
X174735101Y-64414771D01*
X174674853Y-64414771D01*
X174658125Y-64330673D01*
X174560957Y-64096090D01*
X174419892Y-63884970D01*
X174240350Y-63705428D01*
X174029230Y-63564363D01*
X173794647Y-63467195D01*
X173545615Y-63417660D01*
X173291705Y-63417660D01*
X173042673Y-63467195D01*
X172808090Y-63564363D01*
X172596970Y-63705428D01*
X172417428Y-63884970D01*
X172276363Y-64096090D01*
X172179195Y-64330673D01*
X172129660Y-64579705D01*
X160135352Y-64579705D01*
X160089465Y-64349013D01*
X159992297Y-64114430D01*
X159851232Y-63903310D01*
X159671690Y-63723768D01*
X159460570Y-63582703D01*
X159225987Y-63485535D01*
X158976955Y-63436000D01*
X158723045Y-63436000D01*
X158474013Y-63485535D01*
X158239430Y-63582703D01*
X158028310Y-63723768D01*
X157848768Y-63903310D01*
X157707703Y-64114430D01*
X157610535Y-64349013D01*
X157561000Y-64598045D01*
X157561000Y-64791625D01*
X157360570Y-64657703D01*
X157125987Y-64560535D01*
X156876955Y-64511000D01*
X156623045Y-64511000D01*
X156374013Y-64560535D01*
X156139430Y-64657703D01*
X155928310Y-64798768D01*
X155748768Y-64978310D01*
X155607703Y-65189430D01*
X155510535Y-65424013D01*
X155461000Y-65673045D01*
X146825225Y-65673045D01*
X146839474Y-65638647D01*
X146889009Y-65389615D01*
X146889009Y-65135705D01*
X146839474Y-64886673D01*
X146742306Y-64652090D01*
X146601241Y-64440970D01*
X146421699Y-64261428D01*
X146210579Y-64120363D01*
X145975996Y-64023195D01*
X145726964Y-63973660D01*
X145473054Y-63973660D01*
X145224022Y-64023195D01*
X144989439Y-64120363D01*
X144778319Y-64261428D01*
X144598777Y-64440970D01*
X144457712Y-64652090D01*
X144360544Y-64886673D01*
X144311009Y-65135705D01*
X83564000Y-65135705D01*
X83564000Y-61697499D01*
X142589412Y-61697499D01*
X142589412Y-61951409D01*
X142638947Y-62200441D01*
X142736115Y-62435024D01*
X142877180Y-62646144D01*
X143056722Y-62825686D01*
X143267842Y-62966751D01*
X143502425Y-63063919D01*
X143751457Y-63113454D01*
X144005367Y-63113454D01*
X144254399Y-63063919D01*
X144488982Y-62966751D01*
X144591808Y-62898045D01*
X146661000Y-62898045D01*
X146661000Y-63151955D01*
X146710535Y-63400987D01*
X146807703Y-63635570D01*
X146948768Y-63846690D01*
X147128310Y-64026232D01*
X147339430Y-64167297D01*
X147574013Y-64264465D01*
X147823045Y-64314000D01*
X148076955Y-64314000D01*
X148325987Y-64264465D01*
X148560570Y-64167297D01*
X148771690Y-64026232D01*
X148951232Y-63846690D01*
X149092297Y-63635570D01*
X149189465Y-63400987D01*
X149239000Y-63151955D01*
X149239000Y-62898045D01*
X149189465Y-62649013D01*
X149092297Y-62414430D01*
X148951232Y-62203310D01*
X148771690Y-62023768D01*
X148560570Y-61882703D01*
X148325987Y-61785535D01*
X148076955Y-61736000D01*
X147823045Y-61736000D01*
X147574013Y-61785535D01*
X147339430Y-61882703D01*
X147128310Y-62023768D01*
X146948768Y-62203310D01*
X146807703Y-62414430D01*
X146710535Y-62649013D01*
X146661000Y-62898045D01*
X144591808Y-62898045D01*
X144700102Y-62825686D01*
X144879644Y-62646144D01*
X145020709Y-62435024D01*
X145117877Y-62200441D01*
X145167412Y-61951409D01*
X145167412Y-61697499D01*
X145148099Y-61600404D01*
X145221690Y-61551232D01*
X145401232Y-61371690D01*
X145511140Y-61207200D01*
X145725987Y-61164465D01*
X145960570Y-61067297D01*
X146171690Y-60926232D01*
X146351232Y-60746690D01*
X146492297Y-60535570D01*
X146559617Y-60373045D01*
X152936000Y-60373045D01*
X152936000Y-60626955D01*
X152985535Y-60875987D01*
X153082703Y-61110570D01*
X153223768Y-61321690D01*
X153403310Y-61501232D01*
X153614430Y-61642297D01*
X153849013Y-61739465D01*
X154098045Y-61789000D01*
X154351955Y-61789000D01*
X154600987Y-61739465D01*
X154835570Y-61642297D01*
X155046690Y-61501232D01*
X155226232Y-61321690D01*
X155367297Y-61110570D01*
X155464465Y-60875987D01*
X155514000Y-60626955D01*
X155514000Y-60373045D01*
X155464465Y-60124013D01*
X155372616Y-59902271D01*
X155392137Y-59873055D01*
X169786000Y-59873055D01*
X169786000Y-60126965D01*
X169835535Y-60375997D01*
X169932703Y-60610580D01*
X170073768Y-60821700D01*
X170253310Y-61001242D01*
X170464430Y-61142307D01*
X170699013Y-61239475D01*
X170948045Y-61289010D01*
X171201955Y-61289010D01*
X171450987Y-61239475D01*
X171685570Y-61142307D01*
X171896690Y-61001242D01*
X172076232Y-60821700D01*
X172217297Y-60610580D01*
X172314465Y-60375997D01*
X172364000Y-60126965D01*
X172364000Y-59886751D01*
X172864091Y-59886751D01*
X172864091Y-60140661D01*
X172913626Y-60389693D01*
X173010794Y-60624276D01*
X173151859Y-60835396D01*
X173331401Y-61014938D01*
X173542521Y-61156003D01*
X173777104Y-61253171D01*
X173849493Y-61267570D01*
X173957012Y-61428484D01*
X174136554Y-61608026D01*
X174347674Y-61749091D01*
X174582257Y-61846259D01*
X174831289Y-61895794D01*
X175085199Y-61895794D01*
X175334231Y-61846259D01*
X175568814Y-61749091D01*
X175779934Y-61608026D01*
X175959476Y-61428484D01*
X176100541Y-61217364D01*
X176197709Y-60982781D01*
X176247244Y-60733749D01*
X176247244Y-60479839D01*
X176197709Y-60230807D01*
X176100541Y-59996224D01*
X175959476Y-59785104D01*
X175779934Y-59605562D01*
X175568814Y-59464497D01*
X175334231Y-59367329D01*
X175261842Y-59352930D01*
X175154323Y-59192016D01*
X175110352Y-59148045D01*
X176811000Y-59148045D01*
X176811000Y-59401955D01*
X176860535Y-59650987D01*
X176957703Y-59885570D01*
X177098768Y-60096690D01*
X177278310Y-60276232D01*
X177489430Y-60417297D01*
X177724013Y-60514465D01*
X177973045Y-60564000D01*
X178117773Y-60564000D01*
X178046783Y-60593405D01*
X177835663Y-60734470D01*
X177656121Y-60914012D01*
X177515056Y-61125132D01*
X177417888Y-61359715D01*
X177368353Y-61608747D01*
X177368353Y-61633725D01*
X177198768Y-61803310D01*
X177057703Y-62014430D01*
X176960535Y-62249013D01*
X176911000Y-62498045D01*
X176911000Y-62751955D01*
X176960535Y-63000987D01*
X177057703Y-63235570D01*
X177198768Y-63446690D01*
X177378310Y-63626232D01*
X177589430Y-63767297D01*
X177824013Y-63864465D01*
X178073045Y-63914000D01*
X178326955Y-63914000D01*
X178575987Y-63864465D01*
X178810570Y-63767297D01*
X179021690Y-63626232D01*
X179201232Y-63446690D01*
X179342297Y-63235570D01*
X179439465Y-63000987D01*
X179489000Y-62751955D01*
X179489000Y-62726977D01*
X179658585Y-62557392D01*
X179799650Y-62346272D01*
X179896818Y-62111689D01*
X179934341Y-61923045D01*
X217961000Y-61923045D01*
X217961000Y-62176955D01*
X218010535Y-62425987D01*
X218107703Y-62660570D01*
X218248768Y-62871690D01*
X218428310Y-63051232D01*
X218639430Y-63192297D01*
X218874013Y-63289465D01*
X219123045Y-63339000D01*
X219376955Y-63339000D01*
X219625987Y-63289465D01*
X219860570Y-63192297D01*
X220071690Y-63051232D01*
X220251232Y-62871690D01*
X220392297Y-62660570D01*
X220489465Y-62425987D01*
X220539000Y-62176955D01*
X220539000Y-61923045D01*
X220489465Y-61674013D01*
X220392297Y-61439430D01*
X220251232Y-61228310D01*
X220071690Y-61048768D01*
X219860570Y-60907703D01*
X219625987Y-60810535D01*
X219376955Y-60761000D01*
X219123045Y-60761000D01*
X218874013Y-60810535D01*
X218639430Y-60907703D01*
X218428310Y-61048768D01*
X218248768Y-61228310D01*
X218107703Y-61439430D01*
X218010535Y-61674013D01*
X217961000Y-61923045D01*
X179934341Y-61923045D01*
X179946353Y-61862657D01*
X179946353Y-61608747D01*
X179896818Y-61359715D01*
X179799650Y-61125132D01*
X179658585Y-60914012D01*
X179479043Y-60734470D01*
X179267923Y-60593405D01*
X179033340Y-60496237D01*
X178784308Y-60446702D01*
X178639580Y-60446702D01*
X178710570Y-60417297D01*
X178921690Y-60276232D01*
X179101232Y-60096690D01*
X179242297Y-59885570D01*
X179339465Y-59650987D01*
X179389000Y-59401955D01*
X179389000Y-59148045D01*
X179339465Y-58899013D01*
X179242297Y-58664430D01*
X179147821Y-58523035D01*
X213061000Y-58523035D01*
X213061000Y-58776945D01*
X213110535Y-59025977D01*
X213207703Y-59260560D01*
X213348768Y-59471680D01*
X213528310Y-59651222D01*
X213739430Y-59792287D01*
X213974013Y-59889455D01*
X214223045Y-59938990D01*
X214476955Y-59938990D01*
X214725987Y-59889455D01*
X214960570Y-59792287D01*
X215171690Y-59651222D01*
X215351232Y-59471680D01*
X215492297Y-59260560D01*
X215589465Y-59025977D01*
X215639000Y-58776945D01*
X215639000Y-58523035D01*
X215589465Y-58274003D01*
X215492297Y-58039420D01*
X215351232Y-57828300D01*
X215245977Y-57723045D01*
X215911000Y-57723045D01*
X215911000Y-57976955D01*
X215960535Y-58225987D01*
X216057703Y-58460570D01*
X216198768Y-58671690D01*
X216378310Y-58851232D01*
X216589430Y-58992297D01*
X216824013Y-59089465D01*
X217073045Y-59139000D01*
X217326955Y-59139000D01*
X217575987Y-59089465D01*
X217810570Y-58992297D01*
X217989044Y-58873045D01*
X225436000Y-58873045D01*
X225436000Y-59126955D01*
X225485535Y-59375987D01*
X225582703Y-59610570D01*
X225723768Y-59821690D01*
X225903310Y-60001232D01*
X226114430Y-60142297D01*
X226349013Y-60239465D01*
X226598045Y-60289000D01*
X226851955Y-60289000D01*
X227100987Y-60239465D01*
X227335570Y-60142297D01*
X227546690Y-60001232D01*
X227726232Y-59821690D01*
X227867297Y-59610570D01*
X227964465Y-59375987D01*
X228014000Y-59126955D01*
X228014000Y-58873045D01*
X227964465Y-58624013D01*
X227867297Y-58389430D01*
X227726232Y-58178310D01*
X227546690Y-57998768D01*
X227335570Y-57857703D01*
X227100987Y-57760535D01*
X226851955Y-57711000D01*
X226598045Y-57711000D01*
X226349013Y-57760535D01*
X226114430Y-57857703D01*
X225903310Y-57998768D01*
X225723768Y-58178310D01*
X225582703Y-58389430D01*
X225485535Y-58624013D01*
X225436000Y-58873045D01*
X217989044Y-58873045D01*
X218021690Y-58851232D01*
X218201232Y-58671690D01*
X218342297Y-58460570D01*
X218439465Y-58225987D01*
X218489000Y-57976955D01*
X218489000Y-57723045D01*
X218439465Y-57474013D01*
X218342297Y-57239430D01*
X218201232Y-57028310D01*
X218021690Y-56848768D01*
X217810570Y-56707703D01*
X217575987Y-56610535D01*
X217326955Y-56561000D01*
X217073045Y-56561000D01*
X216824013Y-56610535D01*
X216589430Y-56707703D01*
X216378310Y-56848768D01*
X216198768Y-57028310D01*
X216057703Y-57239430D01*
X215960535Y-57474013D01*
X215911000Y-57723045D01*
X215245977Y-57723045D01*
X215171690Y-57648758D01*
X214960570Y-57507693D01*
X214725987Y-57410525D01*
X214476955Y-57360990D01*
X214223045Y-57360990D01*
X213974013Y-57410525D01*
X213739430Y-57507693D01*
X213528310Y-57648758D01*
X213348768Y-57828300D01*
X213207703Y-58039420D01*
X213110535Y-58274003D01*
X213061000Y-58523035D01*
X179147821Y-58523035D01*
X179101232Y-58453310D01*
X178921690Y-58273768D01*
X178710570Y-58132703D01*
X178475987Y-58035535D01*
X178226955Y-57986000D01*
X177973045Y-57986000D01*
X177724013Y-58035535D01*
X177489430Y-58132703D01*
X177278310Y-58273768D01*
X177098768Y-58453310D01*
X176957703Y-58664430D01*
X176860535Y-58899013D01*
X176811000Y-59148045D01*
X175110352Y-59148045D01*
X174974781Y-59012474D01*
X174763661Y-58871409D01*
X174529078Y-58774241D01*
X174280046Y-58724706D01*
X174026136Y-58724706D01*
X173777104Y-58774241D01*
X173542521Y-58871409D01*
X173331401Y-59012474D01*
X173151859Y-59192016D01*
X173010794Y-59403136D01*
X172913626Y-59637719D01*
X172864091Y-59886751D01*
X172364000Y-59886751D01*
X172364000Y-59873055D01*
X172314465Y-59624023D01*
X172217297Y-59389440D01*
X172076232Y-59178320D01*
X171896690Y-58998778D01*
X171685570Y-58857713D01*
X171450987Y-58760545D01*
X171201955Y-58711010D01*
X170948045Y-58711010D01*
X170699013Y-58760545D01*
X170464430Y-58857713D01*
X170253310Y-58998778D01*
X170073768Y-59178320D01*
X169932703Y-59389440D01*
X169835535Y-59624023D01*
X169786000Y-59873055D01*
X155392137Y-59873055D01*
X155467297Y-59760570D01*
X155564465Y-59525987D01*
X155614000Y-59276955D01*
X155614000Y-59023045D01*
X155564465Y-58774013D01*
X155467297Y-58539430D01*
X155326232Y-58328310D01*
X155146690Y-58148768D01*
X154935570Y-58007703D01*
X154700987Y-57910535D01*
X154451955Y-57861000D01*
X154198045Y-57861000D01*
X153949013Y-57910535D01*
X153714430Y-58007703D01*
X153503310Y-58148768D01*
X153323768Y-58328310D01*
X153182703Y-58539430D01*
X153085535Y-58774013D01*
X153036000Y-59023045D01*
X153036000Y-59276955D01*
X153085535Y-59525987D01*
X153177384Y-59747729D01*
X153082703Y-59889430D01*
X152985535Y-60124013D01*
X152936000Y-60373045D01*
X146559617Y-60373045D01*
X146589465Y-60300987D01*
X146639000Y-60051955D01*
X146639000Y-59798045D01*
X146589465Y-59549013D01*
X146492297Y-59314430D01*
X146351232Y-59103310D01*
X146171690Y-58923768D01*
X145960570Y-58782703D01*
X145725987Y-58685535D01*
X145476955Y-58636000D01*
X145223045Y-58636000D01*
X144974013Y-58685535D01*
X144739430Y-58782703D01*
X144528310Y-58923768D01*
X144348768Y-59103310D01*
X144238860Y-59267800D01*
X144024013Y-59310535D01*
X143789430Y-59407703D01*
X143578310Y-59548768D01*
X143398768Y-59728310D01*
X143257703Y-59939430D01*
X143160535Y-60174013D01*
X143111000Y-60423045D01*
X143111000Y-60676955D01*
X143130313Y-60774050D01*
X143056722Y-60823222D01*
X142877180Y-61002764D01*
X142736115Y-61213884D01*
X142638947Y-61448467D01*
X142589412Y-61697499D01*
X83564000Y-61697499D01*
X83564000Y-58622885D01*
X139185840Y-58622885D01*
X139185840Y-58876795D01*
X139235375Y-59125827D01*
X139332543Y-59360410D01*
X139473608Y-59571530D01*
X139653150Y-59751072D01*
X139864270Y-59892137D01*
X140098853Y-59989305D01*
X140347885Y-60038840D01*
X140601795Y-60038840D01*
X140850827Y-59989305D01*
X141085410Y-59892137D01*
X141296530Y-59751072D01*
X141476072Y-59571530D01*
X141617137Y-59360410D01*
X141714305Y-59125827D01*
X141763840Y-58876795D01*
X141763840Y-58622885D01*
X141714305Y-58373853D01*
X141617137Y-58139270D01*
X141476072Y-57928150D01*
X141296530Y-57748608D01*
X141085410Y-57607543D01*
X140850827Y-57510375D01*
X140601795Y-57460840D01*
X140347885Y-57460840D01*
X140098853Y-57510375D01*
X139864270Y-57607543D01*
X139653150Y-57748608D01*
X139473608Y-57928150D01*
X139332543Y-58139270D01*
X139235375Y-58373853D01*
X139185840Y-58622885D01*
X83564000Y-58622885D01*
X83564000Y-55048045D01*
X149761000Y-55048045D01*
X149761000Y-55301955D01*
X149810535Y-55550987D01*
X149907703Y-55785570D01*
X150048768Y-55996690D01*
X150228310Y-56176232D01*
X150439430Y-56317297D01*
X150674013Y-56414465D01*
X150923045Y-56464000D01*
X151176955Y-56464000D01*
X151425987Y-56414465D01*
X151660570Y-56317297D01*
X151871690Y-56176232D01*
X152051232Y-55996690D01*
X152192297Y-55785570D01*
X152289465Y-55550987D01*
X152339000Y-55301955D01*
X152339000Y-55048045D01*
X152289465Y-54799013D01*
X152192297Y-54564430D01*
X152051232Y-54353310D01*
X151871690Y-54173768D01*
X151660570Y-54032703D01*
X151425987Y-53935535D01*
X151176955Y-53886000D01*
X150923045Y-53886000D01*
X150674013Y-53935535D01*
X150439430Y-54032703D01*
X150228310Y-54173768D01*
X150048768Y-54353310D01*
X149907703Y-54564430D01*
X149810535Y-54799013D01*
X149761000Y-55048045D01*
X83564000Y-55048045D01*
X83564000Y-53098045D01*
X155361082Y-53098045D01*
X155361082Y-53351955D01*
X155410617Y-53600987D01*
X155507785Y-53835570D01*
X155648850Y-54046690D01*
X155828392Y-54226232D01*
X156039512Y-54367297D01*
X156274095Y-54464465D01*
X156523127Y-54514000D01*
X156777037Y-54514000D01*
X157026069Y-54464465D01*
X157260652Y-54367297D01*
X157471772Y-54226232D01*
X157651314Y-54046690D01*
X157700521Y-53973045D01*
X161161000Y-53973045D01*
X161161000Y-54226955D01*
X161210535Y-54475987D01*
X161307703Y-54710570D01*
X161448768Y-54921690D01*
X161628310Y-55101232D01*
X161839430Y-55242297D01*
X162074013Y-55339465D01*
X162323045Y-55389000D01*
X162576955Y-55389000D01*
X162825987Y-55339465D01*
X163060570Y-55242297D01*
X163065543Y-55238974D01*
X170408930Y-55238974D01*
X170408930Y-55492884D01*
X170458465Y-55741916D01*
X170555633Y-55976499D01*
X170696698Y-56187619D01*
X170876240Y-56367161D01*
X171087360Y-56508226D01*
X171321943Y-56605394D01*
X171570975Y-56654929D01*
X171824885Y-56654929D01*
X172073917Y-56605394D01*
X172308500Y-56508226D01*
X172519620Y-56367161D01*
X172699162Y-56187619D01*
X172840227Y-55976499D01*
X172937395Y-55741916D01*
X172986930Y-55492884D01*
X172986930Y-55238974D01*
X172937395Y-54989942D01*
X172840227Y-54755359D01*
X172785227Y-54673045D01*
X176436000Y-54673045D01*
X176436000Y-54926955D01*
X176485535Y-55175987D01*
X176582703Y-55410570D01*
X176723768Y-55621690D01*
X176903310Y-55801232D01*
X177114430Y-55942297D01*
X177273950Y-56008373D01*
X177357703Y-56210570D01*
X177498768Y-56421690D01*
X177678310Y-56601232D01*
X177889430Y-56742297D01*
X178124013Y-56839465D01*
X178373045Y-56889000D01*
X178532207Y-56889000D01*
X178576768Y-56955690D01*
X178756310Y-57135232D01*
X178967430Y-57276297D01*
X179202013Y-57373465D01*
X179451045Y-57423000D01*
X179704955Y-57423000D01*
X179953987Y-57373465D01*
X180188570Y-57276297D01*
X180399690Y-57135232D01*
X180579232Y-56955690D01*
X180720297Y-56744570D01*
X180816752Y-56511707D01*
X180857703Y-56610570D01*
X180998768Y-56821690D01*
X181178310Y-57001232D01*
X181389430Y-57142297D01*
X181624013Y-57239465D01*
X181873045Y-57289000D01*
X182126955Y-57289000D01*
X182375987Y-57239465D01*
X182610570Y-57142297D01*
X182821690Y-57001232D01*
X183001232Y-56821690D01*
X183142297Y-56610570D01*
X183239465Y-56375987D01*
X183289000Y-56126955D01*
X183289000Y-55873045D01*
X183239465Y-55624013D01*
X183144531Y-55394822D01*
X183214465Y-55225987D01*
X183264000Y-54976955D01*
X183264000Y-54723045D01*
X183214465Y-54474013D01*
X183117297Y-54239430D01*
X182976232Y-54028310D01*
X182922967Y-53975045D01*
X190481000Y-53975045D01*
X190481000Y-54228955D01*
X190530535Y-54477987D01*
X190627703Y-54712570D01*
X190768768Y-54923690D01*
X190948310Y-55103232D01*
X191159430Y-55244297D01*
X191394013Y-55341465D01*
X191643045Y-55391000D01*
X191896955Y-55391000D01*
X192145987Y-55341465D01*
X192380570Y-55244297D01*
X192591690Y-55103232D01*
X192741877Y-54953045D01*
X224594000Y-54953045D01*
X224594000Y-55206955D01*
X224643535Y-55455987D01*
X224740703Y-55690570D01*
X224881768Y-55901690D01*
X225061310Y-56081232D01*
X225272430Y-56222297D01*
X225507013Y-56319465D01*
X225756045Y-56369000D01*
X226009955Y-56369000D01*
X226258987Y-56319465D01*
X226493570Y-56222297D01*
X226704690Y-56081232D01*
X226884232Y-55901690D01*
X227025297Y-55690570D01*
X227122465Y-55455987D01*
X227172000Y-55206955D01*
X227172000Y-54953045D01*
X227122465Y-54704013D01*
X227025297Y-54469430D01*
X226884232Y-54258310D01*
X226704690Y-54078768D01*
X226493570Y-53937703D01*
X226258987Y-53840535D01*
X226009955Y-53791000D01*
X225756045Y-53791000D01*
X225507013Y-53840535D01*
X225272430Y-53937703D01*
X225061310Y-54078768D01*
X224881768Y-54258310D01*
X224740703Y-54469430D01*
X224643535Y-54704013D01*
X224594000Y-54953045D01*
X192741877Y-54953045D01*
X192771232Y-54923690D01*
X192912297Y-54712570D01*
X193009465Y-54477987D01*
X193059000Y-54228955D01*
X193059000Y-53975045D01*
X193009465Y-53726013D01*
X192912297Y-53491430D01*
X192771232Y-53280310D01*
X192591690Y-53100768D01*
X192380570Y-52959703D01*
X192145987Y-52862535D01*
X191896955Y-52813000D01*
X191643045Y-52813000D01*
X191394013Y-52862535D01*
X191159430Y-52959703D01*
X190948310Y-53100768D01*
X190768768Y-53280310D01*
X190627703Y-53491430D01*
X190530535Y-53726013D01*
X190481000Y-53975045D01*
X182922967Y-53975045D01*
X182796690Y-53848768D01*
X182585570Y-53707703D01*
X182350987Y-53610535D01*
X182101955Y-53561000D01*
X181848045Y-53561000D01*
X181599013Y-53610535D01*
X181364430Y-53707703D01*
X181153310Y-53848768D01*
X180973768Y-54028310D01*
X180832703Y-54239430D01*
X180735535Y-54474013D01*
X180686000Y-54723045D01*
X180686000Y-54976955D01*
X180735535Y-55225987D01*
X180830469Y-55455178D01*
X180761248Y-55622293D01*
X180720297Y-55523430D01*
X180579232Y-55312310D01*
X180399690Y-55132768D01*
X180188570Y-54991703D01*
X179953987Y-54894535D01*
X179704955Y-54845000D01*
X179545793Y-54845000D01*
X179501232Y-54778310D01*
X179321690Y-54598768D01*
X179110570Y-54457703D01*
X178951050Y-54391627D01*
X178867297Y-54189430D01*
X178726232Y-53978310D01*
X178546690Y-53798768D01*
X178335570Y-53657703D01*
X178100987Y-53560535D01*
X177851955Y-53511000D01*
X177598045Y-53511000D01*
X177349013Y-53560535D01*
X177114430Y-53657703D01*
X176903310Y-53798768D01*
X176723768Y-53978310D01*
X176582703Y-54189430D01*
X176485535Y-54424013D01*
X176436000Y-54673045D01*
X172785227Y-54673045D01*
X172699162Y-54544239D01*
X172519620Y-54364697D01*
X172308500Y-54223632D01*
X172073917Y-54126464D01*
X171824885Y-54076929D01*
X171570975Y-54076929D01*
X171321943Y-54126464D01*
X171087360Y-54223632D01*
X170876240Y-54364697D01*
X170696698Y-54544239D01*
X170555633Y-54755359D01*
X170458465Y-54989942D01*
X170408930Y-55238974D01*
X163065543Y-55238974D01*
X163271690Y-55101232D01*
X163451232Y-54921690D01*
X163592297Y-54710570D01*
X163689465Y-54475987D01*
X163739000Y-54226955D01*
X163739000Y-53973045D01*
X163689465Y-53724013D01*
X163592297Y-53489430D01*
X163451232Y-53278310D01*
X163271690Y-53098768D01*
X163060570Y-52957703D01*
X162825987Y-52860535D01*
X162576955Y-52811000D01*
X162323045Y-52811000D01*
X162074013Y-52860535D01*
X161839430Y-52957703D01*
X161628310Y-53098768D01*
X161448768Y-53278310D01*
X161307703Y-53489430D01*
X161210535Y-53724013D01*
X161161000Y-53973045D01*
X157700521Y-53973045D01*
X157792379Y-53835570D01*
X157889547Y-53600987D01*
X157939082Y-53351955D01*
X157939082Y-53098045D01*
X157889547Y-52849013D01*
X157792379Y-52614430D01*
X157651314Y-52403310D01*
X157471772Y-52223768D01*
X157431778Y-52197045D01*
X171685000Y-52197045D01*
X171685000Y-52450955D01*
X171734535Y-52699987D01*
X171831703Y-52934570D01*
X171972768Y-53145690D01*
X172152310Y-53325232D01*
X172363430Y-53466297D01*
X172598013Y-53563465D01*
X172847045Y-53613000D01*
X173100955Y-53613000D01*
X173349987Y-53563465D01*
X173584570Y-53466297D01*
X173795690Y-53325232D01*
X173975232Y-53145690D01*
X174116297Y-52934570D01*
X174213465Y-52699987D01*
X174263000Y-52450955D01*
X174263000Y-52197045D01*
X174213465Y-51948013D01*
X174116297Y-51713430D01*
X174100004Y-51689045D01*
X178543000Y-51689045D01*
X178543000Y-51942955D01*
X178592535Y-52191987D01*
X178689703Y-52426570D01*
X178830768Y-52637690D01*
X179010310Y-52817232D01*
X179221430Y-52958297D01*
X179456013Y-53055465D01*
X179705045Y-53105000D01*
X179958955Y-53105000D01*
X180207987Y-53055465D01*
X180442570Y-52958297D01*
X180653690Y-52817232D01*
X180833232Y-52637690D01*
X180974297Y-52426570D01*
X181071465Y-52191987D01*
X181121000Y-51942955D01*
X181121000Y-51689045D01*
X181071465Y-51440013D01*
X180974297Y-51205430D01*
X180833232Y-50994310D01*
X180653690Y-50814768D01*
X180442570Y-50673703D01*
X180207987Y-50576535D01*
X179958955Y-50527000D01*
X179705045Y-50527000D01*
X179456013Y-50576535D01*
X179221430Y-50673703D01*
X179010310Y-50814768D01*
X178830768Y-50994310D01*
X178689703Y-51205430D01*
X178592535Y-51440013D01*
X178543000Y-51689045D01*
X174100004Y-51689045D01*
X173975232Y-51502310D01*
X173795690Y-51322768D01*
X173584570Y-51181703D01*
X173349987Y-51084535D01*
X173100955Y-51035000D01*
X172847045Y-51035000D01*
X172598013Y-51084535D01*
X172363430Y-51181703D01*
X172152310Y-51322768D01*
X171972768Y-51502310D01*
X171831703Y-51713430D01*
X171734535Y-51948013D01*
X171685000Y-52197045D01*
X157431778Y-52197045D01*
X157260652Y-52082703D01*
X157026069Y-51985535D01*
X156777037Y-51936000D01*
X156523127Y-51936000D01*
X156274095Y-51985535D01*
X156039512Y-52082703D01*
X155828392Y-52223768D01*
X155648850Y-52403310D01*
X155507785Y-52614430D01*
X155410617Y-52849013D01*
X155361082Y-53098045D01*
X83564000Y-53098045D01*
X83564000Y-49657045D01*
X143999000Y-49657045D01*
X143999000Y-49910955D01*
X144048535Y-50159987D01*
X144145703Y-50394570D01*
X144286768Y-50605690D01*
X144466310Y-50785232D01*
X144677430Y-50926297D01*
X144912013Y-51023465D01*
X145161045Y-51073000D01*
X145414955Y-51073000D01*
X145663987Y-51023465D01*
X145898570Y-50926297D01*
X146109690Y-50785232D01*
X146289232Y-50605690D01*
X146430297Y-50394570D01*
X146527465Y-50159987D01*
X146577000Y-49910955D01*
X146577000Y-49657045D01*
X146527465Y-49408013D01*
X146430297Y-49173430D01*
X146289232Y-48962310D01*
X146109690Y-48782768D01*
X145937994Y-48668045D01*
X177574000Y-48668045D01*
X177574000Y-48921955D01*
X177623535Y-49170987D01*
X177720703Y-49405570D01*
X177861768Y-49616690D01*
X178041310Y-49796232D01*
X178252430Y-49937297D01*
X178487013Y-50034465D01*
X178736045Y-50084000D01*
X178989955Y-50084000D01*
X179238987Y-50034465D01*
X179473570Y-49937297D01*
X179684690Y-49796232D01*
X179864232Y-49616690D01*
X180005297Y-49405570D01*
X180102465Y-49170987D01*
X180152000Y-48921955D01*
X180152000Y-48668045D01*
X180102465Y-48419013D01*
X180005297Y-48184430D01*
X179864232Y-47973310D01*
X179684690Y-47793768D01*
X179473570Y-47652703D01*
X179238987Y-47555535D01*
X178989955Y-47506000D01*
X178736045Y-47506000D01*
X178487013Y-47555535D01*
X178252430Y-47652703D01*
X178041310Y-47793768D01*
X177861768Y-47973310D01*
X177720703Y-48184430D01*
X177623535Y-48419013D01*
X177574000Y-48668045D01*
X145937994Y-48668045D01*
X145898570Y-48641703D01*
X145663987Y-48544535D01*
X145414955Y-48495000D01*
X145161045Y-48495000D01*
X144912013Y-48544535D01*
X144677430Y-48641703D01*
X144466310Y-48782768D01*
X144286768Y-48962310D01*
X144145703Y-49173430D01*
X144048535Y-49408013D01*
X143999000Y-49657045D01*
X83564000Y-49657045D01*
X83564000Y-44298045D01*
X142986000Y-44298045D01*
X142986000Y-44551955D01*
X143035535Y-44800987D01*
X143132703Y-45035570D01*
X143273768Y-45246690D01*
X143453310Y-45426232D01*
X143664430Y-45567297D01*
X143899013Y-45664465D01*
X144148045Y-45714000D01*
X144401955Y-45714000D01*
X144650987Y-45664465D01*
X144885570Y-45567297D01*
X145096690Y-45426232D01*
X145183877Y-45339045D01*
X191243000Y-45339045D01*
X191243000Y-45592955D01*
X191292535Y-45841987D01*
X191389703Y-46076570D01*
X191530768Y-46287690D01*
X191710310Y-46467232D01*
X191921430Y-46608297D01*
X192156013Y-46705465D01*
X192405045Y-46755000D01*
X192658955Y-46755000D01*
X192907987Y-46705465D01*
X193142570Y-46608297D01*
X193353690Y-46467232D01*
X193533232Y-46287690D01*
X193674297Y-46076570D01*
X193771465Y-45841987D01*
X193821000Y-45592955D01*
X193821000Y-45339045D01*
X193771465Y-45090013D01*
X193674297Y-44855430D01*
X193533232Y-44644310D01*
X193353690Y-44464768D01*
X193142570Y-44323703D01*
X192907987Y-44226535D01*
X192658955Y-44177000D01*
X192405045Y-44177000D01*
X192156013Y-44226535D01*
X191921430Y-44323703D01*
X191710310Y-44464768D01*
X191530768Y-44644310D01*
X191389703Y-44855430D01*
X191292535Y-45090013D01*
X191243000Y-45339045D01*
X145183877Y-45339045D01*
X145276232Y-45246690D01*
X145417297Y-45035570D01*
X145514465Y-44800987D01*
X145564000Y-44551955D01*
X145564000Y-44298045D01*
X145514465Y-44049013D01*
X145417297Y-43814430D01*
X145276232Y-43603310D01*
X145096690Y-43423768D01*
X144885570Y-43282703D01*
X144650987Y-43185535D01*
X144401955Y-43136000D01*
X144148045Y-43136000D01*
X143899013Y-43185535D01*
X143664430Y-43282703D01*
X143453310Y-43423768D01*
X143273768Y-43603310D01*
X143132703Y-43814430D01*
X143035535Y-44049013D01*
X142986000Y-44298045D01*
X83564000Y-44298045D01*
X83564000Y-39448045D01*
X135586000Y-39448045D01*
X135586000Y-39701955D01*
X135635535Y-39950987D01*
X135732703Y-40185570D01*
X135873768Y-40396690D01*
X136053310Y-40576232D01*
X136264430Y-40717297D01*
X136499013Y-40814465D01*
X136748045Y-40864000D01*
X137001955Y-40864000D01*
X137250987Y-40814465D01*
X137485570Y-40717297D01*
X137696690Y-40576232D01*
X137750000Y-40522922D01*
X137878310Y-40651232D01*
X138089430Y-40792297D01*
X138324013Y-40889465D01*
X138573045Y-40939000D01*
X138826955Y-40939000D01*
X139075987Y-40889465D01*
X139310570Y-40792297D01*
X139348362Y-40767045D01*
X187433000Y-40767045D01*
X187433000Y-41020955D01*
X187482535Y-41269987D01*
X187579703Y-41504570D01*
X187720768Y-41715690D01*
X187900310Y-41895232D01*
X188111430Y-42036297D01*
X188346013Y-42133465D01*
X188595045Y-42183000D01*
X188848955Y-42183000D01*
X189097987Y-42133465D01*
X189332570Y-42036297D01*
X189543690Y-41895232D01*
X189723232Y-41715690D01*
X189864297Y-41504570D01*
X189961465Y-41269987D01*
X190011000Y-41020955D01*
X190011000Y-40767045D01*
X189961465Y-40518013D01*
X189864297Y-40283430D01*
X189723232Y-40072310D01*
X189543690Y-39892768D01*
X189332570Y-39751703D01*
X189097987Y-39654535D01*
X188848955Y-39605000D01*
X188595045Y-39605000D01*
X188346013Y-39654535D01*
X188111430Y-39751703D01*
X187900310Y-39892768D01*
X187720768Y-40072310D01*
X187579703Y-40283430D01*
X187482535Y-40518013D01*
X187433000Y-40767045D01*
X139348362Y-40767045D01*
X139521690Y-40651232D01*
X139701232Y-40471690D01*
X139842297Y-40260570D01*
X139939465Y-40025987D01*
X139989000Y-39776955D01*
X139989000Y-39523045D01*
X139939465Y-39274013D01*
X139876932Y-39123045D01*
X168536000Y-39123045D01*
X168536000Y-39376955D01*
X168585535Y-39625987D01*
X168682703Y-39860570D01*
X168823768Y-40071690D01*
X169003310Y-40251232D01*
X169214430Y-40392297D01*
X169449013Y-40489465D01*
X169698045Y-40539000D01*
X169951955Y-40539000D01*
X170200987Y-40489465D01*
X170435570Y-40392297D01*
X170646690Y-40251232D01*
X170826232Y-40071690D01*
X170967297Y-39860570D01*
X171064465Y-39625987D01*
X171114000Y-39376955D01*
X171114000Y-39123045D01*
X171064465Y-38874013D01*
X170967297Y-38639430D01*
X170826232Y-38428310D01*
X170646690Y-38248768D01*
X170435570Y-38107703D01*
X170200987Y-38010535D01*
X169951955Y-37961000D01*
X169698045Y-37961000D01*
X169449013Y-38010535D01*
X169214430Y-38107703D01*
X169003310Y-38248768D01*
X168823768Y-38428310D01*
X168682703Y-38639430D01*
X168585535Y-38874013D01*
X168536000Y-39123045D01*
X139876932Y-39123045D01*
X139842297Y-39039430D01*
X139701232Y-38828310D01*
X139521690Y-38648768D01*
X139310570Y-38507703D01*
X139075987Y-38410535D01*
X138826955Y-38361000D01*
X138573045Y-38361000D01*
X138324013Y-38410535D01*
X138089430Y-38507703D01*
X137878310Y-38648768D01*
X137825000Y-38702078D01*
X137696690Y-38573768D01*
X137485570Y-38432703D01*
X137250987Y-38335535D01*
X137001955Y-38286000D01*
X136748045Y-38286000D01*
X136499013Y-38335535D01*
X136264430Y-38432703D01*
X136053310Y-38573768D01*
X135873768Y-38753310D01*
X135732703Y-38964430D01*
X135635535Y-39199013D01*
X135586000Y-39448045D01*
X83564000Y-39448045D01*
X83564000Y-38663855D01*
X83633023Y-37786835D01*
X83829295Y-36969305D01*
X84151040Y-36192543D01*
X84590332Y-35475683D01*
X85136364Y-34836363D01*
X85775680Y-34290335D01*
X86492543Y-33851040D01*
X87269306Y-33529294D01*
X88086835Y-33333023D01*
X88963855Y-33264000D01*
X248444609Y-33264000D01*
X248372361Y-85490262D01*
G36*
X280263165Y-33333023D02*
G01*
X281080695Y-33529295D01*
X281857457Y-33851040D01*
X282574317Y-34290332D01*
X283213637Y-34836364D01*
X283759665Y-35475680D01*
X284198960Y-36192543D01*
X284520706Y-36969306D01*
X284716977Y-37786835D01*
X284786001Y-38663867D01*
X284786000Y-250807730D01*
X284756491Y-254861099D01*
X284716977Y-255363165D01*
X284520706Y-256180694D01*
X284198960Y-256957457D01*
X283759665Y-257674320D01*
X283213637Y-258313636D01*
X282574317Y-258859668D01*
X281857457Y-259298960D01*
X281080695Y-259620705D01*
X280263165Y-259816977D01*
X279386145Y-259886000D01*
X241363855Y-259886000D01*
X240486835Y-259816977D01*
X239669306Y-259620706D01*
X238892543Y-259298960D01*
X238175680Y-258859665D01*
X237536364Y-258313637D01*
X236990332Y-257674317D01*
X236551040Y-256957457D01*
X236229295Y-256180695D01*
X236033023Y-255363165D01*
X235964000Y-254486145D01*
X235964000Y-253885045D01*
X260419000Y-253885045D01*
X260419000Y-254138955D01*
X260468535Y-254387987D01*
X260565703Y-254622570D01*
X260706768Y-254833690D01*
X260886310Y-255013232D01*
X261097430Y-255154297D01*
X261332013Y-255251465D01*
X261581045Y-255301000D01*
X261834955Y-255301000D01*
X262083987Y-255251465D01*
X262318570Y-255154297D01*
X262529690Y-255013232D01*
X262709232Y-254833690D01*
X262850297Y-254622570D01*
X262947465Y-254387987D01*
X262997000Y-254138955D01*
X262997000Y-253885045D01*
X262947465Y-253636013D01*
X262850297Y-253401430D01*
X262709232Y-253190310D01*
X262529690Y-253010768D01*
X262318570Y-252869703D01*
X262083987Y-252772535D01*
X261834955Y-252723000D01*
X261581045Y-252723000D01*
X261332013Y-252772535D01*
X261097430Y-252869703D01*
X260886310Y-253010768D01*
X260706768Y-253190310D01*
X260565703Y-253401430D01*
X260468535Y-253636013D01*
X260419000Y-253885045D01*
X235964000Y-253885045D01*
X235964000Y-190710685D01*
X241461000Y-190710685D01*
X241461000Y-191309315D01*
X241577787Y-191896443D01*
X241806874Y-192449506D01*
X242139455Y-192947249D01*
X242562751Y-193370545D01*
X243060494Y-193703126D01*
X243613557Y-193932213D01*
X244200685Y-194049000D01*
X244799315Y-194049000D01*
X245386443Y-193932213D01*
X245939506Y-193703126D01*
X246437249Y-193370545D01*
X246860545Y-192947249D01*
X247193126Y-192449506D01*
X247422213Y-191896443D01*
X247539000Y-191309315D01*
X247539000Y-190720685D01*
X273211000Y-190720685D01*
X273211000Y-191319315D01*
X273327787Y-191906443D01*
X273556874Y-192459506D01*
X273889455Y-192957249D01*
X274312751Y-193380545D01*
X274810494Y-193713126D01*
X275363557Y-193942213D01*
X275950685Y-194059000D01*
X276549315Y-194059000D01*
X277136443Y-193942213D01*
X277689506Y-193713126D01*
X278187249Y-193380545D01*
X278610545Y-192957249D01*
X278943126Y-192459506D01*
X279172213Y-191906443D01*
X279289000Y-191319315D01*
X279289000Y-190720685D01*
X279172213Y-190133557D01*
X278943126Y-189580494D01*
X278610545Y-189082751D01*
X278187249Y-188659455D01*
X277689506Y-188326874D01*
X277136443Y-188097787D01*
X276549315Y-187981000D01*
X275950685Y-187981000D01*
X275363557Y-188097787D01*
X274810494Y-188326874D01*
X274312751Y-188659455D01*
X273889455Y-189082751D01*
X273556874Y-189580494D01*
X273327787Y-190133557D01*
X273211000Y-190720685D01*
X247539000Y-190720685D01*
X247539000Y-190710685D01*
X247422213Y-190123557D01*
X247193126Y-189570494D01*
X246860545Y-189072751D01*
X246437249Y-188649455D01*
X245939506Y-188316874D01*
X245386443Y-188087787D01*
X244799315Y-187971000D01*
X244200685Y-187971000D01*
X243613557Y-188087787D01*
X243060494Y-188316874D01*
X242562751Y-188649455D01*
X242139455Y-189072751D01*
X241806874Y-189570494D01*
X241577787Y-190123557D01*
X241461000Y-190710685D01*
X235964000Y-190710685D01*
X235964000Y-180675045D01*
X260361000Y-180675045D01*
X260361000Y-180928955D01*
X260410535Y-181177987D01*
X260507703Y-181412570D01*
X260648768Y-181623690D01*
X260828310Y-181803232D01*
X261039430Y-181944297D01*
X261274013Y-182041465D01*
X261523045Y-182091000D01*
X261776955Y-182091000D01*
X262025987Y-182041465D01*
X262260570Y-181944297D01*
X262471690Y-181803232D01*
X262651232Y-181623690D01*
X262792297Y-181412570D01*
X262889465Y-181177987D01*
X262939000Y-180928955D01*
X262939000Y-180675045D01*
X262889465Y-180426013D01*
X262792297Y-180191430D01*
X262651232Y-179980310D01*
X262471690Y-179800768D01*
X262260570Y-179659703D01*
X262025987Y-179562535D01*
X261776955Y-179513000D01*
X261523045Y-179513000D01*
X261274013Y-179562535D01*
X261039430Y-179659703D01*
X260828310Y-179800768D01*
X260648768Y-179980310D01*
X260507703Y-180191430D01*
X260410535Y-180426013D01*
X260361000Y-180675045D01*
X235964000Y-180675045D01*
X235964000Y-101840685D01*
X241461000Y-101840685D01*
X241461000Y-102439315D01*
X241577787Y-103026443D01*
X241806874Y-103579506D01*
X242139455Y-104077249D01*
X242562751Y-104500545D01*
X243060494Y-104833126D01*
X243613557Y-105062213D01*
X244200685Y-105179000D01*
X244799315Y-105179000D01*
X245386443Y-105062213D01*
X245437546Y-105041045D01*
X250259000Y-105041045D01*
X250259000Y-105294955D01*
X250308535Y-105543987D01*
X250405703Y-105778570D01*
X250546768Y-105989690D01*
X250726310Y-106169232D01*
X250937430Y-106310297D01*
X251172013Y-106407465D01*
X251421045Y-106457000D01*
X251674955Y-106457000D01*
X251923987Y-106407465D01*
X252158570Y-106310297D01*
X252369690Y-106169232D01*
X252549232Y-105989690D01*
X252690297Y-105778570D01*
X252787465Y-105543987D01*
X252837000Y-105294955D01*
X252837000Y-105041045D01*
X252787465Y-104792013D01*
X252690297Y-104557430D01*
X252549232Y-104346310D01*
X252369690Y-104166768D01*
X252158570Y-104025703D01*
X251923987Y-103928535D01*
X251674955Y-103879000D01*
X251421045Y-103879000D01*
X251172013Y-103928535D01*
X250937430Y-104025703D01*
X250726310Y-104166768D01*
X250546768Y-104346310D01*
X250405703Y-104557430D01*
X250308535Y-104792013D01*
X250259000Y-105041045D01*
X245437546Y-105041045D01*
X245939506Y-104833126D01*
X246437249Y-104500545D01*
X246860545Y-104077249D01*
X247193126Y-103579506D01*
X247422213Y-103026443D01*
X247539000Y-102439315D01*
X247539000Y-101840685D01*
X247535022Y-101820685D01*
X273221000Y-101820685D01*
X273221000Y-102419315D01*
X273337787Y-103006443D01*
X273566874Y-103559506D01*
X273899455Y-104057249D01*
X274322751Y-104480545D01*
X274820494Y-104813126D01*
X275373557Y-105042213D01*
X275960685Y-105159000D01*
X276559315Y-105159000D01*
X277146443Y-105042213D01*
X277699506Y-104813126D01*
X278197249Y-104480545D01*
X278620545Y-104057249D01*
X278953126Y-103559506D01*
X279182213Y-103006443D01*
X279299000Y-102419315D01*
X279299000Y-101820685D01*
X279182213Y-101233557D01*
X278953126Y-100680494D01*
X278620545Y-100182751D01*
X278197249Y-99759455D01*
X277699506Y-99426874D01*
X277146443Y-99197787D01*
X276559315Y-99081000D01*
X275960685Y-99081000D01*
X275373557Y-99197787D01*
X274820494Y-99426874D01*
X274322751Y-99759455D01*
X273899455Y-100182751D01*
X273566874Y-100680494D01*
X273337787Y-101233557D01*
X273221000Y-101820685D01*
X247535022Y-101820685D01*
X247422213Y-101253557D01*
X247193126Y-100700494D01*
X246860545Y-100202751D01*
X246437249Y-99779455D01*
X245939506Y-99446874D01*
X245386443Y-99217787D01*
X244799315Y-99101000D01*
X244200685Y-99101000D01*
X243613557Y-99217787D01*
X243060494Y-99446874D01*
X242562751Y-99779455D01*
X242139455Y-100202751D01*
X241806874Y-100700494D01*
X241577787Y-101253557D01*
X241461000Y-101840685D01*
X235964000Y-101840685D01*
X235964000Y-89376416D01*
X235960189Y-89337721D01*
X235882772Y-88354045D01*
X235858495Y-88200763D01*
X235625883Y-87231865D01*
X235577926Y-87084268D01*
X235196608Y-86163686D01*
X235126152Y-86025408D01*
X235126148Y-86025403D01*
X234710288Y-85346780D01*
X234678456Y-72923045D01*
X235886000Y-72923045D01*
X235886000Y-73176955D01*
X235935535Y-73425987D01*
X236032703Y-73660570D01*
X236173768Y-73871690D01*
X236353310Y-74051232D01*
X236564430Y-74192297D01*
X236799013Y-74289465D01*
X237048045Y-74339000D01*
X237301955Y-74339000D01*
X237550987Y-74289465D01*
X237785570Y-74192297D01*
X237996690Y-74051232D01*
X238176232Y-73871690D01*
X238317297Y-73660570D01*
X238414465Y-73425987D01*
X238464000Y-73176955D01*
X238464000Y-72923045D01*
X238414465Y-72674013D01*
X238317297Y-72439430D01*
X238176232Y-72228310D01*
X237996690Y-72048768D01*
X237785570Y-71907703D01*
X237550987Y-71810535D01*
X237301955Y-71761000D01*
X237048045Y-71761000D01*
X236799013Y-71810535D01*
X236564430Y-71907703D01*
X236353310Y-72048768D01*
X236173768Y-72228310D01*
X236032703Y-72439430D01*
X235935535Y-72674013D01*
X235886000Y-72923045D01*
X234678456Y-72923045D01*
X234663979Y-67273045D01*
X235236000Y-67273045D01*
X235236000Y-67526955D01*
X235285535Y-67775987D01*
X235382703Y-68010570D01*
X235523768Y-68221690D01*
X235703310Y-68401232D01*
X235914430Y-68542297D01*
X236149013Y-68639465D01*
X236398045Y-68689000D01*
X236651955Y-68689000D01*
X236900987Y-68639465D01*
X237135570Y-68542297D01*
X237346690Y-68401232D01*
X237526232Y-68221690D01*
X237667297Y-68010570D01*
X237764465Y-67775987D01*
X237814000Y-67526955D01*
X237814000Y-67273045D01*
X237764465Y-67024013D01*
X237667297Y-66789430D01*
X237526232Y-66578310D01*
X237346690Y-66398768D01*
X237135570Y-66257703D01*
X236900987Y-66160535D01*
X236651955Y-66111000D01*
X236398045Y-66111000D01*
X236149013Y-66160535D01*
X235914430Y-66257703D01*
X235703310Y-66398768D01*
X235523768Y-66578310D01*
X235382703Y-66789430D01*
X235285535Y-67024013D01*
X235236000Y-67273045D01*
X234663979Y-67273045D01*
X234576840Y-33264000D01*
X279386145Y-33264000D01*
X280263165Y-33333023D01*
X280263165Y-33333023D01*
G37*
X280263165Y-33333023D02*
X281080695Y-33529295D01*
X281857457Y-33851040D01*
X282574317Y-34290332D01*
X283213637Y-34836364D01*
X283759665Y-35475680D01*
X284198960Y-36192543D01*
X284520706Y-36969306D01*
X284716977Y-37786835D01*
X284786001Y-38663867D01*
X284786000Y-250807730D01*
X284756491Y-254861099D01*
X284716977Y-255363165D01*
X284520706Y-256180694D01*
X284198960Y-256957457D01*
X283759665Y-257674320D01*
X283213637Y-258313636D01*
X282574317Y-258859668D01*
X281857457Y-259298960D01*
X281080695Y-259620705D01*
X280263165Y-259816977D01*
X279386145Y-259886000D01*
X241363855Y-259886000D01*
X240486835Y-259816977D01*
X239669306Y-259620706D01*
X238892543Y-259298960D01*
X238175680Y-258859665D01*
X237536364Y-258313637D01*
X236990332Y-257674317D01*
X236551040Y-256957457D01*
X236229295Y-256180695D01*
X236033023Y-255363165D01*
X235964000Y-254486145D01*
X235964000Y-253885045D01*
X260419000Y-253885045D01*
X260419000Y-254138955D01*
X260468535Y-254387987D01*
X260565703Y-254622570D01*
X260706768Y-254833690D01*
X260886310Y-255013232D01*
X261097430Y-255154297D01*
X261332013Y-255251465D01*
X261581045Y-255301000D01*
X261834955Y-255301000D01*
X262083987Y-255251465D01*
X262318570Y-255154297D01*
X262529690Y-255013232D01*
X262709232Y-254833690D01*
X262850297Y-254622570D01*
X262947465Y-254387987D01*
X262997000Y-254138955D01*
X262997000Y-253885045D01*
X262947465Y-253636013D01*
X262850297Y-253401430D01*
X262709232Y-253190310D01*
X262529690Y-253010768D01*
X262318570Y-252869703D01*
X262083987Y-252772535D01*
X261834955Y-252723000D01*
X261581045Y-252723000D01*
X261332013Y-252772535D01*
X261097430Y-252869703D01*
X260886310Y-253010768D01*
X260706768Y-253190310D01*
X260565703Y-253401430D01*
X260468535Y-253636013D01*
X260419000Y-253885045D01*
X235964000Y-253885045D01*
X235964000Y-190710685D01*
X241461000Y-190710685D01*
X241461000Y-191309315D01*
X241577787Y-191896443D01*
X241806874Y-192449506D01*
X242139455Y-192947249D01*
X242562751Y-193370545D01*
X243060494Y-193703126D01*
X243613557Y-193932213D01*
X244200685Y-194049000D01*
X244799315Y-194049000D01*
X245386443Y-193932213D01*
X245939506Y-193703126D01*
X246437249Y-193370545D01*
X246860545Y-192947249D01*
X247193126Y-192449506D01*
X247422213Y-191896443D01*
X247539000Y-191309315D01*
X247539000Y-190720685D01*
X273211000Y-190720685D01*
X273211000Y-191319315D01*
X273327787Y-191906443D01*
X273556874Y-192459506D01*
X273889455Y-192957249D01*
X274312751Y-193380545D01*
X274810494Y-193713126D01*
X275363557Y-193942213D01*
X275950685Y-194059000D01*
X276549315Y-194059000D01*
X277136443Y-193942213D01*
X277689506Y-193713126D01*
X278187249Y-193380545D01*
X278610545Y-192957249D01*
X278943126Y-192459506D01*
X279172213Y-191906443D01*
X279289000Y-191319315D01*
X279289000Y-190720685D01*
X279172213Y-190133557D01*
X278943126Y-189580494D01*
X278610545Y-189082751D01*
X278187249Y-188659455D01*
X277689506Y-188326874D01*
X277136443Y-188097787D01*
X276549315Y-187981000D01*
X275950685Y-187981000D01*
X275363557Y-188097787D01*
X274810494Y-188326874D01*
X274312751Y-188659455D01*
X273889455Y-189082751D01*
X273556874Y-189580494D01*
X273327787Y-190133557D01*
X273211000Y-190720685D01*
X247539000Y-190720685D01*
X247539000Y-190710685D01*
X247422213Y-190123557D01*
X247193126Y-189570494D01*
X246860545Y-189072751D01*
X246437249Y-188649455D01*
X245939506Y-188316874D01*
X245386443Y-188087787D01*
X244799315Y-187971000D01*
X244200685Y-187971000D01*
X243613557Y-188087787D01*
X243060494Y-188316874D01*
X242562751Y-188649455D01*
X242139455Y-189072751D01*
X241806874Y-189570494D01*
X241577787Y-190123557D01*
X241461000Y-190710685D01*
X235964000Y-190710685D01*
X235964000Y-180675045D01*
X260361000Y-180675045D01*
X260361000Y-180928955D01*
X260410535Y-181177987D01*
X260507703Y-181412570D01*
X260648768Y-181623690D01*
X260828310Y-181803232D01*
X261039430Y-181944297D01*
X261274013Y-182041465D01*
X261523045Y-182091000D01*
X261776955Y-182091000D01*
X262025987Y-182041465D01*
X262260570Y-181944297D01*
X262471690Y-181803232D01*
X262651232Y-181623690D01*
X262792297Y-181412570D01*
X262889465Y-181177987D01*
X262939000Y-180928955D01*
X262939000Y-180675045D01*
X262889465Y-180426013D01*
X262792297Y-180191430D01*
X262651232Y-179980310D01*
X262471690Y-179800768D01*
X262260570Y-179659703D01*
X262025987Y-179562535D01*
X261776955Y-179513000D01*
X261523045Y-179513000D01*
X261274013Y-179562535D01*
X261039430Y-179659703D01*
X260828310Y-179800768D01*
X260648768Y-179980310D01*
X260507703Y-180191430D01*
X260410535Y-180426013D01*
X260361000Y-180675045D01*
X235964000Y-180675045D01*
X235964000Y-101840685D01*
X241461000Y-101840685D01*
X241461000Y-102439315D01*
X241577787Y-103026443D01*
X241806874Y-103579506D01*
X242139455Y-104077249D01*
X242562751Y-104500545D01*
X243060494Y-104833126D01*
X243613557Y-105062213D01*
X244200685Y-105179000D01*
X244799315Y-105179000D01*
X245386443Y-105062213D01*
X245437546Y-105041045D01*
X250259000Y-105041045D01*
X250259000Y-105294955D01*
X250308535Y-105543987D01*
X250405703Y-105778570D01*
X250546768Y-105989690D01*
X250726310Y-106169232D01*
X250937430Y-106310297D01*
X251172013Y-106407465D01*
X251421045Y-106457000D01*
X251674955Y-106457000D01*
X251923987Y-106407465D01*
X252158570Y-106310297D01*
X252369690Y-106169232D01*
X252549232Y-105989690D01*
X252690297Y-105778570D01*
X252787465Y-105543987D01*
X252837000Y-105294955D01*
X252837000Y-105041045D01*
X252787465Y-104792013D01*
X252690297Y-104557430D01*
X252549232Y-104346310D01*
X252369690Y-104166768D01*
X252158570Y-104025703D01*
X251923987Y-103928535D01*
X251674955Y-103879000D01*
X251421045Y-103879000D01*
X251172013Y-103928535D01*
X250937430Y-104025703D01*
X250726310Y-104166768D01*
X250546768Y-104346310D01*
X250405703Y-104557430D01*
X250308535Y-104792013D01*
X250259000Y-105041045D01*
X245437546Y-105041045D01*
X245939506Y-104833126D01*
X246437249Y-104500545D01*
X246860545Y-104077249D01*
X247193126Y-103579506D01*
X247422213Y-103026443D01*
X247539000Y-102439315D01*
X247539000Y-101840685D01*
X247535022Y-101820685D01*
X273221000Y-101820685D01*
X273221000Y-102419315D01*
X273337787Y-103006443D01*
X273566874Y-103559506D01*
X273899455Y-104057249D01*
X274322751Y-104480545D01*
X274820494Y-104813126D01*
X275373557Y-105042213D01*
X275960685Y-105159000D01*
X276559315Y-105159000D01*
X277146443Y-105042213D01*
X277699506Y-104813126D01*
X278197249Y-104480545D01*
X278620545Y-104057249D01*
X278953126Y-103559506D01*
X279182213Y-103006443D01*
X279299000Y-102419315D01*
X279299000Y-101820685D01*
X279182213Y-101233557D01*
X278953126Y-100680494D01*
X278620545Y-100182751D01*
X278197249Y-99759455D01*
X277699506Y-99426874D01*
X277146443Y-99197787D01*
X276559315Y-99081000D01*
X275960685Y-99081000D01*
X275373557Y-99197787D01*
X274820494Y-99426874D01*
X274322751Y-99759455D01*
X273899455Y-100182751D01*
X273566874Y-100680494D01*
X273337787Y-101233557D01*
X273221000Y-101820685D01*
X247535022Y-101820685D01*
X247422213Y-101253557D01*
X247193126Y-100700494D01*
X246860545Y-100202751D01*
X246437249Y-99779455D01*
X245939506Y-99446874D01*
X245386443Y-99217787D01*
X244799315Y-99101000D01*
X244200685Y-99101000D01*
X243613557Y-99217787D01*
X243060494Y-99446874D01*
X242562751Y-99779455D01*
X242139455Y-100202751D01*
X241806874Y-100700494D01*
X241577787Y-101253557D01*
X241461000Y-101840685D01*
X235964000Y-101840685D01*
X235964000Y-89376416D01*
X235960189Y-89337721D01*
X235882772Y-88354045D01*
X235858495Y-88200763D01*
X235625883Y-87231865D01*
X235577926Y-87084268D01*
X235196608Y-86163686D01*
X235126152Y-86025408D01*
X235126148Y-86025403D01*
X234710288Y-85346780D01*
X234678456Y-72923045D01*
X235886000Y-72923045D01*
X235886000Y-73176955D01*
X235935535Y-73425987D01*
X236032703Y-73660570D01*
X236173768Y-73871690D01*
X236353310Y-74051232D01*
X236564430Y-74192297D01*
X236799013Y-74289465D01*
X237048045Y-74339000D01*
X237301955Y-74339000D01*
X237550987Y-74289465D01*
X237785570Y-74192297D01*
X237996690Y-74051232D01*
X238176232Y-73871690D01*
X238317297Y-73660570D01*
X238414465Y-73425987D01*
X238464000Y-73176955D01*
X238464000Y-72923045D01*
X238414465Y-72674013D01*
X238317297Y-72439430D01*
X238176232Y-72228310D01*
X237996690Y-72048768D01*
X237785570Y-71907703D01*
X237550987Y-71810535D01*
X237301955Y-71761000D01*
X237048045Y-71761000D01*
X236799013Y-71810535D01*
X236564430Y-71907703D01*
X236353310Y-72048768D01*
X236173768Y-72228310D01*
X236032703Y-72439430D01*
X235935535Y-72674013D01*
X235886000Y-72923045D01*
X234678456Y-72923045D01*
X234663979Y-67273045D01*
X235236000Y-67273045D01*
X235236000Y-67526955D01*
X235285535Y-67775987D01*
X235382703Y-68010570D01*
X235523768Y-68221690D01*
X235703310Y-68401232D01*
X235914430Y-68542297D01*
X236149013Y-68639465D01*
X236398045Y-68689000D01*
X236651955Y-68689000D01*
X236900987Y-68639465D01*
X237135570Y-68542297D01*
X237346690Y-68401232D01*
X237526232Y-68221690D01*
X237667297Y-68010570D01*
X237764465Y-67775987D01*
X237814000Y-67526955D01*
X237814000Y-67273045D01*
X237764465Y-67024013D01*
X237667297Y-66789430D01*
X237526232Y-66578310D01*
X237346690Y-66398768D01*
X237135570Y-66257703D01*
X236900987Y-66160535D01*
X236651955Y-66111000D01*
X236398045Y-66111000D01*
X236149013Y-66160535D01*
X235914430Y-66257703D01*
X235703310Y-66398768D01*
X235523768Y-66578310D01*
X235382703Y-66789430D01*
X235285535Y-67024013D01*
X235236000Y-67273045D01*
X234663979Y-67273045D01*
X234576840Y-33264000D01*
X279386145Y-33264000D01*
X280263165Y-33333023D01*
M02*
