G04 #@! TF.GenerationSoftware,KiCad,Pcbnew,5.0.2+dfsg1-1*
G04 #@! TF.CreationDate,2019-10-08T03:24:47-04:00*
G04 #@! TF.ProjectId,DSC_motor_controller,4453435f-6d6f-4746-9f72-5f636f6e7472,1*
G04 #@! TF.SameCoordinates,Original*
G04 #@! TF.FileFunction,Copper,L2,Inr*
G04 #@! TF.FilePolarity,Positive*
%FSLAX46Y46*%
G04 Gerber Fmt 4.6, Leading zero omitted, Abs format (unit mm)*
G04 Created by KiCad (PCBNEW 5.0.2+dfsg1-1) date Tue 08 Oct 2019 03:24:47 AM EDT*
%MOMM*%
%LPD*%
G01*
G04 APERTURE LIST*
G04 #@! TA.AperFunction,ViaPad*
%ADD10R,1.200000X1.200000*%
G04 #@! TD*
G04 #@! TA.AperFunction,ViaPad*
%ADD11C,1.200000*%
G04 #@! TD*
G04 #@! TA.AperFunction,ViaPad*
%ADD12C,0.800000*%
G04 #@! TD*
G04 #@! TA.AperFunction,ViaPad*
%ADD13C,1.524000*%
G04 #@! TD*
G04 #@! TA.AperFunction,Conductor*
%ADD14C,0.254000*%
G04 #@! TD*
G04 APERTURE END LIST*
D10*
G04 #@! TO.N,SUPPLY*
G04 #@! TO.C,C17*
X157050000Y-43800000D03*
D11*
G04 #@! TO.N,GND*
X157050000Y-48800000D03*
G04 #@! TD*
D10*
G04 #@! TO.N,SUPPLY*
G04 #@! TO.C,C18*
X157000000Y-57650000D03*
D11*
G04 #@! TO.N,GND*
X157000000Y-52650000D03*
G04 #@! TD*
D12*
G04 #@! TO.N,GND*
X112931000Y-105470000D03*
X99160779Y-98806769D03*
X94135000Y-92262000D03*
X102009000Y-120964000D03*
X94643000Y-116407997D03*
X124869000Y-116392000D03*
X133251000Y-109788000D03*
X133505000Y-108772000D03*
X135283000Y-109788000D03*
X161445000Y-116392000D03*
X113693000Y-87944000D03*
X157381000Y-96326000D03*
X159413000Y-101914000D03*
X161953000Y-87595009D03*
X129441000Y-96580000D03*
X134477327Y-109661000D03*
X145443000Y-101977500D03*
X137823000Y-93241000D03*
X136266429Y-90244431D03*
X128933000Y-84896000D03*
X131473000Y-85404000D03*
X131727000Y-91246000D03*
X123599000Y-103946000D03*
X163149918Y-108010000D03*
X159413000Y-77276000D03*
X159413000Y-72958000D03*
X114709000Y-123758000D03*
X114963000Y-126806000D03*
X114455000Y-129600000D03*
X106835000Y-117154000D03*
X101755000Y-115630000D03*
X114709000Y-125282000D03*
X108841600Y-125753000D03*
X161631815Y-127787185D03*
X158651000Y-110296000D03*
X109042069Y-128547010D03*
X106839653Y-124261347D03*
X100231000Y-125536004D03*
X88293000Y-123758000D03*
X140363000Y-97596016D03*
X123345000Y-126806000D03*
G04 #@! TO.N,+5V*
X139855000Y-84642000D03*
G04 #@! TO.N,/CAN/CAN_LO*
X109375000Y-87690000D03*
G04 #@! TO.N,/CAN/CAN_HI*
X105819000Y-86420000D03*
G04 #@! TO.N,+3V3*
X99469000Y-120456000D03*
X99282565Y-99799328D03*
X89563000Y-89976000D03*
X94643000Y-117408000D03*
X129187000Y-104708000D03*
X141887000Y-89976000D03*
X115212347Y-116650653D03*
X160429000Y-84134000D03*
X111915000Y-103946000D03*
X163223000Y-106994000D03*
X101247002Y-116900020D03*
X163223000Y-126551990D03*
X109556590Y-122424910D03*
G04 #@! TO.N,Net-(C21-Pad2)*
X128171000Y-107527000D03*
G04 #@! TO.N,Net-(C21-Pad1)*
X127917000Y-106486000D03*
G04 #@! TO.N,Net-(C23-Pad1)*
X132026829Y-111312000D03*
D13*
G04 #@! TO.N,/Motor_Driver/SH_C*
X175542000Y-114106000D03*
X180622000Y-113725000D03*
X176939000Y-118170000D03*
X178844000Y-113598000D03*
X177066000Y-113725000D03*
X182019000Y-114614000D03*
X176812000Y-115757000D03*
X178082000Y-117027000D03*
X175288000Y-121472000D03*
X175288000Y-118297000D03*
X175288000Y-119821000D03*
X175542000Y-116773000D03*
X179352000Y-118043000D03*
D12*
X141633000Y-110804000D03*
D13*
G04 #@! TO.N,/Motor_Driver/SH_B*
X175288000Y-94802000D03*
X183416000Y-97723000D03*
X176685000Y-96326000D03*
X175034000Y-97977000D03*
X183416000Y-99374000D03*
X178209000Y-96961000D03*
X183670000Y-93532000D03*
X175288000Y-93151000D03*
X175034000Y-96453000D03*
X176939000Y-94802000D03*
X176558000Y-97850000D03*
X176939000Y-93151000D03*
D12*
X141972569Y-107285000D03*
D13*
X175034000Y-100517000D03*
X176304000Y-99501000D03*
G04 #@! TO.N,/Motor_Driver/SH_A*
X176431000Y-73339000D03*
X176558000Y-68513000D03*
X178209000Y-68513000D03*
X179860000Y-68513000D03*
X183670000Y-68513000D03*
X176431000Y-70164000D03*
X178209000Y-70164000D03*
X179860000Y-70164000D03*
X183670000Y-70164000D03*
X176431000Y-71815000D03*
X178082000Y-71815000D03*
X179733000Y-71688000D03*
X183670000Y-71688000D03*
X176431000Y-75117000D03*
X176431000Y-76768000D03*
D12*
X146967000Y-96580000D03*
G04 #@! TO.N,Net-(C36-Pad1)*
X113439000Y-106486000D03*
G04 #@! TO.N,/CAN/CAN_TX*
X99472346Y-107260651D03*
G04 #@! TO.N,/CAN/CAN_RX*
X100485000Y-107248000D03*
G04 #@! TO.N,/Power/C_A*
X113439000Y-131124000D03*
G04 #@! TO.N,/Power/C_B*
X113693000Y-127568000D03*
G04 #@! TO.N,/Power/C_C*
X113908900Y-124553020D03*
G04 #@! TO.N,/Motor_Driver/GL_C*
X135791000Y-111527000D03*
G04 #@! TO.N,/Motor_Driver/GH_C*
X136882329Y-110275000D03*
X141525000Y-113800000D03*
G04 #@! TO.N,/Motor_Driver/GL_B*
X148491000Y-102634999D03*
G04 #@! TO.N,/Motor_Driver/GH_B*
X136882329Y-107756000D03*
X177447000Y-101406000D03*
G04 #@! TO.N,/Motor_Driver/GL_A*
X136882329Y-105978000D03*
G04 #@! TO.N,/Motor_Driver/GH_A*
X140617000Y-104708000D03*
X175923000Y-81086000D03*
G04 #@! TO.N,/Motor_controller/NRST*
X102009000Y-105216000D03*
X99072652Y-94405652D03*
G04 #@! TO.N,/Motor_Driver/Batt_voltage*
X119027000Y-123758000D03*
X161953002Y-123377000D03*
G04 #@! TO.N,/Motor_Driver/Volt_A*
X183289000Y-75498000D03*
X120043000Y-134934000D03*
X119281000Y-125409000D03*
X109630847Y-121216153D03*
G04 #@! TO.N,/Motor_Driver/Volt_B*
X118422458Y-133068777D03*
X185194000Y-95691000D03*
G04 #@! TO.N,/Motor_Driver/Volt_C*
X116741000Y-130362000D03*
X109883000Y-116138000D03*
X184431992Y-116519000D03*
G04 #@! TO.N,/Motor_controller/SDA*
X109629000Y-106460000D03*
X123599000Y-87436000D03*
G04 #@! TO.N,/Motor_controller/SWDIO*
X95659000Y-90230000D03*
X94897000Y-95564000D03*
D13*
G04 #@! TO.N,Net-(P1-Pad1)*
X181511000Y-89468000D03*
X177574000Y-89468000D03*
X179479000Y-89468000D03*
X183670000Y-89468000D03*
X175542000Y-87563000D03*
X185321000Y-84388000D03*
X183797000Y-87690000D03*
X177193000Y-84261000D03*
X182019000Y-84261000D03*
X183670000Y-84261000D03*
X180368000Y-84261000D03*
X178717000Y-84261000D03*
X183670000Y-85912000D03*
X175542000Y-85912000D03*
X175542000Y-89468000D03*
X175542000Y-84261000D03*
G04 #@! TO.N,Net-(P2-Pad1)*
X183035000Y-106740000D03*
X177574000Y-103438000D03*
X179225000Y-103438000D03*
X180876000Y-103438000D03*
X182527000Y-103438000D03*
X176304000Y-104835000D03*
X177955000Y-104962000D03*
X179606000Y-104962000D03*
X181257000Y-104962000D03*
X183035000Y-104962000D03*
X183035000Y-108518000D03*
X183035000Y-110169000D03*
G04 #@! TO.N,Net-(P3-Pad1)*
X177320000Y-124774000D03*
X173891000Y-130870000D03*
X175542000Y-127822000D03*
X175669000Y-124774000D03*
X182146000Y-128711000D03*
X174018000Y-127822000D03*
X182146000Y-124774000D03*
X180622000Y-124774000D03*
X175415000Y-129346000D03*
X173891000Y-129346000D03*
X174018000Y-126298000D03*
X175542000Y-126298000D03*
X182019000Y-130489000D03*
X182146000Y-126933000D03*
X175415000Y-130870000D03*
X178971000Y-124774000D03*
X174145000Y-124774000D03*
D12*
G04 #@! TO.N,Net-(C24-Pad1)*
X129441000Y-105724000D03*
G04 #@! TD*
D14*
G04 #@! TO.N,+3V3*
G36*
X164112000Y-65592000D02*
X164121667Y-65640601D01*
X164149197Y-65681803D01*
X164190399Y-65709333D01*
X164239000Y-65719000D01*
X188115000Y-65719000D01*
X188115000Y-135823000D01*
X85118000Y-135823000D01*
X85118000Y-134789391D01*
X119316000Y-134789391D01*
X119316000Y-135078609D01*
X119426679Y-135345813D01*
X119631187Y-135550321D01*
X119898391Y-135661000D01*
X120187609Y-135661000D01*
X120454813Y-135550321D01*
X120659321Y-135345813D01*
X120770000Y-135078609D01*
X120770000Y-134789391D01*
X120659321Y-134522187D01*
X120454813Y-134317679D01*
X120187609Y-134207000D01*
X119898391Y-134207000D01*
X119631187Y-134317679D01*
X119426679Y-134522187D01*
X119316000Y-134789391D01*
X85118000Y-134789391D01*
X85118000Y-132924168D01*
X117695458Y-132924168D01*
X117695458Y-133213386D01*
X117806137Y-133480590D01*
X118010645Y-133685098D01*
X118277849Y-133795777D01*
X118567067Y-133795777D01*
X118834271Y-133685098D01*
X119038779Y-133480590D01*
X119149458Y-133213386D01*
X119149458Y-132924168D01*
X119038779Y-132656964D01*
X118834271Y-132452456D01*
X118567067Y-132341777D01*
X118277849Y-132341777D01*
X118010645Y-132452456D01*
X117806137Y-132656964D01*
X117695458Y-132924168D01*
X85118000Y-132924168D01*
X85118000Y-130979391D01*
X112712000Y-130979391D01*
X112712000Y-131268609D01*
X112822679Y-131535813D01*
X113027187Y-131740321D01*
X113294391Y-131851000D01*
X113583609Y-131851000D01*
X113850813Y-131740321D01*
X114055321Y-131535813D01*
X114166000Y-131268609D01*
X114166000Y-130979391D01*
X114055321Y-130712187D01*
X113850813Y-130507679D01*
X113583609Y-130397000D01*
X113294391Y-130397000D01*
X113027187Y-130507679D01*
X112822679Y-130712187D01*
X112712000Y-130979391D01*
X85118000Y-130979391D01*
X85118000Y-129455391D01*
X113728000Y-129455391D01*
X113728000Y-129744609D01*
X113838679Y-130011813D01*
X114043187Y-130216321D01*
X114310391Y-130327000D01*
X114599609Y-130327000D01*
X114864229Y-130217391D01*
X116014000Y-130217391D01*
X116014000Y-130506609D01*
X116124679Y-130773813D01*
X116329187Y-130978321D01*
X116596391Y-131089000D01*
X116885609Y-131089000D01*
X117152813Y-130978321D01*
X117357321Y-130773813D01*
X117468000Y-130506609D01*
X117468000Y-130217391D01*
X117357321Y-129950187D01*
X117152813Y-129745679D01*
X116885609Y-129635000D01*
X116596391Y-129635000D01*
X116329187Y-129745679D01*
X116124679Y-129950187D01*
X116014000Y-130217391D01*
X114864229Y-130217391D01*
X114866813Y-130216321D01*
X115071321Y-130011813D01*
X115182000Y-129744609D01*
X115182000Y-129455391D01*
X115071321Y-129188187D01*
X115012518Y-129129384D01*
X172802000Y-129129384D01*
X172802000Y-129562616D01*
X172967790Y-129962869D01*
X173112921Y-130108000D01*
X172967790Y-130253131D01*
X172802000Y-130653384D01*
X172802000Y-131086616D01*
X172967790Y-131486869D01*
X173274131Y-131793210D01*
X173674384Y-131959000D01*
X174107616Y-131959000D01*
X174507869Y-131793210D01*
X174653000Y-131648079D01*
X174798131Y-131793210D01*
X175198384Y-131959000D01*
X175631616Y-131959000D01*
X176031869Y-131793210D01*
X176338210Y-131486869D01*
X176504000Y-131086616D01*
X176504000Y-130653384D01*
X176338210Y-130253131D01*
X176193079Y-130108000D01*
X176338210Y-129962869D01*
X176504000Y-129562616D01*
X176504000Y-129129384D01*
X176338210Y-128729131D01*
X176256579Y-128647500D01*
X176465210Y-128438869D01*
X176631000Y-128038616D01*
X176631000Y-127605384D01*
X176465210Y-127205131D01*
X176320079Y-127060000D01*
X176465210Y-126914869D01*
X176631000Y-126514616D01*
X176631000Y-126081384D01*
X176465210Y-125681131D01*
X176383579Y-125599500D01*
X176494500Y-125488579D01*
X176703131Y-125697210D01*
X177103384Y-125863000D01*
X177536616Y-125863000D01*
X177936869Y-125697210D01*
X178145500Y-125488579D01*
X178354131Y-125697210D01*
X178754384Y-125863000D01*
X179187616Y-125863000D01*
X179587869Y-125697210D01*
X179796500Y-125488579D01*
X180005131Y-125697210D01*
X180405384Y-125863000D01*
X180838616Y-125863000D01*
X181238869Y-125697210D01*
X181384000Y-125552079D01*
X181529131Y-125697210D01*
X181906449Y-125853500D01*
X181529131Y-126009790D01*
X181222790Y-126316131D01*
X181057000Y-126716384D01*
X181057000Y-127149616D01*
X181222790Y-127549869D01*
X181494921Y-127822000D01*
X181222790Y-128094131D01*
X181057000Y-128494384D01*
X181057000Y-128927616D01*
X181222790Y-129327869D01*
X181443553Y-129548632D01*
X181402131Y-129565790D01*
X181095790Y-129872131D01*
X180930000Y-130272384D01*
X180930000Y-130705616D01*
X181095790Y-131105869D01*
X181402131Y-131412210D01*
X181802384Y-131578000D01*
X182235616Y-131578000D01*
X182635869Y-131412210D01*
X182942210Y-131105869D01*
X183108000Y-130705616D01*
X183108000Y-130272384D01*
X182942210Y-129872131D01*
X182721447Y-129651368D01*
X182762869Y-129634210D01*
X183069210Y-129327869D01*
X183235000Y-128927616D01*
X183235000Y-128494384D01*
X183069210Y-128094131D01*
X182797079Y-127822000D01*
X183069210Y-127549869D01*
X183235000Y-127149616D01*
X183235000Y-126716384D01*
X183069210Y-126316131D01*
X182762869Y-126009790D01*
X182385551Y-125853500D01*
X182762869Y-125697210D01*
X183069210Y-125390869D01*
X183235000Y-124990616D01*
X183235000Y-124557384D01*
X183069210Y-124157131D01*
X182762869Y-123850790D01*
X182362616Y-123685000D01*
X181929384Y-123685000D01*
X181529131Y-123850790D01*
X181384000Y-123995921D01*
X181238869Y-123850790D01*
X180838616Y-123685000D01*
X180405384Y-123685000D01*
X180005131Y-123850790D01*
X179796500Y-124059421D01*
X179587869Y-123850790D01*
X179187616Y-123685000D01*
X178754384Y-123685000D01*
X178354131Y-123850790D01*
X178145500Y-124059421D01*
X177936869Y-123850790D01*
X177536616Y-123685000D01*
X177103384Y-123685000D01*
X176703131Y-123850790D01*
X176494500Y-124059421D01*
X176285869Y-123850790D01*
X175885616Y-123685000D01*
X175452384Y-123685000D01*
X175052131Y-123850790D01*
X174907000Y-123995921D01*
X174761869Y-123850790D01*
X174361616Y-123685000D01*
X173928384Y-123685000D01*
X173528131Y-123850790D01*
X173221790Y-124157131D01*
X173056000Y-124557384D01*
X173056000Y-124990616D01*
X173221790Y-125390869D01*
X173303421Y-125472500D01*
X173094790Y-125681131D01*
X172929000Y-126081384D01*
X172929000Y-126514616D01*
X173094790Y-126914869D01*
X173239921Y-127060000D01*
X173094790Y-127205131D01*
X172929000Y-127605384D01*
X172929000Y-128038616D01*
X173094790Y-128438869D01*
X173176421Y-128520500D01*
X172967790Y-128729131D01*
X172802000Y-129129384D01*
X115012518Y-129129384D01*
X114866813Y-128983679D01*
X114599609Y-128873000D01*
X114310391Y-128873000D01*
X114043187Y-128983679D01*
X113838679Y-129188187D01*
X113728000Y-129455391D01*
X85118000Y-129455391D01*
X85118000Y-128402401D01*
X108315069Y-128402401D01*
X108315069Y-128691619D01*
X108425748Y-128958823D01*
X108630256Y-129163331D01*
X108897460Y-129274010D01*
X109186678Y-129274010D01*
X109453882Y-129163331D01*
X109658390Y-128958823D01*
X109769069Y-128691619D01*
X109769069Y-128402401D01*
X109658390Y-128135197D01*
X109453882Y-127930689D01*
X109186678Y-127820010D01*
X108897460Y-127820010D01*
X108630256Y-127930689D01*
X108425748Y-128135197D01*
X108315069Y-128402401D01*
X85118000Y-128402401D01*
X85118000Y-127423391D01*
X112966000Y-127423391D01*
X112966000Y-127712609D01*
X113076679Y-127979813D01*
X113281187Y-128184321D01*
X113548391Y-128295000D01*
X113837609Y-128295000D01*
X114104813Y-128184321D01*
X114309321Y-127979813D01*
X114420000Y-127712609D01*
X114420000Y-127642576D01*
X160904815Y-127642576D01*
X160904815Y-127931794D01*
X161015494Y-128198998D01*
X161220002Y-128403506D01*
X161487206Y-128514185D01*
X161776424Y-128514185D01*
X162043628Y-128403506D01*
X162248136Y-128198998D01*
X162358815Y-127931794D01*
X162358815Y-127642576D01*
X162248136Y-127375372D01*
X162043628Y-127170864D01*
X161776424Y-127060185D01*
X161487206Y-127060185D01*
X161220002Y-127170864D01*
X161015494Y-127375372D01*
X160904815Y-127642576D01*
X114420000Y-127642576D01*
X114420000Y-127423391D01*
X114309321Y-127156187D01*
X114104813Y-126951679D01*
X113837609Y-126841000D01*
X113548391Y-126841000D01*
X113281187Y-126951679D01*
X113076679Y-127156187D01*
X112966000Y-127423391D01*
X85118000Y-127423391D01*
X85118000Y-126661391D01*
X114236000Y-126661391D01*
X114236000Y-126950609D01*
X114346679Y-127217813D01*
X114551187Y-127422321D01*
X114818391Y-127533000D01*
X115107609Y-127533000D01*
X115374813Y-127422321D01*
X115579321Y-127217813D01*
X115690000Y-126950609D01*
X115690000Y-126661391D01*
X122618000Y-126661391D01*
X122618000Y-126950609D01*
X122728679Y-127217813D01*
X122933187Y-127422321D01*
X123200391Y-127533000D01*
X123489609Y-127533000D01*
X123756813Y-127422321D01*
X123961321Y-127217813D01*
X124072000Y-126950609D01*
X124072000Y-126661391D01*
X123961321Y-126394187D01*
X123756813Y-126189679D01*
X123489609Y-126079000D01*
X123200391Y-126079000D01*
X122933187Y-126189679D01*
X122728679Y-126394187D01*
X122618000Y-126661391D01*
X115690000Y-126661391D01*
X115579321Y-126394187D01*
X115374813Y-126189679D01*
X115107609Y-126079000D01*
X114818391Y-126079000D01*
X114551187Y-126189679D01*
X114346679Y-126394187D01*
X114236000Y-126661391D01*
X85118000Y-126661391D01*
X85118000Y-125391395D01*
X99504000Y-125391395D01*
X99504000Y-125680613D01*
X99614679Y-125947817D01*
X99819187Y-126152325D01*
X100086391Y-126263004D01*
X100375609Y-126263004D01*
X100642813Y-126152325D01*
X100847321Y-125947817D01*
X100958000Y-125680613D01*
X100958000Y-125608391D01*
X108114600Y-125608391D01*
X108114600Y-125897609D01*
X108225279Y-126164813D01*
X108429787Y-126369321D01*
X108696991Y-126480000D01*
X108986209Y-126480000D01*
X109253413Y-126369321D01*
X109457921Y-126164813D01*
X109568600Y-125897609D01*
X109568600Y-125608391D01*
X109457921Y-125341187D01*
X109253413Y-125136679D01*
X108986209Y-125026000D01*
X108696991Y-125026000D01*
X108429787Y-125136679D01*
X108225279Y-125341187D01*
X108114600Y-125608391D01*
X100958000Y-125608391D01*
X100958000Y-125391395D01*
X100847321Y-125124191D01*
X100642813Y-124919683D01*
X100375609Y-124809004D01*
X100086391Y-124809004D01*
X99819187Y-124919683D01*
X99614679Y-125124191D01*
X99504000Y-125391395D01*
X85118000Y-125391395D01*
X85118000Y-123613391D01*
X87566000Y-123613391D01*
X87566000Y-123902609D01*
X87676679Y-124169813D01*
X87881187Y-124374321D01*
X88148391Y-124485000D01*
X88437609Y-124485000D01*
X88704813Y-124374321D01*
X88909321Y-124169813D01*
X88931305Y-124116738D01*
X106112653Y-124116738D01*
X106112653Y-124405956D01*
X106223332Y-124673160D01*
X106427840Y-124877668D01*
X106695044Y-124988347D01*
X106984262Y-124988347D01*
X107251466Y-124877668D01*
X107455974Y-124673160D01*
X107565636Y-124408411D01*
X113181900Y-124408411D01*
X113181900Y-124697629D01*
X113292579Y-124964833D01*
X113497087Y-125169341D01*
X113764291Y-125280020D01*
X113982000Y-125280020D01*
X113982000Y-125426609D01*
X114092679Y-125693813D01*
X114297187Y-125898321D01*
X114564391Y-126009000D01*
X114853609Y-126009000D01*
X115120813Y-125898321D01*
X115325321Y-125693813D01*
X115436000Y-125426609D01*
X115436000Y-125264391D01*
X118554000Y-125264391D01*
X118554000Y-125553609D01*
X118664679Y-125820813D01*
X118869187Y-126025321D01*
X119136391Y-126136000D01*
X119425609Y-126136000D01*
X119692813Y-126025321D01*
X119897321Y-125820813D01*
X120008000Y-125553609D01*
X120008000Y-125264391D01*
X119897321Y-124997187D01*
X119692813Y-124792679D01*
X119425609Y-124682000D01*
X119136391Y-124682000D01*
X118869187Y-124792679D01*
X118664679Y-124997187D01*
X118554000Y-125264391D01*
X115436000Y-125264391D01*
X115436000Y-125137391D01*
X115325321Y-124870187D01*
X115120813Y-124665679D01*
X114853609Y-124555000D01*
X114635900Y-124555000D01*
X114635900Y-124485000D01*
X114853609Y-124485000D01*
X115120813Y-124374321D01*
X115325321Y-124169813D01*
X115436000Y-123902609D01*
X115436000Y-123613391D01*
X118300000Y-123613391D01*
X118300000Y-123902609D01*
X118410679Y-124169813D01*
X118615187Y-124374321D01*
X118882391Y-124485000D01*
X119171609Y-124485000D01*
X119438813Y-124374321D01*
X119643321Y-124169813D01*
X119754000Y-123902609D01*
X119754000Y-123613391D01*
X119643321Y-123346187D01*
X119529525Y-123232391D01*
X161226002Y-123232391D01*
X161226002Y-123521609D01*
X161336681Y-123788813D01*
X161541189Y-123993321D01*
X161808393Y-124104000D01*
X162097611Y-124104000D01*
X162364815Y-123993321D01*
X162569323Y-123788813D01*
X162680002Y-123521609D01*
X162680002Y-123232391D01*
X162569323Y-122965187D01*
X162364815Y-122760679D01*
X162097611Y-122650000D01*
X161808393Y-122650000D01*
X161541189Y-122760679D01*
X161336681Y-122965187D01*
X161226002Y-123232391D01*
X119529525Y-123232391D01*
X119438813Y-123141679D01*
X119171609Y-123031000D01*
X118882391Y-123031000D01*
X118615187Y-123141679D01*
X118410679Y-123346187D01*
X118300000Y-123613391D01*
X115436000Y-123613391D01*
X115325321Y-123346187D01*
X115120813Y-123141679D01*
X114853609Y-123031000D01*
X114564391Y-123031000D01*
X114297187Y-123141679D01*
X114092679Y-123346187D01*
X113982000Y-123613391D01*
X113982000Y-123826020D01*
X113764291Y-123826020D01*
X113497087Y-123936699D01*
X113292579Y-124141207D01*
X113181900Y-124408411D01*
X107565636Y-124408411D01*
X107566653Y-124405956D01*
X107566653Y-124116738D01*
X107455974Y-123849534D01*
X107251466Y-123645026D01*
X106984262Y-123534347D01*
X106695044Y-123534347D01*
X106427840Y-123645026D01*
X106223332Y-123849534D01*
X106112653Y-124116738D01*
X88931305Y-124116738D01*
X89020000Y-123902609D01*
X89020000Y-123613391D01*
X88909321Y-123346187D01*
X88704813Y-123141679D01*
X88437609Y-123031000D01*
X88148391Y-123031000D01*
X87881187Y-123141679D01*
X87676679Y-123346187D01*
X87566000Y-123613391D01*
X85118000Y-123613391D01*
X85118000Y-120819391D01*
X101282000Y-120819391D01*
X101282000Y-121108609D01*
X101392679Y-121375813D01*
X101597187Y-121580321D01*
X101864391Y-121691000D01*
X102153609Y-121691000D01*
X102420813Y-121580321D01*
X102625321Y-121375813D01*
X102736000Y-121108609D01*
X102736000Y-121071544D01*
X108903847Y-121071544D01*
X108903847Y-121360762D01*
X109014526Y-121627966D01*
X109219034Y-121832474D01*
X109486238Y-121943153D01*
X109775456Y-121943153D01*
X110042660Y-121832474D01*
X110247168Y-121627966D01*
X110357847Y-121360762D01*
X110357847Y-121071544D01*
X110247168Y-120804340D01*
X110042660Y-120599832D01*
X109775456Y-120489153D01*
X109486238Y-120489153D01*
X109219034Y-120599832D01*
X109014526Y-120804340D01*
X108903847Y-121071544D01*
X102736000Y-121071544D01*
X102736000Y-120819391D01*
X102625321Y-120552187D01*
X102420813Y-120347679D01*
X102153609Y-120237000D01*
X101864391Y-120237000D01*
X101597187Y-120347679D01*
X101392679Y-120552187D01*
X101282000Y-120819391D01*
X85118000Y-120819391D01*
X85118000Y-118080384D01*
X174199000Y-118080384D01*
X174199000Y-118513616D01*
X174364790Y-118913869D01*
X174509921Y-119059000D01*
X174364790Y-119204131D01*
X174199000Y-119604384D01*
X174199000Y-120037616D01*
X174364790Y-120437869D01*
X174573421Y-120646500D01*
X174364790Y-120855131D01*
X174199000Y-121255384D01*
X174199000Y-121688616D01*
X174364790Y-122088869D01*
X174671131Y-122395210D01*
X175071384Y-122561000D01*
X175504616Y-122561000D01*
X175904869Y-122395210D01*
X176211210Y-122088869D01*
X176377000Y-121688616D01*
X176377000Y-121255384D01*
X176211210Y-120855131D01*
X176002579Y-120646500D01*
X176211210Y-120437869D01*
X176377000Y-120037616D01*
X176377000Y-119604384D01*
X176211210Y-119204131D01*
X176066079Y-119059000D01*
X176177000Y-118948079D01*
X176322131Y-119093210D01*
X176722384Y-119259000D01*
X177155616Y-119259000D01*
X177555869Y-119093210D01*
X177862210Y-118786869D01*
X178028000Y-118386616D01*
X178028000Y-118116000D01*
X178263000Y-118116000D01*
X178263000Y-118259616D01*
X178428790Y-118659869D01*
X178735131Y-118966210D01*
X179135384Y-119132000D01*
X179568616Y-119132000D01*
X179968869Y-118966210D01*
X180275210Y-118659869D01*
X180441000Y-118259616D01*
X180441000Y-117826384D01*
X180275210Y-117426131D01*
X179968869Y-117119790D01*
X179568616Y-116954000D01*
X179171000Y-116954000D01*
X179171000Y-116810384D01*
X179005210Y-116410131D01*
X178969470Y-116374391D01*
X183704992Y-116374391D01*
X183704992Y-116663609D01*
X183815671Y-116930813D01*
X184020179Y-117135321D01*
X184287383Y-117246000D01*
X184576601Y-117246000D01*
X184843805Y-117135321D01*
X185048313Y-116930813D01*
X185158992Y-116663609D01*
X185158992Y-116374391D01*
X185048313Y-116107187D01*
X184843805Y-115902679D01*
X184576601Y-115792000D01*
X184287383Y-115792000D01*
X184020179Y-115902679D01*
X183815671Y-116107187D01*
X183704992Y-116374391D01*
X178969470Y-116374391D01*
X178698869Y-116103790D01*
X178298616Y-115938000D01*
X177901000Y-115938000D01*
X177901000Y-115540384D01*
X177735210Y-115140131D01*
X177428869Y-114833790D01*
X177331854Y-114793605D01*
X177682869Y-114648210D01*
X177989210Y-114341869D01*
X178006368Y-114300447D01*
X178227131Y-114521210D01*
X178627384Y-114687000D01*
X179060616Y-114687000D01*
X179460869Y-114521210D01*
X179681632Y-114300447D01*
X179698790Y-114341869D01*
X180005131Y-114648210D01*
X180405384Y-114814000D01*
X180838616Y-114814000D01*
X180930000Y-114776148D01*
X180930000Y-114830616D01*
X181095790Y-115230869D01*
X181402131Y-115537210D01*
X181802384Y-115703000D01*
X182235616Y-115703000D01*
X182635869Y-115537210D01*
X182942210Y-115230869D01*
X183108000Y-114830616D01*
X183108000Y-114397384D01*
X182942210Y-113997131D01*
X182635869Y-113690790D01*
X182235616Y-113525000D01*
X181802384Y-113525000D01*
X181711000Y-113562852D01*
X181711000Y-113508384D01*
X181545210Y-113108131D01*
X181238869Y-112801790D01*
X180838616Y-112636000D01*
X180405384Y-112636000D01*
X180005131Y-112801790D01*
X179784368Y-113022553D01*
X179767210Y-112981131D01*
X179460869Y-112674790D01*
X179060616Y-112509000D01*
X178627384Y-112509000D01*
X178227131Y-112674790D01*
X177920790Y-112981131D01*
X177903632Y-113022553D01*
X177682869Y-112801790D01*
X177282616Y-112636000D01*
X176849384Y-112636000D01*
X176449131Y-112801790D01*
X176142790Y-113108131D01*
X176118749Y-113166172D01*
X175758616Y-113017000D01*
X175325384Y-113017000D01*
X174925131Y-113182790D01*
X174618790Y-113489131D01*
X174453000Y-113889384D01*
X174453000Y-114322616D01*
X174618790Y-114722869D01*
X174925131Y-115029210D01*
X175325384Y-115195000D01*
X175758616Y-115195000D01*
X175888315Y-115141277D01*
X175723000Y-115540384D01*
X175723000Y-115684000D01*
X175325384Y-115684000D01*
X174925131Y-115849790D01*
X174618790Y-116156131D01*
X174453000Y-116556384D01*
X174453000Y-116989616D01*
X174618790Y-117389869D01*
X174636921Y-117408000D01*
X174364790Y-117680131D01*
X174199000Y-118080384D01*
X85118000Y-118080384D01*
X85118000Y-116263388D01*
X93916000Y-116263388D01*
X93916000Y-116552606D01*
X94026679Y-116819810D01*
X94231187Y-117024318D01*
X94498391Y-117134997D01*
X94787609Y-117134997D01*
X95054813Y-117024318D01*
X95069740Y-117009391D01*
X106108000Y-117009391D01*
X106108000Y-117298609D01*
X106218679Y-117565813D01*
X106423187Y-117770321D01*
X106690391Y-117881000D01*
X106979609Y-117881000D01*
X107246813Y-117770321D01*
X107451321Y-117565813D01*
X107562000Y-117298609D01*
X107562000Y-117009391D01*
X107451321Y-116742187D01*
X107246813Y-116537679D01*
X106979609Y-116427000D01*
X106690391Y-116427000D01*
X106423187Y-116537679D01*
X106218679Y-116742187D01*
X106108000Y-117009391D01*
X95069740Y-117009391D01*
X95259321Y-116819810D01*
X95370000Y-116552606D01*
X95370000Y-116263388D01*
X95259321Y-115996184D01*
X95054813Y-115791676D01*
X94787609Y-115680997D01*
X94498391Y-115680997D01*
X94231187Y-115791676D01*
X94026679Y-115996184D01*
X93916000Y-116263388D01*
X85118000Y-116263388D01*
X85118000Y-115485391D01*
X101028000Y-115485391D01*
X101028000Y-115774609D01*
X101138679Y-116041813D01*
X101343187Y-116246321D01*
X101610391Y-116357000D01*
X101899609Y-116357000D01*
X102166813Y-116246321D01*
X102371321Y-116041813D01*
X102391377Y-115993391D01*
X109156000Y-115993391D01*
X109156000Y-116282609D01*
X109266679Y-116549813D01*
X109471187Y-116754321D01*
X109738391Y-116865000D01*
X110027609Y-116865000D01*
X110294813Y-116754321D01*
X110499321Y-116549813D01*
X110610000Y-116282609D01*
X110610000Y-116247391D01*
X124142000Y-116247391D01*
X124142000Y-116536609D01*
X124252679Y-116803813D01*
X124457187Y-117008321D01*
X124724391Y-117119000D01*
X125013609Y-117119000D01*
X125280813Y-117008321D01*
X125485321Y-116803813D01*
X125596000Y-116536609D01*
X125596000Y-116247391D01*
X160718000Y-116247391D01*
X160718000Y-116536609D01*
X160828679Y-116803813D01*
X161033187Y-117008321D01*
X161300391Y-117119000D01*
X161589609Y-117119000D01*
X161856813Y-117008321D01*
X162061321Y-116803813D01*
X162172000Y-116536609D01*
X162172000Y-116247391D01*
X162061321Y-115980187D01*
X161856813Y-115775679D01*
X161589609Y-115665000D01*
X161300391Y-115665000D01*
X161033187Y-115775679D01*
X160828679Y-115980187D01*
X160718000Y-116247391D01*
X125596000Y-116247391D01*
X125485321Y-115980187D01*
X125280813Y-115775679D01*
X125013609Y-115665000D01*
X124724391Y-115665000D01*
X124457187Y-115775679D01*
X124252679Y-115980187D01*
X124142000Y-116247391D01*
X110610000Y-116247391D01*
X110610000Y-115993391D01*
X110499321Y-115726187D01*
X110294813Y-115521679D01*
X110027609Y-115411000D01*
X109738391Y-115411000D01*
X109471187Y-115521679D01*
X109266679Y-115726187D01*
X109156000Y-115993391D01*
X102391377Y-115993391D01*
X102482000Y-115774609D01*
X102482000Y-115485391D01*
X102371321Y-115218187D01*
X102166813Y-115013679D01*
X101899609Y-114903000D01*
X101610391Y-114903000D01*
X101343187Y-115013679D01*
X101138679Y-115218187D01*
X101028000Y-115485391D01*
X85118000Y-115485391D01*
X85118000Y-113655391D01*
X140798000Y-113655391D01*
X140798000Y-113944609D01*
X140908679Y-114211813D01*
X141113187Y-114416321D01*
X141380391Y-114527000D01*
X141669609Y-114527000D01*
X141936813Y-114416321D01*
X142141321Y-114211813D01*
X142252000Y-113944609D01*
X142252000Y-113655391D01*
X142141321Y-113388187D01*
X141936813Y-113183679D01*
X141669609Y-113073000D01*
X141380391Y-113073000D01*
X141113187Y-113183679D01*
X140908679Y-113388187D01*
X140798000Y-113655391D01*
X85118000Y-113655391D01*
X85118000Y-111167391D01*
X131299829Y-111167391D01*
X131299829Y-111456609D01*
X131410508Y-111723813D01*
X131615016Y-111928321D01*
X131882220Y-112039000D01*
X132171438Y-112039000D01*
X132438642Y-111928321D01*
X132643150Y-111723813D01*
X132753829Y-111456609D01*
X132753829Y-111382391D01*
X135064000Y-111382391D01*
X135064000Y-111671609D01*
X135174679Y-111938813D01*
X135379187Y-112143321D01*
X135646391Y-112254000D01*
X135935609Y-112254000D01*
X136202813Y-112143321D01*
X136407321Y-111938813D01*
X136518000Y-111671609D01*
X136518000Y-111382391D01*
X136407321Y-111115187D01*
X136202813Y-110910679D01*
X135935609Y-110800000D01*
X135646391Y-110800000D01*
X135379187Y-110910679D01*
X135174679Y-111115187D01*
X135064000Y-111382391D01*
X132753829Y-111382391D01*
X132753829Y-111167391D01*
X132643150Y-110900187D01*
X132438642Y-110695679D01*
X132171438Y-110585000D01*
X131882220Y-110585000D01*
X131615016Y-110695679D01*
X131410508Y-110900187D01*
X131299829Y-111167391D01*
X85118000Y-111167391D01*
X85118000Y-109643391D01*
X132524000Y-109643391D01*
X132524000Y-109932609D01*
X132634679Y-110199813D01*
X132839187Y-110404321D01*
X133106391Y-110515000D01*
X133395609Y-110515000D01*
X133662813Y-110404321D01*
X133867321Y-110199813D01*
X133902669Y-110114476D01*
X134065514Y-110277321D01*
X134332718Y-110388000D01*
X134621936Y-110388000D01*
X134786643Y-110319777D01*
X134871187Y-110404321D01*
X135138391Y-110515000D01*
X135427609Y-110515000D01*
X135694813Y-110404321D01*
X135899321Y-110199813D01*
X135928076Y-110130391D01*
X136155329Y-110130391D01*
X136155329Y-110419609D01*
X136266008Y-110686813D01*
X136470516Y-110891321D01*
X136737720Y-111002000D01*
X137026938Y-111002000D01*
X137294142Y-110891321D01*
X137498650Y-110686813D01*
X137510008Y-110659391D01*
X140906000Y-110659391D01*
X140906000Y-110948609D01*
X141016679Y-111215813D01*
X141221187Y-111420321D01*
X141488391Y-111531000D01*
X141777609Y-111531000D01*
X142044813Y-111420321D01*
X142249321Y-111215813D01*
X142360000Y-110948609D01*
X142360000Y-110659391D01*
X142249321Y-110392187D01*
X142044813Y-110187679D01*
X141957206Y-110151391D01*
X157924000Y-110151391D01*
X157924000Y-110440609D01*
X158034679Y-110707813D01*
X158239187Y-110912321D01*
X158506391Y-111023000D01*
X158795609Y-111023000D01*
X159062813Y-110912321D01*
X159267321Y-110707813D01*
X159378000Y-110440609D01*
X159378000Y-110151391D01*
X159267321Y-109884187D01*
X159062813Y-109679679D01*
X158795609Y-109569000D01*
X158506391Y-109569000D01*
X158239187Y-109679679D01*
X158034679Y-109884187D01*
X157924000Y-110151391D01*
X141957206Y-110151391D01*
X141777609Y-110077000D01*
X141488391Y-110077000D01*
X141221187Y-110187679D01*
X141016679Y-110392187D01*
X140906000Y-110659391D01*
X137510008Y-110659391D01*
X137609329Y-110419609D01*
X137609329Y-110130391D01*
X137498650Y-109863187D01*
X137294142Y-109658679D01*
X137026938Y-109548000D01*
X136737720Y-109548000D01*
X136470516Y-109658679D01*
X136266008Y-109863187D01*
X136155329Y-110130391D01*
X135928076Y-110130391D01*
X136010000Y-109932609D01*
X136010000Y-109643391D01*
X135899321Y-109376187D01*
X135694813Y-109171679D01*
X135427609Y-109061000D01*
X135138391Y-109061000D01*
X134973684Y-109129223D01*
X134889140Y-109044679D01*
X134621936Y-108934000D01*
X134332718Y-108934000D01*
X134202445Y-108987960D01*
X134232000Y-108916609D01*
X134232000Y-108627391D01*
X134121321Y-108360187D01*
X133916813Y-108155679D01*
X133649609Y-108045000D01*
X133360391Y-108045000D01*
X133093187Y-108155679D01*
X132888679Y-108360187D01*
X132778000Y-108627391D01*
X132778000Y-108916609D01*
X132877141Y-109155958D01*
X132839187Y-109171679D01*
X132634679Y-109376187D01*
X132524000Y-109643391D01*
X85118000Y-109643391D01*
X85118000Y-107116042D01*
X98745346Y-107116042D01*
X98745346Y-107405260D01*
X98856025Y-107672464D01*
X99060533Y-107876972D01*
X99327737Y-107987651D01*
X99616955Y-107987651D01*
X99884159Y-107876972D01*
X99984999Y-107776133D01*
X100073187Y-107864321D01*
X100340391Y-107975000D01*
X100629609Y-107975000D01*
X100896813Y-107864321D01*
X101101321Y-107659813D01*
X101212000Y-107392609D01*
X101212000Y-107103391D01*
X101101321Y-106836187D01*
X100896813Y-106631679D01*
X100629609Y-106521000D01*
X100340391Y-106521000D01*
X100073187Y-106631679D01*
X99972348Y-106732519D01*
X99884159Y-106644330D01*
X99616955Y-106533651D01*
X99327737Y-106533651D01*
X99060533Y-106644330D01*
X98856025Y-106848838D01*
X98745346Y-107116042D01*
X85118000Y-107116042D01*
X85118000Y-106315391D01*
X108902000Y-106315391D01*
X108902000Y-106604609D01*
X109012679Y-106871813D01*
X109217187Y-107076321D01*
X109484391Y-107187000D01*
X109773609Y-107187000D01*
X110040813Y-107076321D01*
X110245321Y-106871813D01*
X110356000Y-106604609D01*
X110356000Y-106315391D01*
X110245321Y-106048187D01*
X110040813Y-105843679D01*
X109773609Y-105733000D01*
X109484391Y-105733000D01*
X109217187Y-105843679D01*
X109012679Y-106048187D01*
X108902000Y-106315391D01*
X85118000Y-106315391D01*
X85118000Y-105071391D01*
X101282000Y-105071391D01*
X101282000Y-105360609D01*
X101392679Y-105627813D01*
X101597187Y-105832321D01*
X101864391Y-105943000D01*
X102153609Y-105943000D01*
X102420813Y-105832321D01*
X102625321Y-105627813D01*
X102736000Y-105360609D01*
X102736000Y-105325391D01*
X112204000Y-105325391D01*
X112204000Y-105614609D01*
X112314679Y-105881813D01*
X112519187Y-106086321D01*
X112773944Y-106191844D01*
X112712000Y-106341391D01*
X112712000Y-106630609D01*
X112822679Y-106897813D01*
X113027187Y-107102321D01*
X113294391Y-107213000D01*
X113583609Y-107213000D01*
X113850813Y-107102321D01*
X114055321Y-106897813D01*
X114166000Y-106630609D01*
X114166000Y-106341391D01*
X127190000Y-106341391D01*
X127190000Y-106630609D01*
X127300679Y-106897813D01*
X127505187Y-107102321D01*
X127551980Y-107121703D01*
X127444000Y-107382391D01*
X127444000Y-107671609D01*
X127554679Y-107938813D01*
X127759187Y-108143321D01*
X128026391Y-108254000D01*
X128315609Y-108254000D01*
X128582813Y-108143321D01*
X128787321Y-107938813D01*
X128898000Y-107671609D01*
X128898000Y-107611391D01*
X136155329Y-107611391D01*
X136155329Y-107900609D01*
X136266008Y-108167813D01*
X136470516Y-108372321D01*
X136737720Y-108483000D01*
X137026938Y-108483000D01*
X137294142Y-108372321D01*
X137498650Y-108167813D01*
X137609329Y-107900609D01*
X137609329Y-107611391D01*
X137498650Y-107344187D01*
X137294854Y-107140391D01*
X141245569Y-107140391D01*
X141245569Y-107429609D01*
X141356248Y-107696813D01*
X141560756Y-107901321D01*
X141827960Y-108012000D01*
X142117178Y-108012000D01*
X142384382Y-107901321D01*
X142420312Y-107865391D01*
X162422918Y-107865391D01*
X162422918Y-108154609D01*
X162533597Y-108421813D01*
X162738105Y-108626321D01*
X163005309Y-108737000D01*
X163294527Y-108737000D01*
X163561731Y-108626321D01*
X163766239Y-108421813D01*
X163876918Y-108154609D01*
X163876918Y-107865391D01*
X163766239Y-107598187D01*
X163561731Y-107393679D01*
X163294527Y-107283000D01*
X163005309Y-107283000D01*
X162738105Y-107393679D01*
X162533597Y-107598187D01*
X162422918Y-107865391D01*
X142420312Y-107865391D01*
X142588890Y-107696813D01*
X142699569Y-107429609D01*
X142699569Y-107140391D01*
X142588890Y-106873187D01*
X142384382Y-106668679D01*
X142117178Y-106558000D01*
X141827960Y-106558000D01*
X141560756Y-106668679D01*
X141356248Y-106873187D01*
X141245569Y-107140391D01*
X137294854Y-107140391D01*
X137294142Y-107139679D01*
X137026938Y-107029000D01*
X136737720Y-107029000D01*
X136470516Y-107139679D01*
X136266008Y-107344187D01*
X136155329Y-107611391D01*
X128898000Y-107611391D01*
X128898000Y-107382391D01*
X128787321Y-107115187D01*
X128582813Y-106910679D01*
X128536020Y-106891297D01*
X128644000Y-106630609D01*
X128644000Y-106341391D01*
X128533321Y-106074187D01*
X128328813Y-105869679D01*
X128061609Y-105759000D01*
X127772391Y-105759000D01*
X127505187Y-105869679D01*
X127300679Y-106074187D01*
X127190000Y-106341391D01*
X114166000Y-106341391D01*
X114055321Y-106074187D01*
X113850813Y-105869679D01*
X113596056Y-105764156D01*
X113658000Y-105614609D01*
X113658000Y-105579391D01*
X128714000Y-105579391D01*
X128714000Y-105868609D01*
X128824679Y-106135813D01*
X129029187Y-106340321D01*
X129296391Y-106451000D01*
X129585609Y-106451000D01*
X129852813Y-106340321D01*
X130057321Y-106135813D01*
X130168000Y-105868609D01*
X130168000Y-105833391D01*
X136155329Y-105833391D01*
X136155329Y-106122609D01*
X136266008Y-106389813D01*
X136470516Y-106594321D01*
X136737720Y-106705000D01*
X137026938Y-106705000D01*
X137294142Y-106594321D01*
X137498650Y-106389813D01*
X137609329Y-106122609D01*
X137609329Y-105833391D01*
X137498650Y-105566187D01*
X137294142Y-105361679D01*
X137026938Y-105251000D01*
X136737720Y-105251000D01*
X136470516Y-105361679D01*
X136266008Y-105566187D01*
X136155329Y-105833391D01*
X130168000Y-105833391D01*
X130168000Y-105579391D01*
X130057321Y-105312187D01*
X129852813Y-105107679D01*
X129585609Y-104997000D01*
X129296391Y-104997000D01*
X129029187Y-105107679D01*
X128824679Y-105312187D01*
X128714000Y-105579391D01*
X113658000Y-105579391D01*
X113658000Y-105325391D01*
X113547321Y-105058187D01*
X113342813Y-104853679D01*
X113075609Y-104743000D01*
X112786391Y-104743000D01*
X112519187Y-104853679D01*
X112314679Y-105058187D01*
X112204000Y-105325391D01*
X102736000Y-105325391D01*
X102736000Y-105071391D01*
X102625321Y-104804187D01*
X102420813Y-104599679D01*
X102153609Y-104489000D01*
X101864391Y-104489000D01*
X101597187Y-104599679D01*
X101392679Y-104804187D01*
X101282000Y-105071391D01*
X85118000Y-105071391D01*
X85118000Y-103801391D01*
X122872000Y-103801391D01*
X122872000Y-104090609D01*
X122982679Y-104357813D01*
X123187187Y-104562321D01*
X123454391Y-104673000D01*
X123743609Y-104673000D01*
X124008229Y-104563391D01*
X139890000Y-104563391D01*
X139890000Y-104852609D01*
X140000679Y-105119813D01*
X140205187Y-105324321D01*
X140472391Y-105435000D01*
X140761609Y-105435000D01*
X141028813Y-105324321D01*
X141233321Y-105119813D01*
X141344000Y-104852609D01*
X141344000Y-104618384D01*
X175215000Y-104618384D01*
X175215000Y-105051616D01*
X175380790Y-105451869D01*
X175687131Y-105758210D01*
X176087384Y-105924000D01*
X176520616Y-105924000D01*
X176920869Y-105758210D01*
X177066000Y-105613079D01*
X177338131Y-105885210D01*
X177738384Y-106051000D01*
X178171616Y-106051000D01*
X178571869Y-105885210D01*
X178780500Y-105676579D01*
X178989131Y-105885210D01*
X179389384Y-106051000D01*
X179822616Y-106051000D01*
X180222869Y-105885210D01*
X180431500Y-105676579D01*
X180640131Y-105885210D01*
X181040384Y-106051000D01*
X181473616Y-106051000D01*
X181873869Y-105885210D01*
X182146000Y-105613079D01*
X182383921Y-105851000D01*
X182111790Y-106123131D01*
X181946000Y-106523384D01*
X181946000Y-106956616D01*
X182111790Y-107356869D01*
X182383921Y-107629000D01*
X182111790Y-107901131D01*
X181946000Y-108301384D01*
X181946000Y-108734616D01*
X182111790Y-109134869D01*
X182320421Y-109343500D01*
X182111790Y-109552131D01*
X181946000Y-109952384D01*
X181946000Y-110385616D01*
X182111790Y-110785869D01*
X182418131Y-111092210D01*
X182818384Y-111258000D01*
X183251616Y-111258000D01*
X183651869Y-111092210D01*
X183958210Y-110785869D01*
X184124000Y-110385616D01*
X184124000Y-109952384D01*
X183958210Y-109552131D01*
X183749579Y-109343500D01*
X183958210Y-109134869D01*
X184124000Y-108734616D01*
X184124000Y-108301384D01*
X183958210Y-107901131D01*
X183686079Y-107629000D01*
X183958210Y-107356869D01*
X184124000Y-106956616D01*
X184124000Y-106523384D01*
X183958210Y-106123131D01*
X183686079Y-105851000D01*
X183958210Y-105578869D01*
X184124000Y-105178616D01*
X184124000Y-104745384D01*
X183958210Y-104345131D01*
X183651869Y-104038790D01*
X183485427Y-103969848D01*
X183616000Y-103654616D01*
X183616000Y-103221384D01*
X183450210Y-102821131D01*
X183143869Y-102514790D01*
X182743616Y-102349000D01*
X182310384Y-102349000D01*
X181910131Y-102514790D01*
X181701500Y-102723421D01*
X181492869Y-102514790D01*
X181092616Y-102349000D01*
X180659384Y-102349000D01*
X180259131Y-102514790D01*
X180050500Y-102723421D01*
X179841869Y-102514790D01*
X179441616Y-102349000D01*
X179008384Y-102349000D01*
X178608131Y-102514790D01*
X178399500Y-102723421D01*
X178190869Y-102514790D01*
X177790616Y-102349000D01*
X177357384Y-102349000D01*
X176957131Y-102514790D01*
X176650790Y-102821131D01*
X176485000Y-103221384D01*
X176485000Y-103654616D01*
X176523316Y-103747118D01*
X176520616Y-103746000D01*
X176087384Y-103746000D01*
X175687131Y-103911790D01*
X175380790Y-104218131D01*
X175215000Y-104618384D01*
X141344000Y-104618384D01*
X141344000Y-104563391D01*
X141233321Y-104296187D01*
X141028813Y-104091679D01*
X140761609Y-103981000D01*
X140472391Y-103981000D01*
X140205187Y-104091679D01*
X140000679Y-104296187D01*
X139890000Y-104563391D01*
X124008229Y-104563391D01*
X124010813Y-104562321D01*
X124215321Y-104357813D01*
X124326000Y-104090609D01*
X124326000Y-103801391D01*
X124215321Y-103534187D01*
X124010813Y-103329679D01*
X123743609Y-103219000D01*
X123454391Y-103219000D01*
X123187187Y-103329679D01*
X122982679Y-103534187D01*
X122872000Y-103801391D01*
X85118000Y-103801391D01*
X85118000Y-101832891D01*
X144716000Y-101832891D01*
X144716000Y-102122109D01*
X144826679Y-102389313D01*
X145031187Y-102593821D01*
X145298391Y-102704500D01*
X145587609Y-102704500D01*
X145854813Y-102593821D01*
X145958244Y-102490390D01*
X147764000Y-102490390D01*
X147764000Y-102779608D01*
X147874679Y-103046812D01*
X148079187Y-103251320D01*
X148346391Y-103361999D01*
X148635609Y-103361999D01*
X148902813Y-103251320D01*
X149107321Y-103046812D01*
X149218000Y-102779608D01*
X149218000Y-102490390D01*
X149107321Y-102223186D01*
X148902813Y-102018678D01*
X148635609Y-101907999D01*
X148346391Y-101907999D01*
X148079187Y-102018678D01*
X147874679Y-102223186D01*
X147764000Y-102490390D01*
X145958244Y-102490390D01*
X146059321Y-102389313D01*
X146170000Y-102122109D01*
X146170000Y-101832891D01*
X146143698Y-101769391D01*
X158686000Y-101769391D01*
X158686000Y-102058609D01*
X158796679Y-102325813D01*
X159001187Y-102530321D01*
X159268391Y-102641000D01*
X159557609Y-102641000D01*
X159824813Y-102530321D01*
X160029321Y-102325813D01*
X160140000Y-102058609D01*
X160140000Y-101769391D01*
X160029321Y-101502187D01*
X159824813Y-101297679D01*
X159557609Y-101187000D01*
X159268391Y-101187000D01*
X159001187Y-101297679D01*
X158796679Y-101502187D01*
X158686000Y-101769391D01*
X146143698Y-101769391D01*
X146059321Y-101565687D01*
X145854813Y-101361179D01*
X145587609Y-101250500D01*
X145298391Y-101250500D01*
X145031187Y-101361179D01*
X144826679Y-101565687D01*
X144716000Y-101832891D01*
X85118000Y-101832891D01*
X85118000Y-98662160D01*
X98433779Y-98662160D01*
X98433779Y-98951378D01*
X98544458Y-99218582D01*
X98748966Y-99423090D01*
X99016170Y-99533769D01*
X99305388Y-99533769D01*
X99572592Y-99423090D01*
X99777100Y-99218582D01*
X99887779Y-98951378D01*
X99887779Y-98662160D01*
X99777100Y-98394956D01*
X99572592Y-98190448D01*
X99305388Y-98079769D01*
X99016170Y-98079769D01*
X98748966Y-98190448D01*
X98544458Y-98394956D01*
X98433779Y-98662160D01*
X85118000Y-98662160D01*
X85118000Y-97451407D01*
X139636000Y-97451407D01*
X139636000Y-97740625D01*
X139746679Y-98007829D01*
X139951187Y-98212337D01*
X140218391Y-98323016D01*
X140507609Y-98323016D01*
X140774813Y-98212337D01*
X140979321Y-98007829D01*
X141090000Y-97740625D01*
X141090000Y-97451407D01*
X140979321Y-97184203D01*
X140774813Y-96979695D01*
X140507609Y-96869016D01*
X140218391Y-96869016D01*
X139951187Y-96979695D01*
X139746679Y-97184203D01*
X139636000Y-97451407D01*
X85118000Y-97451407D01*
X85118000Y-96435391D01*
X128714000Y-96435391D01*
X128714000Y-96724609D01*
X128824679Y-96991813D01*
X129029187Y-97196321D01*
X129296391Y-97307000D01*
X129585609Y-97307000D01*
X129852813Y-97196321D01*
X130057321Y-96991813D01*
X130168000Y-96724609D01*
X130168000Y-96435391D01*
X146240000Y-96435391D01*
X146240000Y-96724609D01*
X146350679Y-96991813D01*
X146555187Y-97196321D01*
X146822391Y-97307000D01*
X147111609Y-97307000D01*
X147378813Y-97196321D01*
X147583321Y-96991813D01*
X147694000Y-96724609D01*
X147694000Y-96435391D01*
X147588791Y-96181391D01*
X156654000Y-96181391D01*
X156654000Y-96470609D01*
X156764679Y-96737813D01*
X156969187Y-96942321D01*
X157236391Y-97053000D01*
X157525609Y-97053000D01*
X157792813Y-96942321D01*
X157997321Y-96737813D01*
X158108000Y-96470609D01*
X158108000Y-96236384D01*
X173945000Y-96236384D01*
X173945000Y-96669616D01*
X174110790Y-97069869D01*
X174255921Y-97215000D01*
X174110790Y-97360131D01*
X173945000Y-97760384D01*
X173945000Y-98193616D01*
X174110790Y-98593869D01*
X174417131Y-98900210D01*
X174817384Y-99066000D01*
X175250616Y-99066000D01*
X175316816Y-99038579D01*
X175215000Y-99284384D01*
X175215000Y-99428000D01*
X174817384Y-99428000D01*
X174417131Y-99593790D01*
X174110790Y-99900131D01*
X173945000Y-100300384D01*
X173945000Y-100733616D01*
X174110790Y-101133869D01*
X174417131Y-101440210D01*
X174817384Y-101606000D01*
X175250616Y-101606000D01*
X175650869Y-101440210D01*
X175829688Y-101261391D01*
X176720000Y-101261391D01*
X176720000Y-101550609D01*
X176830679Y-101817813D01*
X177035187Y-102022321D01*
X177302391Y-102133000D01*
X177591609Y-102133000D01*
X177858813Y-102022321D01*
X178063321Y-101817813D01*
X178174000Y-101550609D01*
X178174000Y-101261391D01*
X178063321Y-100994187D01*
X177858813Y-100789679D01*
X177591609Y-100679000D01*
X177302391Y-100679000D01*
X177035187Y-100789679D01*
X176830679Y-100994187D01*
X176720000Y-101261391D01*
X175829688Y-101261391D01*
X175957210Y-101133869D01*
X176123000Y-100733616D01*
X176123000Y-100590000D01*
X176520616Y-100590000D01*
X176920869Y-100424210D01*
X177227210Y-100117869D01*
X177393000Y-99717616D01*
X177393000Y-99284384D01*
X177227210Y-98884131D01*
X177133447Y-98790368D01*
X177174869Y-98773210D01*
X177481210Y-98466869D01*
X177647000Y-98066616D01*
X177647000Y-97906937D01*
X177992384Y-98050000D01*
X178425616Y-98050000D01*
X178825869Y-97884210D01*
X179132210Y-97577869D01*
X179161820Y-97506384D01*
X182327000Y-97506384D01*
X182327000Y-97939616D01*
X182492790Y-98339869D01*
X182701421Y-98548500D01*
X182492790Y-98757131D01*
X182327000Y-99157384D01*
X182327000Y-99590616D01*
X182492790Y-99990869D01*
X182799131Y-100297210D01*
X183199384Y-100463000D01*
X183632616Y-100463000D01*
X184032869Y-100297210D01*
X184339210Y-99990869D01*
X184505000Y-99590616D01*
X184505000Y-99157384D01*
X184339210Y-98757131D01*
X184130579Y-98548500D01*
X184339210Y-98339869D01*
X184505000Y-97939616D01*
X184505000Y-97506384D01*
X184339210Y-97106131D01*
X184032869Y-96799790D01*
X183632616Y-96634000D01*
X183199384Y-96634000D01*
X182799131Y-96799790D01*
X182492790Y-97106131D01*
X182327000Y-97506384D01*
X179161820Y-97506384D01*
X179298000Y-97177616D01*
X179298000Y-96744384D01*
X179132210Y-96344131D01*
X178825869Y-96037790D01*
X178425616Y-95872000D01*
X177992384Y-95872000D01*
X177722054Y-95983974D01*
X177608210Y-95709131D01*
X177590079Y-95691000D01*
X177734688Y-95546391D01*
X184467000Y-95546391D01*
X184467000Y-95835609D01*
X184577679Y-96102813D01*
X184782187Y-96307321D01*
X185049391Y-96418000D01*
X185338609Y-96418000D01*
X185605813Y-96307321D01*
X185810321Y-96102813D01*
X185921000Y-95835609D01*
X185921000Y-95546391D01*
X185810321Y-95279187D01*
X185605813Y-95074679D01*
X185338609Y-94964000D01*
X185049391Y-94964000D01*
X184782187Y-95074679D01*
X184577679Y-95279187D01*
X184467000Y-95546391D01*
X177734688Y-95546391D01*
X177862210Y-95418869D01*
X178028000Y-95018616D01*
X178028000Y-94585384D01*
X177862210Y-94185131D01*
X177653579Y-93976500D01*
X177862210Y-93767869D01*
X178028000Y-93367616D01*
X178028000Y-93315384D01*
X182581000Y-93315384D01*
X182581000Y-93748616D01*
X182746790Y-94148869D01*
X183053131Y-94455210D01*
X183453384Y-94621000D01*
X183886616Y-94621000D01*
X184286869Y-94455210D01*
X184593210Y-94148869D01*
X184759000Y-93748616D01*
X184759000Y-93315384D01*
X184593210Y-92915131D01*
X184286869Y-92608790D01*
X183886616Y-92443000D01*
X183453384Y-92443000D01*
X183053131Y-92608790D01*
X182746790Y-92915131D01*
X182581000Y-93315384D01*
X178028000Y-93315384D01*
X178028000Y-92934384D01*
X177862210Y-92534131D01*
X177555869Y-92227790D01*
X177155616Y-92062000D01*
X176722384Y-92062000D01*
X176322131Y-92227790D01*
X176113500Y-92436421D01*
X175904869Y-92227790D01*
X175504616Y-92062000D01*
X175071384Y-92062000D01*
X174671131Y-92227790D01*
X174364790Y-92534131D01*
X174199000Y-92934384D01*
X174199000Y-93367616D01*
X174364790Y-93767869D01*
X174573421Y-93976500D01*
X174364790Y-94185131D01*
X174199000Y-94585384D01*
X174199000Y-95018616D01*
X174364790Y-95418869D01*
X174458553Y-95512632D01*
X174417131Y-95529790D01*
X174110790Y-95836131D01*
X173945000Y-96236384D01*
X158108000Y-96236384D01*
X158108000Y-96181391D01*
X157997321Y-95914187D01*
X157792813Y-95709679D01*
X157525609Y-95599000D01*
X157236391Y-95599000D01*
X156969187Y-95709679D01*
X156764679Y-95914187D01*
X156654000Y-96181391D01*
X147588791Y-96181391D01*
X147583321Y-96168187D01*
X147378813Y-95963679D01*
X147111609Y-95853000D01*
X146822391Y-95853000D01*
X146555187Y-95963679D01*
X146350679Y-96168187D01*
X146240000Y-96435391D01*
X130168000Y-96435391D01*
X130057321Y-96168187D01*
X129852813Y-95963679D01*
X129585609Y-95853000D01*
X129296391Y-95853000D01*
X129029187Y-95963679D01*
X128824679Y-96168187D01*
X128714000Y-96435391D01*
X85118000Y-96435391D01*
X85118000Y-95419391D01*
X94170000Y-95419391D01*
X94170000Y-95708609D01*
X94280679Y-95975813D01*
X94485187Y-96180321D01*
X94752391Y-96291000D01*
X95041609Y-96291000D01*
X95308813Y-96180321D01*
X95513321Y-95975813D01*
X95624000Y-95708609D01*
X95624000Y-95419391D01*
X95513321Y-95152187D01*
X95308813Y-94947679D01*
X95041609Y-94837000D01*
X94752391Y-94837000D01*
X94485187Y-94947679D01*
X94280679Y-95152187D01*
X94170000Y-95419391D01*
X85118000Y-95419391D01*
X85118000Y-94261043D01*
X98345652Y-94261043D01*
X98345652Y-94550261D01*
X98456331Y-94817465D01*
X98660839Y-95021973D01*
X98928043Y-95132652D01*
X99217261Y-95132652D01*
X99484465Y-95021973D01*
X99688973Y-94817465D01*
X99799652Y-94550261D01*
X99799652Y-94261043D01*
X99688973Y-93993839D01*
X99484465Y-93789331D01*
X99217261Y-93678652D01*
X98928043Y-93678652D01*
X98660839Y-93789331D01*
X98456331Y-93993839D01*
X98345652Y-94261043D01*
X85118000Y-94261043D01*
X85118000Y-93096391D01*
X137096000Y-93096391D01*
X137096000Y-93385609D01*
X137206679Y-93652813D01*
X137411187Y-93857321D01*
X137678391Y-93968000D01*
X137967609Y-93968000D01*
X138234813Y-93857321D01*
X138439321Y-93652813D01*
X138550000Y-93385609D01*
X138550000Y-93096391D01*
X138439321Y-92829187D01*
X138234813Y-92624679D01*
X137967609Y-92514000D01*
X137678391Y-92514000D01*
X137411187Y-92624679D01*
X137206679Y-92829187D01*
X137096000Y-93096391D01*
X85118000Y-93096391D01*
X85118000Y-92117391D01*
X93408000Y-92117391D01*
X93408000Y-92406609D01*
X93518679Y-92673813D01*
X93723187Y-92878321D01*
X93990391Y-92989000D01*
X94279609Y-92989000D01*
X94546813Y-92878321D01*
X94751321Y-92673813D01*
X94862000Y-92406609D01*
X94862000Y-92117391D01*
X94751321Y-91850187D01*
X94546813Y-91645679D01*
X94279609Y-91535000D01*
X93990391Y-91535000D01*
X93723187Y-91645679D01*
X93518679Y-91850187D01*
X93408000Y-92117391D01*
X85118000Y-92117391D01*
X85118000Y-91101391D01*
X131000000Y-91101391D01*
X131000000Y-91390609D01*
X131110679Y-91657813D01*
X131315187Y-91862321D01*
X131582391Y-91973000D01*
X131871609Y-91973000D01*
X132138813Y-91862321D01*
X132343321Y-91657813D01*
X132454000Y-91390609D01*
X132454000Y-91101391D01*
X132343321Y-90834187D01*
X132138813Y-90629679D01*
X131871609Y-90519000D01*
X131582391Y-90519000D01*
X131315187Y-90629679D01*
X131110679Y-90834187D01*
X131000000Y-91101391D01*
X85118000Y-91101391D01*
X85118000Y-90085391D01*
X94932000Y-90085391D01*
X94932000Y-90374609D01*
X95042679Y-90641813D01*
X95247187Y-90846321D01*
X95514391Y-90957000D01*
X95803609Y-90957000D01*
X96070813Y-90846321D01*
X96275321Y-90641813D01*
X96386000Y-90374609D01*
X96386000Y-90099822D01*
X135539429Y-90099822D01*
X135539429Y-90389040D01*
X135650108Y-90656244D01*
X135854616Y-90860752D01*
X136121820Y-90971431D01*
X136411038Y-90971431D01*
X136678242Y-90860752D01*
X136882750Y-90656244D01*
X136993429Y-90389040D01*
X136993429Y-90099822D01*
X136882750Y-89832618D01*
X136678242Y-89628110D01*
X136411038Y-89517431D01*
X136121820Y-89517431D01*
X135854616Y-89628110D01*
X135650108Y-89832618D01*
X135539429Y-90099822D01*
X96386000Y-90099822D01*
X96386000Y-90085391D01*
X96275321Y-89818187D01*
X96070813Y-89613679D01*
X95803609Y-89503000D01*
X95514391Y-89503000D01*
X95247187Y-89613679D01*
X95042679Y-89818187D01*
X94932000Y-90085391D01*
X85118000Y-90085391D01*
X85118000Y-87545391D01*
X108648000Y-87545391D01*
X108648000Y-87834609D01*
X108758679Y-88101813D01*
X108963187Y-88306321D01*
X109230391Y-88417000D01*
X109519609Y-88417000D01*
X109786813Y-88306321D01*
X109991321Y-88101813D01*
X110102000Y-87834609D01*
X110102000Y-87799391D01*
X112966000Y-87799391D01*
X112966000Y-88088609D01*
X113076679Y-88355813D01*
X113281187Y-88560321D01*
X113548391Y-88671000D01*
X113837609Y-88671000D01*
X114104813Y-88560321D01*
X114309321Y-88355813D01*
X114420000Y-88088609D01*
X114420000Y-87799391D01*
X114309321Y-87532187D01*
X114104813Y-87327679D01*
X114017206Y-87291391D01*
X122872000Y-87291391D01*
X122872000Y-87580609D01*
X122982679Y-87847813D01*
X123187187Y-88052321D01*
X123454391Y-88163000D01*
X123743609Y-88163000D01*
X124010813Y-88052321D01*
X124215321Y-87847813D01*
X124326000Y-87580609D01*
X124326000Y-87450400D01*
X161226000Y-87450400D01*
X161226000Y-87739618D01*
X161336679Y-88006822D01*
X161541187Y-88211330D01*
X161808391Y-88322009D01*
X162097609Y-88322009D01*
X162364813Y-88211330D01*
X162569321Y-88006822D01*
X162680000Y-87739618D01*
X162680000Y-87450400D01*
X162569321Y-87183196D01*
X162364813Y-86978688D01*
X162097609Y-86868009D01*
X161808391Y-86868009D01*
X161541187Y-86978688D01*
X161336679Y-87183196D01*
X161226000Y-87450400D01*
X124326000Y-87450400D01*
X124326000Y-87291391D01*
X124215321Y-87024187D01*
X124010813Y-86819679D01*
X123743609Y-86709000D01*
X123454391Y-86709000D01*
X123187187Y-86819679D01*
X122982679Y-87024187D01*
X122872000Y-87291391D01*
X114017206Y-87291391D01*
X113837609Y-87217000D01*
X113548391Y-87217000D01*
X113281187Y-87327679D01*
X113076679Y-87532187D01*
X112966000Y-87799391D01*
X110102000Y-87799391D01*
X110102000Y-87545391D01*
X109991321Y-87278187D01*
X109786813Y-87073679D01*
X109519609Y-86963000D01*
X109230391Y-86963000D01*
X108963187Y-87073679D01*
X108758679Y-87278187D01*
X108648000Y-87545391D01*
X85118000Y-87545391D01*
X85118000Y-86275391D01*
X105092000Y-86275391D01*
X105092000Y-86564609D01*
X105202679Y-86831813D01*
X105407187Y-87036321D01*
X105674391Y-87147000D01*
X105963609Y-87147000D01*
X106230813Y-87036321D01*
X106435321Y-86831813D01*
X106546000Y-86564609D01*
X106546000Y-86275391D01*
X106435321Y-86008187D01*
X106230813Y-85803679D01*
X105963609Y-85693000D01*
X105674391Y-85693000D01*
X105407187Y-85803679D01*
X105202679Y-86008187D01*
X105092000Y-86275391D01*
X85118000Y-86275391D01*
X85118000Y-84751391D01*
X128206000Y-84751391D01*
X128206000Y-85040609D01*
X128316679Y-85307813D01*
X128521187Y-85512321D01*
X128788391Y-85623000D01*
X129077609Y-85623000D01*
X129344813Y-85512321D01*
X129549321Y-85307813D01*
X129569377Y-85259391D01*
X130746000Y-85259391D01*
X130746000Y-85548609D01*
X130856679Y-85815813D01*
X131061187Y-86020321D01*
X131328391Y-86131000D01*
X131617609Y-86131000D01*
X131884813Y-86020321D01*
X132089321Y-85815813D01*
X132200000Y-85548609D01*
X132200000Y-85259391D01*
X132089321Y-84992187D01*
X131884813Y-84787679D01*
X131617609Y-84677000D01*
X131328391Y-84677000D01*
X131061187Y-84787679D01*
X130856679Y-84992187D01*
X130746000Y-85259391D01*
X129569377Y-85259391D01*
X129660000Y-85040609D01*
X129660000Y-84751391D01*
X129554791Y-84497391D01*
X139128000Y-84497391D01*
X139128000Y-84786609D01*
X139238679Y-85053813D01*
X139443187Y-85258321D01*
X139710391Y-85369000D01*
X139999609Y-85369000D01*
X140266813Y-85258321D01*
X140471321Y-85053813D01*
X140582000Y-84786609D01*
X140582000Y-84497391D01*
X140471321Y-84230187D01*
X140285518Y-84044384D01*
X174453000Y-84044384D01*
X174453000Y-84477616D01*
X174618790Y-84877869D01*
X174827421Y-85086500D01*
X174618790Y-85295131D01*
X174453000Y-85695384D01*
X174453000Y-86128616D01*
X174618790Y-86528869D01*
X174827421Y-86737500D01*
X174618790Y-86946131D01*
X174453000Y-87346384D01*
X174453000Y-87779616D01*
X174618790Y-88179869D01*
X174925131Y-88486210D01*
X174995843Y-88515500D01*
X174925131Y-88544790D01*
X174618790Y-88851131D01*
X174453000Y-89251384D01*
X174453000Y-89684616D01*
X174618790Y-90084869D01*
X174925131Y-90391210D01*
X175325384Y-90557000D01*
X175758616Y-90557000D01*
X176158869Y-90391210D01*
X176465210Y-90084869D01*
X176558000Y-89860854D01*
X176650790Y-90084869D01*
X176957131Y-90391210D01*
X177357384Y-90557000D01*
X177790616Y-90557000D01*
X178190869Y-90391210D01*
X178497210Y-90084869D01*
X178526500Y-90014157D01*
X178555790Y-90084869D01*
X178862131Y-90391210D01*
X179262384Y-90557000D01*
X179695616Y-90557000D01*
X180095869Y-90391210D01*
X180402210Y-90084869D01*
X180495000Y-89860854D01*
X180587790Y-90084869D01*
X180894131Y-90391210D01*
X181294384Y-90557000D01*
X181727616Y-90557000D01*
X182127869Y-90391210D01*
X182434210Y-90084869D01*
X182590500Y-89707551D01*
X182746790Y-90084869D01*
X183053131Y-90391210D01*
X183453384Y-90557000D01*
X183886616Y-90557000D01*
X184286869Y-90391210D01*
X184593210Y-90084869D01*
X184759000Y-89684616D01*
X184759000Y-89251384D01*
X184593210Y-88851131D01*
X184372447Y-88630368D01*
X184413869Y-88613210D01*
X184720210Y-88306869D01*
X184886000Y-87906616D01*
X184886000Y-87473384D01*
X184720210Y-87073131D01*
X184413869Y-86766790D01*
X184372447Y-86749632D01*
X184593210Y-86528869D01*
X184759000Y-86128616D01*
X184759000Y-85695384D01*
X184593210Y-85295131D01*
X184384579Y-85086500D01*
X184432000Y-85039079D01*
X184704131Y-85311210D01*
X185104384Y-85477000D01*
X185537616Y-85477000D01*
X185937869Y-85311210D01*
X186244210Y-85004869D01*
X186410000Y-84604616D01*
X186410000Y-84171384D01*
X186244210Y-83771131D01*
X185937869Y-83464790D01*
X185537616Y-83299000D01*
X185104384Y-83299000D01*
X184704131Y-83464790D01*
X184559000Y-83609921D01*
X184286869Y-83337790D01*
X183886616Y-83172000D01*
X183453384Y-83172000D01*
X183053131Y-83337790D01*
X182844500Y-83546421D01*
X182635869Y-83337790D01*
X182235616Y-83172000D01*
X181802384Y-83172000D01*
X181402131Y-83337790D01*
X181193500Y-83546421D01*
X180984869Y-83337790D01*
X180584616Y-83172000D01*
X180151384Y-83172000D01*
X179751131Y-83337790D01*
X179542500Y-83546421D01*
X179333869Y-83337790D01*
X178933616Y-83172000D01*
X178500384Y-83172000D01*
X178100131Y-83337790D01*
X177955000Y-83482921D01*
X177809869Y-83337790D01*
X177409616Y-83172000D01*
X176976384Y-83172000D01*
X176576131Y-83337790D01*
X176367500Y-83546421D01*
X176158869Y-83337790D01*
X175758616Y-83172000D01*
X175325384Y-83172000D01*
X174925131Y-83337790D01*
X174618790Y-83644131D01*
X174453000Y-84044384D01*
X140285518Y-84044384D01*
X140266813Y-84025679D01*
X139999609Y-83915000D01*
X139710391Y-83915000D01*
X139443187Y-84025679D01*
X139238679Y-84230187D01*
X139128000Y-84497391D01*
X129554791Y-84497391D01*
X129549321Y-84484187D01*
X129344813Y-84279679D01*
X129077609Y-84169000D01*
X128788391Y-84169000D01*
X128521187Y-84279679D01*
X128316679Y-84484187D01*
X128206000Y-84751391D01*
X85118000Y-84751391D01*
X85118000Y-80941391D01*
X175196000Y-80941391D01*
X175196000Y-81230609D01*
X175306679Y-81497813D01*
X175511187Y-81702321D01*
X175778391Y-81813000D01*
X176067609Y-81813000D01*
X176334813Y-81702321D01*
X176539321Y-81497813D01*
X176650000Y-81230609D01*
X176650000Y-80941391D01*
X176539321Y-80674187D01*
X176334813Y-80469679D01*
X176067609Y-80359000D01*
X175778391Y-80359000D01*
X175511187Y-80469679D01*
X175306679Y-80674187D01*
X175196000Y-80941391D01*
X85118000Y-80941391D01*
X85118000Y-77131391D01*
X158686000Y-77131391D01*
X158686000Y-77420609D01*
X158796679Y-77687813D01*
X159001187Y-77892321D01*
X159268391Y-78003000D01*
X159557609Y-78003000D01*
X159824813Y-77892321D01*
X160029321Y-77687813D01*
X160140000Y-77420609D01*
X160140000Y-77131391D01*
X160029321Y-76864187D01*
X159824813Y-76659679D01*
X159557609Y-76549000D01*
X159268391Y-76549000D01*
X159001187Y-76659679D01*
X158796679Y-76864187D01*
X158686000Y-77131391D01*
X85118000Y-77131391D01*
X85118000Y-75371000D01*
X135283000Y-75371000D01*
X135331601Y-75361333D01*
X135372803Y-75333803D01*
X135400333Y-75292601D01*
X135410000Y-75244000D01*
X135410000Y-72813391D01*
X158686000Y-72813391D01*
X158686000Y-73102609D01*
X158796679Y-73369813D01*
X159001187Y-73574321D01*
X159268391Y-73685000D01*
X159557609Y-73685000D01*
X159824813Y-73574321D01*
X160029321Y-73369813D01*
X160140000Y-73102609D01*
X160140000Y-72813391D01*
X160029321Y-72546187D01*
X159824813Y-72341679D01*
X159557609Y-72231000D01*
X159268391Y-72231000D01*
X159001187Y-72341679D01*
X158796679Y-72546187D01*
X158686000Y-72813391D01*
X135410000Y-72813391D01*
X135410000Y-69947384D01*
X175342000Y-69947384D01*
X175342000Y-70380616D01*
X175507790Y-70780869D01*
X175716421Y-70989500D01*
X175507790Y-71198131D01*
X175342000Y-71598384D01*
X175342000Y-72031616D01*
X175507790Y-72431869D01*
X175652921Y-72577000D01*
X175507790Y-72722131D01*
X175342000Y-73122384D01*
X175342000Y-73555616D01*
X175507790Y-73955869D01*
X175779921Y-74228000D01*
X175507790Y-74500131D01*
X175342000Y-74900384D01*
X175342000Y-75333616D01*
X175507790Y-75733869D01*
X175716421Y-75942500D01*
X175507790Y-76151131D01*
X175342000Y-76551384D01*
X175342000Y-76984616D01*
X175507790Y-77384869D01*
X175814131Y-77691210D01*
X176214384Y-77857000D01*
X176647616Y-77857000D01*
X177047869Y-77691210D01*
X177354210Y-77384869D01*
X177520000Y-76984616D01*
X177520000Y-76551384D01*
X177354210Y-76151131D01*
X177145579Y-75942500D01*
X177354210Y-75733869D01*
X177511808Y-75353391D01*
X182562000Y-75353391D01*
X182562000Y-75642609D01*
X182672679Y-75909813D01*
X182877187Y-76114321D01*
X183144391Y-76225000D01*
X183433609Y-76225000D01*
X183700813Y-76114321D01*
X183905321Y-75909813D01*
X184016000Y-75642609D01*
X184016000Y-75353391D01*
X183905321Y-75086187D01*
X183700813Y-74881679D01*
X183433609Y-74771000D01*
X183144391Y-74771000D01*
X182877187Y-74881679D01*
X182672679Y-75086187D01*
X182562000Y-75353391D01*
X177511808Y-75353391D01*
X177520000Y-75333616D01*
X177520000Y-74900384D01*
X177354210Y-74500131D01*
X177082079Y-74228000D01*
X177354210Y-73955869D01*
X177520000Y-73555616D01*
X177520000Y-73122384D01*
X177354210Y-72722131D01*
X177209079Y-72577000D01*
X177256500Y-72529579D01*
X177465131Y-72738210D01*
X177865384Y-72904000D01*
X178298616Y-72904000D01*
X178698869Y-72738210D01*
X178971000Y-72466079D01*
X179116131Y-72611210D01*
X179516384Y-72777000D01*
X179949616Y-72777000D01*
X180349869Y-72611210D01*
X180656210Y-72304869D01*
X180822000Y-71904616D01*
X180822000Y-71471384D01*
X180656210Y-71071131D01*
X180574579Y-70989500D01*
X180783210Y-70780869D01*
X180949000Y-70380616D01*
X180949000Y-69947384D01*
X180783210Y-69547131D01*
X180574579Y-69338500D01*
X180783210Y-69129869D01*
X180949000Y-68729616D01*
X180949000Y-68296384D01*
X182581000Y-68296384D01*
X182581000Y-68729616D01*
X182746790Y-69129869D01*
X182955421Y-69338500D01*
X182746790Y-69547131D01*
X182581000Y-69947384D01*
X182581000Y-70380616D01*
X182746790Y-70780869D01*
X182891921Y-70926000D01*
X182746790Y-71071131D01*
X182581000Y-71471384D01*
X182581000Y-71904616D01*
X182746790Y-72304869D01*
X183053131Y-72611210D01*
X183453384Y-72777000D01*
X183886616Y-72777000D01*
X184286869Y-72611210D01*
X184593210Y-72304869D01*
X184759000Y-71904616D01*
X184759000Y-71471384D01*
X184593210Y-71071131D01*
X184448079Y-70926000D01*
X184593210Y-70780869D01*
X184759000Y-70380616D01*
X184759000Y-69947384D01*
X184593210Y-69547131D01*
X184384579Y-69338500D01*
X184593210Y-69129869D01*
X184759000Y-68729616D01*
X184759000Y-68296384D01*
X184593210Y-67896131D01*
X184286869Y-67589790D01*
X183886616Y-67424000D01*
X183453384Y-67424000D01*
X183053131Y-67589790D01*
X182746790Y-67896131D01*
X182581000Y-68296384D01*
X180949000Y-68296384D01*
X180783210Y-67896131D01*
X180476869Y-67589790D01*
X180076616Y-67424000D01*
X179643384Y-67424000D01*
X179243131Y-67589790D01*
X179034500Y-67798421D01*
X178825869Y-67589790D01*
X178425616Y-67424000D01*
X177992384Y-67424000D01*
X177592131Y-67589790D01*
X177383500Y-67798421D01*
X177174869Y-67589790D01*
X176774616Y-67424000D01*
X176341384Y-67424000D01*
X175941131Y-67589790D01*
X175634790Y-67896131D01*
X175469000Y-68296384D01*
X175469000Y-68729616D01*
X175634790Y-69129869D01*
X175779921Y-69275000D01*
X175507790Y-69547131D01*
X175342000Y-69947384D01*
X135410000Y-69947384D01*
X135410000Y-57050000D01*
X156066594Y-57050000D01*
X156066594Y-58250000D01*
X156091973Y-58377589D01*
X156164246Y-58485754D01*
X156272411Y-58558027D01*
X156400000Y-58583406D01*
X157600000Y-58583406D01*
X157727589Y-58558027D01*
X157835754Y-58485754D01*
X157908027Y-58377589D01*
X157933406Y-58250000D01*
X157933406Y-57050000D01*
X157908027Y-56922411D01*
X157835754Y-56814246D01*
X157727589Y-56741973D01*
X157600000Y-56716594D01*
X156400000Y-56716594D01*
X156272411Y-56741973D01*
X156164246Y-56814246D01*
X156091973Y-56922411D01*
X156066594Y-57050000D01*
X135410000Y-57050000D01*
X135410000Y-52465608D01*
X156073000Y-52465608D01*
X156073000Y-52834392D01*
X156214127Y-53175103D01*
X156474897Y-53435873D01*
X156815608Y-53577000D01*
X157184392Y-53577000D01*
X157525103Y-53435873D01*
X157785873Y-53175103D01*
X157927000Y-52834392D01*
X157927000Y-52465608D01*
X157785873Y-52124897D01*
X157525103Y-51864127D01*
X157184392Y-51723000D01*
X156815608Y-51723000D01*
X156474897Y-51864127D01*
X156214127Y-52124897D01*
X156073000Y-52465608D01*
X135410000Y-52465608D01*
X135410000Y-48615608D01*
X156123000Y-48615608D01*
X156123000Y-48984392D01*
X156264127Y-49325103D01*
X156524897Y-49585873D01*
X156865608Y-49727000D01*
X157234392Y-49727000D01*
X157575103Y-49585873D01*
X157835873Y-49325103D01*
X157977000Y-48984392D01*
X157977000Y-48615608D01*
X157835873Y-48274897D01*
X157575103Y-48014127D01*
X157234392Y-47873000D01*
X156865608Y-47873000D01*
X156524897Y-48014127D01*
X156264127Y-48274897D01*
X156123000Y-48615608D01*
X135410000Y-48615608D01*
X135410000Y-43200000D01*
X156116594Y-43200000D01*
X156116594Y-44400000D01*
X156141973Y-44527589D01*
X156214246Y-44635754D01*
X156322411Y-44708027D01*
X156450000Y-44733406D01*
X157650000Y-44733406D01*
X157777589Y-44708027D01*
X157885754Y-44635754D01*
X157958027Y-44527589D01*
X157983406Y-44400000D01*
X157983406Y-43200000D01*
X157958027Y-43072411D01*
X157885754Y-42964246D01*
X157777589Y-42891973D01*
X157650000Y-42866594D01*
X156450000Y-42866594D01*
X156322411Y-42891973D01*
X156214246Y-42964246D01*
X156141973Y-43072411D01*
X156116594Y-43200000D01*
X135410000Y-43200000D01*
X135410000Y-37525000D01*
X164112000Y-37525000D01*
X164112000Y-65592000D01*
X164112000Y-65592000D01*
G37*
X164112000Y-65592000D02*
X164121667Y-65640601D01*
X164149197Y-65681803D01*
X164190399Y-65709333D01*
X164239000Y-65719000D01*
X188115000Y-65719000D01*
X188115000Y-135823000D01*
X85118000Y-135823000D01*
X85118000Y-134789391D01*
X119316000Y-134789391D01*
X119316000Y-135078609D01*
X119426679Y-135345813D01*
X119631187Y-135550321D01*
X119898391Y-135661000D01*
X120187609Y-135661000D01*
X120454813Y-135550321D01*
X120659321Y-135345813D01*
X120770000Y-135078609D01*
X120770000Y-134789391D01*
X120659321Y-134522187D01*
X120454813Y-134317679D01*
X120187609Y-134207000D01*
X119898391Y-134207000D01*
X119631187Y-134317679D01*
X119426679Y-134522187D01*
X119316000Y-134789391D01*
X85118000Y-134789391D01*
X85118000Y-132924168D01*
X117695458Y-132924168D01*
X117695458Y-133213386D01*
X117806137Y-133480590D01*
X118010645Y-133685098D01*
X118277849Y-133795777D01*
X118567067Y-133795777D01*
X118834271Y-133685098D01*
X119038779Y-133480590D01*
X119149458Y-133213386D01*
X119149458Y-132924168D01*
X119038779Y-132656964D01*
X118834271Y-132452456D01*
X118567067Y-132341777D01*
X118277849Y-132341777D01*
X118010645Y-132452456D01*
X117806137Y-132656964D01*
X117695458Y-132924168D01*
X85118000Y-132924168D01*
X85118000Y-130979391D01*
X112712000Y-130979391D01*
X112712000Y-131268609D01*
X112822679Y-131535813D01*
X113027187Y-131740321D01*
X113294391Y-131851000D01*
X113583609Y-131851000D01*
X113850813Y-131740321D01*
X114055321Y-131535813D01*
X114166000Y-131268609D01*
X114166000Y-130979391D01*
X114055321Y-130712187D01*
X113850813Y-130507679D01*
X113583609Y-130397000D01*
X113294391Y-130397000D01*
X113027187Y-130507679D01*
X112822679Y-130712187D01*
X112712000Y-130979391D01*
X85118000Y-130979391D01*
X85118000Y-129455391D01*
X113728000Y-129455391D01*
X113728000Y-129744609D01*
X113838679Y-130011813D01*
X114043187Y-130216321D01*
X114310391Y-130327000D01*
X114599609Y-130327000D01*
X114864229Y-130217391D01*
X116014000Y-130217391D01*
X116014000Y-130506609D01*
X116124679Y-130773813D01*
X116329187Y-130978321D01*
X116596391Y-131089000D01*
X116885609Y-131089000D01*
X117152813Y-130978321D01*
X117357321Y-130773813D01*
X117468000Y-130506609D01*
X117468000Y-130217391D01*
X117357321Y-129950187D01*
X117152813Y-129745679D01*
X116885609Y-129635000D01*
X116596391Y-129635000D01*
X116329187Y-129745679D01*
X116124679Y-129950187D01*
X116014000Y-130217391D01*
X114864229Y-130217391D01*
X114866813Y-130216321D01*
X115071321Y-130011813D01*
X115182000Y-129744609D01*
X115182000Y-129455391D01*
X115071321Y-129188187D01*
X115012518Y-129129384D01*
X172802000Y-129129384D01*
X172802000Y-129562616D01*
X172967790Y-129962869D01*
X173112921Y-130108000D01*
X172967790Y-130253131D01*
X172802000Y-130653384D01*
X172802000Y-131086616D01*
X172967790Y-131486869D01*
X173274131Y-131793210D01*
X173674384Y-131959000D01*
X174107616Y-131959000D01*
X174507869Y-131793210D01*
X174653000Y-131648079D01*
X174798131Y-131793210D01*
X175198384Y-131959000D01*
X175631616Y-131959000D01*
X176031869Y-131793210D01*
X176338210Y-131486869D01*
X176504000Y-131086616D01*
X176504000Y-130653384D01*
X176338210Y-130253131D01*
X176193079Y-130108000D01*
X176338210Y-129962869D01*
X176504000Y-129562616D01*
X176504000Y-129129384D01*
X176338210Y-128729131D01*
X176256579Y-128647500D01*
X176465210Y-128438869D01*
X176631000Y-128038616D01*
X176631000Y-127605384D01*
X176465210Y-127205131D01*
X176320079Y-127060000D01*
X176465210Y-126914869D01*
X176631000Y-126514616D01*
X176631000Y-126081384D01*
X176465210Y-125681131D01*
X176383579Y-125599500D01*
X176494500Y-125488579D01*
X176703131Y-125697210D01*
X177103384Y-125863000D01*
X177536616Y-125863000D01*
X177936869Y-125697210D01*
X178145500Y-125488579D01*
X178354131Y-125697210D01*
X178754384Y-125863000D01*
X179187616Y-125863000D01*
X179587869Y-125697210D01*
X179796500Y-125488579D01*
X180005131Y-125697210D01*
X180405384Y-125863000D01*
X180838616Y-125863000D01*
X181238869Y-125697210D01*
X181384000Y-125552079D01*
X181529131Y-125697210D01*
X181906449Y-125853500D01*
X181529131Y-126009790D01*
X181222790Y-126316131D01*
X181057000Y-126716384D01*
X181057000Y-127149616D01*
X181222790Y-127549869D01*
X181494921Y-127822000D01*
X181222790Y-128094131D01*
X181057000Y-128494384D01*
X181057000Y-128927616D01*
X181222790Y-129327869D01*
X181443553Y-129548632D01*
X181402131Y-129565790D01*
X181095790Y-129872131D01*
X180930000Y-130272384D01*
X180930000Y-130705616D01*
X181095790Y-131105869D01*
X181402131Y-131412210D01*
X181802384Y-131578000D01*
X182235616Y-131578000D01*
X182635869Y-131412210D01*
X182942210Y-131105869D01*
X183108000Y-130705616D01*
X183108000Y-130272384D01*
X182942210Y-129872131D01*
X182721447Y-129651368D01*
X182762869Y-129634210D01*
X183069210Y-129327869D01*
X183235000Y-128927616D01*
X183235000Y-128494384D01*
X183069210Y-128094131D01*
X182797079Y-127822000D01*
X183069210Y-127549869D01*
X183235000Y-127149616D01*
X183235000Y-126716384D01*
X183069210Y-126316131D01*
X182762869Y-126009790D01*
X182385551Y-125853500D01*
X182762869Y-125697210D01*
X183069210Y-125390869D01*
X183235000Y-124990616D01*
X183235000Y-124557384D01*
X183069210Y-124157131D01*
X182762869Y-123850790D01*
X182362616Y-123685000D01*
X181929384Y-123685000D01*
X181529131Y-123850790D01*
X181384000Y-123995921D01*
X181238869Y-123850790D01*
X180838616Y-123685000D01*
X180405384Y-123685000D01*
X180005131Y-123850790D01*
X179796500Y-124059421D01*
X179587869Y-123850790D01*
X179187616Y-123685000D01*
X178754384Y-123685000D01*
X178354131Y-123850790D01*
X178145500Y-124059421D01*
X177936869Y-123850790D01*
X177536616Y-123685000D01*
X177103384Y-123685000D01*
X176703131Y-123850790D01*
X176494500Y-124059421D01*
X176285869Y-123850790D01*
X175885616Y-123685000D01*
X175452384Y-123685000D01*
X175052131Y-123850790D01*
X174907000Y-123995921D01*
X174761869Y-123850790D01*
X174361616Y-123685000D01*
X173928384Y-123685000D01*
X173528131Y-123850790D01*
X173221790Y-124157131D01*
X173056000Y-124557384D01*
X173056000Y-124990616D01*
X173221790Y-125390869D01*
X173303421Y-125472500D01*
X173094790Y-125681131D01*
X172929000Y-126081384D01*
X172929000Y-126514616D01*
X173094790Y-126914869D01*
X173239921Y-127060000D01*
X173094790Y-127205131D01*
X172929000Y-127605384D01*
X172929000Y-128038616D01*
X173094790Y-128438869D01*
X173176421Y-128520500D01*
X172967790Y-128729131D01*
X172802000Y-129129384D01*
X115012518Y-129129384D01*
X114866813Y-128983679D01*
X114599609Y-128873000D01*
X114310391Y-128873000D01*
X114043187Y-128983679D01*
X113838679Y-129188187D01*
X113728000Y-129455391D01*
X85118000Y-129455391D01*
X85118000Y-128402401D01*
X108315069Y-128402401D01*
X108315069Y-128691619D01*
X108425748Y-128958823D01*
X108630256Y-129163331D01*
X108897460Y-129274010D01*
X109186678Y-129274010D01*
X109453882Y-129163331D01*
X109658390Y-128958823D01*
X109769069Y-128691619D01*
X109769069Y-128402401D01*
X109658390Y-128135197D01*
X109453882Y-127930689D01*
X109186678Y-127820010D01*
X108897460Y-127820010D01*
X108630256Y-127930689D01*
X108425748Y-128135197D01*
X108315069Y-128402401D01*
X85118000Y-128402401D01*
X85118000Y-127423391D01*
X112966000Y-127423391D01*
X112966000Y-127712609D01*
X113076679Y-127979813D01*
X113281187Y-128184321D01*
X113548391Y-128295000D01*
X113837609Y-128295000D01*
X114104813Y-128184321D01*
X114309321Y-127979813D01*
X114420000Y-127712609D01*
X114420000Y-127642576D01*
X160904815Y-127642576D01*
X160904815Y-127931794D01*
X161015494Y-128198998D01*
X161220002Y-128403506D01*
X161487206Y-128514185D01*
X161776424Y-128514185D01*
X162043628Y-128403506D01*
X162248136Y-128198998D01*
X162358815Y-127931794D01*
X162358815Y-127642576D01*
X162248136Y-127375372D01*
X162043628Y-127170864D01*
X161776424Y-127060185D01*
X161487206Y-127060185D01*
X161220002Y-127170864D01*
X161015494Y-127375372D01*
X160904815Y-127642576D01*
X114420000Y-127642576D01*
X114420000Y-127423391D01*
X114309321Y-127156187D01*
X114104813Y-126951679D01*
X113837609Y-126841000D01*
X113548391Y-126841000D01*
X113281187Y-126951679D01*
X113076679Y-127156187D01*
X112966000Y-127423391D01*
X85118000Y-127423391D01*
X85118000Y-126661391D01*
X114236000Y-126661391D01*
X114236000Y-126950609D01*
X114346679Y-127217813D01*
X114551187Y-127422321D01*
X114818391Y-127533000D01*
X115107609Y-127533000D01*
X115374813Y-127422321D01*
X115579321Y-127217813D01*
X115690000Y-126950609D01*
X115690000Y-126661391D01*
X122618000Y-126661391D01*
X122618000Y-126950609D01*
X122728679Y-127217813D01*
X122933187Y-127422321D01*
X123200391Y-127533000D01*
X123489609Y-127533000D01*
X123756813Y-127422321D01*
X123961321Y-127217813D01*
X124072000Y-126950609D01*
X124072000Y-126661391D01*
X123961321Y-126394187D01*
X123756813Y-126189679D01*
X123489609Y-126079000D01*
X123200391Y-126079000D01*
X122933187Y-126189679D01*
X122728679Y-126394187D01*
X122618000Y-126661391D01*
X115690000Y-126661391D01*
X115579321Y-126394187D01*
X115374813Y-126189679D01*
X115107609Y-126079000D01*
X114818391Y-126079000D01*
X114551187Y-126189679D01*
X114346679Y-126394187D01*
X114236000Y-126661391D01*
X85118000Y-126661391D01*
X85118000Y-125391395D01*
X99504000Y-125391395D01*
X99504000Y-125680613D01*
X99614679Y-125947817D01*
X99819187Y-126152325D01*
X100086391Y-126263004D01*
X100375609Y-126263004D01*
X100642813Y-126152325D01*
X100847321Y-125947817D01*
X100958000Y-125680613D01*
X100958000Y-125608391D01*
X108114600Y-125608391D01*
X108114600Y-125897609D01*
X108225279Y-126164813D01*
X108429787Y-126369321D01*
X108696991Y-126480000D01*
X108986209Y-126480000D01*
X109253413Y-126369321D01*
X109457921Y-126164813D01*
X109568600Y-125897609D01*
X109568600Y-125608391D01*
X109457921Y-125341187D01*
X109253413Y-125136679D01*
X108986209Y-125026000D01*
X108696991Y-125026000D01*
X108429787Y-125136679D01*
X108225279Y-125341187D01*
X108114600Y-125608391D01*
X100958000Y-125608391D01*
X100958000Y-125391395D01*
X100847321Y-125124191D01*
X100642813Y-124919683D01*
X100375609Y-124809004D01*
X100086391Y-124809004D01*
X99819187Y-124919683D01*
X99614679Y-125124191D01*
X99504000Y-125391395D01*
X85118000Y-125391395D01*
X85118000Y-123613391D01*
X87566000Y-123613391D01*
X87566000Y-123902609D01*
X87676679Y-124169813D01*
X87881187Y-124374321D01*
X88148391Y-124485000D01*
X88437609Y-124485000D01*
X88704813Y-124374321D01*
X88909321Y-124169813D01*
X88931305Y-124116738D01*
X106112653Y-124116738D01*
X106112653Y-124405956D01*
X106223332Y-124673160D01*
X106427840Y-124877668D01*
X106695044Y-124988347D01*
X106984262Y-124988347D01*
X107251466Y-124877668D01*
X107455974Y-124673160D01*
X107565636Y-124408411D01*
X113181900Y-124408411D01*
X113181900Y-124697629D01*
X113292579Y-124964833D01*
X113497087Y-125169341D01*
X113764291Y-125280020D01*
X113982000Y-125280020D01*
X113982000Y-125426609D01*
X114092679Y-125693813D01*
X114297187Y-125898321D01*
X114564391Y-126009000D01*
X114853609Y-126009000D01*
X115120813Y-125898321D01*
X115325321Y-125693813D01*
X115436000Y-125426609D01*
X115436000Y-125264391D01*
X118554000Y-125264391D01*
X118554000Y-125553609D01*
X118664679Y-125820813D01*
X118869187Y-126025321D01*
X119136391Y-126136000D01*
X119425609Y-126136000D01*
X119692813Y-126025321D01*
X119897321Y-125820813D01*
X120008000Y-125553609D01*
X120008000Y-125264391D01*
X119897321Y-124997187D01*
X119692813Y-124792679D01*
X119425609Y-124682000D01*
X119136391Y-124682000D01*
X118869187Y-124792679D01*
X118664679Y-124997187D01*
X118554000Y-125264391D01*
X115436000Y-125264391D01*
X115436000Y-125137391D01*
X115325321Y-124870187D01*
X115120813Y-124665679D01*
X114853609Y-124555000D01*
X114635900Y-124555000D01*
X114635900Y-124485000D01*
X114853609Y-124485000D01*
X115120813Y-124374321D01*
X115325321Y-124169813D01*
X115436000Y-123902609D01*
X115436000Y-123613391D01*
X118300000Y-123613391D01*
X118300000Y-123902609D01*
X118410679Y-124169813D01*
X118615187Y-124374321D01*
X118882391Y-124485000D01*
X119171609Y-124485000D01*
X119438813Y-124374321D01*
X119643321Y-124169813D01*
X119754000Y-123902609D01*
X119754000Y-123613391D01*
X119643321Y-123346187D01*
X119529525Y-123232391D01*
X161226002Y-123232391D01*
X161226002Y-123521609D01*
X161336681Y-123788813D01*
X161541189Y-123993321D01*
X161808393Y-124104000D01*
X162097611Y-124104000D01*
X162364815Y-123993321D01*
X162569323Y-123788813D01*
X162680002Y-123521609D01*
X162680002Y-123232391D01*
X162569323Y-122965187D01*
X162364815Y-122760679D01*
X162097611Y-122650000D01*
X161808393Y-122650000D01*
X161541189Y-122760679D01*
X161336681Y-122965187D01*
X161226002Y-123232391D01*
X119529525Y-123232391D01*
X119438813Y-123141679D01*
X119171609Y-123031000D01*
X118882391Y-123031000D01*
X118615187Y-123141679D01*
X118410679Y-123346187D01*
X118300000Y-123613391D01*
X115436000Y-123613391D01*
X115325321Y-123346187D01*
X115120813Y-123141679D01*
X114853609Y-123031000D01*
X114564391Y-123031000D01*
X114297187Y-123141679D01*
X114092679Y-123346187D01*
X113982000Y-123613391D01*
X113982000Y-123826020D01*
X113764291Y-123826020D01*
X113497087Y-123936699D01*
X113292579Y-124141207D01*
X113181900Y-124408411D01*
X107565636Y-124408411D01*
X107566653Y-124405956D01*
X107566653Y-124116738D01*
X107455974Y-123849534D01*
X107251466Y-123645026D01*
X106984262Y-123534347D01*
X106695044Y-123534347D01*
X106427840Y-123645026D01*
X106223332Y-123849534D01*
X106112653Y-124116738D01*
X88931305Y-124116738D01*
X89020000Y-123902609D01*
X89020000Y-123613391D01*
X88909321Y-123346187D01*
X88704813Y-123141679D01*
X88437609Y-123031000D01*
X88148391Y-123031000D01*
X87881187Y-123141679D01*
X87676679Y-123346187D01*
X87566000Y-123613391D01*
X85118000Y-123613391D01*
X85118000Y-120819391D01*
X101282000Y-120819391D01*
X101282000Y-121108609D01*
X101392679Y-121375813D01*
X101597187Y-121580321D01*
X101864391Y-121691000D01*
X102153609Y-121691000D01*
X102420813Y-121580321D01*
X102625321Y-121375813D01*
X102736000Y-121108609D01*
X102736000Y-121071544D01*
X108903847Y-121071544D01*
X108903847Y-121360762D01*
X109014526Y-121627966D01*
X109219034Y-121832474D01*
X109486238Y-121943153D01*
X109775456Y-121943153D01*
X110042660Y-121832474D01*
X110247168Y-121627966D01*
X110357847Y-121360762D01*
X110357847Y-121071544D01*
X110247168Y-120804340D01*
X110042660Y-120599832D01*
X109775456Y-120489153D01*
X109486238Y-120489153D01*
X109219034Y-120599832D01*
X109014526Y-120804340D01*
X108903847Y-121071544D01*
X102736000Y-121071544D01*
X102736000Y-120819391D01*
X102625321Y-120552187D01*
X102420813Y-120347679D01*
X102153609Y-120237000D01*
X101864391Y-120237000D01*
X101597187Y-120347679D01*
X101392679Y-120552187D01*
X101282000Y-120819391D01*
X85118000Y-120819391D01*
X85118000Y-118080384D01*
X174199000Y-118080384D01*
X174199000Y-118513616D01*
X174364790Y-118913869D01*
X174509921Y-119059000D01*
X174364790Y-119204131D01*
X174199000Y-119604384D01*
X174199000Y-120037616D01*
X174364790Y-120437869D01*
X174573421Y-120646500D01*
X174364790Y-120855131D01*
X174199000Y-121255384D01*
X174199000Y-121688616D01*
X174364790Y-122088869D01*
X174671131Y-122395210D01*
X175071384Y-122561000D01*
X175504616Y-122561000D01*
X175904869Y-122395210D01*
X176211210Y-122088869D01*
X176377000Y-121688616D01*
X176377000Y-121255384D01*
X176211210Y-120855131D01*
X176002579Y-120646500D01*
X176211210Y-120437869D01*
X176377000Y-120037616D01*
X176377000Y-119604384D01*
X176211210Y-119204131D01*
X176066079Y-119059000D01*
X176177000Y-118948079D01*
X176322131Y-119093210D01*
X176722384Y-119259000D01*
X177155616Y-119259000D01*
X177555869Y-119093210D01*
X177862210Y-118786869D01*
X178028000Y-118386616D01*
X178028000Y-118116000D01*
X178263000Y-118116000D01*
X178263000Y-118259616D01*
X178428790Y-118659869D01*
X178735131Y-118966210D01*
X179135384Y-119132000D01*
X179568616Y-119132000D01*
X179968869Y-118966210D01*
X180275210Y-118659869D01*
X180441000Y-118259616D01*
X180441000Y-117826384D01*
X180275210Y-117426131D01*
X179968869Y-117119790D01*
X179568616Y-116954000D01*
X179171000Y-116954000D01*
X179171000Y-116810384D01*
X179005210Y-116410131D01*
X178969470Y-116374391D01*
X183704992Y-116374391D01*
X183704992Y-116663609D01*
X183815671Y-116930813D01*
X184020179Y-117135321D01*
X184287383Y-117246000D01*
X184576601Y-117246000D01*
X184843805Y-117135321D01*
X185048313Y-116930813D01*
X185158992Y-116663609D01*
X185158992Y-116374391D01*
X185048313Y-116107187D01*
X184843805Y-115902679D01*
X184576601Y-115792000D01*
X184287383Y-115792000D01*
X184020179Y-115902679D01*
X183815671Y-116107187D01*
X183704992Y-116374391D01*
X178969470Y-116374391D01*
X178698869Y-116103790D01*
X178298616Y-115938000D01*
X177901000Y-115938000D01*
X177901000Y-115540384D01*
X177735210Y-115140131D01*
X177428869Y-114833790D01*
X177331854Y-114793605D01*
X177682869Y-114648210D01*
X177989210Y-114341869D01*
X178006368Y-114300447D01*
X178227131Y-114521210D01*
X178627384Y-114687000D01*
X179060616Y-114687000D01*
X179460869Y-114521210D01*
X179681632Y-114300447D01*
X179698790Y-114341869D01*
X180005131Y-114648210D01*
X180405384Y-114814000D01*
X180838616Y-114814000D01*
X180930000Y-114776148D01*
X180930000Y-114830616D01*
X181095790Y-115230869D01*
X181402131Y-115537210D01*
X181802384Y-115703000D01*
X182235616Y-115703000D01*
X182635869Y-115537210D01*
X182942210Y-115230869D01*
X183108000Y-114830616D01*
X183108000Y-114397384D01*
X182942210Y-113997131D01*
X182635869Y-113690790D01*
X182235616Y-113525000D01*
X181802384Y-113525000D01*
X181711000Y-113562852D01*
X181711000Y-113508384D01*
X181545210Y-113108131D01*
X181238869Y-112801790D01*
X180838616Y-112636000D01*
X180405384Y-112636000D01*
X180005131Y-112801790D01*
X179784368Y-113022553D01*
X179767210Y-112981131D01*
X179460869Y-112674790D01*
X179060616Y-112509000D01*
X178627384Y-112509000D01*
X178227131Y-112674790D01*
X177920790Y-112981131D01*
X177903632Y-113022553D01*
X177682869Y-112801790D01*
X177282616Y-112636000D01*
X176849384Y-112636000D01*
X176449131Y-112801790D01*
X176142790Y-113108131D01*
X176118749Y-113166172D01*
X175758616Y-113017000D01*
X175325384Y-113017000D01*
X174925131Y-113182790D01*
X174618790Y-113489131D01*
X174453000Y-113889384D01*
X174453000Y-114322616D01*
X174618790Y-114722869D01*
X174925131Y-115029210D01*
X175325384Y-115195000D01*
X175758616Y-115195000D01*
X175888315Y-115141277D01*
X175723000Y-115540384D01*
X175723000Y-115684000D01*
X175325384Y-115684000D01*
X174925131Y-115849790D01*
X174618790Y-116156131D01*
X174453000Y-116556384D01*
X174453000Y-116989616D01*
X174618790Y-117389869D01*
X174636921Y-117408000D01*
X174364790Y-117680131D01*
X174199000Y-118080384D01*
X85118000Y-118080384D01*
X85118000Y-116263388D01*
X93916000Y-116263388D01*
X93916000Y-116552606D01*
X94026679Y-116819810D01*
X94231187Y-117024318D01*
X94498391Y-117134997D01*
X94787609Y-117134997D01*
X95054813Y-117024318D01*
X95069740Y-117009391D01*
X106108000Y-117009391D01*
X106108000Y-117298609D01*
X106218679Y-117565813D01*
X106423187Y-117770321D01*
X106690391Y-117881000D01*
X106979609Y-117881000D01*
X107246813Y-117770321D01*
X107451321Y-117565813D01*
X107562000Y-117298609D01*
X107562000Y-117009391D01*
X107451321Y-116742187D01*
X107246813Y-116537679D01*
X106979609Y-116427000D01*
X106690391Y-116427000D01*
X106423187Y-116537679D01*
X106218679Y-116742187D01*
X106108000Y-117009391D01*
X95069740Y-117009391D01*
X95259321Y-116819810D01*
X95370000Y-116552606D01*
X95370000Y-116263388D01*
X95259321Y-115996184D01*
X95054813Y-115791676D01*
X94787609Y-115680997D01*
X94498391Y-115680997D01*
X94231187Y-115791676D01*
X94026679Y-115996184D01*
X93916000Y-116263388D01*
X85118000Y-116263388D01*
X85118000Y-115485391D01*
X101028000Y-115485391D01*
X101028000Y-115774609D01*
X101138679Y-116041813D01*
X101343187Y-116246321D01*
X101610391Y-116357000D01*
X101899609Y-116357000D01*
X102166813Y-116246321D01*
X102371321Y-116041813D01*
X102391377Y-115993391D01*
X109156000Y-115993391D01*
X109156000Y-116282609D01*
X109266679Y-116549813D01*
X109471187Y-116754321D01*
X109738391Y-116865000D01*
X110027609Y-116865000D01*
X110294813Y-116754321D01*
X110499321Y-116549813D01*
X110610000Y-116282609D01*
X110610000Y-116247391D01*
X124142000Y-116247391D01*
X124142000Y-116536609D01*
X124252679Y-116803813D01*
X124457187Y-117008321D01*
X124724391Y-117119000D01*
X125013609Y-117119000D01*
X125280813Y-117008321D01*
X125485321Y-116803813D01*
X125596000Y-116536609D01*
X125596000Y-116247391D01*
X160718000Y-116247391D01*
X160718000Y-116536609D01*
X160828679Y-116803813D01*
X161033187Y-117008321D01*
X161300391Y-117119000D01*
X161589609Y-117119000D01*
X161856813Y-117008321D01*
X162061321Y-116803813D01*
X162172000Y-116536609D01*
X162172000Y-116247391D01*
X162061321Y-115980187D01*
X161856813Y-115775679D01*
X161589609Y-115665000D01*
X161300391Y-115665000D01*
X161033187Y-115775679D01*
X160828679Y-115980187D01*
X160718000Y-116247391D01*
X125596000Y-116247391D01*
X125485321Y-115980187D01*
X125280813Y-115775679D01*
X125013609Y-115665000D01*
X124724391Y-115665000D01*
X124457187Y-115775679D01*
X124252679Y-115980187D01*
X124142000Y-116247391D01*
X110610000Y-116247391D01*
X110610000Y-115993391D01*
X110499321Y-115726187D01*
X110294813Y-115521679D01*
X110027609Y-115411000D01*
X109738391Y-115411000D01*
X109471187Y-115521679D01*
X109266679Y-115726187D01*
X109156000Y-115993391D01*
X102391377Y-115993391D01*
X102482000Y-115774609D01*
X102482000Y-115485391D01*
X102371321Y-115218187D01*
X102166813Y-115013679D01*
X101899609Y-114903000D01*
X101610391Y-114903000D01*
X101343187Y-115013679D01*
X101138679Y-115218187D01*
X101028000Y-115485391D01*
X85118000Y-115485391D01*
X85118000Y-113655391D01*
X140798000Y-113655391D01*
X140798000Y-113944609D01*
X140908679Y-114211813D01*
X141113187Y-114416321D01*
X141380391Y-114527000D01*
X141669609Y-114527000D01*
X141936813Y-114416321D01*
X142141321Y-114211813D01*
X142252000Y-113944609D01*
X142252000Y-113655391D01*
X142141321Y-113388187D01*
X141936813Y-113183679D01*
X141669609Y-113073000D01*
X141380391Y-113073000D01*
X141113187Y-113183679D01*
X140908679Y-113388187D01*
X140798000Y-113655391D01*
X85118000Y-113655391D01*
X85118000Y-111167391D01*
X131299829Y-111167391D01*
X131299829Y-111456609D01*
X131410508Y-111723813D01*
X131615016Y-111928321D01*
X131882220Y-112039000D01*
X132171438Y-112039000D01*
X132438642Y-111928321D01*
X132643150Y-111723813D01*
X132753829Y-111456609D01*
X132753829Y-111382391D01*
X135064000Y-111382391D01*
X135064000Y-111671609D01*
X135174679Y-111938813D01*
X135379187Y-112143321D01*
X135646391Y-112254000D01*
X135935609Y-112254000D01*
X136202813Y-112143321D01*
X136407321Y-111938813D01*
X136518000Y-111671609D01*
X136518000Y-111382391D01*
X136407321Y-111115187D01*
X136202813Y-110910679D01*
X135935609Y-110800000D01*
X135646391Y-110800000D01*
X135379187Y-110910679D01*
X135174679Y-111115187D01*
X135064000Y-111382391D01*
X132753829Y-111382391D01*
X132753829Y-111167391D01*
X132643150Y-110900187D01*
X132438642Y-110695679D01*
X132171438Y-110585000D01*
X131882220Y-110585000D01*
X131615016Y-110695679D01*
X131410508Y-110900187D01*
X131299829Y-111167391D01*
X85118000Y-111167391D01*
X85118000Y-109643391D01*
X132524000Y-109643391D01*
X132524000Y-109932609D01*
X132634679Y-110199813D01*
X132839187Y-110404321D01*
X133106391Y-110515000D01*
X133395609Y-110515000D01*
X133662813Y-110404321D01*
X133867321Y-110199813D01*
X133902669Y-110114476D01*
X134065514Y-110277321D01*
X134332718Y-110388000D01*
X134621936Y-110388000D01*
X134786643Y-110319777D01*
X134871187Y-110404321D01*
X135138391Y-110515000D01*
X135427609Y-110515000D01*
X135694813Y-110404321D01*
X135899321Y-110199813D01*
X135928076Y-110130391D01*
X136155329Y-110130391D01*
X136155329Y-110419609D01*
X136266008Y-110686813D01*
X136470516Y-110891321D01*
X136737720Y-111002000D01*
X137026938Y-111002000D01*
X137294142Y-110891321D01*
X137498650Y-110686813D01*
X137510008Y-110659391D01*
X140906000Y-110659391D01*
X140906000Y-110948609D01*
X141016679Y-111215813D01*
X141221187Y-111420321D01*
X141488391Y-111531000D01*
X141777609Y-111531000D01*
X142044813Y-111420321D01*
X142249321Y-111215813D01*
X142360000Y-110948609D01*
X142360000Y-110659391D01*
X142249321Y-110392187D01*
X142044813Y-110187679D01*
X141957206Y-110151391D01*
X157924000Y-110151391D01*
X157924000Y-110440609D01*
X158034679Y-110707813D01*
X158239187Y-110912321D01*
X158506391Y-111023000D01*
X158795609Y-111023000D01*
X159062813Y-110912321D01*
X159267321Y-110707813D01*
X159378000Y-110440609D01*
X159378000Y-110151391D01*
X159267321Y-109884187D01*
X159062813Y-109679679D01*
X158795609Y-109569000D01*
X158506391Y-109569000D01*
X158239187Y-109679679D01*
X158034679Y-109884187D01*
X157924000Y-110151391D01*
X141957206Y-110151391D01*
X141777609Y-110077000D01*
X141488391Y-110077000D01*
X141221187Y-110187679D01*
X141016679Y-110392187D01*
X140906000Y-110659391D01*
X137510008Y-110659391D01*
X137609329Y-110419609D01*
X137609329Y-110130391D01*
X137498650Y-109863187D01*
X137294142Y-109658679D01*
X137026938Y-109548000D01*
X136737720Y-109548000D01*
X136470516Y-109658679D01*
X136266008Y-109863187D01*
X136155329Y-110130391D01*
X135928076Y-110130391D01*
X136010000Y-109932609D01*
X136010000Y-109643391D01*
X135899321Y-109376187D01*
X135694813Y-109171679D01*
X135427609Y-109061000D01*
X135138391Y-109061000D01*
X134973684Y-109129223D01*
X134889140Y-109044679D01*
X134621936Y-108934000D01*
X134332718Y-108934000D01*
X134202445Y-108987960D01*
X134232000Y-108916609D01*
X134232000Y-108627391D01*
X134121321Y-108360187D01*
X133916813Y-108155679D01*
X133649609Y-108045000D01*
X133360391Y-108045000D01*
X133093187Y-108155679D01*
X132888679Y-108360187D01*
X132778000Y-108627391D01*
X132778000Y-108916609D01*
X132877141Y-109155958D01*
X132839187Y-109171679D01*
X132634679Y-109376187D01*
X132524000Y-109643391D01*
X85118000Y-109643391D01*
X85118000Y-107116042D01*
X98745346Y-107116042D01*
X98745346Y-107405260D01*
X98856025Y-107672464D01*
X99060533Y-107876972D01*
X99327737Y-107987651D01*
X99616955Y-107987651D01*
X99884159Y-107876972D01*
X99984999Y-107776133D01*
X100073187Y-107864321D01*
X100340391Y-107975000D01*
X100629609Y-107975000D01*
X100896813Y-107864321D01*
X101101321Y-107659813D01*
X101212000Y-107392609D01*
X101212000Y-107103391D01*
X101101321Y-106836187D01*
X100896813Y-106631679D01*
X100629609Y-106521000D01*
X100340391Y-106521000D01*
X100073187Y-106631679D01*
X99972348Y-106732519D01*
X99884159Y-106644330D01*
X99616955Y-106533651D01*
X99327737Y-106533651D01*
X99060533Y-106644330D01*
X98856025Y-106848838D01*
X98745346Y-107116042D01*
X85118000Y-107116042D01*
X85118000Y-106315391D01*
X108902000Y-106315391D01*
X108902000Y-106604609D01*
X109012679Y-106871813D01*
X109217187Y-107076321D01*
X109484391Y-107187000D01*
X109773609Y-107187000D01*
X110040813Y-107076321D01*
X110245321Y-106871813D01*
X110356000Y-106604609D01*
X110356000Y-106315391D01*
X110245321Y-106048187D01*
X110040813Y-105843679D01*
X109773609Y-105733000D01*
X109484391Y-105733000D01*
X109217187Y-105843679D01*
X109012679Y-106048187D01*
X108902000Y-106315391D01*
X85118000Y-106315391D01*
X85118000Y-105071391D01*
X101282000Y-105071391D01*
X101282000Y-105360609D01*
X101392679Y-105627813D01*
X101597187Y-105832321D01*
X101864391Y-105943000D01*
X102153609Y-105943000D01*
X102420813Y-105832321D01*
X102625321Y-105627813D01*
X102736000Y-105360609D01*
X102736000Y-105325391D01*
X112204000Y-105325391D01*
X112204000Y-105614609D01*
X112314679Y-105881813D01*
X112519187Y-106086321D01*
X112773944Y-106191844D01*
X112712000Y-106341391D01*
X112712000Y-106630609D01*
X112822679Y-106897813D01*
X113027187Y-107102321D01*
X113294391Y-107213000D01*
X113583609Y-107213000D01*
X113850813Y-107102321D01*
X114055321Y-106897813D01*
X114166000Y-106630609D01*
X114166000Y-106341391D01*
X127190000Y-106341391D01*
X127190000Y-106630609D01*
X127300679Y-106897813D01*
X127505187Y-107102321D01*
X127551980Y-107121703D01*
X127444000Y-107382391D01*
X127444000Y-107671609D01*
X127554679Y-107938813D01*
X127759187Y-108143321D01*
X128026391Y-108254000D01*
X128315609Y-108254000D01*
X128582813Y-108143321D01*
X128787321Y-107938813D01*
X128898000Y-107671609D01*
X128898000Y-107611391D01*
X136155329Y-107611391D01*
X136155329Y-107900609D01*
X136266008Y-108167813D01*
X136470516Y-108372321D01*
X136737720Y-108483000D01*
X137026938Y-108483000D01*
X137294142Y-108372321D01*
X137498650Y-108167813D01*
X137609329Y-107900609D01*
X137609329Y-107611391D01*
X137498650Y-107344187D01*
X137294854Y-107140391D01*
X141245569Y-107140391D01*
X141245569Y-107429609D01*
X141356248Y-107696813D01*
X141560756Y-107901321D01*
X141827960Y-108012000D01*
X142117178Y-108012000D01*
X142384382Y-107901321D01*
X142420312Y-107865391D01*
X162422918Y-107865391D01*
X162422918Y-108154609D01*
X162533597Y-108421813D01*
X162738105Y-108626321D01*
X163005309Y-108737000D01*
X163294527Y-108737000D01*
X163561731Y-108626321D01*
X163766239Y-108421813D01*
X163876918Y-108154609D01*
X163876918Y-107865391D01*
X163766239Y-107598187D01*
X163561731Y-107393679D01*
X163294527Y-107283000D01*
X163005309Y-107283000D01*
X162738105Y-107393679D01*
X162533597Y-107598187D01*
X162422918Y-107865391D01*
X142420312Y-107865391D01*
X142588890Y-107696813D01*
X142699569Y-107429609D01*
X142699569Y-107140391D01*
X142588890Y-106873187D01*
X142384382Y-106668679D01*
X142117178Y-106558000D01*
X141827960Y-106558000D01*
X141560756Y-106668679D01*
X141356248Y-106873187D01*
X141245569Y-107140391D01*
X137294854Y-107140391D01*
X137294142Y-107139679D01*
X137026938Y-107029000D01*
X136737720Y-107029000D01*
X136470516Y-107139679D01*
X136266008Y-107344187D01*
X136155329Y-107611391D01*
X128898000Y-107611391D01*
X128898000Y-107382391D01*
X128787321Y-107115187D01*
X128582813Y-106910679D01*
X128536020Y-106891297D01*
X128644000Y-106630609D01*
X128644000Y-106341391D01*
X128533321Y-106074187D01*
X128328813Y-105869679D01*
X128061609Y-105759000D01*
X127772391Y-105759000D01*
X127505187Y-105869679D01*
X127300679Y-106074187D01*
X127190000Y-106341391D01*
X114166000Y-106341391D01*
X114055321Y-106074187D01*
X113850813Y-105869679D01*
X113596056Y-105764156D01*
X113658000Y-105614609D01*
X113658000Y-105579391D01*
X128714000Y-105579391D01*
X128714000Y-105868609D01*
X128824679Y-106135813D01*
X129029187Y-106340321D01*
X129296391Y-106451000D01*
X129585609Y-106451000D01*
X129852813Y-106340321D01*
X130057321Y-106135813D01*
X130168000Y-105868609D01*
X130168000Y-105833391D01*
X136155329Y-105833391D01*
X136155329Y-106122609D01*
X136266008Y-106389813D01*
X136470516Y-106594321D01*
X136737720Y-106705000D01*
X137026938Y-106705000D01*
X137294142Y-106594321D01*
X137498650Y-106389813D01*
X137609329Y-106122609D01*
X137609329Y-105833391D01*
X137498650Y-105566187D01*
X137294142Y-105361679D01*
X137026938Y-105251000D01*
X136737720Y-105251000D01*
X136470516Y-105361679D01*
X136266008Y-105566187D01*
X136155329Y-105833391D01*
X130168000Y-105833391D01*
X130168000Y-105579391D01*
X130057321Y-105312187D01*
X129852813Y-105107679D01*
X129585609Y-104997000D01*
X129296391Y-104997000D01*
X129029187Y-105107679D01*
X128824679Y-105312187D01*
X128714000Y-105579391D01*
X113658000Y-105579391D01*
X113658000Y-105325391D01*
X113547321Y-105058187D01*
X113342813Y-104853679D01*
X113075609Y-104743000D01*
X112786391Y-104743000D01*
X112519187Y-104853679D01*
X112314679Y-105058187D01*
X112204000Y-105325391D01*
X102736000Y-105325391D01*
X102736000Y-105071391D01*
X102625321Y-104804187D01*
X102420813Y-104599679D01*
X102153609Y-104489000D01*
X101864391Y-104489000D01*
X101597187Y-104599679D01*
X101392679Y-104804187D01*
X101282000Y-105071391D01*
X85118000Y-105071391D01*
X85118000Y-103801391D01*
X122872000Y-103801391D01*
X122872000Y-104090609D01*
X122982679Y-104357813D01*
X123187187Y-104562321D01*
X123454391Y-104673000D01*
X123743609Y-104673000D01*
X124008229Y-104563391D01*
X139890000Y-104563391D01*
X139890000Y-104852609D01*
X140000679Y-105119813D01*
X140205187Y-105324321D01*
X140472391Y-105435000D01*
X140761609Y-105435000D01*
X141028813Y-105324321D01*
X141233321Y-105119813D01*
X141344000Y-104852609D01*
X141344000Y-104618384D01*
X175215000Y-104618384D01*
X175215000Y-105051616D01*
X175380790Y-105451869D01*
X175687131Y-105758210D01*
X176087384Y-105924000D01*
X176520616Y-105924000D01*
X176920869Y-105758210D01*
X177066000Y-105613079D01*
X177338131Y-105885210D01*
X177738384Y-106051000D01*
X178171616Y-106051000D01*
X178571869Y-105885210D01*
X178780500Y-105676579D01*
X178989131Y-105885210D01*
X179389384Y-106051000D01*
X179822616Y-106051000D01*
X180222869Y-105885210D01*
X180431500Y-105676579D01*
X180640131Y-105885210D01*
X181040384Y-106051000D01*
X181473616Y-106051000D01*
X181873869Y-105885210D01*
X182146000Y-105613079D01*
X182383921Y-105851000D01*
X182111790Y-106123131D01*
X181946000Y-106523384D01*
X181946000Y-106956616D01*
X182111790Y-107356869D01*
X182383921Y-107629000D01*
X182111790Y-107901131D01*
X181946000Y-108301384D01*
X181946000Y-108734616D01*
X182111790Y-109134869D01*
X182320421Y-109343500D01*
X182111790Y-109552131D01*
X181946000Y-109952384D01*
X181946000Y-110385616D01*
X182111790Y-110785869D01*
X182418131Y-111092210D01*
X182818384Y-111258000D01*
X183251616Y-111258000D01*
X183651869Y-111092210D01*
X183958210Y-110785869D01*
X184124000Y-110385616D01*
X184124000Y-109952384D01*
X183958210Y-109552131D01*
X183749579Y-109343500D01*
X183958210Y-109134869D01*
X184124000Y-108734616D01*
X184124000Y-108301384D01*
X183958210Y-107901131D01*
X183686079Y-107629000D01*
X183958210Y-107356869D01*
X184124000Y-106956616D01*
X184124000Y-106523384D01*
X183958210Y-106123131D01*
X183686079Y-105851000D01*
X183958210Y-105578869D01*
X184124000Y-105178616D01*
X184124000Y-104745384D01*
X183958210Y-104345131D01*
X183651869Y-104038790D01*
X183485427Y-103969848D01*
X183616000Y-103654616D01*
X183616000Y-103221384D01*
X183450210Y-102821131D01*
X183143869Y-102514790D01*
X182743616Y-102349000D01*
X182310384Y-102349000D01*
X181910131Y-102514790D01*
X181701500Y-102723421D01*
X181492869Y-102514790D01*
X181092616Y-102349000D01*
X180659384Y-102349000D01*
X180259131Y-102514790D01*
X180050500Y-102723421D01*
X179841869Y-102514790D01*
X179441616Y-102349000D01*
X179008384Y-102349000D01*
X178608131Y-102514790D01*
X178399500Y-102723421D01*
X178190869Y-102514790D01*
X177790616Y-102349000D01*
X177357384Y-102349000D01*
X176957131Y-102514790D01*
X176650790Y-102821131D01*
X176485000Y-103221384D01*
X176485000Y-103654616D01*
X176523316Y-103747118D01*
X176520616Y-103746000D01*
X176087384Y-103746000D01*
X175687131Y-103911790D01*
X175380790Y-104218131D01*
X175215000Y-104618384D01*
X141344000Y-104618384D01*
X141344000Y-104563391D01*
X141233321Y-104296187D01*
X141028813Y-104091679D01*
X140761609Y-103981000D01*
X140472391Y-103981000D01*
X140205187Y-104091679D01*
X140000679Y-104296187D01*
X139890000Y-104563391D01*
X124008229Y-104563391D01*
X124010813Y-104562321D01*
X124215321Y-104357813D01*
X124326000Y-104090609D01*
X124326000Y-103801391D01*
X124215321Y-103534187D01*
X124010813Y-103329679D01*
X123743609Y-103219000D01*
X123454391Y-103219000D01*
X123187187Y-103329679D01*
X122982679Y-103534187D01*
X122872000Y-103801391D01*
X85118000Y-103801391D01*
X85118000Y-101832891D01*
X144716000Y-101832891D01*
X144716000Y-102122109D01*
X144826679Y-102389313D01*
X145031187Y-102593821D01*
X145298391Y-102704500D01*
X145587609Y-102704500D01*
X145854813Y-102593821D01*
X145958244Y-102490390D01*
X147764000Y-102490390D01*
X147764000Y-102779608D01*
X147874679Y-103046812D01*
X148079187Y-103251320D01*
X148346391Y-103361999D01*
X148635609Y-103361999D01*
X148902813Y-103251320D01*
X149107321Y-103046812D01*
X149218000Y-102779608D01*
X149218000Y-102490390D01*
X149107321Y-102223186D01*
X148902813Y-102018678D01*
X148635609Y-101907999D01*
X148346391Y-101907999D01*
X148079187Y-102018678D01*
X147874679Y-102223186D01*
X147764000Y-102490390D01*
X145958244Y-102490390D01*
X146059321Y-102389313D01*
X146170000Y-102122109D01*
X146170000Y-101832891D01*
X146143698Y-101769391D01*
X158686000Y-101769391D01*
X158686000Y-102058609D01*
X158796679Y-102325813D01*
X159001187Y-102530321D01*
X159268391Y-102641000D01*
X159557609Y-102641000D01*
X159824813Y-102530321D01*
X160029321Y-102325813D01*
X160140000Y-102058609D01*
X160140000Y-101769391D01*
X160029321Y-101502187D01*
X159824813Y-101297679D01*
X159557609Y-101187000D01*
X159268391Y-101187000D01*
X159001187Y-101297679D01*
X158796679Y-101502187D01*
X158686000Y-101769391D01*
X146143698Y-101769391D01*
X146059321Y-101565687D01*
X145854813Y-101361179D01*
X145587609Y-101250500D01*
X145298391Y-101250500D01*
X145031187Y-101361179D01*
X144826679Y-101565687D01*
X144716000Y-101832891D01*
X85118000Y-101832891D01*
X85118000Y-98662160D01*
X98433779Y-98662160D01*
X98433779Y-98951378D01*
X98544458Y-99218582D01*
X98748966Y-99423090D01*
X99016170Y-99533769D01*
X99305388Y-99533769D01*
X99572592Y-99423090D01*
X99777100Y-99218582D01*
X99887779Y-98951378D01*
X99887779Y-98662160D01*
X99777100Y-98394956D01*
X99572592Y-98190448D01*
X99305388Y-98079769D01*
X99016170Y-98079769D01*
X98748966Y-98190448D01*
X98544458Y-98394956D01*
X98433779Y-98662160D01*
X85118000Y-98662160D01*
X85118000Y-97451407D01*
X139636000Y-97451407D01*
X139636000Y-97740625D01*
X139746679Y-98007829D01*
X139951187Y-98212337D01*
X140218391Y-98323016D01*
X140507609Y-98323016D01*
X140774813Y-98212337D01*
X140979321Y-98007829D01*
X141090000Y-97740625D01*
X141090000Y-97451407D01*
X140979321Y-97184203D01*
X140774813Y-96979695D01*
X140507609Y-96869016D01*
X140218391Y-96869016D01*
X139951187Y-96979695D01*
X139746679Y-97184203D01*
X139636000Y-97451407D01*
X85118000Y-97451407D01*
X85118000Y-96435391D01*
X128714000Y-96435391D01*
X128714000Y-96724609D01*
X128824679Y-96991813D01*
X129029187Y-97196321D01*
X129296391Y-97307000D01*
X129585609Y-97307000D01*
X129852813Y-97196321D01*
X130057321Y-96991813D01*
X130168000Y-96724609D01*
X130168000Y-96435391D01*
X146240000Y-96435391D01*
X146240000Y-96724609D01*
X146350679Y-96991813D01*
X146555187Y-97196321D01*
X146822391Y-97307000D01*
X147111609Y-97307000D01*
X147378813Y-97196321D01*
X147583321Y-96991813D01*
X147694000Y-96724609D01*
X147694000Y-96435391D01*
X147588791Y-96181391D01*
X156654000Y-96181391D01*
X156654000Y-96470609D01*
X156764679Y-96737813D01*
X156969187Y-96942321D01*
X157236391Y-97053000D01*
X157525609Y-97053000D01*
X157792813Y-96942321D01*
X157997321Y-96737813D01*
X158108000Y-96470609D01*
X158108000Y-96236384D01*
X173945000Y-96236384D01*
X173945000Y-96669616D01*
X174110790Y-97069869D01*
X174255921Y-97215000D01*
X174110790Y-97360131D01*
X173945000Y-97760384D01*
X173945000Y-98193616D01*
X174110790Y-98593869D01*
X174417131Y-98900210D01*
X174817384Y-99066000D01*
X175250616Y-99066000D01*
X175316816Y-99038579D01*
X175215000Y-99284384D01*
X175215000Y-99428000D01*
X174817384Y-99428000D01*
X174417131Y-99593790D01*
X174110790Y-99900131D01*
X173945000Y-100300384D01*
X173945000Y-100733616D01*
X174110790Y-101133869D01*
X174417131Y-101440210D01*
X174817384Y-101606000D01*
X175250616Y-101606000D01*
X175650869Y-101440210D01*
X175829688Y-101261391D01*
X176720000Y-101261391D01*
X176720000Y-101550609D01*
X176830679Y-101817813D01*
X177035187Y-102022321D01*
X177302391Y-102133000D01*
X177591609Y-102133000D01*
X177858813Y-102022321D01*
X178063321Y-101817813D01*
X178174000Y-101550609D01*
X178174000Y-101261391D01*
X178063321Y-100994187D01*
X177858813Y-100789679D01*
X177591609Y-100679000D01*
X177302391Y-100679000D01*
X177035187Y-100789679D01*
X176830679Y-100994187D01*
X176720000Y-101261391D01*
X175829688Y-101261391D01*
X175957210Y-101133869D01*
X176123000Y-100733616D01*
X176123000Y-100590000D01*
X176520616Y-100590000D01*
X176920869Y-100424210D01*
X177227210Y-100117869D01*
X177393000Y-99717616D01*
X177393000Y-99284384D01*
X177227210Y-98884131D01*
X177133447Y-98790368D01*
X177174869Y-98773210D01*
X177481210Y-98466869D01*
X177647000Y-98066616D01*
X177647000Y-97906937D01*
X177992384Y-98050000D01*
X178425616Y-98050000D01*
X178825869Y-97884210D01*
X179132210Y-97577869D01*
X179161820Y-97506384D01*
X182327000Y-97506384D01*
X182327000Y-97939616D01*
X182492790Y-98339869D01*
X182701421Y-98548500D01*
X182492790Y-98757131D01*
X182327000Y-99157384D01*
X182327000Y-99590616D01*
X182492790Y-99990869D01*
X182799131Y-100297210D01*
X183199384Y-100463000D01*
X183632616Y-100463000D01*
X184032869Y-100297210D01*
X184339210Y-99990869D01*
X184505000Y-99590616D01*
X184505000Y-99157384D01*
X184339210Y-98757131D01*
X184130579Y-98548500D01*
X184339210Y-98339869D01*
X184505000Y-97939616D01*
X184505000Y-97506384D01*
X184339210Y-97106131D01*
X184032869Y-96799790D01*
X183632616Y-96634000D01*
X183199384Y-96634000D01*
X182799131Y-96799790D01*
X182492790Y-97106131D01*
X182327000Y-97506384D01*
X179161820Y-97506384D01*
X179298000Y-97177616D01*
X179298000Y-96744384D01*
X179132210Y-96344131D01*
X178825869Y-96037790D01*
X178425616Y-95872000D01*
X177992384Y-95872000D01*
X177722054Y-95983974D01*
X177608210Y-95709131D01*
X177590079Y-95691000D01*
X177734688Y-95546391D01*
X184467000Y-95546391D01*
X184467000Y-95835609D01*
X184577679Y-96102813D01*
X184782187Y-96307321D01*
X185049391Y-96418000D01*
X185338609Y-96418000D01*
X185605813Y-96307321D01*
X185810321Y-96102813D01*
X185921000Y-95835609D01*
X185921000Y-95546391D01*
X185810321Y-95279187D01*
X185605813Y-95074679D01*
X185338609Y-94964000D01*
X185049391Y-94964000D01*
X184782187Y-95074679D01*
X184577679Y-95279187D01*
X184467000Y-95546391D01*
X177734688Y-95546391D01*
X177862210Y-95418869D01*
X178028000Y-95018616D01*
X178028000Y-94585384D01*
X177862210Y-94185131D01*
X177653579Y-93976500D01*
X177862210Y-93767869D01*
X178028000Y-93367616D01*
X178028000Y-93315384D01*
X182581000Y-93315384D01*
X182581000Y-93748616D01*
X182746790Y-94148869D01*
X183053131Y-94455210D01*
X183453384Y-94621000D01*
X183886616Y-94621000D01*
X184286869Y-94455210D01*
X184593210Y-94148869D01*
X184759000Y-93748616D01*
X184759000Y-93315384D01*
X184593210Y-92915131D01*
X184286869Y-92608790D01*
X183886616Y-92443000D01*
X183453384Y-92443000D01*
X183053131Y-92608790D01*
X182746790Y-92915131D01*
X182581000Y-93315384D01*
X178028000Y-93315384D01*
X178028000Y-92934384D01*
X177862210Y-92534131D01*
X177555869Y-92227790D01*
X177155616Y-92062000D01*
X176722384Y-92062000D01*
X176322131Y-92227790D01*
X176113500Y-92436421D01*
X175904869Y-92227790D01*
X175504616Y-92062000D01*
X175071384Y-92062000D01*
X174671131Y-92227790D01*
X174364790Y-92534131D01*
X174199000Y-92934384D01*
X174199000Y-93367616D01*
X174364790Y-93767869D01*
X174573421Y-93976500D01*
X174364790Y-94185131D01*
X174199000Y-94585384D01*
X174199000Y-95018616D01*
X174364790Y-95418869D01*
X174458553Y-95512632D01*
X174417131Y-95529790D01*
X174110790Y-95836131D01*
X173945000Y-96236384D01*
X158108000Y-96236384D01*
X158108000Y-96181391D01*
X157997321Y-95914187D01*
X157792813Y-95709679D01*
X157525609Y-95599000D01*
X157236391Y-95599000D01*
X156969187Y-95709679D01*
X156764679Y-95914187D01*
X156654000Y-96181391D01*
X147588791Y-96181391D01*
X147583321Y-96168187D01*
X147378813Y-95963679D01*
X147111609Y-95853000D01*
X146822391Y-95853000D01*
X146555187Y-95963679D01*
X146350679Y-96168187D01*
X146240000Y-96435391D01*
X130168000Y-96435391D01*
X130057321Y-96168187D01*
X129852813Y-95963679D01*
X129585609Y-95853000D01*
X129296391Y-95853000D01*
X129029187Y-95963679D01*
X128824679Y-96168187D01*
X128714000Y-96435391D01*
X85118000Y-96435391D01*
X85118000Y-95419391D01*
X94170000Y-95419391D01*
X94170000Y-95708609D01*
X94280679Y-95975813D01*
X94485187Y-96180321D01*
X94752391Y-96291000D01*
X95041609Y-96291000D01*
X95308813Y-96180321D01*
X95513321Y-95975813D01*
X95624000Y-95708609D01*
X95624000Y-95419391D01*
X95513321Y-95152187D01*
X95308813Y-94947679D01*
X95041609Y-94837000D01*
X94752391Y-94837000D01*
X94485187Y-94947679D01*
X94280679Y-95152187D01*
X94170000Y-95419391D01*
X85118000Y-95419391D01*
X85118000Y-94261043D01*
X98345652Y-94261043D01*
X98345652Y-94550261D01*
X98456331Y-94817465D01*
X98660839Y-95021973D01*
X98928043Y-95132652D01*
X99217261Y-95132652D01*
X99484465Y-95021973D01*
X99688973Y-94817465D01*
X99799652Y-94550261D01*
X99799652Y-94261043D01*
X99688973Y-93993839D01*
X99484465Y-93789331D01*
X99217261Y-93678652D01*
X98928043Y-93678652D01*
X98660839Y-93789331D01*
X98456331Y-93993839D01*
X98345652Y-94261043D01*
X85118000Y-94261043D01*
X85118000Y-93096391D01*
X137096000Y-93096391D01*
X137096000Y-93385609D01*
X137206679Y-93652813D01*
X137411187Y-93857321D01*
X137678391Y-93968000D01*
X137967609Y-93968000D01*
X138234813Y-93857321D01*
X138439321Y-93652813D01*
X138550000Y-93385609D01*
X138550000Y-93096391D01*
X138439321Y-92829187D01*
X138234813Y-92624679D01*
X137967609Y-92514000D01*
X137678391Y-92514000D01*
X137411187Y-92624679D01*
X137206679Y-92829187D01*
X137096000Y-93096391D01*
X85118000Y-93096391D01*
X85118000Y-92117391D01*
X93408000Y-92117391D01*
X93408000Y-92406609D01*
X93518679Y-92673813D01*
X93723187Y-92878321D01*
X93990391Y-92989000D01*
X94279609Y-92989000D01*
X94546813Y-92878321D01*
X94751321Y-92673813D01*
X94862000Y-92406609D01*
X94862000Y-92117391D01*
X94751321Y-91850187D01*
X94546813Y-91645679D01*
X94279609Y-91535000D01*
X93990391Y-91535000D01*
X93723187Y-91645679D01*
X93518679Y-91850187D01*
X93408000Y-92117391D01*
X85118000Y-92117391D01*
X85118000Y-91101391D01*
X131000000Y-91101391D01*
X131000000Y-91390609D01*
X131110679Y-91657813D01*
X131315187Y-91862321D01*
X131582391Y-91973000D01*
X131871609Y-91973000D01*
X132138813Y-91862321D01*
X132343321Y-91657813D01*
X132454000Y-91390609D01*
X132454000Y-91101391D01*
X132343321Y-90834187D01*
X132138813Y-90629679D01*
X131871609Y-90519000D01*
X131582391Y-90519000D01*
X131315187Y-90629679D01*
X131110679Y-90834187D01*
X131000000Y-91101391D01*
X85118000Y-91101391D01*
X85118000Y-90085391D01*
X94932000Y-90085391D01*
X94932000Y-90374609D01*
X95042679Y-90641813D01*
X95247187Y-90846321D01*
X95514391Y-90957000D01*
X95803609Y-90957000D01*
X96070813Y-90846321D01*
X96275321Y-90641813D01*
X96386000Y-90374609D01*
X96386000Y-90099822D01*
X135539429Y-90099822D01*
X135539429Y-90389040D01*
X135650108Y-90656244D01*
X135854616Y-90860752D01*
X136121820Y-90971431D01*
X136411038Y-90971431D01*
X136678242Y-90860752D01*
X136882750Y-90656244D01*
X136993429Y-90389040D01*
X136993429Y-90099822D01*
X136882750Y-89832618D01*
X136678242Y-89628110D01*
X136411038Y-89517431D01*
X136121820Y-89517431D01*
X135854616Y-89628110D01*
X135650108Y-89832618D01*
X135539429Y-90099822D01*
X96386000Y-90099822D01*
X96386000Y-90085391D01*
X96275321Y-89818187D01*
X96070813Y-89613679D01*
X95803609Y-89503000D01*
X95514391Y-89503000D01*
X95247187Y-89613679D01*
X95042679Y-89818187D01*
X94932000Y-90085391D01*
X85118000Y-90085391D01*
X85118000Y-87545391D01*
X108648000Y-87545391D01*
X108648000Y-87834609D01*
X108758679Y-88101813D01*
X108963187Y-88306321D01*
X109230391Y-88417000D01*
X109519609Y-88417000D01*
X109786813Y-88306321D01*
X109991321Y-88101813D01*
X110102000Y-87834609D01*
X110102000Y-87799391D01*
X112966000Y-87799391D01*
X112966000Y-88088609D01*
X113076679Y-88355813D01*
X113281187Y-88560321D01*
X113548391Y-88671000D01*
X113837609Y-88671000D01*
X114104813Y-88560321D01*
X114309321Y-88355813D01*
X114420000Y-88088609D01*
X114420000Y-87799391D01*
X114309321Y-87532187D01*
X114104813Y-87327679D01*
X114017206Y-87291391D01*
X122872000Y-87291391D01*
X122872000Y-87580609D01*
X122982679Y-87847813D01*
X123187187Y-88052321D01*
X123454391Y-88163000D01*
X123743609Y-88163000D01*
X124010813Y-88052321D01*
X124215321Y-87847813D01*
X124326000Y-87580609D01*
X124326000Y-87450400D01*
X161226000Y-87450400D01*
X161226000Y-87739618D01*
X161336679Y-88006822D01*
X161541187Y-88211330D01*
X161808391Y-88322009D01*
X162097609Y-88322009D01*
X162364813Y-88211330D01*
X162569321Y-88006822D01*
X162680000Y-87739618D01*
X162680000Y-87450400D01*
X162569321Y-87183196D01*
X162364813Y-86978688D01*
X162097609Y-86868009D01*
X161808391Y-86868009D01*
X161541187Y-86978688D01*
X161336679Y-87183196D01*
X161226000Y-87450400D01*
X124326000Y-87450400D01*
X124326000Y-87291391D01*
X124215321Y-87024187D01*
X124010813Y-86819679D01*
X123743609Y-86709000D01*
X123454391Y-86709000D01*
X123187187Y-86819679D01*
X122982679Y-87024187D01*
X122872000Y-87291391D01*
X114017206Y-87291391D01*
X113837609Y-87217000D01*
X113548391Y-87217000D01*
X113281187Y-87327679D01*
X113076679Y-87532187D01*
X112966000Y-87799391D01*
X110102000Y-87799391D01*
X110102000Y-87545391D01*
X109991321Y-87278187D01*
X109786813Y-87073679D01*
X109519609Y-86963000D01*
X109230391Y-86963000D01*
X108963187Y-87073679D01*
X108758679Y-87278187D01*
X108648000Y-87545391D01*
X85118000Y-87545391D01*
X85118000Y-86275391D01*
X105092000Y-86275391D01*
X105092000Y-86564609D01*
X105202679Y-86831813D01*
X105407187Y-87036321D01*
X105674391Y-87147000D01*
X105963609Y-87147000D01*
X106230813Y-87036321D01*
X106435321Y-86831813D01*
X106546000Y-86564609D01*
X106546000Y-86275391D01*
X106435321Y-86008187D01*
X106230813Y-85803679D01*
X105963609Y-85693000D01*
X105674391Y-85693000D01*
X105407187Y-85803679D01*
X105202679Y-86008187D01*
X105092000Y-86275391D01*
X85118000Y-86275391D01*
X85118000Y-84751391D01*
X128206000Y-84751391D01*
X128206000Y-85040609D01*
X128316679Y-85307813D01*
X128521187Y-85512321D01*
X128788391Y-85623000D01*
X129077609Y-85623000D01*
X129344813Y-85512321D01*
X129549321Y-85307813D01*
X129569377Y-85259391D01*
X130746000Y-85259391D01*
X130746000Y-85548609D01*
X130856679Y-85815813D01*
X131061187Y-86020321D01*
X131328391Y-86131000D01*
X131617609Y-86131000D01*
X131884813Y-86020321D01*
X132089321Y-85815813D01*
X132200000Y-85548609D01*
X132200000Y-85259391D01*
X132089321Y-84992187D01*
X131884813Y-84787679D01*
X131617609Y-84677000D01*
X131328391Y-84677000D01*
X131061187Y-84787679D01*
X130856679Y-84992187D01*
X130746000Y-85259391D01*
X129569377Y-85259391D01*
X129660000Y-85040609D01*
X129660000Y-84751391D01*
X129554791Y-84497391D01*
X139128000Y-84497391D01*
X139128000Y-84786609D01*
X139238679Y-85053813D01*
X139443187Y-85258321D01*
X139710391Y-85369000D01*
X139999609Y-85369000D01*
X140266813Y-85258321D01*
X140471321Y-85053813D01*
X140582000Y-84786609D01*
X140582000Y-84497391D01*
X140471321Y-84230187D01*
X140285518Y-84044384D01*
X174453000Y-84044384D01*
X174453000Y-84477616D01*
X174618790Y-84877869D01*
X174827421Y-85086500D01*
X174618790Y-85295131D01*
X174453000Y-85695384D01*
X174453000Y-86128616D01*
X174618790Y-86528869D01*
X174827421Y-86737500D01*
X174618790Y-86946131D01*
X174453000Y-87346384D01*
X174453000Y-87779616D01*
X174618790Y-88179869D01*
X174925131Y-88486210D01*
X174995843Y-88515500D01*
X174925131Y-88544790D01*
X174618790Y-88851131D01*
X174453000Y-89251384D01*
X174453000Y-89684616D01*
X174618790Y-90084869D01*
X174925131Y-90391210D01*
X175325384Y-90557000D01*
X175758616Y-90557000D01*
X176158869Y-90391210D01*
X176465210Y-90084869D01*
X176558000Y-89860854D01*
X176650790Y-90084869D01*
X176957131Y-90391210D01*
X177357384Y-90557000D01*
X177790616Y-90557000D01*
X178190869Y-90391210D01*
X178497210Y-90084869D01*
X178526500Y-90014157D01*
X178555790Y-90084869D01*
X178862131Y-90391210D01*
X179262384Y-90557000D01*
X179695616Y-90557000D01*
X180095869Y-90391210D01*
X180402210Y-90084869D01*
X180495000Y-89860854D01*
X180587790Y-90084869D01*
X180894131Y-90391210D01*
X181294384Y-90557000D01*
X181727616Y-90557000D01*
X182127869Y-90391210D01*
X182434210Y-90084869D01*
X182590500Y-89707551D01*
X182746790Y-90084869D01*
X183053131Y-90391210D01*
X183453384Y-90557000D01*
X183886616Y-90557000D01*
X184286869Y-90391210D01*
X184593210Y-90084869D01*
X184759000Y-89684616D01*
X184759000Y-89251384D01*
X184593210Y-88851131D01*
X184372447Y-88630368D01*
X184413869Y-88613210D01*
X184720210Y-88306869D01*
X184886000Y-87906616D01*
X184886000Y-87473384D01*
X184720210Y-87073131D01*
X184413869Y-86766790D01*
X184372447Y-86749632D01*
X184593210Y-86528869D01*
X184759000Y-86128616D01*
X184759000Y-85695384D01*
X184593210Y-85295131D01*
X184384579Y-85086500D01*
X184432000Y-85039079D01*
X184704131Y-85311210D01*
X185104384Y-85477000D01*
X185537616Y-85477000D01*
X185937869Y-85311210D01*
X186244210Y-85004869D01*
X186410000Y-84604616D01*
X186410000Y-84171384D01*
X186244210Y-83771131D01*
X185937869Y-83464790D01*
X185537616Y-83299000D01*
X185104384Y-83299000D01*
X184704131Y-83464790D01*
X184559000Y-83609921D01*
X184286869Y-83337790D01*
X183886616Y-83172000D01*
X183453384Y-83172000D01*
X183053131Y-83337790D01*
X182844500Y-83546421D01*
X182635869Y-83337790D01*
X182235616Y-83172000D01*
X181802384Y-83172000D01*
X181402131Y-83337790D01*
X181193500Y-83546421D01*
X180984869Y-83337790D01*
X180584616Y-83172000D01*
X180151384Y-83172000D01*
X179751131Y-83337790D01*
X179542500Y-83546421D01*
X179333869Y-83337790D01*
X178933616Y-83172000D01*
X178500384Y-83172000D01*
X178100131Y-83337790D01*
X177955000Y-83482921D01*
X177809869Y-83337790D01*
X177409616Y-83172000D01*
X176976384Y-83172000D01*
X176576131Y-83337790D01*
X176367500Y-83546421D01*
X176158869Y-83337790D01*
X175758616Y-83172000D01*
X175325384Y-83172000D01*
X174925131Y-83337790D01*
X174618790Y-83644131D01*
X174453000Y-84044384D01*
X140285518Y-84044384D01*
X140266813Y-84025679D01*
X139999609Y-83915000D01*
X139710391Y-83915000D01*
X139443187Y-84025679D01*
X139238679Y-84230187D01*
X139128000Y-84497391D01*
X129554791Y-84497391D01*
X129549321Y-84484187D01*
X129344813Y-84279679D01*
X129077609Y-84169000D01*
X128788391Y-84169000D01*
X128521187Y-84279679D01*
X128316679Y-84484187D01*
X128206000Y-84751391D01*
X85118000Y-84751391D01*
X85118000Y-80941391D01*
X175196000Y-80941391D01*
X175196000Y-81230609D01*
X175306679Y-81497813D01*
X175511187Y-81702321D01*
X175778391Y-81813000D01*
X176067609Y-81813000D01*
X176334813Y-81702321D01*
X176539321Y-81497813D01*
X176650000Y-81230609D01*
X176650000Y-80941391D01*
X176539321Y-80674187D01*
X176334813Y-80469679D01*
X176067609Y-80359000D01*
X175778391Y-80359000D01*
X175511187Y-80469679D01*
X175306679Y-80674187D01*
X175196000Y-80941391D01*
X85118000Y-80941391D01*
X85118000Y-77131391D01*
X158686000Y-77131391D01*
X158686000Y-77420609D01*
X158796679Y-77687813D01*
X159001187Y-77892321D01*
X159268391Y-78003000D01*
X159557609Y-78003000D01*
X159824813Y-77892321D01*
X160029321Y-77687813D01*
X160140000Y-77420609D01*
X160140000Y-77131391D01*
X160029321Y-76864187D01*
X159824813Y-76659679D01*
X159557609Y-76549000D01*
X159268391Y-76549000D01*
X159001187Y-76659679D01*
X158796679Y-76864187D01*
X158686000Y-77131391D01*
X85118000Y-77131391D01*
X85118000Y-75371000D01*
X135283000Y-75371000D01*
X135331601Y-75361333D01*
X135372803Y-75333803D01*
X135400333Y-75292601D01*
X135410000Y-75244000D01*
X135410000Y-72813391D01*
X158686000Y-72813391D01*
X158686000Y-73102609D01*
X158796679Y-73369813D01*
X159001187Y-73574321D01*
X159268391Y-73685000D01*
X159557609Y-73685000D01*
X159824813Y-73574321D01*
X160029321Y-73369813D01*
X160140000Y-73102609D01*
X160140000Y-72813391D01*
X160029321Y-72546187D01*
X159824813Y-72341679D01*
X159557609Y-72231000D01*
X159268391Y-72231000D01*
X159001187Y-72341679D01*
X158796679Y-72546187D01*
X158686000Y-72813391D01*
X135410000Y-72813391D01*
X135410000Y-69947384D01*
X175342000Y-69947384D01*
X175342000Y-70380616D01*
X175507790Y-70780869D01*
X175716421Y-70989500D01*
X175507790Y-71198131D01*
X175342000Y-71598384D01*
X175342000Y-72031616D01*
X175507790Y-72431869D01*
X175652921Y-72577000D01*
X175507790Y-72722131D01*
X175342000Y-73122384D01*
X175342000Y-73555616D01*
X175507790Y-73955869D01*
X175779921Y-74228000D01*
X175507790Y-74500131D01*
X175342000Y-74900384D01*
X175342000Y-75333616D01*
X175507790Y-75733869D01*
X175716421Y-75942500D01*
X175507790Y-76151131D01*
X175342000Y-76551384D01*
X175342000Y-76984616D01*
X175507790Y-77384869D01*
X175814131Y-77691210D01*
X176214384Y-77857000D01*
X176647616Y-77857000D01*
X177047869Y-77691210D01*
X177354210Y-77384869D01*
X177520000Y-76984616D01*
X177520000Y-76551384D01*
X177354210Y-76151131D01*
X177145579Y-75942500D01*
X177354210Y-75733869D01*
X177511808Y-75353391D01*
X182562000Y-75353391D01*
X182562000Y-75642609D01*
X182672679Y-75909813D01*
X182877187Y-76114321D01*
X183144391Y-76225000D01*
X183433609Y-76225000D01*
X183700813Y-76114321D01*
X183905321Y-75909813D01*
X184016000Y-75642609D01*
X184016000Y-75353391D01*
X183905321Y-75086187D01*
X183700813Y-74881679D01*
X183433609Y-74771000D01*
X183144391Y-74771000D01*
X182877187Y-74881679D01*
X182672679Y-75086187D01*
X182562000Y-75353391D01*
X177511808Y-75353391D01*
X177520000Y-75333616D01*
X177520000Y-74900384D01*
X177354210Y-74500131D01*
X177082079Y-74228000D01*
X177354210Y-73955869D01*
X177520000Y-73555616D01*
X177520000Y-73122384D01*
X177354210Y-72722131D01*
X177209079Y-72577000D01*
X177256500Y-72529579D01*
X177465131Y-72738210D01*
X177865384Y-72904000D01*
X178298616Y-72904000D01*
X178698869Y-72738210D01*
X178971000Y-72466079D01*
X179116131Y-72611210D01*
X179516384Y-72777000D01*
X179949616Y-72777000D01*
X180349869Y-72611210D01*
X180656210Y-72304869D01*
X180822000Y-71904616D01*
X180822000Y-71471384D01*
X180656210Y-71071131D01*
X180574579Y-70989500D01*
X180783210Y-70780869D01*
X180949000Y-70380616D01*
X180949000Y-69947384D01*
X180783210Y-69547131D01*
X180574579Y-69338500D01*
X180783210Y-69129869D01*
X180949000Y-68729616D01*
X180949000Y-68296384D01*
X182581000Y-68296384D01*
X182581000Y-68729616D01*
X182746790Y-69129869D01*
X182955421Y-69338500D01*
X182746790Y-69547131D01*
X182581000Y-69947384D01*
X182581000Y-70380616D01*
X182746790Y-70780869D01*
X182891921Y-70926000D01*
X182746790Y-71071131D01*
X182581000Y-71471384D01*
X182581000Y-71904616D01*
X182746790Y-72304869D01*
X183053131Y-72611210D01*
X183453384Y-72777000D01*
X183886616Y-72777000D01*
X184286869Y-72611210D01*
X184593210Y-72304869D01*
X184759000Y-71904616D01*
X184759000Y-71471384D01*
X184593210Y-71071131D01*
X184448079Y-70926000D01*
X184593210Y-70780869D01*
X184759000Y-70380616D01*
X184759000Y-69947384D01*
X184593210Y-69547131D01*
X184384579Y-69338500D01*
X184593210Y-69129869D01*
X184759000Y-68729616D01*
X184759000Y-68296384D01*
X184593210Y-67896131D01*
X184286869Y-67589790D01*
X183886616Y-67424000D01*
X183453384Y-67424000D01*
X183053131Y-67589790D01*
X182746790Y-67896131D01*
X182581000Y-68296384D01*
X180949000Y-68296384D01*
X180783210Y-67896131D01*
X180476869Y-67589790D01*
X180076616Y-67424000D01*
X179643384Y-67424000D01*
X179243131Y-67589790D01*
X179034500Y-67798421D01*
X178825869Y-67589790D01*
X178425616Y-67424000D01*
X177992384Y-67424000D01*
X177592131Y-67589790D01*
X177383500Y-67798421D01*
X177174869Y-67589790D01*
X176774616Y-67424000D01*
X176341384Y-67424000D01*
X175941131Y-67589790D01*
X175634790Y-67896131D01*
X175469000Y-68296384D01*
X175469000Y-68729616D01*
X175634790Y-69129869D01*
X175779921Y-69275000D01*
X175507790Y-69547131D01*
X175342000Y-69947384D01*
X135410000Y-69947384D01*
X135410000Y-57050000D01*
X156066594Y-57050000D01*
X156066594Y-58250000D01*
X156091973Y-58377589D01*
X156164246Y-58485754D01*
X156272411Y-58558027D01*
X156400000Y-58583406D01*
X157600000Y-58583406D01*
X157727589Y-58558027D01*
X157835754Y-58485754D01*
X157908027Y-58377589D01*
X157933406Y-58250000D01*
X157933406Y-57050000D01*
X157908027Y-56922411D01*
X157835754Y-56814246D01*
X157727589Y-56741973D01*
X157600000Y-56716594D01*
X156400000Y-56716594D01*
X156272411Y-56741973D01*
X156164246Y-56814246D01*
X156091973Y-56922411D01*
X156066594Y-57050000D01*
X135410000Y-57050000D01*
X135410000Y-52465608D01*
X156073000Y-52465608D01*
X156073000Y-52834392D01*
X156214127Y-53175103D01*
X156474897Y-53435873D01*
X156815608Y-53577000D01*
X157184392Y-53577000D01*
X157525103Y-53435873D01*
X157785873Y-53175103D01*
X157927000Y-52834392D01*
X157927000Y-52465608D01*
X157785873Y-52124897D01*
X157525103Y-51864127D01*
X157184392Y-51723000D01*
X156815608Y-51723000D01*
X156474897Y-51864127D01*
X156214127Y-52124897D01*
X156073000Y-52465608D01*
X135410000Y-52465608D01*
X135410000Y-48615608D01*
X156123000Y-48615608D01*
X156123000Y-48984392D01*
X156264127Y-49325103D01*
X156524897Y-49585873D01*
X156865608Y-49727000D01*
X157234392Y-49727000D01*
X157575103Y-49585873D01*
X157835873Y-49325103D01*
X157977000Y-48984392D01*
X157977000Y-48615608D01*
X157835873Y-48274897D01*
X157575103Y-48014127D01*
X157234392Y-47873000D01*
X156865608Y-47873000D01*
X156524897Y-48014127D01*
X156264127Y-48274897D01*
X156123000Y-48615608D01*
X135410000Y-48615608D01*
X135410000Y-43200000D01*
X156116594Y-43200000D01*
X156116594Y-44400000D01*
X156141973Y-44527589D01*
X156214246Y-44635754D01*
X156322411Y-44708027D01*
X156450000Y-44733406D01*
X157650000Y-44733406D01*
X157777589Y-44708027D01*
X157885754Y-44635754D01*
X157958027Y-44527589D01*
X157983406Y-44400000D01*
X157983406Y-43200000D01*
X157958027Y-43072411D01*
X157885754Y-42964246D01*
X157777589Y-42891973D01*
X157650000Y-42866594D01*
X156450000Y-42866594D01*
X156322411Y-42891973D01*
X156214246Y-42964246D01*
X156141973Y-43072411D01*
X156116594Y-43200000D01*
X135410000Y-43200000D01*
X135410000Y-37525000D01*
X164112000Y-37525000D01*
X164112000Y-65592000D01*
G04 #@! TD*
M02*
