G04 #@! TF.GenerationSoftware,KiCad,Pcbnew,5.1.4-e60b266~84~ubuntu19.04.1*
G04 #@! TF.CreationDate,2019-10-22T16:34:34-04:00*
G04 #@! TF.ProjectId,DSC_motor_controller,4453435f-6d6f-4746-9f72-5f636f6e7472,1*
G04 #@! TF.SameCoordinates,Original*
G04 #@! TF.FileFunction,Soldermask,Bot*
G04 #@! TF.FilePolarity,Negative*
%FSLAX46Y46*%
G04 Gerber Fmt 4.6, Leading zero omitted, Abs format (unit mm)*
G04 Created by KiCad (PCBNEW 5.1.4-e60b266~84~ubuntu19.04.1) date 2019-10-22 16:34:34*
%MOMM*%
%LPD*%
G04 APERTURE LIST*
%ADD10C,0.100000*%
G04 APERTURE END LIST*
D10*
G36*
X186222841Y-136934458D02*
G01*
X186599359Y-137009351D01*
X187004501Y-137177167D01*
X187369120Y-137420797D01*
X187679203Y-137730880D01*
X187922833Y-138095499D01*
X188090649Y-138500641D01*
X188176200Y-138930738D01*
X188176200Y-139369262D01*
X188090649Y-139799359D01*
X187922833Y-140204501D01*
X187679203Y-140569120D01*
X187369120Y-140879203D01*
X187004501Y-141122833D01*
X186599359Y-141290649D01*
X186222841Y-141365542D01*
X186169263Y-141376200D01*
X185730737Y-141376200D01*
X185677159Y-141365542D01*
X185300641Y-141290649D01*
X184895499Y-141122833D01*
X184530880Y-140879203D01*
X184220797Y-140569120D01*
X183977167Y-140204501D01*
X183809351Y-139799359D01*
X183723800Y-139369262D01*
X183723800Y-138930738D01*
X183809351Y-138500641D01*
X183977167Y-138095499D01*
X184220797Y-137730880D01*
X184530880Y-137420797D01*
X184895499Y-137177167D01*
X185300641Y-137009351D01*
X185677159Y-136934458D01*
X185730737Y-136923800D01*
X186169263Y-136923800D01*
X186222841Y-136934458D01*
X186222841Y-136934458D01*
G37*
G36*
X88772841Y-136884458D02*
G01*
X89149359Y-136959351D01*
X89554501Y-137127167D01*
X89919120Y-137370797D01*
X90229203Y-137680880D01*
X90472833Y-138045499D01*
X90640649Y-138450641D01*
X90726200Y-138880738D01*
X90726200Y-139319262D01*
X90640649Y-139749359D01*
X90472833Y-140154501D01*
X90229203Y-140519120D01*
X89919120Y-140829203D01*
X89554501Y-141072833D01*
X89149359Y-141240649D01*
X88772841Y-141315542D01*
X88719263Y-141326200D01*
X88280737Y-141326200D01*
X88227159Y-141315542D01*
X87850641Y-141240649D01*
X87445499Y-141072833D01*
X87080880Y-140829203D01*
X86770797Y-140519120D01*
X86527167Y-140154501D01*
X86359351Y-139749359D01*
X86273800Y-139319262D01*
X86273800Y-138880738D01*
X86359351Y-138450641D01*
X86527167Y-138045499D01*
X86770797Y-137680880D01*
X87080880Y-137370797D01*
X87445499Y-137127167D01*
X87850641Y-136959351D01*
X88227159Y-136884458D01*
X88280737Y-136873800D01*
X88719263Y-136873800D01*
X88772841Y-136884458D01*
X88772841Y-136884458D01*
G37*
G36*
X167948200Y-131460200D02*
G01*
X165355800Y-131460200D01*
X165355800Y-125707800D01*
X167948200Y-125707800D01*
X167948200Y-131460200D01*
X167948200Y-131460200D01*
G37*
G36*
X172908200Y-131460200D02*
G01*
X170315800Y-131460200D01*
X170315800Y-125707800D01*
X172908200Y-125707800D01*
X172908200Y-131460200D01*
X172908200Y-131460200D01*
G37*
G36*
X164499200Y-130086200D02*
G01*
X161946800Y-130086200D01*
X161946800Y-128483800D01*
X164499200Y-128483800D01*
X164499200Y-130086200D01*
X164499200Y-130086200D01*
G37*
G36*
X161415200Y-129630200D02*
G01*
X159442800Y-129630200D01*
X159442800Y-128857800D01*
X161415200Y-128857800D01*
X161415200Y-129630200D01*
X161415200Y-129630200D01*
G37*
G36*
X161415200Y-126430200D02*
G01*
X159442800Y-126430200D01*
X159442800Y-125657800D01*
X161415200Y-125657800D01*
X161415200Y-126430200D01*
X161415200Y-126430200D01*
G37*
G36*
X164499200Y-125636200D02*
G01*
X161946800Y-125636200D01*
X161946800Y-124033800D01*
X164499200Y-124033800D01*
X164499200Y-125636200D01*
X164499200Y-125636200D01*
G37*
G36*
X172908200Y-124970200D02*
G01*
X170315800Y-124970200D01*
X170315800Y-123927800D01*
X172908200Y-123927800D01*
X172908200Y-124970200D01*
X172908200Y-124970200D01*
G37*
G36*
X167948200Y-124970200D02*
G01*
X165355800Y-124970200D01*
X165355800Y-123927800D01*
X167948200Y-123927800D01*
X167948200Y-124970200D01*
X167948200Y-124970200D01*
G37*
G36*
X101296200Y-124480200D02*
G01*
X99673800Y-124480200D01*
X99673800Y-123227800D01*
X101296200Y-123227800D01*
X101296200Y-124480200D01*
X101296200Y-124480200D01*
G37*
G36*
X103836200Y-124480200D02*
G01*
X102213800Y-124480200D01*
X102213800Y-123227800D01*
X103836200Y-123227800D01*
X103836200Y-124480200D01*
X103836200Y-124480200D01*
G37*
G36*
X173084200Y-122986200D02*
G01*
X165031800Y-122986200D01*
X165031800Y-112083800D01*
X173084200Y-112083800D01*
X173084200Y-122986200D01*
X173084200Y-122986200D01*
G37*
G36*
X101296200Y-122860200D02*
G01*
X99673800Y-122860200D01*
X99673800Y-121607800D01*
X101296200Y-121607800D01*
X101296200Y-122860200D01*
X101296200Y-122860200D01*
G37*
G36*
X103836200Y-122860200D02*
G01*
X102213800Y-122860200D01*
X102213800Y-121607800D01*
X103836200Y-121607800D01*
X103836200Y-122860200D01*
X103836200Y-122860200D01*
G37*
G36*
X160284200Y-120676200D02*
G01*
X156331800Y-120676200D01*
X156331800Y-119473800D01*
X160284200Y-119473800D01*
X160284200Y-120676200D01*
X160284200Y-120676200D01*
G37*
G36*
X153678200Y-120651200D02*
G01*
X152625800Y-120651200D01*
X152625800Y-119498800D01*
X153678200Y-119498800D01*
X153678200Y-120651200D01*
X153678200Y-120651200D01*
G37*
G36*
X155278200Y-120651200D02*
G01*
X154225800Y-120651200D01*
X154225800Y-119498800D01*
X155278200Y-119498800D01*
X155278200Y-120651200D01*
X155278200Y-120651200D01*
G37*
G36*
X103760200Y-117624200D02*
G01*
X102797800Y-117624200D01*
X102797800Y-114651800D01*
X103760200Y-114651800D01*
X103760200Y-117624200D01*
X103760200Y-117624200D01*
G37*
G36*
X100560200Y-117624200D02*
G01*
X99597800Y-117624200D01*
X99597800Y-114651800D01*
X100560200Y-114651800D01*
X100560200Y-117624200D01*
X100560200Y-117624200D01*
G37*
G36*
X160284200Y-115596200D02*
G01*
X156331800Y-115596200D01*
X156331800Y-114393800D01*
X160284200Y-114393800D01*
X160284200Y-115596200D01*
X160284200Y-115596200D01*
G37*
G36*
X128633200Y-113949200D02*
G01*
X127860800Y-113949200D01*
X127860800Y-111976800D01*
X128633200Y-111976800D01*
X128633200Y-113949200D01*
X128633200Y-113949200D01*
G37*
G36*
X125433200Y-113949200D02*
G01*
X124660800Y-113949200D01*
X124660800Y-111976800D01*
X125433200Y-111976800D01*
X125433200Y-113949200D01*
X125433200Y-113949200D01*
G37*
G36*
X168135200Y-111141200D02*
G01*
X165542800Y-111141200D01*
X165542800Y-105388800D01*
X168135200Y-105388800D01*
X168135200Y-111141200D01*
X168135200Y-111141200D01*
G37*
G36*
X173095200Y-111141200D02*
G01*
X170502800Y-111141200D01*
X170502800Y-105388800D01*
X173095200Y-105388800D01*
X173095200Y-111141200D01*
X173095200Y-111141200D01*
G37*
G36*
X164689700Y-110721200D02*
G01*
X162137300Y-110721200D01*
X162137300Y-109118800D01*
X164689700Y-109118800D01*
X164689700Y-110721200D01*
X164689700Y-110721200D01*
G37*
G36*
X161669200Y-109996200D02*
G01*
X159696800Y-109996200D01*
X159696800Y-109223800D01*
X161669200Y-109223800D01*
X161669200Y-109996200D01*
X161669200Y-109996200D01*
G37*
G36*
X116457200Y-107964200D02*
G01*
X114484800Y-107964200D01*
X114484800Y-107191800D01*
X116457200Y-107191800D01*
X116457200Y-107964200D01*
X116457200Y-107964200D01*
G37*
G36*
X126685200Y-107924200D02*
G01*
X125592800Y-107924200D01*
X125592800Y-107231800D01*
X126685200Y-107231800D01*
X126685200Y-107924200D01*
X126685200Y-107924200D01*
G37*
G36*
X161669200Y-106796200D02*
G01*
X159696800Y-106796200D01*
X159696800Y-106023800D01*
X161669200Y-106023800D01*
X161669200Y-106796200D01*
X161669200Y-106796200D01*
G37*
G36*
X126685200Y-106324200D02*
G01*
X125592800Y-106324200D01*
X125592800Y-105631800D01*
X126685200Y-105631800D01*
X126685200Y-106324200D01*
X126685200Y-106324200D01*
G37*
G36*
X164689700Y-106271200D02*
G01*
X162137300Y-106271200D01*
X162137300Y-104668800D01*
X164689700Y-104668800D01*
X164689700Y-106271200D01*
X164689700Y-106271200D01*
G37*
G36*
X128303200Y-105186200D02*
G01*
X127530800Y-105186200D01*
X127530800Y-103213800D01*
X128303200Y-103213800D01*
X128303200Y-105186200D01*
X128303200Y-105186200D01*
G37*
G36*
X125103200Y-105186200D02*
G01*
X124330800Y-105186200D01*
X124330800Y-103213800D01*
X125103200Y-103213800D01*
X125103200Y-105186200D01*
X125103200Y-105186200D01*
G37*
G36*
X116457200Y-104764200D02*
G01*
X114484800Y-104764200D01*
X114484800Y-103991800D01*
X116457200Y-103991800D01*
X116457200Y-104764200D01*
X116457200Y-104764200D01*
G37*
G36*
X173095200Y-104651200D02*
G01*
X170502800Y-104651200D01*
X170502800Y-103608800D01*
X173095200Y-103608800D01*
X173095200Y-104651200D01*
X173095200Y-104651200D01*
G37*
G36*
X168135200Y-104651200D02*
G01*
X165542800Y-104651200D01*
X165542800Y-103608800D01*
X168135200Y-103608800D01*
X168135200Y-104651200D01*
X168135200Y-104651200D01*
G37*
G36*
X173218200Y-102793200D02*
G01*
X165165800Y-102793200D01*
X165165800Y-91890800D01*
X173218200Y-91890800D01*
X173218200Y-102793200D01*
X173218200Y-102793200D01*
G37*
G36*
X92833200Y-100918200D02*
G01*
X91155800Y-100918200D01*
X91155800Y-100115800D01*
X92833200Y-100115800D01*
X92833200Y-100918200D01*
X92833200Y-100918200D01*
G37*
G36*
X98257200Y-100918200D02*
G01*
X96579800Y-100918200D01*
X96579800Y-100115800D01*
X98257200Y-100115800D01*
X98257200Y-100918200D01*
X98257200Y-100918200D01*
G37*
G36*
X160418200Y-100483200D02*
G01*
X156465800Y-100483200D01*
X156465800Y-99280800D01*
X160418200Y-99280800D01*
X160418200Y-100483200D01*
X160418200Y-100483200D01*
G37*
G36*
X155621200Y-100458200D02*
G01*
X154568800Y-100458200D01*
X154568800Y-99305800D01*
X155621200Y-99305800D01*
X155621200Y-100458200D01*
X155621200Y-100458200D01*
G37*
G36*
X154021200Y-100458200D02*
G01*
X152968800Y-100458200D01*
X152968800Y-99305800D01*
X154021200Y-99305800D01*
X154021200Y-100458200D01*
X154021200Y-100458200D01*
G37*
G36*
X101296200Y-100096200D02*
G01*
X99673800Y-100096200D01*
X99673800Y-98843800D01*
X101296200Y-98843800D01*
X101296200Y-100096200D01*
X101296200Y-100096200D01*
G37*
G36*
X90901200Y-99976200D02*
G01*
X89748800Y-99976200D01*
X89748800Y-98923800D01*
X90901200Y-98923800D01*
X90901200Y-99976200D01*
X90901200Y-99976200D01*
G37*
G36*
X98257200Y-99648200D02*
G01*
X96579800Y-99648200D01*
X96579800Y-98845800D01*
X98257200Y-98845800D01*
X98257200Y-99648200D01*
X98257200Y-99648200D01*
G37*
G36*
X92833200Y-99648200D02*
G01*
X91155800Y-99648200D01*
X91155800Y-98845800D01*
X92833200Y-98845800D01*
X92833200Y-99648200D01*
X92833200Y-99648200D01*
G37*
G36*
X101296200Y-98476200D02*
G01*
X99673800Y-98476200D01*
X99673800Y-97223800D01*
X101296200Y-97223800D01*
X101296200Y-98476200D01*
X101296200Y-98476200D01*
G37*
G36*
X92833200Y-98378200D02*
G01*
X91155800Y-98378200D01*
X91155800Y-97575800D01*
X92833200Y-97575800D01*
X92833200Y-98378200D01*
X92833200Y-98378200D01*
G37*
G36*
X98257200Y-98378200D02*
G01*
X96579800Y-98378200D01*
X96579800Y-97575800D01*
X98257200Y-97575800D01*
X98257200Y-98378200D01*
X98257200Y-98378200D01*
G37*
G36*
X90901200Y-98376200D02*
G01*
X89748800Y-98376200D01*
X89748800Y-97323800D01*
X90901200Y-97323800D01*
X90901200Y-98376200D01*
X90901200Y-98376200D01*
G37*
G36*
X92833200Y-97108200D02*
G01*
X91155800Y-97108200D01*
X91155800Y-96305800D01*
X92833200Y-96305800D01*
X92833200Y-97108200D01*
X92833200Y-97108200D01*
G37*
G36*
X98257200Y-97108200D02*
G01*
X96579800Y-97108200D01*
X96579800Y-96305800D01*
X98257200Y-96305800D01*
X98257200Y-97108200D01*
X98257200Y-97108200D01*
G37*
G36*
X160418200Y-95403200D02*
G01*
X156465800Y-95403200D01*
X156465800Y-94200800D01*
X160418200Y-94200800D01*
X160418200Y-95403200D01*
X160418200Y-95403200D01*
G37*
G36*
X140704200Y-92573200D02*
G01*
X138801800Y-92573200D01*
X138801800Y-91470800D01*
X140704200Y-91470800D01*
X140704200Y-92573200D01*
X140704200Y-92573200D01*
G37*
G36*
X138463200Y-91828200D02*
G01*
X137690800Y-91828200D01*
X137690800Y-90155800D01*
X138463200Y-90155800D01*
X138463200Y-91828200D01*
X138463200Y-91828200D01*
G37*
G36*
X147004200Y-91398200D02*
G01*
X145101800Y-91398200D01*
X145101800Y-88045800D01*
X147004200Y-88045800D01*
X147004200Y-91398200D01*
X147004200Y-91398200D01*
G37*
G36*
X168195200Y-90312200D02*
G01*
X165602800Y-90312200D01*
X165602800Y-84559800D01*
X168195200Y-84559800D01*
X168195200Y-90312200D01*
X168195200Y-90312200D01*
G37*
G36*
X173155200Y-90312200D02*
G01*
X170562800Y-90312200D01*
X170562800Y-84559800D01*
X173155200Y-84559800D01*
X173155200Y-90312200D01*
X173155200Y-90312200D01*
G37*
G36*
X140704200Y-90273200D02*
G01*
X138801800Y-90273200D01*
X138801800Y-89170800D01*
X140704200Y-89170800D01*
X140704200Y-90273200D01*
X140704200Y-90273200D01*
G37*
G36*
X163991200Y-90017700D02*
G01*
X161438800Y-90017700D01*
X161438800Y-88415300D01*
X163991200Y-88415300D01*
X163991200Y-90017700D01*
X163991200Y-90017700D01*
G37*
G36*
X137955200Y-88986200D02*
G01*
X137182800Y-88986200D01*
X137182800Y-87313800D01*
X137955200Y-87313800D01*
X137955200Y-88986200D01*
X137955200Y-88986200D01*
G37*
G36*
X161161200Y-88914200D02*
G01*
X159188800Y-88914200D01*
X159188800Y-88141800D01*
X161161200Y-88141800D01*
X161161200Y-88914200D01*
X161161200Y-88914200D01*
G37*
G36*
X140704200Y-87973200D02*
G01*
X138801800Y-87973200D01*
X138801800Y-86870800D01*
X140704200Y-86870800D01*
X140704200Y-87973200D01*
X140704200Y-87973200D01*
G37*
G36*
X161161200Y-85714200D02*
G01*
X159188800Y-85714200D01*
X159188800Y-84941800D01*
X161161200Y-84941800D01*
X161161200Y-85714200D01*
X161161200Y-85714200D01*
G37*
G36*
X163991200Y-85567700D02*
G01*
X161438800Y-85567700D01*
X161438800Y-83965300D01*
X163991200Y-83965300D01*
X163991200Y-85567700D01*
X163991200Y-85567700D01*
G37*
G36*
X173155200Y-83822200D02*
G01*
X170562800Y-83822200D01*
X170562800Y-82779800D01*
X173155200Y-82779800D01*
X173155200Y-83822200D01*
X173155200Y-83822200D01*
G37*
G36*
X168195200Y-83822200D02*
G01*
X165602800Y-83822200D01*
X165602800Y-82779800D01*
X168195200Y-82779800D01*
X168195200Y-83822200D01*
X168195200Y-83822200D01*
G37*
G36*
X173218200Y-82219200D02*
G01*
X165165800Y-82219200D01*
X165165800Y-71316800D01*
X173218200Y-71316800D01*
X173218200Y-82219200D01*
X173218200Y-82219200D01*
G37*
G36*
X160418200Y-79909200D02*
G01*
X156465800Y-79909200D01*
X156465800Y-78706800D01*
X160418200Y-78706800D01*
X160418200Y-79909200D01*
X160418200Y-79909200D01*
G37*
G36*
X155151200Y-79884200D02*
G01*
X154098800Y-79884200D01*
X154098800Y-78731800D01*
X155151200Y-78731800D01*
X155151200Y-79884200D01*
X155151200Y-79884200D01*
G37*
G36*
X153551200Y-79884200D02*
G01*
X152498800Y-79884200D01*
X152498800Y-78731800D01*
X153551200Y-78731800D01*
X153551200Y-79884200D01*
X153551200Y-79884200D01*
G37*
G36*
X160418200Y-74829200D02*
G01*
X156465800Y-74829200D01*
X156465800Y-73626800D01*
X160418200Y-73626800D01*
X160418200Y-74829200D01*
X160418200Y-74829200D01*
G37*
G36*
X90022841Y-69584458D02*
G01*
X90399359Y-69659351D01*
X90804501Y-69827167D01*
X91169120Y-70070797D01*
X91479203Y-70380880D01*
X91722833Y-70745499D01*
X91890649Y-71150641D01*
X91976200Y-71580738D01*
X91976200Y-72019262D01*
X91890649Y-72449359D01*
X91722833Y-72854501D01*
X91479203Y-73219120D01*
X91169120Y-73529203D01*
X90804501Y-73772833D01*
X90399359Y-73940649D01*
X90022841Y-74015542D01*
X89969263Y-74026200D01*
X89530737Y-74026200D01*
X89477159Y-74015542D01*
X89100641Y-73940649D01*
X88695499Y-73772833D01*
X88330880Y-73529203D01*
X88020797Y-73219120D01*
X87777167Y-72854501D01*
X87609351Y-72449359D01*
X87523800Y-72019262D01*
X87523800Y-71580738D01*
X87609351Y-71150641D01*
X87777167Y-70745499D01*
X88020797Y-70380880D01*
X88330880Y-70070797D01*
X88695499Y-69827167D01*
X89100641Y-69659351D01*
X89477159Y-69584458D01*
X89530737Y-69573800D01*
X89969263Y-69573800D01*
X90022841Y-69584458D01*
X90022841Y-69584458D01*
G37*
G36*
X157676200Y-58326200D02*
G01*
X156323800Y-58326200D01*
X156323800Y-56973800D01*
X157676200Y-56973800D01*
X157676200Y-58326200D01*
X157676200Y-58326200D01*
G37*
G36*
X157197240Y-51999785D02*
G01*
X157320299Y-52050758D01*
X157320301Y-52050759D01*
X157431052Y-52124761D01*
X157525239Y-52218948D01*
X157599242Y-52329701D01*
X157650215Y-52452760D01*
X157676200Y-52583399D01*
X157676200Y-52716601D01*
X157650215Y-52847240D01*
X157599242Y-52970299D01*
X157599241Y-52970301D01*
X157525239Y-53081052D01*
X157431052Y-53175239D01*
X157320301Y-53249241D01*
X157320300Y-53249242D01*
X157320299Y-53249242D01*
X157197240Y-53300215D01*
X157066601Y-53326200D01*
X156933399Y-53326200D01*
X156802760Y-53300215D01*
X156679701Y-53249242D01*
X156679700Y-53249242D01*
X156679699Y-53249241D01*
X156568948Y-53175239D01*
X156474761Y-53081052D01*
X156400759Y-52970301D01*
X156400758Y-52970299D01*
X156349785Y-52847240D01*
X156323800Y-52716601D01*
X156323800Y-52583399D01*
X156349785Y-52452760D01*
X156400758Y-52329701D01*
X156474761Y-52218948D01*
X156568948Y-52124761D01*
X156679699Y-52050759D01*
X156679701Y-52050758D01*
X156802760Y-51999785D01*
X156933399Y-51973800D01*
X157066601Y-51973800D01*
X157197240Y-51999785D01*
X157197240Y-51999785D01*
G37*
G36*
X157247240Y-48149785D02*
G01*
X157370299Y-48200758D01*
X157370301Y-48200759D01*
X157481052Y-48274761D01*
X157575239Y-48368948D01*
X157649242Y-48479701D01*
X157700215Y-48602760D01*
X157726200Y-48733399D01*
X157726200Y-48866601D01*
X157700215Y-48997240D01*
X157649242Y-49120299D01*
X157649241Y-49120301D01*
X157575239Y-49231052D01*
X157481052Y-49325239D01*
X157370301Y-49399241D01*
X157370300Y-49399242D01*
X157370299Y-49399242D01*
X157247240Y-49450215D01*
X157116601Y-49476200D01*
X156983399Y-49476200D01*
X156852760Y-49450215D01*
X156729701Y-49399242D01*
X156729700Y-49399242D01*
X156729699Y-49399241D01*
X156618948Y-49325239D01*
X156524761Y-49231052D01*
X156450759Y-49120301D01*
X156450758Y-49120299D01*
X156399785Y-48997240D01*
X156373800Y-48866601D01*
X156373800Y-48733399D01*
X156399785Y-48602760D01*
X156450758Y-48479701D01*
X156524761Y-48368948D01*
X156618948Y-48274761D01*
X156729699Y-48200759D01*
X156729701Y-48200758D01*
X156852760Y-48149785D01*
X156983399Y-48123800D01*
X157116601Y-48123800D01*
X157247240Y-48149785D01*
X157247240Y-48149785D01*
G37*
G36*
X157726200Y-44476200D02*
G01*
X156373800Y-44476200D01*
X156373800Y-43123800D01*
X157726200Y-43123800D01*
X157726200Y-44476200D01*
X157726200Y-44476200D01*
G37*
G36*
X132272841Y-36584458D02*
G01*
X132649359Y-36659351D01*
X133054501Y-36827167D01*
X133419120Y-37070797D01*
X133729203Y-37380880D01*
X133972833Y-37745499D01*
X134140649Y-38150641D01*
X134226200Y-38580738D01*
X134226200Y-39019262D01*
X134140649Y-39449359D01*
X133972833Y-39854501D01*
X133729203Y-40219120D01*
X133419120Y-40529203D01*
X133054501Y-40772833D01*
X132649359Y-40940649D01*
X132272841Y-41015542D01*
X132219263Y-41026200D01*
X131780737Y-41026200D01*
X131727159Y-41015542D01*
X131350641Y-40940649D01*
X130945499Y-40772833D01*
X130580880Y-40529203D01*
X130270797Y-40219120D01*
X130027167Y-39854501D01*
X129859351Y-39449359D01*
X129773800Y-39019262D01*
X129773800Y-38580738D01*
X129859351Y-38150641D01*
X130027167Y-37745499D01*
X130270797Y-37380880D01*
X130580880Y-37070797D01*
X130945499Y-36827167D01*
X131350641Y-36659351D01*
X131727159Y-36584458D01*
X131780737Y-36573800D01*
X132219263Y-36573800D01*
X132272841Y-36584458D01*
X132272841Y-36584458D01*
G37*
M02*
