G04 #@! TF.GenerationSoftware,KiCad,Pcbnew,5.0.2+dfsg1-1*
G04 #@! TF.CreationDate,2019-10-08T03:24:47-04:00*
G04 #@! TF.ProjectId,DSC_motor_controller,4453435f-6d6f-4746-9f72-5f636f6e7472,1*
G04 #@! TF.SameCoordinates,Original*
G04 #@! TF.FileFunction,Copper,L4,Bot*
G04 #@! TF.FilePolarity,Positive*
%FSLAX46Y46*%
G04 Gerber Fmt 4.6, Leading zero omitted, Abs format (unit mm)*
G04 Created by KiCad (PCBNEW 5.0.2+dfsg1-1) date Tue 08 Oct 2019 03:24:47 AM EDT*
%MOMM*%
%LPD*%
G01*
G04 APERTURE LIST*
G04 #@! TA.AperFunction,SMDPad,CuDef*
%ADD10R,1.820000X0.620000*%
G04 #@! TD*
G04 #@! TA.AperFunction,SMDPad,CuDef*
%ADD11R,1.470000X1.100000*%
G04 #@! TD*
G04 #@! TA.AperFunction,SMDPad,CuDef*
%ADD12R,7.900000X10.750000*%
G04 #@! TD*
G04 #@! TA.AperFunction,SMDPad,CuDef*
%ADD13R,3.800000X1.050000*%
G04 #@! TD*
G04 #@! TA.AperFunction,SMDPad,CuDef*
%ADD14R,2.440000X0.890000*%
G04 #@! TD*
G04 #@! TA.AperFunction,SMDPad,CuDef*
%ADD15R,2.440000X5.600000*%
G04 #@! TD*
G04 #@! TA.AperFunction,ComponentPad*
%ADD16R,1.200000X1.200000*%
G04 #@! TD*
G04 #@! TA.AperFunction,ComponentPad*
%ADD17C,1.200000*%
G04 #@! TD*
G04 #@! TA.AperFunction,SMDPad,CuDef*
%ADD18R,0.810000X2.820000*%
G04 #@! TD*
G04 #@! TA.AperFunction,SMDPad,CuDef*
%ADD19R,0.620000X0.600000*%
G04 #@! TD*
G04 #@! TA.AperFunction,SMDPad,CuDef*
%ADD20R,0.940000X0.540000*%
G04 #@! TD*
G04 #@! TA.AperFunction,SMDPad,CuDef*
%ADD21R,0.620000X1.820000*%
G04 #@! TD*
G04 #@! TA.AperFunction,SMDPad,CuDef*
%ADD22R,1.750000X3.200000*%
G04 #@! TD*
G04 #@! TA.AperFunction,SMDPad,CuDef*
%ADD23R,1.750000X0.950000*%
G04 #@! TD*
G04 #@! TA.AperFunction,SMDPad,CuDef*
%ADD24R,1.000000X0.900000*%
G04 #@! TD*
G04 #@! TA.AperFunction,SMDPad,CuDef*
%ADD25R,0.900000X1.000000*%
G04 #@! TD*
G04 #@! TA.AperFunction,SMDPad,CuDef*
%ADD26R,0.450000X1.450000*%
G04 #@! TD*
G04 #@! TA.AperFunction,SMDPad,CuDef*
%ADD27R,1.525000X0.650000*%
G04 #@! TD*
G04 #@! TA.AperFunction,ViaPad*
%ADD28C,0.800000*%
G04 #@! TD*
G04 #@! TA.AperFunction,ViaPad*
%ADD29C,1.524000*%
G04 #@! TD*
G04 #@! TA.AperFunction,Conductor*
%ADD30C,0.250000*%
G04 #@! TD*
G04 #@! TA.AperFunction,Conductor*
%ADD31C,0.635000*%
G04 #@! TD*
G04 #@! TA.AperFunction,Conductor*
%ADD32C,0.254000*%
G04 #@! TD*
G04 APERTURE END LIST*
D10*
G04 #@! TO.P,C15,2*
G04 #@! TO.N,+3V3*
X160429000Y-126044000D03*
G04 #@! TO.P,C15,1*
G04 #@! TO.N,GND*
X160429000Y-129244000D03*
G04 #@! TD*
D11*
G04 #@! TO.P,C40,2*
G04 #@! TO.N,GND*
X103025000Y-123854000D03*
G04 #@! TO.P,C40,1*
G04 #@! TO.N,+3V3*
X103025000Y-122234000D03*
G04 #@! TD*
G04 #@! TO.P,C39,1*
G04 #@! TO.N,+3V3*
X100485000Y-122234000D03*
G04 #@! TO.P,C39,2*
G04 #@! TO.N,GND*
X100485000Y-123854000D03*
G04 #@! TD*
G04 #@! TO.P,C1,2*
G04 #@! TO.N,GND*
X100485000Y-97850000D03*
G04 #@! TO.P,C1,1*
G04 #@! TO.N,+3V3*
X100485000Y-99470000D03*
G04 #@! TD*
D12*
G04 #@! TO.P,Q4,3*
G04 #@! TO.N,/Motor_Driver/SH_B*
X169192000Y-97342000D03*
D13*
G04 #@! TO.P,Q4,2*
G04 #@! TO.N,GND*
X158442000Y-94802000D03*
G04 #@! TO.P,Q4,1*
G04 #@! TO.N,Net-(Q4-Pad1)*
X158442000Y-99882000D03*
G04 #@! TD*
D14*
G04 #@! TO.P,R11,4*
G04 #@! TO.N,Net-(CS3-Pad8)*
X166652000Y-124449000D03*
D15*
G04 #@! TO.P,R11,3*
G04 #@! TO.N,Net-(CS3-Pad1)*
X166652000Y-128584000D03*
D14*
G04 #@! TO.P,R11,2*
G04 #@! TO.N,/Motor_Driver/SH_C*
X171612000Y-124449000D03*
D15*
G04 #@! TO.P,R11,1*
G04 #@! TO.N,Net-(P3-Pad1)*
X171612000Y-128584000D03*
G04 #@! TD*
D12*
G04 #@! TO.P,Q6,3*
G04 #@! TO.N,/Motor_Driver/SH_C*
X169058000Y-117535000D03*
D13*
G04 #@! TO.P,Q6,2*
G04 #@! TO.N,GND*
X158308000Y-114995000D03*
G04 #@! TO.P,Q6,1*
G04 #@! TO.N,Net-(Q6-Pad1)*
X158308000Y-120075000D03*
G04 #@! TD*
D12*
G04 #@! TO.P,Q2,3*
G04 #@! TO.N,/Motor_Driver/SH_A*
X169192000Y-76768000D03*
D13*
G04 #@! TO.P,Q2,2*
G04 #@! TO.N,GND*
X158442000Y-74228000D03*
G04 #@! TO.P,Q2,1*
G04 #@! TO.N,Net-(Q2-Pad1)*
X158442000Y-79308000D03*
G04 #@! TD*
D16*
G04 #@! TO.P,C17,1*
G04 #@! TO.N,SUPPLY*
X157050000Y-43800000D03*
D17*
G04 #@! TO.P,C17,2*
G04 #@! TO.N,GND*
X157050000Y-48800000D03*
G04 #@! TD*
D16*
G04 #@! TO.P,C18,1*
G04 #@! TO.N,SUPPLY*
X157000000Y-57650000D03*
D17*
G04 #@! TO.P,C18,2*
G04 #@! TO.N,GND*
X157000000Y-52650000D03*
G04 #@! TD*
D14*
G04 #@! TO.P,R10,4*
G04 #@! TO.N,Net-(CS2-Pad8)*
X166839000Y-104130000D03*
D15*
G04 #@! TO.P,R10,3*
G04 #@! TO.N,Net-(CS2-Pad1)*
X166839000Y-108265000D03*
D14*
G04 #@! TO.P,R10,2*
G04 #@! TO.N,/Motor_Driver/SH_B*
X171799000Y-104130000D03*
D15*
G04 #@! TO.P,R10,1*
G04 #@! TO.N,Net-(P2-Pad1)*
X171799000Y-108265000D03*
G04 #@! TD*
D14*
G04 #@! TO.P,R9,4*
G04 #@! TO.N,Net-(CS1-Pad8)*
X166899000Y-83301000D03*
D15*
G04 #@! TO.P,R9,3*
G04 #@! TO.N,Net-(CS1-Pad1)*
X166899000Y-87436000D03*
D14*
G04 #@! TO.P,R9,2*
G04 #@! TO.N,/Motor_Driver/SH_A*
X171859000Y-83301000D03*
D15*
G04 #@! TO.P,R9,1*
G04 #@! TO.N,Net-(P1-Pad1)*
X171859000Y-87436000D03*
G04 #@! TD*
D18*
G04 #@! TO.P,C38,1*
G04 #@! TO.N,+3V3*
X100079000Y-116138000D03*
G04 #@! TO.P,C38,2*
G04 #@! TO.N,GND*
X103279000Y-116138000D03*
G04 #@! TD*
D19*
G04 #@! TO.P,C3,2*
G04 #@! TO.N,GND*
X138077000Y-91452000D03*
G04 #@! TO.P,C3,1*
G04 #@! TO.N,+3V3*
X138077000Y-90532000D03*
G04 #@! TD*
G04 #@! TO.P,C2,2*
G04 #@! TO.N,GND*
X137569000Y-88610000D03*
G04 #@! TO.P,C2,1*
G04 #@! TO.N,+5V*
X137569000Y-87690000D03*
G04 #@! TD*
D20*
G04 #@! TO.P,C21,2*
G04 #@! TO.N,Net-(C21-Pad2)*
X126139000Y-107578000D03*
G04 #@! TO.P,C21,1*
G04 #@! TO.N,Net-(C21-Pad1)*
X126139000Y-105978000D03*
G04 #@! TD*
D21*
G04 #@! TO.P,C23,2*
G04 #@! TO.N,GND*
X125047000Y-112963000D03*
G04 #@! TO.P,C23,1*
G04 #@! TO.N,Net-(C23-Pad1)*
X128247000Y-112963000D03*
G04 #@! TD*
G04 #@! TO.P,C24,2*
G04 #@! TO.N,GND*
X124717000Y-104200000D03*
G04 #@! TO.P,C24,1*
G04 #@! TO.N,Net-(C24-Pad1)*
X127917000Y-104200000D03*
G04 #@! TD*
D22*
G04 #@! TO.P,Reg1,4*
G04 #@! TO.N,Net-(Reg1-Pad4)*
X146053000Y-89722000D03*
D23*
G04 #@! TO.P,Reg1,3*
G04 #@! TO.N,+5V*
X139753000Y-87422000D03*
G04 #@! TO.P,Reg1,2*
G04 #@! TO.N,+3V3*
X139753000Y-89722000D03*
G04 #@! TO.P,Reg1,1*
G04 #@! TO.N,GND*
X139753000Y-92022000D03*
G04 #@! TD*
D24*
G04 #@! TO.P,RTERM1,2*
G04 #@! TO.N,/CAN/CAN_HI*
X90325000Y-97850000D03*
G04 #@! TO.P,RTERM1,1*
G04 #@! TO.N,/CAN/CAN_LO*
X90325000Y-99450000D03*
G04 #@! TD*
D25*
G04 #@! TO.P,R8,2*
G04 #@! TO.N,Net-(Q6-Pad1)*
X154752000Y-120075000D03*
G04 #@! TO.P,R8,1*
G04 #@! TO.N,/Motor_Driver/GL_C*
X153152000Y-120075000D03*
G04 #@! TD*
G04 #@! TO.P,R6,2*
G04 #@! TO.N,Net-(Q4-Pad1)*
X155095000Y-99882000D03*
G04 #@! TO.P,R6,1*
G04 #@! TO.N,/Motor_Driver/GL_B*
X153495000Y-99882000D03*
G04 #@! TD*
G04 #@! TO.P,R4,2*
G04 #@! TO.N,Net-(Q2-Pad1)*
X154625000Y-79308000D03*
G04 #@! TO.P,R4,1*
G04 #@! TO.N,/Motor_Driver/GL_A*
X153025000Y-79308000D03*
G04 #@! TD*
D26*
G04 #@! TO.P,CS3,8*
G04 #@! TO.N,Net-(CS3-Pad8)*
X164198000Y-124835000D03*
G04 #@! TO.P,CS3,7*
G04 #@! TO.N,+3V3*
X163548000Y-124835000D03*
G04 #@! TO.P,CS3,6*
X162898000Y-124835000D03*
G04 #@! TO.P,CS3,5*
G04 #@! TO.N,/Power/C_C*
X162248000Y-124835000D03*
G04 #@! TO.P,CS3,4*
G04 #@! TO.N,Net-(CS3-Pad4)*
X162248000Y-129285000D03*
G04 #@! TO.P,CS3,3*
G04 #@! TO.N,GND*
X162898000Y-129285000D03*
G04 #@! TO.P,CS3,2*
X163548000Y-129285000D03*
G04 #@! TO.P,CS3,1*
G04 #@! TO.N,Net-(CS3-Pad1)*
X164198000Y-129285000D03*
G04 #@! TD*
G04 #@! TO.P,CS2,8*
G04 #@! TO.N,Net-(CS2-Pad8)*
X164388500Y-105470000D03*
G04 #@! TO.P,CS2,7*
G04 #@! TO.N,+3V3*
X163738500Y-105470000D03*
G04 #@! TO.P,CS2,6*
X163088500Y-105470000D03*
G04 #@! TO.P,CS2,5*
G04 #@! TO.N,/Power/C_B*
X162438500Y-105470000D03*
G04 #@! TO.P,CS2,4*
G04 #@! TO.N,Net-(CS2-Pad4)*
X162438500Y-109920000D03*
G04 #@! TO.P,CS2,3*
G04 #@! TO.N,GND*
X163088500Y-109920000D03*
G04 #@! TO.P,CS2,2*
X163738500Y-109920000D03*
G04 #@! TO.P,CS2,1*
G04 #@! TO.N,Net-(CS2-Pad1)*
X164388500Y-109920000D03*
G04 #@! TD*
G04 #@! TO.P,CS1,8*
G04 #@! TO.N,Net-(CS1-Pad8)*
X163690000Y-84766500D03*
G04 #@! TO.P,CS1,7*
G04 #@! TO.N,+3V3*
X163040000Y-84766500D03*
G04 #@! TO.P,CS1,6*
X162390000Y-84766500D03*
G04 #@! TO.P,CS1,5*
G04 #@! TO.N,/Power/C_A*
X161740000Y-84766500D03*
G04 #@! TO.P,CS1,4*
G04 #@! TO.N,Net-(CS1-Pad4)*
X161740000Y-89216500D03*
G04 #@! TO.P,CS1,3*
G04 #@! TO.N,GND*
X162390000Y-89216500D03*
G04 #@! TO.P,CS1,2*
X163040000Y-89216500D03*
G04 #@! TO.P,CS1,1*
G04 #@! TO.N,Net-(CS1-Pad1)*
X163690000Y-89216500D03*
G04 #@! TD*
D27*
G04 #@! TO.P,CAN_TR1,8*
G04 #@! TO.N,Net-(CAN_TR1-Pad8)*
X91994500Y-96707000D03*
G04 #@! TO.P,CAN_TR1,7*
G04 #@! TO.N,/CAN/CAN_HI*
X91994500Y-97977000D03*
G04 #@! TO.P,CAN_TR1,6*
G04 #@! TO.N,/CAN/CAN_LO*
X91994500Y-99247000D03*
G04 #@! TO.P,CAN_TR1,5*
G04 #@! TO.N,Net-(CAN_TR1-Pad5)*
X91994500Y-100517000D03*
G04 #@! TO.P,CAN_TR1,4*
G04 #@! TO.N,/CAN/CAN_RX*
X97418500Y-100517000D03*
G04 #@! TO.P,CAN_TR1,3*
G04 #@! TO.N,+3V3*
X97418500Y-99247000D03*
G04 #@! TO.P,CAN_TR1,2*
G04 #@! TO.N,GND*
X97418500Y-97977000D03*
G04 #@! TO.P,CAN_TR1,1*
G04 #@! TO.N,/CAN/CAN_TX*
X97418500Y-96707000D03*
G04 #@! TD*
D10*
G04 #@! TO.P,C36,2*
G04 #@! TO.N,GND*
X115471000Y-104378000D03*
G04 #@! TO.P,C36,1*
G04 #@! TO.N,Net-(C36-Pad1)*
X115471000Y-107578000D03*
G04 #@! TD*
G04 #@! TO.P,C14,2*
G04 #@! TO.N,+3V3*
X160683000Y-106410000D03*
G04 #@! TO.P,C14,1*
G04 #@! TO.N,GND*
X160683000Y-109610000D03*
G04 #@! TD*
G04 #@! TO.P,C13,2*
G04 #@! TO.N,GND*
X160175000Y-88528000D03*
G04 #@! TO.P,C13,1*
G04 #@! TO.N,+3V3*
X160175000Y-85328000D03*
G04 #@! TD*
D28*
G04 #@! TO.N,GND*
X112931000Y-105470000D03*
X99160779Y-98806769D03*
X94135000Y-92262000D03*
X102009000Y-120964000D03*
X94643000Y-116407997D03*
X124869000Y-116392000D03*
X133251000Y-109788000D03*
X133505000Y-108772000D03*
X135283000Y-109788000D03*
X161445000Y-116392000D03*
X113693000Y-87944000D03*
X157381000Y-96326000D03*
X159413000Y-101914000D03*
X161953000Y-87595009D03*
X129441000Y-96580000D03*
X134477327Y-109661000D03*
X145443000Y-101977500D03*
X137823000Y-93241000D03*
X136266429Y-90244431D03*
X128933000Y-84896000D03*
X131473000Y-85404000D03*
X131727000Y-91246000D03*
X123599000Y-103946000D03*
X163149918Y-108010000D03*
X159413000Y-77276000D03*
X159413000Y-72958000D03*
X114709000Y-123758000D03*
X114963000Y-126806000D03*
X114455000Y-129600000D03*
X106835000Y-117154000D03*
X101755000Y-115630000D03*
X114709000Y-125282000D03*
X108841600Y-125753000D03*
X161631815Y-127787185D03*
X158651000Y-110296000D03*
X109042069Y-128547010D03*
X106839653Y-124261347D03*
X100231000Y-125536004D03*
X88293000Y-123758000D03*
X140363000Y-97596016D03*
X123345000Y-126806000D03*
G04 #@! TO.N,+5V*
X139855000Y-84642000D03*
G04 #@! TO.N,/CAN/CAN_LO*
X109375000Y-87690000D03*
G04 #@! TO.N,/CAN/CAN_HI*
X105819000Y-86420000D03*
G04 #@! TO.N,+3V3*
X99469000Y-120456000D03*
X99282565Y-99799328D03*
X89563000Y-89976000D03*
X94643000Y-117408000D03*
X129187000Y-104708000D03*
X141887000Y-89976000D03*
X115212347Y-116650653D03*
X160429000Y-84134000D03*
X111915000Y-103946000D03*
X163223000Y-106994000D03*
X101247002Y-116900020D03*
X163223000Y-126551990D03*
X109556590Y-122424910D03*
G04 #@! TO.N,Net-(C21-Pad2)*
X128171000Y-107527000D03*
G04 #@! TO.N,Net-(C21-Pad1)*
X127917000Y-106486000D03*
G04 #@! TO.N,Net-(C23-Pad1)*
X132026829Y-111312000D03*
D29*
G04 #@! TO.N,/Motor_Driver/SH_C*
X175542000Y-114106000D03*
X180622000Y-113725000D03*
X176939000Y-118170000D03*
X178844000Y-113598000D03*
X177066000Y-113725000D03*
X182019000Y-114614000D03*
X176812000Y-115757000D03*
X178082000Y-117027000D03*
X175288000Y-121472000D03*
X175288000Y-118297000D03*
X175288000Y-119821000D03*
X175542000Y-116773000D03*
X179352000Y-118043000D03*
D28*
X141633000Y-110804000D03*
D29*
G04 #@! TO.N,/Motor_Driver/SH_B*
X175288000Y-94802000D03*
X183416000Y-97723000D03*
X176685000Y-96326000D03*
X175034000Y-97977000D03*
X183416000Y-99374000D03*
X178209000Y-96961000D03*
X183670000Y-93532000D03*
X175288000Y-93151000D03*
X175034000Y-96453000D03*
X176939000Y-94802000D03*
X176558000Y-97850000D03*
X176939000Y-93151000D03*
D28*
X141972569Y-107285000D03*
D29*
X175034000Y-100517000D03*
X176304000Y-99501000D03*
G04 #@! TO.N,/Motor_Driver/SH_A*
X176431000Y-73339000D03*
X176558000Y-68513000D03*
X178209000Y-68513000D03*
X179860000Y-68513000D03*
X183670000Y-68513000D03*
X176431000Y-70164000D03*
X178209000Y-70164000D03*
X179860000Y-70164000D03*
X183670000Y-70164000D03*
X176431000Y-71815000D03*
X178082000Y-71815000D03*
X179733000Y-71688000D03*
X183670000Y-71688000D03*
X176431000Y-75117000D03*
X176431000Y-76768000D03*
D28*
X146967000Y-96580000D03*
G04 #@! TO.N,Net-(C36-Pad1)*
X113439000Y-106486000D03*
G04 #@! TO.N,/CAN/CAN_TX*
X99472346Y-107260651D03*
G04 #@! TO.N,/CAN/CAN_RX*
X100485000Y-107248000D03*
G04 #@! TO.N,/Power/C_A*
X113439000Y-131124000D03*
G04 #@! TO.N,/Power/C_B*
X113693000Y-127568000D03*
G04 #@! TO.N,/Power/C_C*
X113908900Y-124553020D03*
G04 #@! TO.N,/Motor_Driver/GL_C*
X135791000Y-111527000D03*
G04 #@! TO.N,/Motor_Driver/GH_C*
X136882329Y-110275000D03*
X141525000Y-113800000D03*
G04 #@! TO.N,/Motor_Driver/GL_B*
X148491000Y-102634999D03*
G04 #@! TO.N,/Motor_Driver/GH_B*
X136882329Y-107756000D03*
X177447000Y-101406000D03*
G04 #@! TO.N,/Motor_Driver/GL_A*
X136882329Y-105978000D03*
G04 #@! TO.N,/Motor_Driver/GH_A*
X140617000Y-104708000D03*
X175923000Y-81086000D03*
G04 #@! TO.N,/Motor_controller/NRST*
X102009000Y-105216000D03*
X99072652Y-94405652D03*
G04 #@! TO.N,/Motor_Driver/Batt_voltage*
X119027000Y-123758000D03*
X161953002Y-123377000D03*
G04 #@! TO.N,/Motor_Driver/Volt_A*
X183289000Y-75498000D03*
X120043000Y-134934000D03*
X119281000Y-125409000D03*
X109630847Y-121216153D03*
G04 #@! TO.N,/Motor_Driver/Volt_B*
X118422458Y-133068777D03*
X185194000Y-95691000D03*
G04 #@! TO.N,/Motor_Driver/Volt_C*
X116741000Y-130362000D03*
X109883000Y-116138000D03*
X184431992Y-116519000D03*
G04 #@! TO.N,/Motor_controller/SDA*
X109629000Y-106460000D03*
X123599000Y-87436000D03*
G04 #@! TO.N,/Motor_controller/SWDIO*
X95659000Y-90230000D03*
X94897000Y-95564000D03*
D29*
G04 #@! TO.N,Net-(P1-Pad1)*
X181511000Y-89468000D03*
X177574000Y-89468000D03*
X179479000Y-89468000D03*
X183670000Y-89468000D03*
X175542000Y-87563000D03*
X185321000Y-84388000D03*
X183797000Y-87690000D03*
X177193000Y-84261000D03*
X182019000Y-84261000D03*
X183670000Y-84261000D03*
X180368000Y-84261000D03*
X178717000Y-84261000D03*
X183670000Y-85912000D03*
X175542000Y-85912000D03*
X175542000Y-89468000D03*
X175542000Y-84261000D03*
G04 #@! TO.N,Net-(P2-Pad1)*
X183035000Y-106740000D03*
X177574000Y-103438000D03*
X179225000Y-103438000D03*
X180876000Y-103438000D03*
X182527000Y-103438000D03*
X176304000Y-104835000D03*
X177955000Y-104962000D03*
X179606000Y-104962000D03*
X181257000Y-104962000D03*
X183035000Y-104962000D03*
X183035000Y-108518000D03*
X183035000Y-110169000D03*
G04 #@! TO.N,Net-(P3-Pad1)*
X177320000Y-124774000D03*
X173891000Y-130870000D03*
X175542000Y-127822000D03*
X175669000Y-124774000D03*
X182146000Y-128711000D03*
X174018000Y-127822000D03*
X182146000Y-124774000D03*
X180622000Y-124774000D03*
X175415000Y-129346000D03*
X173891000Y-129346000D03*
X174018000Y-126298000D03*
X175542000Y-126298000D03*
X182019000Y-130489000D03*
X182146000Y-126933000D03*
X175415000Y-130870000D03*
X178971000Y-124774000D03*
X174145000Y-124774000D03*
D28*
G04 #@! TO.N,Net-(C24-Pad1)*
X129441000Y-105724000D03*
G04 #@! TD*
D30*
G04 #@! TO.N,GND*
X103210000Y-123854000D02*
X103025000Y-123854000D01*
X100485000Y-123854000D02*
X103025000Y-123854000D01*
X162390000Y-88241500D02*
X162390000Y-89216500D01*
X161136501Y-88166499D02*
X162314999Y-88166499D01*
X162314999Y-88166499D02*
X162390000Y-88241500D01*
X160775000Y-88528000D02*
X161136501Y-88166499D01*
X160175000Y-88528000D02*
X160775000Y-88528000D01*
X162390000Y-89216500D02*
X163040000Y-89216500D01*
X114939000Y-105470000D02*
X112931000Y-105470000D01*
X115471000Y-104938000D02*
X114939000Y-105470000D01*
X115471000Y-104378000D02*
X115471000Y-104938000D01*
X98331010Y-97977000D02*
X97418500Y-97977000D01*
X99160779Y-98806769D02*
X98331010Y-97977000D01*
X100117548Y-97850000D02*
X99160779Y-98806769D01*
X100485000Y-97850000D02*
X100117548Y-97850000D01*
X124869000Y-113141000D02*
X125047000Y-112963000D01*
X124869000Y-116392000D02*
X124869000Y-113141000D01*
X158442000Y-94802000D02*
X158442000Y-95265000D01*
X158442000Y-95265000D02*
X157381000Y-96326000D01*
X162390000Y-89216500D02*
X162390000Y-88032009D01*
X162390000Y-88032009D02*
X161953000Y-87595009D01*
X138077000Y-91452000D02*
X138077000Y-92987000D01*
X138077000Y-92987000D02*
X137823000Y-93241000D01*
X139753000Y-92747000D02*
X139753000Y-92022000D01*
X139259000Y-93241000D02*
X139753000Y-92747000D01*
X137823000Y-93241000D02*
X139259000Y-93241000D01*
X137569000Y-88610000D02*
X137569000Y-88941860D01*
X137569000Y-88941860D02*
X136266429Y-90244431D01*
X160048000Y-114995000D02*
X158308000Y-114995000D01*
X161445000Y-116392000D02*
X160048000Y-114995000D01*
X124463000Y-103946000D02*
X124717000Y-104200000D01*
X123599000Y-103946000D02*
X124463000Y-103946000D01*
X163072871Y-129284871D02*
X163072871Y-129112694D01*
X163548000Y-129285000D02*
X163073000Y-129285000D01*
X162898000Y-129285000D02*
X162900565Y-129285000D01*
X162900565Y-129285000D02*
X163072871Y-129112694D01*
X163073000Y-129285000D02*
X163072871Y-129284871D01*
X163088500Y-109558891D02*
X163088500Y-108010000D01*
X163088500Y-108371109D02*
X163149918Y-108309691D01*
X158442000Y-73453000D02*
X158937000Y-72958000D01*
X158937000Y-72958000D02*
X159413000Y-72958000D01*
X158442000Y-74228000D02*
X158442000Y-73453000D01*
X161631815Y-127787185D02*
X163029869Y-127787185D01*
X163072871Y-129112694D02*
X163029869Y-129069692D01*
X163029869Y-129069692D02*
X163029869Y-127787185D01*
X160429000Y-128990000D02*
X161631815Y-127787185D01*
X103279000Y-116138000D02*
X102263000Y-116138000D01*
X102263000Y-116138000D02*
X101755000Y-115630000D01*
X163738500Y-108598582D02*
X163738500Y-109018500D01*
X163149918Y-108010000D02*
X163738500Y-108598582D01*
X163738500Y-109920000D02*
X163738500Y-109018500D01*
X163738500Y-109018500D02*
X163738500Y-108898273D01*
X161445000Y-108010000D02*
X163149918Y-108010000D01*
X160683000Y-109610000D02*
X160683000Y-108772000D01*
X160683000Y-108772000D02*
X161445000Y-108010000D01*
X100485000Y-125282004D02*
X100231000Y-125536004D01*
X100485000Y-123854000D02*
X100485000Y-125282004D01*
G04 #@! TO.N,+5V*
X139753000Y-87796000D02*
X139753000Y-87422000D01*
X139753000Y-87422000D02*
X139753000Y-85302000D01*
X139855000Y-87320000D02*
X139753000Y-87422000D01*
X139855000Y-84642000D02*
X139855000Y-87320000D01*
X137837000Y-87422000D02*
X137569000Y-87690000D01*
X139753000Y-87422000D02*
X137837000Y-87422000D01*
G04 #@! TO.N,/CAN/CAN_LO*
X90528000Y-99247000D02*
X90325000Y-99450000D01*
X91994500Y-99247000D02*
X90528000Y-99247000D01*
X104762998Y-87690000D02*
X109375000Y-87690000D01*
X90325000Y-99450000D02*
X93002998Y-99450000D01*
X93002998Y-99450000D02*
X104762998Y-87690000D01*
G04 #@! TO.N,/CAN/CAN_HI*
X90452000Y-97977000D02*
X90325000Y-97850000D01*
X91994500Y-97977000D02*
X90452000Y-97977000D01*
X93696315Y-97977000D02*
X91994500Y-97977000D01*
X105253315Y-86420000D02*
X93696315Y-97977000D01*
X105819000Y-86420000D02*
X105253315Y-86420000D01*
G04 #@! TO.N,+3V3*
X99469000Y-121218000D02*
X100485000Y-122234000D01*
X99469000Y-120456000D02*
X99469000Y-121218000D01*
X103025000Y-122234000D02*
X100485000Y-122234000D01*
X162390000Y-84766500D02*
X163040000Y-84766500D01*
X100485000Y-99470000D02*
X99611893Y-99470000D01*
X99611893Y-99470000D02*
X99282565Y-99799328D01*
X97970828Y-99799328D02*
X97418500Y-99247000D01*
X99282565Y-99799328D02*
X97970828Y-99799328D01*
X138943000Y-90532000D02*
X139753000Y-89722000D01*
X138077000Y-90532000D02*
X138943000Y-90532000D01*
X160846501Y-83716499D02*
X160429000Y-84134000D01*
X162314999Y-83716499D02*
X160846501Y-83716499D01*
X162390000Y-84766500D02*
X162390000Y-83791500D01*
X162390000Y-83791500D02*
X162314999Y-83716499D01*
X160429000Y-85074000D02*
X160175000Y-85328000D01*
X160429000Y-84134000D02*
X160429000Y-85074000D01*
X141633000Y-89722000D02*
X141887000Y-89976000D01*
X139753000Y-89722000D02*
X141633000Y-89722000D01*
X162472499Y-106994000D02*
X163223000Y-106994000D01*
X160683000Y-106410000D02*
X161888499Y-106410000D01*
X161888499Y-106410000D02*
X162472499Y-106994000D01*
X163738500Y-106478500D02*
X163223000Y-106994000D01*
X163738500Y-105470000D02*
X163738500Y-106478500D01*
X163088500Y-106859500D02*
X163223000Y-106994000D01*
X163088500Y-105470000D02*
X163088500Y-106859500D01*
X100079000Y-116138000D02*
X100734000Y-116138000D01*
X101247002Y-116651002D02*
X101247002Y-116900020D01*
X100734000Y-116138000D02*
X101247002Y-116651002D01*
X162715010Y-126044000D02*
X163223000Y-126551990D01*
X162898000Y-124835000D02*
X162898000Y-126226990D01*
X163548000Y-126226990D02*
X163223000Y-126551990D01*
X162898000Y-126226990D02*
X163223000Y-126551990D01*
X163548000Y-124835000D02*
X163548000Y-126226990D01*
X160429000Y-126044000D02*
X162715010Y-126044000D01*
G04 #@! TO.N,Net-(C21-Pad2)*
X126139000Y-107578000D02*
X128120000Y-107578000D01*
X128120000Y-107578000D02*
X128171000Y-107527000D01*
G04 #@! TO.N,Net-(C21-Pad1)*
X126139000Y-105978000D02*
X127409000Y-105978000D01*
X127409000Y-105978000D02*
X127917000Y-106486000D01*
G04 #@! TO.N,Net-(C23-Pad1)*
X128247000Y-112963000D02*
X128807000Y-112963000D01*
X128807000Y-112963000D02*
X128934000Y-112836000D01*
X130502829Y-112836000D02*
X132026829Y-111312000D01*
X128934000Y-112836000D02*
X130502829Y-112836000D01*
G04 #@! TO.N,/Motor_Driver/SH_C*
X141633000Y-110804000D02*
X147856000Y-117535000D01*
X147856000Y-117535000D02*
X169058000Y-117535000D01*
G04 #@! TO.N,/Motor_Driver/SH_B*
X151915569Y-97342000D02*
X169192000Y-97342000D01*
X141972569Y-107285000D02*
X151915569Y-97342000D01*
G04 #@! TO.N,/Motor_Driver/SH_A*
X164992000Y-76768000D02*
X146967000Y-94793000D01*
D31*
X169192000Y-76768000D02*
X164992000Y-76768000D01*
D30*
X146967000Y-94793000D02*
X146967000Y-96580000D01*
G04 #@! TO.N,Net-(C36-Pad1)*
X115471000Y-107578000D02*
X114531000Y-107578000D01*
X114531000Y-107578000D02*
X113439000Y-106486000D01*
G04 #@! TO.N,/CAN/CAN_TX*
X96330999Y-97357001D02*
X96981000Y-96707000D01*
X96981000Y-96707000D02*
X97418500Y-96707000D01*
X96330999Y-104119304D02*
X96330999Y-97357001D01*
X99472346Y-107260651D02*
X96330999Y-104119304D01*
G04 #@! TO.N,/CAN/CAN_RX*
X97418500Y-103730502D02*
X97418500Y-100517000D01*
X99374999Y-105687001D02*
X97418500Y-103730502D01*
X99374999Y-105687001D02*
X99374999Y-106137999D01*
X99374999Y-106137999D02*
X100485000Y-107248000D01*
G04 #@! TO.N,Net-(CS1-Pad1)*
X163690000Y-88716500D02*
X163690000Y-89216500D01*
X164462500Y-87944000D02*
X163690000Y-88716500D01*
X166712000Y-87944000D02*
X164462500Y-87944000D01*
G04 #@! TO.N,/Power/C_A*
X161740000Y-85741500D02*
X161740000Y-84766500D01*
X186083000Y-92516000D02*
X184432000Y-90865000D01*
X158939999Y-86742003D02*
X160739497Y-86742003D01*
X185067000Y-134172000D02*
X186083000Y-133156000D01*
X113439000Y-131124000D02*
X116487000Y-134172000D01*
X186083000Y-133156000D02*
X186083000Y-92516000D01*
X160739497Y-86742003D02*
X161740000Y-85741500D01*
X116487000Y-134172000D02*
X185067000Y-134172000D01*
X184432000Y-90865000D02*
X160429000Y-90865000D01*
X160429000Y-90865000D02*
X158524000Y-88960000D01*
X158524000Y-88960000D02*
X158524000Y-87158002D01*
X158524000Y-87158002D02*
X158939999Y-86742003D01*
G04 #@! TO.N,Net-(CS1-Pad8)*
X163690000Y-84266500D02*
X163690000Y-84766500D01*
X164655500Y-83301000D02*
X163690000Y-84266500D01*
X166899000Y-83301000D02*
X164655500Y-83301000D01*
G04 #@! TO.N,Net-(CS2-Pad1)*
X165184000Y-109920000D02*
X166839000Y-108265000D01*
X164388500Y-109920000D02*
X165184000Y-109920000D01*
G04 #@! TO.N,/Power/C_B*
X115020002Y-127568000D02*
X113693000Y-127568000D01*
X124042461Y-132114625D02*
X119566627Y-132114625D01*
X161191000Y-111820000D02*
X164021999Y-111820000D01*
X159447999Y-110388001D02*
X161191000Y-111820000D01*
X159447999Y-105839999D02*
X159447999Y-110388001D01*
X124093210Y-132165374D02*
X124042461Y-132114625D01*
X182795999Y-111834999D02*
X183670000Y-112709000D01*
X119566627Y-132114625D02*
X115020002Y-127568000D01*
X162438500Y-105470000D02*
X159817998Y-105470000D01*
X159817998Y-105470000D02*
X159447999Y-105839999D01*
X182374626Y-132165374D02*
X124093210Y-132165374D01*
X164021999Y-111820000D02*
X164847999Y-111834999D01*
X164847999Y-111834999D02*
X182795999Y-111834999D01*
X183670000Y-112709000D02*
X183670000Y-130870000D01*
X183670000Y-130870000D02*
X182374626Y-132165374D01*
G04 #@! TO.N,Net-(CS2-Pad8)*
X166203500Y-104130000D02*
X166839000Y-104130000D01*
X164863500Y-105470000D02*
X166203500Y-104130000D01*
X164388500Y-105470000D02*
X164863500Y-105470000D01*
G04 #@! TO.N,Net-(CS3-Pad8)*
X166581000Y-124520000D02*
X166652000Y-124449000D01*
X164198000Y-124835000D02*
X164513000Y-124520000D01*
X164513000Y-124520000D02*
X166581000Y-124520000D01*
G04 #@! TO.N,/Power/C_C*
X115053022Y-124553020D02*
X117814002Y-127314000D01*
X113908900Y-124553020D02*
X115053022Y-124553020D01*
X119027000Y-127314000D02*
X119535000Y-127822000D01*
X117814002Y-127314000D02*
X119027000Y-127314000D01*
X119535000Y-127822000D02*
X119281000Y-127568000D01*
X151921409Y-130870000D02*
X122583000Y-130870000D01*
X122583000Y-130870000D02*
X119535000Y-127822000D01*
X157956409Y-124835000D02*
X151921409Y-130870000D01*
X162248000Y-124835000D02*
X157956409Y-124835000D01*
G04 #@! TO.N,Net-(CS3-Pad1)*
X164899000Y-128584000D02*
X164198000Y-129285000D01*
X166652000Y-128584000D02*
X164899000Y-128584000D01*
G04 #@! TO.N,/Motor_Driver/GL_C*
X153152000Y-120075000D02*
X144484940Y-120075000D01*
X144484940Y-120075000D02*
X135786999Y-111377059D01*
G04 #@! TO.N,/Motor_Driver/GH_C*
X136882329Y-110275000D02*
X138000000Y-110275000D01*
X138000000Y-110275000D02*
X141525000Y-113800000D01*
G04 #@! TO.N,/Motor_Driver/GL_B*
X148491000Y-102634999D02*
X150792001Y-102634999D01*
X150792001Y-102634999D02*
X153495000Y-99932000D01*
X153495000Y-99932000D02*
X153495000Y-99882000D01*
G04 #@! TO.N,/Motor_Driver/GH_B*
X137282328Y-108155999D02*
X144043002Y-108155999D01*
X136882329Y-107756000D02*
X137282328Y-108155999D01*
X144043002Y-108155999D02*
X149015001Y-103184000D01*
X169859003Y-104900001D02*
X173698999Y-104900001D01*
X149015001Y-103184000D02*
X168143002Y-103184000D01*
X168143002Y-103184000D02*
X169859003Y-104900001D01*
X173698999Y-104900001D02*
X177193000Y-101406000D01*
X177193000Y-101406000D02*
X177447000Y-101406000D01*
G04 #@! TO.N,/Motor_Driver/GL_A*
X153025000Y-86515004D02*
X153025000Y-79308000D01*
X140399997Y-98829003D02*
X140711001Y-98829003D01*
X140711001Y-98829003D02*
X153025000Y-86515004D01*
X140399997Y-98829003D02*
X136045000Y-103184000D01*
X136045000Y-103184000D02*
X136045000Y-105216000D01*
X136807000Y-105978000D02*
X136882329Y-105978000D01*
X136045000Y-105216000D02*
X136882329Y-105978000D01*
G04 #@! TO.N,/Motor_Driver/GH_A*
X174526000Y-82483000D02*
X174653000Y-82356000D01*
X174653000Y-82356000D02*
X175923000Y-81086000D01*
X173764000Y-84261000D02*
X173891000Y-84134000D01*
X173891000Y-84134000D02*
X173891000Y-83118000D01*
X170109002Y-84261000D02*
X173764000Y-84261000D01*
X168331002Y-82483000D02*
X170109002Y-84261000D01*
X147992999Y-97332001D02*
X147992999Y-94919001D01*
X173891000Y-83118000D02*
X174653000Y-82356000D01*
X140617000Y-104708000D02*
X147992999Y-97332001D01*
X147992999Y-94919001D02*
X160443999Y-82468001D01*
X160937000Y-82483000D02*
X168331002Y-82483000D01*
X160443999Y-82468001D02*
X160937000Y-82483000D01*
G04 #@! TO.N,/Motor_controller/NRST*
X102009000Y-105216000D02*
X102009000Y-96834000D01*
X102009000Y-96834000D02*
X101501000Y-96834000D01*
X101501000Y-96834000D02*
X99072652Y-94405652D01*
G04 #@! TO.N,/Motor_Driver/Batt_voltage*
X123980000Y-128838000D02*
X150776998Y-128838000D01*
X119027000Y-123758000D02*
X119027000Y-123885000D01*
X119027000Y-123885000D02*
X123980000Y-128838000D01*
X161064002Y-124266000D02*
X161953002Y-123377000D01*
X157254000Y-124266000D02*
X161064002Y-124266000D01*
X150523000Y-128838000D02*
X152682000Y-128838000D01*
X152682000Y-128838000D02*
X157254000Y-124266000D01*
G04 #@! TO.N,/Motor_Driver/Volt_A*
X185829000Y-134934000D02*
X120043000Y-134934000D01*
X187295010Y-133467990D02*
X185829000Y-134934000D01*
X183289000Y-75498000D02*
X187295010Y-79504010D01*
X187295010Y-79504010D02*
X187295010Y-133467990D01*
X109694347Y-121279653D02*
X109630847Y-121216153D01*
X119281000Y-125409000D02*
X115151653Y-121279653D01*
X115151653Y-121279653D02*
X109694347Y-121279653D01*
G04 #@! TO.N,/Motor_Driver/Volt_B*
X185194000Y-132521000D02*
X185194000Y-95691000D01*
X118422458Y-133068777D02*
X118822457Y-133468776D01*
X184246224Y-133468776D02*
X185194000Y-132521000D01*
X118822457Y-133468776D02*
X184246224Y-133468776D01*
G04 #@! TO.N,/Motor_Driver/Volt_C*
X108407675Y-117613325D02*
X109883000Y-116138000D01*
X108407675Y-123355677D02*
X108407675Y-117613325D01*
X113344999Y-128293001D02*
X108407675Y-123355677D01*
X116741000Y-130362000D02*
X114672001Y-128293001D01*
X114672001Y-128293001D02*
X113344999Y-128293001D01*
X184431992Y-131378008D02*
X184431992Y-116519000D01*
X116741000Y-130362000D02*
X119154000Y-132775000D01*
X183035000Y-132775000D02*
X184431992Y-131378008D01*
X119154000Y-132775000D02*
X183035000Y-132775000D01*
G04 #@! TO.N,/Motor_controller/SDA*
X109629000Y-101406000D02*
X123599000Y-87436000D01*
X109629000Y-106460000D02*
X109629000Y-101406000D01*
G04 #@! TO.N,/Motor_controller/SWDIO*
X95659000Y-90230000D02*
X94897000Y-90992000D01*
X94897000Y-90992000D02*
X94897000Y-95564000D01*
G04 #@! TO.N,Net-(Q2-Pad1)*
X158442000Y-79308000D02*
X154625000Y-79308000D01*
G04 #@! TO.N,Net-(Q4-Pad1)*
X155095000Y-99882000D02*
X158442000Y-99882000D01*
G04 #@! TO.N,Net-(Q6-Pad1)*
X155096002Y-119730998D02*
X154752000Y-120075000D01*
X158308000Y-120075000D02*
X157963998Y-119730998D01*
X154752000Y-120075000D02*
X158308000Y-120075000D01*
G04 #@! TO.N,Net-(C24-Pad1)*
X127917000Y-104800000D02*
X127917000Y-104200000D01*
X128841000Y-105724000D02*
X127917000Y-104800000D01*
X129441000Y-105724000D02*
X128841000Y-105724000D01*
G04 #@! TD*
D32*
G04 #@! TO.N,Net-(P3-Pad1)*
G36*
X182918001Y-127032918D02*
X182786834Y-130689677D01*
X182063138Y-131413374D01*
X168499140Y-131413374D01*
X168502033Y-131384000D01*
X168502033Y-127211953D01*
X168589768Y-124766000D01*
X169581000Y-124766000D01*
X169581000Y-125155000D01*
X169628728Y-125394943D01*
X169764644Y-125598356D01*
X169968057Y-125734272D01*
X170208000Y-125782000D01*
X173383000Y-125782000D01*
X173622943Y-125734272D01*
X173826356Y-125598356D01*
X173962272Y-125394943D01*
X174010000Y-125155000D01*
X174010000Y-124512000D01*
X182918001Y-124512000D01*
X182918001Y-127032918D01*
X182918001Y-127032918D01*
G37*
X182918001Y-127032918D02*
X182786834Y-130689677D01*
X182063138Y-131413374D01*
X168499140Y-131413374D01*
X168502033Y-131384000D01*
X168502033Y-127211953D01*
X168589768Y-124766000D01*
X169581000Y-124766000D01*
X169581000Y-125155000D01*
X169628728Y-125394943D01*
X169764644Y-125598356D01*
X169968057Y-125734272D01*
X170208000Y-125782000D01*
X173383000Y-125782000D01*
X173622943Y-125734272D01*
X173826356Y-125598356D01*
X173962272Y-125394943D01*
X174010000Y-125155000D01*
X174010000Y-124512000D01*
X182918001Y-124512000D01*
X182918001Y-127032918D01*
G04 #@! TO.N,Net-(P2-Pad1)*
G36*
X183908285Y-102022997D02*
X184137052Y-111185000D01*
X183175194Y-111185000D01*
X183085169Y-111136881D01*
X182943417Y-111093880D01*
X182832937Y-111082999D01*
X182832934Y-111082999D01*
X182795999Y-111079361D01*
X182759064Y-111082999D01*
X170748059Y-111082999D01*
X170612452Y-105652001D01*
X173662064Y-105652001D01*
X173698999Y-105655639D01*
X173735934Y-105652001D01*
X173735937Y-105652001D01*
X173846417Y-105641120D01*
X173988169Y-105598119D01*
X174118809Y-105528291D01*
X174233316Y-105434318D01*
X174256866Y-105405622D01*
X177248794Y-102413694D01*
X177345849Y-102433000D01*
X177548151Y-102433000D01*
X177746565Y-102393533D01*
X177933467Y-102316115D01*
X178101674Y-102203723D01*
X178244723Y-102060674D01*
X178348073Y-101906000D01*
X183791288Y-101906000D01*
X183908285Y-102022997D01*
X183908285Y-102022997D01*
G37*
X183908285Y-102022997D02*
X184137052Y-111185000D01*
X183175194Y-111185000D01*
X183085169Y-111136881D01*
X182943417Y-111093880D01*
X182832937Y-111082999D01*
X182832934Y-111082999D01*
X182795999Y-111079361D01*
X182759064Y-111082999D01*
X170748059Y-111082999D01*
X170612452Y-105652001D01*
X173662064Y-105652001D01*
X173698999Y-105655639D01*
X173735934Y-105652001D01*
X173735937Y-105652001D01*
X173846417Y-105641120D01*
X173988169Y-105598119D01*
X174118809Y-105528291D01*
X174233316Y-105434318D01*
X174256866Y-105405622D01*
X177248794Y-102413694D01*
X177345849Y-102433000D01*
X177548151Y-102433000D01*
X177746565Y-102393533D01*
X177933467Y-102316115D01*
X178101674Y-102203723D01*
X178244723Y-102060674D01*
X178348073Y-101906000D01*
X183791288Y-101906000D01*
X183908285Y-102022997D01*
G04 #@! TO.N,Net-(P1-Pad1)*
G36*
X186543010Y-91598740D02*
X186219499Y-91589011D01*
X184989867Y-90359379D01*
X184966317Y-90330683D01*
X184851810Y-90236710D01*
X184721170Y-90166882D01*
X184579418Y-90123881D01*
X184468938Y-90113000D01*
X184468935Y-90113000D01*
X184432000Y-90109362D01*
X184395065Y-90113000D01*
X170695388Y-90113000D01*
X170602508Y-85013000D01*
X173727065Y-85013000D01*
X173764000Y-85016638D01*
X173800935Y-85013000D01*
X173800938Y-85013000D01*
X173911418Y-85002119D01*
X174053170Y-84959118D01*
X174183810Y-84889290D01*
X174298317Y-84795317D01*
X174321867Y-84766621D01*
X174396622Y-84691866D01*
X174425317Y-84668317D01*
X174519290Y-84553810D01*
X174589118Y-84423170D01*
X174632119Y-84281418D01*
X174643000Y-84170938D01*
X174643000Y-84170936D01*
X174646638Y-84134001D01*
X174643000Y-84097065D01*
X174643000Y-83491000D01*
X186543010Y-83491000D01*
X186543010Y-91598740D01*
X186543010Y-91598740D01*
G37*
X186543010Y-91598740D02*
X186219499Y-91589011D01*
X184989867Y-90359379D01*
X184966317Y-90330683D01*
X184851810Y-90236710D01*
X184721170Y-90166882D01*
X184579418Y-90123881D01*
X184468938Y-90113000D01*
X184468935Y-90113000D01*
X184432000Y-90109362D01*
X184395065Y-90113000D01*
X170695388Y-90113000D01*
X170602508Y-85013000D01*
X173727065Y-85013000D01*
X173764000Y-85016638D01*
X173800935Y-85013000D01*
X173800938Y-85013000D01*
X173911418Y-85002119D01*
X174053170Y-84959118D01*
X174183810Y-84889290D01*
X174298317Y-84795317D01*
X174321867Y-84766621D01*
X174396622Y-84691866D01*
X174425317Y-84668317D01*
X174519290Y-84553810D01*
X174589118Y-84423170D01*
X174632119Y-84281418D01*
X174643000Y-84170938D01*
X174643000Y-84170936D01*
X174646638Y-84134001D01*
X174643000Y-84097065D01*
X174643000Y-83491000D01*
X186543010Y-83491000D01*
X186543010Y-91598740D01*
G04 #@! TO.N,/Motor_Driver/SH_C*
G36*
X183218000Y-112896225D02*
X183218001Y-123758000D01*
X182538854Y-123758000D01*
X182362616Y-123685000D01*
X181929384Y-123685000D01*
X181753146Y-123758000D01*
X181014854Y-123758000D01*
X180838616Y-123685000D01*
X180405384Y-123685000D01*
X180229146Y-123758000D01*
X179363854Y-123758000D01*
X179187616Y-123685000D01*
X178754384Y-123685000D01*
X178578146Y-123758000D01*
X177712854Y-123758000D01*
X177536616Y-123685000D01*
X177103384Y-123685000D01*
X176927146Y-123758000D01*
X176061854Y-123758000D01*
X175885616Y-123685000D01*
X175452384Y-123685000D01*
X175276146Y-123758000D01*
X174537854Y-123758000D01*
X174361616Y-123685000D01*
X173928384Y-123685000D01*
X173752146Y-123758000D01*
X173383000Y-123758000D01*
X173334399Y-123767667D01*
X173293197Y-123795197D01*
X173265667Y-123836399D01*
X173256000Y-123885000D01*
X173256000Y-124122921D01*
X173221790Y-124157131D01*
X173056000Y-124557384D01*
X173056000Y-124990616D01*
X173071485Y-125028000D01*
X170335000Y-125028000D01*
X170335000Y-124139000D01*
X170325333Y-124090399D01*
X170297803Y-124049197D01*
X170256601Y-124021667D01*
X170208000Y-124012000D01*
X168205406Y-124012000D01*
X168205406Y-124004000D01*
X168180027Y-123876411D01*
X168107754Y-123768246D01*
X167999589Y-123695973D01*
X167872000Y-123670594D01*
X165432000Y-123670594D01*
X165367823Y-123683360D01*
X165011687Y-112286999D01*
X182608775Y-112286999D01*
X183218000Y-112896225D01*
X183218000Y-112896225D01*
G37*
X183218000Y-112896225D02*
X183218001Y-123758000D01*
X182538854Y-123758000D01*
X182362616Y-123685000D01*
X181929384Y-123685000D01*
X181753146Y-123758000D01*
X181014854Y-123758000D01*
X180838616Y-123685000D01*
X180405384Y-123685000D01*
X180229146Y-123758000D01*
X179363854Y-123758000D01*
X179187616Y-123685000D01*
X178754384Y-123685000D01*
X178578146Y-123758000D01*
X177712854Y-123758000D01*
X177536616Y-123685000D01*
X177103384Y-123685000D01*
X176927146Y-123758000D01*
X176061854Y-123758000D01*
X175885616Y-123685000D01*
X175452384Y-123685000D01*
X175276146Y-123758000D01*
X174537854Y-123758000D01*
X174361616Y-123685000D01*
X173928384Y-123685000D01*
X173752146Y-123758000D01*
X173383000Y-123758000D01*
X173334399Y-123767667D01*
X173293197Y-123795197D01*
X173265667Y-123836399D01*
X173256000Y-123885000D01*
X173256000Y-124122921D01*
X173221790Y-124157131D01*
X173056000Y-124557384D01*
X173056000Y-124990616D01*
X173071485Y-125028000D01*
X170335000Y-125028000D01*
X170335000Y-124139000D01*
X170325333Y-124090399D01*
X170297803Y-124049197D01*
X170256601Y-124021667D01*
X170208000Y-124012000D01*
X168205406Y-124012000D01*
X168205406Y-124004000D01*
X168180027Y-123876411D01*
X168107754Y-123768246D01*
X167999589Y-123695973D01*
X167872000Y-123670594D01*
X165432000Y-123670594D01*
X165367823Y-123683360D01*
X165011687Y-112286999D01*
X182608775Y-112286999D01*
X183218000Y-112896225D01*
G04 #@! TO.N,/Motor_Driver/SH_A*
G36*
X188115000Y-82737000D02*
X187747010Y-82737000D01*
X187747010Y-79548528D01*
X187755865Y-79504010D01*
X187720785Y-79327648D01*
X187646101Y-79215876D01*
X187620884Y-79178136D01*
X187583144Y-79152919D01*
X184016000Y-75585776D01*
X184016000Y-75353391D01*
X183905321Y-75086187D01*
X183700813Y-74881679D01*
X183433609Y-74771000D01*
X183144391Y-74771000D01*
X182877187Y-74881679D01*
X182672679Y-75086187D01*
X182562000Y-75353391D01*
X182562000Y-75642609D01*
X182672679Y-75909813D01*
X182877187Y-76114321D01*
X183144391Y-76225000D01*
X183376776Y-76225000D01*
X186843010Y-79691235D01*
X186843010Y-82737000D01*
X174911225Y-82737000D01*
X175004091Y-82644134D01*
X175004093Y-82644131D01*
X175835225Y-81813000D01*
X176067609Y-81813000D01*
X176334813Y-81702321D01*
X176539321Y-81497813D01*
X176650000Y-81230609D01*
X176650000Y-80941391D01*
X176539321Y-80674187D01*
X176334813Y-80469679D01*
X176067609Y-80359000D01*
X175778391Y-80359000D01*
X175511187Y-80469679D01*
X175306679Y-80674187D01*
X175196000Y-80941391D01*
X175196000Y-81173775D01*
X174364869Y-82004907D01*
X174364866Y-82004909D01*
X173631727Y-82738049D01*
X173588399Y-82746667D01*
X173547197Y-82774197D01*
X173519667Y-82815399D01*
X173510000Y-82864000D01*
X173510000Y-82874629D01*
X173465225Y-82941639D01*
X173430145Y-83118000D01*
X173439001Y-83162522D01*
X173439000Y-83809000D01*
X170589000Y-83809000D01*
X170589000Y-82483000D01*
X170579333Y-82434399D01*
X170551803Y-82393197D01*
X170510601Y-82365667D01*
X170462000Y-82356000D01*
X168843226Y-82356000D01*
X168682095Y-82194869D01*
X168656876Y-82157126D01*
X168507364Y-82057225D01*
X168375520Y-82031000D01*
X168331002Y-82022145D01*
X168286484Y-82031000D01*
X165371441Y-82031000D01*
X165004011Y-66354000D01*
X188115000Y-66354000D01*
X188115000Y-82737000D01*
X188115000Y-82737000D01*
G37*
X188115000Y-82737000D02*
X187747010Y-82737000D01*
X187747010Y-79548528D01*
X187755865Y-79504010D01*
X187720785Y-79327648D01*
X187646101Y-79215876D01*
X187620884Y-79178136D01*
X187583144Y-79152919D01*
X184016000Y-75585776D01*
X184016000Y-75353391D01*
X183905321Y-75086187D01*
X183700813Y-74881679D01*
X183433609Y-74771000D01*
X183144391Y-74771000D01*
X182877187Y-74881679D01*
X182672679Y-75086187D01*
X182562000Y-75353391D01*
X182562000Y-75642609D01*
X182672679Y-75909813D01*
X182877187Y-76114321D01*
X183144391Y-76225000D01*
X183376776Y-76225000D01*
X186843010Y-79691235D01*
X186843010Y-82737000D01*
X174911225Y-82737000D01*
X175004091Y-82644134D01*
X175004093Y-82644131D01*
X175835225Y-81813000D01*
X176067609Y-81813000D01*
X176334813Y-81702321D01*
X176539321Y-81497813D01*
X176650000Y-81230609D01*
X176650000Y-80941391D01*
X176539321Y-80674187D01*
X176334813Y-80469679D01*
X176067609Y-80359000D01*
X175778391Y-80359000D01*
X175511187Y-80469679D01*
X175306679Y-80674187D01*
X175196000Y-80941391D01*
X175196000Y-81173775D01*
X174364869Y-82004907D01*
X174364866Y-82004909D01*
X173631727Y-82738049D01*
X173588399Y-82746667D01*
X173547197Y-82774197D01*
X173519667Y-82815399D01*
X173510000Y-82864000D01*
X173510000Y-82874629D01*
X173465225Y-82941639D01*
X173430145Y-83118000D01*
X173439001Y-83162522D01*
X173439000Y-83809000D01*
X170589000Y-83809000D01*
X170589000Y-82483000D01*
X170579333Y-82434399D01*
X170551803Y-82393197D01*
X170510601Y-82365667D01*
X170462000Y-82356000D01*
X168843226Y-82356000D01*
X168682095Y-82194869D01*
X168656876Y-82157126D01*
X168507364Y-82057225D01*
X168375520Y-82031000D01*
X168331002Y-82022145D01*
X168286484Y-82031000D01*
X165371441Y-82031000D01*
X165004011Y-66354000D01*
X188115000Y-66354000D01*
X188115000Y-82737000D01*
G04 #@! TO.N,/Motor_Driver/SH_B*
G36*
X170002777Y-91468421D02*
X170132517Y-91675828D01*
X170331753Y-91817798D01*
X170570152Y-91872717D01*
X185241723Y-92313947D01*
X185631001Y-92703225D01*
X185631001Y-95099867D01*
X185605813Y-95074679D01*
X185338609Y-94964000D01*
X185049391Y-94964000D01*
X184782187Y-95074679D01*
X184577679Y-95279187D01*
X184467000Y-95546391D01*
X184467000Y-95835609D01*
X184577679Y-96102813D01*
X184742001Y-96267135D01*
X184742001Y-101790395D01*
X184140803Y-101189197D01*
X184099601Y-101161667D01*
X184051000Y-101152000D01*
X178128689Y-101152000D01*
X178063321Y-100994187D01*
X177858813Y-100789679D01*
X177591609Y-100679000D01*
X177302391Y-100679000D01*
X177035187Y-100789679D01*
X176830679Y-100994187D01*
X176735285Y-101224490D01*
X173511775Y-104448001D01*
X170716000Y-104448001D01*
X170716000Y-103057000D01*
X170706333Y-103008399D01*
X170678803Y-102967197D01*
X170637601Y-102939667D01*
X170589000Y-102930000D01*
X168528226Y-102930000D01*
X168494095Y-102895869D01*
X168468876Y-102858126D01*
X168319364Y-102758225D01*
X168187520Y-102732000D01*
X168143002Y-102723145D01*
X168098484Y-102732000D01*
X165371692Y-102732000D01*
X165007383Y-91317000D01*
X169973589Y-91317000D01*
X170002777Y-91468421D01*
X170002777Y-91468421D01*
G37*
X170002777Y-91468421D02*
X170132517Y-91675828D01*
X170331753Y-91817798D01*
X170570152Y-91872717D01*
X185241723Y-92313947D01*
X185631001Y-92703225D01*
X185631001Y-95099867D01*
X185605813Y-95074679D01*
X185338609Y-94964000D01*
X185049391Y-94964000D01*
X184782187Y-95074679D01*
X184577679Y-95279187D01*
X184467000Y-95546391D01*
X184467000Y-95835609D01*
X184577679Y-96102813D01*
X184742001Y-96267135D01*
X184742001Y-101790395D01*
X184140803Y-101189197D01*
X184099601Y-101161667D01*
X184051000Y-101152000D01*
X178128689Y-101152000D01*
X178063321Y-100994187D01*
X177858813Y-100789679D01*
X177591609Y-100679000D01*
X177302391Y-100679000D01*
X177035187Y-100789679D01*
X176830679Y-100994187D01*
X176735285Y-101224490D01*
X173511775Y-104448001D01*
X170716000Y-104448001D01*
X170716000Y-103057000D01*
X170706333Y-103008399D01*
X170678803Y-102967197D01*
X170637601Y-102939667D01*
X170589000Y-102930000D01*
X168528226Y-102930000D01*
X168494095Y-102895869D01*
X168468876Y-102858126D01*
X168319364Y-102758225D01*
X168187520Y-102732000D01*
X168143002Y-102723145D01*
X168098484Y-102732000D01*
X165371692Y-102732000D01*
X165007383Y-91317000D01*
X169973589Y-91317000D01*
X170002777Y-91468421D01*
G04 #@! TO.N,GND*
G36*
X164112000Y-38481758D02*
X164008356Y-38326644D01*
X163804943Y-38190728D01*
X163565000Y-38143000D01*
X139595000Y-38143000D01*
X139319946Y-38206551D01*
X139125261Y-38354700D01*
X139002089Y-38566074D01*
X138969183Y-38808494D01*
X139474183Y-47018494D01*
X139521460Y-47221703D01*
X139657994Y-47424702D01*
X139861820Y-47559999D01*
X140101907Y-47606997D01*
X159203727Y-47548907D01*
X159217278Y-59257199D01*
X147920792Y-59333014D01*
X147685057Y-59380728D01*
X147481644Y-59516644D01*
X147345728Y-59720057D01*
X147298000Y-59960000D01*
X147298000Y-66080000D01*
X147346498Y-66321793D01*
X147483064Y-66524771D01*
X147686911Y-66660037D01*
X147927004Y-66706997D01*
X163567004Y-66656997D01*
X163804943Y-66609272D01*
X164008356Y-66473356D01*
X164144272Y-66269943D01*
X164192000Y-66030000D01*
X164192000Y-65709651D01*
X164239000Y-65719000D01*
X164527340Y-65719000D01*
X164420377Y-65794154D01*
X164289264Y-66000696D01*
X164247172Y-66241691D01*
X164475350Y-75977275D01*
X164311054Y-76087054D01*
X164102301Y-76399475D01*
X164053948Y-76642563D01*
X160981283Y-79715228D01*
X160981283Y-78783000D01*
X160932620Y-78538357D01*
X160794041Y-78330959D01*
X160586643Y-78192380D01*
X160342000Y-78143717D01*
X156542000Y-78143717D01*
X156297357Y-78192380D01*
X156089959Y-78330959D01*
X155951380Y-78538357D01*
X155947871Y-78556000D01*
X155660704Y-78556000D01*
X155527041Y-78355959D01*
X155319643Y-78217380D01*
X155075000Y-78168717D01*
X154175000Y-78168717D01*
X153930357Y-78217380D01*
X153825000Y-78287777D01*
X153719643Y-78217380D01*
X153475000Y-78168717D01*
X152575000Y-78168717D01*
X152330357Y-78217380D01*
X152122959Y-78355959D01*
X151984380Y-78563357D01*
X151935717Y-78808000D01*
X151935717Y-79808000D01*
X151984380Y-80052643D01*
X152122959Y-80260041D01*
X152273001Y-80360296D01*
X152273000Y-86203515D01*
X147567283Y-90909233D01*
X147567283Y-88122000D01*
X147518620Y-87877357D01*
X147380041Y-87669959D01*
X147172643Y-87531380D01*
X146928000Y-87482717D01*
X145178000Y-87482717D01*
X144933357Y-87531380D01*
X144725959Y-87669959D01*
X144587380Y-87877357D01*
X144538717Y-88122000D01*
X144538717Y-91322000D01*
X144587380Y-91566643D01*
X144725959Y-91774041D01*
X144933357Y-91912620D01*
X145178000Y-91961283D01*
X146515233Y-91961283D01*
X140411881Y-98064636D01*
X140399997Y-98062272D01*
X140325938Y-98077003D01*
X140325934Y-98077003D01*
X140106581Y-98120635D01*
X139857836Y-98286842D01*
X139815882Y-98349630D01*
X135565629Y-102599884D01*
X135502839Y-102641839D01*
X135336632Y-102890585D01*
X135293000Y-103109938D01*
X135293000Y-103109941D01*
X135278269Y-103184000D01*
X135293000Y-103258059D01*
X135293001Y-105159767D01*
X135279118Y-105252073D01*
X135310905Y-105380074D01*
X135336633Y-105509416D01*
X135346807Y-105524642D01*
X135351221Y-105542417D01*
X135429576Y-105648514D01*
X135502840Y-105758161D01*
X135580449Y-105810018D01*
X135855329Y-106060169D01*
X135855329Y-106182283D01*
X136011681Y-106559749D01*
X136300580Y-106848648D01*
X136344886Y-106867000D01*
X136300580Y-106885352D01*
X136011681Y-107174251D01*
X135855329Y-107551717D01*
X135855329Y-107960283D01*
X136011681Y-108337749D01*
X136300580Y-108626648D01*
X136678046Y-108783000D01*
X136867138Y-108783000D01*
X136988912Y-108864367D01*
X137208265Y-108907999D01*
X137208268Y-108907999D01*
X137282327Y-108922730D01*
X137356386Y-108907999D01*
X143968943Y-108907999D01*
X144043002Y-108922730D01*
X144117061Y-108907999D01*
X144117065Y-108907999D01*
X144336418Y-108864367D01*
X144585163Y-108698160D01*
X144627118Y-108635370D01*
X149326490Y-103936000D01*
X164979717Y-103936000D01*
X164979717Y-104235613D01*
X164858143Y-104154380D01*
X164613500Y-104105717D01*
X164163500Y-104105717D01*
X164063500Y-104125608D01*
X163963500Y-104105717D01*
X163513500Y-104105717D01*
X163413500Y-104125608D01*
X163313500Y-104105717D01*
X162863500Y-104105717D01*
X162763500Y-104125608D01*
X162663500Y-104105717D01*
X162213500Y-104105717D01*
X161968857Y-104154380D01*
X161761459Y-104292959D01*
X161622880Y-104500357D01*
X161579588Y-104718000D01*
X159892057Y-104718000D01*
X159817998Y-104703269D01*
X159743939Y-104718000D01*
X159743935Y-104718000D01*
X159524582Y-104761632D01*
X159344440Y-104882000D01*
X159275837Y-104927839D01*
X159233883Y-104990627D01*
X158968628Y-105255883D01*
X158905838Y-105297838D01*
X158739631Y-105546584D01*
X158695999Y-105765937D01*
X158695999Y-105765940D01*
X158681268Y-105839999D01*
X158695999Y-105914058D01*
X158696000Y-110350858D01*
X158684920Y-110462747D01*
X158717619Y-110570749D01*
X158739632Y-110681417D01*
X158760647Y-110712868D01*
X158771609Y-110749075D01*
X158843150Y-110836342D01*
X158905839Y-110930162D01*
X158999326Y-110992628D01*
X160627596Y-112330369D01*
X160648839Y-112362161D01*
X160742322Y-112424624D01*
X160770853Y-112448065D01*
X160803762Y-112465678D01*
X160897584Y-112528368D01*
X160934686Y-112535748D01*
X160968038Y-112553598D01*
X161080325Y-112564717D01*
X161116937Y-112572000D01*
X161153867Y-112572000D01*
X161265746Y-112583079D01*
X161302339Y-112572000D01*
X164015196Y-112572000D01*
X164266368Y-112576561D01*
X164397819Y-116783000D01*
X148184898Y-116783000D01*
X146737318Y-115217250D01*
X156027000Y-115217250D01*
X156027000Y-115595786D01*
X156085004Y-115735820D01*
X156192181Y-115842996D01*
X156332215Y-115901000D01*
X158085750Y-115901000D01*
X158181000Y-115805750D01*
X158181000Y-115122000D01*
X158435000Y-115122000D01*
X158435000Y-115805750D01*
X158530250Y-115901000D01*
X160283785Y-115901000D01*
X160423819Y-115842996D01*
X160530996Y-115735820D01*
X160589000Y-115595786D01*
X160589000Y-115217250D01*
X160493750Y-115122000D01*
X158435000Y-115122000D01*
X158181000Y-115122000D01*
X156122250Y-115122000D01*
X156027000Y-115217250D01*
X146737318Y-115217250D01*
X145976398Y-114394214D01*
X156027000Y-114394214D01*
X156027000Y-114772750D01*
X156122250Y-114868000D01*
X158181000Y-114868000D01*
X158181000Y-114184250D01*
X158435000Y-114184250D01*
X158435000Y-114868000D01*
X160493750Y-114868000D01*
X160589000Y-114772750D01*
X160589000Y-114394214D01*
X160530996Y-114254180D01*
X160423819Y-114147004D01*
X160283785Y-114089000D01*
X158530250Y-114089000D01*
X158435000Y-114184250D01*
X158181000Y-114184250D01*
X158085750Y-114089000D01*
X156332215Y-114089000D01*
X156192181Y-114147004D01*
X156085004Y-114254180D01*
X156027000Y-114394214D01*
X145976398Y-114394214D01*
X142660000Y-110807091D01*
X142660000Y-110599717D01*
X142503648Y-110222251D01*
X142214749Y-109933352D01*
X141837283Y-109777000D01*
X141428717Y-109777000D01*
X141051251Y-109933352D01*
X140762352Y-110222251D01*
X140606000Y-110599717D01*
X140606000Y-111008283D01*
X140762352Y-111385749D01*
X141051251Y-111674648D01*
X141428717Y-111831000D01*
X141558348Y-111831000D01*
X147263635Y-118002025D01*
X147313839Y-118077161D01*
X147425956Y-118152076D01*
X147535052Y-118231326D01*
X147549892Y-118234888D01*
X147562584Y-118243368D01*
X147694855Y-118269678D01*
X147825955Y-118301142D01*
X147915202Y-118287000D01*
X164444819Y-118287000D01*
X164468717Y-119051736D01*
X164468717Y-122910000D01*
X164517380Y-123154643D01*
X164600836Y-123279544D01*
X164607960Y-123507508D01*
X164423000Y-123470717D01*
X163973000Y-123470717D01*
X163873000Y-123490608D01*
X163773000Y-123470717D01*
X163323000Y-123470717D01*
X163223000Y-123490608D01*
X163123000Y-123470717D01*
X162980002Y-123470717D01*
X162980002Y-123172717D01*
X162823650Y-122795251D01*
X162534751Y-122506352D01*
X162157285Y-122350000D01*
X161748719Y-122350000D01*
X161371253Y-122506352D01*
X161082354Y-122795251D01*
X160926002Y-123172717D01*
X160926002Y-123340513D01*
X160752515Y-123514000D01*
X157328057Y-123514000D01*
X157253999Y-123499269D01*
X157179941Y-123514000D01*
X157179937Y-123514000D01*
X156960584Y-123557632D01*
X156902470Y-123596463D01*
X156774625Y-123681886D01*
X156774623Y-123681888D01*
X156711839Y-123723839D01*
X156669887Y-123786624D01*
X152370513Y-128086000D01*
X124291488Y-128086000D01*
X120054000Y-123848513D01*
X120054000Y-123553717D01*
X119897648Y-123176251D01*
X119608749Y-122887352D01*
X119231283Y-122731000D01*
X118822717Y-122731000D01*
X118445251Y-122887352D01*
X118156352Y-123176251D01*
X118143285Y-123207797D01*
X115735769Y-120800282D01*
X115693814Y-120737492D01*
X115445069Y-120571285D01*
X115225716Y-120527653D01*
X115225712Y-120527653D01*
X115151653Y-120512922D01*
X115077594Y-120527653D01*
X110394744Y-120527653D01*
X110212596Y-120345505D01*
X109835130Y-120189153D01*
X109426564Y-120189153D01*
X109159675Y-120299702D01*
X109159675Y-117924812D01*
X109919488Y-117165000D01*
X110087283Y-117165000D01*
X110464749Y-117008648D01*
X110753648Y-116719749D01*
X110866885Y-116446370D01*
X114185347Y-116446370D01*
X114185347Y-116854936D01*
X114341699Y-117232402D01*
X114630598Y-117521301D01*
X115008064Y-117677653D01*
X115416630Y-117677653D01*
X115794096Y-117521301D01*
X116082995Y-117232402D01*
X116239347Y-116854936D01*
X116239347Y-116446370D01*
X116082995Y-116068904D01*
X115794096Y-115780005D01*
X115416630Y-115623653D01*
X115008064Y-115623653D01*
X114630598Y-115780005D01*
X114341699Y-116068904D01*
X114185347Y-116446370D01*
X110866885Y-116446370D01*
X110910000Y-116342283D01*
X110910000Y-115933717D01*
X110753648Y-115556251D01*
X110464749Y-115267352D01*
X110087283Y-115111000D01*
X109678717Y-115111000D01*
X109301251Y-115267352D01*
X109012352Y-115556251D01*
X108856000Y-115933717D01*
X108856000Y-116101512D01*
X107928302Y-117029211D01*
X107865515Y-117071164D01*
X107823562Y-117133951D01*
X107823561Y-117133952D01*
X107699307Y-117319910D01*
X107640944Y-117613325D01*
X107655676Y-117687389D01*
X107655675Y-123281618D01*
X107640944Y-123355677D01*
X107655675Y-123429736D01*
X107655675Y-123429739D01*
X107699307Y-123649092D01*
X107865514Y-123897838D01*
X107928304Y-123939793D01*
X112760886Y-128772377D01*
X112802838Y-128835162D01*
X112865622Y-128877113D01*
X112865625Y-128877116D01*
X113030511Y-128987289D01*
X113051583Y-129001369D01*
X113270936Y-129045001D01*
X113270940Y-129045001D01*
X113344999Y-129059732D01*
X113419058Y-129045001D01*
X114360514Y-129045001D01*
X115714000Y-130398488D01*
X115714000Y-130566283D01*
X115870352Y-130943749D01*
X116159251Y-131232648D01*
X116536717Y-131389000D01*
X116704513Y-131389000D01*
X117677175Y-132361663D01*
X117551810Y-132487028D01*
X117395458Y-132864494D01*
X117395458Y-133273060D01*
X117456323Y-133420000D01*
X116798488Y-133420000D01*
X114466000Y-131087513D01*
X114466000Y-130919717D01*
X114309648Y-130542251D01*
X114020749Y-130253352D01*
X113643283Y-130097000D01*
X113234717Y-130097000D01*
X112857251Y-130253352D01*
X112568352Y-130542251D01*
X112412000Y-130919717D01*
X112412000Y-131328283D01*
X112568352Y-131705749D01*
X112857251Y-131994648D01*
X113234717Y-132151000D01*
X113402513Y-132151000D01*
X115902885Y-134651373D01*
X115944839Y-134714161D01*
X116193584Y-134880368D01*
X116412937Y-134924000D01*
X116412941Y-134924000D01*
X116487000Y-134938731D01*
X116561059Y-134924000D01*
X119016000Y-134924000D01*
X119016000Y-135138283D01*
X119172352Y-135515749D01*
X119461251Y-135804648D01*
X119505557Y-135823000D01*
X85118000Y-135823000D01*
X85118000Y-124076250D01*
X99369000Y-124076250D01*
X99369000Y-124479786D01*
X99427004Y-124619820D01*
X99534181Y-124726996D01*
X99674215Y-124785000D01*
X100262750Y-124785000D01*
X100358000Y-124689750D01*
X100358000Y-123981000D01*
X100612000Y-123981000D01*
X100612000Y-124689750D01*
X100707250Y-124785000D01*
X101295785Y-124785000D01*
X101435819Y-124726996D01*
X101542996Y-124619820D01*
X101601000Y-124479786D01*
X101601000Y-124076250D01*
X101909000Y-124076250D01*
X101909000Y-124479786D01*
X101967004Y-124619820D01*
X102074181Y-124726996D01*
X102214215Y-124785000D01*
X102802750Y-124785000D01*
X102898000Y-124689750D01*
X102898000Y-123981000D01*
X103152000Y-123981000D01*
X103152000Y-124689750D01*
X103247250Y-124785000D01*
X103835785Y-124785000D01*
X103975819Y-124726996D01*
X104082996Y-124619820D01*
X104141000Y-124479786D01*
X104141000Y-124076250D01*
X104045750Y-123981000D01*
X103152000Y-123981000D01*
X102898000Y-123981000D01*
X102004250Y-123981000D01*
X101909000Y-124076250D01*
X101601000Y-124076250D01*
X101505750Y-123981000D01*
X100612000Y-123981000D01*
X100358000Y-123981000D01*
X99464250Y-123981000D01*
X99369000Y-124076250D01*
X85118000Y-124076250D01*
X85118000Y-120251717D01*
X98442000Y-120251717D01*
X98442000Y-120660283D01*
X98598352Y-121037749D01*
X98714933Y-121154330D01*
X98702269Y-121218000D01*
X98717000Y-121292059D01*
X98717000Y-121292063D01*
X98723880Y-121326648D01*
X98760632Y-121511415D01*
X98881188Y-121691839D01*
X98926840Y-121760161D01*
X98989627Y-121802114D01*
X99110717Y-121923204D01*
X99110717Y-122784000D01*
X99159380Y-123028643D01*
X99297959Y-123236041D01*
X99369000Y-123283509D01*
X99369000Y-123631750D01*
X99464250Y-123727000D01*
X100358000Y-123727000D01*
X100358000Y-123707000D01*
X100612000Y-123707000D01*
X100612000Y-123727000D01*
X101505750Y-123727000D01*
X101601000Y-123631750D01*
X101601000Y-123283509D01*
X101672041Y-123236041D01*
X101755000Y-123111884D01*
X101837959Y-123236041D01*
X101909000Y-123283509D01*
X101909000Y-123631750D01*
X102004250Y-123727000D01*
X102898000Y-123727000D01*
X102898000Y-123707000D01*
X103152000Y-123707000D01*
X103152000Y-123727000D01*
X104045750Y-123727000D01*
X104141000Y-123631750D01*
X104141000Y-123283509D01*
X104212041Y-123236041D01*
X104350620Y-123028643D01*
X104399283Y-122784000D01*
X104399283Y-121684000D01*
X104350620Y-121439357D01*
X104212041Y-121231959D01*
X104004643Y-121093380D01*
X103760000Y-121044717D01*
X102290000Y-121044717D01*
X102045357Y-121093380D01*
X101837959Y-121231959D01*
X101755000Y-121356116D01*
X101672041Y-121231959D01*
X101464643Y-121093380D01*
X101220000Y-121044717D01*
X100359204Y-121044717D01*
X100343335Y-121028848D01*
X100496000Y-120660283D01*
X100496000Y-120251717D01*
X100339648Y-119874251D01*
X100050749Y-119585352D01*
X99673283Y-119429000D01*
X99264717Y-119429000D01*
X98887251Y-119585352D01*
X98598352Y-119874251D01*
X98442000Y-120251717D01*
X85118000Y-120251717D01*
X85118000Y-117203717D01*
X93616000Y-117203717D01*
X93616000Y-117612283D01*
X93772352Y-117989749D01*
X94061251Y-118278648D01*
X94438717Y-118435000D01*
X94847283Y-118435000D01*
X95224749Y-118278648D01*
X95513648Y-117989749D01*
X95670000Y-117612283D01*
X95670000Y-117203717D01*
X95513648Y-116826251D01*
X95224749Y-116537352D01*
X94847283Y-116381000D01*
X94438717Y-116381000D01*
X94061251Y-116537352D01*
X93772352Y-116826251D01*
X93616000Y-117203717D01*
X85118000Y-117203717D01*
X85118000Y-114728000D01*
X99034717Y-114728000D01*
X99034717Y-117548000D01*
X99083380Y-117792643D01*
X99221959Y-118000041D01*
X99429357Y-118138620D01*
X99674000Y-118187283D01*
X100484000Y-118187283D01*
X100728643Y-118138620D01*
X100936041Y-118000041D01*
X100997380Y-117908240D01*
X101042719Y-117927020D01*
X101451285Y-117927020D01*
X101828751Y-117770668D01*
X102117650Y-117481769D01*
X102274002Y-117104303D01*
X102274002Y-116695737D01*
X102135039Y-116360250D01*
X102493000Y-116360250D01*
X102493000Y-117623785D01*
X102551004Y-117763819D01*
X102658180Y-117870996D01*
X102798214Y-117929000D01*
X103056750Y-117929000D01*
X103152000Y-117833750D01*
X103152000Y-116265000D01*
X103406000Y-116265000D01*
X103406000Y-117833750D01*
X103501250Y-117929000D01*
X103759786Y-117929000D01*
X103899820Y-117870996D01*
X104006996Y-117763819D01*
X104065000Y-117623785D01*
X104065000Y-116360250D01*
X103969750Y-116265000D01*
X103406000Y-116265000D01*
X103152000Y-116265000D01*
X102588250Y-116265000D01*
X102493000Y-116360250D01*
X102135039Y-116360250D01*
X102117650Y-116318271D01*
X101828751Y-116029372D01*
X101589942Y-115930454D01*
X101318116Y-115658628D01*
X101276161Y-115595839D01*
X101123283Y-115493689D01*
X101123283Y-114728000D01*
X101108209Y-114652215D01*
X102493000Y-114652215D01*
X102493000Y-115915750D01*
X102588250Y-116011000D01*
X103152000Y-116011000D01*
X103152000Y-114442250D01*
X103406000Y-114442250D01*
X103406000Y-116011000D01*
X103969750Y-116011000D01*
X104065000Y-115915750D01*
X104065000Y-114652215D01*
X104006996Y-114512181D01*
X103899820Y-114405004D01*
X103759786Y-114347000D01*
X103501250Y-114347000D01*
X103406000Y-114442250D01*
X103152000Y-114442250D01*
X103056750Y-114347000D01*
X102798214Y-114347000D01*
X102658180Y-114405004D01*
X102551004Y-114512181D01*
X102493000Y-114652215D01*
X101108209Y-114652215D01*
X101074620Y-114483357D01*
X100936041Y-114275959D01*
X100728643Y-114137380D01*
X100484000Y-114088717D01*
X99674000Y-114088717D01*
X99429357Y-114137380D01*
X99221959Y-114275959D01*
X99083380Y-114483357D01*
X99034717Y-114728000D01*
X85118000Y-114728000D01*
X85118000Y-113185250D01*
X124356000Y-113185250D01*
X124356000Y-113948785D01*
X124414004Y-114088819D01*
X124521180Y-114195996D01*
X124661214Y-114254000D01*
X124824750Y-114254000D01*
X124920000Y-114158750D01*
X124920000Y-113090000D01*
X125174000Y-113090000D01*
X125174000Y-114158750D01*
X125269250Y-114254000D01*
X125432786Y-114254000D01*
X125572820Y-114195996D01*
X125679996Y-114088819D01*
X125738000Y-113948785D01*
X125738000Y-113185250D01*
X125642750Y-113090000D01*
X125174000Y-113090000D01*
X124920000Y-113090000D01*
X124451250Y-113090000D01*
X124356000Y-113185250D01*
X85118000Y-113185250D01*
X85118000Y-111977215D01*
X124356000Y-111977215D01*
X124356000Y-112740750D01*
X124451250Y-112836000D01*
X124920000Y-112836000D01*
X124920000Y-111767250D01*
X125174000Y-111767250D01*
X125174000Y-112836000D01*
X125642750Y-112836000D01*
X125738000Y-112740750D01*
X125738000Y-112053000D01*
X127297717Y-112053000D01*
X127297717Y-113873000D01*
X127346380Y-114117643D01*
X127484959Y-114325041D01*
X127692357Y-114463620D01*
X127937000Y-114512283D01*
X128557000Y-114512283D01*
X128801643Y-114463620D01*
X129009041Y-114325041D01*
X129147620Y-114117643D01*
X129196283Y-113873000D01*
X129196283Y-113607311D01*
X129225184Y-113588000D01*
X130428770Y-113588000D01*
X130502829Y-113602731D01*
X130576888Y-113588000D01*
X130576892Y-113588000D01*
X130796245Y-113544368D01*
X131044990Y-113378161D01*
X131086945Y-113315371D01*
X132063317Y-112339000D01*
X132231112Y-112339000D01*
X132608578Y-112182648D01*
X132897477Y-111893749D01*
X133053829Y-111516283D01*
X133053829Y-111322717D01*
X134764000Y-111322717D01*
X134764000Y-111731283D01*
X134920352Y-112108749D01*
X135209251Y-112397648D01*
X135586717Y-112554000D01*
X135900453Y-112554000D01*
X143900825Y-120554373D01*
X143942779Y-120617161D01*
X144191524Y-120783368D01*
X144410877Y-120827000D01*
X144410880Y-120827000D01*
X144484939Y-120841731D01*
X144558998Y-120827000D01*
X152116296Y-120827000D01*
X152249959Y-121027041D01*
X152457357Y-121165620D01*
X152702000Y-121214283D01*
X153602000Y-121214283D01*
X153846643Y-121165620D01*
X153952000Y-121095223D01*
X154057357Y-121165620D01*
X154302000Y-121214283D01*
X155202000Y-121214283D01*
X155446643Y-121165620D01*
X155654041Y-121027041D01*
X155787704Y-120827000D01*
X155813871Y-120827000D01*
X155817380Y-120844643D01*
X155955959Y-121052041D01*
X156163357Y-121190620D01*
X156408000Y-121239283D01*
X160208000Y-121239283D01*
X160452643Y-121190620D01*
X160660041Y-121052041D01*
X160798620Y-120844643D01*
X160847283Y-120600000D01*
X160847283Y-119550000D01*
X160798620Y-119305357D01*
X160660041Y-119097959D01*
X160452643Y-118959380D01*
X160208000Y-118910717D01*
X156408000Y-118910717D01*
X156163357Y-118959380D01*
X155955959Y-119097959D01*
X155817380Y-119305357D01*
X155813871Y-119323000D01*
X155787704Y-119323000D01*
X155654041Y-119122959D01*
X155446643Y-118984380D01*
X155202000Y-118935717D01*
X154302000Y-118935717D01*
X154057357Y-118984380D01*
X153952000Y-119054777D01*
X153846643Y-118984380D01*
X153602000Y-118935717D01*
X152702000Y-118935717D01*
X152457357Y-118984380D01*
X152249959Y-119122959D01*
X152116296Y-119323000D01*
X144796428Y-119323000D01*
X136818000Y-111344573D01*
X136818000Y-111322717D01*
X136809419Y-111302000D01*
X137086612Y-111302000D01*
X137464078Y-111145648D01*
X137582726Y-111027000D01*
X137688513Y-111027000D01*
X140498000Y-113836488D01*
X140498000Y-114004283D01*
X140654352Y-114381749D01*
X140943251Y-114670648D01*
X141320717Y-114827000D01*
X141729283Y-114827000D01*
X142106749Y-114670648D01*
X142395648Y-114381749D01*
X142552000Y-114004283D01*
X142552000Y-113595717D01*
X142395648Y-113218251D01*
X142106749Y-112929352D01*
X141729283Y-112773000D01*
X141561488Y-112773000D01*
X138584116Y-109795629D01*
X138542161Y-109732839D01*
X138293416Y-109566632D01*
X138074063Y-109523000D01*
X138074059Y-109523000D01*
X138000000Y-109508269D01*
X137925941Y-109523000D01*
X137582726Y-109523000D01*
X137464078Y-109404352D01*
X137086612Y-109248000D01*
X136678046Y-109248000D01*
X136300580Y-109404352D01*
X136011681Y-109693251D01*
X135855329Y-110070717D01*
X135855329Y-110479283D01*
X135863910Y-110500000D01*
X135586717Y-110500000D01*
X135209251Y-110656352D01*
X134920352Y-110945251D01*
X134764000Y-111322717D01*
X133053829Y-111322717D01*
X133053829Y-111107717D01*
X132897477Y-110730251D01*
X132608578Y-110441352D01*
X132231112Y-110285000D01*
X131822546Y-110285000D01*
X131445080Y-110441352D01*
X131156181Y-110730251D01*
X130999829Y-111107717D01*
X130999829Y-111275512D01*
X130191342Y-112084000D01*
X129196283Y-112084000D01*
X129196283Y-112053000D01*
X129147620Y-111808357D01*
X129009041Y-111600959D01*
X128801643Y-111462380D01*
X128557000Y-111413717D01*
X127937000Y-111413717D01*
X127692357Y-111462380D01*
X127484959Y-111600959D01*
X127346380Y-111808357D01*
X127297717Y-112053000D01*
X125738000Y-112053000D01*
X125738000Y-111977215D01*
X125679996Y-111837181D01*
X125572820Y-111730004D01*
X125432786Y-111672000D01*
X125269250Y-111672000D01*
X125174000Y-111767250D01*
X124920000Y-111767250D01*
X124824750Y-111672000D01*
X124661214Y-111672000D01*
X124521180Y-111730004D01*
X124414004Y-111837181D01*
X124356000Y-111977215D01*
X85118000Y-111977215D01*
X85118000Y-97400000D01*
X89185717Y-97400000D01*
X89185717Y-98300000D01*
X89234380Y-98544643D01*
X89304777Y-98650000D01*
X89234380Y-98755357D01*
X89185717Y-99000000D01*
X89185717Y-99900000D01*
X89234380Y-100144643D01*
X89372959Y-100352041D01*
X89580357Y-100490620D01*
X89825000Y-100539283D01*
X90592717Y-100539283D01*
X90592717Y-100842000D01*
X90641380Y-101086643D01*
X90779959Y-101294041D01*
X90987357Y-101432620D01*
X91232000Y-101481283D01*
X92757000Y-101481283D01*
X93001643Y-101432620D01*
X93209041Y-101294041D01*
X93347620Y-101086643D01*
X93396283Y-100842000D01*
X93396283Y-100192000D01*
X93378662Y-100103412D01*
X93545159Y-99992161D01*
X93587114Y-99929371D01*
X95579000Y-97937485D01*
X95578999Y-104045245D01*
X95564268Y-104119304D01*
X95578999Y-104193363D01*
X95578999Y-104193366D01*
X95622631Y-104412719D01*
X95788838Y-104661465D01*
X95851628Y-104703420D01*
X98445346Y-107297140D01*
X98445346Y-107464934D01*
X98601698Y-107842400D01*
X98890597Y-108131299D01*
X99268063Y-108287651D01*
X99676629Y-108287651D01*
X99993944Y-108156214D01*
X100280717Y-108275000D01*
X100689283Y-108275000D01*
X101066749Y-108118648D01*
X101355648Y-107829749D01*
X101512000Y-107452283D01*
X101512000Y-107043717D01*
X101355648Y-106666251D01*
X101066749Y-106377352D01*
X100773098Y-106255717D01*
X108602000Y-106255717D01*
X108602000Y-106664283D01*
X108758352Y-107041749D01*
X109047251Y-107330648D01*
X109424717Y-107487000D01*
X109833283Y-107487000D01*
X110210749Y-107330648D01*
X110499648Y-107041749D01*
X110656000Y-106664283D01*
X110656000Y-106281717D01*
X112412000Y-106281717D01*
X112412000Y-106690283D01*
X112568352Y-107067749D01*
X112857251Y-107356648D01*
X113234717Y-107513000D01*
X113402513Y-107513000D01*
X113946885Y-108057373D01*
X113959020Y-108075534D01*
X113970380Y-108132643D01*
X114108959Y-108340041D01*
X114316357Y-108478620D01*
X114561000Y-108527283D01*
X116381000Y-108527283D01*
X116625643Y-108478620D01*
X116833041Y-108340041D01*
X116971620Y-108132643D01*
X117020283Y-107888000D01*
X117020283Y-107268000D01*
X116971620Y-107023357D01*
X116833041Y-106815959D01*
X116625643Y-106677380D01*
X116381000Y-106628717D01*
X114645205Y-106628717D01*
X114466000Y-106449513D01*
X114466000Y-106281717D01*
X114309648Y-105904251D01*
X114020749Y-105615352D01*
X113643283Y-105459000D01*
X113234717Y-105459000D01*
X112857251Y-105615352D01*
X112568352Y-105904251D01*
X112412000Y-106281717D01*
X110656000Y-106281717D01*
X110656000Y-106255717D01*
X110499648Y-105878251D01*
X110381000Y-105759603D01*
X110381000Y-103741717D01*
X110888000Y-103741717D01*
X110888000Y-104150283D01*
X111044352Y-104527749D01*
X111333251Y-104816648D01*
X111710717Y-104973000D01*
X112119283Y-104973000D01*
X112496749Y-104816648D01*
X112713147Y-104600250D01*
X114180000Y-104600250D01*
X114180000Y-104763786D01*
X114238004Y-104903820D01*
X114345181Y-105010996D01*
X114485215Y-105069000D01*
X115248750Y-105069000D01*
X115344000Y-104973750D01*
X115344000Y-104505000D01*
X115598000Y-104505000D01*
X115598000Y-104973750D01*
X115693250Y-105069000D01*
X116456785Y-105069000D01*
X116596819Y-105010996D01*
X116703996Y-104903820D01*
X116762000Y-104763786D01*
X116762000Y-104600250D01*
X116666750Y-104505000D01*
X115598000Y-104505000D01*
X115344000Y-104505000D01*
X114275250Y-104505000D01*
X114180000Y-104600250D01*
X112713147Y-104600250D01*
X112785648Y-104527749D01*
X112829347Y-104422250D01*
X124026000Y-104422250D01*
X124026000Y-105185785D01*
X124084004Y-105325819D01*
X124191180Y-105432996D01*
X124331214Y-105491000D01*
X124494750Y-105491000D01*
X124590000Y-105395750D01*
X124590000Y-104327000D01*
X124844000Y-104327000D01*
X124844000Y-105395750D01*
X124939250Y-105491000D01*
X125072881Y-105491000D01*
X125029717Y-105708000D01*
X125029717Y-106248000D01*
X125078380Y-106492643D01*
X125216959Y-106700041D01*
X125333633Y-106778000D01*
X125216959Y-106855959D01*
X125078380Y-107063357D01*
X125029717Y-107308000D01*
X125029717Y-107848000D01*
X125078380Y-108092643D01*
X125216959Y-108300041D01*
X125424357Y-108438620D01*
X125669000Y-108487283D01*
X126609000Y-108487283D01*
X126853643Y-108438620D01*
X127016204Y-108330000D01*
X127521603Y-108330000D01*
X127589251Y-108397648D01*
X127966717Y-108554000D01*
X128375283Y-108554000D01*
X128752749Y-108397648D01*
X129041648Y-108108749D01*
X129198000Y-107731283D01*
X129198000Y-107322717D01*
X129041648Y-106945251D01*
X128897922Y-106801525D01*
X128944000Y-106690283D01*
X128944000Y-106629752D01*
X129236717Y-106751000D01*
X129645283Y-106751000D01*
X130022749Y-106594648D01*
X130311648Y-106305749D01*
X130468000Y-105928283D01*
X130468000Y-105519717D01*
X130311648Y-105142251D01*
X130175244Y-105005847D01*
X130214000Y-104912283D01*
X130214000Y-104503717D01*
X130057648Y-104126251D01*
X129768749Y-103837352D01*
X129391283Y-103681000D01*
X128982717Y-103681000D01*
X128866283Y-103729229D01*
X128866283Y-103290000D01*
X128817620Y-103045357D01*
X128679041Y-102837959D01*
X128471643Y-102699380D01*
X128227000Y-102650717D01*
X127607000Y-102650717D01*
X127362357Y-102699380D01*
X127154959Y-102837959D01*
X127016380Y-103045357D01*
X126967717Y-103290000D01*
X126967717Y-105110000D01*
X126986896Y-105206417D01*
X126853643Y-105117380D01*
X126609000Y-105068717D01*
X125669000Y-105068717D01*
X125424357Y-105117380D01*
X125408000Y-105128309D01*
X125408000Y-104422250D01*
X125312750Y-104327000D01*
X124844000Y-104327000D01*
X124590000Y-104327000D01*
X124121250Y-104327000D01*
X124026000Y-104422250D01*
X112829347Y-104422250D01*
X112942000Y-104150283D01*
X112942000Y-103992214D01*
X114180000Y-103992214D01*
X114180000Y-104155750D01*
X114275250Y-104251000D01*
X115344000Y-104251000D01*
X115344000Y-103782250D01*
X115598000Y-103782250D01*
X115598000Y-104251000D01*
X116666750Y-104251000D01*
X116762000Y-104155750D01*
X116762000Y-103992214D01*
X116703996Y-103852180D01*
X116596819Y-103745004D01*
X116456785Y-103687000D01*
X115693250Y-103687000D01*
X115598000Y-103782250D01*
X115344000Y-103782250D01*
X115248750Y-103687000D01*
X114485215Y-103687000D01*
X114345181Y-103745004D01*
X114238004Y-103852180D01*
X114180000Y-103992214D01*
X112942000Y-103992214D01*
X112942000Y-103741717D01*
X112785648Y-103364251D01*
X112635612Y-103214215D01*
X124026000Y-103214215D01*
X124026000Y-103977750D01*
X124121250Y-104073000D01*
X124590000Y-104073000D01*
X124590000Y-103004250D01*
X124844000Y-103004250D01*
X124844000Y-104073000D01*
X125312750Y-104073000D01*
X125408000Y-103977750D01*
X125408000Y-103214215D01*
X125349996Y-103074181D01*
X125242820Y-102967004D01*
X125102786Y-102909000D01*
X124939250Y-102909000D01*
X124844000Y-103004250D01*
X124590000Y-103004250D01*
X124494750Y-102909000D01*
X124331214Y-102909000D01*
X124191180Y-102967004D01*
X124084004Y-103074181D01*
X124026000Y-103214215D01*
X112635612Y-103214215D01*
X112496749Y-103075352D01*
X112119283Y-102919000D01*
X111710717Y-102919000D01*
X111333251Y-103075352D01*
X111044352Y-103364251D01*
X110888000Y-103741717D01*
X110381000Y-103741717D01*
X110381000Y-101717487D01*
X120424237Y-91674250D01*
X137386000Y-91674250D01*
X137386000Y-91827786D01*
X137444004Y-91967820D01*
X137551181Y-92074996D01*
X137691215Y-92133000D01*
X137854750Y-92133000D01*
X137950000Y-92037750D01*
X137950000Y-91579000D01*
X137481250Y-91579000D01*
X137386000Y-91674250D01*
X120424237Y-91674250D01*
X121866487Y-90232000D01*
X137127717Y-90232000D01*
X137127717Y-90832000D01*
X137176380Y-91076643D01*
X137314959Y-91284041D01*
X137522357Y-91422620D01*
X137767000Y-91471283D01*
X138224000Y-91471283D01*
X138224000Y-91579000D01*
X138204000Y-91579000D01*
X138204000Y-92037750D01*
X138299250Y-92133000D01*
X138462785Y-92133000D01*
X138497000Y-92118828D01*
X138497000Y-92149002D01*
X138592248Y-92149002D01*
X138497000Y-92244250D01*
X138497000Y-92572786D01*
X138555004Y-92712820D01*
X138662181Y-92819996D01*
X138802215Y-92878000D01*
X139530750Y-92878000D01*
X139626000Y-92782750D01*
X139626000Y-92149000D01*
X139880000Y-92149000D01*
X139880000Y-92782750D01*
X139975250Y-92878000D01*
X140703785Y-92878000D01*
X140843819Y-92819996D01*
X140950996Y-92712820D01*
X141009000Y-92572786D01*
X141009000Y-92244250D01*
X140913750Y-92149000D01*
X139880000Y-92149000D01*
X139626000Y-92149000D01*
X139606000Y-92149000D01*
X139606000Y-91895000D01*
X139626000Y-91895000D01*
X139626000Y-91261250D01*
X139880000Y-91261250D01*
X139880000Y-91895000D01*
X140913750Y-91895000D01*
X141009000Y-91799750D01*
X141009000Y-91471214D01*
X140950996Y-91331180D01*
X140843819Y-91224004D01*
X140703785Y-91166000D01*
X139975250Y-91166000D01*
X139880000Y-91261250D01*
X139626000Y-91261250D01*
X139530750Y-91166000D01*
X139347715Y-91166000D01*
X139485161Y-91074161D01*
X139527116Y-91011371D01*
X139702204Y-90836283D01*
X140628000Y-90836283D01*
X140872643Y-90787620D01*
X141080041Y-90649041D01*
X141091097Y-90632494D01*
X141305251Y-90846648D01*
X141682717Y-91003000D01*
X142091283Y-91003000D01*
X142468749Y-90846648D01*
X142757648Y-90557749D01*
X142914000Y-90180283D01*
X142914000Y-89771717D01*
X142757648Y-89394251D01*
X142468749Y-89105352D01*
X142091283Y-88949000D01*
X141682717Y-88949000D01*
X141656363Y-88959916D01*
X141633000Y-88955269D01*
X141558941Y-88970000D01*
X141197000Y-88970000D01*
X141080041Y-88794959D01*
X140872643Y-88656380D01*
X140628000Y-88607717D01*
X138878000Y-88607717D01*
X138633357Y-88656380D01*
X138425959Y-88794959D01*
X138287380Y-89002357D01*
X138238717Y-89247000D01*
X138238717Y-89592717D01*
X137767000Y-89592717D01*
X137522357Y-89641380D01*
X137314959Y-89779959D01*
X137176380Y-89987357D01*
X137127717Y-90232000D01*
X121866487Y-90232000D01*
X123266238Y-88832250D01*
X136878000Y-88832250D01*
X136878000Y-88985786D01*
X136936004Y-89125820D01*
X137043181Y-89232996D01*
X137183215Y-89291000D01*
X137346750Y-89291000D01*
X137442000Y-89195750D01*
X137442000Y-88737000D01*
X137696000Y-88737000D01*
X137696000Y-89195750D01*
X137791250Y-89291000D01*
X137954785Y-89291000D01*
X138094819Y-89232996D01*
X138201996Y-89125820D01*
X138260000Y-88985786D01*
X138260000Y-88832250D01*
X138164750Y-88737000D01*
X137696000Y-88737000D01*
X137442000Y-88737000D01*
X136973250Y-88737000D01*
X136878000Y-88832250D01*
X123266238Y-88832250D01*
X123635489Y-88463000D01*
X123803283Y-88463000D01*
X124180749Y-88306648D01*
X124469648Y-88017749D01*
X124626000Y-87640283D01*
X124626000Y-87390000D01*
X136619717Y-87390000D01*
X136619717Y-87990000D01*
X136668380Y-88234643D01*
X136806959Y-88442041D01*
X137014357Y-88580620D01*
X137259000Y-88629283D01*
X137879000Y-88629283D01*
X138123643Y-88580620D01*
X138331041Y-88442041D01*
X138409570Y-88324514D01*
X138425959Y-88349041D01*
X138633357Y-88487620D01*
X138878000Y-88536283D01*
X139620032Y-88536283D01*
X139753000Y-88562732D01*
X139885968Y-88536283D01*
X140628000Y-88536283D01*
X140872643Y-88487620D01*
X141080041Y-88349041D01*
X141218620Y-88141643D01*
X141267283Y-87897000D01*
X141267283Y-86947000D01*
X141218620Y-86702357D01*
X141080041Y-86494959D01*
X140872643Y-86356380D01*
X140628000Y-86307717D01*
X140607000Y-86307717D01*
X140607000Y-85342397D01*
X140725648Y-85223749D01*
X140882000Y-84846283D01*
X140882000Y-84437717D01*
X140725648Y-84060251D01*
X140436749Y-83771352D01*
X140059283Y-83615000D01*
X139650717Y-83615000D01*
X139273251Y-83771352D01*
X138984352Y-84060251D01*
X138828000Y-84437717D01*
X138828000Y-84846283D01*
X138984352Y-85223749D01*
X139001001Y-85240398D01*
X139001001Y-86307717D01*
X138878000Y-86307717D01*
X138633357Y-86356380D01*
X138425959Y-86494959D01*
X138309000Y-86670000D01*
X137911058Y-86670000D01*
X137836999Y-86655269D01*
X137762940Y-86670000D01*
X137762937Y-86670000D01*
X137543584Y-86713632D01*
X137488083Y-86750717D01*
X137259000Y-86750717D01*
X137014357Y-86799380D01*
X136806959Y-86937959D01*
X136668380Y-87145357D01*
X136619717Y-87390000D01*
X124626000Y-87390000D01*
X124626000Y-87231717D01*
X124469648Y-86854251D01*
X124180749Y-86565352D01*
X123803283Y-86409000D01*
X123394717Y-86409000D01*
X123017251Y-86565352D01*
X122728352Y-86854251D01*
X122572000Y-87231717D01*
X122572000Y-87399511D01*
X109149628Y-100821885D01*
X109086840Y-100863839D01*
X109044887Y-100926626D01*
X109044886Y-100926627D01*
X108920632Y-101112585D01*
X108862269Y-101406000D01*
X108877001Y-101480064D01*
X108877000Y-105759603D01*
X108758352Y-105878251D01*
X108602000Y-106255717D01*
X100773098Y-106255717D01*
X100689283Y-106221000D01*
X100521488Y-106221000D01*
X100126999Y-105826512D01*
X100126999Y-105761058D01*
X100141730Y-105687000D01*
X100126999Y-105612942D01*
X100126999Y-105612938D01*
X100083367Y-105393585D01*
X99971390Y-105226000D01*
X99959113Y-105207626D01*
X99959111Y-105207624D01*
X99917160Y-105144840D01*
X99854376Y-105102889D01*
X98170500Y-103419015D01*
X98170500Y-101481283D01*
X98181000Y-101481283D01*
X98425643Y-101432620D01*
X98633041Y-101294041D01*
X98771620Y-101086643D01*
X98820283Y-100842000D01*
X98820283Y-100719461D01*
X99078282Y-100826328D01*
X99486848Y-100826328D01*
X99864314Y-100669976D01*
X99875007Y-100659283D01*
X101220000Y-100659283D01*
X101257001Y-100651923D01*
X101257000Y-104515603D01*
X101138352Y-104634251D01*
X100982000Y-105011717D01*
X100982000Y-105420283D01*
X101138352Y-105797749D01*
X101427251Y-106086648D01*
X101804717Y-106243000D01*
X102213283Y-106243000D01*
X102590749Y-106086648D01*
X102879648Y-105797749D01*
X103036000Y-105420283D01*
X103036000Y-105011717D01*
X102879648Y-104634251D01*
X102761000Y-104515603D01*
X102761000Y-96908063D01*
X102775732Y-96834000D01*
X102717368Y-96540584D01*
X102551161Y-96291839D01*
X102302416Y-96125632D01*
X102083063Y-96082000D01*
X102009000Y-96067268D01*
X101934937Y-96082000D01*
X101812488Y-96082000D01*
X100099652Y-94369165D01*
X100099652Y-94201369D01*
X99943300Y-93823903D01*
X99817942Y-93698545D01*
X105074487Y-88442000D01*
X108674603Y-88442000D01*
X108793251Y-88560648D01*
X109170717Y-88717000D01*
X109579283Y-88717000D01*
X109956749Y-88560648D01*
X110245648Y-88271749D01*
X110402000Y-87894283D01*
X110402000Y-87485717D01*
X110245648Y-87108251D01*
X109956749Y-86819352D01*
X109579283Y-86663000D01*
X109170717Y-86663000D01*
X108793251Y-86819352D01*
X108674603Y-86938000D01*
X106716054Y-86938000D01*
X106846000Y-86624283D01*
X106846000Y-86215717D01*
X106689648Y-85838251D01*
X106400749Y-85549352D01*
X106023283Y-85393000D01*
X105614717Y-85393000D01*
X105237251Y-85549352D01*
X105103544Y-85683059D01*
X104959899Y-85711632D01*
X104711154Y-85877839D01*
X104669200Y-85940627D01*
X95697612Y-94912215D01*
X95649000Y-94863603D01*
X95649000Y-91303487D01*
X95695487Y-91257000D01*
X95863283Y-91257000D01*
X96240749Y-91100648D01*
X96529648Y-90811749D01*
X96686000Y-90434283D01*
X96686000Y-90025717D01*
X96529648Y-89648251D01*
X96240749Y-89359352D01*
X95863283Y-89203000D01*
X95454717Y-89203000D01*
X95077251Y-89359352D01*
X94788352Y-89648251D01*
X94632000Y-90025717D01*
X94632000Y-90193513D01*
X94417629Y-90407884D01*
X94354839Y-90449839D01*
X94188632Y-90698585D01*
X94145000Y-90917938D01*
X94145000Y-90917941D01*
X94130269Y-90992000D01*
X94145000Y-91066059D01*
X94145001Y-94863602D01*
X94026352Y-94982251D01*
X93870000Y-95359717D01*
X93870000Y-95768283D01*
X94026352Y-96145749D01*
X94245215Y-96364612D01*
X93384828Y-97225000D01*
X93357893Y-97225000D01*
X93396283Y-97032000D01*
X93396283Y-96382000D01*
X93347620Y-96137357D01*
X93209041Y-95929959D01*
X93001643Y-95791380D01*
X92757000Y-95742717D01*
X91232000Y-95742717D01*
X90987357Y-95791380D01*
X90779959Y-95929959D01*
X90641380Y-96137357D01*
X90592717Y-96382000D01*
X90592717Y-96760717D01*
X89825000Y-96760717D01*
X89580357Y-96809380D01*
X89372959Y-96947959D01*
X89234380Y-97155357D01*
X89185717Y-97400000D01*
X85118000Y-97400000D01*
X85118000Y-89771717D01*
X88536000Y-89771717D01*
X88536000Y-90180283D01*
X88692352Y-90557749D01*
X88981251Y-90846648D01*
X89358717Y-91003000D01*
X89767283Y-91003000D01*
X90144749Y-90846648D01*
X90433648Y-90557749D01*
X90590000Y-90180283D01*
X90590000Y-89771717D01*
X90433648Y-89394251D01*
X90144749Y-89105352D01*
X89767283Y-88949000D01*
X89358717Y-88949000D01*
X88981251Y-89105352D01*
X88692352Y-89394251D01*
X88536000Y-89771717D01*
X85118000Y-89771717D01*
X85118000Y-75371000D01*
X135283000Y-75371000D01*
X135331601Y-75361333D01*
X135372803Y-75333803D01*
X135400333Y-75292601D01*
X135410000Y-75244000D01*
X135410000Y-74450250D01*
X156161000Y-74450250D01*
X156161000Y-74828786D01*
X156219004Y-74968820D01*
X156326181Y-75075996D01*
X156466215Y-75134000D01*
X158219750Y-75134000D01*
X158315000Y-75038750D01*
X158315000Y-74355000D01*
X158569000Y-74355000D01*
X158569000Y-75038750D01*
X158664250Y-75134000D01*
X160417785Y-75134000D01*
X160557819Y-75075996D01*
X160664996Y-74968820D01*
X160723000Y-74828786D01*
X160723000Y-74450250D01*
X160627750Y-74355000D01*
X158569000Y-74355000D01*
X158315000Y-74355000D01*
X156256250Y-74355000D01*
X156161000Y-74450250D01*
X135410000Y-74450250D01*
X135410000Y-73627214D01*
X156161000Y-73627214D01*
X156161000Y-74005750D01*
X156256250Y-74101000D01*
X158315000Y-74101000D01*
X158315000Y-73417250D01*
X158569000Y-73417250D01*
X158569000Y-74101000D01*
X160627750Y-74101000D01*
X160723000Y-74005750D01*
X160723000Y-73627214D01*
X160664996Y-73487180D01*
X160557819Y-73380004D01*
X160417785Y-73322000D01*
X158664250Y-73322000D01*
X158569000Y-73417250D01*
X158315000Y-73417250D01*
X158219750Y-73322000D01*
X156466215Y-73322000D01*
X156326181Y-73380004D01*
X156219004Y-73487180D01*
X156161000Y-73627214D01*
X135410000Y-73627214D01*
X135410000Y-57050000D01*
X155760717Y-57050000D01*
X155760717Y-58250000D01*
X155809380Y-58494643D01*
X155947959Y-58702041D01*
X156155357Y-58840620D01*
X156400000Y-58889283D01*
X157600000Y-58889283D01*
X157844643Y-58840620D01*
X158052041Y-58702041D01*
X158190620Y-58494643D01*
X158239283Y-58250000D01*
X158239283Y-57050000D01*
X158190620Y-56805357D01*
X158052041Y-56597959D01*
X157844643Y-56459380D01*
X157600000Y-56410717D01*
X156400000Y-56410717D01*
X156155357Y-56459380D01*
X155947959Y-56597959D01*
X155809380Y-56805357D01*
X155760717Y-57050000D01*
X135410000Y-57050000D01*
X135410000Y-53373379D01*
X156456226Y-53373379D01*
X156519590Y-53527294D01*
X156891885Y-53644359D01*
X157280639Y-53610042D01*
X157480410Y-53527294D01*
X157543774Y-53373379D01*
X157000000Y-52829605D01*
X156456226Y-53373379D01*
X135410000Y-53373379D01*
X135410000Y-52541885D01*
X156005641Y-52541885D01*
X156039958Y-52930639D01*
X156122706Y-53130410D01*
X156276621Y-53193774D01*
X156820395Y-52650000D01*
X157179605Y-52650000D01*
X157723379Y-53193774D01*
X157877294Y-53130410D01*
X157994359Y-52758115D01*
X157960042Y-52369361D01*
X157877294Y-52169590D01*
X157723379Y-52106226D01*
X157179605Y-52650000D01*
X156820395Y-52650000D01*
X156276621Y-52106226D01*
X156122706Y-52169590D01*
X156005641Y-52541885D01*
X135410000Y-52541885D01*
X135410000Y-51926621D01*
X156456226Y-51926621D01*
X157000000Y-52470395D01*
X157543774Y-51926621D01*
X157480410Y-51772706D01*
X157108115Y-51655641D01*
X156719361Y-51689958D01*
X156519590Y-51772706D01*
X156456226Y-51926621D01*
X135410000Y-51926621D01*
X135410000Y-49523379D01*
X156506226Y-49523379D01*
X156569590Y-49677294D01*
X156941885Y-49794359D01*
X157330639Y-49760042D01*
X157530410Y-49677294D01*
X157593774Y-49523379D01*
X157050000Y-48979605D01*
X156506226Y-49523379D01*
X135410000Y-49523379D01*
X135410000Y-48691885D01*
X156055641Y-48691885D01*
X156089958Y-49080639D01*
X156172706Y-49280410D01*
X156326621Y-49343774D01*
X156870395Y-48800000D01*
X157229605Y-48800000D01*
X157773379Y-49343774D01*
X157927294Y-49280410D01*
X158044359Y-48908115D01*
X158010042Y-48519361D01*
X157927294Y-48319590D01*
X157773379Y-48256226D01*
X157229605Y-48800000D01*
X156870395Y-48800000D01*
X156326621Y-48256226D01*
X156172706Y-48319590D01*
X156055641Y-48691885D01*
X135410000Y-48691885D01*
X135410000Y-48076621D01*
X156506226Y-48076621D01*
X157050000Y-48620395D01*
X157593774Y-48076621D01*
X157530410Y-47922706D01*
X157158115Y-47805641D01*
X156769361Y-47839958D01*
X156569590Y-47922706D01*
X156506226Y-48076621D01*
X135410000Y-48076621D01*
X135410000Y-37525000D01*
X164112000Y-37525000D01*
X164112000Y-38481758D01*
X164112000Y-38481758D01*
G37*
X164112000Y-38481758D02*
X164008356Y-38326644D01*
X163804943Y-38190728D01*
X163565000Y-38143000D01*
X139595000Y-38143000D01*
X139319946Y-38206551D01*
X139125261Y-38354700D01*
X139002089Y-38566074D01*
X138969183Y-38808494D01*
X139474183Y-47018494D01*
X139521460Y-47221703D01*
X139657994Y-47424702D01*
X139861820Y-47559999D01*
X140101907Y-47606997D01*
X159203727Y-47548907D01*
X159217278Y-59257199D01*
X147920792Y-59333014D01*
X147685057Y-59380728D01*
X147481644Y-59516644D01*
X147345728Y-59720057D01*
X147298000Y-59960000D01*
X147298000Y-66080000D01*
X147346498Y-66321793D01*
X147483064Y-66524771D01*
X147686911Y-66660037D01*
X147927004Y-66706997D01*
X163567004Y-66656997D01*
X163804943Y-66609272D01*
X164008356Y-66473356D01*
X164144272Y-66269943D01*
X164192000Y-66030000D01*
X164192000Y-65709651D01*
X164239000Y-65719000D01*
X164527340Y-65719000D01*
X164420377Y-65794154D01*
X164289264Y-66000696D01*
X164247172Y-66241691D01*
X164475350Y-75977275D01*
X164311054Y-76087054D01*
X164102301Y-76399475D01*
X164053948Y-76642563D01*
X160981283Y-79715228D01*
X160981283Y-78783000D01*
X160932620Y-78538357D01*
X160794041Y-78330959D01*
X160586643Y-78192380D01*
X160342000Y-78143717D01*
X156542000Y-78143717D01*
X156297357Y-78192380D01*
X156089959Y-78330959D01*
X155951380Y-78538357D01*
X155947871Y-78556000D01*
X155660704Y-78556000D01*
X155527041Y-78355959D01*
X155319643Y-78217380D01*
X155075000Y-78168717D01*
X154175000Y-78168717D01*
X153930357Y-78217380D01*
X153825000Y-78287777D01*
X153719643Y-78217380D01*
X153475000Y-78168717D01*
X152575000Y-78168717D01*
X152330357Y-78217380D01*
X152122959Y-78355959D01*
X151984380Y-78563357D01*
X151935717Y-78808000D01*
X151935717Y-79808000D01*
X151984380Y-80052643D01*
X152122959Y-80260041D01*
X152273001Y-80360296D01*
X152273000Y-86203515D01*
X147567283Y-90909233D01*
X147567283Y-88122000D01*
X147518620Y-87877357D01*
X147380041Y-87669959D01*
X147172643Y-87531380D01*
X146928000Y-87482717D01*
X145178000Y-87482717D01*
X144933357Y-87531380D01*
X144725959Y-87669959D01*
X144587380Y-87877357D01*
X144538717Y-88122000D01*
X144538717Y-91322000D01*
X144587380Y-91566643D01*
X144725959Y-91774041D01*
X144933357Y-91912620D01*
X145178000Y-91961283D01*
X146515233Y-91961283D01*
X140411881Y-98064636D01*
X140399997Y-98062272D01*
X140325938Y-98077003D01*
X140325934Y-98077003D01*
X140106581Y-98120635D01*
X139857836Y-98286842D01*
X139815882Y-98349630D01*
X135565629Y-102599884D01*
X135502839Y-102641839D01*
X135336632Y-102890585D01*
X135293000Y-103109938D01*
X135293000Y-103109941D01*
X135278269Y-103184000D01*
X135293000Y-103258059D01*
X135293001Y-105159767D01*
X135279118Y-105252073D01*
X135310905Y-105380074D01*
X135336633Y-105509416D01*
X135346807Y-105524642D01*
X135351221Y-105542417D01*
X135429576Y-105648514D01*
X135502840Y-105758161D01*
X135580449Y-105810018D01*
X135855329Y-106060169D01*
X135855329Y-106182283D01*
X136011681Y-106559749D01*
X136300580Y-106848648D01*
X136344886Y-106867000D01*
X136300580Y-106885352D01*
X136011681Y-107174251D01*
X135855329Y-107551717D01*
X135855329Y-107960283D01*
X136011681Y-108337749D01*
X136300580Y-108626648D01*
X136678046Y-108783000D01*
X136867138Y-108783000D01*
X136988912Y-108864367D01*
X137208265Y-108907999D01*
X137208268Y-108907999D01*
X137282327Y-108922730D01*
X137356386Y-108907999D01*
X143968943Y-108907999D01*
X144043002Y-108922730D01*
X144117061Y-108907999D01*
X144117065Y-108907999D01*
X144336418Y-108864367D01*
X144585163Y-108698160D01*
X144627118Y-108635370D01*
X149326490Y-103936000D01*
X164979717Y-103936000D01*
X164979717Y-104235613D01*
X164858143Y-104154380D01*
X164613500Y-104105717D01*
X164163500Y-104105717D01*
X164063500Y-104125608D01*
X163963500Y-104105717D01*
X163513500Y-104105717D01*
X163413500Y-104125608D01*
X163313500Y-104105717D01*
X162863500Y-104105717D01*
X162763500Y-104125608D01*
X162663500Y-104105717D01*
X162213500Y-104105717D01*
X161968857Y-104154380D01*
X161761459Y-104292959D01*
X161622880Y-104500357D01*
X161579588Y-104718000D01*
X159892057Y-104718000D01*
X159817998Y-104703269D01*
X159743939Y-104718000D01*
X159743935Y-104718000D01*
X159524582Y-104761632D01*
X159344440Y-104882000D01*
X159275837Y-104927839D01*
X159233883Y-104990627D01*
X158968628Y-105255883D01*
X158905838Y-105297838D01*
X158739631Y-105546584D01*
X158695999Y-105765937D01*
X158695999Y-105765940D01*
X158681268Y-105839999D01*
X158695999Y-105914058D01*
X158696000Y-110350858D01*
X158684920Y-110462747D01*
X158717619Y-110570749D01*
X158739632Y-110681417D01*
X158760647Y-110712868D01*
X158771609Y-110749075D01*
X158843150Y-110836342D01*
X158905839Y-110930162D01*
X158999326Y-110992628D01*
X160627596Y-112330369D01*
X160648839Y-112362161D01*
X160742322Y-112424624D01*
X160770853Y-112448065D01*
X160803762Y-112465678D01*
X160897584Y-112528368D01*
X160934686Y-112535748D01*
X160968038Y-112553598D01*
X161080325Y-112564717D01*
X161116937Y-112572000D01*
X161153867Y-112572000D01*
X161265746Y-112583079D01*
X161302339Y-112572000D01*
X164015196Y-112572000D01*
X164266368Y-112576561D01*
X164397819Y-116783000D01*
X148184898Y-116783000D01*
X146737318Y-115217250D01*
X156027000Y-115217250D01*
X156027000Y-115595786D01*
X156085004Y-115735820D01*
X156192181Y-115842996D01*
X156332215Y-115901000D01*
X158085750Y-115901000D01*
X158181000Y-115805750D01*
X158181000Y-115122000D01*
X158435000Y-115122000D01*
X158435000Y-115805750D01*
X158530250Y-115901000D01*
X160283785Y-115901000D01*
X160423819Y-115842996D01*
X160530996Y-115735820D01*
X160589000Y-115595786D01*
X160589000Y-115217250D01*
X160493750Y-115122000D01*
X158435000Y-115122000D01*
X158181000Y-115122000D01*
X156122250Y-115122000D01*
X156027000Y-115217250D01*
X146737318Y-115217250D01*
X145976398Y-114394214D01*
X156027000Y-114394214D01*
X156027000Y-114772750D01*
X156122250Y-114868000D01*
X158181000Y-114868000D01*
X158181000Y-114184250D01*
X158435000Y-114184250D01*
X158435000Y-114868000D01*
X160493750Y-114868000D01*
X160589000Y-114772750D01*
X160589000Y-114394214D01*
X160530996Y-114254180D01*
X160423819Y-114147004D01*
X160283785Y-114089000D01*
X158530250Y-114089000D01*
X158435000Y-114184250D01*
X158181000Y-114184250D01*
X158085750Y-114089000D01*
X156332215Y-114089000D01*
X156192181Y-114147004D01*
X156085004Y-114254180D01*
X156027000Y-114394214D01*
X145976398Y-114394214D01*
X142660000Y-110807091D01*
X142660000Y-110599717D01*
X142503648Y-110222251D01*
X142214749Y-109933352D01*
X141837283Y-109777000D01*
X141428717Y-109777000D01*
X141051251Y-109933352D01*
X140762352Y-110222251D01*
X140606000Y-110599717D01*
X140606000Y-111008283D01*
X140762352Y-111385749D01*
X141051251Y-111674648D01*
X141428717Y-111831000D01*
X141558348Y-111831000D01*
X147263635Y-118002025D01*
X147313839Y-118077161D01*
X147425956Y-118152076D01*
X147535052Y-118231326D01*
X147549892Y-118234888D01*
X147562584Y-118243368D01*
X147694855Y-118269678D01*
X147825955Y-118301142D01*
X147915202Y-118287000D01*
X164444819Y-118287000D01*
X164468717Y-119051736D01*
X164468717Y-122910000D01*
X164517380Y-123154643D01*
X164600836Y-123279544D01*
X164607960Y-123507508D01*
X164423000Y-123470717D01*
X163973000Y-123470717D01*
X163873000Y-123490608D01*
X163773000Y-123470717D01*
X163323000Y-123470717D01*
X163223000Y-123490608D01*
X163123000Y-123470717D01*
X162980002Y-123470717D01*
X162980002Y-123172717D01*
X162823650Y-122795251D01*
X162534751Y-122506352D01*
X162157285Y-122350000D01*
X161748719Y-122350000D01*
X161371253Y-122506352D01*
X161082354Y-122795251D01*
X160926002Y-123172717D01*
X160926002Y-123340513D01*
X160752515Y-123514000D01*
X157328057Y-123514000D01*
X157253999Y-123499269D01*
X157179941Y-123514000D01*
X157179937Y-123514000D01*
X156960584Y-123557632D01*
X156902470Y-123596463D01*
X156774625Y-123681886D01*
X156774623Y-123681888D01*
X156711839Y-123723839D01*
X156669887Y-123786624D01*
X152370513Y-128086000D01*
X124291488Y-128086000D01*
X120054000Y-123848513D01*
X120054000Y-123553717D01*
X119897648Y-123176251D01*
X119608749Y-122887352D01*
X119231283Y-122731000D01*
X118822717Y-122731000D01*
X118445251Y-122887352D01*
X118156352Y-123176251D01*
X118143285Y-123207797D01*
X115735769Y-120800282D01*
X115693814Y-120737492D01*
X115445069Y-120571285D01*
X115225716Y-120527653D01*
X115225712Y-120527653D01*
X115151653Y-120512922D01*
X115077594Y-120527653D01*
X110394744Y-120527653D01*
X110212596Y-120345505D01*
X109835130Y-120189153D01*
X109426564Y-120189153D01*
X109159675Y-120299702D01*
X109159675Y-117924812D01*
X109919488Y-117165000D01*
X110087283Y-117165000D01*
X110464749Y-117008648D01*
X110753648Y-116719749D01*
X110866885Y-116446370D01*
X114185347Y-116446370D01*
X114185347Y-116854936D01*
X114341699Y-117232402D01*
X114630598Y-117521301D01*
X115008064Y-117677653D01*
X115416630Y-117677653D01*
X115794096Y-117521301D01*
X116082995Y-117232402D01*
X116239347Y-116854936D01*
X116239347Y-116446370D01*
X116082995Y-116068904D01*
X115794096Y-115780005D01*
X115416630Y-115623653D01*
X115008064Y-115623653D01*
X114630598Y-115780005D01*
X114341699Y-116068904D01*
X114185347Y-116446370D01*
X110866885Y-116446370D01*
X110910000Y-116342283D01*
X110910000Y-115933717D01*
X110753648Y-115556251D01*
X110464749Y-115267352D01*
X110087283Y-115111000D01*
X109678717Y-115111000D01*
X109301251Y-115267352D01*
X109012352Y-115556251D01*
X108856000Y-115933717D01*
X108856000Y-116101512D01*
X107928302Y-117029211D01*
X107865515Y-117071164D01*
X107823562Y-117133951D01*
X107823561Y-117133952D01*
X107699307Y-117319910D01*
X107640944Y-117613325D01*
X107655676Y-117687389D01*
X107655675Y-123281618D01*
X107640944Y-123355677D01*
X107655675Y-123429736D01*
X107655675Y-123429739D01*
X107699307Y-123649092D01*
X107865514Y-123897838D01*
X107928304Y-123939793D01*
X112760886Y-128772377D01*
X112802838Y-128835162D01*
X112865622Y-128877113D01*
X112865625Y-128877116D01*
X113030511Y-128987289D01*
X113051583Y-129001369D01*
X113270936Y-129045001D01*
X113270940Y-129045001D01*
X113344999Y-129059732D01*
X113419058Y-129045001D01*
X114360514Y-129045001D01*
X115714000Y-130398488D01*
X115714000Y-130566283D01*
X115870352Y-130943749D01*
X116159251Y-131232648D01*
X116536717Y-131389000D01*
X116704513Y-131389000D01*
X117677175Y-132361663D01*
X117551810Y-132487028D01*
X117395458Y-132864494D01*
X117395458Y-133273060D01*
X117456323Y-133420000D01*
X116798488Y-133420000D01*
X114466000Y-131087513D01*
X114466000Y-130919717D01*
X114309648Y-130542251D01*
X114020749Y-130253352D01*
X113643283Y-130097000D01*
X113234717Y-130097000D01*
X112857251Y-130253352D01*
X112568352Y-130542251D01*
X112412000Y-130919717D01*
X112412000Y-131328283D01*
X112568352Y-131705749D01*
X112857251Y-131994648D01*
X113234717Y-132151000D01*
X113402513Y-132151000D01*
X115902885Y-134651373D01*
X115944839Y-134714161D01*
X116193584Y-134880368D01*
X116412937Y-134924000D01*
X116412941Y-134924000D01*
X116487000Y-134938731D01*
X116561059Y-134924000D01*
X119016000Y-134924000D01*
X119016000Y-135138283D01*
X119172352Y-135515749D01*
X119461251Y-135804648D01*
X119505557Y-135823000D01*
X85118000Y-135823000D01*
X85118000Y-124076250D01*
X99369000Y-124076250D01*
X99369000Y-124479786D01*
X99427004Y-124619820D01*
X99534181Y-124726996D01*
X99674215Y-124785000D01*
X100262750Y-124785000D01*
X100358000Y-124689750D01*
X100358000Y-123981000D01*
X100612000Y-123981000D01*
X100612000Y-124689750D01*
X100707250Y-124785000D01*
X101295785Y-124785000D01*
X101435819Y-124726996D01*
X101542996Y-124619820D01*
X101601000Y-124479786D01*
X101601000Y-124076250D01*
X101909000Y-124076250D01*
X101909000Y-124479786D01*
X101967004Y-124619820D01*
X102074181Y-124726996D01*
X102214215Y-124785000D01*
X102802750Y-124785000D01*
X102898000Y-124689750D01*
X102898000Y-123981000D01*
X103152000Y-123981000D01*
X103152000Y-124689750D01*
X103247250Y-124785000D01*
X103835785Y-124785000D01*
X103975819Y-124726996D01*
X104082996Y-124619820D01*
X104141000Y-124479786D01*
X104141000Y-124076250D01*
X104045750Y-123981000D01*
X103152000Y-123981000D01*
X102898000Y-123981000D01*
X102004250Y-123981000D01*
X101909000Y-124076250D01*
X101601000Y-124076250D01*
X101505750Y-123981000D01*
X100612000Y-123981000D01*
X100358000Y-123981000D01*
X99464250Y-123981000D01*
X99369000Y-124076250D01*
X85118000Y-124076250D01*
X85118000Y-120251717D01*
X98442000Y-120251717D01*
X98442000Y-120660283D01*
X98598352Y-121037749D01*
X98714933Y-121154330D01*
X98702269Y-121218000D01*
X98717000Y-121292059D01*
X98717000Y-121292063D01*
X98723880Y-121326648D01*
X98760632Y-121511415D01*
X98881188Y-121691839D01*
X98926840Y-121760161D01*
X98989627Y-121802114D01*
X99110717Y-121923204D01*
X99110717Y-122784000D01*
X99159380Y-123028643D01*
X99297959Y-123236041D01*
X99369000Y-123283509D01*
X99369000Y-123631750D01*
X99464250Y-123727000D01*
X100358000Y-123727000D01*
X100358000Y-123707000D01*
X100612000Y-123707000D01*
X100612000Y-123727000D01*
X101505750Y-123727000D01*
X101601000Y-123631750D01*
X101601000Y-123283509D01*
X101672041Y-123236041D01*
X101755000Y-123111884D01*
X101837959Y-123236041D01*
X101909000Y-123283509D01*
X101909000Y-123631750D01*
X102004250Y-123727000D01*
X102898000Y-123727000D01*
X102898000Y-123707000D01*
X103152000Y-123707000D01*
X103152000Y-123727000D01*
X104045750Y-123727000D01*
X104141000Y-123631750D01*
X104141000Y-123283509D01*
X104212041Y-123236041D01*
X104350620Y-123028643D01*
X104399283Y-122784000D01*
X104399283Y-121684000D01*
X104350620Y-121439357D01*
X104212041Y-121231959D01*
X104004643Y-121093380D01*
X103760000Y-121044717D01*
X102290000Y-121044717D01*
X102045357Y-121093380D01*
X101837959Y-121231959D01*
X101755000Y-121356116D01*
X101672041Y-121231959D01*
X101464643Y-121093380D01*
X101220000Y-121044717D01*
X100359204Y-121044717D01*
X100343335Y-121028848D01*
X100496000Y-120660283D01*
X100496000Y-120251717D01*
X100339648Y-119874251D01*
X100050749Y-119585352D01*
X99673283Y-119429000D01*
X99264717Y-119429000D01*
X98887251Y-119585352D01*
X98598352Y-119874251D01*
X98442000Y-120251717D01*
X85118000Y-120251717D01*
X85118000Y-117203717D01*
X93616000Y-117203717D01*
X93616000Y-117612283D01*
X93772352Y-117989749D01*
X94061251Y-118278648D01*
X94438717Y-118435000D01*
X94847283Y-118435000D01*
X95224749Y-118278648D01*
X95513648Y-117989749D01*
X95670000Y-117612283D01*
X95670000Y-117203717D01*
X95513648Y-116826251D01*
X95224749Y-116537352D01*
X94847283Y-116381000D01*
X94438717Y-116381000D01*
X94061251Y-116537352D01*
X93772352Y-116826251D01*
X93616000Y-117203717D01*
X85118000Y-117203717D01*
X85118000Y-114728000D01*
X99034717Y-114728000D01*
X99034717Y-117548000D01*
X99083380Y-117792643D01*
X99221959Y-118000041D01*
X99429357Y-118138620D01*
X99674000Y-118187283D01*
X100484000Y-118187283D01*
X100728643Y-118138620D01*
X100936041Y-118000041D01*
X100997380Y-117908240D01*
X101042719Y-117927020D01*
X101451285Y-117927020D01*
X101828751Y-117770668D01*
X102117650Y-117481769D01*
X102274002Y-117104303D01*
X102274002Y-116695737D01*
X102135039Y-116360250D01*
X102493000Y-116360250D01*
X102493000Y-117623785D01*
X102551004Y-117763819D01*
X102658180Y-117870996D01*
X102798214Y-117929000D01*
X103056750Y-117929000D01*
X103152000Y-117833750D01*
X103152000Y-116265000D01*
X103406000Y-116265000D01*
X103406000Y-117833750D01*
X103501250Y-117929000D01*
X103759786Y-117929000D01*
X103899820Y-117870996D01*
X104006996Y-117763819D01*
X104065000Y-117623785D01*
X104065000Y-116360250D01*
X103969750Y-116265000D01*
X103406000Y-116265000D01*
X103152000Y-116265000D01*
X102588250Y-116265000D01*
X102493000Y-116360250D01*
X102135039Y-116360250D01*
X102117650Y-116318271D01*
X101828751Y-116029372D01*
X101589942Y-115930454D01*
X101318116Y-115658628D01*
X101276161Y-115595839D01*
X101123283Y-115493689D01*
X101123283Y-114728000D01*
X101108209Y-114652215D01*
X102493000Y-114652215D01*
X102493000Y-115915750D01*
X102588250Y-116011000D01*
X103152000Y-116011000D01*
X103152000Y-114442250D01*
X103406000Y-114442250D01*
X103406000Y-116011000D01*
X103969750Y-116011000D01*
X104065000Y-115915750D01*
X104065000Y-114652215D01*
X104006996Y-114512181D01*
X103899820Y-114405004D01*
X103759786Y-114347000D01*
X103501250Y-114347000D01*
X103406000Y-114442250D01*
X103152000Y-114442250D01*
X103056750Y-114347000D01*
X102798214Y-114347000D01*
X102658180Y-114405004D01*
X102551004Y-114512181D01*
X102493000Y-114652215D01*
X101108209Y-114652215D01*
X101074620Y-114483357D01*
X100936041Y-114275959D01*
X100728643Y-114137380D01*
X100484000Y-114088717D01*
X99674000Y-114088717D01*
X99429357Y-114137380D01*
X99221959Y-114275959D01*
X99083380Y-114483357D01*
X99034717Y-114728000D01*
X85118000Y-114728000D01*
X85118000Y-113185250D01*
X124356000Y-113185250D01*
X124356000Y-113948785D01*
X124414004Y-114088819D01*
X124521180Y-114195996D01*
X124661214Y-114254000D01*
X124824750Y-114254000D01*
X124920000Y-114158750D01*
X124920000Y-113090000D01*
X125174000Y-113090000D01*
X125174000Y-114158750D01*
X125269250Y-114254000D01*
X125432786Y-114254000D01*
X125572820Y-114195996D01*
X125679996Y-114088819D01*
X125738000Y-113948785D01*
X125738000Y-113185250D01*
X125642750Y-113090000D01*
X125174000Y-113090000D01*
X124920000Y-113090000D01*
X124451250Y-113090000D01*
X124356000Y-113185250D01*
X85118000Y-113185250D01*
X85118000Y-111977215D01*
X124356000Y-111977215D01*
X124356000Y-112740750D01*
X124451250Y-112836000D01*
X124920000Y-112836000D01*
X124920000Y-111767250D01*
X125174000Y-111767250D01*
X125174000Y-112836000D01*
X125642750Y-112836000D01*
X125738000Y-112740750D01*
X125738000Y-112053000D01*
X127297717Y-112053000D01*
X127297717Y-113873000D01*
X127346380Y-114117643D01*
X127484959Y-114325041D01*
X127692357Y-114463620D01*
X127937000Y-114512283D01*
X128557000Y-114512283D01*
X128801643Y-114463620D01*
X129009041Y-114325041D01*
X129147620Y-114117643D01*
X129196283Y-113873000D01*
X129196283Y-113607311D01*
X129225184Y-113588000D01*
X130428770Y-113588000D01*
X130502829Y-113602731D01*
X130576888Y-113588000D01*
X130576892Y-113588000D01*
X130796245Y-113544368D01*
X131044990Y-113378161D01*
X131086945Y-113315371D01*
X132063317Y-112339000D01*
X132231112Y-112339000D01*
X132608578Y-112182648D01*
X132897477Y-111893749D01*
X133053829Y-111516283D01*
X133053829Y-111322717D01*
X134764000Y-111322717D01*
X134764000Y-111731283D01*
X134920352Y-112108749D01*
X135209251Y-112397648D01*
X135586717Y-112554000D01*
X135900453Y-112554000D01*
X143900825Y-120554373D01*
X143942779Y-120617161D01*
X144191524Y-120783368D01*
X144410877Y-120827000D01*
X144410880Y-120827000D01*
X144484939Y-120841731D01*
X144558998Y-120827000D01*
X152116296Y-120827000D01*
X152249959Y-121027041D01*
X152457357Y-121165620D01*
X152702000Y-121214283D01*
X153602000Y-121214283D01*
X153846643Y-121165620D01*
X153952000Y-121095223D01*
X154057357Y-121165620D01*
X154302000Y-121214283D01*
X155202000Y-121214283D01*
X155446643Y-121165620D01*
X155654041Y-121027041D01*
X155787704Y-120827000D01*
X155813871Y-120827000D01*
X155817380Y-120844643D01*
X155955959Y-121052041D01*
X156163357Y-121190620D01*
X156408000Y-121239283D01*
X160208000Y-121239283D01*
X160452643Y-121190620D01*
X160660041Y-121052041D01*
X160798620Y-120844643D01*
X160847283Y-120600000D01*
X160847283Y-119550000D01*
X160798620Y-119305357D01*
X160660041Y-119097959D01*
X160452643Y-118959380D01*
X160208000Y-118910717D01*
X156408000Y-118910717D01*
X156163357Y-118959380D01*
X155955959Y-119097959D01*
X155817380Y-119305357D01*
X155813871Y-119323000D01*
X155787704Y-119323000D01*
X155654041Y-119122959D01*
X155446643Y-118984380D01*
X155202000Y-118935717D01*
X154302000Y-118935717D01*
X154057357Y-118984380D01*
X153952000Y-119054777D01*
X153846643Y-118984380D01*
X153602000Y-118935717D01*
X152702000Y-118935717D01*
X152457357Y-118984380D01*
X152249959Y-119122959D01*
X152116296Y-119323000D01*
X144796428Y-119323000D01*
X136818000Y-111344573D01*
X136818000Y-111322717D01*
X136809419Y-111302000D01*
X137086612Y-111302000D01*
X137464078Y-111145648D01*
X137582726Y-111027000D01*
X137688513Y-111027000D01*
X140498000Y-113836488D01*
X140498000Y-114004283D01*
X140654352Y-114381749D01*
X140943251Y-114670648D01*
X141320717Y-114827000D01*
X141729283Y-114827000D01*
X142106749Y-114670648D01*
X142395648Y-114381749D01*
X142552000Y-114004283D01*
X142552000Y-113595717D01*
X142395648Y-113218251D01*
X142106749Y-112929352D01*
X141729283Y-112773000D01*
X141561488Y-112773000D01*
X138584116Y-109795629D01*
X138542161Y-109732839D01*
X138293416Y-109566632D01*
X138074063Y-109523000D01*
X138074059Y-109523000D01*
X138000000Y-109508269D01*
X137925941Y-109523000D01*
X137582726Y-109523000D01*
X137464078Y-109404352D01*
X137086612Y-109248000D01*
X136678046Y-109248000D01*
X136300580Y-109404352D01*
X136011681Y-109693251D01*
X135855329Y-110070717D01*
X135855329Y-110479283D01*
X135863910Y-110500000D01*
X135586717Y-110500000D01*
X135209251Y-110656352D01*
X134920352Y-110945251D01*
X134764000Y-111322717D01*
X133053829Y-111322717D01*
X133053829Y-111107717D01*
X132897477Y-110730251D01*
X132608578Y-110441352D01*
X132231112Y-110285000D01*
X131822546Y-110285000D01*
X131445080Y-110441352D01*
X131156181Y-110730251D01*
X130999829Y-111107717D01*
X130999829Y-111275512D01*
X130191342Y-112084000D01*
X129196283Y-112084000D01*
X129196283Y-112053000D01*
X129147620Y-111808357D01*
X129009041Y-111600959D01*
X128801643Y-111462380D01*
X128557000Y-111413717D01*
X127937000Y-111413717D01*
X127692357Y-111462380D01*
X127484959Y-111600959D01*
X127346380Y-111808357D01*
X127297717Y-112053000D01*
X125738000Y-112053000D01*
X125738000Y-111977215D01*
X125679996Y-111837181D01*
X125572820Y-111730004D01*
X125432786Y-111672000D01*
X125269250Y-111672000D01*
X125174000Y-111767250D01*
X124920000Y-111767250D01*
X124824750Y-111672000D01*
X124661214Y-111672000D01*
X124521180Y-111730004D01*
X124414004Y-111837181D01*
X124356000Y-111977215D01*
X85118000Y-111977215D01*
X85118000Y-97400000D01*
X89185717Y-97400000D01*
X89185717Y-98300000D01*
X89234380Y-98544643D01*
X89304777Y-98650000D01*
X89234380Y-98755357D01*
X89185717Y-99000000D01*
X89185717Y-99900000D01*
X89234380Y-100144643D01*
X89372959Y-100352041D01*
X89580357Y-100490620D01*
X89825000Y-100539283D01*
X90592717Y-100539283D01*
X90592717Y-100842000D01*
X90641380Y-101086643D01*
X90779959Y-101294041D01*
X90987357Y-101432620D01*
X91232000Y-101481283D01*
X92757000Y-101481283D01*
X93001643Y-101432620D01*
X93209041Y-101294041D01*
X93347620Y-101086643D01*
X93396283Y-100842000D01*
X93396283Y-100192000D01*
X93378662Y-100103412D01*
X93545159Y-99992161D01*
X93587114Y-99929371D01*
X95579000Y-97937485D01*
X95578999Y-104045245D01*
X95564268Y-104119304D01*
X95578999Y-104193363D01*
X95578999Y-104193366D01*
X95622631Y-104412719D01*
X95788838Y-104661465D01*
X95851628Y-104703420D01*
X98445346Y-107297140D01*
X98445346Y-107464934D01*
X98601698Y-107842400D01*
X98890597Y-108131299D01*
X99268063Y-108287651D01*
X99676629Y-108287651D01*
X99993944Y-108156214D01*
X100280717Y-108275000D01*
X100689283Y-108275000D01*
X101066749Y-108118648D01*
X101355648Y-107829749D01*
X101512000Y-107452283D01*
X101512000Y-107043717D01*
X101355648Y-106666251D01*
X101066749Y-106377352D01*
X100773098Y-106255717D01*
X108602000Y-106255717D01*
X108602000Y-106664283D01*
X108758352Y-107041749D01*
X109047251Y-107330648D01*
X109424717Y-107487000D01*
X109833283Y-107487000D01*
X110210749Y-107330648D01*
X110499648Y-107041749D01*
X110656000Y-106664283D01*
X110656000Y-106281717D01*
X112412000Y-106281717D01*
X112412000Y-106690283D01*
X112568352Y-107067749D01*
X112857251Y-107356648D01*
X113234717Y-107513000D01*
X113402513Y-107513000D01*
X113946885Y-108057373D01*
X113959020Y-108075534D01*
X113970380Y-108132643D01*
X114108959Y-108340041D01*
X114316357Y-108478620D01*
X114561000Y-108527283D01*
X116381000Y-108527283D01*
X116625643Y-108478620D01*
X116833041Y-108340041D01*
X116971620Y-108132643D01*
X117020283Y-107888000D01*
X117020283Y-107268000D01*
X116971620Y-107023357D01*
X116833041Y-106815959D01*
X116625643Y-106677380D01*
X116381000Y-106628717D01*
X114645205Y-106628717D01*
X114466000Y-106449513D01*
X114466000Y-106281717D01*
X114309648Y-105904251D01*
X114020749Y-105615352D01*
X113643283Y-105459000D01*
X113234717Y-105459000D01*
X112857251Y-105615352D01*
X112568352Y-105904251D01*
X112412000Y-106281717D01*
X110656000Y-106281717D01*
X110656000Y-106255717D01*
X110499648Y-105878251D01*
X110381000Y-105759603D01*
X110381000Y-103741717D01*
X110888000Y-103741717D01*
X110888000Y-104150283D01*
X111044352Y-104527749D01*
X111333251Y-104816648D01*
X111710717Y-104973000D01*
X112119283Y-104973000D01*
X112496749Y-104816648D01*
X112713147Y-104600250D01*
X114180000Y-104600250D01*
X114180000Y-104763786D01*
X114238004Y-104903820D01*
X114345181Y-105010996D01*
X114485215Y-105069000D01*
X115248750Y-105069000D01*
X115344000Y-104973750D01*
X115344000Y-104505000D01*
X115598000Y-104505000D01*
X115598000Y-104973750D01*
X115693250Y-105069000D01*
X116456785Y-105069000D01*
X116596819Y-105010996D01*
X116703996Y-104903820D01*
X116762000Y-104763786D01*
X116762000Y-104600250D01*
X116666750Y-104505000D01*
X115598000Y-104505000D01*
X115344000Y-104505000D01*
X114275250Y-104505000D01*
X114180000Y-104600250D01*
X112713147Y-104600250D01*
X112785648Y-104527749D01*
X112829347Y-104422250D01*
X124026000Y-104422250D01*
X124026000Y-105185785D01*
X124084004Y-105325819D01*
X124191180Y-105432996D01*
X124331214Y-105491000D01*
X124494750Y-105491000D01*
X124590000Y-105395750D01*
X124590000Y-104327000D01*
X124844000Y-104327000D01*
X124844000Y-105395750D01*
X124939250Y-105491000D01*
X125072881Y-105491000D01*
X125029717Y-105708000D01*
X125029717Y-106248000D01*
X125078380Y-106492643D01*
X125216959Y-106700041D01*
X125333633Y-106778000D01*
X125216959Y-106855959D01*
X125078380Y-107063357D01*
X125029717Y-107308000D01*
X125029717Y-107848000D01*
X125078380Y-108092643D01*
X125216959Y-108300041D01*
X125424357Y-108438620D01*
X125669000Y-108487283D01*
X126609000Y-108487283D01*
X126853643Y-108438620D01*
X127016204Y-108330000D01*
X127521603Y-108330000D01*
X127589251Y-108397648D01*
X127966717Y-108554000D01*
X128375283Y-108554000D01*
X128752749Y-108397648D01*
X129041648Y-108108749D01*
X129198000Y-107731283D01*
X129198000Y-107322717D01*
X129041648Y-106945251D01*
X128897922Y-106801525D01*
X128944000Y-106690283D01*
X128944000Y-106629752D01*
X129236717Y-106751000D01*
X129645283Y-106751000D01*
X130022749Y-106594648D01*
X130311648Y-106305749D01*
X130468000Y-105928283D01*
X130468000Y-105519717D01*
X130311648Y-105142251D01*
X130175244Y-105005847D01*
X130214000Y-104912283D01*
X130214000Y-104503717D01*
X130057648Y-104126251D01*
X129768749Y-103837352D01*
X129391283Y-103681000D01*
X128982717Y-103681000D01*
X128866283Y-103729229D01*
X128866283Y-103290000D01*
X128817620Y-103045357D01*
X128679041Y-102837959D01*
X128471643Y-102699380D01*
X128227000Y-102650717D01*
X127607000Y-102650717D01*
X127362357Y-102699380D01*
X127154959Y-102837959D01*
X127016380Y-103045357D01*
X126967717Y-103290000D01*
X126967717Y-105110000D01*
X126986896Y-105206417D01*
X126853643Y-105117380D01*
X126609000Y-105068717D01*
X125669000Y-105068717D01*
X125424357Y-105117380D01*
X125408000Y-105128309D01*
X125408000Y-104422250D01*
X125312750Y-104327000D01*
X124844000Y-104327000D01*
X124590000Y-104327000D01*
X124121250Y-104327000D01*
X124026000Y-104422250D01*
X112829347Y-104422250D01*
X112942000Y-104150283D01*
X112942000Y-103992214D01*
X114180000Y-103992214D01*
X114180000Y-104155750D01*
X114275250Y-104251000D01*
X115344000Y-104251000D01*
X115344000Y-103782250D01*
X115598000Y-103782250D01*
X115598000Y-104251000D01*
X116666750Y-104251000D01*
X116762000Y-104155750D01*
X116762000Y-103992214D01*
X116703996Y-103852180D01*
X116596819Y-103745004D01*
X116456785Y-103687000D01*
X115693250Y-103687000D01*
X115598000Y-103782250D01*
X115344000Y-103782250D01*
X115248750Y-103687000D01*
X114485215Y-103687000D01*
X114345181Y-103745004D01*
X114238004Y-103852180D01*
X114180000Y-103992214D01*
X112942000Y-103992214D01*
X112942000Y-103741717D01*
X112785648Y-103364251D01*
X112635612Y-103214215D01*
X124026000Y-103214215D01*
X124026000Y-103977750D01*
X124121250Y-104073000D01*
X124590000Y-104073000D01*
X124590000Y-103004250D01*
X124844000Y-103004250D01*
X124844000Y-104073000D01*
X125312750Y-104073000D01*
X125408000Y-103977750D01*
X125408000Y-103214215D01*
X125349996Y-103074181D01*
X125242820Y-102967004D01*
X125102786Y-102909000D01*
X124939250Y-102909000D01*
X124844000Y-103004250D01*
X124590000Y-103004250D01*
X124494750Y-102909000D01*
X124331214Y-102909000D01*
X124191180Y-102967004D01*
X124084004Y-103074181D01*
X124026000Y-103214215D01*
X112635612Y-103214215D01*
X112496749Y-103075352D01*
X112119283Y-102919000D01*
X111710717Y-102919000D01*
X111333251Y-103075352D01*
X111044352Y-103364251D01*
X110888000Y-103741717D01*
X110381000Y-103741717D01*
X110381000Y-101717487D01*
X120424237Y-91674250D01*
X137386000Y-91674250D01*
X137386000Y-91827786D01*
X137444004Y-91967820D01*
X137551181Y-92074996D01*
X137691215Y-92133000D01*
X137854750Y-92133000D01*
X137950000Y-92037750D01*
X137950000Y-91579000D01*
X137481250Y-91579000D01*
X137386000Y-91674250D01*
X120424237Y-91674250D01*
X121866487Y-90232000D01*
X137127717Y-90232000D01*
X137127717Y-90832000D01*
X137176380Y-91076643D01*
X137314959Y-91284041D01*
X137522357Y-91422620D01*
X137767000Y-91471283D01*
X138224000Y-91471283D01*
X138224000Y-91579000D01*
X138204000Y-91579000D01*
X138204000Y-92037750D01*
X138299250Y-92133000D01*
X138462785Y-92133000D01*
X138497000Y-92118828D01*
X138497000Y-92149002D01*
X138592248Y-92149002D01*
X138497000Y-92244250D01*
X138497000Y-92572786D01*
X138555004Y-92712820D01*
X138662181Y-92819996D01*
X138802215Y-92878000D01*
X139530750Y-92878000D01*
X139626000Y-92782750D01*
X139626000Y-92149000D01*
X139880000Y-92149000D01*
X139880000Y-92782750D01*
X139975250Y-92878000D01*
X140703785Y-92878000D01*
X140843819Y-92819996D01*
X140950996Y-92712820D01*
X141009000Y-92572786D01*
X141009000Y-92244250D01*
X140913750Y-92149000D01*
X139880000Y-92149000D01*
X139626000Y-92149000D01*
X139606000Y-92149000D01*
X139606000Y-91895000D01*
X139626000Y-91895000D01*
X139626000Y-91261250D01*
X139880000Y-91261250D01*
X139880000Y-91895000D01*
X140913750Y-91895000D01*
X141009000Y-91799750D01*
X141009000Y-91471214D01*
X140950996Y-91331180D01*
X140843819Y-91224004D01*
X140703785Y-91166000D01*
X139975250Y-91166000D01*
X139880000Y-91261250D01*
X139626000Y-91261250D01*
X139530750Y-91166000D01*
X139347715Y-91166000D01*
X139485161Y-91074161D01*
X139527116Y-91011371D01*
X139702204Y-90836283D01*
X140628000Y-90836283D01*
X140872643Y-90787620D01*
X141080041Y-90649041D01*
X141091097Y-90632494D01*
X141305251Y-90846648D01*
X141682717Y-91003000D01*
X142091283Y-91003000D01*
X142468749Y-90846648D01*
X142757648Y-90557749D01*
X142914000Y-90180283D01*
X142914000Y-89771717D01*
X142757648Y-89394251D01*
X142468749Y-89105352D01*
X142091283Y-88949000D01*
X141682717Y-88949000D01*
X141656363Y-88959916D01*
X141633000Y-88955269D01*
X141558941Y-88970000D01*
X141197000Y-88970000D01*
X141080041Y-88794959D01*
X140872643Y-88656380D01*
X140628000Y-88607717D01*
X138878000Y-88607717D01*
X138633357Y-88656380D01*
X138425959Y-88794959D01*
X138287380Y-89002357D01*
X138238717Y-89247000D01*
X138238717Y-89592717D01*
X137767000Y-89592717D01*
X137522357Y-89641380D01*
X137314959Y-89779959D01*
X137176380Y-89987357D01*
X137127717Y-90232000D01*
X121866487Y-90232000D01*
X123266238Y-88832250D01*
X136878000Y-88832250D01*
X136878000Y-88985786D01*
X136936004Y-89125820D01*
X137043181Y-89232996D01*
X137183215Y-89291000D01*
X137346750Y-89291000D01*
X137442000Y-89195750D01*
X137442000Y-88737000D01*
X137696000Y-88737000D01*
X137696000Y-89195750D01*
X137791250Y-89291000D01*
X137954785Y-89291000D01*
X138094819Y-89232996D01*
X138201996Y-89125820D01*
X138260000Y-88985786D01*
X138260000Y-88832250D01*
X138164750Y-88737000D01*
X137696000Y-88737000D01*
X137442000Y-88737000D01*
X136973250Y-88737000D01*
X136878000Y-88832250D01*
X123266238Y-88832250D01*
X123635489Y-88463000D01*
X123803283Y-88463000D01*
X124180749Y-88306648D01*
X124469648Y-88017749D01*
X124626000Y-87640283D01*
X124626000Y-87390000D01*
X136619717Y-87390000D01*
X136619717Y-87990000D01*
X136668380Y-88234643D01*
X136806959Y-88442041D01*
X137014357Y-88580620D01*
X137259000Y-88629283D01*
X137879000Y-88629283D01*
X138123643Y-88580620D01*
X138331041Y-88442041D01*
X138409570Y-88324514D01*
X138425959Y-88349041D01*
X138633357Y-88487620D01*
X138878000Y-88536283D01*
X139620032Y-88536283D01*
X139753000Y-88562732D01*
X139885968Y-88536283D01*
X140628000Y-88536283D01*
X140872643Y-88487620D01*
X141080041Y-88349041D01*
X141218620Y-88141643D01*
X141267283Y-87897000D01*
X141267283Y-86947000D01*
X141218620Y-86702357D01*
X141080041Y-86494959D01*
X140872643Y-86356380D01*
X140628000Y-86307717D01*
X140607000Y-86307717D01*
X140607000Y-85342397D01*
X140725648Y-85223749D01*
X140882000Y-84846283D01*
X140882000Y-84437717D01*
X140725648Y-84060251D01*
X140436749Y-83771352D01*
X140059283Y-83615000D01*
X139650717Y-83615000D01*
X139273251Y-83771352D01*
X138984352Y-84060251D01*
X138828000Y-84437717D01*
X138828000Y-84846283D01*
X138984352Y-85223749D01*
X139001001Y-85240398D01*
X139001001Y-86307717D01*
X138878000Y-86307717D01*
X138633357Y-86356380D01*
X138425959Y-86494959D01*
X138309000Y-86670000D01*
X137911058Y-86670000D01*
X137836999Y-86655269D01*
X137762940Y-86670000D01*
X137762937Y-86670000D01*
X137543584Y-86713632D01*
X137488083Y-86750717D01*
X137259000Y-86750717D01*
X137014357Y-86799380D01*
X136806959Y-86937959D01*
X136668380Y-87145357D01*
X136619717Y-87390000D01*
X124626000Y-87390000D01*
X124626000Y-87231717D01*
X124469648Y-86854251D01*
X124180749Y-86565352D01*
X123803283Y-86409000D01*
X123394717Y-86409000D01*
X123017251Y-86565352D01*
X122728352Y-86854251D01*
X122572000Y-87231717D01*
X122572000Y-87399511D01*
X109149628Y-100821885D01*
X109086840Y-100863839D01*
X109044887Y-100926626D01*
X109044886Y-100926627D01*
X108920632Y-101112585D01*
X108862269Y-101406000D01*
X108877001Y-101480064D01*
X108877000Y-105759603D01*
X108758352Y-105878251D01*
X108602000Y-106255717D01*
X100773098Y-106255717D01*
X100689283Y-106221000D01*
X100521488Y-106221000D01*
X100126999Y-105826512D01*
X100126999Y-105761058D01*
X100141730Y-105687000D01*
X100126999Y-105612942D01*
X100126999Y-105612938D01*
X100083367Y-105393585D01*
X99971390Y-105226000D01*
X99959113Y-105207626D01*
X99959111Y-105207624D01*
X99917160Y-105144840D01*
X99854376Y-105102889D01*
X98170500Y-103419015D01*
X98170500Y-101481283D01*
X98181000Y-101481283D01*
X98425643Y-101432620D01*
X98633041Y-101294041D01*
X98771620Y-101086643D01*
X98820283Y-100842000D01*
X98820283Y-100719461D01*
X99078282Y-100826328D01*
X99486848Y-100826328D01*
X99864314Y-100669976D01*
X99875007Y-100659283D01*
X101220000Y-100659283D01*
X101257001Y-100651923D01*
X101257000Y-104515603D01*
X101138352Y-104634251D01*
X100982000Y-105011717D01*
X100982000Y-105420283D01*
X101138352Y-105797749D01*
X101427251Y-106086648D01*
X101804717Y-106243000D01*
X102213283Y-106243000D01*
X102590749Y-106086648D01*
X102879648Y-105797749D01*
X103036000Y-105420283D01*
X103036000Y-105011717D01*
X102879648Y-104634251D01*
X102761000Y-104515603D01*
X102761000Y-96908063D01*
X102775732Y-96834000D01*
X102717368Y-96540584D01*
X102551161Y-96291839D01*
X102302416Y-96125632D01*
X102083063Y-96082000D01*
X102009000Y-96067268D01*
X101934937Y-96082000D01*
X101812488Y-96082000D01*
X100099652Y-94369165D01*
X100099652Y-94201369D01*
X99943300Y-93823903D01*
X99817942Y-93698545D01*
X105074487Y-88442000D01*
X108674603Y-88442000D01*
X108793251Y-88560648D01*
X109170717Y-88717000D01*
X109579283Y-88717000D01*
X109956749Y-88560648D01*
X110245648Y-88271749D01*
X110402000Y-87894283D01*
X110402000Y-87485717D01*
X110245648Y-87108251D01*
X109956749Y-86819352D01*
X109579283Y-86663000D01*
X109170717Y-86663000D01*
X108793251Y-86819352D01*
X108674603Y-86938000D01*
X106716054Y-86938000D01*
X106846000Y-86624283D01*
X106846000Y-86215717D01*
X106689648Y-85838251D01*
X106400749Y-85549352D01*
X106023283Y-85393000D01*
X105614717Y-85393000D01*
X105237251Y-85549352D01*
X105103544Y-85683059D01*
X104959899Y-85711632D01*
X104711154Y-85877839D01*
X104669200Y-85940627D01*
X95697612Y-94912215D01*
X95649000Y-94863603D01*
X95649000Y-91303487D01*
X95695487Y-91257000D01*
X95863283Y-91257000D01*
X96240749Y-91100648D01*
X96529648Y-90811749D01*
X96686000Y-90434283D01*
X96686000Y-90025717D01*
X96529648Y-89648251D01*
X96240749Y-89359352D01*
X95863283Y-89203000D01*
X95454717Y-89203000D01*
X95077251Y-89359352D01*
X94788352Y-89648251D01*
X94632000Y-90025717D01*
X94632000Y-90193513D01*
X94417629Y-90407884D01*
X94354839Y-90449839D01*
X94188632Y-90698585D01*
X94145000Y-90917938D01*
X94145000Y-90917941D01*
X94130269Y-90992000D01*
X94145000Y-91066059D01*
X94145001Y-94863602D01*
X94026352Y-94982251D01*
X93870000Y-95359717D01*
X93870000Y-95768283D01*
X94026352Y-96145749D01*
X94245215Y-96364612D01*
X93384828Y-97225000D01*
X93357893Y-97225000D01*
X93396283Y-97032000D01*
X93396283Y-96382000D01*
X93347620Y-96137357D01*
X93209041Y-95929959D01*
X93001643Y-95791380D01*
X92757000Y-95742717D01*
X91232000Y-95742717D01*
X90987357Y-95791380D01*
X90779959Y-95929959D01*
X90641380Y-96137357D01*
X90592717Y-96382000D01*
X90592717Y-96760717D01*
X89825000Y-96760717D01*
X89580357Y-96809380D01*
X89372959Y-96947959D01*
X89234380Y-97155357D01*
X89185717Y-97400000D01*
X85118000Y-97400000D01*
X85118000Y-89771717D01*
X88536000Y-89771717D01*
X88536000Y-90180283D01*
X88692352Y-90557749D01*
X88981251Y-90846648D01*
X89358717Y-91003000D01*
X89767283Y-91003000D01*
X90144749Y-90846648D01*
X90433648Y-90557749D01*
X90590000Y-90180283D01*
X90590000Y-89771717D01*
X90433648Y-89394251D01*
X90144749Y-89105352D01*
X89767283Y-88949000D01*
X89358717Y-88949000D01*
X88981251Y-89105352D01*
X88692352Y-89394251D01*
X88536000Y-89771717D01*
X85118000Y-89771717D01*
X85118000Y-75371000D01*
X135283000Y-75371000D01*
X135331601Y-75361333D01*
X135372803Y-75333803D01*
X135400333Y-75292601D01*
X135410000Y-75244000D01*
X135410000Y-74450250D01*
X156161000Y-74450250D01*
X156161000Y-74828786D01*
X156219004Y-74968820D01*
X156326181Y-75075996D01*
X156466215Y-75134000D01*
X158219750Y-75134000D01*
X158315000Y-75038750D01*
X158315000Y-74355000D01*
X158569000Y-74355000D01*
X158569000Y-75038750D01*
X158664250Y-75134000D01*
X160417785Y-75134000D01*
X160557819Y-75075996D01*
X160664996Y-74968820D01*
X160723000Y-74828786D01*
X160723000Y-74450250D01*
X160627750Y-74355000D01*
X158569000Y-74355000D01*
X158315000Y-74355000D01*
X156256250Y-74355000D01*
X156161000Y-74450250D01*
X135410000Y-74450250D01*
X135410000Y-73627214D01*
X156161000Y-73627214D01*
X156161000Y-74005750D01*
X156256250Y-74101000D01*
X158315000Y-74101000D01*
X158315000Y-73417250D01*
X158569000Y-73417250D01*
X158569000Y-74101000D01*
X160627750Y-74101000D01*
X160723000Y-74005750D01*
X160723000Y-73627214D01*
X160664996Y-73487180D01*
X160557819Y-73380004D01*
X160417785Y-73322000D01*
X158664250Y-73322000D01*
X158569000Y-73417250D01*
X158315000Y-73417250D01*
X158219750Y-73322000D01*
X156466215Y-73322000D01*
X156326181Y-73380004D01*
X156219004Y-73487180D01*
X156161000Y-73627214D01*
X135410000Y-73627214D01*
X135410000Y-57050000D01*
X155760717Y-57050000D01*
X155760717Y-58250000D01*
X155809380Y-58494643D01*
X155947959Y-58702041D01*
X156155357Y-58840620D01*
X156400000Y-58889283D01*
X157600000Y-58889283D01*
X157844643Y-58840620D01*
X158052041Y-58702041D01*
X158190620Y-58494643D01*
X158239283Y-58250000D01*
X158239283Y-57050000D01*
X158190620Y-56805357D01*
X158052041Y-56597959D01*
X157844643Y-56459380D01*
X157600000Y-56410717D01*
X156400000Y-56410717D01*
X156155357Y-56459380D01*
X155947959Y-56597959D01*
X155809380Y-56805357D01*
X155760717Y-57050000D01*
X135410000Y-57050000D01*
X135410000Y-53373379D01*
X156456226Y-53373379D01*
X156519590Y-53527294D01*
X156891885Y-53644359D01*
X157280639Y-53610042D01*
X157480410Y-53527294D01*
X157543774Y-53373379D01*
X157000000Y-52829605D01*
X156456226Y-53373379D01*
X135410000Y-53373379D01*
X135410000Y-52541885D01*
X156005641Y-52541885D01*
X156039958Y-52930639D01*
X156122706Y-53130410D01*
X156276621Y-53193774D01*
X156820395Y-52650000D01*
X157179605Y-52650000D01*
X157723379Y-53193774D01*
X157877294Y-53130410D01*
X157994359Y-52758115D01*
X157960042Y-52369361D01*
X157877294Y-52169590D01*
X157723379Y-52106226D01*
X157179605Y-52650000D01*
X156820395Y-52650000D01*
X156276621Y-52106226D01*
X156122706Y-52169590D01*
X156005641Y-52541885D01*
X135410000Y-52541885D01*
X135410000Y-51926621D01*
X156456226Y-51926621D01*
X157000000Y-52470395D01*
X157543774Y-51926621D01*
X157480410Y-51772706D01*
X157108115Y-51655641D01*
X156719361Y-51689958D01*
X156519590Y-51772706D01*
X156456226Y-51926621D01*
X135410000Y-51926621D01*
X135410000Y-49523379D01*
X156506226Y-49523379D01*
X156569590Y-49677294D01*
X156941885Y-49794359D01*
X157330639Y-49760042D01*
X157530410Y-49677294D01*
X157593774Y-49523379D01*
X157050000Y-48979605D01*
X156506226Y-49523379D01*
X135410000Y-49523379D01*
X135410000Y-48691885D01*
X156055641Y-48691885D01*
X156089958Y-49080639D01*
X156172706Y-49280410D01*
X156326621Y-49343774D01*
X156870395Y-48800000D01*
X157229605Y-48800000D01*
X157773379Y-49343774D01*
X157927294Y-49280410D01*
X158044359Y-48908115D01*
X158010042Y-48519361D01*
X157927294Y-48319590D01*
X157773379Y-48256226D01*
X157229605Y-48800000D01*
X156870395Y-48800000D01*
X156326621Y-48256226D01*
X156172706Y-48319590D01*
X156055641Y-48691885D01*
X135410000Y-48691885D01*
X135410000Y-48076621D01*
X156506226Y-48076621D01*
X157050000Y-48620395D01*
X157593774Y-48076621D01*
X157530410Y-47922706D01*
X157158115Y-47805641D01*
X156769361Y-47839958D01*
X156569590Y-47922706D01*
X156506226Y-48076621D01*
X135410000Y-48076621D01*
X135410000Y-37525000D01*
X164112000Y-37525000D01*
X164112000Y-38481758D01*
G36*
X98490903Y-95276300D02*
X98868369Y-95432652D01*
X99036165Y-95432652D01*
X100614881Y-97011369D01*
X100612000Y-97014250D01*
X100612000Y-97723000D01*
X100632000Y-97723000D01*
X100632000Y-97977000D01*
X100612000Y-97977000D01*
X100612000Y-97997000D01*
X100358000Y-97997000D01*
X100358000Y-97977000D01*
X99464250Y-97977000D01*
X99369000Y-98072250D01*
X99369000Y-98420491D01*
X99297959Y-98467959D01*
X99159380Y-98675357D01*
X99140091Y-98772328D01*
X99078282Y-98772328D01*
X98812417Y-98882453D01*
X98771620Y-98677357D01*
X98633041Y-98469959D01*
X98547497Y-98412800D01*
X98562000Y-98377786D01*
X98562000Y-98199250D01*
X98466750Y-98104000D01*
X97545500Y-98104000D01*
X97545500Y-98124000D01*
X97291500Y-98124000D01*
X97291500Y-98104000D01*
X97271500Y-98104000D01*
X97271500Y-97850000D01*
X97291500Y-97850000D01*
X97291500Y-97830000D01*
X97545500Y-97830000D01*
X97545500Y-97850000D01*
X98466750Y-97850000D01*
X98562000Y-97754750D01*
X98562000Y-97576214D01*
X98547497Y-97541200D01*
X98633041Y-97484041D01*
X98771620Y-97276643D01*
X98782048Y-97224214D01*
X99369000Y-97224214D01*
X99369000Y-97627750D01*
X99464250Y-97723000D01*
X100358000Y-97723000D01*
X100358000Y-97014250D01*
X100262750Y-96919000D01*
X99674215Y-96919000D01*
X99534181Y-96977004D01*
X99427004Y-97084180D01*
X99369000Y-97224214D01*
X98782048Y-97224214D01*
X98820283Y-97032000D01*
X98820283Y-96382000D01*
X98771620Y-96137357D01*
X98633041Y-95929959D01*
X98425643Y-95791380D01*
X98181000Y-95742717D01*
X97773769Y-95742717D01*
X98365544Y-95150941D01*
X98490903Y-95276300D01*
X98490903Y-95276300D01*
G37*
X98490903Y-95276300D02*
X98868369Y-95432652D01*
X99036165Y-95432652D01*
X100614881Y-97011369D01*
X100612000Y-97014250D01*
X100612000Y-97723000D01*
X100632000Y-97723000D01*
X100632000Y-97977000D01*
X100612000Y-97977000D01*
X100612000Y-97997000D01*
X100358000Y-97997000D01*
X100358000Y-97977000D01*
X99464250Y-97977000D01*
X99369000Y-98072250D01*
X99369000Y-98420491D01*
X99297959Y-98467959D01*
X99159380Y-98675357D01*
X99140091Y-98772328D01*
X99078282Y-98772328D01*
X98812417Y-98882453D01*
X98771620Y-98677357D01*
X98633041Y-98469959D01*
X98547497Y-98412800D01*
X98562000Y-98377786D01*
X98562000Y-98199250D01*
X98466750Y-98104000D01*
X97545500Y-98104000D01*
X97545500Y-98124000D01*
X97291500Y-98124000D01*
X97291500Y-98104000D01*
X97271500Y-98104000D01*
X97271500Y-97850000D01*
X97291500Y-97850000D01*
X97291500Y-97830000D01*
X97545500Y-97830000D01*
X97545500Y-97850000D01*
X98466750Y-97850000D01*
X98562000Y-97754750D01*
X98562000Y-97576214D01*
X98547497Y-97541200D01*
X98633041Y-97484041D01*
X98771620Y-97276643D01*
X98782048Y-97224214D01*
X99369000Y-97224214D01*
X99369000Y-97627750D01*
X99464250Y-97723000D01*
X100358000Y-97723000D01*
X100358000Y-97014250D01*
X100262750Y-96919000D01*
X99674215Y-96919000D01*
X99534181Y-96977004D01*
X99427004Y-97084180D01*
X99369000Y-97224214D01*
X98782048Y-97224214D01*
X98820283Y-97032000D01*
X98820283Y-96382000D01*
X98771620Y-96137357D01*
X98633041Y-95929959D01*
X98425643Y-95791380D01*
X98181000Y-95742717D01*
X97773769Y-95742717D01*
X98365544Y-95150941D01*
X98490903Y-95276300D01*
G36*
X158879717Y-125734000D02*
X158879717Y-126354000D01*
X158928380Y-126598643D01*
X159066959Y-126806041D01*
X159274357Y-126944620D01*
X159519000Y-126993283D01*
X161339000Y-126993283D01*
X161583643Y-126944620D01*
X161791041Y-126806041D01*
X161797750Y-126796000D01*
X162212456Y-126796000D01*
X162352352Y-127133739D01*
X162641251Y-127422638D01*
X163018717Y-127578990D01*
X163427283Y-127578990D01*
X163804749Y-127422638D01*
X164093648Y-127133739D01*
X164250000Y-126756273D01*
X164250000Y-126529936D01*
X164256368Y-126520406D01*
X164300000Y-126301053D01*
X164300000Y-126301049D01*
X164314731Y-126226991D01*
X164309220Y-126199283D01*
X164423000Y-126199283D01*
X164667643Y-126150620D01*
X164792717Y-126067048D01*
X164792717Y-127838409D01*
X164605584Y-127875632D01*
X164511703Y-127938361D01*
X164423000Y-127920717D01*
X163973000Y-127920717D01*
X163728357Y-127969380D01*
X163520959Y-128107959D01*
X163473491Y-128179000D01*
X163420998Y-128179000D01*
X163420998Y-128257561D01*
X163420122Y-128258872D01*
X163340250Y-128179000D01*
X163247214Y-128179000D01*
X163223000Y-128189030D01*
X163198786Y-128179000D01*
X163105750Y-128179000D01*
X163025878Y-128258872D01*
X163025002Y-128257561D01*
X163025002Y-128179000D01*
X162972509Y-128179000D01*
X162925041Y-128107959D01*
X162717643Y-127969380D01*
X162473000Y-127920717D01*
X162023000Y-127920717D01*
X161778357Y-127969380D01*
X161570959Y-128107959D01*
X161432380Y-128315357D01*
X161385109Y-128553000D01*
X160651250Y-128553000D01*
X160556000Y-128648250D01*
X160556000Y-129117000D01*
X160576000Y-129117000D01*
X160576000Y-129371000D01*
X160556000Y-129371000D01*
X160556000Y-129839750D01*
X160651250Y-129935000D01*
X161383717Y-129935000D01*
X161383717Y-130010000D01*
X161432380Y-130254643D01*
X161570959Y-130462041D01*
X161778357Y-130600620D01*
X162023000Y-130649283D01*
X162473000Y-130649283D01*
X162717643Y-130600620D01*
X162925041Y-130462041D01*
X162972509Y-130391000D01*
X163025002Y-130391000D01*
X163025002Y-130312439D01*
X163025878Y-130311128D01*
X163105750Y-130391000D01*
X163198786Y-130391000D01*
X163223000Y-130380970D01*
X163247214Y-130391000D01*
X163340250Y-130391000D01*
X163420122Y-130311128D01*
X163420998Y-130312439D01*
X163420998Y-130391000D01*
X163473491Y-130391000D01*
X163520959Y-130462041D01*
X163728357Y-130600620D01*
X163973000Y-130649283D01*
X164423000Y-130649283D01*
X164667643Y-130600620D01*
X164792717Y-130517048D01*
X164792717Y-131384000D01*
X164798560Y-131413374D01*
X152461755Y-131413374D01*
X152463570Y-131412161D01*
X152505525Y-131349371D01*
X154388646Y-129466250D01*
X159138000Y-129466250D01*
X159138000Y-129629786D01*
X159196004Y-129769820D01*
X159303181Y-129876996D01*
X159443215Y-129935000D01*
X160206750Y-129935000D01*
X160302000Y-129839750D01*
X160302000Y-129371000D01*
X159233250Y-129371000D01*
X159138000Y-129466250D01*
X154388646Y-129466250D01*
X154996682Y-128858214D01*
X159138000Y-128858214D01*
X159138000Y-129021750D01*
X159233250Y-129117000D01*
X160302000Y-129117000D01*
X160302000Y-128648250D01*
X160206750Y-128553000D01*
X159443215Y-128553000D01*
X159303181Y-128611004D01*
X159196004Y-128718180D01*
X159138000Y-128858214D01*
X154996682Y-128858214D01*
X158267897Y-125587000D01*
X158908957Y-125587000D01*
X158879717Y-125734000D01*
X158879717Y-125734000D01*
G37*
X158879717Y-125734000D02*
X158879717Y-126354000D01*
X158928380Y-126598643D01*
X159066959Y-126806041D01*
X159274357Y-126944620D01*
X159519000Y-126993283D01*
X161339000Y-126993283D01*
X161583643Y-126944620D01*
X161791041Y-126806041D01*
X161797750Y-126796000D01*
X162212456Y-126796000D01*
X162352352Y-127133739D01*
X162641251Y-127422638D01*
X163018717Y-127578990D01*
X163427283Y-127578990D01*
X163804749Y-127422638D01*
X164093648Y-127133739D01*
X164250000Y-126756273D01*
X164250000Y-126529936D01*
X164256368Y-126520406D01*
X164300000Y-126301053D01*
X164300000Y-126301049D01*
X164314731Y-126226991D01*
X164309220Y-126199283D01*
X164423000Y-126199283D01*
X164667643Y-126150620D01*
X164792717Y-126067048D01*
X164792717Y-127838409D01*
X164605584Y-127875632D01*
X164511703Y-127938361D01*
X164423000Y-127920717D01*
X163973000Y-127920717D01*
X163728357Y-127969380D01*
X163520959Y-128107959D01*
X163473491Y-128179000D01*
X163420998Y-128179000D01*
X163420998Y-128257561D01*
X163420122Y-128258872D01*
X163340250Y-128179000D01*
X163247214Y-128179000D01*
X163223000Y-128189030D01*
X163198786Y-128179000D01*
X163105750Y-128179000D01*
X163025878Y-128258872D01*
X163025002Y-128257561D01*
X163025002Y-128179000D01*
X162972509Y-128179000D01*
X162925041Y-128107959D01*
X162717643Y-127969380D01*
X162473000Y-127920717D01*
X162023000Y-127920717D01*
X161778357Y-127969380D01*
X161570959Y-128107959D01*
X161432380Y-128315357D01*
X161385109Y-128553000D01*
X160651250Y-128553000D01*
X160556000Y-128648250D01*
X160556000Y-129117000D01*
X160576000Y-129117000D01*
X160576000Y-129371000D01*
X160556000Y-129371000D01*
X160556000Y-129839750D01*
X160651250Y-129935000D01*
X161383717Y-129935000D01*
X161383717Y-130010000D01*
X161432380Y-130254643D01*
X161570959Y-130462041D01*
X161778357Y-130600620D01*
X162023000Y-130649283D01*
X162473000Y-130649283D01*
X162717643Y-130600620D01*
X162925041Y-130462041D01*
X162972509Y-130391000D01*
X163025002Y-130391000D01*
X163025002Y-130312439D01*
X163025878Y-130311128D01*
X163105750Y-130391000D01*
X163198786Y-130391000D01*
X163223000Y-130380970D01*
X163247214Y-130391000D01*
X163340250Y-130391000D01*
X163420122Y-130311128D01*
X163420998Y-130312439D01*
X163420998Y-130391000D01*
X163473491Y-130391000D01*
X163520959Y-130462041D01*
X163728357Y-130600620D01*
X163973000Y-130649283D01*
X164423000Y-130649283D01*
X164667643Y-130600620D01*
X164792717Y-130517048D01*
X164792717Y-131384000D01*
X164798560Y-131413374D01*
X152461755Y-131413374D01*
X152463570Y-131412161D01*
X152505525Y-131349371D01*
X154388646Y-129466250D01*
X159138000Y-129466250D01*
X159138000Y-129629786D01*
X159196004Y-129769820D01*
X159303181Y-129876996D01*
X159443215Y-129935000D01*
X160206750Y-129935000D01*
X160302000Y-129839750D01*
X160302000Y-129371000D01*
X159233250Y-129371000D01*
X159138000Y-129466250D01*
X154388646Y-129466250D01*
X154996682Y-128858214D01*
X159138000Y-128858214D01*
X159138000Y-129021750D01*
X159233250Y-129117000D01*
X160302000Y-129117000D01*
X160302000Y-128648250D01*
X160206750Y-128553000D01*
X159443215Y-128553000D01*
X159303181Y-128611004D01*
X159196004Y-128718180D01*
X159138000Y-128858214D01*
X154996682Y-128858214D01*
X158267897Y-125587000D01*
X158908957Y-125587000D01*
X158879717Y-125734000D01*
G36*
X118254000Y-125445489D02*
X118254000Y-125613283D01*
X118410352Y-125990749D01*
X118699251Y-126279648D01*
X119076717Y-126436000D01*
X119485283Y-126436000D01*
X119862749Y-126279648D01*
X120110455Y-126031942D01*
X123395885Y-129317373D01*
X123437839Y-129380161D01*
X123686584Y-129546368D01*
X123905937Y-129590000D01*
X123905941Y-129590000D01*
X123980000Y-129604731D01*
X124054059Y-129590000D01*
X152137922Y-129590000D01*
X151609922Y-130118000D01*
X122894488Y-130118000D01*
X120119118Y-127342631D01*
X120119114Y-127342625D01*
X119611116Y-126834628D01*
X119569161Y-126771839D01*
X119320416Y-126605632D01*
X119101063Y-126562000D01*
X119101059Y-126562000D01*
X119027000Y-126547269D01*
X118952941Y-126562000D01*
X118125491Y-126562000D01*
X115637138Y-124073649D01*
X115595183Y-124010859D01*
X115346438Y-123844652D01*
X115127085Y-123801020D01*
X115127081Y-123801020D01*
X115053022Y-123786289D01*
X114978963Y-123801020D01*
X114609297Y-123801020D01*
X114490649Y-123682372D01*
X114113183Y-123526020D01*
X113704617Y-123526020D01*
X113327151Y-123682372D01*
X113038252Y-123971271D01*
X112881900Y-124348737D01*
X112881900Y-124757303D01*
X113038252Y-125134769D01*
X113327151Y-125423668D01*
X113704617Y-125580020D01*
X114113183Y-125580020D01*
X114490649Y-125423668D01*
X114609297Y-125305020D01*
X114741535Y-125305020D01*
X117229889Y-127793376D01*
X117271841Y-127856161D01*
X117334625Y-127898112D01*
X117334627Y-127898114D01*
X117486939Y-127999886D01*
X117520586Y-128022368D01*
X117739939Y-128066000D01*
X117739942Y-128066000D01*
X117814001Y-128080731D01*
X117888060Y-128066000D01*
X118715512Y-128066000D01*
X119055625Y-128406114D01*
X119055631Y-128406118D01*
X121998885Y-131349373D01*
X122007740Y-131362625D01*
X119878115Y-131362625D01*
X115604118Y-127088629D01*
X115562163Y-127025839D01*
X115313418Y-126859632D01*
X115094065Y-126816000D01*
X115094061Y-126816000D01*
X115020002Y-126801269D01*
X114945943Y-126816000D01*
X114393397Y-126816000D01*
X114274749Y-126697352D01*
X113897283Y-126541000D01*
X113488717Y-126541000D01*
X113111251Y-126697352D01*
X112962045Y-126846558D01*
X109567395Y-123451910D01*
X109760873Y-123451910D01*
X110138339Y-123295558D01*
X110427238Y-123006659D01*
X110583590Y-122629193D01*
X110583590Y-122220627D01*
X110505314Y-122031653D01*
X114840166Y-122031653D01*
X118254000Y-125445489D01*
X118254000Y-125445489D01*
G37*
X118254000Y-125445489D02*
X118254000Y-125613283D01*
X118410352Y-125990749D01*
X118699251Y-126279648D01*
X119076717Y-126436000D01*
X119485283Y-126436000D01*
X119862749Y-126279648D01*
X120110455Y-126031942D01*
X123395885Y-129317373D01*
X123437839Y-129380161D01*
X123686584Y-129546368D01*
X123905937Y-129590000D01*
X123905941Y-129590000D01*
X123980000Y-129604731D01*
X124054059Y-129590000D01*
X152137922Y-129590000D01*
X151609922Y-130118000D01*
X122894488Y-130118000D01*
X120119118Y-127342631D01*
X120119114Y-127342625D01*
X119611116Y-126834628D01*
X119569161Y-126771839D01*
X119320416Y-126605632D01*
X119101063Y-126562000D01*
X119101059Y-126562000D01*
X119027000Y-126547269D01*
X118952941Y-126562000D01*
X118125491Y-126562000D01*
X115637138Y-124073649D01*
X115595183Y-124010859D01*
X115346438Y-123844652D01*
X115127085Y-123801020D01*
X115127081Y-123801020D01*
X115053022Y-123786289D01*
X114978963Y-123801020D01*
X114609297Y-123801020D01*
X114490649Y-123682372D01*
X114113183Y-123526020D01*
X113704617Y-123526020D01*
X113327151Y-123682372D01*
X113038252Y-123971271D01*
X112881900Y-124348737D01*
X112881900Y-124757303D01*
X113038252Y-125134769D01*
X113327151Y-125423668D01*
X113704617Y-125580020D01*
X114113183Y-125580020D01*
X114490649Y-125423668D01*
X114609297Y-125305020D01*
X114741535Y-125305020D01*
X117229889Y-127793376D01*
X117271841Y-127856161D01*
X117334625Y-127898112D01*
X117334627Y-127898114D01*
X117486939Y-127999886D01*
X117520586Y-128022368D01*
X117739939Y-128066000D01*
X117739942Y-128066000D01*
X117814001Y-128080731D01*
X117888060Y-128066000D01*
X118715512Y-128066000D01*
X119055625Y-128406114D01*
X119055631Y-128406118D01*
X121998885Y-131349373D01*
X122007740Y-131362625D01*
X119878115Y-131362625D01*
X115604118Y-127088629D01*
X115562163Y-127025839D01*
X115313418Y-126859632D01*
X115094065Y-126816000D01*
X115094061Y-126816000D01*
X115020002Y-126801269D01*
X114945943Y-126816000D01*
X114393397Y-126816000D01*
X114274749Y-126697352D01*
X113897283Y-126541000D01*
X113488717Y-126541000D01*
X113111251Y-126697352D01*
X112962045Y-126846558D01*
X109567395Y-123451910D01*
X109760873Y-123451910D01*
X110138339Y-123295558D01*
X110427238Y-123006659D01*
X110583590Y-122629193D01*
X110583590Y-122220627D01*
X110505314Y-122031653D01*
X114840166Y-122031653D01*
X118254000Y-125445489D01*
G36*
X164979717Y-108685613D02*
X164858143Y-108604380D01*
X164613500Y-108555717D01*
X164163500Y-108555717D01*
X163918857Y-108604380D01*
X163711459Y-108742959D01*
X163663991Y-108814000D01*
X163611498Y-108814000D01*
X163611498Y-108892561D01*
X163610622Y-108893872D01*
X163530750Y-108814000D01*
X163437714Y-108814000D01*
X163413500Y-108824030D01*
X163389286Y-108814000D01*
X163296250Y-108814000D01*
X163216378Y-108893872D01*
X163215502Y-108892561D01*
X163215502Y-108814000D01*
X163163009Y-108814000D01*
X163115541Y-108742959D01*
X162908143Y-108604380D01*
X162663500Y-108555717D01*
X162213500Y-108555717D01*
X161968857Y-108604380D01*
X161761459Y-108742959D01*
X161643832Y-108919000D01*
X160905250Y-108919000D01*
X160810000Y-109014250D01*
X160810000Y-109483000D01*
X160830000Y-109483000D01*
X160830000Y-109737000D01*
X160810000Y-109737000D01*
X160810000Y-110205750D01*
X160905250Y-110301000D01*
X161574217Y-110301000D01*
X161574217Y-110645000D01*
X161622880Y-110889643D01*
X161742054Y-111068000D01*
X161460295Y-111068000D01*
X160490503Y-110271247D01*
X160556000Y-110205750D01*
X160556000Y-109737000D01*
X160536000Y-109737000D01*
X160536000Y-109483000D01*
X160556000Y-109483000D01*
X160556000Y-109014250D01*
X160460750Y-108919000D01*
X160199999Y-108919000D01*
X160199999Y-107359283D01*
X161593000Y-107359283D01*
X161744215Y-107329204D01*
X161888384Y-107473373D01*
X161930338Y-107536161D01*
X162179083Y-107702368D01*
X162398436Y-107746000D01*
X162398440Y-107746000D01*
X162472499Y-107760731D01*
X162526577Y-107749974D01*
X162641251Y-107864648D01*
X163018717Y-108021000D01*
X163427283Y-108021000D01*
X163804749Y-107864648D01*
X164093648Y-107575749D01*
X164250000Y-107198283D01*
X164250000Y-107041148D01*
X164280661Y-107020661D01*
X164405195Y-106834283D01*
X164613500Y-106834283D01*
X164858143Y-106785620D01*
X164979717Y-106704387D01*
X164979717Y-108685613D01*
X164979717Y-108685613D01*
G37*
X164979717Y-108685613D02*
X164858143Y-108604380D01*
X164613500Y-108555717D01*
X164163500Y-108555717D01*
X163918857Y-108604380D01*
X163711459Y-108742959D01*
X163663991Y-108814000D01*
X163611498Y-108814000D01*
X163611498Y-108892561D01*
X163610622Y-108893872D01*
X163530750Y-108814000D01*
X163437714Y-108814000D01*
X163413500Y-108824030D01*
X163389286Y-108814000D01*
X163296250Y-108814000D01*
X163216378Y-108893872D01*
X163215502Y-108892561D01*
X163215502Y-108814000D01*
X163163009Y-108814000D01*
X163115541Y-108742959D01*
X162908143Y-108604380D01*
X162663500Y-108555717D01*
X162213500Y-108555717D01*
X161968857Y-108604380D01*
X161761459Y-108742959D01*
X161643832Y-108919000D01*
X160905250Y-108919000D01*
X160810000Y-109014250D01*
X160810000Y-109483000D01*
X160830000Y-109483000D01*
X160830000Y-109737000D01*
X160810000Y-109737000D01*
X160810000Y-110205750D01*
X160905250Y-110301000D01*
X161574217Y-110301000D01*
X161574217Y-110645000D01*
X161622880Y-110889643D01*
X161742054Y-111068000D01*
X161460295Y-111068000D01*
X160490503Y-110271247D01*
X160556000Y-110205750D01*
X160556000Y-109737000D01*
X160536000Y-109737000D01*
X160536000Y-109483000D01*
X160556000Y-109483000D01*
X160556000Y-109014250D01*
X160460750Y-108919000D01*
X160199999Y-108919000D01*
X160199999Y-107359283D01*
X161593000Y-107359283D01*
X161744215Y-107329204D01*
X161888384Y-107473373D01*
X161930338Y-107536161D01*
X162179083Y-107702368D01*
X162398436Y-107746000D01*
X162398440Y-107746000D01*
X162472499Y-107760731D01*
X162526577Y-107749974D01*
X162641251Y-107864648D01*
X163018717Y-108021000D01*
X163427283Y-108021000D01*
X163804749Y-107864648D01*
X164093648Y-107575749D01*
X164250000Y-107198283D01*
X164250000Y-107041148D01*
X164280661Y-107020661D01*
X164405195Y-106834283D01*
X164613500Y-106834283D01*
X164858143Y-106785620D01*
X164979717Y-106704387D01*
X164979717Y-108685613D01*
G36*
X155951380Y-80077643D02*
X156089959Y-80285041D01*
X156297357Y-80423620D01*
X156542000Y-80472283D01*
X160224228Y-80472283D01*
X146487629Y-94208884D01*
X146424839Y-94250839D01*
X146258632Y-94499585D01*
X146215000Y-94718938D01*
X146215000Y-94718941D01*
X146200269Y-94793000D01*
X146215000Y-94867059D01*
X146215001Y-95879602D01*
X146096352Y-95998251D01*
X145940000Y-96375717D01*
X145940000Y-96784283D01*
X146096352Y-97161749D01*
X146385251Y-97450648D01*
X146686205Y-97575307D01*
X140580513Y-103681000D01*
X140412717Y-103681000D01*
X140035251Y-103837352D01*
X139746352Y-104126251D01*
X139590000Y-104503717D01*
X139590000Y-104912283D01*
X139746352Y-105289749D01*
X140035251Y-105578648D01*
X140412717Y-105735000D01*
X140821283Y-105735000D01*
X141198749Y-105578648D01*
X141487648Y-105289749D01*
X141644000Y-104912283D01*
X141644000Y-104744487D01*
X148472373Y-97916115D01*
X148535160Y-97874162D01*
X148701367Y-97625417D01*
X148744999Y-97406064D01*
X148744999Y-97406060D01*
X148759730Y-97332001D01*
X148744999Y-97257942D01*
X148744999Y-95230488D01*
X148951237Y-95024250D01*
X156161000Y-95024250D01*
X156161000Y-95402786D01*
X156219004Y-95542820D01*
X156326181Y-95649996D01*
X156466215Y-95708000D01*
X158219750Y-95708000D01*
X158315000Y-95612750D01*
X158315000Y-94929000D01*
X158569000Y-94929000D01*
X158569000Y-95612750D01*
X158664250Y-95708000D01*
X160417785Y-95708000D01*
X160557819Y-95649996D01*
X160664996Y-95542820D01*
X160723000Y-95402786D01*
X160723000Y-95024250D01*
X160627750Y-94929000D01*
X158569000Y-94929000D01*
X158315000Y-94929000D01*
X156256250Y-94929000D01*
X156161000Y-95024250D01*
X148951237Y-95024250D01*
X149774273Y-94201214D01*
X156161000Y-94201214D01*
X156161000Y-94579750D01*
X156256250Y-94675000D01*
X158315000Y-94675000D01*
X158315000Y-93991250D01*
X158569000Y-93991250D01*
X158569000Y-94675000D01*
X160627750Y-94675000D01*
X160723000Y-94579750D01*
X160723000Y-94201214D01*
X160664996Y-94061180D01*
X160557819Y-93954004D01*
X160417785Y-93896000D01*
X158664250Y-93896000D01*
X158569000Y-93991250D01*
X158315000Y-93991250D01*
X158219750Y-93896000D01*
X156466215Y-93896000D01*
X156326181Y-93954004D01*
X156219004Y-94061180D01*
X156161000Y-94201214D01*
X149774273Y-94201214D01*
X158625717Y-85349771D01*
X158625717Y-85638000D01*
X158674380Y-85882643D01*
X158760173Y-86011041D01*
X158646583Y-86033635D01*
X158397838Y-86199842D01*
X158355884Y-86262630D01*
X158044627Y-86573888D01*
X157981840Y-86615841D01*
X157939887Y-86678628D01*
X157939886Y-86678629D01*
X157815632Y-86864587D01*
X157757269Y-87158002D01*
X157772001Y-87232065D01*
X157772000Y-88885941D01*
X157757269Y-88960000D01*
X157772000Y-89034059D01*
X157772000Y-89034062D01*
X157815632Y-89253415D01*
X157981839Y-89502161D01*
X158044629Y-89544116D01*
X159844885Y-91344373D01*
X159886839Y-91407161D01*
X160135584Y-91573368D01*
X160354937Y-91617000D01*
X160354941Y-91617000D01*
X160429000Y-91631731D01*
X160503059Y-91617000D01*
X164262574Y-91617000D01*
X164421287Y-96590000D01*
X151989626Y-96590000D01*
X151915568Y-96575269D01*
X151841510Y-96590000D01*
X151841506Y-96590000D01*
X151622153Y-96633632D01*
X151512351Y-96707000D01*
X151436194Y-96757886D01*
X151436192Y-96757888D01*
X151373408Y-96799839D01*
X151331456Y-96862624D01*
X141936082Y-106258000D01*
X141768286Y-106258000D01*
X141390820Y-106414352D01*
X141101921Y-106703251D01*
X140945569Y-107080717D01*
X140945569Y-107403999D01*
X137848142Y-107403999D01*
X137752977Y-107174251D01*
X137464078Y-106885352D01*
X137419772Y-106867000D01*
X137464078Y-106848648D01*
X137752977Y-106559749D01*
X137909329Y-106182283D01*
X137909329Y-105773717D01*
X137752977Y-105396251D01*
X137464078Y-105107352D01*
X137086612Y-104951000D01*
X136871095Y-104951000D01*
X136797000Y-104883571D01*
X136797000Y-103495487D01*
X140699118Y-99593370D01*
X140711001Y-99595734D01*
X140785060Y-99581003D01*
X140785064Y-99581003D01*
X141004417Y-99537371D01*
X141253162Y-99371164D01*
X141295117Y-99308374D01*
X153504377Y-87099116D01*
X153567161Y-87057165D01*
X153609112Y-86994381D01*
X153609114Y-86994379D01*
X153672594Y-86899374D01*
X153733368Y-86808420D01*
X153777000Y-86589067D01*
X153777000Y-86589063D01*
X153791731Y-86515005D01*
X153777000Y-86440947D01*
X153777000Y-80360295D01*
X153825000Y-80328223D01*
X153930357Y-80398620D01*
X154175000Y-80447283D01*
X155075000Y-80447283D01*
X155319643Y-80398620D01*
X155527041Y-80260041D01*
X155660704Y-80060000D01*
X155947871Y-80060000D01*
X155951380Y-80077643D01*
X155951380Y-80077643D01*
G37*
X155951380Y-80077643D02*
X156089959Y-80285041D01*
X156297357Y-80423620D01*
X156542000Y-80472283D01*
X160224228Y-80472283D01*
X146487629Y-94208884D01*
X146424839Y-94250839D01*
X146258632Y-94499585D01*
X146215000Y-94718938D01*
X146215000Y-94718941D01*
X146200269Y-94793000D01*
X146215000Y-94867059D01*
X146215001Y-95879602D01*
X146096352Y-95998251D01*
X145940000Y-96375717D01*
X145940000Y-96784283D01*
X146096352Y-97161749D01*
X146385251Y-97450648D01*
X146686205Y-97575307D01*
X140580513Y-103681000D01*
X140412717Y-103681000D01*
X140035251Y-103837352D01*
X139746352Y-104126251D01*
X139590000Y-104503717D01*
X139590000Y-104912283D01*
X139746352Y-105289749D01*
X140035251Y-105578648D01*
X140412717Y-105735000D01*
X140821283Y-105735000D01*
X141198749Y-105578648D01*
X141487648Y-105289749D01*
X141644000Y-104912283D01*
X141644000Y-104744487D01*
X148472373Y-97916115D01*
X148535160Y-97874162D01*
X148701367Y-97625417D01*
X148744999Y-97406064D01*
X148744999Y-97406060D01*
X148759730Y-97332001D01*
X148744999Y-97257942D01*
X148744999Y-95230488D01*
X148951237Y-95024250D01*
X156161000Y-95024250D01*
X156161000Y-95402786D01*
X156219004Y-95542820D01*
X156326181Y-95649996D01*
X156466215Y-95708000D01*
X158219750Y-95708000D01*
X158315000Y-95612750D01*
X158315000Y-94929000D01*
X158569000Y-94929000D01*
X158569000Y-95612750D01*
X158664250Y-95708000D01*
X160417785Y-95708000D01*
X160557819Y-95649996D01*
X160664996Y-95542820D01*
X160723000Y-95402786D01*
X160723000Y-95024250D01*
X160627750Y-94929000D01*
X158569000Y-94929000D01*
X158315000Y-94929000D01*
X156256250Y-94929000D01*
X156161000Y-95024250D01*
X148951237Y-95024250D01*
X149774273Y-94201214D01*
X156161000Y-94201214D01*
X156161000Y-94579750D01*
X156256250Y-94675000D01*
X158315000Y-94675000D01*
X158315000Y-93991250D01*
X158569000Y-93991250D01*
X158569000Y-94675000D01*
X160627750Y-94675000D01*
X160723000Y-94579750D01*
X160723000Y-94201214D01*
X160664996Y-94061180D01*
X160557819Y-93954004D01*
X160417785Y-93896000D01*
X158664250Y-93896000D01*
X158569000Y-93991250D01*
X158315000Y-93991250D01*
X158219750Y-93896000D01*
X156466215Y-93896000D01*
X156326181Y-93954004D01*
X156219004Y-94061180D01*
X156161000Y-94201214D01*
X149774273Y-94201214D01*
X158625717Y-85349771D01*
X158625717Y-85638000D01*
X158674380Y-85882643D01*
X158760173Y-86011041D01*
X158646583Y-86033635D01*
X158397838Y-86199842D01*
X158355884Y-86262630D01*
X158044627Y-86573888D01*
X157981840Y-86615841D01*
X157939887Y-86678628D01*
X157939886Y-86678629D01*
X157815632Y-86864587D01*
X157757269Y-87158002D01*
X157772001Y-87232065D01*
X157772000Y-88885941D01*
X157757269Y-88960000D01*
X157772000Y-89034059D01*
X157772000Y-89034062D01*
X157815632Y-89253415D01*
X157981839Y-89502161D01*
X158044629Y-89544116D01*
X159844885Y-91344373D01*
X159886839Y-91407161D01*
X160135584Y-91573368D01*
X160354937Y-91617000D01*
X160354941Y-91617000D01*
X160429000Y-91631731D01*
X160503059Y-91617000D01*
X164262574Y-91617000D01*
X164421287Y-96590000D01*
X151989626Y-96590000D01*
X151915568Y-96575269D01*
X151841510Y-96590000D01*
X151841506Y-96590000D01*
X151622153Y-96633632D01*
X151512351Y-96707000D01*
X151436194Y-96757886D01*
X151436192Y-96757888D01*
X151373408Y-96799839D01*
X151331456Y-96862624D01*
X141936082Y-106258000D01*
X141768286Y-106258000D01*
X141390820Y-106414352D01*
X141101921Y-106703251D01*
X140945569Y-107080717D01*
X140945569Y-107403999D01*
X137848142Y-107403999D01*
X137752977Y-107174251D01*
X137464078Y-106885352D01*
X137419772Y-106867000D01*
X137464078Y-106848648D01*
X137752977Y-106559749D01*
X137909329Y-106182283D01*
X137909329Y-105773717D01*
X137752977Y-105396251D01*
X137464078Y-105107352D01*
X137086612Y-104951000D01*
X136871095Y-104951000D01*
X136797000Y-104883571D01*
X136797000Y-103495487D01*
X140699118Y-99593370D01*
X140711001Y-99595734D01*
X140785060Y-99581003D01*
X140785064Y-99581003D01*
X141004417Y-99537371D01*
X141253162Y-99371164D01*
X141295117Y-99308374D01*
X153504377Y-87099116D01*
X153567161Y-87057165D01*
X153609112Y-86994381D01*
X153609114Y-86994379D01*
X153672594Y-86899374D01*
X153733368Y-86808420D01*
X153777000Y-86589067D01*
X153777000Y-86589063D01*
X153791731Y-86515005D01*
X153777000Y-86440947D01*
X153777000Y-80360295D01*
X153825000Y-80328223D01*
X153930357Y-80398620D01*
X154175000Y-80447283D01*
X155075000Y-80447283D01*
X155319643Y-80398620D01*
X155527041Y-80260041D01*
X155660704Y-80060000D01*
X155947871Y-80060000D01*
X155951380Y-80077643D01*
G36*
X164602717Y-102274804D02*
X164602717Y-102432000D01*
X152058487Y-102432000D01*
X153469205Y-101021283D01*
X153945000Y-101021283D01*
X154189643Y-100972620D01*
X154295000Y-100902223D01*
X154400357Y-100972620D01*
X154645000Y-101021283D01*
X155545000Y-101021283D01*
X155789643Y-100972620D01*
X155997041Y-100834041D01*
X156035148Y-100777010D01*
X156089959Y-100859041D01*
X156297357Y-100997620D01*
X156542000Y-101046283D01*
X160342000Y-101046283D01*
X160586643Y-100997620D01*
X160794041Y-100859041D01*
X160932620Y-100651643D01*
X160981283Y-100407000D01*
X160981283Y-99357000D01*
X160932620Y-99112357D01*
X160794041Y-98904959D01*
X160586643Y-98766380D01*
X160342000Y-98717717D01*
X156542000Y-98717717D01*
X156297357Y-98766380D01*
X156089959Y-98904959D01*
X156035148Y-98986990D01*
X155997041Y-98929959D01*
X155789643Y-98791380D01*
X155545000Y-98742717D01*
X154645000Y-98742717D01*
X154400357Y-98791380D01*
X154295000Y-98861777D01*
X154189643Y-98791380D01*
X153945000Y-98742717D01*
X153045000Y-98742717D01*
X152800357Y-98791380D01*
X152592959Y-98929959D01*
X152454380Y-99137357D01*
X152405717Y-99382000D01*
X152405717Y-99957795D01*
X150480514Y-101882999D01*
X149191397Y-101882999D01*
X149072749Y-101764351D01*
X148707852Y-101613205D01*
X152227058Y-98094000D01*
X164469287Y-98094000D01*
X164602717Y-102274804D01*
X164602717Y-102274804D01*
G37*
X164602717Y-102274804D02*
X164602717Y-102432000D01*
X152058487Y-102432000D01*
X153469205Y-101021283D01*
X153945000Y-101021283D01*
X154189643Y-100972620D01*
X154295000Y-100902223D01*
X154400357Y-100972620D01*
X154645000Y-101021283D01*
X155545000Y-101021283D01*
X155789643Y-100972620D01*
X155997041Y-100834041D01*
X156035148Y-100777010D01*
X156089959Y-100859041D01*
X156297357Y-100997620D01*
X156542000Y-101046283D01*
X160342000Y-101046283D01*
X160586643Y-100997620D01*
X160794041Y-100859041D01*
X160932620Y-100651643D01*
X160981283Y-100407000D01*
X160981283Y-99357000D01*
X160932620Y-99112357D01*
X160794041Y-98904959D01*
X160586643Y-98766380D01*
X160342000Y-98717717D01*
X156542000Y-98717717D01*
X156297357Y-98766380D01*
X156089959Y-98904959D01*
X156035148Y-98986990D01*
X155997041Y-98929959D01*
X155789643Y-98791380D01*
X155545000Y-98742717D01*
X154645000Y-98742717D01*
X154400357Y-98791380D01*
X154295000Y-98861777D01*
X154189643Y-98791380D01*
X153945000Y-98742717D01*
X153045000Y-98742717D01*
X152800357Y-98791380D01*
X152592959Y-98929959D01*
X152454380Y-99137357D01*
X152405717Y-99382000D01*
X152405717Y-99957795D01*
X150480514Y-101882999D01*
X149191397Y-101882999D01*
X149072749Y-101764351D01*
X148707852Y-101613205D01*
X152227058Y-98094000D01*
X164469287Y-98094000D01*
X164602717Y-102274804D01*
G36*
X165222254Y-84191000D02*
X165088380Y-84391357D01*
X165039717Y-84636000D01*
X165039717Y-87192000D01*
X164536559Y-87192000D01*
X164462500Y-87177269D01*
X164388441Y-87192000D01*
X164388437Y-87192000D01*
X164169084Y-87235632D01*
X163920339Y-87401839D01*
X163878385Y-87464627D01*
X163490796Y-87852217D01*
X163465000Y-87852217D01*
X163220357Y-87900880D01*
X163012959Y-88039459D01*
X162965491Y-88110500D01*
X162912998Y-88110500D01*
X162912998Y-88189061D01*
X162912122Y-88190372D01*
X162832250Y-88110500D01*
X162739214Y-88110500D01*
X162715000Y-88120530D01*
X162690786Y-88110500D01*
X162597750Y-88110500D01*
X162517878Y-88190372D01*
X162517002Y-88189061D01*
X162517002Y-88110500D01*
X162464509Y-88110500D01*
X162417041Y-88039459D01*
X162209643Y-87900880D01*
X161965000Y-87852217D01*
X161515000Y-87852217D01*
X161300520Y-87894880D01*
X161160785Y-87837000D01*
X160397250Y-87837000D01*
X160302000Y-87932250D01*
X160302000Y-88401000D01*
X160322000Y-88401000D01*
X160322000Y-88655000D01*
X160302000Y-88655000D01*
X160302000Y-89123750D01*
X160397250Y-89219000D01*
X160875717Y-89219000D01*
X160875717Y-89941500D01*
X160909831Y-90113000D01*
X160740488Y-90113000D01*
X159846487Y-89219000D01*
X159952750Y-89219000D01*
X160048000Y-89123750D01*
X160048000Y-88655000D01*
X160028000Y-88655000D01*
X160028000Y-88401000D01*
X160048000Y-88401000D01*
X160048000Y-87932250D01*
X159952750Y-87837000D01*
X159276000Y-87837000D01*
X159276000Y-87494003D01*
X160665438Y-87494003D01*
X160739497Y-87508734D01*
X160813556Y-87494003D01*
X160813560Y-87494003D01*
X161032913Y-87450371D01*
X161281658Y-87284164D01*
X161323613Y-87221374D01*
X162219374Y-86325614D01*
X162282161Y-86283661D01*
X162384311Y-86130783D01*
X162615000Y-86130783D01*
X162715000Y-86110892D01*
X162815000Y-86130783D01*
X163265000Y-86130783D01*
X163365000Y-86110892D01*
X163465000Y-86130783D01*
X163915000Y-86130783D01*
X164159643Y-86082120D01*
X164367041Y-85943541D01*
X164505620Y-85736143D01*
X164554283Y-85491500D01*
X164554283Y-84465704D01*
X164966988Y-84053000D01*
X165130046Y-84053000D01*
X165222254Y-84191000D01*
X165222254Y-84191000D01*
G37*
X165222254Y-84191000D02*
X165088380Y-84391357D01*
X165039717Y-84636000D01*
X165039717Y-87192000D01*
X164536559Y-87192000D01*
X164462500Y-87177269D01*
X164388441Y-87192000D01*
X164388437Y-87192000D01*
X164169084Y-87235632D01*
X163920339Y-87401839D01*
X163878385Y-87464627D01*
X163490796Y-87852217D01*
X163465000Y-87852217D01*
X163220357Y-87900880D01*
X163012959Y-88039459D01*
X162965491Y-88110500D01*
X162912998Y-88110500D01*
X162912998Y-88189061D01*
X162912122Y-88190372D01*
X162832250Y-88110500D01*
X162739214Y-88110500D01*
X162715000Y-88120530D01*
X162690786Y-88110500D01*
X162597750Y-88110500D01*
X162517878Y-88190372D01*
X162517002Y-88189061D01*
X162517002Y-88110500D01*
X162464509Y-88110500D01*
X162417041Y-88039459D01*
X162209643Y-87900880D01*
X161965000Y-87852217D01*
X161515000Y-87852217D01*
X161300520Y-87894880D01*
X161160785Y-87837000D01*
X160397250Y-87837000D01*
X160302000Y-87932250D01*
X160302000Y-88401000D01*
X160322000Y-88401000D01*
X160322000Y-88655000D01*
X160302000Y-88655000D01*
X160302000Y-89123750D01*
X160397250Y-89219000D01*
X160875717Y-89219000D01*
X160875717Y-89941500D01*
X160909831Y-90113000D01*
X160740488Y-90113000D01*
X159846487Y-89219000D01*
X159952750Y-89219000D01*
X160048000Y-89123750D01*
X160048000Y-88655000D01*
X160028000Y-88655000D01*
X160028000Y-88401000D01*
X160048000Y-88401000D01*
X160048000Y-87932250D01*
X159952750Y-87837000D01*
X159276000Y-87837000D01*
X159276000Y-87494003D01*
X160665438Y-87494003D01*
X160739497Y-87508734D01*
X160813556Y-87494003D01*
X160813560Y-87494003D01*
X161032913Y-87450371D01*
X161281658Y-87284164D01*
X161323613Y-87221374D01*
X162219374Y-86325614D01*
X162282161Y-86283661D01*
X162384311Y-86130783D01*
X162615000Y-86130783D01*
X162715000Y-86110892D01*
X162815000Y-86130783D01*
X163265000Y-86130783D01*
X163365000Y-86110892D01*
X163465000Y-86130783D01*
X163915000Y-86130783D01*
X164159643Y-86082120D01*
X164367041Y-85943541D01*
X164505620Y-85736143D01*
X164554283Y-85491500D01*
X164554283Y-84465704D01*
X164966988Y-84053000D01*
X165130046Y-84053000D01*
X165222254Y-84191000D01*
G04 #@! TO.N,SUPPLY*
G36*
X163438000Y-65903406D02*
X148052000Y-65952594D01*
X148052000Y-60086150D01*
X159845852Y-60006997D01*
X159870612Y-60004391D01*
X159894387Y-59997004D01*
X159916265Y-59985121D01*
X159935403Y-59969198D01*
X159951068Y-59949847D01*
X159962656Y-59927812D01*
X159969723Y-59903940D01*
X159972000Y-59879853D01*
X159957000Y-46919853D01*
X159954531Y-46895079D01*
X159947276Y-46871263D01*
X159935515Y-46849320D01*
X159919699Y-46830094D01*
X159900435Y-46814322D01*
X159878465Y-46802611D01*
X159854632Y-46795412D01*
X159829614Y-46793001D01*
X140219405Y-46852637D01*
X140045307Y-44022250D01*
X156069000Y-44022250D01*
X156069000Y-44437525D01*
X156083642Y-44511134D01*
X156112362Y-44580471D01*
X156154058Y-44642874D01*
X156207127Y-44695942D01*
X156269529Y-44737638D01*
X156338867Y-44766358D01*
X156412475Y-44781000D01*
X156827750Y-44781000D01*
X156923000Y-44685750D01*
X156923000Y-43927000D01*
X157177000Y-43927000D01*
X157177000Y-44685750D01*
X157272250Y-44781000D01*
X157687525Y-44781000D01*
X157761133Y-44766358D01*
X157830471Y-44737638D01*
X157892873Y-44695942D01*
X157945942Y-44642874D01*
X157987638Y-44580471D01*
X158016358Y-44511134D01*
X158031000Y-44437525D01*
X158031000Y-44022250D01*
X157935750Y-43927000D01*
X157177000Y-43927000D01*
X156923000Y-43927000D01*
X156164250Y-43927000D01*
X156069000Y-44022250D01*
X140045307Y-44022250D01*
X139992422Y-43162475D01*
X156069000Y-43162475D01*
X156069000Y-43577750D01*
X156164250Y-43673000D01*
X156923000Y-43673000D01*
X156923000Y-42914250D01*
X157177000Y-42914250D01*
X157177000Y-43673000D01*
X157935750Y-43673000D01*
X158031000Y-43577750D01*
X158031000Y-43162475D01*
X158016358Y-43088866D01*
X157987638Y-43019529D01*
X157945942Y-42957126D01*
X157892873Y-42904058D01*
X157830471Y-42862362D01*
X157761133Y-42833642D01*
X157687525Y-42819000D01*
X157272250Y-42819000D01*
X157177000Y-42914250D01*
X156923000Y-42914250D01*
X156827750Y-42819000D01*
X156412475Y-42819000D01*
X156338867Y-42833642D01*
X156269529Y-42862362D01*
X156207127Y-42904058D01*
X156154058Y-42957126D01*
X156112362Y-43019529D01*
X156083642Y-43088866D01*
X156069000Y-43162475D01*
X139992422Y-43162475D01*
X139730051Y-38897000D01*
X163438000Y-38897000D01*
X163438000Y-65903406D01*
X163438000Y-65903406D01*
G37*
X163438000Y-65903406D02*
X148052000Y-65952594D01*
X148052000Y-60086150D01*
X159845852Y-60006997D01*
X159870612Y-60004391D01*
X159894387Y-59997004D01*
X159916265Y-59985121D01*
X159935403Y-59969198D01*
X159951068Y-59949847D01*
X159962656Y-59927812D01*
X159969723Y-59903940D01*
X159972000Y-59879853D01*
X159957000Y-46919853D01*
X159954531Y-46895079D01*
X159947276Y-46871263D01*
X159935515Y-46849320D01*
X159919699Y-46830094D01*
X159900435Y-46814322D01*
X159878465Y-46802611D01*
X159854632Y-46795412D01*
X159829614Y-46793001D01*
X140219405Y-46852637D01*
X140045307Y-44022250D01*
X156069000Y-44022250D01*
X156069000Y-44437525D01*
X156083642Y-44511134D01*
X156112362Y-44580471D01*
X156154058Y-44642874D01*
X156207127Y-44695942D01*
X156269529Y-44737638D01*
X156338867Y-44766358D01*
X156412475Y-44781000D01*
X156827750Y-44781000D01*
X156923000Y-44685750D01*
X156923000Y-43927000D01*
X157177000Y-43927000D01*
X157177000Y-44685750D01*
X157272250Y-44781000D01*
X157687525Y-44781000D01*
X157761133Y-44766358D01*
X157830471Y-44737638D01*
X157892873Y-44695942D01*
X157945942Y-44642874D01*
X157987638Y-44580471D01*
X158016358Y-44511134D01*
X158031000Y-44437525D01*
X158031000Y-44022250D01*
X157935750Y-43927000D01*
X157177000Y-43927000D01*
X156923000Y-43927000D01*
X156164250Y-43927000D01*
X156069000Y-44022250D01*
X140045307Y-44022250D01*
X139992422Y-43162475D01*
X156069000Y-43162475D01*
X156069000Y-43577750D01*
X156164250Y-43673000D01*
X156923000Y-43673000D01*
X156923000Y-42914250D01*
X157177000Y-42914250D01*
X157177000Y-43673000D01*
X157935750Y-43673000D01*
X158031000Y-43577750D01*
X158031000Y-43162475D01*
X158016358Y-43088866D01*
X157987638Y-43019529D01*
X157945942Y-42957126D01*
X157892873Y-42904058D01*
X157830471Y-42862362D01*
X157761133Y-42833642D01*
X157687525Y-42819000D01*
X157272250Y-42819000D01*
X157177000Y-42914250D01*
X156923000Y-42914250D01*
X156827750Y-42819000D01*
X156412475Y-42819000D01*
X156338867Y-42833642D01*
X156269529Y-42862362D01*
X156207127Y-42904058D01*
X156154058Y-42957126D01*
X156112362Y-43019529D01*
X156083642Y-43088866D01*
X156069000Y-43162475D01*
X139992422Y-43162475D01*
X139730051Y-38897000D01*
X163438000Y-38897000D01*
X163438000Y-65903406D01*
G04 #@! TD*
M02*
