M48
;DRILL file {KiCad 5.0.2+dfsg1-1} date Tue 08 Oct 2019 03:24:51 AM EDT
;FORMAT={-:-/ absolute / inch / decimal}
FMAT,2
INCH,TZ
T1C0.0157
T2C0.0300
T3C0.0315
%
G90
G05
T1
X3.4761Y-4.8724
X3.5261Y-3.5424
X3.7061Y-3.6324
X3.7261Y-4.583
X3.7261Y-4.6224
X3.7361Y-3.7624
X3.7661Y-3.5524
X3.9005Y-3.7168
X3.904Y-3.89
X3.9088Y-3.9291
X3.9161Y-4.7424
X3.9162Y-4.2229
X3.9461Y-4.9424
X3.9561Y-4.2224
X3.9861Y-4.6024
X4.0061Y-4.5524
X4.0161Y-4.1424
X4.0161Y-4.7624
X4.1661Y-3.4024
X4.2061Y-4.6124
X4.2063Y-4.8922
X4.2851Y-4.9509
X4.293Y-5.0609
X4.3061Y-3.4524
X4.3133Y-4.8199
X4.3161Y-4.1913
X4.3162Y-4.7723
X4.3261Y-4.5724
X4.4061Y-4.0924
X4.4461Y-4.1524
X4.4661Y-4.1924
X4.4661Y-5.1624
X4.4761Y-3.4624
X4.4761Y-5.0224
X4.4846Y-4.9037
X4.5061Y-5.1024
X4.5161Y-4.8724
X4.5161Y-4.9324
X4.5261Y-4.9924
X4.5359Y-4.5925
X4.5961Y-5.1324
X4.6623Y-5.2389
X4.6861Y-4.8724
X4.6961Y-4.9374
X4.7261Y-5.3124
X4.8561Y-4.9924
X4.8661Y-3.4424
X4.8661Y-4.0924
X4.9161Y-4.5824
X5.0361Y-4.1924
X5.0461Y-4.2333
X5.0761Y-3.3424
X5.0861Y-4.1224
X5.0961Y-3.8024
X5.0961Y-4.1624
X5.1761Y-3.3624
X5.1861Y-3.5924
X5.1979Y-4.3824
X5.2461Y-4.3224
X5.2561Y-4.2824
X5.2944Y-4.3174
X5.3261Y-4.3224
X5.3461Y-4.3908
X5.3648Y-3.5529
X5.3891Y-4.1724
X5.3891Y-4.2424
X5.3891Y-4.3415
X5.4261Y-3.6709
X5.5061Y-3.3324
X5.5261Y-3.8424
X5.5361Y-4.1224
X5.5719Y-4.4803
X5.5761Y-4.3624
X5.5861Y-3.5424
X5.5895Y-4.2238
X5.7261Y-4.0149
X5.7861Y-3.8024
X5.8461Y-4.0407
X6.1961Y-3.7924
X6.2461Y-4.3424
X6.2761Y-2.8724
X6.2761Y-3.0424
X6.2761Y-4.0124
X6.3161Y-3.3124
X6.3561Y-4.5824
X6.3635Y-5.031
X6.3761Y-3.4486
X6.3761Y-4.8574
X6.4232Y-4.2524
X6.4261Y-4.2124
X6.4261Y-4.9824
X6.9261Y-3.1924
X6.9861Y-3.9924
X7.2161Y-2.9724
X7.2611Y-4.5874
X7.2911Y-3.7674
T2
X6.8461Y-5.0924
X6.8461Y-5.1524
X6.8511Y-4.9724
X6.8511Y-5.0324
X6.8561Y-4.9124
X6.8911Y-3.7974
X6.8911Y-3.8574
X6.8911Y-3.9574
X6.9011Y-3.6674
X6.9011Y-3.7324
X6.9011Y-4.6574
X6.9011Y-4.7174
X6.9011Y-4.7824
X6.9061Y-5.0924
X6.9061Y-5.1524
X6.9111Y-3.3174
X6.9111Y-3.3824
X6.9111Y-3.4474
X6.9111Y-3.5224
X6.9111Y-4.4924
X6.9111Y-4.5974
X6.9111Y-4.9724
X6.9111Y-5.0324
X6.9161Y-4.9124
X6.9411Y-3.9174
X6.9411Y-4.1274
X6.9461Y-2.7624
X6.9461Y-2.8274
X6.9461Y-2.8874
X6.9461Y-2.9574
X6.9461Y-3.0224
X6.9511Y-2.6974
X6.9511Y-3.8524
X6.9561Y-3.7924
X6.9611Y-4.5574
X6.9661Y-3.6674
X6.9661Y-3.7324
X6.9661Y-4.6524
X6.9711Y-4.4774
X6.9761Y-3.3174
X6.9811Y-4.9124
X6.9911Y-3.5224
X6.9911Y-4.0724
X7.0061Y-4.1324
X7.0111Y-2.8274
X7.0111Y-4.6074
X7.0161Y-2.6974
X7.0161Y-2.7624
X7.0161Y-3.8174
X7.0361Y-3.3174
X7.0411Y-4.4724
X7.0461Y-4.9124
X7.0561Y-4.0724
X7.0611Y-4.6474
X7.0661Y-3.5224
X7.0711Y-4.1324
X7.0761Y-2.8224
X7.0811Y-2.6974
X7.0811Y-2.7624
X7.1011Y-3.3174
X7.1111Y-4.4774
X7.1111Y-4.9124
X7.1211Y-4.0724
X7.1361Y-4.1324
X7.1461Y-3.5224
X7.1661Y-3.3174
X7.1661Y-4.5124
X7.1661Y-5.1374
X7.1711Y-4.9124
X7.1711Y-4.9974
X7.1711Y-5.0674
X7.1861Y-4.0724
X7.2061Y-4.1324
X7.2061Y-4.2024
X7.2061Y-4.2724
X7.2061Y-4.3374
X7.2211Y-3.8474
X7.2211Y-3.9124
X7.2311Y-2.6974
X7.2311Y-2.7624
X7.2311Y-2.8224
X7.2311Y-3.3174
X7.2311Y-3.3824
X7.2311Y-3.5224
X7.2311Y-3.6824
X7.2361Y-3.4524
X7.2961Y-3.3224
T3
X6.1811Y-2.0728
X6.1811Y-2.2697
X6.1831Y-1.7244
X6.1831Y-1.9213
T0
M30
